<svg fill="none" height="56" viewBox="0 0 56 56" width="56" xmlns="http://www.w3.org/2000/svg"><path d="m37.2038 0h-18.4138c-1.5298 0-2.9969.608218-4.0815 1.68671l-13.02198 13.02339c-1.07837 1.0848-1.68652 2.552-1.68652 4.082v18.4158c0 1.53.60815 2.9972 1.68652 4.082l13.02198 13.0234c1.0846 1.0848 2.5517 1.6867 4.0815 1.6867h18.4138c1.5297 0 2.9968-.6082 4.0815-1.6867l13.0219-13.0234c1.0847-1.0848 1.6865-2.552 1.6865-4.082v-18.4158c0-1.53-.6081-2.9972-1.6865-4.082l-13.0282-13.02339c-1.0784-1.078492-2.5455-1.68671-4.0752-1.68671z" fill="#e1d4fb"/></svg>