<svg fill="none" height="28" viewBox="0 0 28 28" width="28" xmlns="http://www.w3.org/2000/svg"><path d="m3.33317 5.99984h-2.666666v18.66666c0 1.4667 1.199996 2.6667 2.666666 2.6667h18.66663v-2.6667h-18.66663zm13.33333 6.66666c2.2133 0 4-1.7867 4-4 0-2.21333-1.7867-4-4-4s-4 1.78667-4 4c0 2.2133 1.7867 4 4 4zm0-5.33333c.7333 0 1.3333.6 1.3333 1.33333 0 .73334-.6 1.33334-1.3333 1.33334s-1.3333-.6-1.3333-1.33334c0-.73333.6-1.33333 1.3333-1.33333zm8-6.666666h-16c-1.46666 0-2.66666 1.199996-2.66666 2.666666v16.00003c0 1.4666 1.2 2.6666 2.66666 2.6666h16c1.4667 0 2.6667-1.2 2.6667-2.6666v-16.00003c0-1.46667-1.2-2.666666-2.6667-2.666666zm-12.4133 18.666696c1.2666-.84 2.7866-1.3334 4.4133-1.3334s3.1467.4934 4.4133 1.3334zm12.4133-.36c-1.96-2.2267-4.8-3.64-8-3.64s-6.04 1.4133-8 3.64v-15.64003h16z" fill="#682ae9"/></svg>