<svg fill="none" height="18" viewBox="0 0 20 18" width="20" xmlns="http://www.w3.org/2000/svg"><rect height="14" rx="3" stroke="#e1d4fb" stroke-width="2" width="14" x="1" y="2.65723"/><path clip-rule="evenodd" d="m7.41411 13.508c-.23889-.0976-.46272-.2434-.65663-.4373l-2.82843-2.8284c-.78105-.78108-.78105-2.04741 0-2.82846s2.04738-.78105 2.82843 0l1.66421 1.66421 7.14951-7.14949c.781-.78105 2.0474-.78105 2.8284 0 .7811.78105.7811 2.04738 0 2.82843l-8.48527 8.48531c-.67918.6792-1.72532.7677-2.50022.2657z" fill="#e1d4fb" fill-rule="evenodd"/><path d="m7.41411 13.508.27186-.4196-.03933-.0255-.04338-.0177zm-.65663-.4373.35355-.3536zm-2.82843-2.8284-.35356.3535zm0-2.82846.35355.35355zm2.82843 0-.35356.35355zm1.66421 1.66421-.35355.35356.35355.35355.35355-.35355zm7.14951-7.14949-.3536-.35355zm2.8284 0 .3536-.35355zm0 2.82843-.3535-.35356zm-8.48527 8.48531.35357.3535zm-2.31107-.1971c-.17847-.073-.34614-.182-.49223-.3281l-.70711.7071c.24174.2418.52173.4243.82104.5467zm-.49223-.3281-2.82843-2.82838-.70711.70708 2.82843 2.8284zm-2.82843-2.82838c-.58578-.58579-.58578-1.53554 0-2.12133l-.70711-.7071c-.97631.97631-.97631 2.55922 0 3.53551zm0-2.12133c.58579-.58578 1.53554-.58578 2.12132 0l.70711-.7071c-.97631-.97631-2.55922-.97631-3.53554 0zm2.12132 0 1.66422 1.66422.7071-.70711-1.66421-1.66421zm2.37132 1.66422 7.14946-7.1495-.7071-.7071-7.14946 7.14949zm7.14946-7.1495c.5858-.58578 1.5356-.58578 2.1214 0l.7071-.7071c-.9763-.976314-2.5593-.976314-3.5356 0zm2.1214 0c.5857.58579.5857 1.53554 0 2.12132l.7071.70711c.9763-.97631.9763-2.55922 0-3.53553zm0 2.12132-8.48532 8.48527.70712.7071 8.4853-8.48526zm-8.48532 8.48527c-.50896.509-1.29376.5761-1.87481.1997l-.54372.8392c.96875.6277 2.27623.5176 3.12565-.3318z" fill="#682ae9"/></svg>