<svg fill="none" height="32" viewBox="0 0 32 32" width="32" xmlns="http://www.w3.org/2000/svg"><path d="m16.0002 29.3335c1.4666 0 2.6666-1.2 2.6666-2.6667h-5.3333c0 1.4667 1.2 2.6667 2.6667 2.6667zm8-8v-6.6667c0-4.0933-2.1734-7.51997-6-8.42664v-.90666c0-1.10667-.8934-2-2-2-1.1067 0-2 .89333-2 2v.90666c-3.8134.90667-6.00004 4.32004-6.00004 8.42664v6.6667l-2.66666 2.6667v1.3333h21.3333v-1.3333zm-2.6667 1.3333h-10.6667v-8c0-3.3066 2.0134-5.99997 5.3334-5.99997s5.3333 2.69337 5.3333 5.99997z" fill="#682ae9"/></svg>