<svg fill="none" height="80" viewBox="0 0 80 80" width="80" xmlns="http://www.w3.org/2000/svg" xmlns:xlink="http://www.w3.org/1999/xlink"><clipPath id="a"><path d="m13.75 13.75h52.5v52.5h-52.5z"/></clipPath><g clip-path="url(#a)"><path d="m40 66.25c14.4975 0 26.25-11.7525 26.25-26.25s-11.7525-26.25-26.25-26.25-26.25 11.7525-26.25 26.25 11.7525 26.25 26.25 26.25z" fill="#639"/><path d="m25.375 54.625c-3.9375-3.9375-6-9.1875-6-14.25l20.4375 20.25c-5.25-.1875-10.5-2.0625-14.4375-6zm19.125 5.4375-24.5625-24.5625c2.0625-9.1875 10.3125-16.125 20.0625-16.125 6.9375 0 12.9375 3.375 16.6875 8.4375l-2.8125 2.4375c-3.1875-4.3125-8.25-7.125-13.875-7.125-7.3125 0-13.5 4.6875-15.9375 11.25l21.5625 21.5625c5.4375-1.875 9.5625-6.5625 10.875-12.1875h-9v-3.75h13.125c0 9.75-6.9375 18-16.125 20.0625z" fill="#fff"/></g></svg>