<svg fill="none" height="80" viewBox="0 0 80 80" width="80" xmlns="http://www.w3.org/2000/svg" xmlns:xlink="http://www.w3.org/1999/xlink"><clipPath id="a"><path d="m13.75 13.75h52.5v52.5h-52.5z"/></clipPath><g clip-path="url(#a)"><path d="m38.2808 13.7641c-.1129.0103-.4722.0462-.7954.0719-7.4568.6722-14.4414 4.695-18.8652 10.8782-2.4633 3.4379-4.0388 7.3376-4.6341 11.4682-.2104 1.4419-.2361 1.8678-.2361 3.8228s.0257 2.3808.2361 3.8227c1.4267 9.8571 8.442 18.1389 17.9567 21.2073 1.7038.5491 3.5.9236 5.5426 1.1494.7954.0875 4.2338.0875 5.0292 0 3.5257-.39 6.5125-1.2623 9.4583-2.7657.4516-.2309.5388-.2925.4773-.3438-.0411-.0308-1.9656-2.6118-4.275-5.7316l-4.1979-5.6699-5.2603-7.7841c-2.8944-4.2795-5.2757-7.779-5.2962-7.779-.0205-.005-.0411 3.4534-.0513 7.6763-.0154 7.3941-.0205 7.6918-.1129 7.8662-.1334.2514-.2361.3541-.4516.467-.1642.0821-.3079.0975-1.0828.0975h-.8879l-.2361-.1489c-.1539-.0975-.2668-.2257-.3438-.3745l-.1078-.231.0103-10.288.0154-10.2932.1591-.2002c.0821-.1077.2566-.2462.3797-.313.2104-.1026.2926-.1129 1.1804-.1129 1.0469 0 1.2214.0411 1.4934.3387.077.0821 2.9252 4.3718 6.3329 9.5389 3.4076 5.1672 8.0674 12.2226 10.3563 15.6861l4.1568 6.296.2104-.1385c1.8629-1.211 3.8336-2.9351 5.3937-4.731 3.3204-3.8124 5.4604-8.4614 6.1789-13.4181.2104-1.4419.2361-1.8677.2361-3.8227s-.0257-2.3809-.2361-3.8228c-1.4267-9.8571-8.442-18.1388-17.9567-21.2073-1.6782-.5439-3.4641-.9185-5.4655-1.1443-.4928-.0513-3.8849-.1077-4.3109-.0667zm10.7463 15.876c.2463.1231.4465.3592.5183.6055.0411.1334.0514 2.9864.0411 9.4157l-.0154 9.226-1.6268-2.4938-1.632-2.4937v-6.7065c0-4.3359.0206-6.7732.0513-6.8912.0821-.2874.2617-.5132.5081-.6466.2104-.1078.2874-.118 1.0931-.118.7595 0 .8929.0102 1.0623.1026z" fill="#000"/></g></svg>