<svg fill="none" height="80" viewBox="0 0 80 80" width="80" xmlns="http://www.w3.org/2000/svg" xmlns:xlink="http://www.w3.org/1999/xlink"><radialGradient id="a" cx="29.143" cy="29.0152" gradientUnits="userSpaceOnUse" r="43.0722"><stop offset="0" stop-color="#aeb2d5"/><stop offset=".3" stop-color="#aeb2d5"/><stop offset=".75" stop-color="#484c89"/><stop offset="1" stop-color="#484c89"/></radialGradient><path d="m9.44922 40.2035c0 9.5293 14.68578 17.2545 32.80088 17.2545 18.115 0 32.8009-7.7252 32.8009-17.2545 0-9.5292-14.6859-17.2545-32.8009-17.2545-18.1151 0-32.80088 7.7253-32.80088 17.2545z" fill="url(#a)"/><path d="m42.25 56.1768c17.4076 0 31.5196-7.1516 31.5196-15.9735 0-8.8217-14.112-15.9734-31.5196-15.9734-17.4075 0-31.5195 7.1517-31.5195 15.9734 0 8.8219 14.112 15.9735 31.5195 15.9735z" fill="#777bb3"/><path d="m27.271 42.184c1.4314 0 2.5-.264 3.1761-.7843.6688-.515 1.1308-1.4073 1.373-2.6519.2257-1.1634.1397-1.9757-.2556-2.414-.4042-.4478-1.2781-.6748-2.5973-.6748h-2.2875l-1.2681 6.525zm-7.4816 8.0377c-.1062 0-.207-.0475-.2745-.1296-.0676-.082-.095-.1899-.0748-.2942l3.3608-17.2915c.0325-.1671.179-.2879.3494-.2879h7.2433c2.2764 0 3.9708.6181 5.0358 1.8373 1.0707 1.2257 1.4013 2.9389.9826 5.092-.1703.8773-.4634 1.6919-.8709 2.4213-.408.7302-.9472 1.4059-1.6029 2.0085-.7849.7346-1.6733 1.2673-2.638 1.5808-.9495.3093-2.1688.4661-3.6241.4661h-2.933l-.8376 4.3091c-.0325.1673-.1789.2881-.3492.2881z" fill="#000"/><path d="m26.9726 36.0154h1.9941c1.5922 0 2.1453.3494 2.3332.5576.3118.3457.3706 1.0746.1703 2.1078-.2252 1.1567-.6426 1.9769-1.2407 2.4374-.6124.4715-1.6081.7104-2.959.7104h-1.4277zm3.4205-4.1523h-7.2434c-.3408 0-.6337.2415-.6987.576l-3.3608 17.2915c-.0405.2087.0143.4245.1494.5885.1353.1641.3367.259.5493.259h3.7667c.3409 0 .6338-.2415.6988-.576l.7816-4.0212h2.6396c1.4926 0 2.7493-.1627 3.7345-.4837 1.0133-.3292 1.9456-.8874 2.7707-1.659.6824-.6278 1.2445-1.3325 1.6704-2.0948.426-.7624.7321-1.6127.9097-2.5272.4408-2.2664.0827-4.0813-1.064-5.3939-1.1356-1.3001-2.9202-1.9592-5.3038-1.9592zm-5.4138 10.6773h2.2912c1.5187 0 2.6499-.286 3.3932-.8582.7433-.5723 1.2447-1.5274 1.5052-2.8659.2493-1.2851.1358-2.1919-.3406-2.7202-.4769-.5283-1.4306-.7925-2.8616-.7925h-2.5809zm5.4138-9.9655c2.179 0 3.7686.5718 4.7678 1.7156.999 1.1438 1.2999 2.7403.9012 4.79-.164.8444-.4415 1.6163-.8322 2.3157-.3911.6998-.9019 1.3398-1.533 1.92-.7522.7039-1.5878 1.2055-2.5072 1.5042-.9194.2996-2.0905.4487-3.5141.4487h-3.2265l-.8935 4.5972h-3.7667l3.3608-17.2914z" fill="#fff"/><path d="m45.0478 45.625c-.1063 0-.2071-.0475-.2746-.1296-.0677-.0819-.0951-.1898-.0748-.2942l1.4866-7.6508c.1414-.7276.1066-1.2498-.0981-1.4705-.1253-.1349-.5016-.3611-1.6143-.3611h-2.6933l-1.8691 9.6181c-.0325.1673-.179.2881-.3494.2881h-3.7371c-.1063 0-.207-.0475-.2746-.1296-.0677-.0819-.0951-.1899-.0748-.2942l3.3608-17.2915c.0325-.1671.179-.2879.3494-.2879h3.7371c.1062 0 .207.0474.2746.1294.0676.0821.095.19.0747.2944l-.811 4.1734h2.8974c2.2072 0 3.704.3891 4.5757 1.1897.8886.8167 1.1659 2.1225.8242 3.8817l-1.5636 8.0465c-.0325.1673-.1789.2881-.3494.2881z" fill="#000"/><path d="m42.922 27.2654h-3.7371c-.3408 0-.6337.2416-.6987.576l-3.3608 17.2915c-.0406.2087.0142.4245.1495.5886.1352.1641.3367.259.5493.259h3.737c.3408 0 .6338-.2416.6988-.576l1.8132-9.3302h2.3999c1.1108 0 1.3439.2372 1.3533.2474.0673.0725.156.4083.0097 1.1604l-1.4867 7.6508c-.0405.2087.0143.4245.1495.5886.1353.1641.3367.259.5493.259h3.7964c.3407 0 .6338-.2416.6988-.576l1.5635-8.0466c.367-1.8888.053-3.3057-.9326-4.2116-.9406-.8638-2.5161-1.2837-4.8166-1.2837h-2.4657l.7288-3.7495c.0404-.2087-.0143-.4246-.1495-.5885-.1353-.1641-.3367-.2592-.5493-.2592zm0 .7119-.8935 4.5972h3.3292c2.0948 0 3.5397.3656 4.3349 1.0959.7953.7308 1.0335 1.915.7157 3.5518l-1.5637 8.0464h-3.7964l1.4867-7.6506c.1691-.8704.107-1.464-.1868-1.7805-.2938-.3166-.9189-.4751-1.875-.4751h-2.9868l-1.9251 9.9062h-3.737l3.3607-17.2913z" fill="#fff"/><path d="m56.6704 42.184c1.4314 0 2.4999-.264 3.1761-.7843.6688-.5149 1.1308-1.4072 1.3731-2.6519.2257-1.1634.1397-1.9757-.2557-2.414-.4042-.4478-1.2781-.6748-2.5973-.6748h-2.2875l-1.2681 6.525zm-7.4815 8.0377c-.1062 0-.207-.0475-.2745-.1296-.0676-.082-.0951-.1899-.0749-.2942l3.3608-17.2915c.0326-.1671.179-.2879.3495-.2879h7.2431c2.2766 0 3.9708.6181 5.036 1.8373 1.0707 1.2255 1.4012 2.9388.9826 5.092-.1706.8773-.4635 1.6919-.871 2.4213-.408.7302-.9472 1.4059-1.6029 2.0085-.7849.7346-1.6733 1.2673-2.638 1.5808-.9495.3093-2.1688.4661-3.6242.4661h-2.933l-.8372 4.3091c-.0327.1673-.1791.2881-.3495.2881z" fill="#000"/><path d="m56.3729 36.0154h1.994c1.5923 0 2.1454.3494 2.3333.5576.3119.3457.3707 1.0746.1702 2.1077-.2252 1.1568-.6426 1.977-1.2407 2.4375-.6124.4715-1.608.7104-2.9589.7104h-1.4276zm3.4204-4.1523h-7.2433c-.3407 0-.6336.2415-.6986.576l-3.3608 17.2915c-.0405.2087.0143.4245.1494.5885.1352.1641.3367.259.5493.259h3.7667c.3407 0 .6338-.2415.6988-.576l.7815-4.0212h2.6395c1.4927 0 2.7493-.1627 3.7346-.4837 1.0133-.3292 1.9458-.8875 2.7709-1.6592.6824-.6277 1.2442-1.3323 1.6702-2.0946.426-.7624.7321-1.6127.9097-2.5272.4407-2.2665.0827-4.0814-1.0641-5.394-1.1356-1.3-2.92-1.9591-5.3038-1.9591zm-5.4136 10.6773h2.2911c1.5187 0 2.6499-.286 3.3931-.8582.7435-.5723 1.2448-1.5274 1.5053-2.8659.2494-1.2851.1358-2.1919-.3406-2.7202-.4769-.5283-1.4307-.7925-2.8617-.7925h-2.5808zm5.4136-9.9655c2.179 0 3.7686.5718 4.7678 1.7156s1.2999 2.7403.9013 4.79c-.1641.8444-.4416 1.6163-.8322 2.3157-.3912.6998-.9019 1.3398-1.5331 1.92-.7521.7039-1.5877 1.2055-2.5071 1.5042-.9195.2996-2.0905.4487-3.5142.4487h-3.2264l-.8934 4.5972h-3.7667l3.3607-17.2914z" fill="#fff"/></svg>