<svg fill="none" height="80" viewBox="0 0 80 80" width="80" xmlns="http://www.w3.org/2000/svg" xmlns:xlink="http://www.w3.org/1999/xlink"><clipPath id="a"><path d="m6 10h67.5v59.6758h-67.5z"/></clipPath><g clip-path="url(#a)" fill="#2dbcaf"><path d="m11.0924 38.2873c-.1315 0-.1643-.0657-.0986-.1643l.6902-.8874c.0657-.0986.23-.1643.3615-.1643h11.7327c.1314 0 .1643.0986.0985.1972l-.5586.8545c-.0658.0986-.2301.1971-.3287.1971z"/><path d="m6.13146 41.3117c-.13146 0-.16432-.0657-.0986-.1643l.69016-.8874c.06573-.0986.23006-.1643.36151-.1643h14.98627c.1315 0 .1972.0986.1643.1972l-.2629.7887c-.0328.1315-.1643.1972-.2957.1972z"/><path d="m14.0856 44.3351c-.1315 0-.1644-.0986-.0986-.1972l.4601-.8216c.0657-.0986.1972-.1972.3286-.1972h6.573c.1314 0 .1971.0986.1971.2301l-.0657.7887c0 .1315-.1314.2301-.23.2301z"/><path d="m48.1991 37.6967c-2.0705.5258-3.4837.9202-5.5213 1.446-.493.1315-.5258.1643-.9531-.3286-.4929-.5587-.8544-.9202-1.5446-1.2489-2.0705-1.0188-4.0752-.723-5.9485.493-2.2348 1.446-3.3851 3.5822-3.3522 6.2443.0329 2.6291 1.8404 4.7982 4.4367 5.1597 2.2348.2958 4.1081-.493 5.587-2.1691.2958-.3615.5587-.7558.8874-1.2159-1.1832 0-2.6621 0-6.3429 0-.6902 0-.8545-.4273-.6244-.986.4272-1.0188 1.2159-2.7278 1.6761-3.5822.0985-.1972.3286-.5259.8216-.5259h11.9627c-.0657.8874-.0657 1.7747-.1972 2.6621-.3615 2.3662-1.2488 4.5353-2.6949 6.4414-2.3662 3.1222-5.4555 5.0612-9.3664 5.587-3.2207.4273-6.2114-.1971-8.8406-2.169-2.432-1.8405-3.8123-4.2724-4.1738-7.296-.4273-3.5822.6244-6.803 2.7935-9.6293 2.3334-3.0564 5.4226-4.9955 9.2021-5.6856 3.0893-.5587 6.0471-.1972 8.7091 1.6103 1.7418 1.1503 2.9907 2.7278 3.8123 4.634.1972.2957.0658.4601-.3286.5587z"/><path d="m59.0776 55.8702c-2.9907-.0657-5.7184-.9202-8.019-2.8921-1.939-1.6761-3.155-3.8123-3.5493-6.3429-.5916-3.7137.4272-7.0001 2.662-9.9251 2.3991-3.155 5.2912-4.7982 9.2021-5.4884 3.3522-.5915 6.5072-.2629 9.3664 1.6761 2.5963 1.7747 4.2067 4.1738 4.6339 7.3288.5587 4.4368-.723 8.0519-3.7794 11.1412-2.1691 2.2019-4.8311 3.5822-7.8875 4.2066-.8874.1644-1.7747.1972-2.6292.2958zm7.8218-13.2773c-.0329-.4273-.0329-.7559-.0986-1.0845-.5915-3.2536-3.5822-5.0941-6.7044-4.371-3.0564.6901-5.0283 2.6291-5.7513 5.7184-.5916 2.5635.6573 5.1598 3.0236 6.2114 1.8075.7888 3.6151.6902 5.3569-.1972 2.5963-1.3474 4.0095-3.4507 4.1738-6.2771z"/></g></svg>