<svg fill="none" height="80" viewBox="0 0 80 80" width="80" xmlns="http://www.w3.org/2000/svg" xmlns:xlink="http://www.w3.org/1999/xlink"><linearGradient id="a" gradientUnits="userSpaceOnUse" x1="18.4162" x2="35.9443" y1="24.4896" y2="54.8475"><stop offset="0" stop-color="#5a62c3"/><stop offset=".5" stop-color="#4d55bd"/><stop offset="1" stop-color="#3940ab"/></linearGradient><clipPath id="b"><path d="m13.75 15.25h52.5v48.8372h-52.5z"/></clipPath><g clip-path="url(#b)"><path d="m50.3686 33.5645h13.5609c1.2812 0 2.3198 1.0385 2.3198 2.3197v12.3522c0 4.7086-3.8171 8.5257-8.5258 8.5257h-.0403c-4.7086.0007-8.5263-3.8159-8.527-8.5245 0-.0004 0-.0008 0-.0012v-13.4596c.0001-.6695.5429-1.2123 1.2124-1.2123z" fill="#5059c9"/><path d="m59.5352 31.1222c3.0344 0 5.4942-2.4599 5.4942-5.4942 0-3.0344-2.4598-5.4942-5.4942-5.4942s-5.4942 2.4598-5.4942 5.4942c0 3.0343 2.4598 5.4942 5.4942 5.4942z" fill="#5059c9"/><path d="m42.4419 31.1221c4.383 0 7.9361-3.5531 7.9361-7.936 0-4.383-3.5531-7.9361-7.9361-7.9361-4.3829 0-7.936 3.5531-7.936 7.9361 0 4.3829 3.5531 7.936 7.936 7.936z" fill="#7b83eb"/><path d="m53.0238 33.5645h-22.3846c-1.2659.0313-2.2673 1.0819-2.2379 2.3478v14.0883c-.1768 7.597 5.8335 13.9012 13.4302 14.0871 7.5967-.1859 13.607-6.4901 13.4302-14.0871v-14.0883c.0294-1.2659-.972-2.3165-2.2379-2.3478z" fill="#7b83eb"/><g fill="#000"><path d="m43.0522 33.5645v19.7424c-.0061.9053-.5547 1.7187-1.3918 2.0634-.2666.1127-.5531.1708-.8425.1709h-11.3424c-.1588-.4029-.3053-.8058-.4274-1.2209-.4274-1.401-.6454-2.8574-.6471-4.3221v-14.0896c-.0293-1.2639.9704-2.3128 2.2343-2.3441z" opacity=".1"/><path d="m41.8314 33.5645v20.9633c-.0001.2894-.0582.5759-.171.8425-.3447.8371-1.158 1.3858-2.0634 1.3918h-9.5477c-.2076-.4029-.4029-.8058-.5738-1.2209-.171-.4151-.3053-.8058-.4274-1.2209-.4274-1.401-.6454-2.8574-.6471-4.3221v-14.0896c-.0293-1.2639.9704-2.3128 2.2343-2.3441z" opacity=".2"/><path d="m41.8313 33.5645v18.5215c-.0093 1.2301-1.0042 2.225-2.2343 2.2343h-10.5489c-.4274-1.401-.6454-2.8574-.6471-4.3221v-14.0896c-.0293-1.2639.9704-2.3128 2.2343-2.3441z" opacity=".2"/><path d="m40.6103 33.5645v18.5215c-.0093 1.2301-1.0042 2.225-2.2343 2.2343h-9.3279c-.4274-1.401-.6454-2.8574-.6471-4.3221v-14.0896c-.0293-1.2639.9704-2.3128 2.2343-2.3441z" opacity=".2"/><path d="m43.0523 27.2519v3.8459c-.2075.0122-.4029.0244-.6104.0244-.2076 0-.4029-.0122-.6105-.0244-.4121-.0274-.8208-.0927-1.2209-.1954-2.4724-.5855-4.515-2.3194-5.4942-4.6639-.1685-.3937-.2993-.8025-.3907-1.2209h6.0924c1.2321.0046 2.2297 1.0022 2.2343 2.2343z" opacity=".1"/><path d="m41.8314 28.4726v2.625c-.4121-.0274-.8209-.0928-1.2209-.1954-2.4725-.5855-4.5151-2.3194-5.4943-4.6639h4.4809c1.232.0046 2.2296 1.0022 2.2343 2.2343z" opacity=".2"/><path d="m41.8314 28.4726v2.625c-.4121-.0274-.8209-.0928-1.2209-.1954-2.4725-.5855-4.5151-2.3194-5.4943-4.6639h4.4809c1.232.0046 2.2296 1.0022 2.2343 2.2343z" opacity=".2"/><path d="m40.6104 28.4726v2.4296c-2.4724-.5855-4.515-2.3194-5.4942-4.6639h3.2599c1.232.0047 2.2296 1.0023 2.2343 2.2343z" opacity=".2"/></g><path d="m15.988 26.2383h22.3845c1.236 0 2.2379 1.002 2.2379 2.2379v22.3846c0 1.236-1.0019 2.2379-2.2379 2.2379h-22.3845c-1.236 0-2.238-1.0019-2.238-2.2379v-22.3846c0-1.2359 1.002-2.2379 2.238-2.2379z" fill="url(#a)"/><path d="m33.0696 34.7583h-4.4748v12.1849h-2.8508v-12.1849h-4.454v-2.3638h11.7796z" fill="#fff"/></g></svg>