<svg xmlns="http://www.w3.org/2000/svg" viewBox="0 0 207 48.35"><path d="M4.969 9.6a4.969 4.969 0 104.969 4.968A4.969 4.969 0 004.969 9.6z" fill="#00a63c"/><path d="M21.6 16.948a7.228 7.228 0 107.229 7.229 7.229 7.229 0 00-7.229-7.229zM4.969 29.8a3.974 3.974 0 103.975 3.973A3.974 3.974 0 004.969 29.8zM21.6 9.936a4.968 4.968 0 10-4.969-4.97 4.969 4.969 0 004.969 4.97z" fill="#f08c00"/><path d="M38.238 18.547a3.975 3.975 0 10-3.975-3.975 3.975 3.975 0 003.975 3.975z" fill="#00a63c"/><path d="M38.238 28.656a5.122 5.122 0 105.122 5.121 5.122 5.122 0 00-5.122-5.121z" fill="#f08c00"/><path d="M21.6 38.414a4.968 4.968 0 104.968 4.968 4.969 4.969 0 00-4.968-4.968zm109.773-6.079a8.314 8.314 0 112.7-15.512v-5.577a13.478 13.478 0 102.653 24.6V24.121h-5.356zm47.688-7.682l-15.435-14.209v26.632h5.529V23.242l15.434 14.531v-26.46h-5.528v13.34zm-35.579 12.423h12.405v-5.528h-6.877v-4.587h6.877v-5.529h-6.877v-4.59h6.877v-5.529h-12.405v25.763zm47.031-25.763v5.529h5.479v20.234h5.528V16.842H207v-5.529h-16.487z" fill="#00a63c"/><path d="M64.769 15.86a4.186 4.186 0 104.186 4.185 4.186 4.186 0 00-4.186-4.185z" fill="none"/><path d="M64.769 10.627a9.372 9.372 0 00-5.958 2.125l-.009.007a11.9 11.9 0 00-1.368 1.381 8.421 8.421 0 00-2.071 5.478v17.458h5.22v-8.6a9.418 9.418 0 104.186-17.853zm0 13.6a4.186 4.186 0 114.186-4.186 4.186 4.186 0 01-4.186 4.19zm39.455-3.113l-4.292-9.801h-5.88l7.641 16.762v9.001h5.217V27.93l7.467-16.617h-5.823l-4.33 9.801z" fill="#f08c00"/><path fill="none" d="M82.977 29.529h3.572l-1.786-5.583-1.786 5.583z"/><path d="M84.763 10.084L74.714 37.076h5.848l.934-2.918h6.534l.934 2.918h5.848zm-1.786 19.445l1.786-5.583 1.786 5.583z" fill="#f08c00"/></svg>