<svg xmlns="http://www.w3.org/2000/svg" viewBox="-0.5 -0.5 256 32"><defs/><defs><clipPath id="a"><path d="M0 0h255v31H0z"/></clipPath></defs><g clip-path="url(#a)"><path data-name="CENTURY 21" d="M139.879 18.487a6.493 6.493 0 11-12.98 0V.663h-5.6v17.824a12.1 12.1 0 1024.183 0V.663h-5.6M14.669 6.452A8.888 8.888 0 0120.88 9l3.22-4.79A14.33 14.33 0 0014.669.666 14.915 14.915 0 000 15.817 14.917 14.917 0 0014.669 30.97a14.331 14.331 0 009.431-3.544l-3.22-4.793a8.888 8.888 0 01-6.211 2.549A9.23 9.23 0 015.6 15.817a9.232 9.232 0 019.068-9.365m63.186 14.58L64.2.663h-5.6V30.97h5.6V10.6l13.655 20.37h5.6V.663h-5.6m13.061 0v5.789h8.658V30.97h5.6V6.452h8.658V.663m131.6 0v5.789h3.05V30.97h5.6V.663m-222.517 0V30.97h19.56v-5.786H37.169V18.71h11.207v-5.786H37.169V6.452h13.956V.663m124.34 10.174A10.027 10.027 0 00165.617.663h-12.664V30.97h5.6v-9.959h3.576l6.671 9.959h6.661l-6.969-10.4a10.156 10.156 0 006.969-9.73m-9.848 4.388h-7.061V6.452h7.061a4.323 4.323 0 014.245 4.385 4.323 4.323 0 01-4.245 4.388M201.123.663l-8.216 12.258L184.7.663h-6.661l12.074 18.018V30.97h5.6V18.681L207.788.663M237.5 15.806l.145-.215a9.754 9.754 0 001.582-5.347 9.943 9.943 0 00-.262-2.265 9.248 9.248 0 00-18.286 2.265c0 .119 0 .236.006.358h5.615c-.01-.119-.018-.237-.018-.358a3.737 3.737 0 013.673-3.791 3.608 3.608 0 013.67 3.791 7.7 7.7 0 01-1.18 2.945c-.313.473-11.919 17.782-11.919 17.782h19.25v-5.79h-8.557" fill="#beaf87" fill-rule="evenodd"/></g></svg>