<svg fill="none" height="80" viewBox="0 0 80 80" width="80" xmlns="http://www.w3.org/2000/svg"><g fill="#00d8ff"><path d="m37.9434 45.6026c3.119 0 5.6475-2.5285 5.6475-5.6475s-2.5285-5.6475-5.6475-5.6475-5.6475 2.5285-5.6475 5.6475 2.5285 5.6475 5.6475 5.6475z"/><path d="m37.9445 52.8924c-7.9312 0-14.8612-.9338-20.0475-2.7113-3.3637-1.1475-6.2212-2.6775-8.25747-4.4212-2.16-1.845-3.3075-3.8588-3.3075-5.805 0-3.735 4.09497-7.3913 10.96877-9.7763 5.625-1.9575 12.96-3.0487 20.6325-3.0487 7.5375 0 14.7712 1.0575 20.3625 2.9925 3.2737 1.125 6.03 2.5875 7.9875 4.2075 2.1262 1.7775 3.2512 3.7237 3.2512 5.625 0 3.8812-4.5787 7.8075-11.9587 10.2487-5.22 1.7325-12.195 2.6888-19.6313 2.6888zm0-23.0625c-7.2787 0-14.4787 1.0575-19.7437 2.8912-6.3225 2.205-9.15752 5.22-9.15752 7.2338 0 2.0925 3.04872 5.3887 9.73122 7.6725 4.905 1.6762 11.5425 2.565 19.17 2.565 7.155 0 13.8263-.9 18.7875-2.5538 6.9413-2.3062 10.1138-5.6025 10.1138-7.6837 0-1.0688-.81-2.3288-2.2838-3.555-1.6987-1.4175-4.1737-2.7113-7.1325-3.735-5.3212-1.8225-12.24-2.835-19.485-2.835z"/><path d="m25.1302 68.103c-1.1475 0-2.16-.2475-3.015-.7425-3.2287-1.8675-4.3537-7.245-2.9925-14.3887 1.1138-5.8613 3.8363-12.7463 7.6725-19.395 3.7688-6.525 8.2913-12.2625 12.7575-16.1438 2.61-2.2725 5.2538-3.9375 7.6388-4.815 2.5987-.9562 4.8487-.9562 6.4912-.0112 3.3638 1.935 4.4775 7.875 2.9025 15.48-1.1137 5.4-3.7687 11.9137-7.4812 18.36-3.96 6.8625-8.235 12.3975-12.3638 16.0087-2.6775 2.34-5.4337 4.05-7.9537 4.9388-1.3163.4725-2.5538.7087-3.6563.7087zm2.8238-33.8512 1.17.675c-3.6338 6.3-6.3225 13.0612-7.3575 18.5512-1.2488 6.5813-.045 10.5413 1.6875 11.5425.4275.2475.99.3825 1.6762.3825 2.2388 0 5.76-1.4175 9.8325-4.9725 3.9038-3.4087 7.9875-8.7187 11.8013-15.3225 3.5775-6.1987 6.12-12.4312 7.1775-17.55 1.4737-7.1662.2025-11.5537-1.6088-12.6-.9225-.5287-2.4187-.4612-4.2187.2025-2.0813.765-4.4325 2.2613-6.795 4.32-4.2413 3.69-8.5725 9.18-12.195 15.4575z"/><path d="m50.7574 68.1361c-3.06 0-6.9413-1.845-10.9913-5.3325-4.5225-3.8925-9.1237-9.6863-12.9712-16.335-3.78-6.525-6.48-13.3088-7.6163-19.125-.6637-3.3975-.7875-6.5138-.36-9.0225.4725-2.7338 1.5863-4.68 3.24-5.6363 3.3525-1.9462 9.0563.0563 14.8613 5.22 4.1175 3.6563 8.4375 9.2138 12.1612 15.6488 3.9713 6.8625 6.6375 13.3312 7.695 18.7087.6863 3.4875.7988 6.7275.315 9.36-.5175 2.8013-1.6875 4.7925-3.375 5.7713-.8437.495-1.845.7425-2.9587.7425zm-21.6225-23.0175c3.645 6.3 8.1675 12.0037 12.3975 15.6375 5.0737 4.365 9.1012 5.31 10.845 4.2975 1.8112-1.0463 3.1387-5.3325 1.7662-12.2625-1.0125-5.085-3.5662-11.2725-7.3912-17.8763-3.5888-6.1987-7.7175-11.52-11.6213-14.985-5.4675-4.86-9.9-5.9512-11.7112-4.905-.9225.5288-1.6088 1.8675-1.935 3.7575-.3713 2.1825-.2588 4.9725.3487 8.0438 1.08 5.5237 3.6675 12.015 7.3013 18.2925z"/></g></svg>