<svg width="380" height="200" viewBox="0 0 380 200" fill="none" xmlns="http://www.w3.org/2000/svg">
<path d="M0.5 0.5H379.5V199.5H0.5V0.5Z" fill="#D2E3F8" stroke="#D9DADF"/>
<g clip-path="url(#clip0)">
<path d="M198.373 73.3333H180.659C179.187 73.3333 177.776 73.9125 176.732 74.9396L164.205 87.3429C163.167 88.376 162.582 89.7734 162.582 91.2305V108.769C162.582 110.226 163.167 111.624 164.205 112.657L176.732 125.06C177.776 126.093 179.187 126.667 180.659 126.667H198.373C199.845 126.667 201.256 126.087 202.3 125.06L214.827 112.657C215.871 111.624 216.45 110.226 216.45 108.769V91.2305C216.45 89.7734 215.865 88.376 214.827 87.3429L202.294 74.9396C201.256 73.9125 199.845 73.3333 198.373 73.3333Z" fill="white"/>
<path d="M201.654 125.61C200.593 126.308 199.875 126.344 199.145 125.884C198.982 125.783 198.801 125.598 198.711 125.448C198.62 125.287 198.349 124.451 198.048 123.37C197.589 121.716 197.529 121.549 197.402 121.513C197.095 121.417 194.784 121.238 192.444 121.131L191.678 121.095L191.889 121.471C192.354 122.277 192.782 123.293 193.156 124.475C193.301 124.935 193.397 125.329 193.379 125.353C193.331 125.401 190.647 126.129 190.617 126.105C190.605 126.093 190.502 125.771 190.387 125.389C189.893 123.776 189.32 122.666 188.427 121.567L188.053 121.101L187.878 121.191C187.643 121.31 187.082 121.937 186.696 122.51C186.304 123.096 185.761 124.206 185.375 125.221C185.218 125.634 185.074 125.992 185.05 126.016C185.013 126.052 182.45 125.156 182.341 125.066C182.257 125.006 183.469 122.242 183.94 121.394C183.952 121.376 183.886 121.37 183.795 121.376C183.699 121.388 183.071 121.453 182.39 121.519C181.708 121.585 181.099 121.668 181.027 121.692C180.894 121.752 180.809 121.961 180.152 123.806C179.724 125.018 179.688 125.096 179.362 125.365C178.879 125.777 178.113 125.986 177.528 125.699C177.528 125.699 178.783 126.679 180.773 126.667C183.306 126.655 198.729 126.667 198.729 126.667C198.729 126.667 200.267 126.619 201.654 125.61ZM190.532 90.5856C195.363 90.8304 198.15 91.756 198.958 93.3863C199.109 93.6789 199.127 93.7864 199.127 94.288C199.127 94.8076 199.109 94.8912 198.928 95.2554C198.687 95.7392 198.132 96.2766 197.517 96.611C196.268 97.2978 194.242 97.6501 192.342 97.5127C190.78 97.3993 189.754 97.1544 188.445 96.5632C188.138 96.4319 187.836 96.3184 187.764 96.3184C187.691 96.3184 187.384 96.4259 187.076 96.5513C185.767 97.1067 184.591 97.3097 182.963 97.256C180.592 97.1783 179.018 96.4976 178.451 95.3152C178.288 94.9628 178.276 94.8971 178.306 94.4791C178.463 92.3054 180.194 91.1648 183.988 90.7349C185.689 90.5438 188.439 90.4781 190.532 90.5856ZM210.261 117.195C210.237 117.178 209.827 117.046 209.562 116.951C208.361 116.533 207.39 115.977 205.792 114.807C203.578 113.171 202.65 112.711 201.063 112.46C200.545 112.376 200.352 112.376 199.76 112.436C199.067 112.502 198.446 112.633 197.716 112.872L197.33 112.997L197.372 113.63C197.39 113.977 197.426 115.243 197.45 116.437L197.487 118.611L197.221 118.569C197.076 118.551 196.455 118.491 195.84 118.444C191.491 118.097 186.34 118.175 182.028 118.653C181.449 118.718 180.948 118.772 180.918 118.772C180.858 118.772 180.912 116.103 181.002 114.622C181.232 111.08 181.72 108.734 182.456 107.695C182.589 107.509 182.691 107.348 182.679 107.336C182.667 107.33 182.486 107.241 182.269 107.139C182.052 107.038 181.588 106.787 181.238 106.578C178.131 104.727 176.129 101.723 175.659 98.2114C175.526 97.2381 175.574 95.4585 175.749 94.4134C176.563 89.6898 179.223 85.8858 183.264 83.6763C184.706 82.8821 186.781 82.2968 189.386 81.9445C190.333 81.8191 193.023 81.8012 193.97 81.9147C197.963 82.4043 201.479 84.0704 204.429 86.8652C205.05 87.4564 205.201 87.7371 205.207 88.2805C205.213 88.9195 205.062 89.1464 204.001 90.1496C202.752 91.3261 202.354 91.8874 202.354 92.4965C202.354 92.6219 202.42 93.028 202.499 93.4042C203.06 95.978 202.999 98.1637 202.312 100.29C202.071 101.03 201.6 102.045 201.19 102.708C201.039 102.953 200.925 103.162 200.931 103.168C200.943 103.18 201.298 103.144 201.727 103.096C203.759 102.863 205.623 103.072 207.414 103.735C208.199 104.028 209.17 104.279 210.074 104.422C210.629 104.506 211.106 104.53 212.487 104.53C214.176 104.524 215.159 104.374 216.456 104.147C216.456 104.147 216.45 107.921 216.45 108.656C216.45 109.39 216.329 109.928 216.329 109.928C214.007 110.513 211.142 110.358 209.369 109.785C209.025 109.671 208.217 109.367 207.565 109.098C205.653 108.31 204.682 108.047 203.259 107.904C202.457 107.826 201.684 107.832 201.25 107.927C200.744 108.035 200.756 108.083 201.298 108.083C202.324 108.083 203.596 108.363 204.815 108.853C205.726 109.217 206.359 109.558 207.493 110.304C209.676 111.737 211.733 112.538 214.887 112.597L210.261 117.195ZM186.461 108.441C186.865 108.507 187.746 108.596 188.427 108.638L189.664 108.71L188.337 110.334C187.601 111.224 186.992 111.958 186.974 111.958C186.956 111.964 186.757 111.54 186.539 111.021C186.316 110.507 185.96 109.671 185.743 109.164L185.351 108.244L185.544 108.28C185.653 108.298 186.063 108.369 186.461 108.441Z" fill="#D2E3F8"/>
<path d="M190.605 90.5318C195.436 90.7766 198.222 91.7022 199.031 93.3325C199.181 93.6251 199.2 93.7326 199.2 94.2343C199.2 94.7538 199.181 94.8374 199 95.2017C198.759 95.6854 198.204 96.2228 197.589 96.5573C196.341 97.244 194.314 97.5963 192.414 97.459C190.852 97.3455 189.827 97.1007 188.518 96.5095C188.21 96.3781 187.909 96.2646 187.836 96.2646C187.764 96.2646 187.456 96.3721 187.149 96.4975C185.84 97.0529 184.664 97.256 183.035 97.2022C180.665 97.1246 179.091 96.4438 178.524 95.2614C178.361 94.9091 178.349 94.8434 178.379 94.4254C178.536 92.2516 180.267 91.111 184.06 90.6811C185.761 90.49 188.512 90.4243 190.605 90.5318Z" fill="white"/>
<path d="M186.461 108.441C186.865 108.507 187.746 108.596 188.427 108.638L189.664 108.71L188.337 110.334C187.601 111.224 186.992 111.958 186.974 111.958C186.956 111.964 186.757 111.54 186.539 111.021C186.316 110.507 185.96 109.671 185.743 109.164L185.351 108.244L185.544 108.28C185.653 108.298 186.063 108.369 186.461 108.441Z" fill="white"/>
<path d="M182.384 92.3712C181.937 92.5802 181.684 92.837 181.473 93.2968C181.334 93.6073 181.316 93.6969 181.34 94.1329C181.383 94.8793 181.726 95.3989 182.384 95.7213C182.806 95.9244 183.512 95.9303 183.964 95.7273C184.332 95.5661 184.724 95.1719 184.905 94.7778C185.104 94.3478 185.086 93.6491 184.869 93.2252C184.386 92.3055 183.307 91.9353 182.384 92.3712Z" fill="#D2E3F8"/>
<path d="M192.137 92.2994C191.781 92.4248 191.262 92.9085 191.111 93.2609C190.701 94.2104 191.075 95.2614 191.992 95.7033C192.281 95.8466 192.414 95.8705 192.818 95.8705C193.222 95.8705 193.355 95.8466 193.645 95.7033C194.549 95.2673 194.947 94.1327 194.513 93.2489C194.314 92.8428 193.85 92.4188 193.47 92.2934C193.12 92.174 192.48 92.18 192.137 92.2994Z" fill="#D2E3F8"/>
</g>
<defs>
<clipPath id="clip0">
<rect width="53.8734" height="53.3333" fill="white" transform="translate(162.582 73.3333)"/>
</clipPath>
</defs>
</svg>
