<svg width="471" height="362" viewBox="0 0 471 362" fill="none" xmlns="http://www.w3.org/2000/svg">
<path d="M460.983 361H9.01679C4.05755 361 0 359.112 0 356.805V5.19458C0 2.88756 4.05755 1 9.01679 1H460.983C465.942 1 470 2.88756 470 5.19458V356.805C470 359.112 465.942 361 460.983 361Z" fill="#0F1015"/>
<rect x="30.5" y="21.5" width="89" height="65" rx="9.5" stroke="#2A91E9"/>
<path d="M69.8887 53.4675L73.252 53.0574V39.5769H69.8477V37.2937L77.2305 35.9539V53.0574L80.5938 53.4675V55.8601H69.8887V53.4675Z" fill="#2A91E9"/>
<path d="M51.2864 70.0101L50.2814 67.9101H50.2364V74.9601H48.0914V64.4901H50.5814L53.4464 69.4401L54.4514 71.5401H54.4964V64.4901H56.6414V74.9601H54.1514L51.2864 70.0101Z" fill="white"/>
<path d="M63.1759 73.6401H63.1009C63.0309 73.8401 62.9359 74.0301 62.8159 74.2101C62.7059 74.3901 62.5609 74.5501 62.3809 74.6901C62.2009 74.8301 61.9859 74.9401 61.7359 75.0201C61.4959 75.1001 61.2159 75.1401 60.8959 75.1401C60.0859 75.1401 59.4709 74.8751 59.0509 74.3451C58.6409 73.8051 58.4359 73.0351 58.4359 72.0351V67.0851H60.6559V71.8401C60.6559 72.3201 60.7409 72.6901 60.9109 72.9501C61.0809 73.2101 61.3709 73.3401 61.7809 73.3401C61.9509 73.3401 62.1209 73.3151 62.2909 73.2651C62.4609 73.2151 62.6109 73.1451 62.7409 73.0551C62.8709 72.9551 62.9759 72.8351 63.0559 72.6951C63.1359 72.5551 63.1759 72.3901 63.1759 72.2001V67.0851H65.3959V74.9601H63.1759V73.6401Z" fill="white"/>
<path d="M67.1614 74.9601V67.0851H69.3814V68.4201H69.4714C69.6114 68.0001 69.8514 67.6451 70.1914 67.3551C70.5314 67.0551 70.9964 66.9051 71.5864 66.9051C72.1264 66.9051 72.5864 67.0401 72.9664 67.3101C73.3464 67.5801 73.6214 67.9751 73.7914 68.4951H73.8364C73.9064 68.2751 74.0114 68.0701 74.1514 67.8801C74.3014 67.6801 74.4814 67.5101 74.6914 67.3701C74.9014 67.2301 75.1364 67.1201 75.3964 67.0401C75.6564 66.9501 75.9364 66.9051 76.2364 66.9051C76.9964 66.9051 77.5764 67.1751 77.9764 67.7151C78.3864 68.2551 78.5914 69.0251 78.5914 70.0251V74.9601H76.3714V70.2051C76.3714 69.2051 76.0114 68.7051 75.2914 68.7051C74.9614 68.7051 74.6614 68.8001 74.3914 68.9901C74.1214 69.1801 73.9864 69.4701 73.9864 69.8601V74.9601H71.7664V70.2051C71.7664 69.2051 71.4064 68.7051 70.6864 68.7051C70.5264 68.7051 70.3664 68.7301 70.2064 68.7801C70.0564 68.8201 69.9164 68.8901 69.7864 68.9901C69.6664 69.0901 69.5664 69.2151 69.4864 69.3651C69.4164 69.5051 69.3814 69.6701 69.3814 69.8601V74.9601H67.1614Z" fill="white"/>
<path d="M80.2648 63.8601H82.4848V68.4051H82.5598C82.6698 67.9651 82.9198 67.6051 83.3098 67.3251C83.7098 67.0451 84.1648 66.9051 84.6748 66.9051C85.6748 66.9051 86.4298 67.2551 86.9398 67.9551C87.4498 68.6551 87.7048 69.6751 87.7048 71.0151C87.7048 72.3551 87.4498 73.3801 86.9398 74.0901C86.4298 74.7901 85.6748 75.1401 84.6748 75.1401C84.4148 75.1401 84.1698 75.1001 83.9398 75.0201C83.7098 74.9501 83.4998 74.8501 83.3098 74.7201C83.1298 74.5801 82.9748 74.4201 82.8448 74.2401C82.7148 74.0501 82.6198 73.8501 82.5598 73.6401H82.4848V74.9601H80.2648V63.8601ZM83.9398 73.3401C84.3598 73.3401 84.7048 73.1951 84.9748 72.9051C85.2548 72.6051 85.3948 72.2051 85.3948 71.7051V70.3401C85.3948 69.8401 85.2548 69.4451 84.9748 69.1551C84.7048 68.8551 84.3598 68.7051 83.9398 68.7051C83.5198 68.7051 83.1698 68.8101 82.8898 69.0201C82.6198 69.2201 82.4848 69.5001 82.4848 69.8601V72.1851C82.4848 72.5451 82.6198 72.8301 82.8898 73.0401C83.1698 73.2401 83.5198 73.3401 83.9398 73.3401Z" fill="white"/>
<path d="M92.3757 75.1401C91.7757 75.1401 91.2407 75.0451 90.7707 74.8551C90.3007 74.6551 89.9007 74.3801 89.5707 74.0301C89.2507 73.6701 89.0057 73.2351 88.8357 72.7251C88.6757 72.2151 88.5957 71.6451 88.5957 71.0151C88.5957 70.3951 88.6757 69.8351 88.8357 69.3351C88.9957 68.8251 89.2307 68.3901 89.5407 68.0301C89.8607 67.6701 90.2507 67.3951 90.7107 67.2051C91.1707 67.0051 91.6957 66.9051 92.2857 66.9051C92.9357 66.9051 93.4907 67.0151 93.9507 67.2351C94.4207 67.4551 94.8007 67.7501 95.0907 68.1201C95.3907 68.4901 95.6057 68.9201 95.7357 69.4101C95.8757 69.8901 95.9457 70.3951 95.9457 70.9251V71.5851H90.8907V71.7051C90.8907 72.2251 91.0307 72.6401 91.3107 72.9501C91.5907 73.2501 92.0307 73.4001 92.6307 73.4001C93.0907 73.4001 93.4657 73.3101 93.7557 73.1301C94.0457 72.9401 94.3157 72.7151 94.5657 72.4551L95.6757 73.8351C95.3257 74.2451 94.8657 74.5651 94.2957 74.7951C93.7357 75.0251 93.0957 75.1401 92.3757 75.1401ZM92.3307 68.5401C91.8807 68.5401 91.5257 68.6901 91.2657 68.9901C91.0157 69.2801 90.8907 69.6701 90.8907 70.1601V70.2801H93.6507V70.1451C93.6507 69.6651 93.5407 69.2801 93.3207 68.9901C93.1107 68.6901 92.7807 68.5401 92.3307 68.5401Z" fill="white"/>
<path d="M97.2136 74.9601V67.0851H99.4336V68.7951H99.5086C99.5486 68.5751 99.6186 68.3651 99.7186 68.1651C99.8186 67.9551 99.9486 67.7701 100.109 67.6101C100.279 67.4501 100.479 67.3251 100.709 67.2351C100.939 67.1351 101.209 67.0851 101.519 67.0851H101.909V69.1551H101.354C100.704 69.1551 100.219 69.2401 99.8986 69.4101C99.5886 69.5801 99.4336 69.8951 99.4336 70.3551V74.9601H97.2136Z" fill="white"/>
<rect x="140.5" y="21.5" width="89" height="65" rx="9.5" stroke="#2A91E9"/>
<path d="M176.333 40.3757V37.1257H193.667V40.3757" stroke="#2A91E9" stroke-width="3" stroke-linecap="round" stroke-linejoin="round"/>
<path d="M181.75 54.4592H188.25" stroke="#2A91E9" stroke-width="3" stroke-linecap="round" stroke-linejoin="round"/>
<path d="M185 37.1257V54.4591" stroke="#2A91E9" stroke-width="3" stroke-linecap="round" stroke-linejoin="round"/>
<path d="M161.371 68.1575H161.326L160.561 69.6875L158.521 73.3925L156.526 69.7025L155.731 68.0525H155.686V75.0275H153.541V64.5575H155.956L158.521 69.4625H158.551L161.086 64.5575H163.516V75.0275H161.371V68.1575Z" fill="white"/>
<path d="M170.061 73.7075H169.986C169.916 73.9075 169.821 74.0975 169.701 74.2775C169.591 74.4575 169.446 74.6175 169.266 74.7575C169.086 74.8975 168.871 75.0075 168.621 75.0875C168.381 75.1675 168.101 75.2075 167.781 75.2075C166.971 75.2075 166.356 74.9425 165.936 74.4125C165.526 73.8725 165.321 73.1025 165.321 72.1025V67.1525H167.541V71.9075C167.541 72.3875 167.626 72.7575 167.796 73.0175C167.966 73.2775 168.256 73.4075 168.666 73.4075C168.836 73.4075 169.006 73.3825 169.176 73.3325C169.346 73.2825 169.496 73.2125 169.626 73.1225C169.756 73.0225 169.861 72.9025 169.941 72.7625C170.021 72.6225 170.061 72.4575 170.061 72.2675V67.1525H172.281V75.0275H170.061V73.7075Z" fill="white"/>
<path d="M176.252 75.0275C175.492 75.0275 174.932 74.8425 174.572 74.4725C174.222 74.1025 174.047 73.5675 174.047 72.8675V63.9275H176.267V73.3025H177.257V75.0275H176.252Z" fill="white"/>
<path d="M180.974 75.0275C180.204 75.0275 179.619 74.8325 179.219 74.4425C178.829 74.0525 178.634 73.4825 178.634 72.7325V68.8775H177.524V67.1525H178.079C178.379 67.1525 178.584 67.0825 178.694 66.9425C178.804 66.7925 178.859 66.5825 178.859 66.3125V65.0225H180.854V67.1525H182.414V68.8775H180.854V73.3025H182.294V75.0275H180.974Z" fill="white"/>
<path d="M184.767 66.3125C184.317 66.3125 183.987 66.2125 183.777 66.0125C183.577 65.8025 183.476 65.5375 183.476 65.2175V64.8875C183.476 64.5675 183.577 64.3075 183.777 64.1075C183.987 63.8975 184.317 63.7925 184.767 63.7925C185.217 63.7925 185.542 63.8975 185.742 64.1075C185.952 64.3075 186.057 64.5675 186.057 64.8875V65.2175C186.057 65.5375 185.952 65.8025 185.742 66.0125C185.542 66.2125 185.217 66.3125 184.767 66.3125ZM183.656 67.1525H185.877V75.0275H183.656V67.1525Z" fill="white"/>
<path d="M193.653 75.0275C192.883 75.0275 192.298 74.8325 191.898 74.4425C191.508 74.0525 191.313 73.4825 191.313 72.7325V68.8775H190.203V67.1525H190.758C191.058 67.1525 191.263 67.0825 191.373 66.9425C191.483 66.7925 191.538 66.5825 191.538 66.3125V65.0225H193.533V67.1525H195.093V68.8775H193.533V73.3025H194.973V75.0275H193.653Z" fill="white"/>
<path d="M199.562 75.2075C198.962 75.2075 198.427 75.1125 197.957 74.9225C197.487 74.7225 197.087 74.4475 196.757 74.0975C196.437 73.7375 196.192 73.3025 196.022 72.7925C195.862 72.2825 195.782 71.7125 195.782 71.0825C195.782 70.4625 195.862 69.9025 196.022 69.4025C196.182 68.8925 196.417 68.4575 196.727 68.0975C197.047 67.7375 197.437 67.4625 197.897 67.2725C198.357 67.0725 198.882 66.9725 199.472 66.9725C200.122 66.9725 200.677 67.0825 201.137 67.3025C201.607 67.5225 201.987 67.8175 202.277 68.1875C202.577 68.5575 202.792 68.9875 202.922 69.4775C203.062 69.9575 203.132 70.4625 203.132 70.9925V71.6525H198.077V71.7725C198.077 72.2925 198.217 72.7075 198.497 73.0175C198.777 73.3175 199.217 73.4675 199.817 73.4675C200.277 73.4675 200.652 73.3775 200.942 73.1975C201.232 73.0075 201.502 72.7825 201.752 72.5225L202.862 73.9025C202.512 74.3125 202.052 74.6325 201.482 74.8625C200.922 75.0925 200.282 75.2075 199.562 75.2075ZM199.517 68.6075C199.067 68.6075 198.712 68.7575 198.452 69.0575C198.202 69.3475 198.077 69.7375 198.077 70.2275V70.3475H200.837V70.2125C200.837 69.7325 200.727 69.3475 200.507 69.0575C200.297 68.7575 199.967 68.6075 199.517 68.6075Z" fill="white"/>
<path d="M203.4 75.0275L205.995 71.0225L203.43 67.1525H205.95L207.42 69.6275H207.48L208.905 67.1525H211.245L208.635 71.0975L211.26 75.0275H208.74L207.225 72.4625H207.165L205.71 75.0275H203.4Z" fill="white"/>
<path d="M215.019 75.0275C214.249 75.0275 213.664 74.8325 213.264 74.4425C212.874 74.0525 212.679 73.4825 212.679 72.7325V68.8775H211.569V67.1525H212.124C212.424 67.1525 212.629 67.0825 212.739 66.9425C212.849 66.7925 212.904 66.5825 212.904 66.3125V65.0225H214.899V67.1525H216.459V68.8775H214.899V73.3025H216.339V75.0275H215.019Z" fill="white"/>
<rect x="250.5" y="21.5" width="89" height="65" rx="9.5" stroke="#2A91E9"/>
<path d="M286.333 40.4434V37.1934H303.667V40.4434" stroke="#2A91E9" stroke-width="3" stroke-linecap="round" stroke-linejoin="round"/>
<path d="M291.75 54.5269H298.25" stroke="#2A91E9" stroke-width="3" stroke-linecap="round" stroke-linejoin="round"/>
<path d="M295 37.1934V54.5267" stroke="#2A91E9" stroke-width="3" stroke-linecap="round" stroke-linejoin="round"/>
<path d="M265.773 75.1401C264.853 75.1401 264.073 74.9851 263.433 74.6751C262.793 74.3551 262.248 73.9451 261.798 73.4451L263.298 71.9301C264.008 72.7301 264.883 73.1301 265.923 73.1301C266.483 73.1301 266.898 73.0151 267.168 72.7851C267.438 72.5551 267.573 72.2501 267.573 71.8701C267.573 71.5801 267.493 71.3401 267.333 71.1501C267.173 70.9501 266.848 70.8151 266.358 70.7451L265.323 70.6101C264.213 70.4701 263.398 70.1351 262.878 69.6051C262.368 69.0751 262.113 68.3701 262.113 67.4901C262.113 67.0201 262.203 66.5901 262.383 66.2001C262.563 65.8101 262.818 65.4751 263.148 65.1951C263.488 64.9151 263.898 64.7001 264.378 64.5501C264.868 64.3901 265.423 64.3101 266.043 64.3101C266.833 64.3101 267.528 64.4351 268.128 64.6851C268.728 64.9351 269.243 65.3001 269.673 65.7801L268.158 67.3101C267.908 67.0201 267.603 66.7851 267.243 66.6051C266.893 66.4151 266.448 66.3201 265.908 66.3201C265.398 66.3201 265.018 66.4101 264.768 66.5901C264.518 66.7701 264.393 67.0201 264.393 67.3401C264.393 67.7001 264.488 67.9601 264.678 68.1201C264.878 68.2801 265.198 68.3951 265.638 68.4651L266.673 68.6301C267.753 68.8001 268.553 69.1351 269.073 69.6351C269.593 70.1251 269.853 70.8251 269.853 71.7351C269.853 72.2351 269.763 72.6951 269.583 73.1151C269.403 73.5351 269.138 73.8951 268.788 74.1951C268.448 74.4951 268.023 74.7301 267.513 74.9001C267.003 75.0601 266.423 75.1401 265.773 75.1401Z" fill="white"/>
<path d="M271.324 63.8601H273.544V68.4201H273.634C273.774 68.0101 274.019 67.6551 274.369 67.3551C274.719 67.0551 275.204 66.9051 275.824 66.9051C276.634 66.9051 277.244 67.1751 277.654 67.7151C278.074 68.2551 278.284 69.0251 278.284 70.0251V74.9601H276.064V70.2051C276.064 69.6951 275.984 69.3201 275.824 69.0801C275.664 68.8301 275.379 68.7051 274.969 68.7051C274.789 68.7051 274.614 68.7301 274.444 68.7801C274.274 68.8201 274.119 68.8901 273.979 68.9901C273.849 69.0901 273.744 69.2151 273.664 69.3651C273.584 69.5051 273.544 69.6701 273.544 69.8601V74.9601H271.324V63.8601Z" fill="white"/>
<path d="M283.154 75.1401C282.574 75.1401 282.054 75.0451 281.594 74.8551C281.144 74.6651 280.759 74.3901 280.439 74.0301C280.129 73.6701 279.889 73.2351 279.719 72.7251C279.549 72.2151 279.464 71.6451 279.464 71.0151C279.464 70.3851 279.549 69.8151 279.719 69.3051C279.889 68.7951 280.129 68.3651 280.439 68.0151C280.759 67.6551 281.144 67.3801 281.594 67.1901C282.054 67.0001 282.574 66.9051 283.154 66.9051C283.734 66.9051 284.249 67.0001 284.699 67.1901C285.159 67.3801 285.544 67.6551 285.854 68.0151C286.174 68.3651 286.419 68.7951 286.589 69.3051C286.759 69.8151 286.844 70.3851 286.844 71.0151C286.844 71.6451 286.759 72.2151 286.589 72.7251C286.419 73.2351 286.174 73.6701 285.854 74.0301C285.544 74.3901 285.159 74.6651 284.699 74.8551C284.249 75.0451 283.734 75.1401 283.154 75.1401ZM283.154 73.3851C283.594 73.3851 283.934 73.2501 284.174 72.9801C284.414 72.7101 284.534 72.3251 284.534 71.8251V70.2201C284.534 69.7201 284.414 69.3351 284.174 69.0651C283.934 68.7951 283.594 68.6601 283.154 68.6601C282.714 68.6601 282.374 68.7951 282.134 69.0651C281.894 69.3351 281.774 69.7201 281.774 70.2201V71.8251C281.774 72.3251 281.894 72.7101 282.134 72.9801C282.374 73.2501 282.714 73.3851 283.154 73.3851Z" fill="white"/>
<path d="M288.126 74.9601V67.0851H290.346V68.7951H290.421C290.461 68.5751 290.531 68.3651 290.631 68.1651C290.731 67.9551 290.861 67.7701 291.021 67.6101C291.191 67.4501 291.391 67.3251 291.621 67.2351C291.851 67.1351 292.121 67.0851 292.431 67.0851H292.821V69.1551H292.266C291.616 69.1551 291.131 69.2401 290.811 69.4101C290.501 69.5801 290.346 69.8951 290.346 70.3551V74.9601H288.126Z" fill="white"/>
<path d="M296.709 74.9601C295.939 74.9601 295.354 74.7651 294.954 74.3751C294.564 73.9851 294.369 73.4151 294.369 72.6651V68.8101H293.259V67.0851H293.814C294.114 67.0851 294.319 67.0151 294.429 66.8751C294.539 66.7251 294.594 66.5151 294.594 66.2451V64.9551H296.589V67.0851H298.149V68.8101H296.589V73.2351H298.029V74.9601H296.709Z" fill="white"/>
<path d="M305.396 74.9601C304.626 74.9601 304.041 74.7651 303.641 74.3751C303.251 73.9851 303.056 73.4151 303.056 72.6651V68.8101H301.946V67.0851H302.501C302.801 67.0851 303.006 67.0151 303.116 66.8751C303.226 66.7251 303.281 66.5151 303.281 66.2451V64.9551H305.276V67.0851H306.836V68.8101H305.276V73.2351H306.716V74.9601H305.396Z" fill="white"/>
<path d="M311.305 75.1401C310.705 75.1401 310.17 75.0451 309.7 74.8551C309.23 74.6551 308.83 74.3801 308.5 74.0301C308.18 73.6701 307.935 73.2351 307.765 72.7251C307.605 72.2151 307.525 71.6451 307.525 71.0151C307.525 70.3951 307.605 69.8351 307.765 69.3351C307.925 68.8251 308.16 68.3901 308.47 68.0301C308.79 67.6701 309.18 67.3951 309.64 67.2051C310.1 67.0051 310.625 66.9051 311.215 66.9051C311.865 66.9051 312.42 67.0151 312.88 67.2351C313.35 67.4551 313.73 67.7501 314.02 68.1201C314.32 68.4901 314.535 68.9201 314.665 69.4101C314.805 69.8901 314.875 70.3951 314.875 70.9251V71.5851H309.82V71.7051C309.82 72.2251 309.96 72.6401 310.24 72.9501C310.52 73.2501 310.96 73.4001 311.56 73.4001C312.02 73.4001 312.395 73.3101 312.685 73.1301C312.975 72.9401 313.245 72.7151 313.495 72.4551L314.605 73.8351C314.255 74.2451 313.795 74.5651 313.225 74.7951C312.665 75.0251 312.025 75.1401 311.305 75.1401ZM311.26 68.5401C310.81 68.5401 310.455 68.6901 310.195 68.9901C309.945 69.2801 309.82 69.6701 309.82 70.1601V70.2801H312.58V70.1451C312.58 69.6651 312.47 69.2801 312.25 68.9901C312.04 68.6901 311.71 68.5401 311.26 68.5401Z" fill="white"/>
<path d="M315.143 74.9601L317.738 70.9551L315.173 67.0851H317.693L319.163 69.5601H319.223L320.648 67.0851H322.988L320.378 71.0301L323.003 74.9601H320.483L318.968 72.3951H318.908L317.453 74.9601H315.143Z" fill="white"/>
<path d="M326.762 74.9601C325.992 74.9601 325.407 74.7651 325.007 74.3751C324.617 73.9851 324.422 73.4151 324.422 72.6651V68.8101H323.312V67.0851H323.867C324.167 67.0851 324.372 67.0151 324.482 66.8751C324.592 66.7251 324.647 66.5151 324.647 66.2451V64.9551H326.642V67.0851H328.202V68.8101H326.642V73.2351H328.082V74.9601H326.762Z" fill="white"/>
<rect x="360.5" y="21.5" width="89" height="65" rx="9.5" stroke="#2A91E9"/>
<path d="M396.333 40.3757V37.1257H413.667V40.3757" stroke="#2A91E9" stroke-width="3" stroke-linecap="round" stroke-linejoin="round"/>
<path d="M401.75 54.4592H408.25" stroke="#2A91E9" stroke-width="3" stroke-linecap="round" stroke-linejoin="round"/>
<path d="M405 37.1257V54.4591" stroke="#2A91E9" stroke-width="3" stroke-linecap="round" stroke-linejoin="round"/>
<path d="M374.133 66.5825V75.0275H371.853V66.5825H369.018V64.5575H376.968V66.5825H374.133Z" fill="white"/>
<path d="M380.412 75.2075C379.812 75.2075 379.277 75.1125 378.807 74.9225C378.337 74.7225 377.937 74.4475 377.607 74.0975C377.287 73.7375 377.042 73.3025 376.872 72.7925C376.712 72.2825 376.632 71.7125 376.632 71.0825C376.632 70.4625 376.712 69.9025 376.872 69.4025C377.032 68.8925 377.267 68.4575 377.577 68.0975C377.897 67.7375 378.287 67.4625 378.747 67.2725C379.207 67.0725 379.732 66.9725 380.322 66.9725C380.972 66.9725 381.527 67.0825 381.987 67.3025C382.457 67.5225 382.837 67.8175 383.127 68.1875C383.427 68.5575 383.642 68.9875 383.772 69.4775C383.912 69.9575 383.982 70.4625 383.982 70.9925V71.6525H378.927V71.7725C378.927 72.2925 379.067 72.7075 379.347 73.0175C379.627 73.3175 380.067 73.4675 380.667 73.4675C381.127 73.4675 381.502 73.3775 381.792 73.1975C382.082 73.0075 382.352 72.7825 382.602 72.5225L383.712 73.9025C383.362 74.3125 382.902 74.6325 382.332 74.8625C381.772 75.0925 381.132 75.2075 380.412 75.2075ZM380.367 68.6075C379.917 68.6075 379.562 68.7575 379.302 69.0575C379.052 69.3475 378.927 69.7375 378.927 70.2275V70.3475H381.687V70.2125C381.687 69.7325 381.577 69.3475 381.357 69.0575C381.147 68.7575 380.817 68.6075 380.367 68.6075Z" fill="white"/>
<path d="M384.25 75.0275L386.845 71.0225L384.28 67.1525H386.8L388.27 69.6275H388.33L389.755 67.1525H392.095L389.485 71.0975L392.11 75.0275H389.59L388.075 72.4625H388.015L386.56 75.0275H384.25Z" fill="white"/>
<path d="M395.869 75.0275C395.099 75.0275 394.514 74.8325 394.114 74.4425C393.724 74.0525 393.529 73.4825 393.529 72.7325V68.8775H392.419V67.1525H392.974C393.274 67.1525 393.479 67.0825 393.589 66.9425C393.699 66.7925 393.754 66.5825 393.754 66.3125V65.0225H395.749V67.1525H397.309V68.8775H395.749V73.3025H397.189V75.0275H395.869Z" fill="white"/>
<path d="M405.081 75.2075C404.481 75.2075 403.946 75.1125 403.476 74.9225C403.006 74.7225 402.606 74.4475 402.276 74.0975C401.956 73.7375 401.711 73.3025 401.541 72.7925C401.381 72.2825 401.301 71.7125 401.301 71.0825C401.301 70.4625 401.381 69.9025 401.541 69.4025C401.701 68.8925 401.936 68.4575 402.246 68.0975C402.566 67.7375 402.956 67.4625 403.416 67.2725C403.876 67.0725 404.401 66.9725 404.991 66.9725C405.641 66.9725 406.196 67.0825 406.656 67.3025C407.126 67.5225 407.506 67.8175 407.796 68.1875C408.096 68.5575 408.311 68.9875 408.441 69.4775C408.581 69.9575 408.651 70.4625 408.651 70.9925V71.6525H403.596V71.7725C403.596 72.2925 403.736 72.7075 404.016 73.0175C404.296 73.3175 404.736 73.4675 405.336 73.4675C405.796 73.4675 406.171 73.3775 406.461 73.1975C406.751 73.0075 407.021 72.7825 407.271 72.5225L408.381 73.9025C408.031 74.3125 407.571 74.6325 407.001 74.8625C406.441 75.0925 405.801 75.2075 405.081 75.2075ZM405.036 68.6075C404.586 68.6075 404.231 68.7575 403.971 69.0575C403.721 69.3475 403.596 69.7375 403.596 70.2275V70.3475H406.356V70.2125C406.356 69.7325 406.246 69.3475 406.026 69.0575C405.816 68.7575 405.486 68.6075 405.036 68.6075Z" fill="white"/>
<path d="M414.749 73.7075H414.674C414.614 73.9175 414.519 74.1175 414.389 74.3075C414.259 74.4875 414.099 74.6475 413.909 74.7875C413.729 74.9175 413.519 75.0175 413.279 75.0875C413.049 75.1675 412.809 75.2075 412.559 75.2075C411.559 75.2075 410.804 74.8575 410.294 74.1575C409.784 73.4475 409.529 72.4225 409.529 71.0825C409.529 69.7425 409.784 68.7225 410.294 68.0225C410.804 67.3225 411.559 66.9725 412.559 66.9725C413.069 66.9725 413.519 67.1125 413.909 67.3925C414.309 67.6725 414.564 68.0325 414.674 68.4725H414.749V63.9275H416.969V75.0275H414.749V73.7075ZM413.294 73.4075C413.714 73.4075 414.059 73.3075 414.329 73.1075C414.609 72.8975 414.749 72.6125 414.749 72.2525V69.9275C414.749 69.5675 414.609 69.2875 414.329 69.0875C414.059 68.8775 413.714 68.7725 413.294 68.7725C412.874 68.7725 412.524 68.9225 412.244 69.2225C411.974 69.5125 411.839 69.9075 411.839 70.4075V71.7725C411.839 72.2725 411.974 72.6725 412.244 72.9725C412.524 73.2625 412.874 73.4075 413.294 73.4075Z" fill="white"/>
<path d="M419.854 66.3125C419.404 66.3125 419.074 66.2125 418.864 66.0125C418.664 65.8025 418.564 65.5375 418.564 65.2175V64.8875C418.564 64.5675 418.664 64.3075 418.864 64.1075C419.074 63.8975 419.404 63.7925 419.854 63.7925C420.304 63.7925 420.629 63.8975 420.829 64.1075C421.039 64.3075 421.144 64.5675 421.144 64.8875V65.2175C421.144 65.5375 421.039 65.8025 420.829 66.0125C420.629 66.2125 420.304 66.3125 419.854 66.3125ZM418.744 67.1525H420.964V75.0275H418.744V67.1525Z" fill="white"/>
<path d="M425.496 75.0275C424.726 75.0275 424.141 74.8325 423.741 74.4425C423.351 74.0525 423.156 73.4825 423.156 72.7325V68.8775H422.046V67.1525H422.601C422.901 67.1525 423.106 67.0825 423.216 66.9425C423.326 66.7925 423.381 66.5825 423.381 66.3125V65.0225H425.376V67.1525H426.936V68.8775H425.376V73.3025H426.816V75.0275H425.496Z" fill="white"/>
<path d="M431.315 75.2075C430.735 75.2075 430.215 75.1125 429.755 74.9225C429.305 74.7325 428.92 74.4575 428.6 74.0975C428.29 73.7375 428.05 73.3025 427.88 72.7925C427.71 72.2825 427.625 71.7125 427.625 71.0825C427.625 70.4525 427.71 69.8825 427.88 69.3725C428.05 68.8625 428.29 68.4325 428.6 68.0825C428.92 67.7225 429.305 67.4475 429.755 67.2575C430.215 67.0675 430.735 66.9725 431.315 66.9725C431.895 66.9725 432.41 67.0675 432.86 67.2575C433.32 67.4475 433.705 67.7225 434.015 68.0825C434.335 68.4325 434.58 68.8625 434.75 69.3725C434.92 69.8825 435.005 70.4525 435.005 71.0825C435.005 71.7125 434.92 72.2825 434.75 72.7925C434.58 73.3025 434.335 73.7375 434.015 74.0975C433.705 74.4575 433.32 74.7325 432.86 74.9225C432.41 75.1125 431.895 75.2075 431.315 75.2075ZM431.315 73.4525C431.755 73.4525 432.095 73.3175 432.335 73.0475C432.575 72.7775 432.695 72.3925 432.695 71.8925V70.2875C432.695 69.7875 432.575 69.4025 432.335 69.1325C432.095 68.8625 431.755 68.7275 431.315 68.7275C430.875 68.7275 430.535 68.8625 430.295 69.1325C430.055 69.4025 429.935 69.7875 429.935 70.2875V71.8925C429.935 72.3925 430.055 72.7775 430.295 73.0475C430.535 73.3175 430.875 73.4525 431.315 73.4525Z" fill="white"/>
<path d="M436.287 75.0275V67.1525H438.507V68.8625H438.582C438.622 68.6425 438.692 68.4325 438.792 68.2325C438.892 68.0225 439.022 67.8375 439.182 67.6775C439.352 67.5175 439.552 67.3925 439.782 67.3025C440.012 67.2025 440.282 67.1525 440.592 67.1525H440.982V69.2225H440.427C439.777 69.2225 439.292 69.3075 438.972 69.4775C438.662 69.6475 438.507 69.9625 438.507 70.4225V75.0275H436.287Z" fill="white"/>
<rect x="30.5" y="106.5" width="89" height="65" rx="9.5" stroke="#2A91E9"/>
<g clip-path="url(#clip0)">
<path d="M75 135.126C77.3932 135.126 79.3333 133.186 79.3333 130.793C79.3333 128.399 77.3932 126.459 75 126.459C72.6068 126.459 70.6667 128.399 70.6667 130.793C70.6667 133.186 72.6068 135.126 75 135.126Z" stroke="#2A91E9" stroke-width="3" stroke-linecap="round" stroke-linejoin="round"/>
<path d="M79.3333 126.459V131.876C79.3333 132.738 79.6757 133.564 80.2852 134.174C80.8947 134.783 81.7214 135.126 82.5833 135.126C83.4453 135.126 84.2719 134.783 84.8814 134.174C85.4909 133.564 85.8333 132.738 85.8333 131.876V130.792C85.8332 128.347 85.0059 125.974 83.486 124.059C81.9662 122.144 79.8431 120.799 77.462 120.243C75.081 119.688 72.5819 119.954 70.3713 120.998C68.1607 122.043 66.3684 123.805 65.286 125.997C64.2036 128.19 63.8947 130.684 64.4095 133.074C64.9243 135.464 66.2326 137.61 68.1215 139.162C70.0105 140.715 72.3691 141.583 74.8137 141.625C77.2584 141.667 79.6455 140.881 81.5867 139.394" stroke="#2A91E9" stroke-width="3" stroke-linecap="round" stroke-linejoin="round"/>
</g>
<path d="M56.3817 160.027V149.557H63.5067V151.582H58.6617V153.727H62.8167V155.737H58.6617V158.002H63.5067V160.027H56.3817Z" fill="white"/>
<path d="M65.073 160.027V152.152H67.293V153.487H67.383C67.523 153.067 67.763 152.712 68.103 152.422C68.443 152.122 68.908 151.972 69.498 151.972C70.038 151.972 70.498 152.107 70.878 152.377C71.258 152.647 71.533 153.042 71.703 153.562H71.748C71.818 153.342 71.923 153.137 72.063 152.947C72.213 152.747 72.393 152.577 72.603 152.437C72.813 152.297 73.048 152.187 73.308 152.107C73.568 152.017 73.848 151.972 74.148 151.972C74.908 151.972 75.488 152.242 75.888 152.782C76.298 153.322 76.503 154.092 76.503 155.092V160.027H74.283V155.272C74.283 154.272 73.923 153.772 73.203 153.772C72.873 153.772 72.573 153.867 72.303 154.057C72.033 154.247 71.898 154.537 71.898 154.927V160.027H69.678V155.272C69.678 154.272 69.318 153.772 68.598 153.772C68.438 153.772 68.278 153.797 68.118 153.847C67.968 153.887 67.828 153.957 67.698 154.057C67.578 154.157 67.478 154.282 67.398 154.432C67.328 154.572 67.293 154.737 67.293 154.927V160.027H65.073Z" fill="white"/>
<path d="M83.9963 160.027C83.5963 160.027 83.2613 159.902 82.9913 159.652C82.7313 159.402 82.5663 159.067 82.4963 158.647H82.4063C82.2863 159.157 82.0213 159.547 81.6113 159.817C81.2013 160.077 80.6963 160.207 80.0963 160.207C79.3063 160.207 78.7013 159.997 78.2813 159.577C77.8613 159.157 77.6513 158.602 77.6513 157.912C77.6513 157.082 77.9513 156.467 78.5513 156.067C79.1613 155.657 79.9863 155.452 81.0263 155.452H82.2713V154.957C82.2713 154.577 82.1713 154.277 81.9713 154.057C81.7713 153.827 81.4363 153.712 80.9663 153.712C80.5263 153.712 80.1763 153.807 79.9163 153.997C79.6563 154.187 79.4413 154.402 79.2713 154.642L77.9513 153.472C78.2713 153.002 78.6713 152.637 79.1513 152.377C79.6413 152.107 80.3013 151.972 81.1313 151.972C82.2513 151.972 83.0913 152.217 83.6513 152.707C84.2113 153.197 84.4913 153.912 84.4913 154.852V158.302H85.2263V160.027H83.9963ZM80.9213 158.662C81.2913 158.662 81.6063 158.582 81.8663 158.422C82.1363 158.262 82.2713 158.002 82.2713 157.642V156.712H81.1913C80.3213 156.712 79.8863 157.007 79.8863 157.597V157.822C79.8863 158.112 79.9763 158.327 80.1563 158.467C80.3363 158.597 80.5913 158.662 80.9213 158.662Z" fill="white"/>
<path d="M87.5263 151.312C87.0763 151.312 86.7463 151.212 86.5363 151.012C86.3363 150.802 86.2363 150.537 86.2363 150.217V149.887C86.2363 149.567 86.3363 149.307 86.5363 149.107C86.7463 148.897 87.0763 148.792 87.5263 148.792C87.9763 148.792 88.3013 148.897 88.5013 149.107C88.7113 149.307 88.8163 149.567 88.8163 149.887V150.217C88.8163 150.537 88.7113 150.802 88.5013 151.012C88.3013 151.212 87.9763 151.312 87.5263 151.312ZM86.4163 152.152H88.6363V160.027H86.4163V152.152Z" fill="white"/>
<path d="M92.6133 160.027C91.8533 160.027 91.2933 159.842 90.9333 159.472C90.5833 159.102 90.4083 158.567 90.4083 157.867V148.927H92.6283V158.302H93.6183V160.027H92.6133Z" fill="white"/>
<rect x="140.5" y="106.5" width="89" height="65" rx="9.5" stroke="#2A91E9"/>
<path d="M181.75 129.777L185 133.027L195.833 122.193" stroke="#2A91E9" stroke-width="3" stroke-linecap="round" stroke-linejoin="round"/>
<path d="M194.75 130.86V138.443C194.75 139.018 194.522 139.569 194.115 139.976C193.709 140.382 193.158 140.61 192.583 140.61H177.417C176.842 140.61 176.291 140.382 175.885 139.976C175.478 139.569 175.25 139.018 175.25 138.443V123.277C175.25 122.702 175.478 122.151 175.885 121.745C176.291 121.338 176.842 121.11 177.417 121.11H189.333" stroke="#2A91E9" stroke-width="3" stroke-linecap="round" stroke-linejoin="round"/>
<path d="M156.548 160.14C155.838 160.14 155.198 160.03 154.628 159.81C154.058 159.58 153.573 159.245 153.173 158.805C152.773 158.355 152.463 157.8 152.243 157.14C152.023 156.47 151.913 155.69 151.913 154.8C151.913 153.92 152.023 153.14 152.243 152.46C152.463 151.77 152.773 151.195 153.173 150.735C153.573 150.265 154.058 149.91 154.628 149.67C155.198 149.43 155.838 149.31 156.548 149.31C157.518 149.31 158.318 149.51 158.948 149.91C159.578 150.3 160.083 150.92 160.463 151.77L158.498 152.79C158.358 152.35 158.138 152 157.838 151.74C157.548 151.47 157.118 151.335 156.548 151.335C155.878 151.335 155.338 151.555 154.928 151.995C154.528 152.425 154.328 153.055 154.328 153.885V155.565C154.328 156.395 154.528 157.03 154.928 157.47C155.338 157.9 155.878 158.115 156.548 158.115C157.108 158.115 157.553 157.965 157.883 157.665C158.223 157.355 158.473 156.985 158.633 156.555L160.493 157.635C160.103 158.435 159.588 159.055 158.948 159.495C158.318 159.925 157.518 160.14 156.548 160.14Z" fill="white"/>
<path d="M161.669 148.86H163.889V153.42H163.979C164.119 153.01 164.364 152.655 164.714 152.355C165.064 152.055 165.549 151.905 166.169 151.905C166.979 151.905 167.589 152.175 167.999 152.715C168.419 153.255 168.629 154.025 168.629 155.025V159.96H166.409V155.205C166.409 154.695 166.329 154.32 166.169 154.08C166.009 153.83 165.724 153.705 165.314 153.705C165.134 153.705 164.959 153.73 164.789 153.78C164.619 153.82 164.464 153.89 164.324 153.99C164.194 154.09 164.089 154.215 164.009 154.365C163.929 154.505 163.889 154.67 163.889 154.86V159.96H161.669V148.86Z" fill="white"/>
<path d="M173.589 160.14C172.989 160.14 172.454 160.045 171.984 159.855C171.514 159.655 171.114 159.38 170.784 159.03C170.464 158.67 170.219 158.235 170.049 157.725C169.889 157.215 169.809 156.645 169.809 156.015C169.809 155.395 169.889 154.835 170.049 154.335C170.209 153.825 170.444 153.39 170.754 153.03C171.074 152.67 171.464 152.395 171.924 152.205C172.384 152.005 172.909 151.905 173.499 151.905C174.149 151.905 174.704 152.015 175.164 152.235C175.634 152.455 176.014 152.75 176.304 153.12C176.604 153.49 176.819 153.92 176.949 154.41C177.089 154.89 177.159 155.395 177.159 155.925V156.585H172.104V156.705C172.104 157.225 172.244 157.64 172.524 157.95C172.804 158.25 173.244 158.4 173.844 158.4C174.304 158.4 174.679 158.31 174.969 158.13C175.259 157.94 175.529 157.715 175.779 157.455L176.889 158.835C176.539 159.245 176.079 159.565 175.509 159.795C174.949 160.025 174.309 160.14 173.589 160.14ZM173.544 153.54C173.094 153.54 172.739 153.69 172.479 153.99C172.229 154.28 172.104 154.67 172.104 155.16V155.28H174.864V155.145C174.864 154.665 174.754 154.28 174.534 153.99C174.324 153.69 173.994 153.54 173.544 153.54Z" fill="white"/>
<path d="M181.607 160.14C181.017 160.14 180.492 160.045 180.032 159.855C179.572 159.655 179.187 159.38 178.877 159.03C178.567 158.67 178.332 158.235 178.172 157.725C178.012 157.215 177.932 156.645 177.932 156.015C177.932 155.385 178.012 154.82 178.172 154.32C178.332 153.81 178.567 153.375 178.877 153.015C179.187 152.655 179.572 152.38 180.032 152.19C180.492 152 181.017 151.905 181.607 151.905C182.407 151.905 183.072 152.085 183.602 152.445C184.142 152.805 184.527 153.31 184.757 153.96L182.957 154.74C182.887 154.44 182.742 154.185 182.522 153.975C182.302 153.765 181.997 153.66 181.607 153.66C181.157 153.66 180.817 153.81 180.587 154.11C180.357 154.4 180.242 154.795 180.242 155.295V156.765C180.242 157.265 180.357 157.66 180.587 157.95C180.817 158.24 181.157 158.385 181.607 158.385C182.007 158.385 182.322 158.28 182.552 158.07C182.792 157.85 182.967 157.565 183.077 157.215L184.802 157.965C184.542 158.715 184.137 159.265 183.587 159.615C183.047 159.965 182.387 160.14 181.607 160.14Z" fill="white"/>
<path d="M185.876 148.86H188.096V155.415H188.186L189.161 153.96L190.736 152.085H193.196L190.571 155.1L193.496 159.96H190.856L189.086 156.63L188.096 157.74V159.96H185.876V148.86Z" fill="white"/>
<path d="M194.233 148.86H196.453V153.405H196.528C196.638 152.965 196.888 152.605 197.278 152.325C197.678 152.045 198.133 151.905 198.643 151.905C199.643 151.905 200.398 152.255 200.908 152.955C201.418 153.655 201.673 154.675 201.673 156.015C201.673 157.355 201.418 158.38 200.908 159.09C200.398 159.79 199.643 160.14 198.643 160.14C198.383 160.14 198.138 160.1 197.908 160.02C197.678 159.95 197.468 159.85 197.278 159.72C197.098 159.58 196.943 159.42 196.813 159.24C196.683 159.05 196.588 158.85 196.528 158.64H196.453V159.96H194.233V148.86ZM197.908 158.34C198.328 158.34 198.673 158.195 198.943 157.905C199.223 157.605 199.363 157.205 199.363 156.705V155.34C199.363 154.84 199.223 154.445 198.943 154.155C198.673 153.855 198.328 153.705 197.908 153.705C197.488 153.705 197.138 153.81 196.858 154.02C196.588 154.22 196.453 154.5 196.453 154.86V157.185C196.453 157.545 196.588 157.83 196.858 158.04C197.138 158.24 197.488 158.34 197.908 158.34Z" fill="white"/>
<path d="M206.254 160.14C205.674 160.14 205.154 160.045 204.694 159.855C204.244 159.665 203.859 159.39 203.539 159.03C203.229 158.67 202.989 158.235 202.819 157.725C202.649 157.215 202.564 156.645 202.564 156.015C202.564 155.385 202.649 154.815 202.819 154.305C202.989 153.795 203.229 153.365 203.539 153.015C203.859 152.655 204.244 152.38 204.694 152.19C205.154 152 205.674 151.905 206.254 151.905C206.834 151.905 207.349 152 207.799 152.19C208.259 152.38 208.644 152.655 208.954 153.015C209.274 153.365 209.519 153.795 209.689 154.305C209.859 154.815 209.944 155.385 209.944 156.015C209.944 156.645 209.859 157.215 209.689 157.725C209.519 158.235 209.274 158.67 208.954 159.03C208.644 159.39 208.259 159.665 207.799 159.855C207.349 160.045 206.834 160.14 206.254 160.14ZM206.254 158.385C206.694 158.385 207.034 158.25 207.274 157.98C207.514 157.71 207.634 157.325 207.634 156.825V155.22C207.634 154.72 207.514 154.335 207.274 154.065C207.034 153.795 206.694 153.66 206.254 153.66C205.814 153.66 205.474 153.795 205.234 154.065C204.994 154.335 204.874 154.72 204.874 155.22V156.825C204.874 157.325 204.994 157.71 205.234 157.98C205.474 158.25 205.814 158.385 206.254 158.385Z" fill="white"/>
<path d="M210.227 159.96L212.822 155.955L210.257 152.085H212.777L214.247 154.56H214.307L215.732 152.085H218.072L215.462 156.03L218.087 159.96H215.567L214.052 157.395H213.992L212.537 159.96H210.227Z" fill="white"/>
<rect x="250.5" y="106.5" width="89" height="65" rx="9.5" stroke="#2A91E9"/>
<path d="M290.667 124.36H304.75" stroke="#2A91E9" stroke-width="3" stroke-linecap="round" stroke-linejoin="round"/>
<path d="M290.667 130.86H304.75" stroke="#2A91E9" stroke-width="3" stroke-linecap="round" stroke-linejoin="round"/>
<path d="M290.667 137.36H304.75" stroke="#2A91E9" stroke-width="3" stroke-linecap="round" stroke-linejoin="round"/>
<path d="M285.25 124.36H285.261" stroke="#2A91E9" stroke-width="3" stroke-linecap="round" stroke-linejoin="round"/>
<path d="M285.25 130.86H285.261" stroke="#2A91E9" stroke-width="3" stroke-linecap="round" stroke-linejoin="round"/>
<path d="M285.25 137.36H285.261" stroke="#2A91E9" stroke-width="3" stroke-linecap="round" stroke-linejoin="round"/>
<path d="M278.144 160.14C277.224 160.14 276.444 159.985 275.804 159.675C275.164 159.355 274.619 158.945 274.169 158.445L275.669 156.93C276.379 157.73 277.254 158.13 278.294 158.13C278.854 158.13 279.269 158.015 279.539 157.785C279.809 157.555 279.944 157.25 279.944 156.87C279.944 156.58 279.864 156.34 279.704 156.15C279.544 155.95 279.219 155.815 278.729 155.745L277.694 155.61C276.584 155.47 275.769 155.135 275.249 154.605C274.739 154.075 274.484 153.37 274.484 152.49C274.484 152.02 274.574 151.59 274.754 151.2C274.934 150.81 275.189 150.475 275.519 150.195C275.859 149.915 276.269 149.7 276.749 149.55C277.239 149.39 277.794 149.31 278.414 149.31C279.204 149.31 279.899 149.435 280.499 149.685C281.099 149.935 281.614 150.3 282.044 150.78L280.529 152.31C280.279 152.02 279.974 151.785 279.614 151.605C279.264 151.415 278.819 151.32 278.279 151.32C277.769 151.32 277.389 151.41 277.139 151.59C276.889 151.77 276.764 152.02 276.764 152.34C276.764 152.7 276.859 152.96 277.049 153.12C277.249 153.28 277.569 153.395 278.009 153.465L279.044 153.63C280.124 153.8 280.924 154.135 281.444 154.635C281.964 155.125 282.224 155.825 282.224 156.735C282.224 157.235 282.134 157.695 281.954 158.115C281.774 158.535 281.509 158.895 281.159 159.195C280.819 159.495 280.394 159.73 279.884 159.9C279.374 160.06 278.794 160.14 278.144 160.14Z" fill="white"/>
<path d="M286.98 160.14C286.38 160.14 285.845 160.045 285.375 159.855C284.905 159.655 284.505 159.38 284.175 159.03C283.855 158.67 283.61 158.235 283.44 157.725C283.28 157.215 283.2 156.645 283.2 156.015C283.2 155.395 283.28 154.835 283.44 154.335C283.6 153.825 283.835 153.39 284.145 153.03C284.465 152.67 284.855 152.395 285.315 152.205C285.775 152.005 286.3 151.905 286.89 151.905C287.54 151.905 288.095 152.015 288.555 152.235C289.025 152.455 289.405 152.75 289.695 153.12C289.995 153.49 290.21 153.92 290.34 154.41C290.48 154.89 290.55 155.395 290.55 155.925V156.585H285.495V156.705C285.495 157.225 285.635 157.64 285.915 157.95C286.195 158.25 286.635 158.4 287.235 158.4C287.695 158.4 288.07 158.31 288.36 158.13C288.65 157.94 288.92 157.715 289.17 157.455L290.28 158.835C289.93 159.245 289.47 159.565 288.9 159.795C288.34 160.025 287.7 160.14 286.98 160.14ZM286.935 153.54C286.485 153.54 286.13 153.69 285.87 153.99C285.62 154.28 285.495 154.67 285.495 155.16V155.28H288.255V155.145C288.255 154.665 288.145 154.28 287.925 153.99C287.715 153.69 287.385 153.54 286.935 153.54Z" fill="white"/>
<path d="M294.023 159.96C293.263 159.96 292.703 159.775 292.343 159.405C291.993 159.035 291.818 158.5 291.818 157.8V148.86H294.038V158.235H295.028V159.96H294.023Z" fill="white"/>
<path d="M299.344 160.14C298.744 160.14 298.209 160.045 297.739 159.855C297.269 159.655 296.869 159.38 296.539 159.03C296.219 158.67 295.974 158.235 295.804 157.725C295.644 157.215 295.564 156.645 295.564 156.015C295.564 155.395 295.644 154.835 295.804 154.335C295.964 153.825 296.199 153.39 296.509 153.03C296.829 152.67 297.219 152.395 297.679 152.205C298.139 152.005 298.664 151.905 299.254 151.905C299.904 151.905 300.459 152.015 300.919 152.235C301.389 152.455 301.769 152.75 302.059 153.12C302.359 153.49 302.574 153.92 302.704 154.41C302.844 154.89 302.914 155.395 302.914 155.925V156.585H297.859V156.705C297.859 157.225 297.999 157.64 298.279 157.95C298.559 158.25 298.999 158.4 299.599 158.4C300.059 158.4 300.434 158.31 300.724 158.13C301.014 157.94 301.284 157.715 301.534 157.455L302.644 158.835C302.294 159.245 301.834 159.565 301.264 159.795C300.704 160.025 300.064 160.14 299.344 160.14ZM299.299 153.54C298.849 153.54 298.494 153.69 298.234 153.99C297.984 154.28 297.859 154.67 297.859 155.16V155.28H300.619V155.145C300.619 154.665 300.509 154.28 300.289 153.99C300.079 153.69 299.749 153.54 299.299 153.54Z" fill="white"/>
<path d="M307.362 160.14C306.772 160.14 306.247 160.045 305.787 159.855C305.327 159.655 304.942 159.38 304.632 159.03C304.322 158.67 304.087 158.235 303.927 157.725C303.767 157.215 303.687 156.645 303.687 156.015C303.687 155.385 303.767 154.82 303.927 154.32C304.087 153.81 304.322 153.375 304.632 153.015C304.942 152.655 305.327 152.38 305.787 152.19C306.247 152 306.772 151.905 307.362 151.905C308.162 151.905 308.827 152.085 309.357 152.445C309.897 152.805 310.282 153.31 310.512 153.96L308.712 154.74C308.642 154.44 308.497 154.185 308.277 153.975C308.057 153.765 307.752 153.66 307.362 153.66C306.912 153.66 306.572 153.81 306.342 154.11C306.112 154.4 305.997 154.795 305.997 155.295V156.765C305.997 157.265 306.112 157.66 306.342 157.95C306.572 158.24 306.912 158.385 307.362 158.385C307.762 158.385 308.077 158.28 308.307 158.07C308.547 157.85 308.722 157.565 308.832 157.215L310.557 157.965C310.297 158.715 309.892 159.265 309.342 159.615C308.802 159.965 308.142 160.14 307.362 160.14Z" fill="white"/>
<path d="M314.391 159.96C313.621 159.96 313.036 159.765 312.636 159.375C312.246 158.985 312.051 158.415 312.051 157.665V153.81H310.941V152.085H311.496C311.796 152.085 312.001 152.015 312.111 151.875C312.221 151.725 312.276 151.515 312.276 151.245V149.955H314.271V152.085H315.831V153.81H314.271V158.235H315.711V159.96H314.391Z" fill="white"/>
<rect x="360.5" y="106.5" width="89" height="65" rx="9.5" stroke="#2A91E9"/>
<path d="M412.583 119.925H397.417C396.22 119.925 395.25 120.895 395.25 122.092V137.258C395.25 138.455 396.22 139.425 397.417 139.425H412.583C413.78 139.425 414.75 138.455 414.75 137.258V122.092C414.75 120.895 413.78 119.925 412.583 119.925Z" stroke="#2A91E9" stroke-width="3" stroke-linecap="round" stroke-linejoin="round"/>
<path d="M401.208 127.508C402.106 127.508 402.833 126.781 402.833 125.883C402.833 124.986 402.106 124.258 401.208 124.258C400.311 124.258 399.583 124.986 399.583 125.883C399.583 126.781 400.311 127.508 401.208 127.508Z" stroke="#2A91E9" stroke-width="3" stroke-linecap="round" stroke-linejoin="round"/>
<path d="M414.75 132.925L409.333 127.508L397.417 139.425" stroke="#2A91E9" stroke-width="3" stroke-linecap="round" stroke-linejoin="round"/>
<path d="M383.727 158.145V156.33H385.077V149.49H383.727V147.675H388.707V149.49H387.357V156.33H388.707V158.145H383.727Z" fill="white"/>
<path d="M390.186 158.145V150.27H392.406V151.605H392.496C392.636 151.185 392.876 150.83 393.216 150.54C393.556 150.24 394.021 150.09 394.611 150.09C395.151 150.09 395.611 150.225 395.991 150.495C396.371 150.765 396.646 151.16 396.816 151.68H396.861C396.931 151.46 397.036 151.255 397.176 151.065C397.326 150.865 397.506 150.695 397.716 150.555C397.926 150.415 398.161 150.305 398.421 150.225C398.681 150.135 398.961 150.09 399.261 150.09C400.021 150.09 400.601 150.36 401.001 150.9C401.411 151.44 401.616 152.21 401.616 153.21V158.145H399.396V153.39C399.396 152.39 399.036 151.89 398.316 151.89C397.986 151.89 397.686 151.985 397.416 152.175C397.146 152.365 397.011 152.655 397.011 153.045V158.145H394.791V153.39C394.791 152.39 394.431 151.89 393.711 151.89C393.551 151.89 393.391 151.915 393.231 151.965C393.081 152.005 392.941 152.075 392.811 152.175C392.691 152.275 392.591 152.4 392.511 152.55C392.441 152.69 392.406 152.855 392.406 153.045V158.145H390.186Z" fill="white"/>
<path d="M409.11 158.145C408.71 158.145 408.375 158.02 408.105 157.77C407.845 157.52 407.68 157.185 407.61 156.765H407.52C407.4 157.275 407.135 157.665 406.725 157.935C406.315 158.195 405.81 158.325 405.21 158.325C404.42 158.325 403.815 158.115 403.395 157.695C402.975 157.275 402.765 156.72 402.765 156.03C402.765 155.2 403.065 154.585 403.665 154.185C404.275 153.775 405.1 153.57 406.14 153.57H407.385V153.075C407.385 152.695 407.285 152.395 407.085 152.175C406.885 151.945 406.55 151.83 406.08 151.83C405.64 151.83 405.29 151.925 405.03 152.115C404.77 152.305 404.555 152.52 404.385 152.76L403.065 151.59C403.385 151.12 403.785 150.755 404.265 150.495C404.755 150.225 405.415 150.09 406.245 150.09C407.365 150.09 408.205 150.335 408.765 150.825C409.325 151.315 409.605 152.03 409.605 152.97V156.42H410.34V158.145H409.11ZM406.035 156.78C406.405 156.78 406.72 156.7 406.98 156.54C407.25 156.38 407.385 156.12 407.385 155.76V154.83H406.305C405.435 154.83 405 155.125 405 155.715V155.94C405 156.23 405.09 156.445 405.27 156.585C405.45 156.715 405.705 156.78 406.035 156.78Z" fill="white"/>
<path d="M418.82 158.715C418.82 159.135 418.745 159.505 418.595 159.825C418.455 160.145 418.22 160.415 417.89 160.635C417.56 160.865 417.12 161.035 416.57 161.145C416.03 161.265 415.36 161.325 414.56 161.325C413.88 161.325 413.3 161.28 412.82 161.19C412.35 161.11 411.965 160.99 411.665 160.83C411.375 160.68 411.16 160.49 411.02 160.26C410.89 160.04 410.825 159.785 410.825 159.495C410.825 159.055 410.955 158.71 411.215 158.46C411.475 158.21 411.835 158.055 412.295 157.995V157.83C411.915 157.76 411.63 157.6 411.44 157.35C411.25 157.09 411.155 156.79 411.155 156.45C411.155 156.24 411.195 156.06 411.275 155.91C411.365 155.75 411.475 155.615 411.605 155.505C411.745 155.385 411.905 155.29 412.085 155.22C412.265 155.15 412.445 155.095 412.625 155.055V154.995C412.145 154.775 411.79 154.475 411.56 154.095C411.33 153.705 411.215 153.255 411.215 152.745C411.215 151.945 411.49 151.305 412.04 150.825C412.6 150.335 413.45 150.09 414.59 150.09C415.11 150.09 415.555 150.14 415.925 150.24V149.94C415.925 149.52 416.025 149.22 416.225 149.04C416.435 148.85 416.73 148.755 417.11 148.755H418.355V150.405H416.615V150.495C417.075 150.715 417.415 151.02 417.635 151.41C417.855 151.79 417.965 152.235 417.965 152.745C417.965 153.535 417.685 154.17 417.125 154.65C416.575 155.12 415.73 155.355 414.59 155.355C414.08 155.355 413.615 155.3 413.195 155.19C412.965 155.34 412.85 155.55 412.85 155.82C412.85 156.01 412.92 156.16 413.06 156.27C413.21 156.37 413.455 156.42 413.795 156.42H416.075C417.035 156.42 417.73 156.62 418.16 157.02C418.6 157.42 418.82 157.985 418.82 158.715ZM416.735 159.015C416.735 158.785 416.645 158.61 416.465 158.49C416.285 158.37 415.97 158.31 415.52 158.31H412.82C412.72 158.41 412.645 158.52 412.595 158.64C412.555 158.77 412.535 158.895 412.535 159.015C412.535 159.305 412.66 159.515 412.91 159.645C413.16 159.785 413.585 159.855 414.185 159.855H415.085C415.685 159.855 416.11 159.785 416.36 159.645C416.61 159.515 416.735 159.305 416.735 159.015ZM414.59 153.9C415.03 153.9 415.355 153.81 415.565 153.63C415.785 153.44 415.895 153.17 415.895 152.82V152.64C415.895 152.29 415.785 152.025 415.565 151.845C415.355 151.655 415.03 151.56 414.59 151.56C414.15 151.56 413.82 151.655 413.6 151.845C413.39 152.025 413.285 152.29 413.285 152.64V152.82C413.285 153.17 413.39 153.44 413.6 153.63C413.82 153.81 414.15 153.9 414.59 153.9Z" fill="white"/>
<path d="M422.703 158.325C422.103 158.325 421.568 158.23 421.098 158.04C420.628 157.84 420.228 157.565 419.898 157.215C419.578 156.855 419.333 156.42 419.163 155.91C419.003 155.4 418.923 154.83 418.923 154.2C418.923 153.58 419.003 153.02 419.163 152.52C419.323 152.01 419.558 151.575 419.868 151.215C420.188 150.855 420.578 150.58 421.038 150.39C421.498 150.19 422.023 150.09 422.613 150.09C423.263 150.09 423.818 150.2 424.278 150.42C424.748 150.64 425.128 150.935 425.418 151.305C425.718 151.675 425.933 152.105 426.063 152.595C426.203 153.075 426.273 153.58 426.273 154.11V154.77H421.218V154.89C421.218 155.41 421.358 155.825 421.638 156.135C421.918 156.435 422.358 156.585 422.958 156.585C423.418 156.585 423.793 156.495 424.083 156.315C424.373 156.125 424.643 155.9 424.893 155.64L426.003 157.02C425.653 157.43 425.193 157.75 424.623 157.98C424.063 158.21 423.423 158.325 422.703 158.325ZM422.658 151.725C422.208 151.725 421.853 151.875 421.593 152.175C421.343 152.465 421.218 152.855 421.218 153.345V153.465H423.978V153.33C423.978 152.85 423.868 152.465 423.648 152.175C423.438 151.875 423.108 151.725 422.658 151.725Z" fill="white"/>
<rect x="30.5" y="191.5" width="89" height="65" rx="9.5" stroke="#2A91E9"/>
<g clip-path="url(#clip1)">
<path d="M86.9167 210.376L79.3333 215.792L86.9167 221.209V210.376Z" stroke="#2A91E9" stroke-width="3" stroke-linecap="round" stroke-linejoin="round"/>
<path d="M77.1667 208.209H65.25C64.0534 208.209 63.0833 209.179 63.0833 210.376V221.209C63.0833 222.406 64.0534 223.376 65.25 223.376H77.1667C78.3633 223.376 79.3333 222.406 79.3333 221.209V210.376C79.3333 209.179 78.3633 208.209 77.1667 208.209Z" stroke="#2A91E9" stroke-width="3" stroke-linecap="round" stroke-linejoin="round"/>
</g>
<path d="M59.3217 245.027L55.9467 234.557H58.2567L59.8167 239.582L60.6417 242.867H60.6867L61.4817 239.582L63.0417 234.557H65.2767L61.8717 245.027H59.3217Z" fill="white"/>
<path d="M67.3375 236.312C66.8875 236.312 66.5575 236.212 66.3475 236.012C66.1475 235.802 66.0475 235.537 66.0475 235.217V234.887C66.0475 234.567 66.1475 234.307 66.3475 234.107C66.5575 233.897 66.8875 233.792 67.3375 233.792C67.7875 233.792 68.1125 233.897 68.3125 234.107C68.5225 234.307 68.6275 234.567 68.6275 234.887V235.217C68.6275 235.537 68.5225 235.802 68.3125 236.012C68.1125 236.212 67.7875 236.312 67.3375 236.312ZM66.2275 237.152H68.4475V245.027H66.2275V237.152Z" fill="white"/>
<path d="M75.0495 243.707H74.9745C74.9145 243.917 74.8195 244.117 74.6895 244.307C74.5595 244.487 74.3995 244.647 74.2095 244.787C74.0295 244.917 73.8195 245.017 73.5795 245.087C73.3495 245.167 73.1095 245.207 72.8595 245.207C71.8595 245.207 71.1045 244.857 70.5945 244.157C70.0845 243.447 69.8295 242.422 69.8295 241.082C69.8295 239.742 70.0845 238.722 70.5945 238.022C71.1045 237.322 71.8595 236.972 72.8595 236.972C73.3695 236.972 73.8195 237.112 74.2095 237.392C74.6095 237.672 74.8645 238.032 74.9745 238.472H75.0495V233.927H77.2695V245.027H75.0495V243.707ZM73.5945 243.407C74.0145 243.407 74.3595 243.307 74.6295 243.107C74.9095 242.897 75.0495 242.612 75.0495 242.252V239.927C75.0495 239.567 74.9095 239.287 74.6295 239.087C74.3595 238.877 74.0145 238.772 73.5945 238.772C73.1745 238.772 72.8245 238.922 72.5445 239.222C72.2745 239.512 72.1395 239.907 72.1395 240.407V241.772C72.1395 242.272 72.2745 242.672 72.5445 242.972C72.8245 243.262 73.1745 243.407 73.5945 243.407Z" fill="white"/>
<path d="M82.3305 245.207C81.7305 245.207 81.1955 245.112 80.7255 244.922C80.2555 244.722 79.8555 244.447 79.5255 244.097C79.2055 243.737 78.9605 243.302 78.7905 242.792C78.6305 242.282 78.5505 241.712 78.5505 241.082C78.5505 240.462 78.6305 239.902 78.7905 239.402C78.9505 238.892 79.1855 238.457 79.4955 238.097C79.8155 237.737 80.2055 237.462 80.6655 237.272C81.1255 237.072 81.6505 236.972 82.2405 236.972C82.8905 236.972 83.4455 237.082 83.9055 237.302C84.3755 237.522 84.7555 237.817 85.0455 238.187C85.3455 238.557 85.5605 238.987 85.6905 239.477C85.8305 239.957 85.9005 240.462 85.9005 240.992V241.652H80.8455V241.772C80.8455 242.292 80.9855 242.707 81.2655 243.017C81.5455 243.317 81.9855 243.467 82.5855 243.467C83.0455 243.467 83.4205 243.377 83.7105 243.197C84.0005 243.007 84.2705 242.782 84.5205 242.522L85.6305 243.902C85.2805 244.312 84.8205 244.632 84.2505 244.862C83.6905 245.092 83.0505 245.207 82.3305 245.207ZM82.2855 238.607C81.8355 238.607 81.4805 238.757 81.2205 239.057C80.9705 239.347 80.8455 239.737 80.8455 240.227V240.347H83.6055V240.212C83.6055 239.732 83.4955 239.347 83.2755 239.057C83.0655 238.757 82.7355 238.607 82.2855 238.607Z" fill="white"/>
<path d="M90.3633 245.207C89.7833 245.207 89.2633 245.112 88.8033 244.922C88.3533 244.732 87.9683 244.457 87.6483 244.097C87.3383 243.737 87.0983 243.302 86.9283 242.792C86.7583 242.282 86.6733 241.712 86.6733 241.082C86.6733 240.452 86.7583 239.882 86.9283 239.372C87.0983 238.862 87.3383 238.432 87.6483 238.082C87.9683 237.722 88.3533 237.447 88.8033 237.257C89.2633 237.067 89.7833 236.972 90.3633 236.972C90.9433 236.972 91.4583 237.067 91.9083 237.257C92.3683 237.447 92.7533 237.722 93.0633 238.082C93.3833 238.432 93.6283 238.862 93.7983 239.372C93.9683 239.882 94.0533 240.452 94.0533 241.082C94.0533 241.712 93.9683 242.282 93.7983 242.792C93.6283 243.302 93.3833 243.737 93.0633 244.097C92.7533 244.457 92.3683 244.732 91.9083 244.922C91.4583 245.112 90.9433 245.207 90.3633 245.207ZM90.3633 243.452C90.8033 243.452 91.1433 243.317 91.3833 243.047C91.6233 242.777 91.7433 242.392 91.7433 241.892V240.287C91.7433 239.787 91.6233 239.402 91.3833 239.132C91.1433 238.862 90.8033 238.727 90.3633 238.727C89.9233 238.727 89.5833 238.862 89.3433 239.132C89.1033 239.402 88.9833 239.787 88.9833 240.287V241.892C88.9833 242.392 89.1033 242.777 89.3433 243.047C89.5833 243.317 89.9233 243.452 90.3633 243.452Z" fill="white"/>
<rect x="140.5" y="191.5" width="89" height="65" rx="9.5" stroke="#2A91E9"/>
<g clip-path="url(#clip2)">
<path d="M194.75 213.626C194.75 221.209 185 227.709 185 227.709C185 227.709 175.25 221.209 175.25 213.626C175.25 211.04 176.277 208.56 178.106 206.731C179.934 204.903 182.414 203.876 185 203.876C187.586 203.876 190.066 204.903 191.894 206.731C193.723 208.56 194.75 211.04 194.75 213.626Z" stroke="#2A91E9" stroke-width="3" stroke-linecap="round" stroke-linejoin="round"/>
<path d="M185 216.876C186.795 216.876 188.25 215.421 188.25 213.626C188.25 211.831 186.795 210.376 185 210.376C183.205 210.376 181.75 211.831 181.75 213.626C181.75 215.421 183.205 216.876 185 216.876Z" stroke="#2A91E9" stroke-width="3" stroke-linecap="round" stroke-linejoin="round"/>
</g>
<path d="M157.142 245.027V234.557H159.422V243.002H163.412V245.027H157.142Z" fill="white"/>
<path d="M167.724 245.207C167.144 245.207 166.624 245.112 166.164 244.922C165.714 244.732 165.329 244.457 165.009 244.097C164.699 243.737 164.459 243.302 164.289 242.792C164.119 242.282 164.034 241.712 164.034 241.082C164.034 240.452 164.119 239.882 164.289 239.372C164.459 238.862 164.699 238.432 165.009 238.082C165.329 237.722 165.714 237.447 166.164 237.257C166.624 237.067 167.144 236.972 167.724 236.972C168.304 236.972 168.819 237.067 169.269 237.257C169.729 237.447 170.114 237.722 170.424 238.082C170.744 238.432 170.989 238.862 171.159 239.372C171.329 239.882 171.414 240.452 171.414 241.082C171.414 241.712 171.329 242.282 171.159 242.792C170.989 243.302 170.744 243.737 170.424 244.097C170.114 244.457 169.729 244.732 169.269 244.922C168.819 245.112 168.304 245.207 167.724 245.207ZM167.724 243.452C168.164 243.452 168.504 243.317 168.744 243.047C168.984 242.777 169.104 242.392 169.104 241.892V240.287C169.104 239.787 168.984 239.402 168.744 239.132C168.504 238.862 168.164 238.727 167.724 238.727C167.284 238.727 166.944 238.862 166.704 239.132C166.464 239.402 166.344 239.787 166.344 240.287V241.892C166.344 242.392 166.464 242.777 166.704 243.047C166.944 243.317 167.284 243.452 167.724 243.452Z" fill="white"/>
<path d="M175.876 245.207C175.286 245.207 174.761 245.112 174.301 244.922C173.841 244.722 173.456 244.447 173.146 244.097C172.836 243.737 172.601 243.302 172.441 242.792C172.281 242.282 172.201 241.712 172.201 241.082C172.201 240.452 172.281 239.887 172.441 239.387C172.601 238.877 172.836 238.442 173.146 238.082C173.456 237.722 173.841 237.447 174.301 237.257C174.761 237.067 175.286 236.972 175.876 236.972C176.676 236.972 177.341 237.152 177.871 237.512C178.411 237.872 178.796 238.377 179.026 239.027L177.226 239.807C177.156 239.507 177.011 239.252 176.791 239.042C176.571 238.832 176.266 238.727 175.876 238.727C175.426 238.727 175.086 238.877 174.856 239.177C174.626 239.467 174.511 239.862 174.511 240.362V241.832C174.511 242.332 174.626 242.727 174.856 243.017C175.086 243.307 175.426 243.452 175.876 243.452C176.276 243.452 176.591 243.347 176.821 243.137C177.061 242.917 177.236 242.632 177.346 242.282L179.071 243.032C178.811 243.782 178.406 244.332 177.856 244.682C177.316 245.032 176.656 245.207 175.876 245.207Z" fill="white"/>
<path d="M185.965 245.027C185.565 245.027 185.23 244.902 184.96 244.652C184.7 244.402 184.535 244.067 184.465 243.647H184.375C184.255 244.157 183.99 244.547 183.58 244.817C183.17 245.077 182.665 245.207 182.065 245.207C181.275 245.207 180.67 244.997 180.25 244.577C179.83 244.157 179.62 243.602 179.62 242.912C179.62 242.082 179.92 241.467 180.52 241.067C181.13 240.657 181.955 240.452 182.995 240.452H184.24V239.957C184.24 239.577 184.14 239.277 183.94 239.057C183.74 238.827 183.405 238.712 182.935 238.712C182.495 238.712 182.145 238.807 181.885 238.997C181.625 239.187 181.41 239.402 181.24 239.642L179.92 238.472C180.24 238.002 180.64 237.637 181.12 237.377C181.61 237.107 182.27 236.972 183.1 236.972C184.22 236.972 185.06 237.217 185.62 237.707C186.18 238.197 186.46 238.912 186.46 239.852V243.302H187.195V245.027H185.965ZM182.89 243.662C183.26 243.662 183.575 243.582 183.835 243.422C184.105 243.262 184.24 243.002 184.24 242.642V241.712H183.16C182.29 241.712 181.855 242.007 181.855 242.597V242.822C181.855 243.112 181.945 243.327 182.125 243.467C182.305 243.597 182.56 243.662 182.89 243.662Z" fill="white"/>
<path d="M191.057 245.027C190.287 245.027 189.702 244.832 189.302 244.442C188.912 244.052 188.717 243.482 188.717 242.732V238.877H187.607V237.152H188.162C188.462 237.152 188.667 237.082 188.777 236.942C188.887 236.792 188.942 236.582 188.942 236.312V235.022H190.937V237.152H192.497V238.877H190.937V243.302H192.377V245.027H191.057Z" fill="white"/>
<path d="M194.849 236.312C194.399 236.312 194.069 236.212 193.859 236.012C193.659 235.802 193.559 235.537 193.559 235.217V234.887C193.559 234.567 193.659 234.307 193.859 234.107C194.069 233.897 194.399 233.792 194.849 233.792C195.299 233.792 195.624 233.897 195.824 234.107C196.034 234.307 196.139 234.567 196.139 234.887V235.217C196.139 235.537 196.034 235.802 195.824 236.012C195.624 236.212 195.299 236.312 194.849 236.312ZM193.739 237.152H195.959V245.027H193.739V237.152Z" fill="white"/>
<path d="M200.926 245.207C200.346 245.207 199.826 245.112 199.366 244.922C198.916 244.732 198.531 244.457 198.211 244.097C197.901 243.737 197.661 243.302 197.491 242.792C197.321 242.282 197.236 241.712 197.236 241.082C197.236 240.452 197.321 239.882 197.491 239.372C197.661 238.862 197.901 238.432 198.211 238.082C198.531 237.722 198.916 237.447 199.366 237.257C199.826 237.067 200.346 236.972 200.926 236.972C201.506 236.972 202.021 237.067 202.471 237.257C202.931 237.447 203.316 237.722 203.626 238.082C203.946 238.432 204.191 238.862 204.361 239.372C204.531 239.882 204.616 240.452 204.616 241.082C204.616 241.712 204.531 242.282 204.361 242.792C204.191 243.302 203.946 243.737 203.626 244.097C203.316 244.457 202.931 244.732 202.471 244.922C202.021 245.112 201.506 245.207 200.926 245.207ZM200.926 243.452C201.366 243.452 201.706 243.317 201.946 243.047C202.186 242.777 202.306 242.392 202.306 241.892V240.287C202.306 239.787 202.186 239.402 201.946 239.132C201.706 238.862 201.366 238.727 200.926 238.727C200.486 238.727 200.146 238.862 199.906 239.132C199.666 239.402 199.546 239.787 199.546 240.287V241.892C199.546 242.392 199.666 242.777 199.906 243.047C200.146 243.317 200.486 243.452 200.926 243.452Z" fill="white"/>
<path d="M205.898 245.027V237.152H208.118V238.487H208.208C208.348 238.077 208.593 237.722 208.943 237.422C209.293 237.122 209.778 236.972 210.398 236.972C211.208 236.972 211.818 237.242 212.228 237.782C212.648 238.322 212.858 239.092 212.858 240.092V245.027H210.638V240.272C210.638 239.762 210.558 239.387 210.398 239.147C210.238 238.897 209.953 238.772 209.543 238.772C209.363 238.772 209.188 238.797 209.018 238.847C208.848 238.887 208.693 238.957 208.553 239.057C208.423 239.157 208.318 239.282 208.238 239.432C208.158 239.572 208.118 239.737 208.118 239.927V245.027H205.898Z" fill="white"/>
<rect x="250.5" y="191.5" width="89" height="65" rx="9.5" stroke="#2A91E9"/>
<g clip-path="url(#clip3)">
<path d="M302.583 207.508H287.417C286.22 207.508 285.25 208.478 285.25 209.675V224.842C285.25 226.038 286.22 227.008 287.417 227.008H302.583C303.78 227.008 304.75 226.038 304.75 224.842V209.675C304.75 208.478 303.78 207.508 302.583 207.508Z" stroke="#2A91E9" stroke-width="3" stroke-linecap="round" stroke-linejoin="round"/>
<path d="M299.333 205.342V209.675" stroke="#2A91E9" stroke-width="3" stroke-linecap="round" stroke-linejoin="round"/>
<path d="M290.667 205.342V209.675" stroke="#2A91E9" stroke-width="3" stroke-linecap="round" stroke-linejoin="round"/>
<path d="M285.25 214.008H304.75" stroke="#2A91E9" stroke-width="3" stroke-linecap="round" stroke-linejoin="round"/>
</g>
<path d="M279.785 234.175H283.73C284.42 234.175 285.05 234.285 285.62 234.505C286.19 234.725 286.675 235.055 287.075 235.495C287.475 235.925 287.785 236.47 288.005 237.13C288.225 237.78 288.335 238.54 288.335 239.41C288.335 240.28 288.225 241.045 288.005 241.705C287.785 242.355 287.475 242.9 287.075 243.34C286.675 243.77 286.19 244.095 285.62 244.315C285.05 244.535 284.42 244.645 283.73 244.645H279.785V234.175ZM283.73 242.62C284.41 242.62 284.945 242.43 285.335 242.05C285.725 241.67 285.92 241.06 285.92 240.22V238.6C285.92 237.76 285.725 237.15 285.335 236.77C284.945 236.39 284.41 236.2 283.73 236.2H282.065V242.62H283.73Z" fill="white"/>
<path d="M295.644 244.645C295.244 244.645 294.909 244.52 294.639 244.27C294.379 244.02 294.214 243.685 294.144 243.265H294.054C293.934 243.775 293.669 244.165 293.259 244.435C292.849 244.695 292.344 244.825 291.744 244.825C290.954 244.825 290.349 244.615 289.929 244.195C289.509 243.775 289.299 243.22 289.299 242.53C289.299 241.7 289.599 241.085 290.199 240.685C290.809 240.275 291.634 240.07 292.674 240.07H293.919V239.575C293.919 239.195 293.819 238.895 293.619 238.675C293.419 238.445 293.084 238.33 292.614 238.33C292.174 238.33 291.824 238.425 291.564 238.615C291.304 238.805 291.089 239.02 290.919 239.26L289.599 238.09C289.919 237.62 290.319 237.255 290.799 236.995C291.289 236.725 291.949 236.59 292.779 236.59C293.899 236.59 294.739 236.835 295.299 237.325C295.859 237.815 296.139 238.53 296.139 239.47V242.92H296.874V244.645H295.644ZM292.569 243.28C292.939 243.28 293.254 243.2 293.514 243.04C293.784 242.88 293.919 242.62 293.919 242.26V241.33H292.839C291.969 241.33 291.534 241.625 291.534 242.215V242.44C291.534 242.73 291.624 242.945 291.804 243.085C291.984 243.215 292.239 243.28 292.569 243.28Z" fill="white"/>
<path d="M300.736 244.645C299.966 244.645 299.381 244.45 298.981 244.06C298.591 243.67 298.396 243.1 298.396 242.35V238.495H297.286V236.77H297.841C298.141 236.77 298.346 236.7 298.456 236.56C298.566 236.41 298.621 236.2 298.621 235.93V234.64H300.616V236.77H302.176V238.495H300.616V242.92H302.056V244.645H300.736Z" fill="white"/>
<path d="M306.645 244.825C306.045 244.825 305.51 244.73 305.04 244.54C304.57 244.34 304.17 244.065 303.84 243.715C303.52 243.355 303.275 242.92 303.105 242.41C302.945 241.9 302.865 241.33 302.865 240.7C302.865 240.08 302.945 239.52 303.105 239.02C303.265 238.51 303.5 238.075 303.81 237.715C304.13 237.355 304.52 237.08 304.98 236.89C305.44 236.69 305.965 236.59 306.555 236.59C307.205 236.59 307.76 236.7 308.22 236.92C308.69 237.14 309.07 237.435 309.36 237.805C309.66 238.175 309.875 238.605 310.005 239.095C310.145 239.575 310.215 240.08 310.215 240.61V241.27H305.16V241.39C305.16 241.91 305.3 242.325 305.58 242.635C305.86 242.935 306.3 243.085 306.9 243.085C307.36 243.085 307.735 242.995 308.025 242.815C308.315 242.625 308.585 242.4 308.835 242.14L309.945 243.52C309.595 243.93 309.135 244.25 308.565 244.48C308.005 244.71 307.365 244.825 306.645 244.825ZM306.6 238.225C306.15 238.225 305.795 238.375 305.535 238.675C305.285 238.965 305.16 239.355 305.16 239.845V239.965H307.92V239.83C307.92 239.35 307.81 238.965 307.59 238.675C307.38 238.375 307.05 238.225 306.6 238.225Z" fill="white"/>
<rect x="360.5" y="191.5" width="89" height="65" rx="9.5" stroke="#2A91E9"/>
<g clip-path="url(#clip4)">
<path d="M406.083 204.959H398.5C397.925 204.959 397.374 205.188 396.968 205.594C396.562 206 396.333 206.551 396.333 207.126V224.459C396.333 225.034 396.562 225.585 396.968 225.991C397.374 226.398 397.925 226.626 398.5 226.626H411.5C412.075 226.626 412.626 226.398 413.032 225.991C413.438 225.585 413.667 225.034 413.667 224.459V212.543L406.083 204.959Z" stroke="#2A91E9" stroke-width="3" stroke-linecap="round" stroke-linejoin="round"/>
<path d="M406.083 204.959V212.543H413.667" stroke="#2A91E9" stroke-width="3" stroke-linecap="round" stroke-linejoin="round"/>
</g>
<path d="M393.279 245.027V234.557H400.224V236.582H395.559V238.727H399.534V240.737H395.559V245.027H393.279Z" fill="white"/>
<path d="M402.743 236.312C402.293 236.312 401.963 236.212 401.753 236.012C401.553 235.802 401.453 235.537 401.453 235.217V234.887C401.453 234.567 401.553 234.307 401.753 234.107C401.963 233.897 402.293 233.792 402.743 233.792C403.193 233.792 403.518 233.897 403.718 234.107C403.928 234.307 404.033 234.567 404.033 234.887V235.217C404.033 235.537 403.928 235.802 403.718 236.012C403.518 236.212 403.193 236.312 402.743 236.312ZM401.633 237.152H403.853V245.027H401.633V237.152Z" fill="white"/>
<path d="M407.83 245.027C407.07 245.027 406.51 244.842 406.15 244.472C405.8 244.102 405.625 243.567 405.625 242.867V233.927H407.845V243.302H408.835V245.027H407.83Z" fill="white"/>
<path d="M413.151 245.207C412.551 245.207 412.016 245.112 411.546 244.922C411.076 244.722 410.676 244.447 410.346 244.097C410.026 243.737 409.781 243.302 409.611 242.792C409.451 242.282 409.371 241.712 409.371 241.082C409.371 240.462 409.451 239.902 409.611 239.402C409.771 238.892 410.006 238.457 410.316 238.097C410.636 237.737 411.026 237.462 411.486 237.272C411.946 237.072 412.471 236.972 413.061 236.972C413.711 236.972 414.266 237.082 414.726 237.302C415.196 237.522 415.576 237.817 415.866 238.187C416.166 238.557 416.381 238.987 416.511 239.477C416.651 239.957 416.721 240.462 416.721 240.992V241.652H411.666V241.772C411.666 242.292 411.806 242.707 412.086 243.017C412.366 243.317 412.806 243.467 413.406 243.467C413.866 243.467 414.241 243.377 414.531 243.197C414.821 243.007 415.091 242.782 415.341 242.522L416.451 243.902C416.101 244.312 415.641 244.632 415.071 244.862C414.511 245.092 413.871 245.207 413.151 245.207ZM413.106 238.607C412.656 238.607 412.301 238.757 412.041 239.057C411.791 239.347 411.666 239.737 411.666 240.227V240.347H414.426V240.212C414.426 239.732 414.316 239.347 414.096 239.057C413.886 238.757 413.556 238.607 413.106 238.607Z" fill="white"/>
<rect x="30.5" y="276.5" width="89" height="65" rx="9.5" stroke="#2A91E9"/>
<g clip-path="url(#clip5)">
<path d="M72.8333 302.256C73.2986 302.878 73.8921 303.393 74.5738 303.765C75.2554 304.138 76.0091 304.359 76.7839 304.415C77.5586 304.47 78.3362 304.358 79.064 304.087C79.7917 303.815 80.4526 303.391 81.0017 302.841L84.2517 299.591C85.2384 298.57 85.7843 297.201 85.772 295.781C85.7597 294.361 85.19 293.002 84.1857 291.998C83.1814 290.994 81.8228 290.424 80.4026 290.412C78.9824 290.399 77.6141 290.945 76.5925 291.932L74.7292 293.785" stroke="#2A91E9" stroke-width="3" stroke-linecap="round" stroke-linejoin="round"/>
<path d="M77.1666 300.09C76.7014 299.468 76.1078 298.953 75.4262 298.581C74.7446 298.208 73.9908 297.987 73.2161 297.931C72.4413 297.876 71.6637 297.988 70.936 298.259C70.2082 298.531 69.5474 298.955 68.9983 299.505L65.7483 302.755C64.7616 303.776 64.2156 305.145 64.228 306.565C64.2403 307.985 64.81 309.344 65.8143 310.348C66.8186 311.352 68.1771 311.922 69.5974 311.934C71.0176 311.947 72.3858 311.401 73.4074 310.414L75.2599 308.561" stroke="#2A91E9" stroke-width="3" stroke-linecap="round" stroke-linejoin="round"/>
</g>
<path d="M36.4648 329.659H34.3368V319.887H38.9708C39.4188 319.887 39.8248 319.962 40.1888 320.111C40.5528 320.26 40.8608 320.475 41.1128 320.755C41.3741 321.026 41.5748 321.352 41.7148 321.735C41.8548 322.118 41.9248 322.542 41.9248 323.009C41.9248 323.672 41.7755 324.25 41.4768 324.745C41.1875 325.24 40.7441 325.599 40.1468 325.823L42.0648 329.659H39.6988L37.9908 326.075H36.4648V329.659ZM38.7048 324.283C39.0221 324.283 39.2695 324.204 39.4468 324.045C39.6335 323.877 39.7268 323.634 39.7268 323.317V322.701C39.7268 322.384 39.6335 322.146 39.4468 321.987C39.2695 321.819 39.0221 321.735 38.7048 321.735H36.4648V324.283H38.7048Z" fill="white"/>
<path d="M46.0993 329.827C45.5393 329.827 45.04 329.738 44.6013 329.561C44.1626 329.374 43.7893 329.118 43.4813 328.791C43.1826 328.455 42.954 328.049 42.7953 327.573C42.646 327.097 42.5713 326.565 42.5713 325.977C42.5713 325.398 42.646 324.876 42.7953 324.409C42.9446 323.933 43.164 323.527 43.4533 323.191C43.752 322.855 44.116 322.598 44.5453 322.421C44.9746 322.234 45.4646 322.141 46.0153 322.141C46.622 322.141 47.14 322.244 47.5693 322.449C48.008 322.654 48.3626 322.93 48.6333 323.275C48.9133 323.62 49.114 324.022 49.2353 324.479C49.366 324.927 49.4313 325.398 49.4313 325.893V326.509H44.7133V326.621C44.7133 327.106 44.844 327.494 45.1053 327.783C45.3666 328.063 45.7773 328.203 46.3373 328.203C46.7666 328.203 47.1166 328.119 47.3873 327.951C47.658 327.774 47.91 327.564 48.1433 327.321L49.1793 328.609C48.8526 328.992 48.4233 329.29 47.8913 329.505C47.3686 329.72 46.7713 329.827 46.0993 329.827ZM46.0573 323.667C45.6373 323.667 45.306 323.807 45.0633 324.087C44.83 324.358 44.7133 324.722 44.7133 325.179V325.291H47.2893V325.165C47.2893 324.717 47.1866 324.358 46.9813 324.087C46.7853 323.807 46.4773 323.667 46.0573 323.667Z" fill="white"/>
<path d="M52.5326 329.659C51.8233 329.659 51.3006 329.486 50.9646 329.141C50.638 328.796 50.4746 328.296 50.4746 327.643V319.299H52.5466V328.049H53.4706V329.659H52.5326Z" fill="white"/>
<path d="M59.7249 329.659C59.3516 329.659 59.0389 329.542 58.7869 329.309C58.5443 329.076 58.3903 328.763 58.3249 328.371H58.2409C58.1289 328.847 57.8816 329.211 57.4989 329.463C57.1162 329.706 56.6449 329.827 56.0849 329.827C55.3476 329.827 54.7829 329.631 54.3909 329.239C53.9989 328.847 53.8029 328.329 53.8029 327.685C53.8029 326.91 54.0829 326.336 54.6429 325.963C55.2123 325.58 55.9822 325.389 56.9529 325.389H58.1149V324.927C58.1149 324.572 58.0216 324.292 57.8349 324.087C57.6483 323.872 57.3356 323.765 56.8969 323.765C56.4862 323.765 56.1596 323.854 55.9169 324.031C55.6742 324.208 55.4736 324.409 55.3149 324.633L54.0829 323.541C54.3816 323.102 54.7549 322.762 55.2029 322.519C55.6602 322.267 56.2763 322.141 57.0509 322.141C58.0963 322.141 58.8802 322.37 59.4029 322.827C59.9256 323.284 60.1869 323.952 60.1869 324.829V328.049H60.8729V329.659H59.7249ZM56.8549 328.385C57.2002 328.385 57.4942 328.31 57.7369 328.161C57.9889 328.012 58.1149 327.769 58.1149 327.433V326.565H57.1069C56.2949 326.565 55.8889 326.84 55.8889 327.391V327.601C55.8889 327.872 55.9729 328.072 56.1409 328.203C56.3089 328.324 56.5469 328.385 56.8549 328.385Z" fill="white"/>
<path d="M64.3376 329.659C63.6189 329.659 63.0729 329.477 62.6996 329.113C62.3356 328.749 62.1536 328.217 62.1536 327.517V323.919H61.1176V322.309H61.6356C61.9156 322.309 62.1069 322.244 62.2096 322.113C62.3123 321.973 62.3636 321.777 62.3636 321.525V320.321H64.2256V322.309H65.6816V323.919H64.2256V328.049H65.5696V329.659H64.3376Z" fill="white"/>
<path d="M67.737 321.525C67.317 321.525 67.009 321.432 66.813 321.245C66.6263 321.049 66.533 320.802 66.533 320.503V320.195C66.533 319.896 66.6263 319.654 66.813 319.467C67.009 319.271 67.317 319.173 67.737 319.173C68.157 319.173 68.4603 319.271 68.647 319.467C68.843 319.654 68.941 319.896 68.941 320.195V320.503C68.941 320.802 68.843 321.049 68.647 321.245C68.4603 321.432 68.157 321.525 67.737 321.525ZM66.701 322.309H68.773V329.659H66.701V322.309Z" fill="white"/>
<path d="M73.2688 329.827C72.7275 329.827 72.2422 329.738 71.8128 329.561C71.3928 329.384 71.0335 329.127 70.7348 328.791C70.4455 328.455 70.2215 328.049 70.0628 327.573C69.9042 327.097 69.8248 326.565 69.8248 325.977C69.8248 325.389 69.9042 324.857 70.0628 324.381C70.2215 323.905 70.4455 323.504 70.7348 323.177C71.0335 322.841 71.3928 322.584 71.8128 322.407C72.2422 322.23 72.7275 322.141 73.2688 322.141C73.8102 322.141 74.2908 322.23 74.7108 322.407C75.1402 322.584 75.4995 322.841 75.7888 323.177C76.0875 323.504 76.3162 323.905 76.4748 324.381C76.6335 324.857 76.7128 325.389 76.7128 325.977C76.7128 326.565 76.6335 327.097 76.4748 327.573C76.3162 328.049 76.0875 328.455 75.7888 328.791C75.4995 329.127 75.1402 329.384 74.7108 329.561C74.2908 329.738 73.8102 329.827 73.2688 329.827ZM73.2688 328.189C73.6795 328.189 73.9968 328.063 74.2208 327.811C74.4448 327.559 74.5568 327.2 74.5568 326.733V325.235C74.5568 324.768 74.4448 324.409 74.2208 324.157C73.9968 323.905 73.6795 323.779 73.2688 323.779C72.8582 323.779 72.5408 323.905 72.3168 324.157C72.0928 324.409 71.9808 324.768 71.9808 325.235V326.733C71.9808 327.2 72.0928 327.559 72.3168 327.811C72.5408 328.063 72.8582 328.189 73.2688 328.189Z" fill="white"/>
<path d="M77.7692 329.659V322.309H79.8412V323.555H79.9252C80.0558 323.172 80.2845 322.841 80.6112 322.561C80.9378 322.281 81.3905 322.141 81.9692 322.141C82.7252 322.141 83.2945 322.393 83.6772 322.897C84.0692 323.401 84.2652 324.12 84.2652 325.053V329.659H82.1932V325.221C82.1932 324.745 82.1185 324.395 81.9692 324.171C81.8198 323.938 81.5538 323.821 81.1712 323.821C81.0032 323.821 80.8398 323.844 80.6812 323.891C80.5225 323.928 80.3778 323.994 80.2472 324.087C80.1258 324.18 80.0278 324.297 79.9532 324.437C79.8785 324.568 79.8412 324.722 79.8412 324.899V329.659H77.7692Z" fill="white"/>
<path d="M93.0856 328.427H93.0156C92.9596 328.623 92.8709 328.81 92.7496 328.987C92.6283 329.155 92.4789 329.304 92.3016 329.435C92.1336 329.556 91.9376 329.65 91.7136 329.715C91.4989 329.79 91.2749 329.827 91.0416 329.827C90.1083 329.827 89.4036 329.5 88.9276 328.847C88.4516 328.184 88.2136 327.228 88.2136 325.977C88.2136 324.726 88.4516 323.774 88.9276 323.121C89.4036 322.468 90.1083 322.141 91.0416 322.141C91.5176 322.141 91.9376 322.272 92.3016 322.533C92.6749 322.794 92.9129 323.13 93.0156 323.541H93.0856V319.299H95.1576V329.659H93.0856V328.427ZM91.7276 328.147C92.1196 328.147 92.4416 328.054 92.6936 327.867C92.9549 327.671 93.0856 327.405 93.0856 327.069V324.899C93.0856 324.563 92.9549 324.302 92.6936 324.115C92.4416 323.919 92.1196 323.821 91.7276 323.821C91.3356 323.821 91.0089 323.961 90.7476 324.241C90.4956 324.512 90.3696 324.88 90.3696 325.347V326.621C90.3696 327.088 90.4956 327.461 90.7476 327.741C91.0089 328.012 91.3356 328.147 91.7276 328.147Z" fill="white"/>
<path d="M102.107 329.659C101.734 329.659 101.421 329.542 101.169 329.309C100.927 329.076 100.773 328.763 100.707 328.371H100.623C100.511 328.847 100.264 329.211 99.8812 329.463C99.4985 329.706 99.0272 329.827 98.4672 329.827C97.7298 329.827 97.1652 329.631 96.7732 329.239C96.3812 328.847 96.1852 328.329 96.1852 327.685C96.1852 326.91 96.4652 326.336 97.0252 325.963C97.5945 325.58 98.3645 325.389 99.3352 325.389H100.497V324.927C100.497 324.572 100.404 324.292 100.217 324.087C100.031 323.872 99.7178 323.765 99.2792 323.765C98.8685 323.765 98.5418 323.854 98.2992 324.031C98.0565 324.208 97.8559 324.409 97.6972 324.633L96.4652 323.541C96.7638 323.102 97.1372 322.762 97.5852 322.519C98.0425 322.267 98.6585 322.141 99.4332 322.141C100.479 322.141 101.263 322.37 101.785 322.827C102.308 323.284 102.569 323.952 102.569 324.829V328.049H103.255V329.659H102.107ZM99.2372 328.385C99.5825 328.385 99.8765 328.31 100.119 328.161C100.371 328.012 100.497 327.769 100.497 327.433V326.565H99.4892C98.6772 326.565 98.2712 326.84 98.2712 327.391V327.601C98.2712 327.872 98.3552 328.072 98.5232 328.203C98.6912 328.324 98.9292 328.385 99.2372 328.385Z" fill="white"/>
<path d="M106.72 329.659C106.001 329.659 105.455 329.477 105.082 329.113C104.718 328.749 104.536 328.217 104.536 327.517V323.919H103.5V322.309H104.018C104.298 322.309 104.489 322.244 104.592 322.113C104.695 321.973 104.746 321.777 104.746 321.525V320.321H106.608V322.309H108.064V323.919H106.608V328.049H107.952V329.659H106.72Z" fill="white"/>
<path d="M114.515 329.659C114.142 329.659 113.829 329.542 113.577 329.309C113.335 329.076 113.181 328.763 113.115 328.371H113.031C112.919 328.847 112.672 329.211 112.289 329.463C111.907 329.706 111.435 329.827 110.875 329.827C110.138 329.827 109.573 329.631 109.181 329.239C108.789 328.847 108.593 328.329 108.593 327.685C108.593 326.91 108.873 326.336 109.433 325.963C110.003 325.58 110.773 325.389 111.743 325.389H112.905V324.927C112.905 324.572 112.812 324.292 112.625 324.087C112.439 323.872 112.126 323.765 111.687 323.765C111.277 323.765 110.95 323.854 110.707 324.031C110.465 324.208 110.264 324.409 110.105 324.633L108.873 323.541C109.172 323.102 109.545 322.762 109.993 322.519C110.451 322.267 111.067 322.141 111.841 322.141C112.887 322.141 113.671 322.37 114.193 322.827C114.716 323.284 114.977 323.952 114.977 324.829V328.049H115.663V329.659H114.515ZM111.645 328.385C111.991 328.385 112.285 328.31 112.527 328.161C112.779 328.012 112.905 327.769 112.905 327.433V326.565H111.897C111.085 326.565 110.679 326.84 110.679 327.391V327.601C110.679 327.872 110.763 328.072 110.931 328.203C111.099 328.324 111.337 328.385 111.645 328.385Z" fill="white"/>
<rect x="140.5" y="276.5" width="89" height="65" rx="9.5" stroke="#2A91E9"/>
<path d="M189.333 307.45L195.833 300.95L189.333 294.45" stroke="#2A91E9" stroke-width="3" stroke-linecap="round" stroke-linejoin="round"/>
<path d="M180.667 294.45L174.167 300.95L180.667 307.45" stroke="#2A91E9" stroke-width="3" stroke-linecap="round" stroke-linejoin="round"/>
<path d="M169.804 318.95H172.024V323.51H172.114C172.254 323.1 172.499 322.745 172.849 322.445C173.199 322.145 173.684 321.995 174.304 321.995C175.114 321.995 175.724 322.265 176.134 322.805C176.554 323.345 176.764 324.115 176.764 325.115V330.05H174.544V325.295C174.544 324.785 174.464 324.41 174.304 324.17C174.144 323.92 173.859 323.795 173.449 323.795C173.269 323.795 173.094 323.82 172.924 323.87C172.754 323.91 172.599 323.98 172.459 324.08C172.329 324.18 172.224 324.305 172.144 324.455C172.064 324.595 172.024 324.76 172.024 324.95V330.05H169.804V318.95Z" fill="white"/>
<path d="M181.2 330.05C180.43 330.05 179.845 329.855 179.445 329.465C179.055 329.075 178.86 328.505 178.86 327.755V323.9H177.75V322.175H178.305C178.605 322.175 178.81 322.105 178.92 321.965C179.03 321.815 179.085 321.605 179.085 321.335V320.045H181.08V322.175H182.64V323.9H181.08V328.325H182.52V330.05H181.2Z" fill="white"/>
<path d="M183.882 330.05V322.175H186.102V323.51H186.192C186.332 323.09 186.572 322.735 186.912 322.445C187.252 322.145 187.717 321.995 188.307 321.995C188.847 321.995 189.307 322.13 189.687 322.4C190.067 322.67 190.342 323.065 190.512 323.585H190.557C190.627 323.365 190.732 323.16 190.872 322.97C191.022 322.77 191.202 322.6 191.412 322.46C191.622 322.32 191.857 322.21 192.117 322.13C192.377 322.04 192.657 321.995 192.957 321.995C193.717 321.995 194.297 322.265 194.697 322.805C195.107 323.345 195.312 324.115 195.312 325.115V330.05H193.092V325.295C193.092 324.295 192.732 323.795 192.012 323.795C191.682 323.795 191.382 323.89 191.112 324.08C190.842 324.27 190.707 324.56 190.707 324.95V330.05H188.487V325.295C188.487 324.295 188.127 323.795 187.407 323.795C187.247 323.795 187.087 323.82 186.927 323.87C186.777 323.91 186.637 323.98 186.507 324.08C186.387 324.18 186.287 324.305 186.207 324.455C186.137 324.595 186.102 324.76 186.102 324.95V330.05H183.882Z" fill="white"/>
<path d="M199.191 330.05C198.431 330.05 197.871 329.865 197.511 329.495C197.161 329.125 196.986 328.59 196.986 327.89V318.95H199.206V328.325H200.196V330.05H199.191Z" fill="white"/>
<rect x="250.5" y="276.5" width="89" height="65" rx="9.5" stroke="#2A91E9"/>
<g clip-path="url(#clip6)">
<path d="M292.833 301.966C293.299 302.588 293.892 303.102 294.574 303.475C295.255 303.847 296.009 304.069 296.784 304.124C297.559 304.18 298.336 304.068 299.064 303.796C299.792 303.525 300.453 303.1 301.002 302.551L304.252 299.301C305.238 298.279 305.784 296.911 305.772 295.491C305.76 294.07 305.19 292.712 304.186 291.708C303.181 290.703 301.823 290.134 300.403 290.121C298.982 290.109 297.614 290.655 296.593 291.642L294.729 293.494" stroke="#2A91E9" stroke-width="3" stroke-linecap="round" stroke-linejoin="round"/>
<path d="M297.167 299.799C296.701 299.177 296.108 298.663 295.426 298.29C294.745 297.918 293.991 297.696 293.216 297.641C292.441 297.585 291.664 297.697 290.936 297.969C290.208 298.24 289.547 298.665 288.998 299.214L285.748 302.464C284.762 303.486 284.216 304.854 284.228 306.274C284.24 307.694 284.81 309.053 285.814 310.057C286.819 311.062 288.177 311.631 289.597 311.644C291.018 311.656 292.386 311.11 293.407 310.123L295.26 308.271" stroke="#2A91E9" stroke-width="3" stroke-linecap="round" stroke-linejoin="round"/>
</g>
<path d="M281.109 330.118V319.648H283.389V328.093H287.379V330.118H281.109Z" fill="white"/>
<path d="M289.753 321.403C289.303 321.403 288.973 321.303 288.763 321.103C288.563 320.893 288.463 320.628 288.463 320.308V319.978C288.463 319.658 288.563 319.398 288.763 319.198C288.973 318.988 289.303 318.883 289.753 318.883C290.203 318.883 290.528 318.988 290.728 319.198C290.938 319.398 291.043 319.658 291.043 319.978V320.308C291.043 320.628 290.938 320.893 290.728 321.103C290.528 321.303 290.203 321.403 289.753 321.403ZM288.643 322.243H290.863V330.118H288.643V322.243Z" fill="white"/>
<path d="M292.635 330.118V322.243H294.855V323.578H294.945C295.085 323.168 295.33 322.813 295.68 322.513C296.03 322.213 296.515 322.063 297.135 322.063C297.945 322.063 298.555 322.333 298.965 322.873C299.385 323.413 299.595 324.183 299.595 325.183V330.118H297.375V325.363C297.375 324.853 297.295 324.478 297.135 324.238C296.975 323.988 296.69 323.863 296.28 323.863C296.1 323.863 295.925 323.888 295.755 323.938C295.585 323.978 295.43 324.048 295.29 324.148C295.16 324.248 295.055 324.373 294.975 324.523C294.895 324.663 294.855 324.828 294.855 325.018V330.118H292.635Z" fill="white"/>
<path d="M301.271 319.018H303.491V325.573H303.581L304.556 324.118L306.131 322.243H308.591L305.966 325.258L308.891 330.118H306.251L304.481 326.788L303.491 327.898V330.118H301.271V319.018Z" fill="white"/>
<rect x="360.5" y="276.5" width="89" height="65" rx="9.5" stroke="#2A91E9"/>
<path d="M414.306 301.203L406.538 308.97C406.337 309.172 406.098 309.331 405.835 309.44C405.572 309.549 405.29 309.606 405.005 309.606C404.721 309.606 404.439 309.549 404.176 309.44C403.913 309.331 403.674 309.172 403.473 308.97L394.167 299.675V288.842H405L414.306 298.148C414.709 298.554 414.936 299.103 414.936 299.675C414.936 300.248 414.709 300.797 414.306 301.203V301.203Z" stroke="#2A91E9" stroke-width="3" stroke-linecap="round" stroke-linejoin="round"/>
<path d="M399.583 294.258H399.593" stroke="#2A91E9" stroke-width="3" stroke-linecap="round" stroke-linejoin="round"/>
<path d="M394.967 319.7V328.145H392.687V319.7H389.852V317.675H397.802V319.7H394.967Z" fill="white"/>
<path d="M403.707 328.145C403.307 328.145 402.972 328.02 402.702 327.77C402.442 327.52 402.277 327.185 402.207 326.765H402.117C401.997 327.275 401.732 327.665 401.322 327.935C400.912 328.195 400.407 328.325 399.807 328.325C399.017 328.325 398.412 328.115 397.992 327.695C397.572 327.275 397.362 326.72 397.362 326.03C397.362 325.2 397.662 324.585 398.262 324.185C398.872 323.775 399.697 323.57 400.737 323.57H401.982V323.075C401.982 322.695 401.882 322.395 401.682 322.175C401.482 321.945 401.147 321.83 400.677 321.83C400.237 321.83 399.887 321.925 399.627 322.115C399.367 322.305 399.152 322.52 398.982 322.76L397.662 321.59C397.982 321.12 398.382 320.755 398.862 320.495C399.352 320.225 400.012 320.09 400.842 320.09C401.962 320.09 402.802 320.335 403.362 320.825C403.922 321.315 404.202 322.03 404.202 322.97V326.42H404.937V328.145H403.707ZM400.632 326.78C401.002 326.78 401.317 326.7 401.577 326.54C401.847 326.38 401.982 326.12 401.982 325.76V324.83H400.902C400.032 324.83 399.597 325.125 399.597 325.715V325.94C399.597 326.23 399.687 326.445 399.867 326.585C400.047 326.715 400.302 326.78 400.632 326.78Z" fill="white"/>
<path d="M413.417 328.715C413.417 329.135 413.342 329.505 413.192 329.825C413.052 330.145 412.817 330.415 412.487 330.635C412.157 330.865 411.717 331.035 411.167 331.145C410.627 331.265 409.957 331.325 409.157 331.325C408.477 331.325 407.897 331.28 407.417 331.19C406.947 331.11 406.562 330.99 406.262 330.83C405.972 330.68 405.757 330.49 405.617 330.26C405.487 330.04 405.422 329.785 405.422 329.495C405.422 329.055 405.552 328.71 405.812 328.46C406.072 328.21 406.432 328.055 406.892 327.995V327.83C406.512 327.76 406.227 327.6 406.037 327.35C405.847 327.09 405.752 326.79 405.752 326.45C405.752 326.24 405.792 326.06 405.872 325.91C405.962 325.75 406.072 325.615 406.202 325.505C406.342 325.385 406.502 325.29 406.682 325.22C406.862 325.15 407.042 325.095 407.222 325.055V324.995C406.742 324.775 406.387 324.475 406.157 324.095C405.927 323.705 405.812 323.255 405.812 322.745C405.812 321.945 406.087 321.305 406.637 320.825C407.197 320.335 408.047 320.09 409.187 320.09C409.707 320.09 410.152 320.14 410.522 320.24V319.94C410.522 319.52 410.622 319.22 410.822 319.04C411.032 318.85 411.327 318.755 411.707 318.755H412.952V320.405H411.212V320.495C411.672 320.715 412.012 321.02 412.232 321.41C412.452 321.79 412.562 322.235 412.562 322.745C412.562 323.535 412.282 324.17 411.722 324.65C411.172 325.12 410.327 325.355 409.187 325.355C408.677 325.355 408.212 325.3 407.792 325.19C407.562 325.34 407.447 325.55 407.447 325.82C407.447 326.01 407.517 326.16 407.657 326.27C407.807 326.37 408.052 326.42 408.392 326.42H410.672C411.632 326.42 412.327 326.62 412.757 327.02C413.197 327.42 413.417 327.985 413.417 328.715ZM411.332 329.015C411.332 328.785 411.242 328.61 411.062 328.49C410.882 328.37 410.567 328.31 410.117 328.31H407.417C407.317 328.41 407.242 328.52 407.192 328.64C407.152 328.77 407.132 328.895 407.132 329.015C407.132 329.305 407.257 329.515 407.507 329.645C407.757 329.785 408.182 329.855 408.782 329.855H409.682C410.282 329.855 410.707 329.785 410.957 329.645C411.207 329.515 411.332 329.305 411.332 329.015ZM409.187 323.9C409.627 323.9 409.952 323.81 410.162 323.63C410.382 323.44 410.492 323.17 410.492 322.82V322.64C410.492 322.29 410.382 322.025 410.162 321.845C409.952 321.655 409.627 321.56 409.187 321.56C408.747 321.56 408.417 321.655 408.197 321.845C407.987 322.025 407.882 322.29 407.882 322.64V322.82C407.882 323.17 407.987 323.44 408.197 323.63C408.417 323.81 408.747 323.9 409.187 323.9Z" fill="white"/>
<path d="M416.773 328.325C416.013 328.325 415.373 328.205 414.853 327.965C414.333 327.715 413.868 327.365 413.458 326.915L414.763 325.595C415.043 325.905 415.353 326.15 415.693 326.33C416.033 326.51 416.418 326.6 416.848 326.6C417.288 326.6 417.593 326.535 417.763 326.405C417.933 326.265 418.018 326.08 418.018 325.85C418.018 325.48 417.753 325.26 417.223 325.19L416.368 325.085C414.598 324.865 413.713 324.055 413.713 322.655C413.713 322.275 413.783 321.93 413.923 321.62C414.073 321.3 414.278 321.03 414.538 320.81C414.808 320.58 415.128 320.405 415.498 320.285C415.878 320.155 416.303 320.09 416.773 320.09C417.183 320.09 417.543 320.12 417.853 320.18C418.173 320.23 418.453 320.31 418.693 320.42C418.943 320.52 419.168 320.65 419.368 320.81C419.578 320.96 419.783 321.13 419.983 321.32L418.708 322.625C418.458 322.375 418.173 322.18 417.853 322.04C417.543 321.89 417.223 321.815 416.893 321.815C416.513 321.815 416.243 321.875 416.083 321.995C415.923 322.115 415.843 322.275 415.843 322.475C415.843 322.685 415.898 322.85 416.008 322.97C416.128 323.08 416.348 323.16 416.668 323.21L417.553 323.33C419.283 323.56 420.148 324.35 420.148 325.7C420.148 326.08 420.068 326.43 419.908 326.75C419.748 327.07 419.518 327.35 419.218 327.59C418.928 327.82 418.573 328 418.153 328.13C417.743 328.26 417.283 328.325 416.773 328.325Z" fill="white"/>
<path d="M0 361H460.983C465.942 361 470 359.112 470 356.805V5.19458C470 2.88756 465.942 1 460.983 1H0" stroke="white" stroke-miterlimit="10"/>
<defs>
<clipPath id="clip0">
<rect width="26" height="26" fill="white" transform="translate(62 117.792)"/>
</clipPath>
<clipPath id="clip1">
<rect width="26" height="26" fill="white" transform="translate(62 202.792)"/>
</clipPath>
<clipPath id="clip2">
<rect width="26" height="26" fill="white" transform="translate(172 202.792)"/>
</clipPath>
<clipPath id="clip3">
<rect width="26" height="26" fill="white" transform="translate(282 203.175)"/>
</clipPath>
<clipPath id="clip4">
<rect width="26" height="26" fill="white" transform="translate(392 202.792)"/>
</clipPath>
<clipPath id="clip5">
<rect width="26" height="26" fill="white" transform="translate(62 288.173)"/>
</clipPath>
<clipPath id="clip6">
<rect width="26" height="26" fill="white" transform="translate(282 287.883)"/>
</clipPath>
</defs>
</svg>
