<svg width="471" height="362" viewBox="0 0 471 362" fill="none" xmlns="http://www.w3.org/2000/svg">
<path d="M460.983 361H9.01679C4.05755 361 0 359.112 0 356.805V5.19458C0 2.88756 4.05755 1 9.01679 1H460.983C465.942 1 470 2.88756 470 5.19458V356.805C470 359.112 465.942 361 460.983 361Z" fill="#0F1015"/>
<rect x="30.5" y="21.5" width="89" height="65" rx="9.5" stroke="#2A91E9"/>
<path d="M69.8887 52.8999L73.252 52.4897V39.0093H69.8477V36.7261L77.2305 35.3862V52.4897L80.5938 52.8999V55.2925H69.8887V52.8999Z" fill="#2A91E9"/>
<path d="M68.8055 71.5085V70.1825C68.9485 70.3125 69.0655 70.4425 69.1565 70.5465C69.2995 70.3645 69.4295 70.1695 69.5595 69.9615C69.7545 70.6765 69.9885 71.3655 70.2615 71.9895C69.7285 72.6915 69.0525 73.2765 68.1815 73.7185C67.9215 73.5495 67.6225 73.3545 67.3105 73.1725C67.5575 72.7045 67.7525 72.1585 67.8825 71.5085H68.8055ZM65.1525 71.5085H66.1145C66.0235 71.8335 65.9065 72.1195 65.7765 72.3665C65.4905 72.2365 65.1915 72.1065 64.8925 71.9895L65.1525 71.5085ZM71.8345 67.3745C71.7305 68.2455 71.5745 69.0385 71.3535 69.7535C71.1065 69.0125 70.9115 68.2065 70.7685 67.3745H71.8345ZM66.4005 65.0215L67.2195 65.3855H66.4005V65.0215ZM74.4735 67.3745V65.6325H71.1845C71.3405 64.9565 71.4575 64.2675 71.5615 63.5655L69.6505 63.2925C69.3775 65.6325 68.7665 67.8815 67.6745 69.1945C67.9215 69.3765 68.2985 69.7015 68.6105 70.0005H65.9455L66.1665 69.5455L65.3605 69.3765H66.4005V68.0115C66.8295 68.3755 67.2455 68.7395 67.5055 68.9995L68.4935 67.7125C68.2595 67.5565 67.5705 67.1665 66.9985 66.8545H68.7665V65.3855H67.7135C68.0125 65.0215 68.3765 64.5145 68.7665 64.0205L67.1805 63.4095C66.9985 63.8775 66.6735 64.5405 66.4005 64.9955V63.2925H64.6715V65.3855H63.8525L64.6325 65.0475C64.5285 64.5925 64.2035 63.9425 63.8785 63.4615L62.5395 64.0205C62.7735 64.4365 63.0075 64.9695 63.1375 65.3855H62.3185V66.8545H64.1125C63.5015 67.4265 62.7085 67.9465 61.9805 68.2325C62.3185 68.5705 62.7215 69.1945 62.9295 69.5975C63.5015 69.2725 64.1255 68.8175 64.6715 68.3105V69.2335L64.4245 69.1815C64.3075 69.4415 64.1775 69.7145 64.0345 70.0005H62.1235V71.5085H63.2545C62.9425 72.0935 62.6175 72.6395 62.3445 73.0815L63.9955 73.5625L64.0995 73.3805C64.2425 73.4455 64.3725 73.5105 64.5155 73.5755C63.9175 73.8615 63.1635 74.0175 62.1885 74.1215C62.5005 74.4985 62.8255 75.1485 62.9295 75.6815C64.3205 75.4085 65.3605 75.0575 66.1405 74.5115C66.6345 74.8365 67.0765 75.1615 67.4015 75.4605L68.1425 74.7065C68.3765 75.0705 68.5975 75.4605 68.7015 75.7075C69.7545 75.1875 70.6125 74.5505 71.3015 73.7835C71.8475 74.5115 72.5235 75.1355 73.3425 75.6295C73.6285 75.1095 74.2265 74.3555 74.6555 73.9785C73.7585 73.5235 73.0435 72.8605 72.4715 72.0415C73.1215 70.7545 73.5245 69.2075 73.7715 67.3745H74.4735Z" fill="white"/>
<path d="M85.6925 68.2975H83.9375V67.8555H85.6925V68.2975ZM85.6925 69.9875H83.9375V69.5325H85.6925V69.9875ZM85.6925 71.6645H83.9375V71.2225H85.6925V71.6645ZM83.3265 66.5295H82.1955V72.9905H87.5125V66.5295H85.0815L85.1595 66.0095H87.9545V64.4105H85.3415C85.3805 64.0725 85.4065 63.7345 85.4325 63.4095L83.5475 63.3185C83.5345 63.6695 83.5215 64.0335 83.4955 64.4105H80.2845V66.0095H83.3785L83.3265 66.5295ZM78.3475 63.3575C77.7235 65.1515 76.6445 66.9455 75.5265 68.0765C75.8385 68.5445 76.3455 69.5975 76.5145 70.0655C76.7225 69.8315 76.9435 69.5845 77.1515 69.3245V75.6425H78.9455V66.5295C79.4005 65.6715 79.8035 64.7745 80.1285 63.9165L78.3475 63.3575ZM88.0195 73.4715H81.6105V67.3485H79.8685V75.6555H81.6105V75.0835H88.0195V73.4715Z" fill="white"/>
<rect x="140.5" y="21.5" width="89" height="65" rx="9.5" stroke="#2A91E9"/>
<path d="M176.333 40.6833V37.4333H193.667V40.6833" stroke="#2A91E9" stroke-width="3" stroke-linecap="round" stroke-linejoin="round"/>
<path d="M181.75 54.7668H188.25" stroke="#2A91E9" stroke-width="3" stroke-linecap="round" stroke-linejoin="round"/>
<path d="M185 37.4333V54.7667" stroke="#2A91E9" stroke-width="3" stroke-linecap="round" stroke-linejoin="round"/>
<path d="M153.22 66.4281C153.676 66.4281 154.168 66.4521 154.612 66.4761V64.6161C154.168 64.6761 153.664 64.7121 153.22 64.7121H148.42C148.012 64.7121 147.436 64.6761 147.028 64.6161V66.4761C147.424 66.4521 148 66.4281 148.42 66.4281H153.22ZM146.86 67.7961C146.488 67.7961 146.02 67.7601 145.648 67.7121V69.6081C145.984 69.5841 146.512 69.5601 146.86 69.5601H149.992C149.92 70.4961 149.692 71.3241 149.224 72.0201C148.744 72.6921 147.904 73.3761 147.1 73.6761L148.804 74.9001C149.896 74.3481 150.832 73.3761 151.24 72.5241C151.648 71.7081 151.948 70.7601 152.032 69.5601H154.72C155.08 69.5601 155.584 69.5721 155.908 69.5961V67.7121C155.572 67.7721 154.972 67.7961 154.72 67.7961H146.86Z" fill="white"/>
<path d="M166.744 68.7561C166.396 68.8521 165.892 68.9721 165.424 69.0681C164.92 69.1641 164.02 69.3201 163.024 69.4881L162.712 67.8441L164.884 67.4961C165.268 67.4481 165.82 67.3641 166.132 67.3401L165.784 65.4441C165.448 65.5401 164.908 65.6601 164.512 65.7321C164.128 65.8041 163.312 65.9481 162.388 66.0921C162.304 65.6241 162.232 65.2641 162.208 65.0841C162.148 64.7841 162.112 64.3401 162.076 64.1001L160.024 64.4241C160.12 64.7241 160.204 65.0241 160.288 65.3841L160.48 66.3801C159.496 66.5361 158.632 66.6561 158.248 66.7041C157.876 66.7521 157.492 66.7761 157.072 66.8001L157.456 68.7801C157.864 68.6721 158.2 68.5881 158.632 68.5041C158.956 68.4441 159.82 68.3001 160.816 68.1441L161.128 69.7881C160 69.9681 158.98 70.1241 158.452 70.2081C158.044 70.2681 157.444 70.3401 157.108 70.3521L157.516 72.2721C157.792 72.2001 158.248 72.1161 158.788 72.0201C159.28 71.9241 160.312 71.7441 161.452 71.5521C161.62 72.4641 161.764 73.2201 161.824 73.5921C161.896 73.9521 161.92 74.3841 161.98 74.8521L164.068 74.4921C163.96 74.0721 163.84 73.6281 163.756 73.2681C163.672 72.8601 163.528 72.1161 163.36 71.2401C164.344 71.0841 165.232 70.9401 165.76 70.8561C166.216 70.7841 166.768 70.6881 167.128 70.6641L166.744 68.7561Z" fill="white"/>
<path d="M176.184 64.9281C175.908 65.0241 175.344 65.1081 174.744 65.1081H170.736C170.388 65.1081 169.62 65.0721 169.2 65.0121V67.0761C169.536 67.0521 170.196 66.9801 170.736 66.9801H174.468C174.216 67.7481 173.568 68.8041 172.788 69.6921C171.72 70.8801 169.824 72.3561 167.88 73.0641L169.392 74.6361C170.964 73.8801 172.536 72.6681 173.796 71.3601C174.876 72.4041 175.896 73.5561 176.664 74.6481L178.332 73.1961C177.672 72.3801 176.232 70.8561 175.068 69.8481C175.848 68.7681 176.484 67.5681 176.88 66.6801C177.012 66.3801 177.264 65.9601 177.372 65.8041L176.184 64.9281Z" fill="white"/>
<path d="M189.108 69.4041C188.1 68.9121 185.772 68.0601 184.152 67.5921V65.9481C184.152 65.3721 184.224 64.8441 184.272 64.3881H182.004C182.1 64.8441 182.148 65.4681 182.148 65.9481V72.8001C182.148 73.2921 182.088 74.0961 182.004 74.6121H184.284C184.224 74.0721 184.152 73.1241 184.152 72.8001V69.7161C185.424 70.1721 187.068 70.8081 188.28 71.4321L189.108 69.4041Z" fill="white"/>
<path d="M196.92 71.9001V67.3521H199.272C199.62 67.3521 200.064 67.3761 200.448 67.4121V65.4201C200.076 65.4681 199.632 65.5041 199.272 65.5041H192.768C192.396 65.5041 191.868 65.4681 191.556 65.4201V67.4121C191.868 67.3761 192.396 67.3521 192.768 67.3521H194.88V71.9001H192.012C191.628 71.9001 191.16 71.8641 190.764 71.7921V73.8921C191.184 73.8441 191.64 73.8321 192.012 73.8321H199.92C200.22 73.8321 200.76 73.8441 201.108 73.8921V71.7921C200.796 71.8401 200.376 71.9001 199.92 71.9001H196.92Z" fill="white"/>
<path d="M203.496 64.6761C203.532 64.9761 203.544 65.3961 203.544 65.6241V69.6921C203.544 70.0641 203.496 70.5801 203.484 70.8201H205.644C205.62 70.5081 205.596 70.0041 205.596 69.7041V65.6241C205.596 65.1921 205.62 64.9761 205.644 64.6761H203.496ZM209.004 64.5681C209.052 64.9281 209.088 65.3361 209.088 65.8641V68.3481C209.088 70.0041 208.92 70.8561 208.116 71.7081C207.396 72.4521 206.412 72.8961 205.164 73.1721L206.688 74.7801C207.564 74.5041 208.824 73.8921 209.628 73.0521C210.54 72.0921 211.104 70.8921 211.104 68.4801V65.8641C211.104 65.3361 211.128 64.9281 211.152 64.5681H209.004Z" fill="white"/>
<path d="M217.296 67.5081C217.368 67.9401 217.392 68.2881 217.392 68.7081C217.392 70.6641 217.092 71.6841 215.76 72.6921C215.256 73.0761 214.812 73.2801 214.392 73.4241L216.084 74.8041C219.468 72.9201 219.408 70.3281 219.408 67.5081H217.296ZM223.2 64.8081C222.948 64.8801 222.156 64.9281 221.76 64.9281H215.532C215.004 64.9281 214.5 64.8681 214.008 64.7961V66.8001C214.632 66.7401 215.004 66.7041 215.532 66.7041H221.46C221.196 67.2081 220.368 68.1201 219.48 68.6841L220.98 69.8841C222.06 69.1041 223.2 67.6041 223.812 66.5961C223.932 66.4041 224.208 66.0561 224.352 65.8761L223.2 64.8081Z" fill="white"/>
<rect x="250.5" y="21.5" width="89" height="65" rx="9.5" stroke="#2A91E9"/>
<path d="M286.333 40.2332V36.9832H303.667V40.2332" stroke="#2A91E9" stroke-width="3" stroke-linecap="round" stroke-linejoin="round"/>
<path d="M291.75 54.3167H298.25" stroke="#2A91E9" stroke-width="3" stroke-linecap="round" stroke-linejoin="round"/>
<path d="M295 36.9832V54.3165" stroke="#2A91E9" stroke-width="3" stroke-linecap="round" stroke-linejoin="round"/>
<path d="M277.712 66.1719C278.206 66.1719 278.739 66.1979 279.22 66.2239V64.2089C278.739 64.2739 278.193 64.3129 277.712 64.3129H272.512C272.07 64.3129 271.446 64.2739 271.004 64.2089V66.2239C271.433 66.1979 272.057 66.1719 272.512 66.1719H277.712ZM270.822 67.6539C270.419 67.6539 269.912 67.6149 269.509 67.5629V69.6169C269.873 69.5909 270.445 69.5649 270.822 69.5649H274.215C274.137 70.5789 273.89 71.4759 273.383 72.2299C272.863 72.9579 271.953 73.6989 271.082 74.0239L272.928 75.3499C274.111 74.7519 275.125 73.6989 275.567 72.7759C276.009 71.8919 276.334 70.8649 276.425 69.5649H279.337C279.727 69.5649 280.273 69.5779 280.624 69.6039V67.5629C280.26 67.6279 279.61 67.6539 279.337 67.6539H270.822Z" fill="white"/>
<path d="M293.663 68.6939C293.286 68.7979 292.74 68.9279 292.233 69.0319C291.687 69.1359 290.712 69.3049 289.633 69.4869L289.295 67.7059L291.648 67.3289C292.064 67.2769 292.662 67.1859 293 67.1599L292.623 65.1059C292.259 65.2099 291.674 65.3399 291.245 65.4179C290.829 65.4959 289.945 65.6519 288.944 65.8079C288.853 65.3009 288.775 64.9109 288.749 64.7159C288.684 64.3909 288.645 63.9099 288.606 63.6499L286.383 64.0009C286.487 64.3259 286.578 64.6509 286.669 65.0409L286.877 66.1199C285.811 66.2889 284.875 66.4189 284.459 66.4709C284.056 66.5229 283.64 66.5489 283.185 66.5749L283.601 68.7199C284.043 68.6029 284.407 68.5119 284.875 68.4209C285.226 68.3559 286.162 68.1999 287.241 68.0309L287.579 69.8119C286.357 70.0069 285.252 70.1759 284.68 70.2669C284.238 70.3319 283.588 70.4099 283.224 70.4229L283.666 72.5029C283.965 72.4249 284.459 72.3339 285.044 72.2299C285.577 72.1259 286.695 71.9309 287.93 71.7229C288.112 72.7109 288.268 73.5299 288.333 73.9329C288.411 74.3229 288.437 74.7909 288.502 75.2979L290.764 74.9079C290.647 74.4529 290.517 73.9719 290.426 73.5819C290.335 73.1399 290.179 72.3339 289.997 71.3849C291.063 71.2159 292.025 71.0599 292.597 70.9689C293.091 70.8909 293.689 70.7869 294.079 70.7609L293.663 68.6939Z" fill="white"/>
<path d="M305.19 64.5469C304.891 64.6509 304.28 64.7419 303.63 64.7419H299.288C298.911 64.7419 298.079 64.7029 297.624 64.6379V66.8739C297.988 66.8479 298.703 66.7699 299.288 66.7699H303.331C303.058 67.6019 302.356 68.7459 301.511 69.7079C300.354 70.9949 298.3 72.5939 296.194 73.3609L297.832 75.0639C299.535 74.2449 301.238 72.9319 302.603 71.5149C303.773 72.6459 304.878 73.8939 305.71 75.0769L307.517 73.5039C306.802 72.6199 305.242 70.9689 303.981 69.8769C304.826 68.7069 305.515 67.4069 305.944 66.4449C306.087 66.1199 306.36 65.6649 306.477 65.4959L305.19 64.5469Z" fill="white"/>
<path d="M320.491 69.3959C319.399 68.8629 316.877 67.9399 315.122 67.4329V65.6519C315.122 65.0279 315.2 64.4559 315.252 63.9619H312.795C312.899 64.4559 312.951 65.1319 312.951 65.6519V73.0749C312.951 73.6079 312.886 74.4789 312.795 75.0379H315.265C315.2 74.4529 315.122 73.4259 315.122 73.0749V69.7339C316.5 70.2279 318.281 70.9169 319.594 71.5929L320.491 69.3959Z" fill="white"/>
<rect x="360.5" y="21.5" width="89" height="65" rx="9.5" stroke="#2A91E9"/>
<path d="M396.333 40.7373V37.4873H413.667V40.7373" stroke="#2A91E9" stroke-width="3" stroke-linecap="round" stroke-linejoin="round"/>
<path d="M401.75 54.8208H408.25" stroke="#2A91E9" stroke-width="3" stroke-linecap="round" stroke-linejoin="round"/>
<path d="M405 37.4873V54.8206" stroke="#2A91E9" stroke-width="3" stroke-linecap="round" stroke-linejoin="round"/>
<path d="M371.712 66.8711C372.13 66.8711 372.581 66.8931 372.988 66.9151V65.2101C372.581 65.2651 372.119 65.2981 371.712 65.2981H367.312C366.938 65.2981 366.41 65.2651 366.036 65.2101V66.9151C366.399 66.8931 366.927 66.8711 367.312 66.8711H371.712ZM365.882 68.1251C365.541 68.1251 365.112 68.0921 364.771 68.0481V69.7861C365.079 69.7641 365.563 69.7421 365.882 69.7421H368.753C368.687 70.6001 368.478 71.3591 368.049 71.9971C367.609 72.6131 366.839 73.2401 366.102 73.5151L367.664 74.6371C368.665 74.1311 369.523 73.2401 369.897 72.4591C370.271 71.7111 370.546 70.8421 370.623 69.7421H373.087C373.417 69.7421 373.879 69.7531 374.176 69.7751V68.0481C373.868 68.1031 373.318 68.1251 373.087 68.1251H365.882Z" fill="white"/>
<path d="M383.999 69.0051C383.68 69.0931 383.218 69.2031 382.789 69.2911C382.327 69.3791 381.502 69.5221 380.589 69.6761L380.303 68.1691L382.294 67.8501C382.646 67.8061 383.152 67.7291 383.438 67.7071L383.119 65.9691C382.811 66.0571 382.316 66.1671 381.953 66.2331C381.601 66.2991 380.853 66.4311 380.006 66.5631C379.929 66.1341 379.863 65.8041 379.841 65.6391C379.786 65.3641 379.753 64.9571 379.72 64.7371L377.839 65.0341C377.927 65.3091 378.004 65.5841 378.081 65.9141L378.257 66.8271C377.355 66.9701 376.563 67.0801 376.211 67.1241C375.87 67.1681 375.518 67.1901 375.133 67.2121L375.485 69.0271C375.859 68.9281 376.167 68.8511 376.563 68.7741C376.86 68.7191 377.652 68.5871 378.565 68.4441L378.851 69.9511C377.817 70.1161 376.882 70.2591 376.398 70.3361C376.024 70.3911 375.474 70.4571 375.166 70.4681L375.54 72.2281C375.793 72.1621 376.211 72.0851 376.706 71.9971C377.157 71.9091 378.103 71.7441 379.148 71.5681C379.302 72.4041 379.434 73.0971 379.489 73.4381C379.555 73.7681 379.577 74.1641 379.632 74.5931L381.546 74.2631C381.447 73.8781 381.337 73.4711 381.26 73.1411C381.183 72.7671 381.051 72.0851 380.897 71.2821C381.799 71.1391 382.613 71.0071 383.097 70.9301C383.515 70.8641 384.021 70.7761 384.351 70.7541L383.999 69.0051Z" fill="white"/>
<path d="M392.543 65.4961C392.29 65.5841 391.773 65.6611 391.223 65.6611H387.549C387.23 65.6611 386.526 65.6281 386.141 65.5731V67.4651C386.449 67.4431 387.054 67.3771 387.549 67.3771H390.97C390.739 68.0811 390.145 69.0491 389.43 69.8631C388.451 70.9521 386.713 72.3051 384.931 72.9541L386.317 74.3951C387.758 73.7021 389.199 72.5911 390.354 71.3921C391.344 72.3491 392.279 73.4051 392.983 74.4061L394.512 73.0751C393.907 72.3271 392.587 70.9301 391.52 70.0061C392.235 69.0161 392.818 67.9161 393.181 67.1021C393.302 66.8271 393.533 66.4421 393.632 66.2991L392.543 65.4961Z" fill="white"/>
<path d="M404.28 69.5991C403.356 69.1481 401.222 68.3671 399.737 67.9381V66.4311C399.737 65.9031 399.803 65.4191 399.847 65.0011H397.768C397.856 65.4191 397.9 65.9911 397.9 66.4311V72.7121C397.9 73.1631 397.845 73.9001 397.768 74.3731H399.858C399.803 73.8781 399.737 73.0091 399.737 72.7121V69.8851C400.903 70.3031 402.41 70.8861 403.521 71.4581L404.28 69.5991Z" fill="white"/>
<path d="M411.331 71.8871V67.7181H413.487C413.806 67.7181 414.213 67.7401 414.565 67.7731V65.9471C414.224 65.9911 413.817 66.0241 413.487 66.0241H407.525C407.184 66.0241 406.7 65.9911 406.414 65.9471V67.7731C406.7 67.7401 407.184 67.7181 407.525 67.7181H409.461V71.8871H406.832C406.48 71.8871 406.051 71.8541 405.688 71.7881V73.7131C406.073 73.6691 406.491 73.6581 406.832 73.6581H414.081C414.356 73.6581 414.851 73.6691 415.17 73.7131V71.7881C414.884 71.8321 414.499 71.8871 414.081 71.8871H411.331Z" fill="white"/>
<path d="M426.203 65.6501C426.016 65.2761 425.62 64.5721 425.334 64.1541L424.3 64.5721C424.597 64.9901 424.949 65.6391 425.169 66.0901L426.203 65.6501ZM422.001 67.0251C422.419 67.0251 422.87 67.0471 423.277 67.0691V65.6391C423.464 65.9801 423.651 66.3431 423.794 66.6291L424.839 66.1891C424.641 65.8041 424.256 65.0891 423.981 64.6821L422.947 65.1001C423.002 65.1881 423.068 65.2871 423.123 65.3861C422.76 65.4301 422.364 65.4521 422.001 65.4521H418.514C418.14 65.4521 417.612 65.4191 417.238 65.3641V67.0691C417.601 67.0471 418.129 67.0251 418.514 67.0251H422.001ZM417.095 68.2791C416.754 68.2791 416.325 68.2461 415.984 68.2021V69.9401C416.292 69.9181 416.776 69.8961 417.095 69.8961H419.966C419.9 70.7541 419.691 71.5131 419.262 72.1511C418.822 72.7671 418.052 73.3941 417.315 73.6691L418.877 74.7911C419.878 74.2851 420.736 73.3941 421.11 72.6131C421.484 71.8651 421.759 70.9961 421.836 69.8961H424.3C424.63 69.8961 425.092 69.9071 425.389 69.9291V68.2021C425.081 68.2571 424.531 68.2791 424.3 68.2791H417.095Z" fill="white"/>
<path d="M432.656 66.7611C432.106 67.4871 430.962 68.4001 429.829 69.0601C428.971 69.5661 427.332 70.2481 425.902 70.5451L426.793 72.0741C427.596 71.8761 428.74 71.4361 429.697 70.9741V73.5261C429.697 73.9441 429.664 74.6041 429.631 74.8461H431.611C431.534 74.6041 431.523 73.9441 431.523 73.5261V69.9731C432.524 69.3241 433.47 68.5761 433.987 68.0041L432.656 66.7611Z" fill="white"/>
<path d="M443.887 65.9691C443.601 66.0571 443.161 66.1121 442.798 66.1121H440.972C441.137 65.8261 441.39 65.3971 441.632 65.0561L439.707 64.4621C439.586 64.8911 439.322 65.4631 439.124 65.7711C438.541 66.6951 437.584 68.1251 435.637 69.3241L437.078 70.4351C438.112 69.7201 439.168 68.6641 439.971 67.6191H442.798C442.666 68.1691 442.27 68.9501 441.808 69.6321C441.148 69.2471 440.477 68.8841 439.938 68.5981L438.805 69.8741C439.322 70.1711 439.982 70.5781 440.653 71.0181C439.795 71.8761 438.629 72.7231 436.693 73.3281L438.244 74.6701C439.949 74.0101 441.181 73.0751 442.149 72.0411C442.545 72.3271 442.908 72.6021 443.172 72.8331L444.382 71.2601C444.107 71.0621 443.744 70.8201 443.337 70.5561C444.041 69.5331 444.525 68.4771 444.8 67.7071C444.921 67.3771 445.086 67.0471 445.229 66.8051L443.887 65.9691Z" fill="white"/>
<rect x="30.5" y="106.5" width="89" height="65" rx="9.5" stroke="#2A91E9"/>
<g clip-path="url(#clip0)">
<path d="M75 135.541C77.3932 135.541 79.3333 133.601 79.3333 131.208C79.3333 128.815 77.3932 126.875 75 126.875C72.6068 126.875 70.6667 128.815 70.6667 131.208C70.6667 133.601 72.6068 135.541 75 135.541Z" stroke="#2A91E9" stroke-width="3" stroke-linecap="round" stroke-linejoin="round"/>
<path d="M79.3333 126.875V132.291C79.3333 133.153 79.6757 133.98 80.2852 134.589C80.8947 135.199 81.7214 135.541 82.5833 135.541C83.4453 135.541 84.2719 135.199 84.8814 134.589C85.4909 133.98 85.8333 133.153 85.8333 132.291V131.208C85.8332 128.763 85.0059 126.39 83.486 124.474C81.9662 122.559 79.8431 121.214 77.462 120.659C75.081 120.103 72.5819 120.369 70.3713 121.414C68.1607 122.459 66.3684 124.22 65.286 126.413C64.2036 128.605 63.8947 131.099 64.4095 133.49C64.9243 135.88 66.2326 138.026 68.1215 139.578C70.0105 141.13 72.3691 141.998 74.8137 142.04C77.2584 142.082 79.6455 141.296 81.5867 139.81" stroke="#2A91E9" stroke-width="3" stroke-linecap="round" stroke-linejoin="round"/>
</g>
<path d="M42.822 149.352C42.762 149.688 42.63 150.228 42.51 150.576C42.21 151.452 41.862 152.304 41.346 153.168C40.374 152.472 39.21 151.692 38.298 151.128L37.038 152.628C38.286 153.384 39.342 154.164 40.17 154.824C38.994 156.228 37.614 157.32 35.718 158.232L37.41 159.744C39.39 158.628 40.722 157.356 41.742 156.132C42.654 156.936 43.47 157.74 44.286 158.7L45.798 157.008C45.018 156.18 44.034 155.268 42.99 154.428C43.65 153.36 44.154 152.22 44.502 151.32C44.622 151.02 44.886 150.432 45.066 150.132L42.822 149.352Z" fill="white"/>
<path d="M47.118 155.52C47.61 155.484 48.51 155.448 49.194 155.448H55.566C56.058 155.448 56.73 155.508 57.042 155.52V153.228C56.694 153.252 56.106 153.312 55.566 153.312H49.194C48.606 153.312 47.598 153.264 47.118 153.228V155.52Z" fill="white"/>
<path d="M59.562 159.648C60.606 158.7 61.338 157.512 61.71 156.12C62.022 154.908 62.058 152.4 62.058 150.924C62.058 150.348 62.154 149.712 62.154 149.712H60.018C60.102 150.036 60.15 150.384 60.15 150.948C60.15 152.448 60.138 154.656 59.802 155.64C59.49 156.588 58.878 157.716 57.786 158.472L59.562 159.648ZM64.59 159.708C64.758 159.588 64.89 159.456 65.166 159.312C66.498 158.628 68.25 157.296 69.222 156.06L68.106 154.452C67.362 155.508 66.342 156.372 65.442 156.744V150.84C65.442 150.252 65.538 149.712 65.538 149.712H63.378C63.378 149.712 63.486 150.24 63.486 150.828V157.716C63.486 158.088 63.438 158.46 63.378 158.712L64.59 159.708Z" fill="white"/>
<path d="M73.446 152.496C73.518 152.928 73.542 153.276 73.542 153.696C73.542 155.652 73.242 156.672 71.91 157.68C71.406 158.064 70.962 158.268 70.542 158.412L72.234 159.792C75.618 157.908 75.558 155.316 75.558 152.496H73.446ZM79.35 149.796C79.098 149.868 78.306 149.916 77.91 149.916H71.682C71.154 149.916 70.65 149.856 70.158 149.784V151.788C70.782 151.728 71.154 151.692 71.682 151.692H77.61C77.346 152.196 76.518 153.108 75.63 153.672L77.13 154.872C78.21 154.092 79.35 152.592 79.962 151.584C80.082 151.392 80.358 151.044 80.502 150.864L79.35 149.796Z" fill="white"/>
<path d="M91.41 150.972C91.146 150.444 90.654 149.724 90.282 149.208L89.094 149.76C89.562 150.396 89.79 150.732 90.21 151.56L91.41 150.972ZM89.73 151.716C89.466 151.176 88.998 150.432 88.638 149.892L87.438 150.396C87.906 151.056 88.11 151.428 88.494 152.256L89.73 151.716ZM85.542 151.116C85.542 150.54 85.614 150.012 85.662 149.556H83.394C83.49 150.012 83.538 150.636 83.538 151.116V157.968C83.538 158.46 83.478 159.264 83.394 159.78H85.674C85.614 159.24 85.542 158.292 85.542 157.968V154.884C86.814 155.34 88.458 155.976 89.67 156.6L90.498 154.572C89.49 154.08 87.162 153.228 85.542 152.76V151.116Z" fill="white"/>
<path d="M95.226 159.66C95.562 159.432 95.874 159.336 96.054 159.276C98.79 158.316 101.298 156.912 102.99 154.932L101.958 153.276C100.398 155.124 97.782 156.636 96.018 157.176V151.26C96.018 150.732 96.066 150.3 96.15 149.748H93.87C93.954 150.144 94.026 150.732 94.026 151.26V157.572C94.026 157.872 94.014 158.1 93.846 158.46L95.226 159.66Z" fill="white"/>
<path d="M112.134 149.916C111.858 150.012 111.294 150.096 110.694 150.096H106.686C106.338 150.096 105.57 150.06 105.15 150V152.064C105.486 152.04 106.146 151.968 106.686 151.968H110.418C110.166 152.736 109.518 153.792 108.738 154.68C107.67 155.868 105.774 157.344 103.83 158.052L105.342 159.624C106.914 158.868 108.486 157.656 109.746 156.348C110.826 157.392 111.846 158.544 112.614 159.636L114.282 158.184C113.622 157.368 112.182 155.844 111.018 154.836C111.798 153.756 112.434 152.556 112.83 151.668C112.962 151.368 113.214 150.948 113.322 150.792L112.134 149.916Z" fill="white"/>
<rect x="140.5" y="106.5" width="89" height="65" rx="9.5" stroke="#2A91E9"/>
<path d="M181.75 129.209L185 132.459L195.833 121.626" stroke="#2A91E9" stroke-width="3" stroke-linecap="round" stroke-linejoin="round"/>
<path d="M194.75 130.292V137.876C194.75 138.45 194.522 139.002 194.115 139.408C193.709 139.814 193.158 140.042 192.583 140.042H177.417C176.842 140.042 176.291 139.814 175.885 139.408C175.478 139.002 175.25 138.45 175.25 137.876V122.709C175.25 122.135 175.478 121.583 175.885 121.177C176.291 120.771 176.842 120.542 177.417 120.542H189.333" stroke="#2A91E9" stroke-width="3" stroke-linecap="round" stroke-linejoin="round"/>
<path d="M167.411 157.145C167.216 157.353 166.982 157.535 166.722 157.704C166.462 157.535 166.228 157.353 166.02 157.145H167.411ZM165.695 153.843H168.035V154.194H165.695V153.843ZM165.695 152.452H168.035V152.803H165.695V152.452ZM168.854 155.741L168.542 155.793H166.943C167.06 155.637 167.164 155.481 167.281 155.312H169.829V151.334H164.694C164.798 151.191 164.889 151.061 164.993 150.918H170.505V149.384H165.877C165.994 149.124 166.111 148.864 166.228 148.604L164.486 148.305C164.148 149.202 163.563 150.242 162.692 151.074L161.925 150.58L161.639 150.645H161.509V148.37H159.832V150.645H158.545V152.27H160.833C160.196 153.739 159.182 155.182 158.129 156.014C158.389 156.339 158.818 157.236 158.961 157.704C159.247 157.444 159.546 157.145 159.832 156.807V160.655H161.509V155.975C161.769 156.417 162.003 156.846 162.159 157.184L163.199 155.949C163.108 155.819 162.9 155.533 162.653 155.208C162.952 154.844 163.277 154.35 163.628 153.882L162.588 153.128C162.445 153.466 162.198 153.921 161.977 154.311L161.717 153.973C162.133 153.193 162.484 152.361 162.77 151.516C163.121 151.776 163.524 152.14 163.745 152.413C163.836 152.335 163.914 152.244 163.992 152.166V155.312H165.214C164.655 155.975 163.797 156.612 162.627 157.093C163.004 157.353 163.563 157.951 163.81 158.341C164.096 158.198 164.356 158.042 164.603 157.886C164.772 158.094 164.954 158.289 165.136 158.471C164.33 158.757 163.407 158.952 162.419 159.069C162.731 159.42 163.186 160.226 163.342 160.681C164.551 160.46 165.695 160.122 166.696 159.628C167.567 160.109 168.581 160.447 169.764 160.655C170.011 160.161 170.518 159.394 170.908 159.004C169.985 158.9 169.153 158.731 168.412 158.497C169.062 157.912 169.595 157.21 169.972 156.365L168.854 155.741Z" fill="white"/>
<path d="M178.656 156.508V155.182C178.799 155.312 178.916 155.442 179.007 155.546C179.15 155.364 179.28 155.169 179.41 154.961C179.605 155.676 179.839 156.365 180.112 156.989C179.579 157.691 178.903 158.276 178.032 158.718C177.772 158.549 177.473 158.354 177.161 158.172C177.408 157.704 177.603 157.158 177.733 156.508H178.656ZM175.003 156.508H175.965C175.874 156.833 175.757 157.119 175.627 157.366C175.341 157.236 175.042 157.106 174.743 156.989L175.003 156.508ZM181.685 152.374C181.581 153.245 181.425 154.038 181.204 154.753C180.957 154.012 180.762 153.206 180.619 152.374H181.685ZM176.251 150.021L177.07 150.385H176.251V150.021ZM184.324 152.374V150.632H181.035C181.191 149.956 181.308 149.267 181.412 148.565L179.501 148.292C179.228 150.632 178.617 152.881 177.525 154.194C177.772 154.376 178.149 154.701 178.461 155H175.796L176.017 154.545L175.211 154.376H176.251V153.011C176.68 153.375 177.096 153.739 177.356 153.999L178.344 152.712C178.11 152.556 177.421 152.166 176.849 151.854H178.617V150.385H177.564C177.863 150.021 178.227 149.514 178.617 149.02L177.031 148.409C176.849 148.877 176.524 149.54 176.251 149.995V148.292H174.522V150.385H173.703L174.483 150.047C174.379 149.592 174.054 148.942 173.729 148.461L172.39 149.02C172.624 149.436 172.858 149.969 172.988 150.385H172.169V151.854H173.963C173.352 152.426 172.559 152.946 171.831 153.232C172.169 153.57 172.572 154.194 172.78 154.597C173.352 154.272 173.976 153.817 174.522 153.31V154.233L174.275 154.181C174.158 154.441 174.028 154.714 173.885 155H171.974V156.508H173.105C172.793 157.093 172.468 157.639 172.195 158.081L173.846 158.562L173.95 158.38C174.093 158.445 174.223 158.51 174.366 158.575C173.768 158.861 173.014 159.017 172.039 159.121C172.351 159.498 172.676 160.148 172.78 160.681C174.171 160.408 175.211 160.057 175.991 159.511C176.485 159.836 176.927 160.161 177.252 160.46L177.993 159.706C178.227 160.07 178.448 160.46 178.552 160.707C179.605 160.187 180.463 159.55 181.152 158.783C181.698 159.511 182.374 160.135 183.193 160.629C183.479 160.109 184.077 159.355 184.506 158.978C183.609 158.523 182.894 157.86 182.322 157.041C182.972 155.754 183.375 154.207 183.622 152.374H184.324Z" fill="white"/>
<path d="M195.452 151.711C195.166 151.711 195.114 151.672 195.114 151.373V151.334H196.557C196.505 151.646 196.44 151.711 196.219 151.711H195.452ZM195.738 150.164H193.58V151.386C193.58 152.582 193.931 152.933 195.205 152.933H196.414C197.285 152.933 197.688 152.673 197.844 151.763C197.454 151.685 196.908 151.516 196.622 151.334H197.337V148.643H193.346V149.8H195.738V150.164ZM191.175 151.711C190.889 151.711 190.837 151.672 190.837 151.373V151.334H192.28C192.228 151.646 192.163 151.711 191.942 151.711H191.175ZM191.435 150.164H189.303V151.386C189.303 152.582 189.654 152.933 190.928 152.933H192.137C193.008 152.933 193.411 152.673 193.567 151.763C193.177 151.685 192.631 151.516 192.345 151.334H193.008V148.643H189.134V149.8H191.435V150.164ZM188.796 150.736C188.471 150.099 187.691 149.228 187.054 148.604L185.559 149.54C186.183 150.216 186.911 151.165 187.184 151.789L188.796 150.736ZM192.098 156.898H194.685L193.723 157.431C194.516 157.821 195.361 158.367 195.855 158.744C194.165 158.796 192.332 158.796 191.201 158.744C191.032 158.731 190.863 158.718 190.707 158.705C191.565 158.354 192.54 157.821 193.151 157.262L192.098 156.898ZM192.774 154.87H193.931V155.533H192.774V154.87ZM197.883 158.12C197.35 157.769 196.44 157.301 195.608 156.898H197.805V155.533H195.725V154.87H197.402V153.531H195.725V152.972H193.931V153.531H192.774V152.972H191.006V153.531H189.381V154.87H191.006V155.533H189.017V156.898H191.175C190.616 157.21 189.836 157.483 189.082 157.678C189.407 157.899 189.914 158.302 190.265 158.627C189.537 158.458 189.017 158.107 188.692 157.509V153.336H185.728V155.078H186.937V157.665C186.469 158.055 185.962 158.419 185.52 158.718L186.391 160.525C187.002 159.953 187.483 159.485 187.938 158.991C188.705 159.992 189.693 160.343 191.201 160.408C192.917 160.486 195.829 160.46 197.584 160.369C197.675 159.849 197.948 159.03 198.143 158.614C197.558 158.666 196.856 158.705 196.115 158.731L197.883 158.12Z" fill="white"/>
<path d="M204.253 153.895L202.836 154.155V152.465H204.292V150.723H202.836V148.305H201.029V150.723H199.43V152.465H201.029V154.454C200.353 154.571 199.729 154.662 199.209 154.74L199.599 156.547L201.029 156.287V158.653C201.029 158.848 200.964 158.913 200.769 158.926C200.574 158.926 199.963 158.926 199.443 158.9C199.664 159.381 199.911 160.148 199.963 160.629C200.964 160.629 201.666 160.577 202.173 160.291C202.68 160.005 202.836 159.55 202.836 158.666V155.936C203.369 155.832 203.889 155.728 204.409 155.624L204.253 153.895ZM209.362 150.788V153.102H206.632V150.788H209.362ZM211.26 154.87V149.007H204.734V153.44C204.734 155.325 204.617 157.769 203.07 159.368C203.473 159.602 204.24 160.291 204.539 160.668C205.969 159.212 206.45 156.872 206.58 154.87H207.269C207.776 157.574 208.621 159.602 210.571 160.694C210.844 160.187 211.429 159.407 211.871 159.03C210.35 158.289 209.557 156.729 209.154 154.87H211.26Z" fill="white"/>
<rect x="250.5" y="106.5" width="89" height="65" rx="9.5" stroke="#2A91E9"/>
<path d="M290.667 123.74H304.75" stroke="#2A91E9" stroke-width="3" stroke-linecap="round" stroke-linejoin="round"/>
<path d="M290.667 130.24H304.75" stroke="#2A91E9" stroke-width="3" stroke-linecap="round" stroke-linejoin="round"/>
<path d="M290.667 136.74H304.75" stroke="#2A91E9" stroke-width="3" stroke-linecap="round" stroke-linejoin="round"/>
<path d="M285.25 123.74H285.261" stroke="#2A91E9" stroke-width="3" stroke-linecap="round" stroke-linejoin="round"/>
<path d="M285.25 130.24H285.261" stroke="#2A91E9" stroke-width="3" stroke-linecap="round" stroke-linejoin="round"/>
<path d="M285.25 136.74H285.261" stroke="#2A91E9" stroke-width="3" stroke-linecap="round" stroke-linejoin="round"/>
<path d="M278.172 151.698C277.886 151.698 277.834 151.659 277.834 151.36V151.321H279.277C279.225 151.633 279.16 151.698 278.939 151.698H278.172ZM278.458 150.151H276.3V151.373C276.3 152.569 276.651 152.92 277.925 152.92H279.134C280.005 152.92 280.408 152.66 280.564 151.75C280.174 151.672 279.628 151.503 279.342 151.321H280.057V148.63H276.066V149.787H278.458V150.151ZM273.895 151.698C273.609 151.698 273.557 151.659 273.557 151.36V151.321H275C274.948 151.633 274.883 151.698 274.662 151.698H273.895ZM274.155 150.151H272.023V151.373C272.023 152.569 272.374 152.92 273.648 152.92H274.857C275.728 152.92 276.131 152.66 276.287 151.75C275.897 151.672 275.351 151.503 275.065 151.321H275.728V148.63H271.854V149.787H274.155V150.151ZM271.516 150.723C271.191 150.086 270.411 149.215 269.774 148.591L268.279 149.527C268.903 150.203 269.631 151.152 269.904 151.776L271.516 150.723ZM274.818 156.885H277.405L276.443 157.418C277.236 157.808 278.081 158.354 278.575 158.731C276.885 158.783 275.052 158.783 273.921 158.731C273.752 158.718 273.583 158.705 273.427 158.692C274.285 158.341 275.26 157.808 275.871 157.249L274.818 156.885ZM275.494 154.857H276.651V155.52H275.494V154.857ZM280.603 158.107C280.07 157.756 279.16 157.288 278.328 156.885H280.525V155.52H278.445V154.857H280.122V153.518H278.445V152.959H276.651V153.518H275.494V152.959H273.726V153.518H272.101V154.857H273.726V155.52H271.737V156.885H273.895C273.336 157.197 272.556 157.47 271.802 157.665C272.127 157.886 272.634 158.289 272.985 158.614C272.257 158.445 271.737 158.094 271.412 157.496V153.323H268.448V155.065H269.657V157.652C269.189 158.042 268.682 158.406 268.24 158.705L269.111 160.512C269.722 159.94 270.203 159.472 270.658 158.978C271.425 159.979 272.413 160.33 273.921 160.395C275.637 160.473 278.549 160.447 280.304 160.356C280.395 159.836 280.668 159.017 280.863 158.601C280.278 158.653 279.576 158.692 278.835 158.718L280.603 158.107Z" fill="white"/>
<path d="M286.973 153.882L285.556 154.142V152.452H287.012V150.71H285.556V148.292H283.749V150.71H282.15V152.452H283.749V154.441C283.073 154.558 282.449 154.649 281.929 154.727L282.319 156.534L283.749 156.274V158.64C283.749 158.835 283.684 158.9 283.489 158.913C283.294 158.913 282.683 158.913 282.163 158.887C282.384 159.368 282.631 160.135 282.683 160.616C283.684 160.616 284.386 160.564 284.893 160.278C285.4 159.992 285.556 159.537 285.556 158.653V155.923C286.089 155.819 286.609 155.715 287.129 155.611L286.973 153.882ZM292.082 150.775V153.089H289.352V150.775H292.082ZM293.98 154.857V148.994H287.454V153.427C287.454 155.312 287.337 157.756 285.79 159.355C286.193 159.589 286.96 160.278 287.259 160.655C288.689 159.199 289.17 156.859 289.3 154.857H289.989C290.496 157.561 291.341 159.589 293.291 160.681C293.564 160.174 294.149 159.394 294.591 159.017C293.07 158.276 292.277 156.716 291.874 154.857H293.98Z" fill="white"/>
<path d="M305.849 148.461C305.16 149.514 303.769 150.554 302.586 151.139C303.067 151.503 303.613 152.062 303.912 152.478C305.277 151.672 306.655 150.528 307.643 149.189L305.849 148.461ZM298.829 153.271V150.775H299.986V153.271H298.829ZM302.95 155.013C303.379 155.377 303.847 155.845 304.107 156.209C305.42 155.351 306.798 154.129 307.786 152.764L306.057 152.049C305.394 153.089 304.12 154.116 303.002 154.766V153.271H301.832V150.775H302.846V149.033H295.93V150.775H297.074V153.271H295.683V155.013H297.048C296.97 156.638 296.658 158.224 295.462 159.459C295.891 159.732 296.554 160.369 296.853 160.759C298.374 159.212 298.738 157.119 298.816 155.013H299.986V160.629H301.832V155.013H302.95ZM306.239 155.481C305.394 157.067 303.769 158.328 302.118 159.069C302.599 159.472 303.144 160.122 303.431 160.603C305.303 159.589 306.941 158.12 308.046 156.17L306.239 155.481Z" fill="white"/>
<path d="M313.779 155.286H315.69V153.466H310.126V155.286H311.894V158.055C311.023 158.185 310.217 158.302 309.58 158.38L310.087 160.291C311.79 159.953 314.052 159.511 316.145 159.069L316.015 157.392C315.274 157.522 314.52 157.639 313.779 157.756V155.286ZM321.384 152.231V150.385H320.253L321.163 149.605C320.812 149.189 320.084 148.617 319.538 148.24L318.29 149.267C318.706 149.579 319.2 150.008 319.551 150.385H317.9C317.887 149.709 317.887 149.02 317.913 148.344H315.872C315.872 149.02 315.885 149.709 315.898 150.385H309.619V152.231H315.989C316.275 156.729 317.198 160.642 319.499 160.642C320.864 160.642 321.488 160.07 321.761 157.47C321.228 157.275 320.539 156.807 320.11 156.365C320.045 157.951 319.902 158.653 319.668 158.653C318.901 158.653 318.225 155.741 317.978 152.231H321.384Z" fill="white"/>
<rect x="360.5" y="106.5" width="89" height="65" rx="9.5" stroke="#2A91E9"/>
<path d="M412.583 120.569H397.417C396.22 120.569 395.25 121.539 395.25 122.735V137.902C395.25 139.099 396.22 140.069 397.417 140.069H412.583C413.78 140.069 414.75 139.099 414.75 137.902V122.735C414.75 121.539 413.78 120.569 412.583 120.569Z" stroke="#2A91E9" stroke-width="3" stroke-linecap="round" stroke-linejoin="round"/>
<path d="M401.208 128.152C402.106 128.152 402.833 127.424 402.833 126.527C402.833 125.629 402.106 124.902 401.208 124.902C400.311 124.902 399.583 125.629 399.583 126.527C399.583 127.424 400.311 128.152 401.208 128.152Z" stroke="#2A91E9" stroke-width="3" stroke-linecap="round" stroke-linejoin="round"/>
<path d="M414.75 133.569L409.333 128.152L397.417 140.069" stroke="#2A91E9" stroke-width="3" stroke-linecap="round" stroke-linejoin="round"/>
<path d="M401.613 158.147H394.268V151.426H392.435V160.669H394.268V159.928H401.613V160.669H403.446V151.426H401.613V158.147ZM399.416 153.909H398.701V153.155H399.416V153.909ZM399.416 156.093H398.701V155.326H399.416V156.093ZM396.387 155.326H397.089V156.093H396.387V155.326ZM396.387 153.155H397.089V153.909H396.387V153.155ZM392.032 149.06V150.815H396.933V151.634H394.853V157.614H401.028V151.634H398.844V150.815H403.862V149.06H392.032Z" fill="white"/>
<path d="M407.645 148.319C407.112 150.165 406.189 152.011 405.188 153.194C405.474 153.701 405.929 154.806 406.072 155.274C406.254 155.053 406.436 154.819 406.618 154.572V160.656H408.412V151.361C408.789 150.529 409.114 149.671 409.387 148.839L407.645 148.319ZM411.064 152.219H412.364V152.934H411.064V152.219ZM413.235 150.425C413.105 150.62 412.962 150.815 412.832 150.971H411.142C411.298 150.789 411.441 150.607 411.584 150.425H413.235ZM415.523 152.934H414.041V152.219H415.523V152.934ZM412.013 159.135C411.883 159.135 411.74 159.135 411.584 159.122C412 158.875 412.403 158.615 412.793 158.342C412.754 158.576 412.676 158.758 412.585 158.862C412.442 159.083 412.26 159.135 412.013 159.135ZM416.576 154.351C416.316 154.65 415.965 155.014 415.601 155.339C415.484 154.962 415.38 154.572 415.289 154.169H417.33V150.971H414.808C415.107 150.581 415.38 150.165 415.614 149.788L414.522 148.982L414.184 149.086H412.481C412.572 148.943 412.663 148.787 412.741 148.644L410.986 148.319C410.518 149.255 409.686 150.334 408.516 151.166C408.776 151.296 409.088 151.504 409.374 151.751V154.169H411.077C410.349 154.533 409.53 154.845 408.75 155.066C409.049 155.352 409.53 155.963 409.751 156.275C410.336 156.054 410.947 155.781 411.545 155.456C411.597 155.508 411.649 155.56 411.701 155.599C410.856 156.132 409.725 156.639 408.815 156.899C409.101 157.198 409.439 157.718 409.621 158.056C410.492 157.692 411.545 157.133 412.403 156.548C412.455 156.626 412.494 156.717 412.533 156.808C411.506 157.627 409.933 158.446 408.62 158.836C408.971 159.174 409.361 159.746 409.582 160.149C410.102 159.928 410.661 159.655 411.207 159.33C411.402 159.772 411.48 160.292 411.506 160.656C411.805 160.682 412.117 160.682 412.377 160.682C412.975 160.656 413.404 160.526 413.833 160.084C414.782 159.2 414.86 156.457 412.793 154.702C413.04 154.533 413.287 154.351 413.495 154.169H413.716C414.223 156.821 415.055 158.979 416.771 160.188C417.031 159.72 417.577 159.044 417.967 158.719C417.226 158.264 416.641 157.588 416.199 156.769C416.706 156.431 417.317 155.95 417.824 155.482L416.576 154.351Z" fill="white"/>
<rect x="30.5" y="191.5" width="89" height="65" rx="9.5" stroke="#2A91E9"/>
<g clip-path="url(#clip1)">
<path d="M86.9167 209.869L79.3333 215.286L86.9167 220.702V209.869Z" stroke="#2A91E9" stroke-width="3" stroke-linecap="round" stroke-linejoin="round"/>
<path d="M77.1667 207.703H65.25C64.0534 207.703 63.0833 208.673 63.0833 209.869V220.703C63.0833 221.899 64.0534 222.869 65.25 222.869H77.1667C78.3633 222.869 79.3333 221.899 79.3333 220.703V209.869C79.3333 208.673 78.3633 207.703 77.1667 207.703Z" stroke="#2A91E9" stroke-width="3" stroke-linecap="round" stroke-linejoin="round"/>
</g>
<path d="M66.368 242.919H68.63C68.565 243.023 68.5 243.114 68.435 243.205C67.746 243.257 67.057 243.309 66.368 243.361V242.919ZM64.015 240.124V239.734H64.665V240.124H64.015ZM64.015 238.278H64.665V238.668H64.015V238.278ZM67.005 238.278V238.668H66.368V238.278H67.005ZM67.005 240.124H66.368V239.734H67.005V240.124ZM71.633 236.133C71.646 235.301 71.646 234.417 71.646 233.494H69.839C69.839 234.43 69.839 235.314 69.839 236.133H68.773V237.862H69.8C69.709 239.955 69.449 241.619 68.63 242.919V241.606H66.368V241.268H68.552V237.134H66.368V236.809H68.721V235.47H66.368V235.015C67.174 234.924 67.941 234.82 68.617 234.677L67.824 233.286C66.342 233.598 64.145 233.819 62.195 233.91C62.364 234.274 62.546 234.859 62.598 235.236C63.261 235.223 63.963 235.197 64.665 235.158V235.47H62.221V236.809H64.665V237.134H62.533V241.268H64.665V241.606H62.481V242.919H64.665V243.478C63.703 243.543 62.832 243.595 62.117 243.634L62.325 245.194C63.846 245.064 65.874 244.882 67.85 244.687C68.175 245.012 68.513 245.415 68.682 245.714C70.814 243.985 71.399 241.372 71.581 237.862H72.374C72.309 241.762 72.205 243.283 71.958 243.621C71.828 243.803 71.711 243.855 71.516 243.855C71.256 243.855 70.814 243.855 70.294 243.803C70.593 244.31 70.801 245.077 70.84 245.597C71.464 245.61 72.062 245.61 72.478 245.519C72.933 245.415 73.258 245.259 73.583 244.765C73.999 244.154 74.09 242.204 74.194 236.939C74.194 236.718 74.207 236.133 74.207 236.133H71.633Z" fill="white"/>
<path d="M85.634 243.075H78.289V236.354H76.456V245.597H78.289V244.856H85.634V245.597H87.467V236.354H85.634V243.075ZM83.437 238.837H82.722V238.083H83.437V238.837ZM83.437 241.021H82.722V240.254H83.437V241.021ZM80.408 240.254H81.11V241.021H80.408V240.254ZM80.408 238.083H81.11V238.837H80.408V238.083ZM76.053 233.988V235.743H80.954V236.562H78.874V242.542H85.049V236.562H82.865V235.743H87.883V233.988H76.053Z" fill="white"/>
<rect x="140.5" y="191.5" width="89" height="65" rx="9.5" stroke="#2A91E9"/>
<g clip-path="url(#clip2)">
<path d="M194.75 213.171C194.75 220.754 185 227.254 185 227.254C185 227.254 175.25 220.754 175.25 213.171C175.25 210.585 176.277 208.105 178.106 206.277C179.934 204.448 182.414 203.421 185 203.421C187.586 203.421 190.066 204.448 191.894 206.277C193.723 208.105 194.75 210.585 194.75 213.171Z" stroke="#2A91E9" stroke-width="3" stroke-linecap="round" stroke-linejoin="round"/>
<path d="M185 216.421C186.795 216.421 188.25 214.966 188.25 213.171C188.25 211.376 186.795 209.921 185 209.921C183.205 209.921 181.75 211.376 181.75 213.171C181.75 214.966 183.205 216.421 185 216.421Z" stroke="#2A91E9" stroke-width="3" stroke-linecap="round" stroke-linejoin="round"/>
</g>
<path d="M175.575 240.748V238.07H176.784V236.289H175.575V233.533H173.82V236.289H172.39V238.07H173.82V241.476C173.196 241.71 172.637 241.931 172.182 242.087L172.936 243.985C174.171 243.413 175.679 242.685 177.057 241.97L176.628 240.306L175.575 240.748ZM182.4 237.745C182.4 239.409 182.4 240.137 182.374 240.293C182.348 240.488 182.283 240.527 182.153 240.527C182.049 240.527 181.841 240.527 181.672 240.514V238.07L182.4 237.745ZM180.06 243.777C179.293 243.777 179.202 243.686 179.202 242.893V239.149L179.904 238.837V242.581H181.672V240.54C181.854 240.917 181.997 241.619 182.049 242.074C182.504 242.074 183.076 242.061 183.479 241.84C183.895 241.632 184.103 241.268 184.129 240.631C184.168 240.085 184.194 238.733 184.194 236.224L184.259 235.925L182.946 235.457L182.608 235.678L182.309 235.873H182.322L181.672 236.146V233.338H179.904V236.913L179.202 237.212V234.625H177.408V237.979L176.186 238.499L176.888 240.163L177.408 239.929V242.893C177.408 244.908 177.941 245.454 179.878 245.454H182.426C184.038 245.454 184.584 244.817 184.805 242.945C184.298 242.841 183.57 242.542 183.167 242.269C183.05 243.517 182.92 243.777 182.244 243.777H180.06Z" fill="white"/>
<path d="M188.562 236.757C188.939 237.459 189.342 238.382 189.485 238.967L190.993 238.304C190.824 237.719 190.382 236.835 189.979 236.172L188.562 236.757ZM189.836 243.361C190.759 242.906 191.604 242.347 192.358 241.684C193.138 242.152 193.827 242.62 194.282 243.023L195.426 241.554C194.971 241.19 194.321 240.787 193.593 240.384C194.451 239.318 195.127 238.057 195.621 236.614L193.827 236.172C193.645 236.77 193.411 237.329 193.138 237.849C192.982 237.264 192.657 236.471 192.345 235.86L190.863 236.367C191.201 237.095 191.526 238.044 191.617 238.642L192.969 238.148C192.683 238.655 192.345 239.11 191.968 239.539C191.318 239.227 190.681 238.928 190.109 238.694L189.082 239.968C189.576 240.189 190.109 240.449 190.655 240.735C190.005 241.203 189.277 241.593 188.484 241.905C188.822 242.243 189.368 242.958 189.615 243.361H188.406V235.678H195.842V243.361H189.836ZM186.521 233.871V245.662H188.406V245.168H195.842V245.662H197.818V233.871H186.521Z" fill="white"/>
<rect x="250.5" y="191.5" width="89" height="65" rx="9.5" stroke="#2A91E9"/>
<path d="M302.583 206.683H287.417C286.22 206.683 285.25 207.653 285.25 208.85V224.016C285.25 225.213 286.22 226.183 287.417 226.183H302.583C303.78 226.183 304.75 225.213 304.75 224.016V208.85C304.75 207.653 303.78 206.683 302.583 206.683Z" stroke="#2A91E9" stroke-width="3" stroke-linecap="round" stroke-linejoin="round"/>
<path d="M299.333 204.517V208.85" stroke="#2A91E9" stroke-width="3" stroke-linecap="round" stroke-linejoin="round"/>
<path d="M290.667 204.517V208.85" stroke="#2A91E9" stroke-width="3" stroke-linecap="round" stroke-linejoin="round"/>
<path d="M285.25 213.183H304.75" stroke="#2A91E9" stroke-width="3" stroke-linecap="round" stroke-linejoin="round"/>
<path d="M284.697 242.71V240.175H290.092V242.71H284.697ZM290.092 235.924V238.303H284.697V235.924H290.092ZM282.747 234.013V245.479H284.697V244.621H290.092V245.479H292.133V234.013H282.747Z" fill="white"/>
<path d="M297.814 233.35C297.151 235.196 296.007 237.029 294.811 238.173C295.149 238.641 295.708 239.707 295.903 240.175C296.137 239.941 296.371 239.681 296.592 239.408V245.609H298.516V236.483C298.971 235.651 299.361 234.78 299.686 233.948L297.814 233.35ZM307.252 236.054H305.926V233.428H303.963V236.054H299.166V237.965H303.963V243.425C303.963 243.711 303.833 243.815 303.508 243.815C303.183 243.828 302.013 243.828 301.051 243.776C301.337 244.27 301.675 245.115 301.766 245.648C303.222 245.661 304.275 245.622 304.977 245.336C305.679 245.05 305.926 244.569 305.926 243.438V237.965H307.252V236.054ZM302.988 241.592C302.624 240.812 301.831 239.564 301.298 238.654L299.621 239.434C300.154 240.409 300.882 241.709 301.181 242.502L302.988 241.592Z" fill="white"/>
<rect x="360.5" y="191.5" width="89" height="65" rx="9.5" stroke="#2A91E9"/>
<path d="M406.083 204.622H398.5C397.925 204.622 397.374 204.85 396.968 205.256C396.562 205.663 396.333 206.214 396.333 206.788V224.122C396.333 224.696 396.562 225.248 396.968 225.654C397.374 226.06 397.925 226.288 398.5 226.288H411.5C412.075 226.288 412.626 226.06 413.032 225.654C413.438 225.248 413.667 224.696 413.667 224.122V212.205L406.083 204.622Z" stroke="#2A91E9" stroke-width="3" stroke-linecap="round" stroke-linejoin="round"/>
<path d="M406.083 204.622V212.205H413.667" stroke="#2A91E9" stroke-width="3" stroke-linecap="round" stroke-linejoin="round"/>
<path d="M387.58 234.495C387.177 234.599 386.67 234.612 386.384 234.612H380.651C380.222 234.612 379.364 234.547 378.961 234.495V236.718C379.299 236.692 380.014 236.653 380.651 236.653H386.371C386.202 237.693 385.773 238.98 384.941 240.007C383.914 241.281 382.445 242.425 379.832 243.01L381.548 244.895C383.836 244.154 385.669 242.815 386.839 241.242C387.957 239.734 388.49 237.758 388.802 236.536C388.88 236.25 388.997 235.782 389.14 235.496L387.58 234.495Z" fill="white"/>
<path d="M401.594 236.666C401.36 236.731 400.671 236.77 400.333 236.77H394.535C394.067 236.77 393.534 236.718 393.092 236.653V238.655C393.625 238.603 394.067 238.577 394.535 238.577H399.839C399.566 239.058 398.838 239.838 398.188 240.332C398.214 239.916 398.227 239.5 398.24 239.084H396.069C396.134 239.383 396.186 239.747 396.186 240.098C396.186 241.71 395.9 242.698 394.587 243.608C394.145 243.92 393.807 244.076 393.43 244.232L395.081 245.545C397.694 244.115 398.084 242.217 398.188 240.358L399.735 241.424C400.528 240.774 401.802 239.11 402.296 238.317C402.387 238.174 402.608 237.875 402.751 237.719L401.594 236.666Z" fill="white"/>
<path d="M412.943 237.758C414.191 236.952 415.322 235.99 416.362 234.976L414.672 233.455C413.931 234.443 412.592 235.6 411.279 236.419C409.823 237.329 407.639 238.278 405.312 238.759L406.43 240.67C407.847 240.293 409.368 239.682 410.681 239.032V242.945C410.681 243.569 410.629 244.479 410.577 244.83H413.073C412.969 244.466 412.943 243.569 412.943 242.945V237.758Z" fill="white"/>
<path d="M420.574 244.869C421.705 243.842 422.498 242.555 422.901 241.047C423.239 239.734 423.278 237.017 423.278 235.418C423.278 234.794 423.382 234.105 423.382 234.105H421.068C421.159 234.456 421.211 234.833 421.211 235.444C421.211 237.069 421.198 239.461 420.834 240.527C420.496 241.554 419.833 242.776 418.65 243.595L420.574 244.869ZM426.021 244.934C426.203 244.804 426.346 244.661 426.645 244.505C428.088 243.764 429.986 242.321 431.039 240.982L429.83 239.24C429.024 240.384 427.919 241.32 426.944 241.723V235.327C426.944 234.69 427.048 234.105 427.048 234.105H424.708C424.708 234.105 424.825 234.677 424.825 235.314V242.776C424.825 243.179 424.773 243.582 424.708 243.855L426.021 244.934Z" fill="white"/>
<rect x="30.5" y="276.5" width="89" height="65" rx="9.5" stroke="#2A91E9"/>
<path d="M72.8333 301.395C73.2986 302.017 73.8921 302.532 74.5738 302.904C75.2554 303.277 76.0091 303.498 76.7839 303.554C77.5586 303.609 78.3362 303.497 79.064 303.226C79.7917 302.954 80.4526 302.53 81.0017 301.98L84.2517 298.73C85.2384 297.709 85.7843 296.34 85.772 294.92C85.7597 293.5 85.19 292.141 84.1857 291.137C83.1814 290.133 81.8228 289.563 80.4026 289.551C78.9824 289.538 77.6141 290.084 76.5925 291.071L74.7292 292.924" stroke="#2A91E9" stroke-width="3" stroke-linecap="round" stroke-linejoin="round"/>
<path d="M77.1666 299.229C76.7014 298.607 76.1078 298.092 75.4262 297.72C74.7446 297.347 73.9908 297.126 73.2161 297.07C72.4413 297.015 71.6637 297.127 70.936 297.398C70.2082 297.669 69.5474 298.094 68.9983 298.644L65.7483 301.894C64.7616 302.915 64.2156 304.283 64.228 305.704C64.2403 307.124 64.81 308.482 65.8143 309.487C66.8186 310.491 68.1771 311.061 69.5974 311.073C71.0176 311.085 72.3858 310.539 73.4074 309.553L75.2599 307.7" stroke="#2A91E9" stroke-width="3" stroke-linecap="round" stroke-linejoin="round"/>
<path d="M51.9965 320.054V320.47H50.4105V320.054H51.9965ZM50.4105 322.043V321.601H51.9965V322.043H50.4105ZM53.7645 323.304V318.78H48.5645V330.662H50.4105V323.304H53.7645ZM57.3005 327.542V326.216H54.8435V325.722H57.1965V324.435H56.3125C56.4555 324.227 56.6245 323.993 56.7935 323.759L55.2205 323.356H57.8725V328.725C57.8725 328.881 57.8335 328.946 57.6775 328.946C57.5995 328.946 57.4305 328.946 57.2355 328.946C57.2875 328.881 57.3525 328.816 57.4045 328.764C56.3905 328.569 55.6235 328.14 55.1165 327.542H57.3005ZM57.8725 320.054V320.47H56.2345V320.054H57.8725ZM56.2345 321.601H57.8725V322.082H56.2345V321.601ZM59.7315 318.78H54.4405V323.356H55.0515C54.9865 323.668 54.8435 324.084 54.7135 324.435H53.5435C53.4395 324.084 53.2185 323.655 52.9845 323.317L51.5415 323.72C51.6715 323.928 51.7885 324.188 51.8795 324.435H51.0995V325.722H53.1665V326.216H50.9175V327.542H52.8675C52.5425 328.036 51.8925 328.53 50.6185 328.868C51.0085 329.167 51.4895 329.713 51.7235 330.064C52.9065 329.674 53.6605 329.167 54.1285 328.621C54.6745 329.31 55.4155 329.817 56.4035 330.103C56.5205 329.856 56.7285 329.544 56.9495 329.271C57.1185 329.726 57.2615 330.285 57.2875 330.662C58.0935 330.662 58.6915 330.623 59.1465 330.324C59.6145 330.025 59.7315 329.557 59.7315 328.751V318.78Z" fill="white"/>
<path d="M67.5055 324.266V323.837H68.4415V324.266H67.5055ZM67.5055 322.238H68.4415V322.654H67.5055V322.238ZM71.2235 322.238V322.654H70.2745V322.238H71.2235ZM71.2235 324.266H70.2745V323.837H71.2235V324.266ZM68.4415 328.491H70.2745V327.425H73.6805V325.904H70.2745V325.54H73.0305V320.964H70.2745V320.626H73.5375V319.118H70.2745V318.312H68.4415V319.118H65.3345V320.626H68.4415V320.964H65.7895V325.54H68.4415V325.904H65.1915V327.425H68.4415V328.491ZM65.1785 320.678C64.7625 320.067 63.8655 319.222 63.1505 318.65L61.7075 319.716C62.4095 320.353 63.2675 321.25 63.6185 321.874L65.1785 320.678ZM64.8665 323.343H61.7075V325.085H63.0595V327.633C62.5525 328.01 62.0195 328.374 61.5385 328.66L62.4095 330.545C63.0725 329.986 63.5795 329.531 64.0735 329.05C64.8405 330.038 65.8155 330.376 67.2845 330.441C68.9485 330.519 71.7175 330.493 73.4205 330.402C73.5115 329.869 73.7975 328.998 74.0055 328.569C72.0685 328.738 68.9355 328.777 67.3105 328.699C66.0885 328.647 65.2955 328.309 64.8665 327.503V323.343Z" fill="white"/>
<path d="M81.5325 327.49V327.126H84.9775V327.49H81.5325ZM84.9775 325.423V325.826H81.5325V325.423H84.9775ZM86.7585 324.071H79.7905V330.688H81.5325V328.764H84.9775V328.907C84.9775 329.063 84.9125 329.115 84.7435 329.115C84.5745 329.115 83.9505 329.128 83.4955 329.089C83.7035 329.531 83.9245 330.22 83.9895 330.688C84.8865 330.688 85.5625 330.675 86.0825 330.415C86.6155 330.168 86.7585 329.726 86.7585 328.946V324.071ZM79.7385 320.795V321.302C79.6215 321.029 79.5045 320.73 79.3745 320.444H82.2735V320.795H79.7385ZM84.1455 322.381V322.03H86.7715V320.795H84.1455V320.444H87.1485V319.131H84.1455V318.312H82.2735V319.131H79.3615V320.418L79.1795 320.015L78.4385 320.327V318.312H76.7355V321.068L75.5655 320.925C75.5005 322.004 75.3185 323.473 75.0585 324.37L76.4105 324.838C76.5405 324.292 76.6575 323.603 76.7355 322.914V330.662H78.4385V321.51C78.5685 321.861 78.6855 322.199 78.7505 322.459L79.7385 321.991V322.03H82.2735V322.381H78.9585V323.707H87.5645V322.381H84.1455Z" fill="white"/>
<path d="M92.8295 324.474H91.1525L91.5295 324.37C91.4905 324.045 91.3345 323.564 91.1655 323.148H92.8295C92.7255 323.551 92.5825 324.019 92.4525 324.37L92.8295 324.474ZM92.8555 320.912H94.4415V319.365H92.8555V318.364H91.1135V319.365H89.3455V320.912H91.1135V321.575H88.8775V323.148H90.0735L89.6575 323.252C89.8135 323.629 89.9435 324.097 90.0215 324.474H89.1895V326.047H91.1135V326.827H89.2935V328.4H91.1135V330.623H92.8555V328.4H94.5715V326.827H92.8555V326.047H94.7015V324.474H93.8955C94.0515 324.123 94.2205 323.707 94.4285 323.252L93.9995 323.148H94.9095V321.575H92.8555V320.912ZM96.7555 325.852C97.0155 326.606 97.3405 327.321 97.7045 327.971C97.4185 328.361 97.1065 328.712 96.7555 329.037V325.852ZM99.0695 324.825C98.9525 325.345 98.7965 325.839 98.6015 326.307C98.3415 325.839 98.1205 325.345 97.9515 324.825H99.0695ZM99.8885 323.278L99.5895 323.343H96.7555V320.47H98.9525V321.224C98.9525 321.367 98.8875 321.393 98.6925 321.406C98.5105 321.406 97.7695 321.406 97.2365 321.38C97.4445 321.822 97.6785 322.498 97.7435 322.992C98.6795 322.992 99.4075 322.979 99.9665 322.732C100.538 322.485 100.694 322.03 100.694 321.263V318.832H95.0525V330.649H96.7555V329.791C97.0545 330.077 97.3535 330.402 97.5355 330.688C97.9905 330.337 98.3935 329.921 98.7705 329.453C99.1995 329.934 99.6805 330.35 100.213 330.688C100.486 330.22 101.033 329.544 101.436 329.206C100.799 328.881 100.239 328.439 99.7455 327.906C100.356 326.697 100.773 325.254 101.007 323.681L99.8885 323.278Z" fill="white"/>
<rect x="140.5" y="276.5" width="89" height="65" rx="9.5" stroke="#2A91E9"/>
<path d="M189.333 307.716L195.833 301.216L189.333 294.716" stroke="#2A91E9" stroke-width="3" stroke-linecap="round" stroke-linejoin="round"/>
<path d="M180.667 294.716L174.167 301.216L180.667 307.716" stroke="#2A91E9" stroke-width="3" stroke-linecap="round" stroke-linejoin="round"/>
<path d="M168.822 329.603H171.123V324.663C171.578 324.234 171.89 324 172.41 324C172.995 324 173.268 324.299 173.268 325.313V329.603H175.582V325.027C175.582 323.181 174.893 322.024 173.281 322.024C172.28 322.024 171.552 322.531 171.019 323.025L171.123 321.712V319.216H168.822V329.603Z" fill="white"/>
<path d="M180.941 329.785C181.695 329.785 182.228 329.629 182.618 329.512L182.254 327.848C182.072 327.9 181.812 327.978 181.578 327.978C181.032 327.978 180.642 327.653 180.642 326.834V324.013H182.384V322.206H180.642V320.256H178.718L178.458 322.206L177.327 322.297V324.013H178.328V326.86C178.328 328.615 179.082 329.785 180.941 329.785Z" fill="white"/>
<path d="M184.468 329.603H186.769V324.663C187.211 324.208 187.614 324 187.952 324C188.537 324 188.797 324.299 188.797 325.313V329.603H191.124V324.663C191.566 324.208 191.969 324 192.307 324C192.892 324 193.152 324.299 193.152 325.313V329.603H195.466V325.027C195.466 323.181 194.764 322.024 193.152 322.024C192.164 322.024 191.475 322.596 190.838 323.246C190.461 322.453 189.837 322.024 188.81 322.024C187.809 322.024 187.172 322.531 186.561 323.142H186.509L186.353 322.206H184.468V329.603Z" fill="white"/>
<path d="M200.034 329.785C200.541 329.785 200.931 329.694 201.178 329.59L200.905 327.887C200.775 327.913 200.723 327.913 200.645 327.913C200.463 327.913 200.229 327.77 200.229 327.289V319.216H197.928V327.198C197.928 328.745 198.448 329.785 200.034 329.785Z" fill="white"/>
<rect x="250.5" y="276.5" width="89" height="65" rx="9.5" stroke="#2A91E9"/>
<path d="M292.833 301.616C293.299 302.238 293.892 302.753 294.574 303.125C295.255 303.498 296.009 303.719 296.784 303.775C297.559 303.83 298.336 303.718 299.064 303.447C299.792 303.175 300.453 302.75 301.002 302.201L304.252 298.951C305.238 297.93 305.784 296.561 305.772 295.141C305.76 293.721 305.19 292.362 304.186 291.358C303.181 290.354 301.823 289.784 300.403 289.772C298.982 289.759 297.614 290.305 296.593 291.292L294.729 293.145" stroke="#2A91E9" stroke-width="3" stroke-linecap="round" stroke-linejoin="round"/>
<path d="M297.167 299.45C296.701 298.828 296.108 298.313 295.426 297.941C294.745 297.568 293.991 297.347 293.216 297.291C292.441 297.236 291.664 297.347 290.936 297.619C290.208 297.89 289.547 298.315 288.998 298.865L285.748 302.115C284.762 303.136 284.216 304.504 284.228 305.925C284.24 307.345 284.81 308.703 285.814 309.708C286.819 310.712 288.177 311.282 289.597 311.294C291.018 311.306 292.386 310.76 293.407 309.774L295.26 307.921" stroke="#2A91E9" stroke-width="3" stroke-linecap="round" stroke-linejoin="round"/>
<path d="M276.579 319.352C276.618 319.677 276.631 320.132 276.631 320.379V324.786C276.631 325.189 276.579 325.748 276.566 326.008H278.906C278.88 325.67 278.854 325.124 278.854 324.799V320.379C278.854 319.911 278.88 319.677 278.906 319.352H276.579ZM282.546 319.235C282.598 319.625 282.637 320.067 282.637 320.639V323.33C282.637 325.124 282.455 326.047 281.584 326.97C280.804 327.776 279.738 328.257 278.386 328.556L280.037 330.298C280.986 329.999 282.351 329.336 283.222 328.426C284.21 327.386 284.821 326.086 284.821 323.473V320.639C284.821 320.067 284.847 319.625 284.873 319.235H282.546Z" fill="white"/>
<path d="M291.126 319.365L289.631 320.964C290.567 321.627 292.205 323.057 292.894 323.811L294.506 322.16C293.726 321.328 292.023 319.976 291.126 319.365ZM289.202 327.997L290.541 330.077C292.179 329.817 293.869 329.141 295.195 328.361C297.366 327.087 299.212 325.28 300.252 323.434L299.03 321.211C298.159 323.044 296.404 325.059 294.064 326.411C292.79 327.152 291.113 327.737 289.202 327.997Z" fill="white"/>
<path d="M311.835 320.405C311.497 320.509 310.977 320.574 310.548 320.574H308.455C308.65 320.236 308.962 319.703 309.261 319.287L306.96 318.533C306.817 319.04 306.505 319.716 306.271 320.08C305.582 321.172 304.529 322.732 302.228 324.149L303.996 325.462C305.192 324.63 306.349 323.512 307.272 322.355H310.509C310.34 323.2 309.612 324.695 308.793 325.605C307.688 326.84 306.336 327.945 303.528 328.803L305.4 330.467C307.844 329.466 309.417 328.27 310.678 326.723C311.874 325.254 312.576 323.538 312.927 322.459C313.057 322.069 313.265 321.679 313.434 321.393L311.835 320.405Z" fill="white"/>
<rect x="360.5" y="276.5" width="89" height="65" rx="9.5" stroke="#2A91E9"/>
<g clip-path="url(#clip3)">
<path d="M414.306 301.671L406.538 309.438C406.337 309.64 406.098 309.799 405.835 309.908C405.572 310.017 405.29 310.074 405.005 310.074C404.721 310.074 404.439 310.017 404.176 309.908C403.913 309.799 403.674 309.64 403.473 309.438L394.167 300.143V289.31H405L414.306 298.616C414.709 299.022 414.936 299.571 414.936 300.143C414.936 300.716 414.709 301.265 414.306 301.671V301.671Z" stroke="#2A91E9" stroke-width="3" stroke-linecap="round" stroke-linejoin="round"/>
<path d="M399.583 294.726H399.593" stroke="#2A91E9" stroke-width="3" stroke-linecap="round" stroke-linejoin="round"/>
</g>
<path d="M401.769 320.288C401.431 320.392 400.911 320.457 400.482 320.457H398.324C398.519 320.119 398.818 319.612 399.104 319.209L396.829 318.507C396.686 319.014 396.374 319.69 396.14 320.054C395.451 321.146 394.32 322.836 392.019 324.253L393.722 325.566C394.944 324.721 396.192 323.473 397.141 322.238H400.482C400.326 322.888 399.858 323.811 399.312 324.617C398.532 324.162 397.739 323.733 397.102 323.395L395.763 324.903C396.374 325.254 397.154 325.735 397.947 326.255C396.933 327.269 395.555 328.27 393.267 328.985L395.1 330.571C397.115 329.791 398.571 328.686 399.715 327.464C400.183 327.802 400.612 328.127 400.924 328.4L402.354 326.541C402.029 326.307 401.6 326.021 401.119 325.709C401.951 324.5 402.523 323.252 402.848 322.342C402.991 321.952 403.186 321.562 403.355 321.276L401.769 320.288Z" fill="white"/>
<path d="M416.368 320.548C416.134 320.093 415.679 319.248 415.354 318.767L414.132 319.261C414.431 319.69 414.756 320.314 415.003 320.821C414.665 320.912 414.197 320.964 413.807 320.964H411.714C411.909 320.626 412.221 320.093 412.52 319.677L410.219 318.923C410.076 319.43 409.764 320.106 409.53 320.47C408.841 321.562 407.788 323.122 405.487 324.539L407.255 325.852C408.451 325.02 409.608 323.902 410.531 322.745H413.768C413.599 323.59 412.871 325.085 412.052 325.995C410.947 327.23 409.595 328.335 406.787 329.193L408.659 330.857C411.103 329.856 412.676 328.66 413.937 327.113C415.133 325.644 415.835 323.928 416.186 322.849C416.316 322.459 416.524 322.069 416.693 321.783L415.367 320.964L416.368 320.548ZM415.731 318.637C416.082 319.131 416.498 319.898 416.758 320.431L417.98 319.911C417.759 319.469 417.291 318.637 416.953 318.143L415.731 318.637Z" fill="white"/>
<path d="M0 361H460.983C465.942 361 470 359.112 470 356.805V5.19458C470 2.88756 465.942 1 460.983 1H0" stroke="white" stroke-miterlimit="10"/>
<defs>
<clipPath id="clip0">
<rect width="26" height="26" fill="white" transform="translate(62 118.208)"/>
</clipPath>
<clipPath id="clip1">
<rect width="26" height="26" fill="white" transform="translate(62 202.286)"/>
</clipPath>
<clipPath id="clip2">
<rect width="26" height="26" fill="white" transform="translate(172 202.338)"/>
</clipPath>
<clipPath id="clip3">
<rect width="26" height="26" fill="white" transform="translate(392 287.143)"/>
</clipPath>
</defs>
</svg>
