<svg fill="none" height="32" viewBox="0 0 32 32" width="32" xmlns="http://www.w3.org/2000/svg"><path d="m22.4002 17.6667c1 0 1.88-.5467 2.3334-1.3734l4.7733-8.6533c.4933-.88-.1467-1.97333-1.16-1.97333h-19.73332l-1.25334-2.66667h-4.36v2.66667h2.66667l4.79999 10.12003-1.79999 3.2533c-.97333 1.7867.30667 3.96 2.33329 3.96h16v-2.6667h-16l1.4667-2.6666zm-12.51996-9.33337h16.19996l-3.68 6.66667h-9.36zm1.11996 15.99997c-1.46662 0-2.65329 1.2-2.65329 2.6667s1.18667 2.6667 2.65329 2.6667c1.4667 0 2.6667-1.2 2.6667-2.6667s-1.2-2.6667-2.6667-2.6667zm13.3334 0c-1.4667 0-2.6534 1.2-2.6534 2.6667s1.1867 2.6667 2.6534 2.6667c1.4666 0 2.6666-1.2 2.6666-2.6667s-1.2-2.6667-2.6666-2.6667z" fill="#682ae9"/></svg>