<svg fill="none" height="16" viewBox="0 0 16 16" width="16" xmlns="http://www.w3.org/2000/svg"><path d="m16 10.64c0 .4-.16.88-.48 1.2l-3.68 3.68c-.32.32-.72.48-1.2.48h-5.28c-.4 0-.88-.16-1.2-.48l-3.68-3.68c-.32-.32-.48-.8-.48-1.2v-5.28c0-.4.16-.88.48-1.2l3.68-3.68c.32-.32.8-.48 1.2-.48h5.28c.4 0 .88.16 1.2.48l3.68 3.68c.32.32.48.8.48 1.2z" fill="#fff"/><path d="m11.0404 5.4398c-.4-.4-.88-.64-1.44001-.64-.4 0-.8.16-1.12.4-.16.16-.32.32-.48.48-.16-.24-.32-.4-.48-.48-.32-.32-.72-.4-1.12-.4-.56 0-1.04.24-1.44.64s-.56.96-.56 1.52c0 .64.24 1.2.72 1.76.4.56 1.04 1.04 1.76 1.68.24.24.56.48.8.72.08.08.24.08.32.08s.24 0 .24-.08c.32-.24.56-.48.8-.72.72-.64 1.36001-1.12 1.76001-1.68.48-.56.72-1.12.72-1.76.08-.56-.08-1.12-.48-1.52z" fill="#ef660d"/></svg>