<svg fill="none" height="32" viewBox="0 0 32 32" width="32" xmlns="http://www.w3.org/2000/svg"><path d="m15.9867 2.66675c-7.35995 0-13.31995 5.97333-13.31995 13.33335 0 7.36 5.96 13.3333 13.31995 13.3333 7.3734 0 13.3467-5.9733 13.3467-13.3333 0-7.36002-5.9733-13.33335-13.3467-13.33335zm9.24 7.99995h-3.9333c-.4267-1.66662-1.04-3.26662-1.84-4.74662 2.4533.84 4.4933 2.54667 5.7733 4.74662zm-9.2266-5.27995c1.1066 1.6 1.9733 3.37333 2.5466 5.27995h-5.0933c.5733-1.90662 1.44-3.67995 2.5467-5.27995zm-10.32002 13.27995c-.21333-.8533-.34667-1.7466-.34667-2.6666s.13334-1.8134.34667-2.6667h4.50662c-.1066.88-.1866 1.76-.1866 2.6667 0 .9066.08 1.7866.1866 2.6666zm1.09333 2.6667h3.93329c.4267 1.6667 1.04 3.2667 1.84 4.7467-2.4533-.84-4.49329-2.5334-5.77329-4.7467zm3.93329-10.6667h-3.93329c1.28-2.21329 3.31999-3.90662 5.77329-4.74662-.8 1.48-1.4133 3.08-1.84 4.74662zm5.2934 15.9467c-1.1067-1.6-1.9734-3.3733-2.5467-5.28h5.0933c-.5733 1.9067-1.44 3.68-2.5466 5.28zm3.12-7.9467h-6.24c-.12-.88-.2134-1.76-.2134-2.6666 0-.9067.0934-1.8.2134-2.6667h6.24c.12.8667.2133 1.76.2133 2.6667 0 .9066-.0933 1.7866-.2133 2.6666zm.3333 7.4134c.8-1.48 1.4133-3.08 1.84-4.7467h3.9333c-1.28 2.2-3.32 3.9067-5.7733 4.7467zm2.36-7.4134c.1067-.88.1867-1.76.1867-2.6666 0-.9067-.08-1.7867-.1867-2.6667h4.5067c.2133.8533.3466 1.7467.3466 2.6667s-.1333 1.8133-.3466 2.6666z" fill="#682ae9"/></svg>