<svg fill="none" height="32" viewBox="0 0 32 32" width="32" xmlns="http://www.w3.org/2000/svg"><path d="m25.9065 17.3067c.0533-.4266.0933-.8533.0933-1.3066 0-.4534-.04-.88-.0933-1.3067l2.8133-2.2c.2533-.2.32-.56.16-.8533l-2.6667-4.61335c-.12-.21334-.3466-.33334-.5866-.33334-.08 0-.16.01334-.2267.04001l-3.32 1.33333c-.6933-.53333-1.44-.97333-2.2533-1.30667l-.5067-3.53333c-.04-.32-.32-.56-.6533-.56h-5.3334c-.3333 0-.6133.24-.6533.56l-.5067 3.53333c-.8133.33334-1.56.78667-2.25331 1.30667l-3.32-1.33333c-.08-.02667-.16-.04001-.24-.04001-.22667 0-.45334.12-.57334.33334l-2.66666 4.61335c-.17334.2933-.09334.6533.16.8533l2.81333 2.2c-.05333.4267-.09333.8667-.09333 1.3067s.04.88.09333 1.3066l-2.81333 2.2c-.25334.2-.32.56-.16.8534l2.66666 4.6133c.12.2133.34667.3333.58667.3333.08 0 .16-.0133.22667-.04l3.32-1.3333c.69331.5333 1.44001.9733 2.25331 1.3067l.5067 3.5333c.04.32.32.56.6533.56h5.3334c.3333 0 .6133-.24.6533-.56l.5067-3.5333c.8133-.3334 1.56-.7867 2.2533-1.3067l3.32 1.3333c.08.0267.16.04.24.04.2267 0 .4533-.12.5733-.3333l2.6667-4.6133c.16-.2934.0933-.6534-.16-.8534zm-2.64-2.28c.0533.4134.0666.6934.0666.9734s-.0266.5733-.0666.9733l-.1867 1.5067 1.1867.9333 1.44 1.12-.9334 1.6133-1.6933-.68-1.3867-.56-1.2.9067c-.5733.4267-1.12.7467-1.6666.9733l-1.4134.5734-.2133 1.5066-.2667 1.8h-1.8666l-.2534-1.8-.2133-1.5066-1.4133-.5734c-.5734-.24-1.1067-.5466-1.64-.9466l-1.2134-.9334-1.41331.5734-1.69334.68-.93333-1.6134 1.44-1.12 1.18667-.9333-.18667-1.5067c-.04-.4133-.06667-.72-.06667-.9866 0-.2667.02667-.5734.06667-.9734l.18667-1.5066-1.18667-.9334-1.44-1.12.93333-1.61329 1.69334.67999 1.38671.56 1.2-.9067c.5733-.42662 1.12-.74662 1.6666-.97329l1.4134-.57333.2133-1.50667.2667-1.8h1.8533l.2533 1.8.2134 1.50667 1.4133.57333c.5733.24 1.1067.54667 1.64.94669l1.2133.9333 1.4134-.5733 1.6933-.68002.9333 1.61332-1.4266 1.1333-1.1867.9334zm-7.2667-4.36c-2.9467 0-5.3333 2.3867-5.3333 5.3334 0 2.9466 2.3866 5.3333 5.3333 5.3333s5.3333-2.3867 5.3333-5.3333c0-2.9467-2.3866-5.3334-5.3333-5.3334zm0 8c-1.4667 0-2.6667-1.2-2.6667-2.6666 0-1.4667 1.2-2.6667 2.6667-2.6667s2.6667 1.2 2.6667 2.6667c0 1.4666-1.2 2.6666-2.6667 2.6666z" fill="#682ae9"/></svg>