<svg fill="none" height="80" viewBox="0 0 80 80" width="80" xmlns="http://www.w3.org/2000/svg" xmlns:xlink="http://www.w3.org/1999/xlink"><clipPath id="a"><path d="m6.25 21.25h67.5v38.0306h-67.5z"/></clipPath><g clip-path="url(#a)"><path d="m55.5496 49.6626c-.556.0001-1.0995-.1646-1.5618-.4734s-.8227-.7478-1.0355-1.2613c-.2129-.5136-.2687-1.0788-.1603-1.6241s.376-1.0462.769-1.4394c.3931-.3932.8939-.661 1.4391-.7696.5453-.1086 1.1105-.053 1.6242.1596.5137.2127.9527.5729 1.2617 1.0351s.4739 1.0057.474 1.5616c-.0008.7452-.2971 1.4597-.824 1.9867-.5268.5271-1.2412.8237-1.9864.8248zm-31.0675 0c-.5559.0001-1.0994-.1646-1.5617-.4734-.4624-.3088-.8227-.7478-1.0356-1.2613-.2128-.5136-.2686-1.0788-.1603-1.6241.1084-.5453.376-1.0462.7691-1.4394.393-.3932.8938-.661 1.4391-.7696s1.1105-.053 1.6241.1596c.5137.2127.9528.5729 1.2618 1.0351.3089.4622.4739 1.0057.474 1.5616-.0007.7453-.297 1.4598-.8239 1.9869s-1.2413.8236-1.9866.8246zm32.0755-16.931 5.6171-9.729c.0769-.1329.1268-.2796.1469-.4318s.0101-.3068-.0296-.4551c-.0396-.1483-.1081-.2873-.2015-.4092-.0933-.1218-.2098-.2241-.3427-.3009s-.2796-.1267-.4318-.1468c-.1521-.0202-.3068-.0101-.4551.0295-.1483.0397-.2873.1081-.4091.2015-.1219.0934-.2241.2098-.3009.3427l-5.6882 9.852c-4.3497-1.9853-9.2348-3.0907-14.4474-3.0907-5.2125 0-10.0971 1.107-14.4468 3.0907l-5.6876-9.852c-.0767-.1329-.1789-.2494-.3007-.3429-.1217-.0934-.2607-.162-.4089-.2017-.1483-.0397-.3029-.0499-.455-.0299-.1522.02-.2989.0698-.4319.1466-.1329.0767-.2494.1788-.3428.3006-.0935.1217-.162.2607-.2018.4089-.0397.1483-.0499.3029-.0299.4551.0201.1521.0698.2989.1466.4318l5.6177 9.7306c-9.6459 5.2464-16.24351 15.0115-17.20858 26.5488h67.50048c-.9661-11.5373-7.5632-21.3024-17.2085-26.5488" fill="#3ddc84"/></g></svg>