<svg width="111" height="40" viewBox="0 0 111 40" fill="none" xmlns="http://www.w3.org/2000/svg">
<path d="M63.7201 12.6571L59.7944 18.88L61.543 25H58.2858L57.0001 20.4742H55.6458L54.8401 25H51.7544L53.9315 12.6571H57.0173L56.1087 17.8H57.2058L60.463 12.6571H63.7201Z" fill="white"/>
<path d="M71.0843 22.36C71.0843 22.6571 71.2329 22.8057 71.53 22.8057C71.8386 22.8057 72.0957 22.7485 72.3014 22.6342L72.2157 24.5714C71.6672 25.0171 71.05 25.24 70.3643 25.24C69.0729 25.24 68.37 24.7428 68.2557 23.7485C67.57 24.7428 66.6443 25.24 65.4786 25.24C64.3243 25.24 63.5757 24.9771 63.2329 24.4514C63.0043 24.12 62.89 23.7428 62.89 23.32C62.89 22.8971 62.9243 22.5085 62.9929 22.1542L63.9529 16.7542H66.8672L66.0614 21.3142C66.0272 21.52 66.01 21.7257 66.01 21.9314C66.01 22.48 66.3186 22.7542 66.9357 22.7542C67.45 22.7542 67.8614 22.5771 68.17 22.2228L69.1472 16.7542H72.0614L71.1014 22.1542C71.09 22.2228 71.0843 22.2914 71.0843 22.36Z" fill="white"/>
<path d="M81.6826 18.5028C81.6826 18.8914 81.614 19.2685 81.4769 19.6342C81.3512 20 81.2255 20.2685 81.0997 20.44L80.9112 20.68H78.3226C78.6083 20.4171 78.7512 20.0914 78.7512 19.7028C78.7512 19.4971 78.6826 19.3314 78.5455 19.2057C78.4197 19.0685 78.2426 19 78.014 19C77.6255 19 77.2883 19.1942 77.0026 19.5828L76.0426 25H73.1283L74.5855 16.7542H77.294L77.0883 17.9028C77.7397 16.9771 78.5283 16.5142 79.454 16.5142C80.1969 16.5142 80.7512 16.6914 81.1169 17.0457C81.494 17.4 81.6826 17.8857 81.6826 18.5028Z" fill="white"/>
<path d="M87.2998 16.5142C88.5341 16.5142 89.4655 16.7828 90.0941 17.32C90.5855 17.7428 90.8313 18.3314 90.8313 19.0857C90.8313 19.3371 90.8027 19.6114 90.7455 19.9085L90.3855 21.9142C90.1684 23.1257 89.6598 23.9828 88.8598 24.4857C88.0713 24.9885 87.0141 25.24 85.6884 25.24C84.3627 25.24 83.3913 24.9885 82.7741 24.4857C82.317 24.1085 82.0884 23.5428 82.0884 22.7885C82.0884 22.5257 82.117 22.2342 82.1741 21.9142L82.5341 19.9085C82.9341 17.6457 84.5227 16.5142 87.2998 16.5142ZM87.7627 20.2514C87.7855 20.1371 87.797 19.9942 87.797 19.8228C87.797 19.64 87.7227 19.44 87.5741 19.2228C87.4255 19.0057 87.1627 18.8971 86.7855 18.8971C86.4198 18.8971 86.1113 19.0228 85.8598 19.2742C85.6084 19.5142 85.4484 19.84 85.3798 20.2514L85.157 21.5371C85.1341 21.6514 85.1227 21.8 85.1227 21.9828C85.1227 22.1542 85.197 22.3428 85.3455 22.5485C85.4941 22.7542 85.7513 22.8571 86.117 22.8571C86.4941 22.8571 86.8084 22.7314 87.0598 22.48C87.3113 22.2171 87.4713 21.9028 87.5398 21.5371L87.7627 20.2514Z" fill="white"/>
<path d="M95.3133 25.24C92.9362 25.24 91.7476 24.4171 91.7476 22.7714C91.7476 22.5428 91.7705 22.2971 91.8162 22.0342L92.1762 19.9085C92.359 18.8114 92.8562 17.9714 93.6676 17.3885C94.4905 16.8057 95.5305 16.5085 96.7876 16.4971C99.2219 16.4971 100.439 17.3428 100.439 19.0342C100.439 19.4 100.393 19.7314 100.302 20.0285C100.222 20.3142 100.136 20.5085 100.045 20.6114L99.9076 20.7828H96.9933C97.279 20.5314 97.4219 20.2342 97.4219 19.8914C97.4219 19.2742 97.1133 18.9657 96.4962 18.9657C96.1305 18.9657 95.8162 19.0742 95.5533 19.2914C95.2905 19.5085 95.119 19.84 95.039 20.2857L94.8162 21.5371C94.7933 21.6514 94.7819 21.76 94.7819 21.8628C94.7819 22.4685 95.159 22.7714 95.9133 22.7714C96.1647 22.7714 96.3876 22.6914 96.5819 22.5314C96.7876 22.3714 96.9076 22.1942 96.9419 22L99.7876 22.0342C99.4105 24.1714 97.919 25.24 95.3133 25.24Z" fill="white"/>
<path d="M106.401 16.5142C107.636 16.5142 108.567 16.7828 109.196 17.32C109.687 17.7428 109.933 18.3314 109.933 19.0857C109.933 19.3371 109.904 19.6114 109.847 19.9085L109.487 21.9142C109.27 23.1257 108.761 23.9828 107.961 24.4857C107.173 24.9885 106.116 25.24 104.79 25.24C103.464 25.24 102.493 24.9885 101.876 24.4857C101.419 24.1085 101.19 23.5428 101.19 22.7885C101.19 22.5257 101.219 22.2342 101.276 21.9142L101.636 19.9085C102.036 17.6457 103.624 16.5142 106.401 16.5142ZM106.864 20.2514C106.887 20.1371 106.899 19.9942 106.899 19.8228C106.899 19.64 106.824 19.44 106.676 19.2228C106.527 19.0057 106.264 18.8971 105.887 18.8971C105.521 18.8971 105.213 19.0228 104.961 19.2742C104.71 19.5142 104.55 19.84 104.481 20.2514L104.259 21.5371C104.236 21.6514 104.224 21.8 104.224 21.9828C104.224 22.1542 104.299 22.3428 104.447 22.5485C104.596 22.7542 104.853 22.8571 105.219 22.8571C105.596 22.8571 105.91 22.7314 106.161 22.48C106.413 22.2171 106.573 21.9028 106.641 21.5371L106.864 20.2514Z" fill="white"/>
<path d="M26.5741 0H13.4214C12.3287 0 11.2808 0.434442 10.506 1.20479L1.20466 10.5072C0.434393 11.2821 0 12.3301 0 13.4229V26.5771C0 27.6699 0.434393 28.718 1.20466 29.4928L10.506 38.7952C11.2808 39.57 12.3287 40 13.4214 40H26.5741C27.6668 40 28.7147 39.5656 29.4895 38.7952L38.7909 29.4928C39.5656 28.718 39.9955 27.6699 39.9955 26.5771V13.4229C39.9955 12.3301 39.5611 11.2821 38.7909 10.5072L29.485 1.20479C28.7147 0.434442 27.6668 0 26.5741 0Z" fill="white"/>
<path d="M29.0101 39.2073C28.2219 39.7313 27.689 39.7582 27.1471 39.4133C27.0262 39.3372 26.8919 39.1983 26.8247 39.0864C26.7575 38.9654 26.556 38.3384 26.3321 37.5277C25.9917 36.2871 25.9469 36.1617 25.8529 36.1348C25.6245 36.0632 23.9093 35.9288 22.1718 35.8482L21.603 35.8213L21.7598 36.1035C22.1046 36.7081 22.4225 37.4695 22.7002 38.3563C22.8077 38.7012 22.8793 38.9968 22.8659 39.0147C22.8301 39.0505 20.8372 39.5969 20.8148 39.579C20.8059 39.5701 20.7297 39.3282 20.6447 39.0416C20.2774 37.8323 19.852 36.9993 19.1892 36.1752L18.9116 35.8258L18.7817 35.893C18.607 35.9826 18.1906 36.4528 17.904 36.8828C17.6129 37.3217 17.2098 38.1548 16.9232 38.9162C16.8068 39.2252 16.6993 39.4939 16.6814 39.5118C16.6545 39.5387 14.7512 38.8669 14.6706 38.7997C14.6079 38.7549 15.5081 36.6813 15.8574 36.0453C15.8663 36.0318 15.8171 36.0274 15.7499 36.0318C15.6783 36.0408 15.2125 36.0901 14.7065 36.1393C14.2004 36.1886 13.7481 36.2513 13.6944 36.2692C13.5958 36.314 13.5332 36.4708 13.045 37.8547C12.7271 38.7639 12.7002 38.8221 12.4584 39.0237C12.1001 39.3327 11.5314 39.4895 11.097 39.2745C11.097 39.2745 12.0285 40.009 13.5063 40C15.3872 39.9911 26.8381 40 26.8381 40C26.8381 40 27.9801 39.9642 29.0101 39.2073ZM20.7521 12.9392C24.3392 13.1229 26.4082 13.8171 27.0083 15.0398C27.1203 15.2592 27.1337 15.3399 27.1337 15.7161C27.1337 16.1057 27.1203 16.1684 26.9859 16.4416C26.8068 16.8044 26.3948 17.2075 25.938 17.4583C25.011 17.9734 23.5063 18.2376 22.0956 18.1346C20.9358 18.0495 20.1744 17.8659 19.2027 17.4225C18.9743 17.324 18.7503 17.2389 18.6966 17.2389C18.6429 17.2389 18.4145 17.3195 18.1861 17.4135C17.2143 17.8301 16.341 17.9823 15.1319 17.942C13.3719 17.8838 12.2031 17.3732 11.7821 16.4864C11.6612 16.2222 11.6523 16.1729 11.6747 15.8594C11.7911 14.2291 13.0764 13.3737 15.8932 13.0512C17.1561 12.9079 19.1982 12.8586 20.7521 12.9392ZM35.4006 32.8967C35.3827 32.8832 35.0782 32.7847 34.8811 32.7131C33.9899 32.3995 33.2689 31.983 32.0822 31.1052C30.4387 29.878 29.749 29.5331 28.5712 29.345C28.1861 29.2823 28.0428 29.2823 27.6039 29.3271C27.0889 29.3764 26.6276 29.4749 26.0858 29.654L25.7992 29.7481L25.8305 30.2229C25.8439 30.4826 25.8708 31.4321 25.8887 32.3279L25.9156 33.9582L25.7186 33.9268C25.6111 33.9134 25.1498 33.8686 24.693 33.8328C21.4642 33.573 17.6397 33.6312 14.4378 33.9895C14.0079 34.0388 13.6362 34.0791 13.6138 34.0791C13.569 34.0791 13.6093 32.0771 13.6765 30.9663C13.8466 28.3104 14.2094 26.5503 14.7557 25.7709C14.8542 25.6321 14.9304 25.5112 14.9214 25.5022C14.9125 25.4977 14.7781 25.4306 14.6169 25.3544C14.4557 25.2783 14.1109 25.0902 13.8511 24.9334C11.5448 23.545 10.058 21.2922 9.7087 18.6586C9.61018 17.9286 9.64601 16.5939 9.77588 15.8101C10.3804 12.2674 12.3554 9.41444 15.3558 7.75729C16.4261 7.16161 17.9667 6.72269 19.9013 6.45844C20.6044 6.36439 22.6017 6.35095 23.3048 6.43605C26.2694 6.80331 28.8802 8.05289 31.0701 10.149C31.5314 10.5924 31.6433 10.8029 31.6478 11.2104C31.6523 11.6897 31.5403 11.8599 30.7521 12.6123C29.8251 13.4946 29.5296 13.9156 29.5296 14.3724C29.5296 14.4665 29.5788 14.7711 29.637 15.0532C30.0535 16.9836 30.0087 18.6228 29.4982 20.2173C29.3191 20.7726 28.9698 21.534 28.6653 22.0312C28.5533 22.2148 28.4682 22.3716 28.4727 22.376C28.4817 22.385 28.7459 22.3581 29.0638 22.3223C30.573 22.1476 31.9568 22.3044 33.2868 22.8015C33.869 23.021 34.59 23.2091 35.2618 23.3166C35.6738 23.3793 36.0276 23.3972 37.0531 23.3972C38.307 23.3927 39.037 23.2807 39.9998 23.1105C39.9998 23.1105 39.9953 25.9411 39.9953 26.492C39.9953 27.0429 39.9057 27.446 39.9057 27.446C38.1816 27.8849 36.0544 27.7685 34.7378 27.3385C34.4825 27.2534 33.8825 27.025 33.3988 26.8235C31.9792 26.2323 31.2582 26.0352 30.2013 25.9277C29.6057 25.8695 29.0325 25.874 28.71 25.9456C28.3339 26.0262 28.3428 26.0621 28.7459 26.0621C29.5072 26.0621 30.4521 26.2726 31.3567 26.6398C32.0329 26.913 32.5031 27.1683 33.3451 27.7282C34.9662 28.8031 36.4933 29.4032 38.8354 29.448L35.4006 32.8967ZM17.7293 26.3308C18.0293 26.3801 18.6832 26.4472 19.1892 26.4786L20.1073 26.5323L19.122 27.7506C18.5757 28.4179 18.1234 28.9688 18.11 28.9688C18.0965 28.9733 17.9487 28.6553 17.7875 28.2656C17.6218 27.8805 17.3576 27.2534 17.1964 26.8727L16.9053 26.183L17.0486 26.2099C17.1292 26.2233 17.4337 26.2771 17.7293 26.3308Z" fill="black"/>
<path d="M20.8059 12.8989C24.393 13.0825 26.462 13.7767 27.0621 14.9995C27.174 15.2189 27.1875 15.2995 27.1875 15.6758C27.1875 16.0654 27.174 16.1281 27.0397 16.4013C26.8606 16.7641 26.4486 17.1672 25.9918 17.418C25.0648 17.9331 23.5601 18.1973 22.1494 18.0943C20.9895 18.0092 20.2282 17.8256 19.2564 17.3822C19.028 17.2836 18.8041 17.1985 18.7504 17.1985C18.6967 17.1985 18.4683 17.2792 18.2399 17.3732C17.2681 17.7897 16.3948 17.942 15.1857 17.9017C13.4257 17.8435 12.2569 17.3329 11.8359 16.4461C11.715 16.1819 11.7061 16.1326 11.7284 15.8191C11.8449 14.1888 13.1301 13.3333 15.947 13.0109C17.2099 12.8676 19.252 12.8183 20.8059 12.8989Z" fill="white"/>
<path d="M17.7293 26.3308C18.0293 26.3801 18.6832 26.4472 19.1892 26.4786L20.1072 26.5323L19.122 27.7505C18.5757 28.4179 18.1234 28.9688 18.1099 28.9688C18.0965 28.9732 17.9487 28.6552 17.7875 28.2656C17.6218 27.8804 17.3576 27.2534 17.1964 26.8727L16.9053 26.183L17.0486 26.2099C17.1292 26.2233 17.4337 26.277 17.7293 26.3308Z" fill="white"/>
<path d="M14.7023 14.2784C14.3709 14.4352 14.1828 14.6277 14.0261 14.9726C13.9231 15.2055 13.9097 15.2727 13.9276 15.5996C13.9589 16.1595 14.2142 16.5491 14.7023 16.791C15.0158 16.9433 15.5398 16.9478 15.8756 16.7955C16.1488 16.6745 16.4399 16.3789 16.5742 16.0833C16.722 15.7609 16.7086 15.2369 16.5474 14.9189C16.1891 14.2291 15.3875 13.9514 14.7023 14.2784Z" fill="black"/>
<path d="M21.9438 14.2246C21.6795 14.3187 21.2944 14.6815 21.1825 14.9457C20.8779 15.6578 21.1556 16.4461 21.8363 16.7775C22.0512 16.885 22.1498 16.9029 22.4498 16.9029C22.7498 16.9029 22.8484 16.885 23.0633 16.7775C23.7351 16.4506 24.0306 15.5996 23.7082 14.9367C23.5604 14.6322 23.2156 14.3142 22.9335 14.2201C22.6737 14.1306 22.199 14.135 21.9438 14.2246Z" fill="black"/>
<path d="M86.112 28.36C87.16 28.36 87.908 28.624 88.356 29.152C88.684 29.552 88.848 30.052 88.848 30.652C88.848 30.868 88.828 31.096 88.788 31.336L88.32 34.012C88.16 34.916 87.768 35.64 87.144 36.184C86.52 36.728 85.712 37 84.72 37H81.228L82.752 28.36H86.112ZM85.356 30.232H84.576L83.724 35.128H84.864C85.24 35.128 85.532 35.028 85.74 34.828C85.956 34.62 86.104 34.284 86.184 33.82L86.532 31.852C86.564 31.676 86.58 31.516 86.58 31.372C86.58 30.612 86.172 30.232 85.356 30.232Z" fill="#EF660D"/>
<path d="M92.8794 31.06C93.7434 31.06 94.3954 31.248 94.8354 31.624C95.1794 31.92 95.3514 32.332 95.3514 32.86C95.3514 33.036 95.3314 33.228 95.2914 33.436L95.0394 34.84C94.8874 35.688 94.5314 36.288 93.9714 36.64C93.4194 36.992 92.6794 37.168 91.7514 37.168C90.8234 37.168 90.1434 36.992 89.7114 36.64C89.3914 36.376 89.2314 35.98 89.2314 35.452C89.2314 35.268 89.2514 35.064 89.2914 34.84L89.5434 33.436C89.8234 31.852 90.9354 31.06 92.8794 31.06ZM93.2034 33.676C93.2194 33.596 93.2274 33.496 93.2274 33.376C93.2274 33.248 93.1754 33.108 93.0714 32.956C92.9674 32.804 92.7834 32.728 92.5194 32.728C92.2634 32.728 92.0474 32.816 91.8714 32.992C91.6954 33.16 91.5834 33.388 91.5354 33.676L91.3794 34.576C91.3634 34.656 91.3554 34.76 91.3554 34.888C91.3554 35.008 91.4074 35.14 91.5114 35.284C91.6154 35.428 91.7954 35.5 92.0514 35.5C92.3154 35.5 92.5354 35.412 92.7114 35.236C92.8874 35.052 92.9994 34.832 93.0474 34.576L93.2034 33.676Z" fill="#EF660D"/>
<path d="M98.4888 37.168C96.8248 37.168 95.9928 36.592 95.9928 35.44C95.9928 35.28 96.0088 35.108 96.0408 34.924L96.2928 33.436C96.4208 32.668 96.7688 32.08 97.3368 31.672C97.9128 31.264 98.6408 31.056 99.5208 31.048C101.225 31.048 102.077 31.64 102.077 32.824C102.077 33.08 102.045 33.312 101.981 33.52C101.925 33.72 101.865 33.856 101.801 33.928L101.705 34.048H99.6648C99.8648 33.872 99.9648 33.664 99.9648 33.424C99.9648 32.992 99.7488 32.776 99.3168 32.776C99.0608 32.776 98.8408 32.852 98.6568 33.004C98.4728 33.156 98.3528 33.388 98.2968 33.7L98.1408 34.576C98.1248 34.656 98.1168 34.732 98.1168 34.804C98.1168 35.228 98.3808 35.44 98.9088 35.44C99.0848 35.44 99.2408 35.384 99.3768 35.272C99.5208 35.16 99.6048 35.036 99.6288 34.9L101.621 34.924C101.357 36.42 100.313 37.168 98.4888 37.168Z" fill="#EF660D"/>
<path d="M108.662 32.476C108.662 32.74 108.582 32.984 108.422 33.208H106.454C106.518 33.16 106.55 33.08 106.55 32.968C106.55 32.856 106.486 32.768 106.358 32.704C106.23 32.632 106.066 32.596 105.866 32.596C105.266 32.596 104.966 32.78 104.966 33.148C104.966 33.292 105.078 33.396 105.302 33.46C105.526 33.524 105.798 33.576 106.118 33.616C106.438 33.656 106.758 33.716 107.078 33.796C107.398 33.868 107.67 34.016 107.894 34.24C108.118 34.464 108.23 34.764 108.23 35.14C108.23 35.804 107.962 36.308 107.426 36.652C106.898 36.996 106.126 37.168 105.11 37.168C104.094 37.168 103.382 37.004 102.974 36.676C102.654 36.42 102.494 36.068 102.494 35.62C102.494 35.492 102.506 35.36 102.53 35.224L104.534 35.2C104.518 35.312 104.582 35.412 104.726 35.5C104.878 35.58 105.098 35.62 105.386 35.62C105.674 35.62 105.882 35.592 106.01 35.536C106.138 35.472 106.202 35.356 106.202 35.188C106.202 35.076 106.09 35 105.866 34.96C105.642 34.912 105.366 34.872 105.038 34.84C104.718 34.808 104.394 34.756 104.066 34.684C103.746 34.612 103.474 34.46 103.25 34.228C103.026 33.996 102.914 33.692 102.914 33.316C102.914 32.588 103.194 32.028 103.754 31.636C104.322 31.244 105.138 31.048 106.202 31.048C107.842 31.048 108.662 31.524 108.662 32.476Z" fill="#EF660D"/>
</svg>
