<svg fill="none" height="80" viewBox="0 0 80 80" width="80" xmlns="http://www.w3.org/2000/svg" xmlns:xlink="http://www.w3.org/1999/xlink"><mask id="a" height="72" maskUnits="userSpaceOnUse" width="72" x="4" y="4"><path d="m4 4h72v72h-72z" fill="#c4c4c4"/></mask><g mask="url(#a)"><g fill="#000"><path d="m32.5211 40.7915v-6.6644h2.7961v6.7592c0 1.1063.5689 1.8479 1.9426 1.8479 1.296 0 1.9111-.7902 1.9111-1.8941v-6.7106h2.7961v6.6644c0 2.6065-1.5634 4.1844-4.7047 4.1844-3.1633-.0024-4.7412-1.5488-4.7412-4.1868z"/><path d="m43.2751 36.6849h2.48v1.1063h.0486c.6006-.868 1.3737-1.3422 2.4946-1.3422 1.7676 0 2.8107 1.2644 2.8107 3.0636v5.2591h-2.5748v-4.7388c0-.8534-.4255-1.4369-1.2644-1.4369-.8534 0-1.4199.7099-1.4199 1.7044v4.4688h-2.5748z"/><path d="m52.4317 33.4803h2.5748v2.0862h-2.5748zm0 3.2046h2.5748v8.0843h-2.5748z"/><path d="m57.0294 42.6394v-3.8684h-1.0747v-2.0861h1.0747v-2.5578h2.5116v2.5578h1.4686v2.0861h-1.4686v3.314c0 .6322.3477.7902.8996.7902.2213 0 .4741-.017.569-.017v1.8794c-.2213.0632-.71.1265-1.4054.1265-1.5001.0024-2.5748-.4887-2.5748-2.2247z"/><path d="m62.6045 45.433h.8851c.7586 0 1.0576-.2991 1.0576-.8534 0-.3477-.158-.8218-.4887-1.6728l-2.3852-6.2219h2.7159l1.0892 3.4428c.2529.7902.5058 1.8625.5058 1.8625h.0316s.2212-1.0747.4741-1.8625l1.0577-3.4428h2.5748l-2.7961 8.1962c-.6468 1.894-1.4224 2.5578-3.0465 2.5578h-1.6728v-2.0059z"/></g><path d="m27.0529 44.441v-10.9607l-9.4921-5.4803v4.2039l3.72 2.1469c.1337.0753.1386.2844 0 .3598l-4.4203 2.553c-.1337.0778-.2917.0729-.4157 0l-4.4203-2.553c-.1361-.0729-.1386-.2869 0-.3598l3.7176-2.1469v-4.2039l-9.4921 5.4803v10.9607l3.63978-2.1007v-4.2938c-.00243-.1532.17752-.2626.31122-.18l4.4202 2.553c.1338.0778.2091.2164.2091.3598v5.1035c.0025.1532-.1774.2626-.3112.1799l-3.72-2.1469-3.63976 2.1007 9.49216 5.4804 9.4921-5.4804-3.6398-2.1007-3.72 2.1469c-.1313.0803-.3161-.0243-.3112-.1799v-5.1035c0-.1531.0851-.2893.2091-.3598l4.4202-2.553c.1313-.0802.3161.0219.3112.18v4.2938z" fill="#4c4c4c"/><path d="m16.6515 51.4969 9.4921-5.4804-3.6398-2.1007-3.72 2.1469c-.1313.0803-.3161-.0243-.3112-.1799v-5.1035c0-.1531.0851-.2893.2091-.3598l4.4202-2.553c.1313-.0802.3161.0219.3112.18v4.2938l3.6398 2.1007v-10.9607l-10.4015 6.0055z" fill="#000"/><path d="m17.5608 28v4.2039l3.72 2.1469c.1337.0753.1386.2844 0 .3598l-4.4203 2.553c-.1337.0778-.2917.0729-.4157 0l-4.4203-2.553c-.1361-.0729-.1386-.2869 0-.3598l3.7176-2.1469v-4.2039l-9.4921 5.4803 10.4014 6.0055 10.4015-6.0055z" fill="#808080"/><path d="m14.5216 46.0627-3.7201-2.1469-3.63973 2.1007 9.49213 5.4804v-12.0111l-10.40147-6.0055v10.9607l3.63978-2.1007v-4.2938c-.00243-.1532.17749-.2626.31119-.18l4.4203 2.553c.1337.0778.2091.2164.2091.3598v5.1035c.0024.1532-.1775.2626-.3112.1799z" fill="#4c4c4c"/><g fill="#000"><path d="m73.6698 37.3146c-.0535-.124-.1265-.2334-.2213-.3282s-.2042-.1678-.3282-.2213-.2577-.0802-.4012-.0802-.2772.0267-.4012.0802-.2334.1265-.3282.2213-.1678.2042-.2213.3282-.0802.2577-.0802.4012c0 .1434.0267.2772.0802.4012s.1265.2334.2213.3282.2042.1678.3282.2213.2577.0802.4012.0802.2772-.0267.4012-.0802.2334-.1265.3282-.2213.1678-.2042.2213-.3282.0802-.2578.0802-.4012c0-.1435-.0267-.2772-.0802-.4012zm-.2723.7951c-.0706.1191-.1654.2139-.2845.2845-.1192.0705-.2504.1045-.3939.1045s-.2747-.034-.3939-.1045c-.1191-.0706-.2139-.1654-.2845-.2845-.0705-.1192-.1045-.2505-.1045-.3939 0-.1435.034-.2748.1045-.3939.0706-.1191.1654-.2139.2845-.2845.1192-.0705.2504-.1045.3939-.1045s.2747.034.3939.1045c.1191.0706.2139.1654.2845.2845.0705.1191.1045.2504.1045.3939 0 .1434-.034.2747-.1045.3939z"/><path d="m73.0814 37.7085c.034-.0486.051-.107.051-.1775 0-.0681-.017-.1264-.0486-.1702-.0316-.0462-.0705-.0778-.1167-.0997s-.0875-.0316-.1264-.0316h-.4814v.9507h.2091v-.3234h.2066l.1678.3234h.2285l-.1969-.3696c.0413-.0267.0778-.0583.107-.1021zm-.513-.3258h.1993c.0244 0 .0535.0097.0876.0316.034.0219.0486.0608.0486.1191 0 .056-.017.0997-.0486.1265-.0341.0292-.0633.0413-.0924.0413h-.1945z"/></g></g></svg>