<svg width="111" height="40" viewBox="0 0 111 40" fill="none" xmlns="http://www.w3.org/2000/svg">
<path d="M63.7201 12.6571L59.7944 18.88L61.543 25H58.2858L57.0001 20.4742H55.6458L54.8401 25H51.7544L53.9315 12.6571H57.0173L56.1087 17.8H57.2058L60.463 12.6571H63.7201Z" fill="black"/>
<path d="M71.0843 22.36C71.0843 22.6571 71.2329 22.8057 71.53 22.8057C71.8386 22.8057 72.0957 22.7485 72.3014 22.6342L72.2157 24.5714C71.6672 25.0171 71.05 25.24 70.3643 25.24C69.0729 25.24 68.37 24.7428 68.2557 23.7485C67.57 24.7428 66.6443 25.24 65.4786 25.24C64.3243 25.24 63.5757 24.9771 63.2329 24.4514C63.0043 24.12 62.89 23.7428 62.89 23.32C62.89 22.8971 62.9243 22.5085 62.9929 22.1542L63.9529 16.7542H66.8672L66.0614 21.3142C66.0272 21.52 66.01 21.7257 66.01 21.9314C66.01 22.48 66.3186 22.7542 66.9357 22.7542C67.45 22.7542 67.8614 22.5771 68.17 22.2228L69.1472 16.7542H72.0614L71.1014 22.1542C71.09 22.2228 71.0843 22.2914 71.0843 22.36Z" fill="black"/>
<path d="M81.6826 18.5028C81.6826 18.8914 81.614 19.2685 81.4769 19.6342C81.3512 20 81.2255 20.2685 81.0997 20.44L80.9112 20.68H78.3226C78.6083 20.4171 78.7512 20.0914 78.7512 19.7028C78.7512 19.4971 78.6826 19.3314 78.5455 19.2057C78.4197 19.0685 78.2426 19 78.014 19C77.6255 19 77.2883 19.1942 77.0026 19.5828L76.0426 25H73.1283L74.5855 16.7542H77.294L77.0883 17.9028C77.7397 16.9771 78.5283 16.5142 79.454 16.5142C80.1969 16.5142 80.7512 16.6914 81.1169 17.0457C81.494 17.4 81.6826 17.8857 81.6826 18.5028Z" fill="black"/>
<path d="M87.2998 16.5142C88.5341 16.5142 89.4655 16.7828 90.0941 17.32C90.5855 17.7428 90.8313 18.3314 90.8313 19.0857C90.8313 19.3371 90.8027 19.6114 90.7455 19.9085L90.3855 21.9142C90.1684 23.1257 89.6598 23.9828 88.8598 24.4857C88.0713 24.9885 87.0141 25.24 85.6884 25.24C84.3627 25.24 83.3913 24.9885 82.7741 24.4857C82.317 24.1085 82.0884 23.5428 82.0884 22.7885C82.0884 22.5257 82.117 22.2342 82.1741 21.9142L82.5341 19.9085C82.9341 17.6457 84.5227 16.5142 87.2998 16.5142ZM87.7627 20.2514C87.7855 20.1371 87.797 19.9942 87.797 19.8228C87.797 19.64 87.7227 19.44 87.5741 19.2228C87.4255 19.0057 87.1627 18.8971 86.7855 18.8971C86.4198 18.8971 86.1113 19.0228 85.8598 19.2742C85.6084 19.5142 85.4484 19.84 85.3798 20.2514L85.157 21.5371C85.1341 21.6514 85.1227 21.8 85.1227 21.9828C85.1227 22.1542 85.197 22.3428 85.3455 22.5485C85.4941 22.7542 85.7513 22.8571 86.117 22.8571C86.4941 22.8571 86.8084 22.7314 87.0598 22.48C87.3113 22.2171 87.4713 21.9028 87.5398 21.5371L87.7627 20.2514Z" fill="black"/>
<path d="M95.3133 25.24C92.9362 25.24 91.7476 24.4171 91.7476 22.7714C91.7476 22.5428 91.7705 22.2971 91.8162 22.0342L92.1762 19.9085C92.359 18.8114 92.8562 17.9714 93.6676 17.3885C94.4905 16.8057 95.5305 16.5085 96.7876 16.4971C99.2219 16.4971 100.439 17.3428 100.439 19.0342C100.439 19.4 100.393 19.7314 100.302 20.0285C100.222 20.3142 100.136 20.5085 100.045 20.6114L99.9076 20.7828H96.9933C97.279 20.5314 97.4219 20.2342 97.4219 19.8914C97.4219 19.2742 97.1133 18.9657 96.4962 18.9657C96.1305 18.9657 95.8162 19.0742 95.5533 19.2914C95.2905 19.5085 95.119 19.84 95.039 20.2857L94.8162 21.5371C94.7933 21.6514 94.7819 21.76 94.7819 21.8628C94.7819 22.4685 95.159 22.7714 95.9133 22.7714C96.1647 22.7714 96.3876 22.6914 96.5819 22.5314C96.7876 22.3714 96.9076 22.1942 96.9419 22L99.7876 22.0342C99.4105 24.1714 97.919 25.24 95.3133 25.24Z" fill="black"/>
<path d="M106.401 16.5142C107.636 16.5142 108.567 16.7828 109.196 17.32C109.687 17.7428 109.933 18.3314 109.933 19.0857C109.933 19.3371 109.904 19.6114 109.847 19.9085L109.487 21.9142C109.27 23.1257 108.761 23.9828 107.961 24.4857C107.173 24.9885 106.116 25.24 104.79 25.24C103.464 25.24 102.493 24.9885 101.876 24.4857C101.419 24.1085 101.19 23.5428 101.19 22.7885C101.19 22.5257 101.219 22.2342 101.276 21.9142L101.636 19.9085C102.036 17.6457 103.624 16.5142 106.401 16.5142ZM106.864 20.2514C106.887 20.1371 106.899 19.9942 106.899 19.8228C106.899 19.64 106.824 19.44 106.676 19.2228C106.527 19.0057 106.264 18.8971 105.887 18.8971C105.521 18.8971 105.213 19.0228 104.961 19.2742C104.71 19.5142 104.55 19.84 104.481 20.2514L104.259 21.5371C104.236 21.6514 104.224 21.8 104.224 21.9828C104.224 22.1542 104.299 22.3428 104.447 22.5485C104.596 22.7542 104.853 22.8571 105.219 22.8571C105.596 22.8571 105.91 22.7314 106.161 22.48C106.413 22.2171 106.573 21.9028 106.641 21.5371L106.864 20.2514Z" fill="black"/>
<path d="M26.5741 0H13.4214C12.3287 0 11.2808 0.434442 10.506 1.20479L1.20466 10.5072C0.434393 11.2821 0 12.3301 0 13.4229V26.5771C0 27.6699 0.434393 28.718 1.20466 29.4928L10.506 38.7952C11.2808 39.57 12.3287 40 13.4214 40H26.5741C27.6668 40 28.7147 39.5656 29.4895 38.7952L38.7909 29.4928C39.5656 28.718 39.9955 27.6699 39.9955 26.5771V13.4229C39.9955 12.3301 39.5611 11.2821 38.7909 10.5072L29.485 1.20479C28.7147 0.434442 27.6668 0 26.5741 0Z" fill="white"/>
<path d="M29.0103 39.2073C28.2222 39.7313 27.6892 39.7582 27.1474 39.4133C27.0265 39.3372 26.8921 39.1983 26.8249 39.0864C26.7578 38.9654 26.5562 38.3384 26.3323 37.5277C25.992 36.2871 25.9472 36.1617 25.8531 36.1348C25.6248 36.0632 23.9096 35.9288 22.172 35.8482L21.6033 35.8213L21.76 36.1035C22.1048 36.7081 22.4228 37.4695 22.7004 38.3563C22.8079 38.7012 22.8796 38.9968 22.8661 39.0147C22.8303 39.0505 20.8375 39.5969 20.8151 39.579C20.8061 39.5701 20.73 39.3282 20.6449 39.0416C20.2777 37.8323 19.8523 36.9993 19.1895 36.1752L18.9118 35.8258L18.7819 35.893C18.6073 35.9826 18.1908 36.4528 17.9042 36.8828C17.6131 37.3217 17.2101 38.1548 16.9235 38.9162C16.807 39.2252 16.6995 39.4939 16.6816 39.5118C16.6548 39.5387 14.7515 38.8669 14.6709 38.7997C14.6082 38.7549 15.5083 36.6813 15.8576 36.0453C15.8666 36.0318 15.8173 36.0274 15.7501 36.0318C15.6785 36.0408 15.2128 36.0901 14.7067 36.1393C14.2007 36.1886 13.7484 36.2513 13.6946 36.2692C13.5961 36.314 13.5334 36.4708 13.0453 37.8547C12.7273 38.7639 12.7004 38.8221 12.4586 39.0237C12.1003 39.3327 11.5316 39.4895 11.0972 39.2745C11.0972 39.2745 12.0287 40.009 13.5065 40C15.3874 39.9911 26.8384 40 26.8384 40C26.8384 40 27.9803 39.9642 29.0103 39.2073ZM20.7524 12.9392C24.3395 13.1229 26.4085 13.8171 27.0085 15.0398C27.1205 15.2592 27.1339 15.3399 27.1339 15.7161C27.1339 16.1057 27.1205 16.1684 26.9862 16.4416C26.807 16.8044 26.395 17.2075 25.9382 17.4583C25.0112 17.9734 23.5065 18.2376 22.0959 18.1346C20.936 18.0495 20.1747 17.8659 19.2029 17.4225C18.9745 17.324 18.7506 17.2389 18.6969 17.2389C18.6431 17.2389 18.4147 17.3195 18.1863 17.4135C17.2145 17.8301 16.3413 17.9823 15.1321 17.942C13.3722 17.8838 12.2033 17.3732 11.7824 16.4864C11.6615 16.2222 11.6525 16.1729 11.6749 15.8594C11.7913 14.2291 13.0766 13.3737 15.8935 13.0512C17.1563 12.9079 19.1984 12.8586 20.7524 12.9392ZM35.4008 32.8967C35.3829 32.8832 35.0784 32.7847 34.8814 32.7131C33.9902 32.3995 33.2692 31.983 32.0824 31.1052C30.4389 29.878 29.7493 29.5331 28.5715 29.345C28.1863 29.2823 28.043 29.2823 27.6042 29.3271C27.0892 29.3764 26.6279 29.4749 26.086 29.654L25.7994 29.7481L25.8308 30.2229C25.8442 30.4826 25.8711 31.4321 25.889 32.3279L25.9158 33.9582L25.7188 33.9268C25.6113 33.9134 25.1501 33.8686 24.6933 33.8328C21.4644 33.573 17.64 33.6312 14.438 33.9895C14.0081 34.0388 13.6364 34.0791 13.614 34.0791C13.5692 34.0791 13.6095 32.0771 13.6767 30.9663C13.8469 28.3104 14.2096 26.5503 14.756 25.7709C14.8545 25.6321 14.9306 25.5112 14.9217 25.5022C14.9127 25.4977 14.7784 25.4306 14.6171 25.3544C14.4559 25.2783 14.1111 25.0902 13.8514 24.9334C11.545 23.545 10.0583 21.2922 9.70895 18.6586C9.61042 17.9286 9.64625 16.5939 9.77612 15.8101C10.3807 12.2674 12.3556 9.41444 15.3561 7.75729C16.4264 7.16161 17.9669 6.72269 19.9015 6.45844C20.6046 6.36439 22.6019 6.35095 23.305 6.43605C26.2696 6.80331 28.8805 8.05289 31.0703 10.149C31.5316 10.5924 31.6436 10.8029 31.648 11.2104C31.6525 11.6897 31.5406 11.8599 30.7524 12.6123C29.8254 13.4946 29.5298 13.9156 29.5298 14.3724C29.5298 14.4665 29.5791 14.7711 29.6373 15.0532C30.0538 16.9836 30.009 18.6228 29.4985 20.2173C29.3193 20.7726 28.97 21.534 28.6655 22.0312C28.5535 22.2148 28.4685 22.3716 28.4729 22.376C28.4819 22.385 28.7461 22.3581 29.0641 22.3223C30.5733 22.1476 31.957 22.3044 33.2871 22.8015C33.8693 23.021 34.5903 23.2091 35.262 23.3166C35.674 23.3793 36.0278 23.3972 37.0533 23.3972C38.3072 23.3927 39.0372 23.2807 40 23.1105C40 23.1105 39.9956 25.9411 39.9956 26.492C39.9956 27.0429 39.906 27.446 39.906 27.446C38.1819 27.8849 36.0547 27.7685 34.7381 27.3385C34.4828 27.2534 33.8827 27.025 33.399 26.8235C31.9794 26.2323 31.2584 26.0352 30.2016 25.9277C29.6059 25.8695 29.0327 25.874 28.7103 25.9456C28.3341 26.0262 28.3431 26.0621 28.7461 26.0621C29.5074 26.0621 30.4523 26.2726 31.357 26.6398C32.0332 26.913 32.5034 27.1683 33.3453 27.7282C34.9664 28.8031 36.4935 29.4032 38.8357 29.448L35.4008 32.8967ZM17.7295 26.3308C18.0296 26.3801 18.6834 26.4472 19.1895 26.4786L20.1075 26.5323L19.1223 27.7506C18.5759 28.4179 18.1236 28.9688 18.1102 28.9688C18.0968 28.9733 17.949 28.6553 17.7878 28.2656C17.6221 27.8805 17.3578 27.2534 17.1966 26.8727L16.9055 26.183L17.0488 26.2099C17.1295 26.2233 17.434 26.2771 17.7295 26.3308Z" fill="black"/>
<path d="M20.8062 12.8989C24.3933 13.0825 26.4622 13.7767 27.0623 14.9995C27.1743 15.2189 27.1877 15.2995 27.1877 15.6758C27.1877 16.0654 27.1743 16.1281 27.0399 16.4013C26.8608 16.7641 26.4488 17.1672 25.992 17.418C25.065 17.9331 23.5603 18.1973 22.1496 18.0943C20.9898 18.0092 20.2285 17.8256 19.2567 17.3822C19.0283 17.2836 18.8044 17.1985 18.7506 17.1985C18.6969 17.1985 18.4685 17.2792 18.2401 17.3732C17.2683 17.7897 16.3951 17.942 15.1859 17.9017C13.426 17.8435 12.2571 17.3329 11.8362 16.4461C11.7153 16.1819 11.7063 16.1326 11.7287 15.8191C11.8451 14.1888 13.1304 13.3333 15.9472 13.0109C17.2101 12.8676 19.2522 12.8183 20.8062 12.8989Z" fill="white"/>
<path d="M17.7295 26.3308C18.0296 26.3801 18.6834 26.4472 19.1894 26.4786L20.1075 26.5323L19.1223 27.7505C18.5759 28.4179 18.1236 28.9688 18.1102 28.9688C18.0967 28.9732 17.949 28.6552 17.7877 28.2656C17.622 27.8804 17.3578 27.2534 17.1966 26.8727L16.9055 26.183L17.0488 26.2099C17.1294 26.2233 17.434 26.277 17.7295 26.3308Z" fill="white"/>
<path d="M14.7021 14.2784C14.3707 14.4352 14.1826 14.6277 14.0259 14.9726C13.9229 15.2055 13.9094 15.2727 13.9273 15.5996C13.9587 16.1595 14.2139 16.5491 14.7021 16.791C15.0156 16.9433 15.5395 16.9478 15.8754 16.7955C16.1486 16.6745 16.4396 16.3789 16.574 16.0833C16.7218 15.7609 16.7083 15.2369 16.5471 14.9189C16.1889 14.2291 15.3872 13.9514 14.7021 14.2784Z" fill="black"/>
<path d="M21.9435 14.2246C21.6793 14.3187 21.2942 14.6815 21.1822 14.9457C20.8777 15.6578 21.1553 16.4461 21.836 16.7775C22.051 16.885 22.1495 16.9029 22.4496 16.9029C22.7496 16.9029 22.8481 16.885 23.0631 16.7775C23.7348 16.4506 24.0304 15.5996 23.708 14.9367C23.5602 14.6322 23.2153 14.3142 22.9332 14.2201C22.6735 14.1306 22.1988 14.135 21.9435 14.2246Z" fill="black"/>
<path d="M86.112 28.36C87.16 28.36 87.908 28.624 88.356 29.152C88.684 29.552 88.848 30.052 88.848 30.652C88.848 30.868 88.828 31.096 88.788 31.336L88.32 34.012C88.16 34.916 87.768 35.64 87.144 36.184C86.52 36.728 85.712 37 84.72 37H81.228L82.752 28.36H86.112ZM85.356 30.232H84.576L83.724 35.128H84.864C85.24 35.128 85.532 35.028 85.74 34.828C85.956 34.62 86.104 34.284 86.184 33.82L86.532 31.852C86.564 31.676 86.58 31.516 86.58 31.372C86.58 30.612 86.172 30.232 85.356 30.232Z" fill="#EF660D"/>
<path d="M92.8794 31.06C93.7434 31.06 94.3954 31.248 94.8354 31.624C95.1794 31.92 95.3514 32.332 95.3514 32.86C95.3514 33.036 95.3314 33.228 95.2914 33.436L95.0394 34.84C94.8874 35.688 94.5314 36.288 93.9714 36.64C93.4194 36.992 92.6794 37.168 91.7514 37.168C90.8234 37.168 90.1434 36.992 89.7114 36.64C89.3914 36.376 89.2314 35.98 89.2314 35.452C89.2314 35.268 89.2514 35.064 89.2914 34.84L89.5434 33.436C89.8234 31.852 90.9354 31.06 92.8794 31.06ZM93.2034 33.676C93.2194 33.596 93.2274 33.496 93.2274 33.376C93.2274 33.248 93.1754 33.108 93.0714 32.956C92.9674 32.804 92.7834 32.728 92.5194 32.728C92.2634 32.728 92.0474 32.816 91.8714 32.992C91.6954 33.16 91.5834 33.388 91.5354 33.676L91.3794 34.576C91.3634 34.656 91.3554 34.76 91.3554 34.888C91.3554 35.008 91.4074 35.14 91.5114 35.284C91.6154 35.428 91.7954 35.5 92.0514 35.5C92.3154 35.5 92.5354 35.412 92.7114 35.236C92.8874 35.052 92.9994 34.832 93.0474 34.576L93.2034 33.676Z" fill="#EF660D"/>
<path d="M98.4888 37.168C96.8248 37.168 95.9928 36.592 95.9928 35.44C95.9928 35.28 96.0088 35.108 96.0408 34.924L96.2928 33.436C96.4208 32.668 96.7688 32.08 97.3368 31.672C97.9128 31.264 98.6408 31.056 99.5208 31.048C101.225 31.048 102.077 31.64 102.077 32.824C102.077 33.08 102.045 33.312 101.981 33.52C101.925 33.72 101.865 33.856 101.801 33.928L101.705 34.048H99.6648C99.8648 33.872 99.9648 33.664 99.9648 33.424C99.9648 32.992 99.7488 32.776 99.3168 32.776C99.0608 32.776 98.8408 32.852 98.6568 33.004C98.4728 33.156 98.3528 33.388 98.2968 33.7L98.1408 34.576C98.1248 34.656 98.1168 34.732 98.1168 34.804C98.1168 35.228 98.3808 35.44 98.9088 35.44C99.0848 35.44 99.2408 35.384 99.3768 35.272C99.5208 35.16 99.6048 35.036 99.6288 34.9L101.621 34.924C101.357 36.42 100.313 37.168 98.4888 37.168Z" fill="#EF660D"/>
<path d="M108.662 32.476C108.662 32.74 108.582 32.984 108.422 33.208H106.454C106.518 33.16 106.55 33.08 106.55 32.968C106.55 32.856 106.486 32.768 106.358 32.704C106.23 32.632 106.066 32.596 105.866 32.596C105.266 32.596 104.966 32.78 104.966 33.148C104.966 33.292 105.078 33.396 105.302 33.46C105.526 33.524 105.798 33.576 106.118 33.616C106.438 33.656 106.758 33.716 107.078 33.796C107.398 33.868 107.67 34.016 107.894 34.24C108.118 34.464 108.23 34.764 108.23 35.14C108.23 35.804 107.962 36.308 107.426 36.652C106.898 36.996 106.126 37.168 105.11 37.168C104.094 37.168 103.382 37.004 102.974 36.676C102.654 36.42 102.494 36.068 102.494 35.62C102.494 35.492 102.506 35.36 102.53 35.224L104.534 35.2C104.518 35.312 104.582 35.412 104.726 35.5C104.878 35.58 105.098 35.62 105.386 35.62C105.674 35.62 105.882 35.592 106.01 35.536C106.138 35.472 106.202 35.356 106.202 35.188C106.202 35.076 106.09 35 105.866 34.96C105.642 34.912 105.366 34.872 105.038 34.84C104.718 34.808 104.394 34.756 104.066 34.684C103.746 34.612 103.474 34.46 103.25 34.228C103.026 33.996 102.914 33.692 102.914 33.316C102.914 32.588 103.194 32.028 103.754 31.636C104.322 31.244 105.138 31.048 106.202 31.048C107.842 31.048 108.662 31.524 108.662 32.476Z" fill="#EF660D"/>
</svg>
