<svg fill="none" height="80" viewBox="0 0 80 80" width="80" xmlns="http://www.w3.org/2000/svg"><path d="m18.3219 50.5004h3.6312v-15.4h-3.6312zm1.8156-17.4125c1.1375 0 2.0125-.875 2.0125-1.9688 0-1.0937-.875-1.9687-2.0125-1.9687s-2.0125.875-2.0125 1.9687c0 1.0938.875 1.9688 2.0125 1.9688zm13.8469-3.8938c-6.1031 0-9.9531 4.1563-9.9531 10.8063 0 6.6937 3.85 10.85 9.9531 10.85s9.9531-4.1563 9.9531-10.85c0-6.65-3.85-10.8063-9.9531-10.8063zm0 3.15c3.7406 0 6.125 2.9969 6.125 7.6563 0 4.7031-2.3844 7.6562-6.125 7.6562s-6.1031-2.9531-6.1031-7.6562c0-4.6594 2.3625-7.6563 6.1031-7.6563zm11.4844 12.2719c.1531 3.85 3.2812 6.2344 8.1375 6.2344 5.075 0 8.2687-2.4938 8.2687-6.475 0-3.1281-1.7937-4.8781-6.0594-5.8625l-2.4062-.5469c-2.5813-.6125-3.6313-1.4219-3.6313-2.8219 0-1.7062 1.5969-2.9093 3.9594-2.9093 2.4063 0 4.0469 1.2031 4.2219 3.15h3.5656c-.0875-3.6969-3.1281-6.1907-7.7656-6.1907-4.55 0-7.7875 2.5157-7.7875 6.2344 0 2.9969 1.8156 4.8563 5.6875 5.7313l2.7125.6343c2.6469.6344 3.7187 1.4875 3.7187 3.0188 0 1.75-1.75 2.9969-4.2875 2.9969s-4.4843-1.2469-4.7031-3.1938z" fill="#000"/></svg>