<svg xmlns="http://www.w3.org/2000/svg" xmlns:xlink="http://www.w3.org/1999/xlink" width="160" height="59.731" viewBox="0 0 160 59.731">
  <defs>
    <clipPath id="clip-path">
      <rect id="長方形_527" data-name="長方形 527" width="160" height="59.731" transform="translate(0 0)" fill="none"/>
    </clipPath>
  </defs>
  <g id="グループ_1112" data-name="グループ 1112" transform="translate(0 0)">
    <path id="パス_219" data-name="パス 219" d="M6.039,52.887H2.412v4.124H1.028V47.573H2.412v4.046H6.039V47.573H7.423v9.438H6.039Z" fill="#005587"/>
    <g id="グループ_1111" data-name="グループ 1111">
      <g id="グループ_1110" data-name="グループ 1110" clip-path="url(#clip-path)">
        <path id="パス_220" data-name="パス 220" d="M10.22,54.162a1.6,1.6,0,0,0,.452,1.231,1.479,1.479,0,0,0,1.1.428,1.932,1.932,0,0,0,1.425-.654l.947.835A3.027,3.027,0,0,1,11.8,57.089a3.274,3.274,0,0,1-1-.156,2.354,2.354,0,0,1-.477-.226,2.285,2.285,0,0,1-.457-.3A2.674,2.674,0,0,1,9.2,55.354a4.256,4.256,0,0,1-.282-1.683,4.814,4.814,0,0,1,.244-1.657,2.9,2.9,0,0,1,.627-1.062,2.322,2.322,0,0,1,.871-.57,2.732,2.732,0,0,1,.941-.175,2.659,2.659,0,0,1,1.886.758,2.8,2.8,0,0,1,.8,2.085v1.112Zm2.753-1.112a1.748,1.748,0,0,0-.409-1.19,1.411,1.411,0,0,0-1.935,0,1.83,1.83,0,0,0-.409,1.19Z" fill="#005587"/>
        <path id="パス_221" data-name="パス 221" d="M19.285,56.416H19.26a1.091,1.091,0,0,1-.564.5,2.6,2.6,0,0,1-1.041.168,2.322,2.322,0,0,1-1.679-.6,1.887,1.887,0,0,1-.621-1.456,1.94,1.94,0,0,1,.539-1.4,2.113,2.113,0,0,1,1.58-.582h1.811v-.709q.014-.891-1.336-.866a2.305,2.305,0,0,0-.771.1.961.961,0,0,0-.464.417l-1.028-.81a2.506,2.506,0,0,1,2.2-.979,3.407,3.407,0,0,1,1.961.479,1.984,1.984,0,0,1,.746,1.735v4.59H19.285Zm0-2.254h-1.57q-1.145.026-1.131.81a.729.729,0,0,0,.3.583,1.347,1.347,0,0,0,.936.266,2.247,2.247,0,0,0,1.162-.2q.307-.214.308-.972Z" fill="#005587"/>
        <path id="パス_222" data-name="パス 222" d="M22.5,47.572H23.8v7.71q0,.46.49.461h.453v1.268h-.583a1.838,1.838,0,0,1-1.178-.368,1.484,1.484,0,0,1-.489-1.257Z" fill="#005587"/>
        <path id="パス_223" data-name="パス 223" d="M26.257,48.246h1.307v2.045h.953v1.036h-.953v3.918q-.013.511.464.5h.489v1.268h-.683a1.521,1.521,0,0,1-1.126-.439,1.58,1.58,0,0,1-.451-1.216V51.327H25.6V50.291h.656Z" fill="#005587"/>
        <path id="パス_224" data-name="パス 224" d="M30.128,47.572h1.307V51h.025a2.071,2.071,0,0,1,1.691-.8,2.19,2.19,0,0,1,1.479.589,2.316,2.316,0,0,1,.695,1.748v4.467H34.019V53.005a1.473,1.473,0,0,0-.364-1.076,1.214,1.214,0,0,0-.922-.376,1.234,1.234,0,0,0-.928.376,1.455,1.455,0,0,0-.37,1.076v4.006H30.128Z" fill="#005587"/>
        <path id="パス_225" data-name="パス 225" d="M36.311,50.291H37.7L39.237,55h.025L40.8,50.291h1.391l-2.8,8.112a1.926,1.926,0,0,1-.745,1.049,2.148,2.148,0,0,1-1.09.279h-.433V58.462H37.5a.855.855,0,0,0,.476-.143.779.779,0,0,0,.307-.441l.358-1.128Z" fill="#005587"/>
        <path id="パス_226" data-name="パス 226" d="M51.44,52.887H47.814v4.124H46.429V47.573h1.385v4.046H51.44V47.573h1.384v9.438H51.44Z" fill="#005587"/>
        <path id="パス_227" data-name="パス 227" d="M58.057,56.416h-.025a1.091,1.091,0,0,1-.564.5,2.6,2.6,0,0,1-1.041.168,2.322,2.322,0,0,1-1.679-.6,1.887,1.887,0,0,1-.621-1.456,1.94,1.94,0,0,1,.539-1.4,2.113,2.113,0,0,1,1.58-.582h1.811v-.709q.014-.891-1.336-.866a2.305,2.305,0,0,0-.771.1.961.961,0,0,0-.464.417l-1.028-.81a2.506,2.506,0,0,1,2.2-.979,3.407,3.407,0,0,1,1.961.479,1.984,1.984,0,0,1,.746,1.735v4.59H58.057Zm0-2.254h-1.57q-1.145.026-1.131.81a.729.729,0,0,0,.3.583,1.347,1.347,0,0,0,.936.266,2.247,2.247,0,0,0,1.162-.2q.307-.214.308-.972Z" fill="#005587"/>
        <path id="パス_228" data-name="パス 228" d="M61.268,47.572h1.306V51a3.289,3.289,0,0,1,.784-.583,1.843,1.843,0,0,1,.9-.214A2,2,0,0,1,66,51.088a1.782,1.782,0,0,1,.369.835,10.792,10.792,0,0,1,.094,1.722,10.755,10.755,0,0,1-.094,1.709,1.816,1.816,0,0,1-.37.861,1.956,1.956,0,0,1-.708.621,2.22,2.22,0,0,1-2.719-.527v.7H61.268Zm2.593,3.981a1.151,1.151,0,0,0-.7.189,1.092,1.092,0,0,0-.4.493,2.532,2.532,0,0,0-.157.663,7.165,7.165,0,0,0,0,1.474,2.545,2.545,0,0,0,.157.682,1.1,1.1,0,0,0,.4.494,1.125,1.125,0,0,0,.7.195,1.3,1.3,0,0,0,.733-.182,1.034,1.034,0,0,0,.383-.48,2.558,2.558,0,0,0,.169-.689q.012-.365.012-.747,0-.4-.012-.786a2.53,2.53,0,0,0-.169-.663.959.959,0,0,0-.383-.481,1.422,1.422,0,0,0-.733-.162" fill="#005587"/>
        <path id="パス_229" data-name="パス 229" d="M67.923,47.573H69.23v1.346H67.923Zm0,2.718H69.23v6.72H67.923Z" fill="#005587"/>
        <path id="パス_230" data-name="パス 230" d="M71.406,48.246h1.307v2.045h.953v1.036h-.953v3.918c-.009.341.145.507.464.5h.489v1.268h-.683a1.521,1.521,0,0,1-1.126-.439,1.58,1.58,0,0,1-.451-1.216V51.327H70.75V50.291h.656Z" fill="#005587"/>
        <path id="パス_231" data-name="パス 231" d="M75.2,54.959a2.685,2.685,0,0,0,2.062.861,1.706,1.706,0,0,0,.925-.226.714.714,0,0,0,.358-.635.562.562,0,0,0-.214-.505,1.1,1.1,0,0,0-.584-.162l-1.156-.1a2.166,2.166,0,0,1-1.338-.57,1.756,1.756,0,0,1-.541-1.34,1.842,1.842,0,0,1,.71-1.554,2.744,2.744,0,0,1,1.719-.518,5.067,5.067,0,0,1,.81.058,3.9,3.9,0,0,1,.671.181,3.806,3.806,0,0,1,1.079.68l-.81.977a4.06,4.06,0,0,0-.8-.465,2.614,2.614,0,0,0-.955-.163,1.268,1.268,0,0,0-.861.227.741.741,0,0,0-.258.583.459.459,0,0,0,.195.4,1.111,1.111,0,0,0,.666.24l1.08.084a2,2,0,0,1,1.471.635,2.2,2.2,0,0,1,.42,1.381,1.763,1.763,0,0,1-.771,1.51,3.265,3.265,0,0,1-1.926.557,4.069,4.069,0,0,1-2.866-1.2Z" fill="#005587"/>
        <path id="パス_232" data-name="パス 232" d="M84.762,51.327H84.1V50.291h.66V49.4a1.79,1.79,0,0,1,.513-1.412,1.9,1.9,0,0,1,1.26-.42h.846v1.268h-.747q-.593-.02-.566.56v.89h1.313v1.036H86.068v5.684H84.762Z" fill="#005587"/>
        <path id="パス_233" data-name="パス 233" d="M87.914,53.645a6.106,6.106,0,0,1,.169-1.635,2.387,2.387,0,0,1,.54-.94,2.462,2.462,0,0,1,.752-.6,2.729,2.729,0,0,1,1.223-.264,2.764,2.764,0,0,1,1.248.266,2.344,2.344,0,0,1,.727.6,2.119,2.119,0,0,1,.55.939,6.466,6.466,0,0,1,.157,1.631,6.369,6.369,0,0,1-.157,1.619,2.322,2.322,0,0,1-.552.964,2.059,2.059,0,0,1-.307.292,1.428,1.428,0,0,1-.42.278,2.541,2.541,0,0,1-1.247.291,2.677,2.677,0,0,1-1.975-.861,2.62,2.62,0,0,1-.539-.964,5.894,5.894,0,0,1-.169-1.619m4.059.013a6.23,6.23,0,0,0-.063-1.052,1.246,1.246,0,0,0-.258-.559.962.962,0,0,0-.427-.357,1.373,1.373,0,0,0-.628-.137,1.4,1.4,0,0,0-.616.137,1.172,1.172,0,0,0-.44.357,1.586,1.586,0,0,0-.245.559,5.163,5.163,0,0,0-.075,1.039,5.04,5.04,0,0,0,.075,1.027,1.731,1.731,0,0,0,.245.584,1.592,1.592,0,0,0,.44.344,1.339,1.339,0,0,0,.616.143,1.314,1.314,0,0,0,.628-.143,1.224,1.224,0,0,0,.427-.344,1.351,1.351,0,0,0,.258-.584,5.867,5.867,0,0,0,.063-1.014" fill="#005587"/>
        <path id="パス_234" data-name="パス 234" d="M94.867,50.291h1.306V51H96.2a2.141,2.141,0,0,1,3.061-.281l-.954,1.168a1.349,1.349,0,0,0-.86-.338,1.209,1.209,0,0,0-.86.337,1.342,1.342,0,0,0-.415,1.069v4.052H94.867Z" fill="#005587"/>
        <path id="パス_235" data-name="パス 235" d="M108.333,52.887h-3.627v4.124h-1.384V47.573h1.384v4.046h3.627V47.573h1.384v9.438h-1.384Z" fill="#005587"/>
        <path id="パス_236" data-name="パス 236" d="M115.214,56.416h-.025a1.091,1.091,0,0,1-.564.5,2.594,2.594,0,0,1-1.04.168,2.325,2.325,0,0,1-1.68-.6,1.886,1.886,0,0,1-.62-1.456,1.936,1.936,0,0,1,.539-1.4,2.109,2.109,0,0,1,1.579-.582h1.811v-.709q.014-.891-1.336-.866a2.309,2.309,0,0,0-.771.1.965.965,0,0,0-.464.417l-1.028-.81a2.506,2.506,0,0,1,2.2-.979,3.407,3.407,0,0,1,1.961.479,1.984,1.984,0,0,1,.746,1.735v4.59h-1.307Zm0-2.254h-1.57c-.762.017-1.14.287-1.13.81a.726.726,0,0,0,.295.583,1.343,1.343,0,0,0,.935.266,2.244,2.244,0,0,0,1.162-.2q.309-.214.308-.972Z" fill="#005587"/>
        <path id="パス_237" data-name="パス 237" d="M118.16,50.291h1.307v.7a2.224,2.224,0,0,1,1.68-.784,2,2,0,0,1,1.748.881,1.792,1.792,0,0,1,.369.835,11.031,11.031,0,0,1,.094,1.735,10.724,10.724,0,0,1-.1,1.709,1.88,1.88,0,0,1-.369.848,1.976,1.976,0,0,1-.708.622,2.228,2.228,0,0,1-1.04.252,1.767,1.767,0,0,1-.9-.226,2.838,2.838,0,0,1-.783-.566v3.434H118.16Zm2.593,5.452a1.3,1.3,0,0,0,.734-.182,1.026,1.026,0,0,0,.382-.48,2.547,2.547,0,0,0,.169-.676c.009-.242.013-.492.013-.747s0-.53-.013-.786a2.382,2.382,0,0,0-.169-.676.952.952,0,0,0-.382-.481,1.424,1.424,0,0,0-.734-.162,1.155,1.155,0,0,0-.7.189,1.105,1.105,0,0,0-.395.493,2.614,2.614,0,0,0-.157.663c-.024.251-.037.505-.037.76a7.115,7.115,0,0,0,.037.714,2.624,2.624,0,0,0,.157.682,1.108,1.108,0,0,0,.395.494,1.129,1.129,0,0,0,.7.195" fill="#005587"/>
        <path id="パス_238" data-name="パス 238" d="M124.777,50.291h1.306v.7a2.224,2.224,0,0,1,1.68-.784,2,2,0,0,1,1.748.881,1.782,1.782,0,0,1,.369.835,10.908,10.908,0,0,1,.094,1.735,10.756,10.756,0,0,1-.094,1.709,1.881,1.881,0,0,1-.37.848,1.968,1.968,0,0,1-.708.622,2.228,2.228,0,0,1-1.04.252,1.767,1.767,0,0,1-.9-.226,2.838,2.838,0,0,1-.783-.566v3.434h-1.306Zm2.592,5.452a1.3,1.3,0,0,0,.734-.182,1.034,1.034,0,0,0,.383-.48,2.585,2.585,0,0,0,.169-.676c.008-.242.013-.492.013-.747s-.005-.53-.013-.786a2.415,2.415,0,0,0-.169-.676.959.959,0,0,0-.383-.481,1.424,1.424,0,0,0-.734-.162,1.155,1.155,0,0,0-.7.189,1.1,1.1,0,0,0-.394.493,2.532,2.532,0,0,0-.157.663c-.025.251-.038.505-.038.76a6.831,6.831,0,0,0,.038.714,2.545,2.545,0,0,0,.157.682,1.1,1.1,0,0,0,.394.494,1.129,1.129,0,0,0,.7.195" fill="#005587"/>
        <path id="パス_239" data-name="パス 239" d="M131.7,47.573H133v1.346H131.7Zm0,2.718H133v6.72H131.7Z" fill="#005587"/>
        <path id="パス_240" data-name="パス 240" d="M134.837,50.291h1.307V51h.025a2.072,2.072,0,0,1,1.691-.8,2.19,2.19,0,0,1,1.479.589,2.319,2.319,0,0,1,.7,1.748v4.467h-1.307V53.005a1.471,1.471,0,0,0-.364-1.076,1.216,1.216,0,0,0-.922-.376,1.237,1.237,0,0,0-.928.376,1.456,1.456,0,0,0-.37,1.076v4.006h-1.307Z" fill="#005587"/>
        <path id="パス_241" data-name="パス 241" d="M142.677,54.162a1.6,1.6,0,0,0,.451,1.231,1.48,1.48,0,0,0,1.1.428,1.93,1.93,0,0,0,1.424-.654L146.6,56a3.029,3.029,0,0,1-2.345,1.087,3.279,3.279,0,0,1-1-.156,2.321,2.321,0,0,1-.476-.226,2.292,2.292,0,0,1-.458-.3,2.674,2.674,0,0,1-.671-1.049,4.256,4.256,0,0,1-.282-1.683,4.788,4.788,0,0,1,.245-1.657,2.888,2.888,0,0,1,.627-1.062,2.314,2.314,0,0,1,.871-.57,2.722,2.722,0,0,1,.94-.175,2.662,2.662,0,0,1,1.887.758,2.807,2.807,0,0,1,.8,2.085v1.112Zm2.752-1.112a1.747,1.747,0,0,0-.408-1.19,1.412,1.412,0,0,0-1.936,0,1.836,1.836,0,0,0-.408,1.19Z" fill="#005587"/>
        <path id="パス_242" data-name="パス 242" d="M148.513,54.959a2.685,2.685,0,0,0,2.062.861,1.7,1.7,0,0,0,.924-.226.712.712,0,0,0,.358-.635.563.563,0,0,0-.213-.505,1.1,1.1,0,0,0-.584-.162l-1.157-.1a2.166,2.166,0,0,1-1.337-.57,1.749,1.749,0,0,1-.541-1.34,1.841,1.841,0,0,1,.709-1.554,2.747,2.747,0,0,1,1.72-.518,5.067,5.067,0,0,1,.81.058,3.9,3.9,0,0,1,.671.181,3.835,3.835,0,0,1,1.079.68l-.81.977a4.039,4.039,0,0,0-.8-.465,2.605,2.605,0,0,0-.954-.163,1.273,1.273,0,0,0-.862.227.74.74,0,0,0-.257.583.46.46,0,0,0,.194.4,1.117,1.117,0,0,0,.667.24l1.08.084a2,2,0,0,1,1.471.635,2.2,2.2,0,0,1,.42,1.381,1.763,1.763,0,0,1-.771,1.51,3.265,3.265,0,0,1-1.926.557,4.072,4.072,0,0,1-2.867-1.2Z" fill="#005587"/>
        <path id="パス_243" data-name="パス 243" d="M154.876,54.959a2.686,2.686,0,0,0,2.062.861,1.7,1.7,0,0,0,.924-.226.711.711,0,0,0,.359-.635.563.563,0,0,0-.213-.505,1.109,1.109,0,0,0-.585-.162l-1.156-.1a2.166,2.166,0,0,1-1.338-.57,1.752,1.752,0,0,1-.541-1.34,1.839,1.839,0,0,1,.71-1.554,2.744,2.744,0,0,1,1.719-.518,5.067,5.067,0,0,1,.81.058,3.9,3.9,0,0,1,.671.181,3.807,3.807,0,0,1,1.079.68l-.81.977a4.031,4.031,0,0,0-.8-.465,2.614,2.614,0,0,0-.955-.163,1.268,1.268,0,0,0-.861.227.741.741,0,0,0-.258.583.459.459,0,0,0,.195.4,1.111,1.111,0,0,0,.666.24l1.08.084a2,2,0,0,1,1.471.635,2.2,2.2,0,0,1,.421,1.381,1.766,1.766,0,0,1-.772,1.51,3.265,3.265,0,0,1-1.926.557,4.072,4.072,0,0,1-2.867-1.2Z" fill="#005587"/>
        <path id="パス_244" data-name="パス 244" d="M132.418,7.713V1.66A1.666,1.666,0,0,0,130.757,0H107.579a1.664,1.664,0,0,0-1.658,1.66V7.713a1.664,1.664,0,0,0,1.658,1.66h6.1V38.119a1.664,1.664,0,0,0,1.662,1.656H123a1.66,1.66,0,0,0,1.66-1.656V9.373h6.1a1.666,1.666,0,0,0,1.661-1.66" fill="#005587"/>
        <path id="パス_245" data-name="パス 245" d="M159.947,37.573,150.913,1.491A1.969,1.969,0,0,0,149,0h-9.2a1.97,1.97,0,0,0-1.91,1.491l-9.034,36.082a1.771,1.771,0,0,0,1.719,2.2h6.344a1.969,1.969,0,0,0,1.935-1.6l1.074-5.713h8.947l1.074,5.713a1.97,1.97,0,0,0,1.935,1.6h6.345a1.772,1.772,0,0,0,1.719-2.2m-18.774-11.74L144.4,8.665l3.228,17.168Z" fill="#005587"/>
        <path id="パス_246" data-name="パス 246" d="M100.954,0H94.023a1.954,1.954,0,0,0-1.948,1.952V37.825a1.951,1.951,0,0,0,1.948,1.95h6.931a1.956,1.956,0,0,0,1.952-1.95V1.952A1.959,1.959,0,0,0,100.954,0M99.46,34.36a1.975,1.975,0,0,1-1.969,1.969h0A1.975,1.975,0,0,1,95.52,34.36V5.414a1.975,1.975,0,0,1,1.969-1.969h0A1.975,1.975,0,0,1,99.46,5.414Z" fill="#005587"/>
        <path id="パス_247" data-name="パス 247" d="M85.521,0H78.593a1.959,1.959,0,0,0-1.951,1.952v16.22l-7.9-16.41A3.392,3.392,0,0,0,65.952,0h-7.76a1.956,1.956,0,0,0-1.947,1.952V37.825a1.953,1.953,0,0,0,1.947,1.95h6.935a1.955,1.955,0,0,0,1.951-1.95V21.675L74.711,38.01a3.342,3.342,0,0,0,2.775,1.765h8.035a1.955,1.955,0,0,0,1.951-1.95V1.952A1.958,1.958,0,0,0,85.521,0M84.028,34.36a1.971,1.971,0,0,1-1.97,1.969H78.983A1.977,1.977,0,0,1,77.2,35.194L64.566,8.935a.489.489,0,0,0-.443-.278.513.513,0,0,0-.11.011.493.493,0,0,0-.382.48V34.36a1.971,1.971,0,0,1-3.941,0V5.414a1.971,1.971,0,0,1,1.968-1.969H64.5A1.98,1.98,0,0,1,66.27,4.56L79.153,30.485a.492.492,0,0,0,.441.274.476.476,0,0,0,.112-.013.492.492,0,0,0,.38-.48V5.414a1.971,1.971,0,0,1,3.942,0Z" fill="#005587"/>
        <path id="パス_248" data-name="パス 248" d="M44.992,1.491A1.969,1.969,0,0,0,43.082,0h-9.2a1.97,1.97,0,0,0-1.91,1.491L22.934,37.573a1.772,1.772,0,0,0,1.719,2.2H31a1.969,1.969,0,0,0,1.935-1.6l1.074-5.713h8.947l1.074,5.713a1.971,1.971,0,0,0,1.936,1.6h6.344a1.772,1.772,0,0,0,1.719-2.2Zm-9.74,24.342L38.48,8.665l3.228,17.168Z" fill="#005587"/>
        <path id="パス_249" data-name="パス 249" d="M26.5,7.713V1.66A1.665,1.665,0,0,0,24.837,0H1.658A1.664,1.664,0,0,0,0,1.66V7.713a1.664,1.664,0,0,0,1.658,1.66h6.1V38.119a1.664,1.664,0,0,0,1.662,1.656h7.657a1.66,1.66,0,0,0,1.661-1.656V9.373h6.1a1.665,1.665,0,0,0,1.66-1.66" fill="#005587"/>
      </g>
    </g>
  </g>
</svg>
