<?xml version="1.0" encoding="utf-8"?>
<!-- Generator: Adobe Illustrator 21.0.2, SVG Export Plug-In . SVG Version: 6.00 Build 0)  -->
<svg version="1.1" id="レイヤー_1" xmlns="http://www.w3.org/2000/svg" xmlns:xlink="http://www.w3.org/1999/xlink" x="0px"
	 y="0px" viewBox="0 0 64 30" style="enable-background:new 0 0 64 30;" xml:space="preserve">
<style type="text/css">
	.st0{fill:#0050FF;}
</style>
<g>
	<path class="st0" d="M41.4,20c0-2.1-0.8-4.2-2.3-5.7l0,0l0,0C40.3,12.9,41,11,41,9.1c0-4.4-3.6-8-8-8h-9v27.1h9.3
		C37.7,28.2,41.4,24.5,41.4,20z M29.1,6.2H33c1.6,0,2.9,1.3,2.9,2.9S34.6,12,33,12h-3.9V6.2z M29.1,23.3v-6.4h4.1
		c1.8,0,3.2,1.4,3.2,3.2c0,1.8-1.4,3.2-3.2,3.2C33.2,23.3,29.1,23.3,29.1,23.3z"/>
	<polygon class="st0" points="19.2,1.2 0.9,1.2 0.9,6.3 7.3,6.3 7.3,29 12.8,26.6 12.8,6.3 19.2,6.3 	"/>
	<path class="st0" d="M57.6,20.5c0,1.5-1.3,2.9-3.2,2.9s-3.2-0.9-4-2.9l-0.1-0.2l-5,2.2l0.1,0.1c1.4,3.8,4.6,5.8,8.8,5.8
		c3.4,0,5.5-1.4,6.7-2.7c1.5-1.5,2.3-3.5,2.3-5.4c0-2.3-1-4.2-2.9-5.7c-1.3-1-3-1.9-5.2-2.5c-2.6-0.8-3.8-1.8-3.8-3.8
		c0-1.2,1.2-2.5,2.9-2.5c2.3,0,3.2,2,3.4,2.5l4.8-2.1c-1-2.6-3.2-5.4-8.2-5.4c-2.4,0-4.5,0.8-6,2.2s-2.3,3.3-2.3,5.3
		s0.8,3.9,2.2,5.3c1,1.1,2.9,2.3,5.9,3.2C55.8,17.6,57.6,18.2,57.6,20.5z"/>
</g>
</svg>
