<svg fill="none" height="80" viewBox="0 0 80 80" width="80" xmlns="http://www.w3.org/2000/svg"><path d="m24.9265 47.3656c0 3.0757-2.5125 5.5883-5.5882 5.5883s-5.5883-2.5126-5.5883-5.5883 2.5126-5.5883 5.5883-5.5883h5.5882z" fill="#e01e5a"/><path d="m27.7432 47.3656c0-3.0757 2.5125-5.5883 5.5882-5.5883s5.5883 2.5126 5.5883 5.5883v13.9923c0 3.0757-2.5126 5.5883-5.5883 5.5883s-5.5882-2.5126-5.5882-5.5883z" fill="#e01e5a"/><path d="m33.3314 24.9265c-3.0757 0-5.5882-2.5125-5.5882-5.5882s2.5125-5.5883 5.5882-5.5883 5.5883 2.5126 5.5883 5.5883v5.5882z" fill="#36c5f0"/><path d="m33.3306 27.7432c3.0757 0 5.5882 2.5125 5.5882 5.5882s-2.5125 5.5883-5.5882 5.5883h-13.9923c-3.0757 0-5.5883-2.5126-5.5883-5.5883s2.5126-5.5882 5.5883-5.5882z" fill="#36c5f0"/><path d="m55.7705 33.3314c0-3.0757 2.5126-5.5882 5.5883-5.5882s5.5882 2.5125 5.5882 5.5882-2.5125 5.5883-5.5882 5.5883h-5.5883z" fill="#2eb67d"/><path d="m52.9539 33.3306c0 3.0757-2.5126 5.5882-5.5883 5.5882s-5.5883-2.5125-5.5883-5.5882v-13.9923c0-3.0757 2.5126-5.5883 5.5883-5.5883s5.5883 2.5126 5.5883 5.5883z" fill="#2eb67d"/><g fill="#ecb22e"><path d="m47.3656 55.7705c3.0757 0 5.5883 2.5126 5.5883 5.5883s-2.5126 5.5882-5.5883 5.5882-5.5883-2.5125-5.5883-5.5882v-5.5883z"/><path d="m47.3656 52.9539c-3.0757 0-5.5883-2.5126-5.5883-5.5883s2.5126-5.5883 5.5883-5.5883h13.9923c3.0757 0 5.5883 2.5126 5.5883 5.5883s-2.5126 5.5883-5.5883 5.5883z"/></g></svg>