<svg xmlns="http://www.w3.org/2000/svg" width="596" height="428.908" viewBox="0 0 596 428.908">
  <g id="グループ_5194" data-name="グループ 5194" transform="translate(-79 -2891.586)">
    <g id="グループ_5193" data-name="グループ 5193">
      <g id="長方形_112" data-name="長方形 112" transform="translate(81 2894)" fill="#fff" stroke="#682ae9" stroke-width="2">
        <rect width="590" height="424" stroke="none"/>
        <rect x="1" y="1" width="588" height="422" fill="none"/>
      </g>
      <path id="パス_11" data-name="パス 11" d="M0,0,44,44H0Z" transform="translate(675 2935.586) rotate(180)" fill="#fff"/>
      <path id="パス_13" data-name="パス 13" d="M0,0,44,44H0Z" transform="translate(629 3320.494) rotate(-90)" fill="#fff"/>
      <path id="パス_12" data-name="パス 12" d="M0,0,44,44H0Z" transform="translate(79 3276.494)" fill="#fff"/>
      <path id="パス_14" data-name="パス 14" d="M0,0,44,44H0Z" transform="translate(123 2891.586) rotate(90)" fill="#fff"/>
    </g>
    <line id="線_38" data-name="線 38" y1="40" x2="40" transform="translate(81.5 2894.5)" fill="none" stroke="#682ae9" stroke-width="2"/>
    <line id="線_41" data-name="線 41" y1="40" x2="40" transform="translate(120.5 3276.494) rotate(90)" fill="none" stroke="#682ae9" stroke-width="2" opacity="0.9"/>
    <line id="線_39" data-name="線 39" x2="36.5" y2="37" transform="translate(633 2894.5)" fill="none" stroke="#682ae9" stroke-width="2"/>
    <line id="線_40" data-name="線 40" x1="38.75" y2="39.244" transform="translate(631.75 3277.5)" fill="none" stroke="#682ae9" stroke-width="2"/>
  </g>
</svg>
