<svg xmlns="http://www.w3.org/2000/svg" width="598" height="428.479" viewBox="0 0 598 428.479">
  <g id="グループ_5189" data-name="グループ 5189" transform="translate(-72 -7217.228)">
    <g id="グループ_29" data-name="グループ 29" transform="translate(-1096 3781.228)">
      <g id="長方形_112" data-name="長方形 112" transform="translate(1170 3438)" fill="#f7f8fd" stroke="#682ae9" stroke-width="2">
        <rect width="594" height="424.197" stroke="none"/>
        <rect x="1" y="1" width="592" height="422.197" fill="none"/>
      </g>
      <path id="パス_11" data-name="パス 11" d="M0,0,44,44H0Z" transform="translate(1766 3480) rotate(180)" fill="#fff"/>
      <path id="パス_13" data-name="パス 13" d="M0,0,44,44H0Z" transform="translate(1722 3864.058) rotate(-90)" fill="#fff"/>
      <path id="パス_12" data-name="パス 12" d="M0,0,44,44H0Z" transform="translate(1168 3820.058)" fill="#fff"/>
      <path id="パス_14" data-name="パス 14" d="M0,0,44,44H0Z" transform="translate(1212 3436) rotate(90)" fill="#fff"/>
    </g>
    <line id="線_23" data-name="線 23" x2="39" y2="39" transform="translate(113 7220) rotate(90)" fill="none" stroke="#682ae9" stroke-width="2"/>
    <line id="線_25" data-name="線 25" x2="39" y2="39" transform="translate(629 7220)" fill="none" stroke="#682ae9" stroke-width="2"/>
    <line id="線_22" data-name="線 22" x2="39" y2="39" transform="translate(74 7606)" fill="none" stroke="#682ae9" stroke-width="2"/>
    <line id="線_24" data-name="線 24" x2="39" y2="39" transform="translate(668 7606) rotate(90)" fill="none" stroke="#682ae9" stroke-width="2"/>
  </g>
</svg>
