<svg width="640" height="360" viewBox="0 0 640 360" fill="none" xmlns="http://www.w3.org/2000/svg">
<g clip-path="url(#clip0_451_595)">
<rect width="640" height="360" fill="#252E9C"/>
<path d="M315 282.5H398.5" stroke="#C2D8FF" stroke-width="4" stroke-linecap="round" stroke-dasharray="1 8"/>
<path d="M130 136L130 193" stroke="#C2D8FF" stroke-width="4" stroke-linecap="round" stroke-dasharray="1 8"/>
<path fill-rule="evenodd" clip-rule="evenodd" d="M291.518 96.0052C291.678 96.0017 291.839 96 292 96H292.5C293.605 96 294.5 95.1046 294.5 94C294.5 92.8954 293.605 92 292.5 92H292C291.81 92 291.621 92.002 291.432 92.0061C290.327 92.0298 289.451 92.9443 289.475 94.0486C289.499 95.1529 290.413 96.0289 291.518 96.0052ZM300.5 92C299.395 92 298.5 92.8954 298.5 94C298.5 95.1046 299.395 96 300.5 96H301.5C302.605 96 303.5 95.1046 303.5 94C303.5 92.8954 302.605 92 301.5 92H300.5ZM309.5 92C308.395 92 307.5 92.8954 307.5 94C307.5 95.1046 308.395 96 309.5 96H310.5C311.605 96 312.5 95.1046 312.5 94C312.5 92.8954 311.605 92 310.5 92H309.5ZM318.5 92C317.395 92 316.5 92.8954 316.5 94C316.5 95.1046 317.395 96 318.5 96H319.5C320.605 96 321.5 95.1046 321.5 94C321.5 92.8954 320.605 92 319.5 92H318.5ZM327.5 92C326.395 92 325.5 92.8954 325.5 94C325.5 95.1046 326.395 96 327.5 96H328.5C329.605 96 330.5 95.1046 330.5 94C330.5 92.8954 329.605 92 328.5 92H327.5ZM336.5 92C335.395 92 334.5 92.8954 334.5 94C334.5 95.1046 335.395 96 336.5 96H337.5C338.605 96 339.5 95.1046 339.5 94C339.5 92.8954 338.605 92 337.5 92H336.5ZM345.5 92C344.395 92 343.5 92.8954 343.5 94C343.5 95.1046 344.395 96 345.5 96H346.5C347.605 96 348.5 95.1046 348.5 94C348.5 92.8954 347.605 92 346.5 92H345.5ZM354.5 92C353.395 92 352.5 92.8954 352.5 94C352.5 95.1046 353.395 96 354.5 96H355.5C356.605 96 357.5 95.1046 357.5 94C357.5 92.8954 356.605 92 355.5 92H354.5ZM363.5 92C362.395 92 361.5 92.8954 361.5 94C361.5 95.1046 362.395 96 363.5 96H364.5C365.605 96 366.5 95.1046 366.5 94C366.5 92.8954 365.605 92 364.5 92H363.5ZM372.5 92C371.395 92 370.5 92.8954 370.5 94C370.5 95.1046 371.395 96 372.5 96H373.5C374.605 96 375.5 95.1046 375.5 94C375.5 92.8954 374.605 92 373.5 92H372.5ZM381.5 92C380.395 92 379.5 92.8954 379.5 94C379.5 95.1046 380.395 96 381.5 96H382.5C383.605 96 384.5 95.1046 384.5 94C384.5 92.8954 383.605 92 382.5 92H381.5ZM390.5 92C389.395 92 388.5 92.8954 388.5 94C388.5 95.1046 389.395 96 390.5 96H391.5C392.605 96 393.5 95.1046 393.5 94C393.5 92.8954 392.605 92 391.5 92H390.5ZM399.5 92C398.395 92 397.5 92.8954 397.5 94C397.5 95.1046 398.395 96 399.5 96H400.5C401.605 96 402.5 95.1046 402.5 94C402.5 92.8954 401.605 92 400.5 92H399.5ZM408.5 92C407.395 92 406.5 92.8954 406.5 94C406.5 95.1046 407.395 96 408.5 96H409.5C410.605 96 411.5 95.1046 411.5 94C411.5 92.8954 410.605 92 409.5 92H408.5ZM417.5 92C416.395 92 415.5 92.8954 415.5 94C415.5 95.1046 416.395 96 417.5 96H418.5C419.605 96 420.5 95.1046 420.5 94C420.5 92.8954 419.605 92 418.5 92H417.5ZM426.5 92C425.395 92 424.5 92.8954 424.5 94C424.5 95.1046 425.395 96 426.5 96H427.5C428.605 96 429.5 95.1046 429.5 94C429.5 92.8954 428.605 92 427.5 92H426.5ZM435.5 92C434.395 92 433.5 92.8954 433.5 94C433.5 95.1046 434.395 96 435.5 96H436C436.161 96 436.322 96.0017 436.482 96.0052C437.587 96.0289 438.501 95.1529 438.525 94.0486C438.549 92.9443 437.673 92.0298 436.568 92.0061C436.379 92.002 436.19 92 436 92H435.5ZM284.024 97.4898C285.053 97.0892 285.563 95.93 285.163 94.9006C284.762 93.8713 283.603 93.3615 282.573 93.7622C282.22 93.8996 281.871 94.0446 281.525 94.1969C280.514 94.6423 280.056 95.8228 280.501 96.8336C280.947 97.8444 282.127 98.3027 283.138 97.8573C283.43 97.7285 283.725 97.606 284.024 97.4898ZM445.427 93.7622C444.397 93.3615 443.238 93.8713 442.837 94.9006C442.437 95.93 442.947 97.0892 443.976 97.4898C444.275 97.606 444.57 97.7285 444.862 97.8573C445.873 98.3027 447.053 97.8444 447.499 96.8336C447.944 95.8228 447.486 94.6423 446.475 94.1969C446.129 94.0446 445.78 93.8996 445.427 93.7622ZM276.787 102.108C277.585 101.344 277.612 100.078 276.848 99.28C276.084 98.4822 274.818 98.4547 274.02 99.2187C273.747 99.4801 273.48 99.7474 273.219 100.02C272.455 100.818 272.482 102.084 273.28 102.848C274.078 103.612 275.344 103.585 276.108 102.787C276.329 102.556 276.556 102.329 276.787 102.108ZM453.98 99.2187C453.182 98.4547 451.916 98.4822 451.152 99.28C450.388 100.078 450.415 101.344 451.213 102.108C451.444 102.329 451.671 102.556 451.892 102.787C452.656 103.585 453.922 103.612 454.72 102.848C455.518 102.084 455.545 100.818 454.781 100.02C454.52 99.7474 454.253 99.4801 453.98 99.2187ZM271.857 109.138C272.303 108.127 271.844 106.947 270.834 106.501C269.823 106.056 268.642 106.514 268.197 107.525C268.045 107.871 267.9 108.22 267.762 108.573C267.362 109.603 267.871 110.762 268.901 111.163C269.93 111.563 271.089 111.053 271.49 110.024C271.606 109.725 271.729 109.43 271.857 109.138ZM459.803 107.525C459.358 106.514 458.177 106.056 457.166 106.501C456.156 106.947 455.697 108.127 456.143 109.138C456.271 109.43 456.394 109.725 456.51 110.024C456.911 111.053 458.07 111.563 459.099 111.163C460.129 110.762 460.638 109.603 460.238 108.573C460.1 108.22 459.955 107.871 459.803 107.525ZM461.994 117.432C461.97 116.327 461.056 115.451 459.951 115.475C458.847 115.499 457.971 116.413 457.995 117.518C457.998 117.678 458 117.839 458 118V118.5C458 119.605 458.895 120.5 460 120.5C461.105 120.5 462 119.605 462 118.5V118C462 117.81 461.998 117.621 461.994 117.432ZM270.005 117.518C270.029 116.413 269.153 115.499 268.049 115.475C266.944 115.451 266.03 116.327 266.006 117.432C266.002 117.621 266 117.81 266 118V118.5C266 119.605 266.895 120.5 268 120.5C269.105 120.5 270 119.605 270 118.5V118C270 117.839 270.002 117.678 270.005 117.518ZM462 126.5C462 125.395 461.105 124.5 460 124.5C458.895 124.5 458 125.395 458 126.5V127.5C458 128.605 458.895 129.5 460 129.5C461.105 129.5 462 128.605 462 127.5V126.5ZM270 126.5C270 125.395 269.105 124.5 268 124.5C266.895 124.5 266 125.395 266 126.5V127.5C266 128.605 266.895 129.5 268 129.5C269.105 129.5 270 128.605 270 127.5V126.5ZM270 135.5C270 134.395 269.105 133.5 268 133.5C266.895 133.5 266 134.395 266 135.5V136.5C266 137.605 266.895 138.5 268 138.5C269.105 138.5 270 137.605 270 136.5V135.5ZM462 135.5C462 134.395 461.105 133.5 460 133.5C458.895 133.5 458 134.395 458 135.5V136H462V135.5ZM290 230.643V233.345C289.664 232.979 289.464 232.488 289.475 231.951C289.486 231.446 289.683 230.989 290 230.643ZM270 144.5C270 143.395 269.105 142.5 268 142.5C266.895 142.5 266 143.395 266 144.5V145.5C266 146.605 266.895 147.5 268 147.5C269.105 147.5 270 146.605 270 145.5V144.5ZM270 153.5C270 152.395 269.105 151.5 268 151.5C266.895 151.5 266 152.395 266 153.5V154.5C266 155.605 266.895 156.5 268 156.5C269.105 156.5 270 155.605 270 154.5V153.5ZM270 162.5C270 161.395 269.105 160.5 268 160.5C266.895 160.5 266 161.395 266 162.5V163.5C266 164.605 266.895 165.5 268 165.5C269.105 165.5 270 164.605 270 163.5V162.5ZM270 171.5C270 170.395 269.105 169.5 268 169.5C266.895 169.5 266 170.395 266 171.5V172.5C266 173.605 266.895 174.5 268 174.5C269.105 174.5 270 173.605 270 172.5V171.5ZM270 180.5C270 179.395 269.105 178.5 268 178.5C266.895 178.5 266 179.395 266 180.5V181.5C266 182.605 266.895 183.5 268 183.5C269.105 183.5 270 182.605 270 181.5V180.5ZM270 189.5C270 188.395 269.105 187.5 268 187.5C266.895 187.5 266 188.395 266 189.5V190.5C266 191.605 266.895 192.5 268 192.5C269.105 192.5 270 191.605 270 190.5V189.5ZM270 198.5C270 197.395 269.105 196.5 268 196.5C266.895 196.5 266 197.395 266 198.5V199.5C266 200.605 266.895 201.5 268 201.5C269.105 201.5 270 200.605 270 199.5V198.5ZM270 207.5C270 206.395 269.105 205.5 268 205.5C266.895 205.5 266 206.395 266 207.5V208C266 208.19 266.002 208.379 266.006 208.568C266.03 209.673 266.944 210.549 268.049 210.525C269.153 210.501 270.029 209.587 270.005 208.482C270.002 208.322 270 208.161 270 208V207.5ZM271.49 215.976C271.089 214.947 269.93 214.437 268.901 214.837C267.871 215.238 267.362 216.397 267.762 217.427C267.9 217.78 268.045 218.129 268.197 218.475C268.642 219.486 269.823 219.944 270.834 219.499C271.844 219.053 272.303 217.873 271.857 216.862C271.729 216.57 271.606 216.275 271.49 215.976ZM276.108 223.213C275.344 222.415 274.078 222.388 273.28 223.152C272.482 223.916 272.455 225.182 273.219 225.98C273.48 226.253 273.747 226.52 274.02 226.781C274.818 227.545 276.084 227.518 276.848 226.72C277.612 225.922 277.585 224.656 276.787 223.892C276.556 223.671 276.329 223.444 276.108 223.213ZM283.138 228.143C282.127 227.697 280.947 228.156 280.501 229.166C280.056 230.177 280.514 231.358 281.525 231.803C281.871 231.955 282.22 232.1 282.573 232.238C283.603 232.638 284.762 232.129 285.163 231.099C285.563 230.07 285.053 228.911 284.024 228.51C283.725 228.394 283.43 228.271 283.138 228.143Z" fill="#C2D8FF"/>
<rect x="-144" y="-105" width="345" height="265" rx="24" fill="#AABCE2"/>
<rect x="390" y="190" width="345" height="275" rx="24" fill="#AABCE2"/>
<rect x="-3" y="204" width="325" height="275" rx="24" fill="#6D86B2"/>
<rect x="407" y="-119" width="345" height="275" rx="24" fill="#AABCE2"/>
<ellipse cx="122" cy="319" rx="50" ry="15" fill="#3E487A"/>
<path d="M72 319V299L96 309.5L72 319Z" fill="#3E487A"/>
<path d="M72 299V279L96 289.5L72 299Z" fill="#5059C9"/>
<path d="M72 279V259L96 269.5L72 279Z" fill="#88A4E2"/>
<path d="M172 319V299L148 309.5L172 319Z" fill="#3E487A"/>
<path d="M172 299V279L148 289.5L172 299Z" fill="#5059C9"/>
<path d="M172 279V259L148 269.5L172 279Z" fill="#88A4E2"/>
<ellipse cx="122" cy="299" rx="50" ry="15" fill="#5059C9"/>
<ellipse cx="122" cy="279" rx="50" ry="15" fill="#88A4E2"/>
<ellipse cx="122" cy="259" rx="50" ry="15" fill="#AABCE2"/>
<rect x="30" y="30" width="70" height="110" rx="8" fill="#3E487A"/>
<rect x="34" y="34" width="62" height="102" rx="3" fill="white"/>
<path d="M34 116H96V133C96 134.657 94.6569 136 93 136H37C35.3431 136 34 134.657 34 133V116Z" fill="#5059C9"/>
<path d="M34 37C34 35.3431 35.3431 34 37 34H93C94.6569 34 96 35.3431 96 37V46H34V37Z" fill="#AABCE2"/>
<path d="M45 30H85V30C85 34.4183 81.4183 38 77 38H53C48.5817 38 45 34.4183 45 30V30Z" fill="#3E487A"/>
<rect x="40" y="96" width="50" height="2" fill="#AABCE2"/>
<rect x="40" y="101" width="50" height="2" fill="#AABCE2"/>
<rect x="40" y="106" width="50" height="2" fill="#AABCE2"/>
<g clip-path="url(#clip1_451_595)">
<rect x="40" y="54" width="50" height="33.6735" fill="#AABCE2"/>
<path fill-rule="evenodd" clip-rule="evenodd" d="M74.4286 63.0347C73.6443 62.2343 72.3556 62.2343 71.5713 63.0347L58.6928 76.1795L53.4481 70.6734C52.66 69.846 51.3399 69.846 50.5518 70.6734L28.1557 94.1857C26.9428 95.459 27.8454 97.5651 29.6038 97.5651H74.3961C75.9235 97.5651 76.8052 95.9759 76.2155 94.7239H100.716C102.488 94.7239 103.385 92.59 102.145 91.3242L74.4286 63.0347Z" fill="#6D86B2"/>
<ellipse cx="49.75" cy="63.8494" rx="3.5" ry="3.53572" fill="#6D86B2"/>
</g>
<rect x="430" y="230" width="100" height="32" rx="4" fill="#3E487A"/>
<rect x="436" y="236" width="88" height="20" rx="2" fill="#6D86B2"/>
<rect x="468" y="243" width="50" height="6" rx="2" fill="#3E487A"/>
<circle cx="455" cy="246" r="3" fill="white"/>
<circle cx="445" cy="246" r="3" fill="#5059C9"/>
<rect x="430" y="264" width="100" height="32" rx="4" fill="#3E487A"/>
<rect x="436" y="270" width="88" height="20" rx="2" fill="#6D86B2"/>
<rect x="468" y="277" width="50" height="6" rx="2" fill="#3E487A"/>
<circle cx="455" cy="280" r="3" fill="white"/>
<circle cx="445" cy="280" r="3" fill="#5059C9"/>
<rect x="430" y="298" width="100" height="32" rx="4" fill="#3E487A"/>
<rect x="436" y="304" width="88" height="20" rx="2" fill="#6D86B2"/>
<rect x="468" y="311" width="50" height="6" rx="2" fill="#3E487A"/>
<circle cx="455" cy="314" r="3" fill="white"/>
<circle cx="445" cy="314" r="3" fill="#5059C9"/>
<mask id="path-47-outside-1_451_595" maskUnits="userSpaceOnUse" x="29.75" y="312.19" width="115" height="33" fill="black">
<rect fill="white" x="29.75" y="312.19" width="115" height="33"/>
<path d="M36.3 328.85C36.3 330.23 37.29 330.92 39.27 330.92C41.27 330.92 42.27 330.3 42.27 329.06C42.27 328.4 41.93 327.86 41.25 327.44C40.57 327.02 39.74 326.67 38.76 326.39C37.8 326.11 36.83 325.79 35.85 325.43C34.89 325.05 34.07 324.47 33.39 323.69C32.71 322.89 32.37 321.9 32.37 320.72C32.37 315.7 35.6 313.19 42.06 313.19C44.42 313.19 46.2 313.64 47.4 314.54C48.62 315.42 49.23 316.65 49.23 318.23C49.23 318.81 49.15 319.37 48.99 319.91C48.85 320.43 48.7 320.8 48.54 321.02L48.3 321.38H42.99C43.43 320.92 43.65 320.34 43.65 319.64C43.65 318.34 42.8 317.69 41.1 317.69C38.96 317.69 37.89 318.37 37.89 319.73C37.89 320.41 38.23 320.95 38.91 321.35C39.59 321.75 40.41 322.07 41.37 322.31C42.35 322.53 43.33 322.81 44.31 323.15C45.29 323.49 46.12 324.06 46.8 324.86C47.48 325.64 47.82 326.66 47.82 327.92C47.82 330.46 47.06 332.35 45.54 333.59C44.02 334.81 41.68 335.42 38.52 335.42C35.36 335.42 33.2 334.86 32.04 333.74C31.18 332.9 30.75 331.74 30.75 330.26C30.75 329.7 30.81 329.09 30.93 328.43L31.02 327.95H36.42L36.36 328.31C36.32 328.51 36.3 328.69 36.3 328.85Z"/>
<path d="M55.8431 328.55C55.7831 328.91 55.7531 329.27 55.7531 329.63C55.7531 330.59 56.2931 331.07 57.3731 331.07C58.2531 331.07 58.9831 330.76 59.5631 330.14L61.2431 320.57H66.3431L63.7031 335.48C63.2631 338.02 62.2531 340.03 60.6731 341.51C59.1131 342.99 57.3231 343.73 55.3031 343.73C53.2831 343.73 51.8231 343.36 50.9231 342.62C50.0431 341.88 49.6031 340.91 49.6031 339.71C49.6031 338.01 50.6531 336.5 52.7531 335.18C51.6131 334.9 50.8931 334.33 50.5931 333.47C50.4131 332.99 50.3231 332.45 50.3231 331.85C50.3231 331.25 50.3731 330.64 50.4731 330.02L52.1531 320.57H57.2531L55.8431 328.55ZM55.9931 339.44C57.2931 339.44 58.1431 338.26 58.5431 335.9L58.8431 334.16C56.0631 335.46 54.6731 336.77 54.6731 338.09C54.6731 338.49 54.7831 338.81 55.0031 339.05C55.2431 339.31 55.5731 339.44 55.9931 339.44Z"/>
<path d="M82.2225 323.69C82.2225 324.35 82.0225 324.96 81.6225 325.52H76.7025C76.8625 325.4 76.9425 325.2 76.9425 324.92C76.9425 324.64 76.7825 324.42 76.4625 324.26C76.1425 324.08 75.7325 323.99 75.2325 323.99C73.7325 323.99 72.9825 324.45 72.9825 325.37C72.9825 325.73 73.2625 325.99 73.8225 326.15C74.3825 326.31 75.0625 326.44 75.8625 326.54C76.6625 326.64 77.4625 326.79 78.2625 326.99C79.0625 327.17 79.7425 327.54 80.3025 328.1C80.8625 328.66 81.1425 329.41 81.1425 330.35C81.1425 332.01 80.4725 333.27 79.1325 334.13C77.8125 334.99 75.8825 335.42 73.3425 335.42C70.8025 335.42 69.0225 335.01 68.0025 334.19C67.2025 333.55 66.8025 332.67 66.8025 331.55C66.8025 331.23 66.8325 330.9 66.8925 330.56L71.9025 330.5C71.8625 330.78 72.0225 331.03 72.3825 331.25C72.7625 331.45 73.3125 331.55 74.0325 331.55C74.7525 331.55 75.2725 331.48 75.5925 331.34C75.9125 331.18 76.0725 330.89 76.0725 330.47C76.0725 330.19 75.7925 330 75.2325 329.9C74.6725 329.78 73.9825 329.68 73.1625 329.6C72.3625 329.52 71.5525 329.39 70.7325 329.21C69.9325 329.03 69.2525 328.65 68.6925 328.07C68.1325 327.49 67.8525 326.73 67.8525 325.79C67.8525 323.97 68.5525 322.57 69.9525 321.59C71.3725 320.61 73.4125 320.12 76.0725 320.12C80.1725 320.12 82.2225 321.31 82.2225 323.69Z"/>
<path d="M90.1073 335.42C87.7873 335.42 86.1173 334.9 85.0973 333.86C84.3373 333.1 83.9573 332.08 83.9573 330.8C83.9573 330.38 83.9973 329.93 84.0773 329.45L86.1173 317.84L91.6073 315.56L90.7373 320.57H99.0173L98.2673 324.8H89.9873L89.3873 328.19C89.3073 328.57 89.2673 328.91 89.2673 329.21C89.2673 330.47 89.8673 331.1 91.0673 331.1C91.7073 331.1 92.2373 330.83 92.6573 330.29C93.0973 329.75 93.3973 329.03 93.5573 328.13H98.5373C97.6973 332.99 94.8873 335.42 90.1073 335.42Z"/>
<path d="M106.212 335.42C102.052 335.42 99.9722 333.98 99.9722 331.1C99.9722 330.7 100.012 330.27 100.092 329.81L100.722 326.09C101.062 324.17 101.942 322.7 103.362 321.68C104.802 320.64 106.702 320.12 109.062 320.12C113.082 320.12 115.092 321.64 115.092 324.68C115.092 325.12 115.052 325.6 114.972 326.12L114.612 328.25H105.462L105.342 328.94C105.302 329.18 105.282 329.4 105.282 329.6C105.282 330.7 105.932 331.25 107.232 331.25C107.712 331.25 108.122 331.1 108.462 330.8C108.802 330.5 109.002 330.15 109.062 329.75L114.042 329.81C113.382 333.55 110.772 335.42 106.212 335.42ZM109.812 326.42C109.892 326.08 109.932 325.77 109.932 325.49C109.932 325.19 109.802 324.89 109.542 324.59C109.282 324.29 108.862 324.14 108.282 324.14C107.722 324.14 107.202 324.33 106.722 324.71C106.262 325.09 105.942 325.66 105.762 326.42H109.812Z"/>
<path d="M141.545 331.16C142.005 331.16 142.415 331.06 142.775 330.86L142.625 334.25C141.685 335.03 140.615 335.42 139.415 335.42C136.695 335.42 135.335 334.28 135.335 332C135.335 331.6 135.375 331.17 135.455 330.71L136.085 327.02C136.145 326.66 136.175 326.3 136.175 325.94C136.175 324.98 135.645 324.5 134.585 324.5C133.545 324.5 132.725 324.91 132.125 325.73L130.505 335H125.405L126.815 327.02C126.875 326.66 126.905 326.3 126.905 325.94C126.905 324.98 126.365 324.5 125.285 324.5C124.425 324.5 123.685 324.83 123.065 325.49L121.385 335H116.285L118.835 320.57H123.575L123.245 322.37C124.445 320.89 125.965 320.15 127.805 320.15C130.405 320.15 131.885 321.01 132.245 322.73C133.445 321.01 135.045 320.15 137.045 320.15C139.065 320.15 140.375 320.6 140.975 321.5C141.375 322.12 141.575 322.8 141.575 323.54C141.575 324.28 141.525 324.95 141.425 325.55L140.675 330.02C140.655 330.14 140.645 330.25 140.645 330.35C140.645 330.89 140.945 331.16 141.545 331.16Z"/>
</mask>
<path d="M36.3 328.85C36.3 330.23 37.29 330.92 39.27 330.92C41.27 330.92 42.27 330.3 42.27 329.06C42.27 328.4 41.93 327.86 41.25 327.44C40.57 327.02 39.74 326.67 38.76 326.39C37.8 326.11 36.83 325.79 35.85 325.43C34.89 325.05 34.07 324.47 33.39 323.69C32.71 322.89 32.37 321.9 32.37 320.72C32.37 315.7 35.6 313.19 42.06 313.19C44.42 313.19 46.2 313.64 47.4 314.54C48.62 315.42 49.23 316.65 49.23 318.23C49.23 318.81 49.15 319.37 48.99 319.91C48.85 320.43 48.7 320.8 48.54 321.02L48.3 321.38H42.99C43.43 320.92 43.65 320.34 43.65 319.64C43.65 318.34 42.8 317.69 41.1 317.69C38.96 317.69 37.89 318.37 37.89 319.73C37.89 320.41 38.23 320.95 38.91 321.35C39.59 321.75 40.41 322.07 41.37 322.31C42.35 322.53 43.33 322.81 44.31 323.15C45.29 323.49 46.12 324.06 46.8 324.86C47.48 325.64 47.82 326.66 47.82 327.92C47.82 330.46 47.06 332.35 45.54 333.59C44.02 334.81 41.68 335.42 38.52 335.42C35.36 335.42 33.2 334.86 32.04 333.74C31.18 332.9 30.75 331.74 30.75 330.26C30.75 329.7 30.81 329.09 30.93 328.43L31.02 327.95H36.42L36.36 328.31C36.32 328.51 36.3 328.69 36.3 328.85Z" fill="#D7E9FF"/>
<path d="M55.8431 328.55C55.7831 328.91 55.7531 329.27 55.7531 329.63C55.7531 330.59 56.2931 331.07 57.3731 331.07C58.2531 331.07 58.9831 330.76 59.5631 330.14L61.2431 320.57H66.3431L63.7031 335.48C63.2631 338.02 62.2531 340.03 60.6731 341.51C59.1131 342.99 57.3231 343.73 55.3031 343.73C53.2831 343.73 51.8231 343.36 50.9231 342.62C50.0431 341.88 49.6031 340.91 49.6031 339.71C49.6031 338.01 50.6531 336.5 52.7531 335.18C51.6131 334.9 50.8931 334.33 50.5931 333.47C50.4131 332.99 50.3231 332.45 50.3231 331.85C50.3231 331.25 50.3731 330.64 50.4731 330.02L52.1531 320.57H57.2531L55.8431 328.55ZM55.9931 339.44C57.2931 339.44 58.1431 338.26 58.5431 335.9L58.8431 334.16C56.0631 335.46 54.6731 336.77 54.6731 338.09C54.6731 338.49 54.7831 338.81 55.0031 339.05C55.2431 339.31 55.5731 339.44 55.9931 339.44Z" fill="#D7E9FF"/>
<path d="M82.2225 323.69C82.2225 324.35 82.0225 324.96 81.6225 325.52H76.7025C76.8625 325.4 76.9425 325.2 76.9425 324.92C76.9425 324.64 76.7825 324.42 76.4625 324.26C76.1425 324.08 75.7325 323.99 75.2325 323.99C73.7325 323.99 72.9825 324.45 72.9825 325.37C72.9825 325.73 73.2625 325.99 73.8225 326.15C74.3825 326.31 75.0625 326.44 75.8625 326.54C76.6625 326.64 77.4625 326.79 78.2625 326.99C79.0625 327.17 79.7425 327.54 80.3025 328.1C80.8625 328.66 81.1425 329.41 81.1425 330.35C81.1425 332.01 80.4725 333.27 79.1325 334.13C77.8125 334.99 75.8825 335.42 73.3425 335.42C70.8025 335.42 69.0225 335.01 68.0025 334.19C67.2025 333.55 66.8025 332.67 66.8025 331.55C66.8025 331.23 66.8325 330.9 66.8925 330.56L71.9025 330.5C71.8625 330.78 72.0225 331.03 72.3825 331.25C72.7625 331.45 73.3125 331.55 74.0325 331.55C74.7525 331.55 75.2725 331.48 75.5925 331.34C75.9125 331.18 76.0725 330.89 76.0725 330.47C76.0725 330.19 75.7925 330 75.2325 329.9C74.6725 329.78 73.9825 329.68 73.1625 329.6C72.3625 329.52 71.5525 329.39 70.7325 329.21C69.9325 329.03 69.2525 328.65 68.6925 328.07C68.1325 327.49 67.8525 326.73 67.8525 325.79C67.8525 323.97 68.5525 322.57 69.9525 321.59C71.3725 320.61 73.4125 320.12 76.0725 320.12C80.1725 320.12 82.2225 321.31 82.2225 323.69Z" fill="#D7E9FF"/>
<path d="M90.1073 335.42C87.7873 335.42 86.1173 334.9 85.0973 333.86C84.3373 333.1 83.9573 332.08 83.9573 330.8C83.9573 330.38 83.9973 329.93 84.0773 329.45L86.1173 317.84L91.6073 315.56L90.7373 320.57H99.0173L98.2673 324.8H89.9873L89.3873 328.19C89.3073 328.57 89.2673 328.91 89.2673 329.21C89.2673 330.47 89.8673 331.1 91.0673 331.1C91.7073 331.1 92.2373 330.83 92.6573 330.29C93.0973 329.75 93.3973 329.03 93.5573 328.13H98.5373C97.6973 332.99 94.8873 335.42 90.1073 335.42Z" fill="#D7E9FF"/>
<path d="M106.212 335.42C102.052 335.42 99.9722 333.98 99.9722 331.1C99.9722 330.7 100.012 330.27 100.092 329.81L100.722 326.09C101.062 324.17 101.942 322.7 103.362 321.68C104.802 320.64 106.702 320.12 109.062 320.12C113.082 320.12 115.092 321.64 115.092 324.68C115.092 325.12 115.052 325.6 114.972 326.12L114.612 328.25H105.462L105.342 328.94C105.302 329.18 105.282 329.4 105.282 329.6C105.282 330.7 105.932 331.25 107.232 331.25C107.712 331.25 108.122 331.1 108.462 330.8C108.802 330.5 109.002 330.15 109.062 329.75L114.042 329.81C113.382 333.55 110.772 335.42 106.212 335.42ZM109.812 326.42C109.892 326.08 109.932 325.77 109.932 325.49C109.932 325.19 109.802 324.89 109.542 324.59C109.282 324.29 108.862 324.14 108.282 324.14C107.722 324.14 107.202 324.33 106.722 324.71C106.262 325.09 105.942 325.66 105.762 326.42H109.812Z" fill="#D7E9FF"/>
<path d="M141.545 331.16C142.005 331.16 142.415 331.06 142.775 330.86L142.625 334.25C141.685 335.03 140.615 335.42 139.415 335.42C136.695 335.42 135.335 334.28 135.335 332C135.335 331.6 135.375 331.17 135.455 330.71L136.085 327.02C136.145 326.66 136.175 326.3 136.175 325.94C136.175 324.98 135.645 324.5 134.585 324.5C133.545 324.5 132.725 324.91 132.125 325.73L130.505 335H125.405L126.815 327.02C126.875 326.66 126.905 326.3 126.905 325.94C126.905 324.98 126.365 324.5 125.285 324.5C124.425 324.5 123.685 324.83 123.065 325.49L121.385 335H116.285L118.835 320.57H123.575L123.245 322.37C124.445 320.89 125.965 320.15 127.805 320.15C130.405 320.15 131.885 321.01 132.245 322.73C133.445 321.01 135.045 320.15 137.045 320.15C139.065 320.15 140.375 320.6 140.975 321.5C141.375 322.12 141.575 322.8 141.575 323.54C141.575 324.28 141.525 324.95 141.425 325.55L140.675 330.02C140.655 330.14 140.645 330.25 140.645 330.35C140.645 330.89 140.945 331.16 141.545 331.16Z" fill="#D7E9FF"/>
<path d="M36.3 328.85C36.3 330.23 37.29 330.92 39.27 330.92C41.27 330.92 42.27 330.3 42.27 329.06C42.27 328.4 41.93 327.86 41.25 327.44C40.57 327.02 39.74 326.67 38.76 326.39C37.8 326.11 36.83 325.79 35.85 325.43C34.89 325.05 34.07 324.47 33.39 323.69C32.71 322.89 32.37 321.9 32.37 320.72C32.37 315.7 35.6 313.19 42.06 313.19C44.42 313.19 46.2 313.64 47.4 314.54C48.62 315.42 49.23 316.65 49.23 318.23C49.23 318.81 49.15 319.37 48.99 319.91C48.85 320.43 48.7 320.8 48.54 321.02L48.3 321.38H42.99C43.43 320.92 43.65 320.34 43.65 319.64C43.65 318.34 42.8 317.69 41.1 317.69C38.96 317.69 37.89 318.37 37.89 319.73C37.89 320.41 38.23 320.95 38.91 321.35C39.59 321.75 40.41 322.07 41.37 322.31C42.35 322.53 43.33 322.81 44.31 323.15C45.29 323.49 46.12 324.06 46.8 324.86C47.48 325.64 47.82 326.66 47.82 327.92C47.82 330.46 47.06 332.35 45.54 333.59C44.02 334.81 41.68 335.42 38.52 335.42C35.36 335.42 33.2 334.86 32.04 333.74C31.18 332.9 30.75 331.74 30.75 330.26C30.75 329.7 30.81 329.09 30.93 328.43L31.02 327.95H36.42L36.36 328.31C36.32 328.51 36.3 328.69 36.3 328.85Z" stroke="#6D86B2" stroke-width="2" mask="url(#path-47-outside-1_451_595)"/>
<path d="M55.8431 328.55C55.7831 328.91 55.7531 329.27 55.7531 329.63C55.7531 330.59 56.2931 331.07 57.3731 331.07C58.2531 331.07 58.9831 330.76 59.5631 330.14L61.2431 320.57H66.3431L63.7031 335.48C63.2631 338.02 62.2531 340.03 60.6731 341.51C59.1131 342.99 57.3231 343.73 55.3031 343.73C53.2831 343.73 51.8231 343.36 50.9231 342.62C50.0431 341.88 49.6031 340.91 49.6031 339.71C49.6031 338.01 50.6531 336.5 52.7531 335.18C51.6131 334.9 50.8931 334.33 50.5931 333.47C50.4131 332.99 50.3231 332.45 50.3231 331.85C50.3231 331.25 50.3731 330.64 50.4731 330.02L52.1531 320.57H57.2531L55.8431 328.55ZM55.9931 339.44C57.2931 339.44 58.1431 338.26 58.5431 335.9L58.8431 334.16C56.0631 335.46 54.6731 336.77 54.6731 338.09C54.6731 338.49 54.7831 338.81 55.0031 339.05C55.2431 339.31 55.5731 339.44 55.9931 339.44Z" stroke="#6D86B2" stroke-width="2" mask="url(#path-47-outside-1_451_595)"/>
<path d="M82.2225 323.69C82.2225 324.35 82.0225 324.96 81.6225 325.52H76.7025C76.8625 325.4 76.9425 325.2 76.9425 324.92C76.9425 324.64 76.7825 324.42 76.4625 324.26C76.1425 324.08 75.7325 323.99 75.2325 323.99C73.7325 323.99 72.9825 324.45 72.9825 325.37C72.9825 325.73 73.2625 325.99 73.8225 326.15C74.3825 326.31 75.0625 326.44 75.8625 326.54C76.6625 326.64 77.4625 326.79 78.2625 326.99C79.0625 327.17 79.7425 327.54 80.3025 328.1C80.8625 328.66 81.1425 329.41 81.1425 330.35C81.1425 332.01 80.4725 333.27 79.1325 334.13C77.8125 334.99 75.8825 335.42 73.3425 335.42C70.8025 335.42 69.0225 335.01 68.0025 334.19C67.2025 333.55 66.8025 332.67 66.8025 331.55C66.8025 331.23 66.8325 330.9 66.8925 330.56L71.9025 330.5C71.8625 330.78 72.0225 331.03 72.3825 331.25C72.7625 331.45 73.3125 331.55 74.0325 331.55C74.7525 331.55 75.2725 331.48 75.5925 331.34C75.9125 331.18 76.0725 330.89 76.0725 330.47C76.0725 330.19 75.7925 330 75.2325 329.9C74.6725 329.78 73.9825 329.68 73.1625 329.6C72.3625 329.52 71.5525 329.39 70.7325 329.21C69.9325 329.03 69.2525 328.65 68.6925 328.07C68.1325 327.49 67.8525 326.73 67.8525 325.79C67.8525 323.97 68.5525 322.57 69.9525 321.59C71.3725 320.61 73.4125 320.12 76.0725 320.12C80.1725 320.12 82.2225 321.31 82.2225 323.69Z" stroke="#6D86B2" stroke-width="2" mask="url(#path-47-outside-1_451_595)"/>
<path d="M90.1073 335.42C87.7873 335.42 86.1173 334.9 85.0973 333.86C84.3373 333.1 83.9573 332.08 83.9573 330.8C83.9573 330.38 83.9973 329.93 84.0773 329.45L86.1173 317.84L91.6073 315.56L90.7373 320.57H99.0173L98.2673 324.8H89.9873L89.3873 328.19C89.3073 328.57 89.2673 328.91 89.2673 329.21C89.2673 330.47 89.8673 331.1 91.0673 331.1C91.7073 331.1 92.2373 330.83 92.6573 330.29C93.0973 329.75 93.3973 329.03 93.5573 328.13H98.5373C97.6973 332.99 94.8873 335.42 90.1073 335.42Z" stroke="#6D86B2" stroke-width="2" mask="url(#path-47-outside-1_451_595)"/>
<path d="M106.212 335.42C102.052 335.42 99.9722 333.98 99.9722 331.1C99.9722 330.7 100.012 330.27 100.092 329.81L100.722 326.09C101.062 324.17 101.942 322.7 103.362 321.68C104.802 320.64 106.702 320.12 109.062 320.12C113.082 320.12 115.092 321.64 115.092 324.68C115.092 325.12 115.052 325.6 114.972 326.12L114.612 328.25H105.462L105.342 328.94C105.302 329.18 105.282 329.4 105.282 329.6C105.282 330.7 105.932 331.25 107.232 331.25C107.712 331.25 108.122 331.1 108.462 330.8C108.802 330.5 109.002 330.15 109.062 329.75L114.042 329.81C113.382 333.55 110.772 335.42 106.212 335.42ZM109.812 326.42C109.892 326.08 109.932 325.77 109.932 325.49C109.932 325.19 109.802 324.89 109.542 324.59C109.282 324.29 108.862 324.14 108.282 324.14C107.722 324.14 107.202 324.33 106.722 324.71C106.262 325.09 105.942 325.66 105.762 326.42H109.812Z" stroke="#6D86B2" stroke-width="2" mask="url(#path-47-outside-1_451_595)"/>
<path d="M141.545 331.16C142.005 331.16 142.415 331.06 142.775 330.86L142.625 334.25C141.685 335.03 140.615 335.42 139.415 335.42C136.695 335.42 135.335 334.28 135.335 332C135.335 331.6 135.375 331.17 135.455 330.71L136.085 327.02C136.145 326.66 136.175 326.3 136.175 325.94C136.175 324.98 135.645 324.5 134.585 324.5C133.545 324.5 132.725 324.91 132.125 325.73L130.505 335H125.405L126.815 327.02C126.875 326.66 126.905 326.3 126.905 325.94C126.905 324.98 126.365 324.5 125.285 324.5C124.425 324.5 123.685 324.83 123.065 325.49L121.385 335H116.285L118.835 320.57H123.575L123.245 322.37C124.445 320.89 125.965 320.15 127.805 320.15C130.405 320.15 131.885 321.01 132.245 322.73C133.445 321.01 135.045 320.15 137.045 320.15C139.065 320.15 140.375 320.6 140.975 321.5C141.375 322.12 141.575 322.8 141.575 323.54C141.575 324.28 141.525 324.95 141.425 325.55L140.675 330.02C140.655 330.14 140.645 330.25 140.645 330.35C140.645 330.89 140.945 331.16 141.545 331.16Z" stroke="#6D86B2" stroke-width="2" mask="url(#path-47-outside-1_451_595)"/>
<mask id="path-48-outside-2_451_595" maskUnits="userSpaceOnUse" x="505.75" y="279.99" width="117" height="58" fill="black">
<rect fill="white" x="505.75" y="279.99" width="117" height="58"/>
<path d="M518.24 282.19C523.06 282.19 525.47 284.16 525.47 288.1C525.47 288.76 525.4 289.47 525.26 290.23L524.21 296.23C523.73 299.01 522.69 301.07 521.09 302.41C519.49 303.75 517.24 304.42 514.34 304.42C511.44 304.42 509.42 303.75 508.28 302.41C507.5 301.49 507.11 300.22 507.11 298.6C507.11 297.88 507.19 297.09 507.35 296.23L508.4 290.23C509.34 284.87 512.62 282.19 518.24 282.19ZM515.15 299.77C516.15 299.77 516.95 299.51 517.55 298.99C518.15 298.47 518.57 297.51 518.81 296.11L519.83 290.35C519.89 289.95 519.92 289.59 519.92 289.27C519.92 287.65 519.1 286.84 517.46 286.84C515.4 286.88 514.17 288.05 513.77 290.35L512.75 296.11C512.67 296.61 512.63 297.13 512.63 297.67C512.63 299.07 513.47 299.77 515.15 299.77Z"/>
<path d="M541.042 299.38C541.042 299.9 541.302 300.16 541.822 300.16C542.362 300.16 542.812 300.06 543.172 299.86L543.022 303.25C542.062 304.03 540.982 304.42 539.782 304.42C537.522 304.42 536.292 303.55 536.092 301.81C534.892 303.55 533.272 304.42 531.232 304.42C529.212 304.42 527.902 303.96 527.302 303.04C526.902 302.46 526.702 301.8 526.702 301.06C526.702 300.32 526.762 299.64 526.882 299.02L528.562 289.57H533.662L532.252 297.55C532.192 297.91 532.162 298.27 532.162 298.63C532.162 299.59 532.702 300.07 533.782 300.07C534.682 300.07 535.402 299.76 535.942 299.14L537.652 289.57H542.752L541.072 299.02C541.052 299.14 541.042 299.26 541.042 299.38Z"/>
<path d="M551.459 304.42C549.139 304.42 547.469 303.9 546.449 302.86C545.689 302.1 545.309 301.08 545.309 299.8C545.309 299.38 545.349 298.93 545.429 298.45L547.469 286.84L552.959 284.56L552.089 289.57H560.369L559.619 293.8H551.339L550.739 297.19C550.659 297.57 550.619 297.91 550.619 298.21C550.619 299.47 551.219 300.1 552.419 300.1C553.059 300.1 553.589 299.83 554.009 299.29C554.449 298.75 554.749 298.03 554.909 297.13H559.889C559.049 301.99 556.239 304.42 551.459 304.42Z"/>
<path d="M576.504 292.69C576.504 293.35 576.304 293.96 575.904 294.52H570.984C571.144 294.4 571.224 294.2 571.224 293.92C571.224 293.64 571.064 293.42 570.744 293.26C570.424 293.08 570.014 292.99 569.514 292.99C568.014 292.99 567.264 293.45 567.264 294.37C567.264 294.73 567.544 294.99 568.104 295.15C568.664 295.31 569.344 295.44 570.144 295.54C570.944 295.64 571.744 295.79 572.544 295.99C573.344 296.17 574.024 296.54 574.584 297.1C575.144 297.66 575.424 298.41 575.424 299.35C575.424 301.01 574.754 302.27 573.414 303.13C572.094 303.99 570.164 304.42 567.624 304.42C565.084 304.42 563.304 304.01 562.284 303.19C561.484 302.55 561.084 301.67 561.084 300.55C561.084 300.23 561.114 299.9 561.174 299.56L566.184 299.5C566.144 299.78 566.304 300.03 566.664 300.25C567.044 300.45 567.594 300.55 568.314 300.55C569.034 300.55 569.554 300.48 569.874 300.34C570.194 300.18 570.354 299.89 570.354 299.47C570.354 299.19 570.074 299 569.514 298.9C568.954 298.78 568.264 298.68 567.444 298.6C566.644 298.52 565.834 298.39 565.014 298.21C564.214 298.03 563.534 297.65 562.974 297.07C562.414 296.49 562.134 295.73 562.134 294.79C562.134 292.97 562.834 291.57 564.234 290.59C565.654 289.61 567.694 289.12 570.354 289.12C574.454 289.12 576.504 290.31 576.504 292.69Z"/>
<path d="M584.299 300.16C584.759 300.16 585.169 300.06 585.529 299.86L585.379 303.25C584.439 304.03 583.369 304.42 582.169 304.42C580.349 304.42 579.169 304 578.629 303.16C578.269 302.6 578.089 302.01 578.089 301.39C578.089 300.75 578.129 300.19 578.209 299.71L580.009 289.57H585.109L583.429 299.02C583.409 299.14 583.399 299.25 583.399 299.35C583.399 299.89 583.699 300.16 584.299 300.16ZM580.609 284.68C580.609 283.4 580.889 282.47 581.449 281.89C582.029 281.29 582.919 280.99 584.119 280.99C585.799 280.99 586.639 281.73 586.639 283.21C586.639 284.47 586.349 285.39 585.769 285.97C585.209 286.55 584.319 286.84 583.099 286.84C581.439 286.84 580.609 286.12 580.609 284.68Z"/>
<path d="M601.443 299.38C601.443 299.9 601.703 300.16 602.223 300.16C602.763 300.16 603.213 300.06 603.573 299.86L603.423 303.25C602.463 304.03 601.383 304.42 600.183 304.42C597.983 304.42 596.763 303.62 596.523 302.02C595.523 303.62 594.053 304.42 592.113 304.42C588.833 304.42 587.193 303.01 587.193 300.19C587.193 299.71 587.243 299.18 587.343 298.6L587.973 295.09C588.293 293.29 589.023 291.86 590.163 290.8C591.323 289.72 592.923 289.18 594.963 289.18C596.223 289.18 597.223 289.45 597.963 289.99L599.493 281.23H604.623L601.473 299.02C601.453 299.14 601.443 299.26 601.443 299.38ZM592.563 297.94C592.523 298.12 592.503 298.37 592.503 298.69C592.503 299.01 592.653 299.33 592.953 299.65C593.253 299.95 593.753 300.1 594.453 300.1C595.173 300.1 595.793 299.82 596.313 299.26L597.213 294.22C596.993 293.72 596.473 293.47 595.653 293.47C594.113 293.47 593.213 294.21 592.953 295.69L592.563 297.94Z"/>
<path d="M612.066 304.42C607.906 304.42 605.826 302.98 605.826 300.1C605.826 299.7 605.866 299.27 605.946 298.81L606.576 295.09C606.916 293.17 607.796 291.7 609.216 290.68C610.656 289.64 612.556 289.12 614.916 289.12C618.936 289.12 620.946 290.64 620.946 293.68C620.946 294.12 620.906 294.6 620.826 295.12L620.466 297.25H611.316L611.196 297.94C611.156 298.18 611.136 298.4 611.136 298.6C611.136 299.7 611.786 300.25 613.086 300.25C613.566 300.25 613.976 300.1 614.316 299.8C614.656 299.5 614.856 299.15 614.916 298.75L619.896 298.81C619.236 302.55 616.626 304.42 612.066 304.42ZM615.666 295.42C615.746 295.08 615.786 294.77 615.786 294.49C615.786 294.19 615.656 293.89 615.396 293.59C615.136 293.29 614.716 293.14 614.136 293.14C613.576 293.14 613.056 293.33 612.576 293.71C612.116 294.09 611.796 294.66 611.616 295.42H615.666Z"/>
<path d="M512.3 321.85C512.3 323.23 513.29 323.92 515.27 323.92C517.27 323.92 518.27 323.3 518.27 322.06C518.27 321.4 517.93 320.86 517.25 320.44C516.57 320.02 515.74 319.67 514.76 319.39C513.8 319.11 512.83 318.79 511.85 318.43C510.89 318.05 510.07 317.47 509.39 316.69C508.71 315.89 508.37 314.9 508.37 313.72C508.37 308.7 511.6 306.19 518.06 306.19C520.42 306.19 522.2 306.64 523.4 307.54C524.62 308.42 525.23 309.65 525.23 311.23C525.23 311.81 525.15 312.37 524.99 312.91C524.85 313.43 524.7 313.8 524.54 314.02L524.3 314.38H518.99C519.43 313.92 519.65 313.34 519.65 312.64C519.65 311.34 518.8 310.69 517.1 310.69C514.96 310.69 513.89 311.37 513.89 312.73C513.89 313.41 514.23 313.95 514.91 314.35C515.59 314.75 516.41 315.07 517.37 315.31C518.35 315.53 519.33 315.81 520.31 316.15C521.29 316.49 522.12 317.06 522.8 317.86C523.48 318.64 523.82 319.66 523.82 320.92C523.82 323.46 523.06 325.35 521.54 326.59C520.02 327.81 517.68 328.42 514.52 328.42C511.36 328.42 509.2 327.86 508.04 326.74C507.18 325.9 506.75 324.74 506.75 323.26C506.75 322.7 506.81 322.09 506.93 321.43L507.02 320.95H512.42L512.36 321.31C512.32 321.51 512.3 321.69 512.3 321.85Z"/>
<path d="M531.843 321.55C531.783 321.91 531.753 322.27 531.753 322.63C531.753 323.59 532.293 324.07 533.373 324.07C534.253 324.07 534.983 323.76 535.563 323.14L537.243 313.57H542.343L539.703 328.48C539.263 331.02 538.253 333.03 536.673 334.51C535.113 335.99 533.323 336.73 531.303 336.73C529.283 336.73 527.823 336.36 526.923 335.62C526.043 334.88 525.603 333.91 525.603 332.71C525.603 331.01 526.653 329.5 528.753 328.18C527.613 327.9 526.893 327.33 526.593 326.47C526.413 325.99 526.323 325.45 526.323 324.85C526.323 324.25 526.373 323.64 526.473 323.02L528.153 313.57H533.253L531.843 321.55ZM531.993 332.44C533.293 332.44 534.143 331.26 534.543 328.9L534.843 327.16C532.063 328.46 530.673 329.77 530.673 331.09C530.673 331.49 530.783 331.81 531.003 332.05C531.243 332.31 531.573 332.44 531.993 332.44Z"/>
<path d="M558.222 316.69C558.222 317.35 558.023 317.96 557.623 318.52H552.702C552.862 318.4 552.943 318.2 552.943 317.92C552.943 317.64 552.783 317.42 552.463 317.26C552.143 317.08 551.733 316.99 551.233 316.99C549.733 316.99 548.983 317.45 548.983 318.37C548.983 318.73 549.263 318.99 549.823 319.15C550.383 319.31 551.062 319.44 551.862 319.54C552.662 319.64 553.463 319.79 554.263 319.99C555.063 320.17 555.743 320.54 556.303 321.1C556.863 321.66 557.143 322.41 557.143 323.35C557.143 325.01 556.472 326.27 555.132 327.13C553.812 327.99 551.882 328.42 549.342 328.42C546.802 328.42 545.022 328.01 544.002 327.19C543.202 326.55 542.803 325.67 542.803 324.55C542.803 324.23 542.833 323.9 542.893 323.56L547.903 323.5C547.863 323.78 548.022 324.03 548.382 324.25C548.762 324.45 549.313 324.55 550.033 324.55C550.753 324.55 551.273 324.48 551.593 324.34C551.913 324.18 552.072 323.89 552.072 323.47C552.072 323.19 551.793 323 551.233 322.9C550.673 322.78 549.983 322.68 549.163 322.6C548.363 322.52 547.553 322.39 546.733 322.21C545.933 322.03 545.253 321.65 544.693 321.07C544.133 320.49 543.853 319.73 543.853 318.79C543.853 316.97 544.552 315.57 545.952 314.59C547.372 313.61 549.412 313.12 552.072 313.12C556.172 313.12 558.222 314.31 558.222 316.69Z"/>
<path d="M566.107 328.42C563.787 328.42 562.117 327.9 561.097 326.86C560.337 326.1 559.957 325.08 559.957 323.8C559.957 323.38 559.997 322.93 560.077 322.45L562.117 310.84L567.607 308.56L566.737 313.57H575.017L574.267 317.8H565.987L565.387 321.19C565.307 321.57 565.267 321.91 565.267 322.21C565.267 323.47 565.867 324.1 567.067 324.1C567.707 324.1 568.237 323.83 568.657 323.29C569.097 322.75 569.397 322.03 569.557 321.13H574.537C573.697 325.99 570.887 328.42 566.107 328.42Z"/>
<path d="M582.212 328.42C578.052 328.42 575.972 326.98 575.972 324.1C575.972 323.7 576.012 323.27 576.092 322.81L576.722 319.09C577.062 317.17 577.942 315.7 579.362 314.68C580.802 313.64 582.702 313.12 585.062 313.12C589.082 313.12 591.092 314.64 591.092 317.68C591.092 318.12 591.052 318.6 590.972 319.12L590.612 321.25H581.462L581.342 321.94C581.302 322.18 581.282 322.4 581.282 322.6C581.282 323.7 581.932 324.25 583.232 324.25C583.712 324.25 584.122 324.1 584.462 323.8C584.802 323.5 585.002 323.15 585.062 322.75L590.042 322.81C589.382 326.55 586.772 328.42 582.212 328.42ZM585.812 319.42C585.892 319.08 585.932 318.77 585.932 318.49C585.932 318.19 585.802 317.89 585.542 317.59C585.282 317.29 584.862 317.14 584.282 317.14C583.722 317.14 583.202 317.33 582.722 317.71C582.262 318.09 581.942 318.66 581.762 319.42H585.812Z"/>
<path d="M617.545 324.16C618.005 324.16 618.415 324.06 618.775 323.86L618.625 327.25C617.685 328.03 616.615 328.42 615.415 328.42C612.695 328.42 611.335 327.28 611.335 325C611.335 324.6 611.375 324.17 611.455 323.71L612.085 320.02C612.145 319.66 612.175 319.3 612.175 318.94C612.175 317.98 611.645 317.5 610.585 317.5C609.545 317.5 608.725 317.91 608.125 318.73L606.505 328H601.405L602.815 320.02C602.875 319.66 602.905 319.3 602.905 318.94C602.905 317.98 602.365 317.5 601.285 317.5C600.425 317.5 599.685 317.83 599.065 318.49L597.385 328H592.285L594.835 313.57H599.575L599.245 315.37C600.445 313.89 601.965 313.15 603.805 313.15C606.405 313.15 607.885 314.01 608.245 315.73C609.445 314.01 611.045 313.15 613.045 313.15C615.065 313.15 616.375 313.6 616.975 314.5C617.375 315.12 617.575 315.8 617.575 316.54C617.575 317.28 617.525 317.95 617.425 318.55L616.675 323.02C616.655 323.14 616.645 323.25 616.645 323.35C616.645 323.89 616.945 324.16 617.545 324.16Z"/>
</mask>
<path d="M518.24 282.19C523.06 282.19 525.47 284.16 525.47 288.1C525.47 288.76 525.4 289.47 525.26 290.23L524.21 296.23C523.73 299.01 522.69 301.07 521.09 302.41C519.49 303.75 517.24 304.42 514.34 304.42C511.44 304.42 509.42 303.75 508.28 302.41C507.5 301.49 507.11 300.22 507.11 298.6C507.11 297.88 507.19 297.09 507.35 296.23L508.4 290.23C509.34 284.87 512.62 282.19 518.24 282.19ZM515.15 299.77C516.15 299.77 516.95 299.51 517.55 298.99C518.15 298.47 518.57 297.51 518.81 296.11L519.83 290.35C519.89 289.95 519.92 289.59 519.92 289.27C519.92 287.65 519.1 286.84 517.46 286.84C515.4 286.88 514.17 288.05 513.77 290.35L512.75 296.11C512.67 296.61 512.63 297.13 512.63 297.67C512.63 299.07 513.47 299.77 515.15 299.77Z" fill="white"/>
<path d="M541.042 299.38C541.042 299.9 541.302 300.16 541.822 300.16C542.362 300.16 542.812 300.06 543.172 299.86L543.022 303.25C542.062 304.03 540.982 304.42 539.782 304.42C537.522 304.42 536.292 303.55 536.092 301.81C534.892 303.55 533.272 304.42 531.232 304.42C529.212 304.42 527.902 303.96 527.302 303.04C526.902 302.46 526.702 301.8 526.702 301.06C526.702 300.32 526.762 299.64 526.882 299.02L528.562 289.57H533.662L532.252 297.55C532.192 297.91 532.162 298.27 532.162 298.63C532.162 299.59 532.702 300.07 533.782 300.07C534.682 300.07 535.402 299.76 535.942 299.14L537.652 289.57H542.752L541.072 299.02C541.052 299.14 541.042 299.26 541.042 299.38Z" fill="white"/>
<path d="M551.459 304.42C549.139 304.42 547.469 303.9 546.449 302.86C545.689 302.1 545.309 301.08 545.309 299.8C545.309 299.38 545.349 298.93 545.429 298.45L547.469 286.84L552.959 284.56L552.089 289.57H560.369L559.619 293.8H551.339L550.739 297.19C550.659 297.57 550.619 297.91 550.619 298.21C550.619 299.47 551.219 300.1 552.419 300.1C553.059 300.1 553.589 299.83 554.009 299.29C554.449 298.75 554.749 298.03 554.909 297.13H559.889C559.049 301.99 556.239 304.42 551.459 304.42Z" fill="white"/>
<path d="M576.504 292.69C576.504 293.35 576.304 293.96 575.904 294.52H570.984C571.144 294.4 571.224 294.2 571.224 293.92C571.224 293.64 571.064 293.42 570.744 293.26C570.424 293.08 570.014 292.99 569.514 292.99C568.014 292.99 567.264 293.45 567.264 294.37C567.264 294.73 567.544 294.99 568.104 295.15C568.664 295.31 569.344 295.44 570.144 295.54C570.944 295.64 571.744 295.79 572.544 295.99C573.344 296.17 574.024 296.54 574.584 297.1C575.144 297.66 575.424 298.41 575.424 299.35C575.424 301.01 574.754 302.27 573.414 303.13C572.094 303.99 570.164 304.42 567.624 304.42C565.084 304.42 563.304 304.01 562.284 303.19C561.484 302.55 561.084 301.67 561.084 300.55C561.084 300.23 561.114 299.9 561.174 299.56L566.184 299.5C566.144 299.78 566.304 300.03 566.664 300.25C567.044 300.45 567.594 300.55 568.314 300.55C569.034 300.55 569.554 300.48 569.874 300.34C570.194 300.18 570.354 299.89 570.354 299.47C570.354 299.19 570.074 299 569.514 298.9C568.954 298.78 568.264 298.68 567.444 298.6C566.644 298.52 565.834 298.39 565.014 298.21C564.214 298.03 563.534 297.65 562.974 297.07C562.414 296.49 562.134 295.73 562.134 294.79C562.134 292.97 562.834 291.57 564.234 290.59C565.654 289.61 567.694 289.12 570.354 289.12C574.454 289.12 576.504 290.31 576.504 292.69Z" fill="white"/>
<path d="M584.299 300.16C584.759 300.16 585.169 300.06 585.529 299.86L585.379 303.25C584.439 304.03 583.369 304.42 582.169 304.42C580.349 304.42 579.169 304 578.629 303.16C578.269 302.6 578.089 302.01 578.089 301.39C578.089 300.75 578.129 300.19 578.209 299.71L580.009 289.57H585.109L583.429 299.02C583.409 299.14 583.399 299.25 583.399 299.35C583.399 299.89 583.699 300.16 584.299 300.16ZM580.609 284.68C580.609 283.4 580.889 282.47 581.449 281.89C582.029 281.29 582.919 280.99 584.119 280.99C585.799 280.99 586.639 281.73 586.639 283.21C586.639 284.47 586.349 285.39 585.769 285.97C585.209 286.55 584.319 286.84 583.099 286.84C581.439 286.84 580.609 286.12 580.609 284.68Z" fill="white"/>
<path d="M601.443 299.38C601.443 299.9 601.703 300.16 602.223 300.16C602.763 300.16 603.213 300.06 603.573 299.86L603.423 303.25C602.463 304.03 601.383 304.42 600.183 304.42C597.983 304.42 596.763 303.62 596.523 302.02C595.523 303.62 594.053 304.42 592.113 304.42C588.833 304.42 587.193 303.01 587.193 300.19C587.193 299.71 587.243 299.18 587.343 298.6L587.973 295.09C588.293 293.29 589.023 291.86 590.163 290.8C591.323 289.72 592.923 289.18 594.963 289.18C596.223 289.18 597.223 289.45 597.963 289.99L599.493 281.23H604.623L601.473 299.02C601.453 299.14 601.443 299.26 601.443 299.38ZM592.563 297.94C592.523 298.12 592.503 298.37 592.503 298.69C592.503 299.01 592.653 299.33 592.953 299.65C593.253 299.95 593.753 300.1 594.453 300.1C595.173 300.1 595.793 299.82 596.313 299.26L597.213 294.22C596.993 293.72 596.473 293.47 595.653 293.47C594.113 293.47 593.213 294.21 592.953 295.69L592.563 297.94Z" fill="white"/>
<path d="M612.066 304.42C607.906 304.42 605.826 302.98 605.826 300.1C605.826 299.7 605.866 299.27 605.946 298.81L606.576 295.09C606.916 293.17 607.796 291.7 609.216 290.68C610.656 289.64 612.556 289.12 614.916 289.12C618.936 289.12 620.946 290.64 620.946 293.68C620.946 294.12 620.906 294.6 620.826 295.12L620.466 297.25H611.316L611.196 297.94C611.156 298.18 611.136 298.4 611.136 298.6C611.136 299.7 611.786 300.25 613.086 300.25C613.566 300.25 613.976 300.1 614.316 299.8C614.656 299.5 614.856 299.15 614.916 298.75L619.896 298.81C619.236 302.55 616.626 304.42 612.066 304.42ZM615.666 295.42C615.746 295.08 615.786 294.77 615.786 294.49C615.786 294.19 615.656 293.89 615.396 293.59C615.136 293.29 614.716 293.14 614.136 293.14C613.576 293.14 613.056 293.33 612.576 293.71C612.116 294.09 611.796 294.66 611.616 295.42H615.666Z" fill="white"/>
<path d="M512.3 321.85C512.3 323.23 513.29 323.92 515.27 323.92C517.27 323.92 518.27 323.3 518.27 322.06C518.27 321.4 517.93 320.86 517.25 320.44C516.57 320.02 515.74 319.67 514.76 319.39C513.8 319.11 512.83 318.79 511.85 318.43C510.89 318.05 510.07 317.47 509.39 316.69C508.71 315.89 508.37 314.9 508.37 313.72C508.37 308.7 511.6 306.19 518.06 306.19C520.42 306.19 522.2 306.64 523.4 307.54C524.62 308.42 525.23 309.65 525.23 311.23C525.23 311.81 525.15 312.37 524.99 312.91C524.85 313.43 524.7 313.8 524.54 314.02L524.3 314.38H518.99C519.43 313.92 519.65 313.34 519.65 312.64C519.65 311.34 518.8 310.69 517.1 310.69C514.96 310.69 513.89 311.37 513.89 312.73C513.89 313.41 514.23 313.95 514.91 314.35C515.59 314.75 516.41 315.07 517.37 315.31C518.35 315.53 519.33 315.81 520.31 316.15C521.29 316.49 522.12 317.06 522.8 317.86C523.48 318.64 523.82 319.66 523.82 320.92C523.82 323.46 523.06 325.35 521.54 326.59C520.02 327.81 517.68 328.42 514.52 328.42C511.36 328.42 509.2 327.86 508.04 326.74C507.18 325.9 506.75 324.74 506.75 323.26C506.75 322.7 506.81 322.09 506.93 321.43L507.02 320.95H512.42L512.36 321.31C512.32 321.51 512.3 321.69 512.3 321.85Z" fill="white"/>
<path d="M531.843 321.55C531.783 321.91 531.753 322.27 531.753 322.63C531.753 323.59 532.293 324.07 533.373 324.07C534.253 324.07 534.983 323.76 535.563 323.14L537.243 313.57H542.343L539.703 328.48C539.263 331.02 538.253 333.03 536.673 334.51C535.113 335.99 533.323 336.73 531.303 336.73C529.283 336.73 527.823 336.36 526.923 335.62C526.043 334.88 525.603 333.91 525.603 332.71C525.603 331.01 526.653 329.5 528.753 328.18C527.613 327.9 526.893 327.33 526.593 326.47C526.413 325.99 526.323 325.45 526.323 324.85C526.323 324.25 526.373 323.64 526.473 323.02L528.153 313.57H533.253L531.843 321.55ZM531.993 332.44C533.293 332.44 534.143 331.26 534.543 328.9L534.843 327.16C532.063 328.46 530.673 329.77 530.673 331.09C530.673 331.49 530.783 331.81 531.003 332.05C531.243 332.31 531.573 332.44 531.993 332.44Z" fill="white"/>
<path d="M558.222 316.69C558.222 317.35 558.023 317.96 557.623 318.52H552.702C552.862 318.4 552.943 318.2 552.943 317.92C552.943 317.64 552.783 317.42 552.463 317.26C552.143 317.08 551.733 316.99 551.233 316.99C549.733 316.99 548.983 317.45 548.983 318.37C548.983 318.73 549.263 318.99 549.823 319.15C550.383 319.31 551.062 319.44 551.862 319.54C552.662 319.64 553.463 319.79 554.263 319.99C555.063 320.17 555.743 320.54 556.303 321.1C556.863 321.66 557.143 322.41 557.143 323.35C557.143 325.01 556.472 326.27 555.132 327.13C553.812 327.99 551.882 328.42 549.342 328.42C546.802 328.42 545.022 328.01 544.002 327.19C543.202 326.55 542.803 325.67 542.803 324.55C542.803 324.23 542.833 323.9 542.893 323.56L547.903 323.5C547.863 323.78 548.022 324.03 548.382 324.25C548.762 324.45 549.313 324.55 550.033 324.55C550.753 324.55 551.273 324.48 551.593 324.34C551.913 324.18 552.072 323.89 552.072 323.47C552.072 323.19 551.793 323 551.233 322.9C550.673 322.78 549.983 322.68 549.163 322.6C548.363 322.52 547.553 322.39 546.733 322.21C545.933 322.03 545.253 321.65 544.693 321.07C544.133 320.49 543.853 319.73 543.853 318.79C543.853 316.97 544.552 315.57 545.952 314.59C547.372 313.61 549.412 313.12 552.072 313.12C556.172 313.12 558.222 314.31 558.222 316.69Z" fill="white"/>
<path d="M566.107 328.42C563.787 328.42 562.117 327.9 561.097 326.86C560.337 326.1 559.957 325.08 559.957 323.8C559.957 323.38 559.997 322.93 560.077 322.45L562.117 310.84L567.607 308.56L566.737 313.57H575.017L574.267 317.8H565.987L565.387 321.19C565.307 321.57 565.267 321.91 565.267 322.21C565.267 323.47 565.867 324.1 567.067 324.1C567.707 324.1 568.237 323.83 568.657 323.29C569.097 322.75 569.397 322.03 569.557 321.13H574.537C573.697 325.99 570.887 328.42 566.107 328.42Z" fill="white"/>
<path d="M582.212 328.42C578.052 328.42 575.972 326.98 575.972 324.1C575.972 323.7 576.012 323.27 576.092 322.81L576.722 319.09C577.062 317.17 577.942 315.7 579.362 314.68C580.802 313.64 582.702 313.12 585.062 313.12C589.082 313.12 591.092 314.64 591.092 317.68C591.092 318.12 591.052 318.6 590.972 319.12L590.612 321.25H581.462L581.342 321.94C581.302 322.18 581.282 322.4 581.282 322.6C581.282 323.7 581.932 324.25 583.232 324.25C583.712 324.25 584.122 324.1 584.462 323.8C584.802 323.5 585.002 323.15 585.062 322.75L590.042 322.81C589.382 326.55 586.772 328.42 582.212 328.42ZM585.812 319.42C585.892 319.08 585.932 318.77 585.932 318.49C585.932 318.19 585.802 317.89 585.542 317.59C585.282 317.29 584.862 317.14 584.282 317.14C583.722 317.14 583.202 317.33 582.722 317.71C582.262 318.09 581.942 318.66 581.762 319.42H585.812Z" fill="white"/>
<path d="M617.545 324.16C618.005 324.16 618.415 324.06 618.775 323.86L618.625 327.25C617.685 328.03 616.615 328.42 615.415 328.42C612.695 328.42 611.335 327.28 611.335 325C611.335 324.6 611.375 324.17 611.455 323.71L612.085 320.02C612.145 319.66 612.175 319.3 612.175 318.94C612.175 317.98 611.645 317.5 610.585 317.5C609.545 317.5 608.725 317.91 608.125 318.73L606.505 328H601.405L602.815 320.02C602.875 319.66 602.905 319.3 602.905 318.94C602.905 317.98 602.365 317.5 601.285 317.5C600.425 317.5 599.685 317.83 599.065 318.49L597.385 328H592.285L594.835 313.57H599.575L599.245 315.37C600.445 313.89 601.965 313.15 603.805 313.15C606.405 313.15 607.885 314.01 608.245 315.73C609.445 314.01 611.045 313.15 613.045 313.15C615.065 313.15 616.375 313.6 616.975 314.5C617.375 315.12 617.575 315.8 617.575 316.54C617.575 317.28 617.525 317.95 617.425 318.55L616.675 323.02C616.655 323.14 616.645 323.25 616.645 323.35C616.645 323.89 616.945 324.16 617.545 324.16Z" fill="white"/>
<path d="M518.24 282.19C523.06 282.19 525.47 284.16 525.47 288.1C525.47 288.76 525.4 289.47 525.26 290.23L524.21 296.23C523.73 299.01 522.69 301.07 521.09 302.41C519.49 303.75 517.24 304.42 514.34 304.42C511.44 304.42 509.42 303.75 508.28 302.41C507.5 301.49 507.11 300.22 507.11 298.6C507.11 297.88 507.19 297.09 507.35 296.23L508.4 290.23C509.34 284.87 512.62 282.19 518.24 282.19ZM515.15 299.77C516.15 299.77 516.95 299.51 517.55 298.99C518.15 298.47 518.57 297.51 518.81 296.11L519.83 290.35C519.89 289.95 519.92 289.59 519.92 289.27C519.92 287.65 519.1 286.84 517.46 286.84C515.4 286.88 514.17 288.05 513.77 290.35L512.75 296.11C512.67 296.61 512.63 297.13 512.63 297.67C512.63 299.07 513.47 299.77 515.15 299.77Z" stroke="#AABCE2" stroke-width="2" mask="url(#path-48-outside-2_451_595)"/>
<path d="M541.042 299.38C541.042 299.9 541.302 300.16 541.822 300.16C542.362 300.16 542.812 300.06 543.172 299.86L543.022 303.25C542.062 304.03 540.982 304.42 539.782 304.42C537.522 304.42 536.292 303.55 536.092 301.81C534.892 303.55 533.272 304.42 531.232 304.42C529.212 304.42 527.902 303.96 527.302 303.04C526.902 302.46 526.702 301.8 526.702 301.06C526.702 300.32 526.762 299.64 526.882 299.02L528.562 289.57H533.662L532.252 297.55C532.192 297.91 532.162 298.27 532.162 298.63C532.162 299.59 532.702 300.07 533.782 300.07C534.682 300.07 535.402 299.76 535.942 299.14L537.652 289.57H542.752L541.072 299.02C541.052 299.14 541.042 299.26 541.042 299.38Z" stroke="#AABCE2" stroke-width="2" mask="url(#path-48-outside-2_451_595)"/>
<path d="M551.459 304.42C549.139 304.42 547.469 303.9 546.449 302.86C545.689 302.1 545.309 301.08 545.309 299.8C545.309 299.38 545.349 298.93 545.429 298.45L547.469 286.84L552.959 284.56L552.089 289.57H560.369L559.619 293.8H551.339L550.739 297.19C550.659 297.57 550.619 297.91 550.619 298.21C550.619 299.47 551.219 300.1 552.419 300.1C553.059 300.1 553.589 299.83 554.009 299.29C554.449 298.75 554.749 298.03 554.909 297.13H559.889C559.049 301.99 556.239 304.42 551.459 304.42Z" stroke="#AABCE2" stroke-width="2" mask="url(#path-48-outside-2_451_595)"/>
<path d="M576.504 292.69C576.504 293.35 576.304 293.96 575.904 294.52H570.984C571.144 294.4 571.224 294.2 571.224 293.92C571.224 293.64 571.064 293.42 570.744 293.26C570.424 293.08 570.014 292.99 569.514 292.99C568.014 292.99 567.264 293.45 567.264 294.37C567.264 294.73 567.544 294.99 568.104 295.15C568.664 295.31 569.344 295.44 570.144 295.54C570.944 295.64 571.744 295.79 572.544 295.99C573.344 296.17 574.024 296.54 574.584 297.1C575.144 297.66 575.424 298.41 575.424 299.35C575.424 301.01 574.754 302.27 573.414 303.13C572.094 303.99 570.164 304.42 567.624 304.42C565.084 304.42 563.304 304.01 562.284 303.19C561.484 302.55 561.084 301.67 561.084 300.55C561.084 300.23 561.114 299.9 561.174 299.56L566.184 299.5C566.144 299.78 566.304 300.03 566.664 300.25C567.044 300.45 567.594 300.55 568.314 300.55C569.034 300.55 569.554 300.48 569.874 300.34C570.194 300.18 570.354 299.89 570.354 299.47C570.354 299.19 570.074 299 569.514 298.9C568.954 298.78 568.264 298.68 567.444 298.6C566.644 298.52 565.834 298.39 565.014 298.21C564.214 298.03 563.534 297.65 562.974 297.07C562.414 296.49 562.134 295.73 562.134 294.79C562.134 292.97 562.834 291.57 564.234 290.59C565.654 289.61 567.694 289.12 570.354 289.12C574.454 289.12 576.504 290.31 576.504 292.69Z" stroke="#AABCE2" stroke-width="2" mask="url(#path-48-outside-2_451_595)"/>
<path d="M584.299 300.16C584.759 300.16 585.169 300.06 585.529 299.86L585.379 303.25C584.439 304.03 583.369 304.42 582.169 304.42C580.349 304.42 579.169 304 578.629 303.16C578.269 302.6 578.089 302.01 578.089 301.39C578.089 300.75 578.129 300.19 578.209 299.71L580.009 289.57H585.109L583.429 299.02C583.409 299.14 583.399 299.25 583.399 299.35C583.399 299.89 583.699 300.16 584.299 300.16ZM580.609 284.68C580.609 283.4 580.889 282.47 581.449 281.89C582.029 281.29 582.919 280.99 584.119 280.99C585.799 280.99 586.639 281.73 586.639 283.21C586.639 284.47 586.349 285.39 585.769 285.97C585.209 286.55 584.319 286.84 583.099 286.84C581.439 286.84 580.609 286.12 580.609 284.68Z" stroke="#AABCE2" stroke-width="2" mask="url(#path-48-outside-2_451_595)"/>
<path d="M601.443 299.38C601.443 299.9 601.703 300.16 602.223 300.16C602.763 300.16 603.213 300.06 603.573 299.86L603.423 303.25C602.463 304.03 601.383 304.42 600.183 304.42C597.983 304.42 596.763 303.62 596.523 302.02C595.523 303.62 594.053 304.42 592.113 304.42C588.833 304.42 587.193 303.01 587.193 300.19C587.193 299.71 587.243 299.18 587.343 298.6L587.973 295.09C588.293 293.29 589.023 291.86 590.163 290.8C591.323 289.72 592.923 289.18 594.963 289.18C596.223 289.18 597.223 289.45 597.963 289.99L599.493 281.23H604.623L601.473 299.02C601.453 299.14 601.443 299.26 601.443 299.38ZM592.563 297.94C592.523 298.12 592.503 298.37 592.503 298.69C592.503 299.01 592.653 299.33 592.953 299.65C593.253 299.95 593.753 300.1 594.453 300.1C595.173 300.1 595.793 299.82 596.313 299.26L597.213 294.22C596.993 293.72 596.473 293.47 595.653 293.47C594.113 293.47 593.213 294.21 592.953 295.69L592.563 297.94Z" stroke="#AABCE2" stroke-width="2" mask="url(#path-48-outside-2_451_595)"/>
<path d="M612.066 304.42C607.906 304.42 605.826 302.98 605.826 300.1C605.826 299.7 605.866 299.27 605.946 298.81L606.576 295.09C606.916 293.17 607.796 291.7 609.216 290.68C610.656 289.64 612.556 289.12 614.916 289.12C618.936 289.12 620.946 290.64 620.946 293.68C620.946 294.12 620.906 294.6 620.826 295.12L620.466 297.25H611.316L611.196 297.94C611.156 298.18 611.136 298.4 611.136 298.6C611.136 299.7 611.786 300.25 613.086 300.25C613.566 300.25 613.976 300.1 614.316 299.8C614.656 299.5 614.856 299.15 614.916 298.75L619.896 298.81C619.236 302.55 616.626 304.42 612.066 304.42ZM615.666 295.42C615.746 295.08 615.786 294.77 615.786 294.49C615.786 294.19 615.656 293.89 615.396 293.59C615.136 293.29 614.716 293.14 614.136 293.14C613.576 293.14 613.056 293.33 612.576 293.71C612.116 294.09 611.796 294.66 611.616 295.42H615.666Z" stroke="#AABCE2" stroke-width="2" mask="url(#path-48-outside-2_451_595)"/>
<path d="M512.3 321.85C512.3 323.23 513.29 323.92 515.27 323.92C517.27 323.92 518.27 323.3 518.27 322.06C518.27 321.4 517.93 320.86 517.25 320.44C516.57 320.02 515.74 319.67 514.76 319.39C513.8 319.11 512.83 318.79 511.85 318.43C510.89 318.05 510.07 317.47 509.39 316.69C508.71 315.89 508.37 314.9 508.37 313.72C508.37 308.7 511.6 306.19 518.06 306.19C520.42 306.19 522.2 306.64 523.4 307.54C524.62 308.42 525.23 309.65 525.23 311.23C525.23 311.81 525.15 312.37 524.99 312.91C524.85 313.43 524.7 313.8 524.54 314.02L524.3 314.38H518.99C519.43 313.92 519.65 313.34 519.65 312.64C519.65 311.34 518.8 310.69 517.1 310.69C514.96 310.69 513.89 311.37 513.89 312.73C513.89 313.41 514.23 313.95 514.91 314.35C515.59 314.75 516.41 315.07 517.37 315.31C518.35 315.53 519.33 315.81 520.31 316.15C521.29 316.49 522.12 317.06 522.8 317.86C523.48 318.64 523.82 319.66 523.82 320.92C523.82 323.46 523.06 325.35 521.54 326.59C520.02 327.81 517.68 328.42 514.52 328.42C511.36 328.42 509.2 327.86 508.04 326.74C507.18 325.9 506.75 324.74 506.75 323.26C506.75 322.7 506.81 322.09 506.93 321.43L507.02 320.95H512.42L512.36 321.31C512.32 321.51 512.3 321.69 512.3 321.85Z" stroke="#AABCE2" stroke-width="2" mask="url(#path-48-outside-2_451_595)"/>
<path d="M531.843 321.55C531.783 321.91 531.753 322.27 531.753 322.63C531.753 323.59 532.293 324.07 533.373 324.07C534.253 324.07 534.983 323.76 535.563 323.14L537.243 313.57H542.343L539.703 328.48C539.263 331.02 538.253 333.03 536.673 334.51C535.113 335.99 533.323 336.73 531.303 336.73C529.283 336.73 527.823 336.36 526.923 335.62C526.043 334.88 525.603 333.91 525.603 332.71C525.603 331.01 526.653 329.5 528.753 328.18C527.613 327.9 526.893 327.33 526.593 326.47C526.413 325.99 526.323 325.45 526.323 324.85C526.323 324.25 526.373 323.64 526.473 323.02L528.153 313.57H533.253L531.843 321.55ZM531.993 332.44C533.293 332.44 534.143 331.26 534.543 328.9L534.843 327.16C532.063 328.46 530.673 329.77 530.673 331.09C530.673 331.49 530.783 331.81 531.003 332.05C531.243 332.31 531.573 332.44 531.993 332.44Z" stroke="#AABCE2" stroke-width="2" mask="url(#path-48-outside-2_451_595)"/>
<path d="M558.222 316.69C558.222 317.35 558.023 317.96 557.623 318.52H552.702C552.862 318.4 552.943 318.2 552.943 317.92C552.943 317.64 552.783 317.42 552.463 317.26C552.143 317.08 551.733 316.99 551.233 316.99C549.733 316.99 548.983 317.45 548.983 318.37C548.983 318.73 549.263 318.99 549.823 319.15C550.383 319.31 551.062 319.44 551.862 319.54C552.662 319.64 553.463 319.79 554.263 319.99C555.063 320.17 555.743 320.54 556.303 321.1C556.863 321.66 557.143 322.41 557.143 323.35C557.143 325.01 556.472 326.27 555.132 327.13C553.812 327.99 551.882 328.42 549.342 328.42C546.802 328.42 545.022 328.01 544.002 327.19C543.202 326.55 542.803 325.67 542.803 324.55C542.803 324.23 542.833 323.9 542.893 323.56L547.903 323.5C547.863 323.78 548.022 324.03 548.382 324.25C548.762 324.45 549.313 324.55 550.033 324.55C550.753 324.55 551.273 324.48 551.593 324.34C551.913 324.18 552.072 323.89 552.072 323.47C552.072 323.19 551.793 323 551.233 322.9C550.673 322.78 549.983 322.68 549.163 322.6C548.363 322.52 547.553 322.39 546.733 322.21C545.933 322.03 545.253 321.65 544.693 321.07C544.133 320.49 543.853 319.73 543.853 318.79C543.853 316.97 544.552 315.57 545.952 314.59C547.372 313.61 549.412 313.12 552.072 313.12C556.172 313.12 558.222 314.31 558.222 316.69Z" stroke="#AABCE2" stroke-width="2" mask="url(#path-48-outside-2_451_595)"/>
<path d="M566.107 328.42C563.787 328.42 562.117 327.9 561.097 326.86C560.337 326.1 559.957 325.08 559.957 323.8C559.957 323.38 559.997 322.93 560.077 322.45L562.117 310.84L567.607 308.56L566.737 313.57H575.017L574.267 317.8H565.987L565.387 321.19C565.307 321.57 565.267 321.91 565.267 322.21C565.267 323.47 565.867 324.1 567.067 324.1C567.707 324.1 568.237 323.83 568.657 323.29C569.097 322.75 569.397 322.03 569.557 321.13H574.537C573.697 325.99 570.887 328.42 566.107 328.42Z" stroke="#AABCE2" stroke-width="2" mask="url(#path-48-outside-2_451_595)"/>
<path d="M582.212 328.42C578.052 328.42 575.972 326.98 575.972 324.1C575.972 323.7 576.012 323.27 576.092 322.81L576.722 319.09C577.062 317.17 577.942 315.7 579.362 314.68C580.802 313.64 582.702 313.12 585.062 313.12C589.082 313.12 591.092 314.64 591.092 317.68C591.092 318.12 591.052 318.6 590.972 319.12L590.612 321.25H581.462L581.342 321.94C581.302 322.18 581.282 322.4 581.282 322.6C581.282 323.7 581.932 324.25 583.232 324.25C583.712 324.25 584.122 324.1 584.462 323.8C584.802 323.5 585.002 323.15 585.062 322.75L590.042 322.81C589.382 326.55 586.772 328.42 582.212 328.42ZM585.812 319.42C585.892 319.08 585.932 318.77 585.932 318.49C585.932 318.19 585.802 317.89 585.542 317.59C585.282 317.29 584.862 317.14 584.282 317.14C583.722 317.14 583.202 317.33 582.722 317.71C582.262 318.09 581.942 318.66 581.762 319.42H585.812Z" stroke="#AABCE2" stroke-width="2" mask="url(#path-48-outside-2_451_595)"/>
<path d="M617.545 324.16C618.005 324.16 618.415 324.06 618.775 323.86L618.625 327.25C617.685 328.03 616.615 328.42 615.415 328.42C612.695 328.42 611.335 327.28 611.335 325C611.335 324.6 611.375 324.17 611.455 323.71L612.085 320.02C612.145 319.66 612.175 319.3 612.175 318.94C612.175 317.98 611.645 317.5 610.585 317.5C609.545 317.5 608.725 317.91 608.125 318.73L606.505 328H601.405L602.815 320.02C602.875 319.66 602.905 319.3 602.905 318.94C602.905 317.98 602.365 317.5 601.285 317.5C600.425 317.5 599.685 317.83 599.065 318.49L597.385 328H592.285L594.835 313.57H599.575L599.245 315.37C600.445 313.89 601.965 313.15 603.805 313.15C606.405 313.15 607.885 314.01 608.245 315.73C609.445 314.01 611.045 313.15 613.045 313.15C615.065 313.15 616.375 313.6 616.975 314.5C617.375 315.12 617.575 315.8 617.575 316.54C617.575 317.28 617.525 317.95 617.425 318.55L616.675 323.02C616.655 323.14 616.645 323.25 616.645 323.35C616.645 323.89 616.945 324.16 617.545 324.16Z" stroke="#AABCE2" stroke-width="2" mask="url(#path-48-outside-2_451_595)"/>
<mask id="path-49-inside-3_451_595" fill="white">
<path fill-rule="evenodd" clip-rule="evenodd" d="M603.056 119.953C603.056 128.33 596.618 135.204 588.42 135.896V135.897H588.406C587.961 135.934 587.511 135.953 587.056 135.953C586.602 135.953 586.152 135.934 585.707 135.897H494.869V135.889C494.667 135.894 494.465 135.897 494.262 135.897C482.519 135.897 473 126.378 473 114.635C473 102.893 482.519 93.3738 494.262 93.3738C494.314 93.3738 494.367 93.374 494.42 93.3744C493.92 91.4326 493.654 89.3968 493.654 87.299C493.654 73.879 504.533 63 517.953 63C530.247 63 540.409 72.1303 542.028 83.9802C546.165 81.4608 551.025 80.0095 556.224 80.0095C570.317 80.0095 581.919 90.6738 583.401 104.373C584.575 104.098 585.799 103.953 587.056 103.953C595.893 103.953 603.056 111.117 603.056 119.953Z"/>
</mask>
<path fill-rule="evenodd" clip-rule="evenodd" d="M603.056 119.953C603.056 128.33 596.618 135.204 588.42 135.896V135.897H588.406C587.961 135.934 587.511 135.953 587.056 135.953C586.602 135.953 586.152 135.934 585.707 135.897H494.869V135.889C494.667 135.894 494.465 135.897 494.262 135.897C482.519 135.897 473 126.378 473 114.635C473 102.893 482.519 93.3738 494.262 93.3738C494.314 93.3738 494.367 93.374 494.42 93.3744C493.92 91.4326 493.654 89.3968 493.654 87.299C493.654 73.879 504.533 63 517.953 63C530.247 63 540.409 72.1303 542.028 83.9802C546.165 81.4608 551.025 80.0095 556.224 80.0095C570.317 80.0095 581.919 90.6738 583.401 104.373C584.575 104.098 585.799 103.953 587.056 103.953C595.893 103.953 603.056 111.117 603.056 119.953Z" fill="white"/>
<path d="M588.42 135.896L588.084 131.91L584.42 132.219V135.896H588.42ZM588.42 135.897V139.897H592.42V135.897H588.42ZM588.406 135.897V131.897H588.239L588.073 131.911L588.406 135.897ZM585.707 135.897L586.04 131.911L585.874 131.897H585.707V135.897ZM494.869 135.897H490.869V139.897H494.869V135.897ZM494.869 135.889H498.869V131.775L494.757 131.89L494.869 135.889ZM494.42 93.3744L494.391 97.3743L499.59 97.4121L498.294 92.3772L494.42 93.3744ZM542.028 83.9802L538.064 84.5215L538.891 90.5733L544.108 87.3967L542.028 83.9802ZM583.401 104.373L579.424 104.803L579.91 109.296L584.311 108.268L583.401 104.373ZM588.757 139.882C599.009 139.016 607.056 130.427 607.056 119.953H599.056C599.056 126.234 594.228 131.391 588.084 131.91L588.757 139.882ZM592.42 135.897V135.896H584.42V135.897H592.42ZM588.406 139.897H588.42V131.897H588.406V139.897ZM587.056 139.953C587.622 139.953 588.183 139.93 588.738 139.883L588.073 131.911C587.738 131.939 587.4 131.953 587.056 131.953V139.953ZM585.374 139.883C585.93 139.93 586.491 139.953 587.056 139.953V131.953C586.713 131.953 586.374 131.939 586.04 131.911L585.374 139.883ZM494.869 139.897H585.707V131.897H494.869V139.897ZM490.869 135.889V135.897H498.869V135.889H490.869ZM494.262 139.897C494.502 139.897 494.742 139.894 494.981 139.887L494.757 131.89C494.592 131.895 494.427 131.897 494.262 131.897V139.897ZM469 114.635C469 128.587 480.31 139.897 494.262 139.897V131.897C484.728 131.897 477 124.169 477 114.635H469ZM494.262 89.3738C480.31 89.3738 469 100.684 469 114.635H477C477 105.102 484.728 97.3738 494.262 97.3738V89.3738ZM494.449 89.3745C494.387 89.374 494.324 89.3738 494.262 89.3738V97.3738C494.305 97.3738 494.348 97.3739 494.391 97.3743L494.449 89.3745ZM489.654 87.299C489.654 89.736 489.963 92.1067 490.546 94.3715L498.294 92.3772C497.877 90.7584 497.654 89.0577 497.654 87.299H489.654ZM517.953 59C502.324 59 489.654 71.6699 489.654 87.299H497.654C497.654 76.0882 506.742 67 517.953 67V59ZM545.991 83.439C544.105 69.6345 532.275 59 517.953 59V67C528.22 67 536.713 74.6262 538.064 84.5215L545.991 83.439ZM556.224 76.0095C550.271 76.0095 544.694 77.6734 539.947 80.5637L544.108 87.3967C547.637 85.2481 551.78 84.0095 556.224 84.0095V76.0095ZM587.377 103.943C585.678 88.2349 572.382 76.0095 556.224 76.0095V84.0095C568.252 84.0095 578.159 93.1126 579.424 104.803L587.377 103.943ZM587.056 99.9531C585.49 99.9531 583.961 100.134 582.49 100.478L584.311 108.268C585.189 108.063 586.107 107.953 587.056 107.953V99.9531ZM607.056 119.953C607.056 108.907 598.102 99.9531 587.056 99.9531V107.953C593.684 107.953 599.056 113.326 599.056 119.953H607.056Z" fill="#6D86B2" mask="url(#path-49-inside-3_451_595)"/>
<path d="M435.16 55.42C432.3 55.42 430.32 54.8 429.22 53.56C428.46 52.68 428.08 51.45 428.08 49.87C428.08 49.19 428.15 48.46 428.29 47.68L429.52 40.78C430.42 35.72 433.67 33.19 439.27 33.19C441.59 33.19 443.35 33.69 444.55 34.69C445.75 35.67 446.35 37.02 446.35 38.74C446.35 39.54 446.23 40.34 445.99 41.14C445.77 41.92 445.55 42.5 445.33 42.88L445 43.48H439.69C440.35 42.72 440.68 41.64 440.68 40.24C440.68 39.5 440.49 38.92 440.11 38.5C439.73 38.06 439.17 37.84 438.43 37.84C436.41 37.84 435.21 38.96 434.83 41.2L433.78 47.26C433.68 47.78 433.63 48.29 433.63 48.79C433.63 50.11 434.42 50.77 436 50.77C437.9 50.77 439.04 49.7 439.42 47.56H444.82L444.67 48.43C443.87 53.09 440.7 55.42 435.16 55.42Z" fill="white"/>
<path d="M452.664 50.38C452.664 50.9 452.924 51.16 453.444 51.16C453.984 51.16 454.434 51.06 454.794 50.86L454.644 54.25C453.684 55.03 452.604 55.42 451.404 55.42C449.584 55.42 448.404 55 447.864 54.16C447.524 53.62 447.354 53.03 447.354 52.39C447.354 51.75 447.394 51.19 447.474 50.71L450.744 32.23H455.844L452.694 50.02C452.674 50.14 452.664 50.26 452.664 50.38Z" fill="white"/>
<path d="M465.634 40.15C467.794 40.15 469.424 40.62 470.524 41.56C471.384 42.3 471.814 43.33 471.814 44.65C471.814 45.09 471.764 45.57 471.664 46.09L471.034 49.6C470.654 51.72 469.764 53.22 468.364 54.1C466.984 54.98 465.134 55.42 462.814 55.42C460.494 55.42 458.794 54.98 457.714 54.1C456.914 53.44 456.514 52.45 456.514 51.13C456.514 50.67 456.564 50.16 456.664 49.6L457.294 46.09C457.994 42.13 460.774 40.15 465.634 40.15ZM466.444 46.69C466.484 46.49 466.504 46.24 466.504 45.94C466.504 45.62 466.374 45.27 466.114 44.89C465.854 44.51 465.394 44.32 464.734 44.32C464.094 44.32 463.554 44.54 463.114 44.98C462.674 45.4 462.394 45.97 462.274 46.69L461.884 48.94C461.844 49.14 461.824 49.4 461.824 49.72C461.824 50.02 461.954 50.35 462.214 50.71C462.474 51.07 462.924 51.25 463.564 51.25C464.224 51.25 464.774 51.03 465.214 50.59C465.654 50.13 465.934 49.58 466.054 48.94L466.444 46.69Z" fill="white"/>
<path d="M488.057 50.38C488.057 50.9 488.317 51.16 488.837 51.16C489.377 51.16 489.827 51.06 490.187 50.86L490.037 54.25C489.077 55.03 487.997 55.42 486.797 55.42C484.537 55.42 483.307 54.55 483.107 52.81C481.907 54.55 480.287 55.42 478.247 55.42C476.227 55.42 474.917 54.96 474.317 54.04C473.917 53.46 473.717 52.8 473.717 52.06C473.717 51.32 473.777 50.64 473.897 50.02L475.577 40.57H480.677L479.267 48.55C479.207 48.91 479.177 49.27 479.177 49.63C479.177 50.59 479.717 51.07 480.797 51.07C481.697 51.07 482.417 50.76 482.957 50.14L484.667 40.57H489.767L488.087 50.02C488.067 50.14 488.057 50.26 488.057 50.38Z" fill="white"/>
<path d="M506.124 50.38C506.124 50.9 506.384 51.16 506.904 51.16C507.444 51.16 507.894 51.06 508.254 50.86L508.104 54.25C507.144 55.03 506.064 55.42 504.864 55.42C502.664 55.42 501.444 54.62 501.204 53.02C500.204 54.62 498.734 55.42 496.794 55.42C493.514 55.42 491.874 54.01 491.874 51.19C491.874 50.71 491.924 50.18 492.024 49.6L492.654 46.09C492.974 44.29 493.704 42.86 494.844 41.8C496.004 40.72 497.604 40.18 499.644 40.18C500.904 40.18 501.904 40.45 502.644 40.99L504.174 32.23H509.304L506.154 50.02C506.134 50.14 506.124 50.26 506.124 50.38ZM497.244 48.94C497.204 49.12 497.184 49.37 497.184 49.69C497.184 50.01 497.334 50.33 497.634 50.65C497.934 50.95 498.434 51.1 499.134 51.1C499.854 51.1 500.474 50.82 500.994 50.26L501.894 45.22C501.674 44.72 501.154 44.47 500.334 44.47C498.794 44.47 497.894 45.21 497.634 46.69L497.244 48.94Z" fill="white"/>
<path d="M217.127 224H187.863C185.431 224 183.1 224.967 181.376 226.681L160.68 247.379C158.967 249.103 158 251.434 158 253.866V283.134C158 285.565 158.967 287.898 160.68 289.621L181.376 310.319C183.1 312.043 185.431 313 187.863 313H217.127C219.559 313 221.89 312.033 223.614 310.319L244.31 289.621C246.033 287.898 246.99 285.565 246.99 283.134V253.866C246.99 251.434 246.023 249.103 244.31 247.379L223.604 226.681C221.89 224.967 219.559 224 217.127 224Z" fill="white"/>
<path d="M222.547 311.235C220.793 312.401 219.607 312.461 218.402 311.694C218.133 311.524 217.833 311.215 217.684 310.966C217.535 310.697 217.086 309.302 216.588 307.498C215.831 304.738 215.731 304.459 215.522 304.399C215.014 304.239 211.197 303.941 207.331 303.761L206.066 303.701L206.415 304.329C207.182 305.674 207.89 307.369 208.507 309.342C208.746 310.109 208.906 310.767 208.876 310.807C208.796 310.886 204.362 312.102 204.312 312.062C204.292 312.042 204.123 311.504 203.933 310.866C203.116 308.176 202.17 306.322 200.695 304.489L200.077 303.711L199.788 303.861C199.4 304.06 198.473 305.107 197.835 306.063C197.188 307.04 196.291 308.893 195.653 310.588C195.394 311.275 195.155 311.873 195.115 311.913C195.055 311.973 190.821 310.478 190.641 310.328C190.502 310.229 192.505 305.615 193.282 304.2C193.302 304.17 193.192 304.16 193.043 304.17C192.883 304.19 191.847 304.299 190.721 304.409C189.595 304.519 188.589 304.658 188.469 304.698C188.25 304.798 188.11 305.146 187.024 308.226C186.317 310.249 186.257 310.378 185.719 310.827C184.922 311.514 183.657 311.863 182.69 311.385C182.69 311.385 184.763 313.019 188.051 312.999C192.236 312.979 217.714 312.999 217.714 312.999C217.714 312.999 220.255 312.919 222.547 311.235ZM204.173 252.789C212.154 253.197 216.757 254.742 218.093 257.463C218.342 257.951 218.372 258.13 218.372 258.967C218.372 259.834 218.342 259.974 218.043 260.582C217.644 261.389 216.727 262.286 215.711 262.844C213.649 263.99 210.301 264.578 207.162 264.348C204.581 264.159 202.887 263.751 200.725 262.764C200.217 262.545 199.719 262.355 199.599 262.355C199.48 262.355 198.971 262.535 198.463 262.744C196.301 263.671 194.358 264.01 191.668 263.92C187.752 263.79 185.151 262.655 184.215 260.681C183.945 260.093 183.926 259.984 183.975 259.286C184.234 255.659 187.094 253.755 193.362 253.038C196.171 252.719 200.715 252.609 204.173 252.789ZM236.766 297.194C236.726 297.164 236.048 296.945 235.61 296.785C233.627 296.088 232.023 295.161 229.382 293.208C225.725 290.477 224.191 289.71 221.57 289.292C220.713 289.152 220.394 289.152 219.418 289.252C218.272 289.361 217.246 289.581 216.04 289.979L215.402 290.188L215.472 291.245C215.502 291.823 215.562 293.935 215.602 295.928L215.662 299.556L215.223 299.486C214.984 299.456 213.958 299.357 212.941 299.277C205.757 298.699 197.248 298.828 190.123 299.626C189.167 299.735 188.34 299.825 188.29 299.825C188.19 299.825 188.28 295.37 188.429 292.899C188.808 286.989 189.615 283.073 190.831 281.339C191.05 281.03 191.219 280.761 191.199 280.741C191.179 280.731 190.88 280.582 190.522 280.412C190.163 280.243 189.396 279.825 188.818 279.476C183.686 276.387 180.378 271.374 179.601 265.514C179.382 263.89 179.462 260.921 179.751 259.176C181.096 251.294 185.49 244.946 192.166 241.259C194.547 239.934 197.975 238.957 202.28 238.369C203.844 238.16 208.288 238.13 209.852 238.319C216.449 239.136 222.258 241.917 227.13 246.58C228.157 247.567 228.405 248.035 228.416 248.942C228.426 250.008 228.176 250.387 226.423 252.061C224.36 254.024 223.702 254.961 223.702 255.978C223.702 256.187 223.812 256.864 223.942 257.493C224.868 261.787 224.769 265.435 223.633 268.982C223.234 270.218 222.457 271.912 221.779 273.018C221.53 273.427 221.341 273.776 221.351 273.786C221.371 273.806 221.959 273.746 222.666 273.666C226.024 273.277 229.103 273.626 232.062 274.732C233.358 275.221 234.962 275.639 236.457 275.878C237.373 276.018 238.16 276.058 240.442 276.058C243.232 276.048 244.857 275.799 246.999 275.42C246.999 275.42 246.989 281.718 246.989 282.944C246.989 284.169 246.79 285.066 246.79 285.066C242.953 286.043 238.22 285.784 235.291 284.827C234.723 284.638 233.388 284.13 232.312 283.681C229.153 282.366 227.549 281.927 225.197 281.688C223.872 281.558 222.596 281.569 221.879 281.728C221.042 281.907 221.062 281.987 221.959 281.987C223.653 281.987 225.755 282.456 227.768 283.273C229.272 283.88 230.319 284.449 232.192 285.694C235.799 288.086 239.197 289.421 244.408 289.521L236.766 297.194ZM197.447 282.585C198.115 282.695 199.569 282.844 200.695 282.914L202.738 283.033L200.546 285.744C199.33 287.229 198.324 288.454 198.294 288.454C198.264 288.465 197.935 287.757 197.576 286.89C197.208 286.033 196.62 284.638 196.261 283.791L195.613 282.256L195.932 282.316C196.112 282.346 196.789 282.465 197.447 282.585Z" fill="#0F1015"/>
<path d="M204.293 252.7C212.275 253.108 216.878 254.653 218.213 257.373C218.462 257.861 218.492 258.041 218.492 258.878C218.492 259.745 218.462 259.884 218.163 260.492C217.765 261.3 216.848 262.196 215.832 262.755C213.769 263.9 210.421 264.488 207.283 264.259C204.702 264.07 203.008 263.661 200.845 262.675C200.337 262.456 199.839 262.266 199.72 262.266C199.6 262.266 199.092 262.446 198.584 262.655C196.422 263.582 194.478 263.921 191.788 263.831C187.872 263.701 185.272 262.565 184.335 260.592C184.066 260.004 184.046 259.895 184.096 259.197C184.355 255.569 187.215 253.666 193.482 252.949C196.292 252.63 200.836 252.52 204.293 252.7Z" fill="white"/>
<path d="M197.45 282.586C198.117 282.696 199.572 282.845 200.698 282.915L202.741 283.034L200.549 285.745C199.333 287.23 198.327 288.455 198.297 288.455C198.267 288.465 197.938 287.758 197.579 286.891C197.211 286.034 196.623 284.639 196.264 283.792L195.616 282.257L195.935 282.317C196.115 282.347 196.792 282.466 197.45 282.586Z" fill="white"/>
<path d="M190.712 255.77C189.975 256.119 189.556 256.547 189.207 257.315C188.978 257.833 188.948 257.982 188.988 258.71C189.058 259.955 189.626 260.822 190.712 261.36C191.409 261.699 192.575 261.709 193.323 261.371C193.931 261.101 194.578 260.444 194.877 259.786C195.206 259.068 195.176 257.902 194.817 257.195C194.02 255.66 192.237 255.042 190.712 255.77Z" fill="#0F1015"/>
<path d="M206.826 255.651C206.238 255.86 205.381 256.667 205.132 257.255C204.455 258.84 205.073 260.594 206.587 261.331C207.065 261.57 207.285 261.61 207.952 261.61C208.62 261.61 208.839 261.57 209.317 261.331C210.812 260.604 211.47 258.71 210.752 257.235C210.423 256.558 209.656 255.85 209.028 255.641C208.45 255.442 207.394 255.451 206.826 255.651Z" fill="#0F1015"/>
<path d="M152.08 213.456L152.08 213.456L140.456 225.081C140.455 225.082 140.455 225.082 140.454 225.083C139.858 225.674 139.056 226.006 138.221 226.006H121.779C120.939 226.006 120.139 225.676 119.548 225.085C119.548 225.085 119.548 225.085 119.548 225.085L107.924 213.46C107.924 213.46 107.923 213.459 107.923 213.459C107.332 212.863 107 212.06 107 211.225V194.781C107 193.946 107.331 193.143 107.923 192.547C107.923 192.547 107.924 192.546 107.924 192.546L119.544 180.924C119.545 180.924 119.545 180.923 119.546 180.923C120.141 180.331 120.945 180 121.779 180H138.221C139.057 180 139.858 180.333 140.446 180.92L140.446 180.921L152.076 192.546C152.076 192.546 152.077 192.547 152.077 192.547C152.669 193.143 153 193.946 153 194.781V211.225C153 212.065 152.67 212.866 152.08 213.456Z" fill="#252E9C" stroke="white" stroke-width="4"/>
<path d="M123 208L123.096 205.488H120.424L119.64 208H116.584L120.696 196.48H125.976L126.04 208H123ZM122.344 199.28L121.08 203.344H123.176L123.352 199.28H122.344Z" fill="white"/>
<path d="M132.962 204.496H131.058L130.434 208H127.554L129.586 196.48H134.466C135.671 196.48 136.53 196.757 137.042 197.312C137.415 197.739 137.602 198.283 137.602 198.944C137.602 199.168 137.581 199.403 137.538 199.648L137.218 201.456C137.058 202.341 136.589 203.072 135.81 203.648C135.031 204.213 134.082 204.496 132.962 204.496ZM133.458 198.976H132.018L131.49 202H132.914C133.789 202 134.295 201.611 134.434 200.832L134.546 200.176C134.567 200.08 134.578 199.952 134.578 199.792C134.578 199.632 134.498 199.456 134.338 199.264C134.178 199.072 133.885 198.976 133.458 198.976Z" fill="white"/>
<path d="M142.669 196.48L140.653 208H137.757L139.789 196.48H142.669Z" fill="white"/>
<path d="M289.08 213.456L289.08 213.456L277.456 225.081C277.455 225.082 277.455 225.082 277.454 225.083C276.858 225.674 276.056 226.006 275.221 226.006H258.779C257.939 226.006 257.139 225.676 256.548 225.085C256.548 225.085 256.548 225.085 256.548 225.085L244.924 213.46C244.924 213.46 244.923 213.459 244.923 213.459C244.332 212.863 244 212.06 244 211.225V194.781C244 193.946 244.331 193.143 244.923 192.547C244.923 192.547 244.924 192.546 244.924 192.546L256.544 180.924C256.545 180.924 256.545 180.923 256.546 180.923C257.141 180.331 257.945 180 258.779 180H275.221C276.057 180 276.858 180.333 277.446 180.92L277.446 180.921L289.076 192.546C289.076 192.546 289.077 192.547 289.077 192.547C289.669 193.143 290 193.946 290 194.781V211.225C290 212.065 289.67 212.866 289.08 213.456Z" fill="#252E9C" stroke="white" stroke-width="4"/>
<path d="M260 208L260.096 205.488H257.424L256.64 208H253.584L257.696 196.48H262.976L263.04 208H260ZM259.344 199.28L258.08 203.344H260.176L260.352 199.28H259.344Z" fill="white"/>
<path d="M269.962 204.496H268.058L267.434 208H264.554L266.586 196.48H271.466C272.671 196.48 273.53 196.757 274.042 197.312C274.415 197.739 274.602 198.283 274.602 198.944C274.602 199.168 274.581 199.403 274.538 199.648L274.218 201.456C274.058 202.341 273.589 203.072 272.81 203.648C272.031 204.213 271.082 204.496 269.962 204.496ZM270.458 198.976H269.018L268.49 202H269.914C270.789 202 271.295 201.611 271.434 200.832L271.546 200.176C271.567 200.08 271.578 199.952 271.578 199.792C271.578 199.632 271.498 199.456 271.338 199.264C271.178 199.072 270.885 198.976 270.458 198.976Z" fill="white"/>
<path d="M279.669 196.48L277.653 208H274.757L276.789 196.48H279.669Z" fill="white"/>
<path d="M107.771 125.824L107.771 125.823C109.489 124.385 110.579 122.191 111.092 119.318L111.092 119.316L113.522 105.486L113.626 104.9H113.03H107.63H107.211L107.138 105.313L104.708 119.023L104.708 119.023L104.707 119.025C104.473 120.392 104.079 121.208 103.613 121.612C103.125 122.035 102.452 122.27 101.54 122.27C100.757 122.27 100.263 122.105 99.9701 121.861C99.6946 121.631 99.52 121.266 99.52 120.67C99.52 120.156 99.5579 119.664 99.6331 119.193L102.062 105.487L102.166 104.9H101.57H96.17H95.7502L95.6775 105.313L93.248 119.141C93.0838 120.024 93 120.844 93 121.6C93 123.298 93.4197 124.697 94.3195 125.734C95.5826 127.242 97.7796 127.92 100.73 127.92C103.7 127.92 106.07 127.244 107.771 125.824ZM123.015 105.486L123.117 104.9H122.522H117.122H116.703L116.63 105.313L112.82 126.913L112.716 127.5H113.312H118.742H119.162L119.235 127.086L123.015 105.486ZM125.696 135.81H126.012L126.148 135.525L140.998 104.415L141.339 103.7H140.546H134.306H133.991L133.855 103.984L118.975 135.094L118.633 135.81H119.426H125.696ZM154.558 125.824L154.558 125.823C156.276 124.385 157.366 122.191 157.879 119.318L157.88 119.316L160.31 105.486L160.413 104.9H159.817H154.417H153.998L153.925 105.313L151.495 119.023L151.494 119.025C151.26 120.392 150.866 121.208 150.4 121.612C149.912 122.035 149.239 122.27 148.327 122.27C147.544 122.27 147.05 122.105 146.757 121.861C146.482 121.631 146.307 121.266 146.307 120.67C146.307 120.156 146.345 119.664 146.42 119.193L148.849 105.487L148.954 104.9H148.357H142.957H142.537L142.465 105.313L140.036 119.138C140.035 119.139 140.035 119.14 140.035 119.141C139.871 120.024 139.787 120.844 139.787 121.6C139.787 123.298 140.207 124.697 141.107 125.734C142.37 127.242 144.567 127.92 147.517 127.92C150.487 127.92 152.857 127.244 154.558 125.824ZM182.604 105.707L183.231 104.9H182.209H176.059H175.813L175.663 105.095L170.823 111.387L168.641 105.233L168.522 104.9H168.169H162.019H161.294L161.552 105.578L165.595 116.212L157.808 126.702L157.215 127.5H158.209H164.359H164.616L164.766 127.291L169.198 121.113L171.789 127.196L171.919 127.5H172.249H178.399H179.161L178.858 126.801L174.326 116.363L182.604 105.707Z" fill="white" stroke="#AABCE2"/>
<path d="M344.08 292.456L344.08 292.456L332.456 304.081C332.455 304.082 332.455 304.082 332.454 304.083C331.858 304.674 331.056 305.006 330.221 305.006H313.779C312.939 305.006 312.139 304.676 311.548 304.085C311.548 304.085 311.548 304.085 311.548 304.085L299.924 292.46C299.924 292.46 299.923 292.459 299.923 292.459C299.332 291.863 299 291.06 299 290.225V273.781C299 272.946 299.331 272.143 299.923 271.547C299.923 271.547 299.924 271.546 299.924 271.546L311.544 259.924C311.545 259.924 311.545 259.923 311.546 259.923C312.141 259.331 312.945 259 313.779 259H330.221C331.057 259 331.858 259.333 332.446 259.92L332.446 259.921L344.076 271.546C344.076 271.546 344.077 271.547 344.077 271.547C344.669 272.143 345 272.946 345 273.781V290.225C345 291.065 344.67 291.866 344.08 292.456Z" fill="#252E9C" stroke="white" stroke-width="4"/>
<path d="M315 287L315.096 284.488H312.424L311.64 287H308.584L312.696 275.48H317.976L318.04 287H315ZM314.344 278.28L313.08 282.344H315.176L315.352 278.28H314.344Z" fill="white"/>
<path d="M324.962 283.496H323.058L322.434 287H319.554L321.586 275.48H326.466C327.671 275.48 328.53 275.757 329.042 276.312C329.415 276.739 329.602 277.283 329.602 277.944C329.602 278.168 329.581 278.403 329.538 278.648L329.218 280.456C329.058 281.341 328.589 282.072 327.81 282.648C327.031 283.213 326.082 283.496 324.962 283.496ZM325.458 277.976H324.018L323.49 281H324.914C325.789 281 326.295 280.611 326.434 279.832L326.546 279.176C326.567 279.08 326.578 278.952 326.578 278.792C326.578 278.632 326.498 278.456 326.338 278.264C326.178 278.072 325.885 277.976 325.458 277.976Z" fill="white"/>
<path d="M334.669 275.48L332.653 287H329.757L331.789 275.48H334.669Z" fill="white"/>
</g>
<defs>
<clipPath id="clip0_451_595">
<rect width="640" height="360" fill="white"/>
</clipPath>
<clipPath id="clip1_451_595">
<rect x="40" y="54" width="50" height="33.6735" rx="4" fill="white"/>
</clipPath>
</defs>
</svg>