<?xml version="1.0" encoding="utf-8"?>
<!-- Generator: Adobe Illustrator 24.1.1, SVG Export Plug-In . SVG Version: 6.00 Build 0)  -->
<svg version="1.1" id="Layer_1" xmlns="http://www.w3.org/2000/svg" xmlns:xlink="http://www.w3.org/1999/xlink" x="0px" y="0px"
	 viewBox="0 0 290 520.9" style="enable-background:new 0 0 290 520.9;" xml:space="preserve">
<g>
	<g>
		<path style="fill:#F7F8FD;" d="M283.6,3.6h-1.7H8.8H7.1c-1.8,0-3.2,2.6-3.2,5.8v116.4c0,3.2,1.4,5.8,3.2,5.8h1.7h273h1.7
			c1.8,0,3.2-2.6,3.2-5.8V9.4C286.8,6.2,285.4,3.6,283.6,3.6z"/>
	</g>
	<g>
		<path style="fill:#F7F8FD;" d="M283.6,303h-1.7H8.8H7.1c-1.8,0-3.2,0.5-3.2,1v20.3c0,0.6,1.4,1,3.2,1h1.7h273h1.7
			c1.8,0,3.2-0.5,3.2-1v-20.3C286.8,303.5,285.4,303,283.6,303z"/>
	</g>
	<g>
		<g>
			<g>
				<path style="fill:#3E487A;" d="M108.3,26.3v6.8h6.6v-6.8h4v17.8h-4v-7.4h-6.6v7.4h-4V26.3H108.3z"/>
				<path style="fill:#3E487A;" d="M126.5,26.3v10.2c0,3.1,1.2,4.6,3.2,4.6c2.1,0,3.3-1.5,3.3-4.6V26.3h4v10c0,5.5-2.8,8.1-7.4,8.1
					c-4.5,0-7.1-2.5-7.1-8.1v-9.9H126.5z"/>
				<path style="fill:#3E487A;" d="M155.5,37.3c-0.1-2.1-0.2-4.7-0.2-7.3h-0.1c-0.6,2.3-1.3,4.8-2,6.9l-2.2,6.9H148l-1.9-6.9
					c-0.6-2.1-1.2-4.6-1.6-7h-0.1c-0.1,2.4-0.2,5.1-0.3,7.4l-0.3,6.8h-3.7l1.1-17.8h5.4l1.7,5.9c0.6,2.1,1.1,4.3,1.5,6.4h0.1
					c0.5-2.1,1.1-4.4,1.7-6.4l1.9-5.9h5.3l0.9,17.8h-3.9L155.5,37.3z"/>
				<path style="fill:#3E487A;" d="M166.8,39.5l-1.3,4.6h-4.1l5.4-17.8h5.3l5.5,17.8h-4.4l-1.4-4.6H166.8z M171.3,36.5l-1.1-3.8
					c-0.3-1.1-0.6-2.4-0.9-3.4h-0.1c-0.3,1.1-0.5,2.4-0.8,3.4l-1.1,3.8H171.3z"/>
				<path style="fill:#3E487A;" d="M180,44.1V26.3h4.7l3.7,6.5c1.1,1.9,2.1,4.1,2.9,6.1h0.1c-0.2-2.3-0.3-4.7-0.3-7.4v-5.2h3.7v17.8
					h-4.2l-3.8-6.9c-1.1-1.9-2.2-4.2-3.1-6.3h-0.1c0.1,2.4,0.2,4.9,0.2,7.8v5.4H180z"/>
			</g>
			<path style="fill:#3E487A;" d="M61.6,75.2C60.9,75.6,59.2,76,57,76c-6.1,0-9.3-3.8-9.3-8.9c0-6.1,4.3-9.4,9.7-9.4
				c2.1,0,3.7,0.4,4.4,0.8L61,61.6C60.2,61.3,59,61,57.6,61c-3.2,0-5.6,1.9-5.6,5.9c0,3.6,2.1,5.8,5.7,5.8c1.2,0,2.6-0.2,3.4-0.6
				L61.6,75.2z"/>
			<path style="fill:#3E487A;" d="M74.8,68.2h-6.5v4.2h7.3v3.3H64.3V57.9h10.9v3.3h-6.9v3.7h6.5V68.2z"/>
			<path style="fill:#3E487A;" d="M78.3,75.7V57.9H83l3.7,6.5c1.1,1.9,2.1,4.1,2.9,6.1h0.1c-0.2-2.3-0.3-4.7-0.3-7.4v-5.2H93v17.8
				h-4.2L85,68.9c-1.1-1.9-2.2-4.2-3.1-6.3h-0.1C82,65,82,67.5,82,70.4v5.4H78.3z"/>
			<path style="fill:#3E487A;" d="M100,61.3h-4.8v-3.4h13.7v3.4H104v14.4h-4V61.3z"/>
			<path style="fill:#3E487A;" d="M111,58.2c1.3-0.2,3.2-0.4,5.4-0.4c2.6,0,4.5,0.4,5.7,1.4c1.1,0.8,1.7,2.1,1.7,3.7
				c0,2.2-1.6,3.8-3.1,4.4v0.1c1.2,0.5,1.9,1.7,2.4,3.3c0.6,2,1.1,4.4,1.4,5h-4.1c-0.3-0.5-0.7-2-1.2-4.1c-0.5-2.2-1.3-2.8-2.9-2.8
				H115v7h-4V58.2z M115,65.8h1.6c2,0,3.2-1,3.2-2.6c0-1.6-1.1-2.5-3-2.5c-1,0-1.5,0.1-1.8,0.1V65.8z"/>
			<path style="fill:#3E487A;" d="M130.6,57.9v17.8h-4V57.9H130.6z"/>
			<path style="fill:#3E487A;" d="M147.2,75.2c-0.7,0.3-2.4,0.8-4.5,0.8c-6.1,0-9.3-3.8-9.3-8.9c0-6.1,4.3-9.4,9.7-9.4
				c2.1,0,3.7,0.4,4.4,0.8l-0.8,3.2c-0.8-0.3-1.9-0.7-3.4-0.7c-3.2,0-5.6,1.9-5.6,5.9c0,3.6,2.1,5.8,5.7,5.8c1.2,0,2.6-0.2,3.4-0.6
				L147.2,75.2z"/>
			<path style="fill:#3E487A;" d="M155.1,58.2c1.5-0.2,3.4-0.4,5.4-0.4c3.4,0,5.6,0.6,7.3,1.9c1.8,1.4,3,3.6,3,6.7
				c0,3.4-1.2,5.7-2.9,7.2c-1.9,1.6-4.7,2.3-8.2,2.3c-2.1,0-3.6-0.1-4.6-0.3V58.2z M159.2,72.7c0.3,0.1,0.9,0.1,1.4,0.1
				c3.7,0,6.1-2,6.1-6.2c0-3.7-2.2-5.6-5.6-5.6c-0.9,0-1.5,0.1-1.8,0.2V72.7z"/>
			<path style="fill:#3E487A;" d="M184.1,68.2h-6.5v4.2h7.3v3.3h-11.3V57.9h10.9v3.3h-6.9v3.7h6.5V68.2z"/>
			<path style="fill:#3E487A;" d="M187.7,71.6c1.1,0.6,2.7,1.1,4.5,1.1c1.8,0,2.8-0.8,2.8-1.9c0-1.1-0.8-1.7-3-2.5
				c-3-1.1-4.9-2.7-4.9-5.3c0-3,2.6-5.3,6.7-5.3c2,0,3.5,0.4,4.5,0.9l-0.9,3.2c-0.7-0.3-2-0.8-3.7-0.8c-1.7,0-2.6,0.8-2.6,1.7
				c0,1.1,1,1.6,3.3,2.5c3.1,1.2,4.6,2.8,4.6,5.3c0,3-2.3,5.5-7.1,5.5c-2,0-4-0.6-5-1.1L187.7,71.6z"/>
			<path style="fill:#3E487A;" d="M205.9,57.9v17.8h-4V57.9H205.9z"/>
			<path style="fill:#3E487A;" d="M224.2,74.9c-1.2,0.4-3.6,1-5.9,1c-3.2,0-5.6-0.8-7.2-2.4c-1.6-1.6-2.5-3.9-2.5-6.5
				c0-5.9,4.3-9.3,10.2-9.3c2.3,0,4.1,0.4,4.9,0.8l-0.8,3.2c-1-0.4-2.2-0.8-4.1-0.8c-3.3,0-5.9,1.9-5.9,5.7c0,3.7,2.3,5.8,5.6,5.8
				c0.9,0,1.6-0.1,2-0.2v-3.7h-2.7v-3.1h6.6V74.9z"/>
			<path style="fill:#3E487A;" d="M227.3,75.7V57.9h4.7l3.7,6.5c1.1,1.9,2.1,4.1,2.9,6.1h0.1c-0.2-2.3-0.3-4.7-0.3-7.4v-5.2h3.7
				v17.8h-4.2l-3.8-6.9c-1.1-1.9-2.2-4.2-3.1-6.3h-0.1c0.1,2.4,0.2,4.9,0.2,7.8v5.4H227.3z"/>
		</g>
		<g>
			<path style="fill:#2A91E9;" d="M30,102.8l-1.3,4.6h-4.1L30,89.6h5.3l5.5,17.8h-4.4l-1.4-4.6H30z M34.5,99.8L33.4,96
				c-0.3-1.1-0.6-2.4-0.9-3.4h-0.1c-0.3,1.1-0.5,2.4-0.8,3.4l-1.1,3.8H34.5z"/>
			<path style="fill:#2A91E9;" d="M43.1,89.8c1.2-0.2,3-0.4,5.4-0.4c2.5,0,4.2,0.5,5.4,1.4c1.2,0.9,1.9,2.4,1.9,4.1
				c0,1.7-0.6,3.2-1.6,4.2c-1.4,1.3-3.4,1.9-5.8,1.9c-0.5,0-1,0-1.4-0.1v6.4h-4V89.8z M47.1,97.9c0.3,0.1,0.7,0.1,1.3,0.1
				c2.1,0,3.5-1.1,3.5-2.9c0-1.6-1.1-2.6-3.2-2.6c-0.8,0-1.3,0.1-1.6,0.1V97.9z"/>
			<path style="fill:#2A91E9;" d="M62.5,89.6v17.8h-4V89.6H62.5z"/>
			<path style="fill:#2A91E9;" d="M84.3,106.9c-0.7,0.3-2.4,0.8-4.5,0.8c-6.1,0-9.3-3.8-9.3-8.9c0-6.1,4.3-9.4,9.7-9.4
				c2.1,0,3.7,0.4,4.4,0.8l-0.8,3.2c-0.8-0.3-1.9-0.7-3.4-0.7c-3.2,0-5.6,1.9-5.6,5.9c0,3.6,2.1,5.8,5.7,5.8c1.2,0,2.6-0.2,3.4-0.6
				L84.3,106.9z"/>
			<path style="fill:#2A91E9;" d="M97.6,99.8H91v4.2h7.3v3.3H87V89.6h10.9v3.3H91v3.7h6.5V99.8z"/>
			<path style="fill:#2A91E9;" d="M101.1,107.4V89.6h4.7l3.7,6.5c1.1,1.9,2.1,4.1,2.9,6.1h0.1c-0.2-2.3-0.3-4.7-0.3-7.4v-5.2h3.7
				v17.8h-4.2l-3.8-6.9c-1.1-1.9-2.2-4.2-3.1-6.3h-0.1c0.1,2.4,0.2,4.9,0.2,7.8v5.4H101.1z"/>
			<path style="fill:#2A91E9;" d="M122.7,93h-4.8v-3.4h13.7V93h-4.9v14.4h-4V93z"/>
			<path style="fill:#2A91E9;" d="M133.7,89.8c1.3-0.2,3.2-0.4,5.4-0.4c2.6,0,4.5,0.4,5.7,1.4c1.1,0.8,1.7,2.1,1.7,3.7
				c0,2.2-1.6,3.8-3.1,4.4V99c1.2,0.5,1.9,1.7,2.4,3.3c0.6,2,1.1,4.4,1.4,5H143c-0.3-0.5-0.7-2-1.2-4.1c-0.5-2.2-1.3-2.8-2.9-2.8
				h-1.2v7h-4V89.8z M137.7,97.5h1.6c2,0,3.2-1,3.2-2.6c0-1.6-1.1-2.5-3-2.5c-1,0-1.5,0.1-1.8,0.1V97.5z"/>
			<path style="fill:#2A91E9;" d="M153.4,89.6v17.8h-4V89.6H153.4z"/>
			<path style="fill:#2A91E9;" d="M169.9,106.9c-0.7,0.3-2.4,0.8-4.5,0.8c-6.1,0-9.3-3.8-9.3-8.9c0-6.1,4.3-9.4,9.7-9.4
				c2.1,0,3.7,0.4,4.4,0.8l-0.8,3.2c-0.8-0.3-1.9-0.7-3.4-0.7c-3.2,0-5.6,1.9-5.6,5.9c0,3.6,2.1,5.8,5.7,5.8c1.2,0,2.6-0.2,3.4-0.6
				L169.9,106.9z"/>
			<path style="fill:#2A91E9;" d="M177.9,89.9c1.5-0.2,3.4-0.4,5.4-0.4c3.4,0,5.6,0.6,7.3,1.9c1.8,1.4,3,3.6,3,6.7
				c0,3.4-1.2,5.7-2.9,7.2c-1.9,1.6-4.7,2.3-8.2,2.3c-2.1,0-3.6-0.1-4.6-0.3V89.9z M181.9,104.3c0.3,0.1,0.9,0.1,1.4,0.1
				c3.7,0,6.1-2,6.1-6.2c0-3.7-2.2-5.6-5.6-5.6c-0.9,0-1.5,0.1-1.8,0.2V104.3z"/>
			<path style="fill:#2A91E9;" d="M206.8,99.8h-6.5v4.2h7.3v3.3h-11.3V89.6h10.9v3.3h-6.9v3.7h6.5V99.8z"/>
			<path style="fill:#2A91E9;" d="M210.4,103.2c1.1,0.6,2.7,1.1,4.5,1.1c1.8,0,2.8-0.8,2.8-1.9c0-1.1-0.8-1.7-3-2.5
				c-3-1.1-4.9-2.7-4.9-5.3c0-3,2.6-5.3,6.7-5.3c2,0,3.5,0.4,4.5,0.9l-0.9,3.2c-0.7-0.3-2-0.8-3.7-0.8c-1.7,0-2.6,0.8-2.6,1.7
				c0,1.1,1,1.6,3.3,2.5c3.1,1.2,4.6,2.8,4.6,5.3c0,3-2.3,5.5-7.1,5.5c-2,0-4-0.6-5-1.1L210.4,103.2z"/>
			<path style="fill:#2A91E9;" d="M228.6,89.6v17.8h-4V89.6H228.6z"/>
			<path style="fill:#2A91E9;" d="M246.9,106.5c-1.2,0.4-3.6,1-5.9,1c-3.2,0-5.6-0.8-7.2-2.4c-1.6-1.6-2.5-3.9-2.5-6.5
				c0-5.9,4.3-9.3,10.2-9.3c2.3,0,4.1,0.4,4.9,0.8l-0.8,3.2c-1-0.4-2.2-0.8-4.1-0.8c-3.3,0-5.9,1.9-5.9,5.7c0,3.7,2.3,5.8,5.6,5.8
				c0.9,0,1.6-0.1,2-0.2v-3.7h-2.7v-3.1h6.6V106.5z"/>
			<path style="fill:#2A91E9;" d="M250.1,107.4V89.6h4.7l3.7,6.5c1.1,1.9,2.1,4.1,2.9,6.1h0.1c-0.2-2.3-0.3-4.7-0.3-7.4v-5.2h3.7
				v17.8h-4.2l-3.8-6.9c-1.1-1.9-2.2-4.2-3.1-6.3h-0.1c0.1,2.4,0.2,4.9,0.2,7.8v5.4H250.1z"/>
		</g>
		<g>
			<g>
				<g>
					<path style="fill:#2A91E9;" d="M264.7,65.9h-17.6c-0.4,0-0.8-0.3-0.8-0.8c0-0.4,0.3-0.8,0.8-0.8h17.6c0.4,0,0.8,0.3,0.8,0.8
						C265.5,65.6,265.1,65.9,264.7,65.9z"/>
				</g>
				<g>
					<g>
						<polygon style="fill:#2A91E9;" points="259.8,71.3 258.7,70.2 264.2,65.2 258.7,60.2 259.8,59.1 266.4,65.2 						"/>
					</g>
				</g>
			</g>
		</g>
	</g>
	<g>
		<g>
			<g>
				<path style="fill:#3E487A;" d="M162.3,153c0.6-0.1,1.8-0.2,2.9-0.2c1.4,0,2.4,0.2,3.1,0.7c0.7,0.4,1.1,1.1,1.1,2
					c0,1-0.6,1.9-1.8,2.3v0c1.1,0.3,2.2,1.2,2.2,2.7c0,1-0.4,1.7-1,2.2c-0.8,0.7-2,1-4,1c-1.1,0-1.9-0.1-2.4-0.1V153z M164.2,157.3
					h1c1.4,0,2.1-0.6,2.1-1.6c0-1-0.8-1.5-2-1.5c-0.6,0-0.9,0-1.1,0.1V157.3z M164.2,162.2c0.3,0,0.6,0,1,0c1.3,0,2.4-0.5,2.4-1.8
					c0-1.3-1.1-1.8-2.5-1.8h-1V162.2z"/>
				<path style="fill:#3E487A;" d="M173.6,160.6l-0.9,3.1h-2l3.5-10.8h2.5l3.5,10.8H178l-1-3.1H173.6z M176.7,159.1l-0.8-2.7
					c-0.2-0.7-0.4-1.4-0.5-2h0c-0.2,0.6-0.3,1.4-0.5,2l-0.8,2.7H176.7z"/>
				<path style="fill:#3E487A;" d="M189,163.3c-0.5,0.2-1.5,0.5-2.8,0.5c-3.4,0-5.5-2.1-5.5-5.4c0-3.6,2.5-5.7,5.8-5.7
					c1.3,0,2.2,0.3,2.6,0.5l-0.4,1.6c-0.5-0.2-1.2-0.4-2.1-0.4c-2.2,0-3.8,1.4-3.8,4c0,2.4,1.4,3.9,3.8,3.9c0.8,0,1.6-0.2,2.1-0.4
					L189,163.3z"/>
				<path style="fill:#3E487A;" d="M190.7,152.8h2v5h0c0.3-0.4,0.5-0.8,0.8-1.2l2.8-3.8h2.4l-3.7,4.6l4,6.2h-2.3l-3-4.9l-1,1.2v3.8
					h-2V152.8z"/>
				<path style="fill:#3E487A;" d="M206.1,158.8H202v3.2h4.5v1.6H200v-10.8h6.3v1.6H202v2.8h4.1V158.8z"/>
				<path style="fill:#3E487A;" d="M208.2,163.6v-10.8h2.3l2.8,4.6c0.7,1.2,1.3,2.4,1.8,3.6h0c-0.1-1.4-0.2-2.8-0.2-4.5v-3.8h1.8
					v10.8h-2l-2.8-4.8c-0.7-1.2-1.4-2.5-1.9-3.7l-0.1,0c0.1,1.4,0.1,2.8,0.1,4.6v3.9H208.2z"/>
				<path style="fill:#3E487A;" d="M219.1,153c0.9-0.1,2-0.2,3.1-0.2c2,0,3.4,0.4,4.4,1.2c1.1,0.8,1.7,2.1,1.7,4
					c0,1.9-0.7,3.4-1.7,4.3c-1.1,1-2.8,1.5-4.9,1.5c-1.1,0-2-0.1-2.7-0.1V153z M221,162.1c0.3,0,0.7,0,1.1,0c2.6,0,4.1-1.4,4.1-4.1
					c0-2.4-1.4-3.7-3.8-3.7c-0.6,0-1.1,0-1.3,0.1V162.1z"/>
			</g>
			<g>
				<path style="fill:#3E487A;" d="M65.3,152.8v6.3c0,2.1,0.9,3.1,2.2,3.1c1.4,0,2.3-1,2.3-3.1v-6.3h2v6.2c0,3.3-1.7,4.8-4.3,4.8
					c-2.5,0-4.1-1.4-4.1-4.8v-6.2H65.3z"/>
				<path style="fill:#3E487A;" d="M76,152.8v10.8h-2v-10.8H76z"/>
				<path style="fill:#3E487A;" d="M80.6,164.2l3.9-11.6h1.4L82,164.2H80.6z"/>
				<path style="fill:#3E487A;" d="M92.2,152.8v6.3c0,2.1,0.9,3.1,2.2,3.1c1.4,0,2.3-1,2.3-3.1v-6.3h2v6.2c0,3.3-1.7,4.8-4.3,4.8
					c-2.5,0-4.1-1.4-4.1-4.8v-6.2H92.2z"/>
				<path style="fill:#3E487A;" d="M106.7,163.6l-1.2-2.1c-0.5-0.8-0.8-1.4-1.1-2h0c-0.3,0.6-0.5,1.2-1,2l-1.1,2.1h-2.3l3.2-5.5
					l-3.1-5.3h2.3l1.2,2.2c0.4,0.7,0.6,1.2,0.9,1.8h0c0.3-0.7,0.5-1.2,0.8-1.8l1.2-2.2h2.3l-3.2,5.3l3.3,5.5H106.7z"/>
			</g>
			<g>
				<g>
					<g>
						<g>
							<g>
								<g>
									<g>
										<path style="fill:#5059C9;" d="M215.1,293.4h-1.7c-0.4,0-0.8-0.3-0.8-0.8c0-0.4,0.3-0.8,0.8-0.8h1.7c0.4,0,0.8,0,1.1-0.1
											c0.4,0,0.8,0.3,0.8,0.7c0,0.4-0.3,0.8-0.7,0.8C216,293.4,215.5,293.4,215.1,293.4z M208.5,293.4h-2.9
											c-0.4,0-0.8-0.3-0.8-0.8c0-0.4,0.3-0.8,0.8-0.8h2.9c0.4,0,0.8,0.3,0.8,0.8C209.2,293.1,208.9,293.4,208.5,293.4z
											 M200.6,293.4h-2.9c-0.4,0-0.8-0.3-0.8-0.8c0-0.4,0.3-0.8,0.8-0.8h2.9c0.4,0,0.8,0.3,0.8,0.8
											C201.4,293.1,201,293.4,200.6,293.4z M192.8,293.4h-2.9c-0.4,0-0.8-0.3-0.8-0.8c0-0.4,0.3-0.8,0.8-0.8h2.9
											c0.4,0,0.8,0.3,0.8,0.8C193.5,293.1,193.2,293.4,192.8,293.4z M184.9,293.4H182c-0.4,0-0.8-0.3-0.8-0.8
											c0-0.4,0.3-0.8,0.8-0.8h2.9c0.4,0,0.8,0.3,0.8,0.8C185.7,293.1,185.3,293.4,184.9,293.4z M177.1,293.4H176
											c-0.6,0-1.3,0-1.9-0.1c-0.4-0.1-0.7-0.4-0.6-0.9c0.1-0.4,0.4-0.7,0.9-0.6c0.6,0.1,1.1,0.1,1.7,0.1h1.1
											c0.4,0,0.8,0.3,0.8,0.8C177.8,293.1,177.5,293.4,177.1,293.4z M221,291.9c-0.3,0-0.5-0.1-0.7-0.4c-0.2-0.4-0.1-0.8,0.3-1
											c0.8-0.4,1.6-1,2.2-1.6c0.3-0.3,0.8-0.3,1.1,0.1c0.3,0.3,0.3,0.8-0.1,1.1c-0.8,0.7-1.6,1.3-2.5,1.8
											C221.2,291.9,221.1,291.9,221,291.9z M169.6,291.6c-0.1,0-0.3,0-0.4-0.1c-0.9-0.5-1.7-1.2-2.4-1.9c-0.3-0.3-0.3-0.8,0-1.1
											c0.3-0.3,0.8-0.3,1,0l0,0c0.6,0.6,1.4,1.2,2.1,1.7c0.4,0.2,0.5,0.7,0.3,1C170.1,291.5,169.8,291.6,169.6,291.6z
											 M226.9,286.8c-0.2,0-0.4-0.1-0.5-0.2c-0.3-0.3-0.3-0.8,0-1.1l2.1-2.1c0.3-0.3,0.8-0.3,1.1,0c0.3,0.3,0.3,0.8,0,1.1
											l-2.1,2.1C227.2,286.7,227,286.8,226.9,286.8z M163.8,286.3c-0.2,0-0.4-0.1-0.5-0.2l-2.1-2.1c-0.3-0.3-0.3-0.8,0-1.1
											c0.3-0.3,0.8-0.3,1.1,0l2.1,2.1c0.3,0.3,0.3,0.8,0,1.1C164.2,286.3,164,286.3,163.8,286.3z M232.4,281.2
											c-0.2,0-0.4-0.1-0.5-0.2c-0.3-0.3-0.3-0.8,0-1.1l2.1-2.1c0.3-0.3,0.8-0.3,1.1,0c0.3,0.3,0.3,0.8,0,1.1l-2.1,2.1
											C232.8,281.1,232.6,281.2,232.4,281.2z M158.2,280.8c-0.2,0-0.4-0.1-0.5-0.2l-2.1-2.1c-0.3-0.3-0.3-0.8,0-1.1
											c0.3-0.3,0.8-0.3,1.1,0l2.1,2.1c0.3,0.3,0.3,0.8,0,1.1C158.6,280.7,158.4,280.8,158.2,280.8z M238,275.7
											c-0.2,0-0.4-0.1-0.5-0.2c-0.3-0.3-0.3-0.8,0-1.1l2.1-2.1c0.3-0.3,0.8-0.3,1.1,0c0.3,0.3,0.3,0.8,0,1.1l-2.1,2.1
											C238.3,275.6,238.1,275.7,238,275.7z M152.7,275.2c-0.2,0-0.4-0.1-0.5-0.2l-2.1-2.1c-0.3-0.3-0.3-0.8,0-1.1
											c0.3-0.3,0.8-0.3,1.1,0l2.1,2.1c0.3,0.3,0.3,0.8,0,1.1C153.1,275.2,152.9,275.2,152.7,275.2z M243.5,270.1
											c-0.2,0-0.4-0.1-0.5-0.2c-0.3-0.3-0.3-0.8,0-1.1l2.1-2.1c0.3-0.3,0.8-0.3,1.1,0c0.3,0.3,0.3,0.8,0,1.1l-2.1,2.1
											C243.9,270,243.7,270.1,243.5,270.1z M147.1,269.7c-0.2,0-0.4-0.1-0.5-0.2l-2.1-2.1c-0.3-0.3-0.3-0.8,0-1.1
											c0.3-0.3,0.8-0.3,1.1,0l2.1,2.1c0.3,0.3,0.3,0.8,0,1.1C147.5,269.6,147.3,269.7,147.1,269.7z M249.1,264.6
											c-0.2,0-0.4-0.1-0.5-0.2c-0.3-0.3-0.3-0.8,0-1.1l2.1-2.1c0.3-0.3,0.8-0.3,1.1,0c0.3,0.3,0.3,0.8,0,1.1l-2.1,2.1
											C249.4,264.5,249.2,264.6,249.1,264.6z M254,258.5c-0.1,0-0.2,0-0.3-0.1c-0.4-0.2-0.5-0.6-0.4-1c0.4-0.8,0.7-1.7,0.8-2.6
											c0.1-0.4,0.5-0.7,0.9-0.6c0.4,0.1,0.7,0.5,0.6,0.9c-0.2,1-0.5,2-0.9,3C254.5,258.4,254.3,258.5,254,258.5z M255.1,250.8
											c-0.4,0-0.8-0.3-0.8-0.8v-2.9c0-0.4,0.3-0.8,0.8-0.8c0.4,0,0.8,0.3,0.8,0.8v2.9C255.8,250.5,255.5,250.8,255.1,250.8z
											 M136,244.5c-0.4,0-0.8-0.3-0.8-0.8v-2.9c0-0.4,0.3-0.8,0.8-0.8c0.4,0,0.8,0.3,0.8,0.8v2.9
											C136.8,244.2,136.4,244.5,136,244.5z M255.1,243c-0.4,0-0.8-0.3-0.8-0.8v-2.9c0-0.4,0.3-0.8,0.8-0.8
											c0.4,0,0.8,0.3,0.8,0.8v2.9C255.8,242.6,255.5,243,255.1,243z M136,236.7c-0.4,0-0.8-0.3-0.8-0.8V233
											c0-0.4,0.3-0.8,0.8-0.8c0.4,0,0.8,0.3,0.8,0.8v2.9C136.8,236.3,136.4,236.7,136,236.7z M255.1,235.1
											c-0.4,0-0.8-0.3-0.8-0.8v-2.9c0-0.4,0.3-0.8,0.8-0.8c0.4,0,0.8,0.3,0.8,0.8v2.9C255.8,234.8,255.5,235.1,255.1,235.1z
											 M136,228.8c-0.4,0-0.8-0.3-0.8-0.8v-2.9c0-0.4,0.3-0.8,0.8-0.8c0.4,0,0.8,0.3,0.8,0.8v2.9
											C136.8,228.5,136.4,228.8,136,228.8z M255.1,227.3c-0.4,0-0.8-0.3-0.8-0.8v-2.9c0-0.4,0.3-0.8,0.8-0.8
											c0.4,0,0.8,0.3,0.8,0.8v2.9C255.8,226.9,255.5,227.3,255.1,227.3z M136,221c-0.4,0-0.8-0.3-0.8-0.8v-2.9
											c0-0.4,0.3-0.8,0.8-0.8c0.4,0,0.8,0.3,0.8,0.8v2.9C136.8,220.6,136.4,221,136,221z M255.1,219.4c-0.4,0-0.8-0.3-0.8-0.8
											v-2.9c0-0.4,0.3-0.8,0.8-0.8c0.4,0,0.8,0.3,0.8,0.8v2.9C255.8,219.1,255.5,219.4,255.1,219.4z M136.1,213.1
											C136,213.1,136,213.1,136.1,213.1c-0.5,0-0.8-0.4-0.7-0.8c0.1-1,0.3-2.1,0.7-3c0.1-0.4,0.6-0.6,1-0.5
											c0.4,0.1,0.6,0.6,0.5,1c-0.3,0.9-0.5,1.8-0.6,2.7C136.8,212.8,136.4,213.1,136.1,213.1z M254.8,211.6
											c-0.3,0-0.7-0.2-0.7-0.6c-0.2-0.9-0.5-1.8-0.9-2.6c-0.2-0.4,0-0.8,0.3-1c0.4-0.2,0.8,0,1,0.3c0.5,0.9,0.8,1.9,1,2.9
											c0.1,0.4-0.2,0.8-0.6,0.9C254.9,211.6,254.8,211.6,254.8,211.6z M139.2,206.1c-0.2,0-0.4-0.1-0.5-0.2
											c-0.3-0.3-0.3-0.8-0.1-1.1c0.1-0.2,0.3-0.3,0.4-0.5l1.7-1.7c0.3-0.3,0.8-0.3,1.1,0c0.3,0.3,0.3,0.8,0,1.1l-1.7,1.7
											c-0.1,0.1-0.3,0.3-0.4,0.4C139.6,206,139.4,206.1,139.2,206.1z M250.8,205c-0.2,0-0.4-0.1-0.5-0.2l-2.1-2.1
											c-0.3-0.3-0.3-0.8,0-1.1c0.3-0.3,0.8-0.3,1.1,0l2.1,2.1c0.3,0.3,0.3,0.8,0,1.1C251.2,204.9,251,205,250.8,205z
											 M144.7,200.5c-0.2,0-0.4-0.1-0.5-0.2c-0.3-0.3-0.3-0.8,0-1.1l2.1-2.1c0.3-0.3,0.8-0.3,1.1,0c0.3,0.3,0.3,0.8,0,1.1
											l-2.1,2.1C145.1,200.4,144.9,200.5,144.7,200.5z M245.2,199.4c-0.2,0-0.4-0.1-0.5-0.2l-2.1-2.1c-0.3-0.3-0.3-0.8,0-1.1
											c0.3-0.3,0.8-0.3,1.1,0l2.1,2.1c0.3,0.3,0.3,0.8,0,1.1C245.6,199.3,245.4,199.4,245.2,199.4z M150.3,195
											c-0.2,0-0.4-0.1-0.5-0.2c-0.3-0.3-0.3-0.8,0-1.1l2.1-2.1c0.3-0.3,0.8-0.3,1.1,0c0.3,0.3,0.3,0.8,0,1.1l-2.1,2.1
											C150.7,194.9,150.5,195,150.3,195z M239.7,193.9c-0.2,0-0.4-0.1-0.5-0.2l-2.1-2.1c-0.3-0.3-0.3-0.8,0-1.1
											c0.3-0.3,0.8-0.3,1.1,0l2.1,2.1c0.3,0.3,0.3,0.8,0,1.1C240.1,193.8,239.9,193.9,239.7,193.9z M155.8,189.4
											c-0.2,0-0.4-0.1-0.5-0.2c-0.3-0.3-0.3-0.8,0-1.1l2.1-2.1c0.3-0.3,0.8-0.3,1.1,0c0.3,0.3,0.3,0.8,0,1.1l-2.1,2.1
											C156.2,189.3,156,189.4,155.8,189.4z M234.1,188.3c-0.2,0-0.4-0.1-0.5-0.2l-2.1-2.1c-0.3-0.3-0.3-0.8,0-1.1
											c0.3-0.3,0.8-0.3,1.1,0l2.1,2.1c0.3,0.3,0.3,0.8,0,1.1C234.5,188.2,234.3,188.3,234.1,188.3z M161.4,183.9
											c-0.2,0-0.4-0.1-0.5-0.2c-0.3-0.3-0.3-0.8,0-1.1l2.1-2.1c0.3-0.3,0.8-0.3,1.1,0c0.3,0.3,0.3,0.8,0,1.1l-2.1,2.1
											C161.8,183.8,161.6,183.9,161.4,183.9z M228.6,182.8c-0.2,0-0.4-0.1-0.5-0.2l-2.1-2.1c-0.3-0.3-0.3-0.8,0-1.1
											s0.8-0.3,1.1,0l2.1,2.1c0.3,0.3,0.3,0.8,0,1.1C229,182.7,228.8,182.8,228.6,182.8z M166.9,178.3c-0.2,0-0.4-0.1-0.5-0.2
											c-0.3-0.3-0.3-0.8,0-1.1l0.4-0.4c0.6-0.6,1.3-1.2,2-1.6c0.3-0.2,0.8-0.1,1,0.2c0.2,0.3,0.1,0.8-0.2,1
											c-0.6,0.4-1.2,0.9-1.8,1.4l-0.4,0.4C167.3,178.2,167.1,178.3,166.9,178.3z M223,177.3c-0.2,0-0.3-0.1-0.5-0.2
											c-0.7-0.6-1.5-1.1-2.3-1.5c-0.4-0.2-0.5-0.6-0.3-1c0.2-0.4,0.6-0.5,1-0.3c0.9,0.5,1.8,1,2.6,1.7c0.3,0.3,0.4,0.7,0.1,1.1
											C223.4,177.2,223.2,177.3,223,177.3z M173.7,174.6c-0.4,0-0.7-0.3-0.7-0.6c-0.1-0.4,0.2-0.8,0.6-0.9
											c0.8-0.2,1.6-0.2,2.4-0.2h0.6c0.4,0,0.8,0.3,0.8,0.8c0,0.4-0.3,0.8-0.8,0.8H176c-0.7,0-1.4,0.1-2.1,0.2
											C173.8,174.6,173.7,174.6,173.7,174.6z M215.9,174.4C215.8,174.4,215.8,174.4,215.9,174.4c-0.3,0-0.5,0-0.7,0h-2.2
											c-0.4,0-0.8-0.3-0.8-0.8c0-0.4,0.3-0.8,0.8-0.8h2.2c0.3,0,0.5,0,0.8,0c0.4,0,0.7,0.4,0.7,0.8
											C216.6,174.1,216.2,174.4,215.9,174.4z M208,174.4h-2.9c-0.4,0-0.8-0.3-0.8-0.8c0-0.4,0.3-0.8,0.8-0.8h2.9
											c0.4,0,0.8,0.3,0.8,0.8C208.8,174,208.4,174.4,208,174.4z M200.2,174.4h-2.9c-0.4,0-0.8-0.3-0.8-0.8
											c0-0.4,0.3-0.8,0.8-0.8h2.9c0.4,0,0.8,0.3,0.8,0.8C200.9,174,200.6,174.4,200.2,174.4z M192.3,174.4h-2.9
											c-0.4,0-0.8-0.3-0.8-0.8c0-0.4,0.3-0.8,0.8-0.8h2.9c0.4,0,0.8,0.3,0.8,0.8C193.1,174,192.7,174.4,192.3,174.4z
											 M184.5,174.4h-2.9c-0.4,0-0.8-0.3-0.8-0.8c0-0.4,0.3-0.8,0.8-0.8h2.9c0.4,0,0.8,0.3,0.8,0.8
											C185.2,174,184.9,174.4,184.5,174.4z"/>
									</g>
								</g>
								<g>
									<g>
										<g>
											<path style="fill:#FFFFFF;" d="M182.3,274.2c-2.4,0-4.7-0.9-6.4-2.6l-18.7-18.7c-1.7-1.7-2.6-4-2.6-6.4v-26.5
												c0-2.4,0.9-4.7,2.6-6.4l18.7-18.7c1.7-1.7,4-2.6,6.4-2.6h26.5c2.4,0,4.7,1,6.4,2.6l18.7,18.7c1.7,1.7,2.6,4,2.6,6.4v26.5
												c0,2.4-0.9,4.7-2.6,6.4l-18.7,18.7c-1.7,1.7-4,2.6-6.4,2.6H182.3z"/>
										</g>
										<g>
											<g>
												<path style="fill:#3E487A;" d="M208.8,192.9c2.2,0,4.3,0.9,5.9,2.4l18.7,18.7c1.6,1.6,2.4,3.7,2.4,5.9v26.5
													c0,2.2-0.9,4.3-2.4,5.9L214.7,271c-1.6,1.6-3.7,2.4-5.9,2.4h-26.5c-2.2,0-4.3-0.9-5.9-2.4l-18.7-18.7
													c-1.6-1.6-2.4-3.7-2.4-5.9v-26.5c0-2.2,0.9-4.3,2.4-5.9l18.7-18.7c1.6-1.6,3.7-2.4,5.9-2.4H208.8 M208.8,191.4h-26.5
													c-2.6,0-5.1,1-6.9,2.9L156.6,213c-1.8,1.9-2.9,4.3-2.9,6.9v26.5c0,2.6,1,5.1,2.9,6.9l18.7,18.7c1.8,1.8,4.3,2.9,6.9,2.9
													h26.5c2.6,0,5.1-1,6.9-2.9l18.7-18.7c1.8-1.8,2.9-4.3,2.9-6.9v-26.5c0-2.6-1-5.1-2.9-6.9l-18.7-18.7
													C213.9,192.4,211.4,191.4,208.8,191.4L208.8,191.4z"/>
											</g>
										</g>
									</g>
								</g>
							</g>
						</g>
					</g>
				</g>
				<g>
					<g>
						<line style="fill:#FFFFFF;" x1="195.7" y1="216" x2="195.7" y2="255.4"/>
						<path style="fill:#3E487A;" d="M195.7,256.1c-0.4,0-0.7-0.3-0.7-0.7V216c0-0.4,0.3-0.7,0.7-0.7c0.4,0,0.7,0.3,0.7,0.7v39.4
							C196.3,255.8,196,256.1,195.7,256.1z"/>
					</g>
					<g>
						<g>
							<path style="fill:#FFFFFF;" d="M213,236.1h-34c-0.3,0-0.5-0.2-0.5-0.5v-9.8c0-0.3,0.2-0.5,0.5-0.5h34c0.3,0,0.5,0.2,0.5,0.5
								v9.8C213.4,235.9,213.2,236.1,213,236.1z"/>
							<path style="fill:#3E487A;" d="M213,236.8h-34c-0.6,0-1.1-0.5-1.1-1.1v-9.8c0-0.6,0.5-1.1,1.1-1.1h34c0.6,0,1.1,0.5,1.1,1.1
								v9.8C214.1,236.3,213.6,236.8,213,236.8z M179.2,235.5h33.6V226h-33.6V235.5z"/>
						</g>
						<g>
							<path style="fill:#E7EAF9;" d="M185.3,230.8c0,0.7-0.6,1.3-1.3,1.3c-0.7,0-1.3-0.6-1.3-1.3c0-0.7,0.6-1.3,1.3-1.3
								C184.8,229.5,185.3,230.1,185.3,230.8z"/>
							<path style="fill:#3E487A;" d="M184.1,232.7c-1.1,0-1.9-0.9-1.9-1.9c0-1.1,0.9-1.9,1.9-1.9c1.1,0,1.9,0.9,1.9,1.9
								C186,231.8,185.1,232.7,184.1,232.7z M184.1,230.2c-0.3,0-0.6,0.3-0.6,0.6c0,0.3,0.3,0.6,0.6,0.6c0.3,0,0.6-0.3,0.6-0.6
								C184.7,230.4,184.4,230.2,184.1,230.2z"/>
						</g>
						<g>
							<line style="fill:#FFFFFF;" x1="190.4" y1="230.4" x2="209.7" y2="230.4"/>
							<path style="fill:#3E487A;" d="M209.7,231.1h-19.3c-0.4,0-0.7-0.3-0.7-0.7s0.3-0.7,0.7-0.7h19.3c0.4,0,0.7,0.3,0.7,0.7
								S210.1,231.1,209.7,231.1z"/>
						</g>
					</g>
					<g>
						<g>
							<path style="fill:#FFFFFF;" d="M213,221.4h-34c-0.3,0-0.5-0.2-0.5-0.5v-9.8c0-0.3,0.2-0.5,0.5-0.5h34c0.3,0,0.5,0.2,0.5,0.5
								v9.8C213.4,221.2,213.2,221.4,213,221.4z"/>
							<path style="fill:#3E487A;" d="M213,222h-34c-0.6,0-1.1-0.5-1.1-1.1v-9.8c0-0.6,0.5-1.1,1.1-1.1h34c0.6,0,1.1,0.5,1.1,1.1
								v9.8C214.1,221.5,213.6,222,213,222z M179.2,220.7h33.6v-9.5h-33.6V220.7z"/>
						</g>
						<g>
							<path style="fill:#E7EAF9;" d="M185.3,216c0,0.7-0.6,1.3-1.3,1.3c-0.7,0-1.3-0.6-1.3-1.3c0-0.7,0.6-1.3,1.3-1.3
								C184.8,214.7,185.3,215.3,185.3,216z"/>
							<path style="fill:#3E487A;" d="M184.1,217.9c-1.1,0-1.9-0.9-1.9-1.9c0-1.1,0.9-1.9,1.9-1.9c1.1,0,1.9,0.9,1.9,1.9
								C186,217,185.1,217.9,184.1,217.9z M184.1,215.4c-0.3,0-0.6,0.3-0.6,0.6c0,0.3,0.3,0.6,0.6,0.6c0.3,0,0.6-0.3,0.6-0.6
								C184.7,215.7,184.4,215.4,184.1,215.4z"/>
						</g>
						<g>
							<line style="fill:#FFFFFF;" x1="190.4" y1="215.6" x2="209.7" y2="215.6"/>
							<path style="fill:#3E487A;" d="M209.7,216.3h-19.3c-0.4,0-0.7-0.3-0.7-0.7s0.3-0.7,0.7-0.7h19.3c0.4,0,0.7,0.3,0.7,0.7
								S210.1,216.3,209.7,216.3z"/>
						</g>
					</g>
					<g>
						<g>
							<path style="fill:#FFFFFF;" d="M213,250.9h-34c-0.3,0-0.5-0.2-0.5-0.5v-9.8c0-0.3,0.2-0.5,0.5-0.5h34c0.3,0,0.5,0.2,0.5,0.5
								v9.8C213.4,250.7,213.2,250.9,213,250.9z"/>
							<path style="fill:#3E487A;" d="M213,251.6h-34c-0.6,0-1.1-0.5-1.1-1.1v-9.8c0-0.6,0.5-1.1,1.1-1.1h34c0.6,0,1.1,0.5,1.1,1.1
								v9.8C214.1,251.1,213.6,251.6,213,251.6z M179.2,250.3h33.6v-9.5h-33.6V250.3z"/>
						</g>
						<g>
							<path style="fill:#E7EAF9;" d="M185.3,245.5c0,0.7-0.6,1.3-1.3,1.3c-0.7,0-1.3-0.6-1.3-1.3c0-0.7,0.6-1.3,1.3-1.3
								C184.8,244.3,185.3,244.8,185.3,245.5z"/>
							<path style="fill:#3E487A;" d="M184.1,247.5c-1.1,0-1.9-0.9-1.9-1.9c0-1.1,0.9-1.9,1.9-1.9c1.1,0,1.9,0.9,1.9,1.9
								C186,246.6,185.1,247.5,184.1,247.5z M184.1,244.9c-0.3,0-0.6,0.3-0.6,0.6c0,0.3,0.3,0.6,0.6,0.6c0.3,0,0.6-0.3,0.6-0.6
								C184.7,245.2,184.4,244.9,184.1,244.9z"/>
						</g>
						<g>
							<line style="fill:#FFFFFF;" x1="190.4" y1="245.2" x2="209.7" y2="245.2"/>
							<path style="fill:#3E487A;" d="M209.7,245.9h-19.3c-0.4,0-0.7-0.3-0.7-0.7c0-0.4,0.3-0.7,0.7-0.7h19.3c0.4,0,0.7,0.3,0.7,0.7
								C210.4,245.6,210.1,245.9,209.7,245.9z"/>
						</g>
					</g>
					<g>
						<line style="fill:#FFFFFF;" x1="178.8" y1="256.9" x2="213.1" y2="256.9"/>
						<path style="fill:#3E487A;" d="M213.1,257.5h-34.3c-0.4,0-0.7-0.3-0.7-0.7c0-0.4,0.3-0.7,0.7-0.7h34.3c0.4,0,0.7,0.3,0.7,0.7
							C213.8,257.2,213.5,257.5,213.1,257.5z"/>
					</g>
					<g>
						<path style="fill:#FFFFFF;" d="M197.9,256.7c0,1.2-1,2.1-2.1,2.1c-1.2,0-2.1-1-2.1-2.1c0-1.2,1-2.1,2.1-2.1
							C196.9,254.6,197.9,255.6,197.9,256.7z"/>
						<path style="fill:#3E487A;" d="M195.7,259.5c-1.5,0-2.8-1.3-2.8-2.8c0-1.5,1.3-2.8,2.8-2.8s2.8,1.3,2.8,2.8
							C198.5,258.3,197.3,259.5,195.7,259.5z M195.7,255.3c-0.8,0-1.5,0.7-1.5,1.5c0,0.8,0.7,1.5,1.5,1.5s1.5-0.7,1.5-1.5
							C197.2,255.9,196.6,255.3,195.7,255.3z"/>
					</g>
				</g>
				<g>
					<g>
						<g>
							<g>
								<g>
									<g>
										<path style="fill:#2A91E9;" d="M102.1,293.4h-2.9c-0.4,0-0.8-0.3-0.8-0.8c0-0.4,0.3-0.8,0.8-0.8h2.9
											c0.4,0,0.8,0.3,0.8,0.8C102.9,293.1,102.5,293.4,102.1,293.4z M94.3,293.4h-2.9c-0.4,0-0.8-0.3-0.8-0.8
											c0-0.4,0.3-0.8,0.8-0.8h2.9c0.4,0,0.8,0.3,0.8,0.8C95,293.1,94.7,293.4,94.3,293.4z M86.4,293.4h-2.9
											c-0.4,0-0.8-0.3-0.8-0.8c0-0.4,0.3-0.8,0.8-0.8h2.9c0.4,0,0.8,0.3,0.8,0.8C87.2,293.1,86.8,293.4,86.4,293.4z M78.6,293.4
											h-2.9c-0.4,0-0.8-0.3-0.8-0.8c0-0.4,0.3-0.8,0.8-0.8h2.9c0.4,0,0.8,0.3,0.8,0.8C79.3,293.1,79,293.4,78.6,293.4z
											 M70.7,293.4h-2.9c-0.4,0-0.8-0.3-0.8-0.8c0-0.4,0.3-0.8,0.8-0.8h2.9c0.4,0,0.8,0.3,0.8,0.8
											C71.5,293.1,71.1,293.4,70.7,293.4z M107,293.4c-0.4,0-0.7-0.3-0.8-0.7c0-0.4,0.3-0.8,0.7-0.8c0.9,0,1.8-0.1,2.7-0.4
											c0.4-0.1,0.8,0.1,0.9,0.5c0.1,0.4-0.1,0.8-0.5,0.9C109.1,293.3,108.1,293.4,107,293.4C107,293.4,107,293.4,107,293.4z
											 M63,292.5c-0.1,0-0.2,0-0.3-0.1c-1-0.4-1.9-0.9-2.7-1.5c-0.3-0.2-0.4-0.7-0.2-1c0.2-0.3,0.7-0.4,1-0.2
											c0.7,0.5,1.5,1,2.4,1.4c0.4,0.2,0.6,0.6,0.4,1C63.6,292.3,63.3,292.5,63,292.5z M114.3,290.9c-0.2,0-0.5-0.1-0.6-0.3
											c-0.3-0.3-0.2-0.8,0.1-1.1c0.4-0.3,0.8-0.6,1.2-1l0.9-0.9c0.3-0.3,0.8-0.3,1.1,0c0.3,0.3,0.3,0.8,0,1.1l-0.9,0.9
											c-0.4,0.4-0.9,0.8-1.3,1.1C114.6,290.9,114.5,290.9,114.3,290.9z M56.9,287.7c-0.2,0-0.4-0.1-0.5-0.2l-2.1-2.1
											c-0.3-0.3-0.3-0.8,0-1.1c0.3-0.3,0.8-0.3,1.1,0l2.1,2.1c0.3,0.3,0.3,0.8,0,1.1C57.3,287.6,57.1,287.7,56.9,287.7z
											 M119.9,285.4c-0.2,0-0.4-0.1-0.5-0.2c-0.3-0.3-0.3-0.8,0-1.1l2.1-2.1c0.3-0.3,0.8-0.3,1.1,0c0.3,0.3,0.3,0.8,0,1.1
											l-2.1,2.1C120.3,285.4,120.1,285.4,119.9,285.4z M51.3,282.1c-0.2,0-0.4-0.1-0.5-0.2l-2.1-2.1c-0.3-0.3-0.3-0.8,0-1.1
											c0.3-0.3,0.8-0.3,1.1,0l2.1,2.1c0.3,0.3,0.3,0.8,0,1.1C51.7,282,51.5,282.1,51.3,282.1z M125.5,279.9
											c-0.2,0-0.4-0.1-0.5-0.2c-0.3-0.3-0.3-0.8,0-1.1l2.1-2.1c0.3-0.3,0.8-0.3,1.1,0c0.3,0.3,0.3,0.8,0,1.1l-2.1,2.1
											C125.9,279.8,125.7,279.9,125.5,279.9z M45.8,276.6c-0.2,0-0.4-0.1-0.5-0.2l-2.1-2.1c-0.3-0.3-0.3-0.8,0-1.1
											c0.3-0.3,0.8-0.3,1.1,0l2.1,2.1c0.3,0.3,0.3,0.8,0,1.1C46.2,276.5,46,276.6,45.8,276.6z M131,274.3
											c-0.2,0-0.4-0.1-0.5-0.2c-0.3-0.3-0.3-0.8,0-1.1l2.1-2.1c0.3-0.3,0.8-0.3,1.1,0c0.3,0.3,0.3,0.8,0,1.1l-2.1,2.1
											C131.4,274.3,131.2,274.3,131,274.3z M40.2,271c-0.2,0-0.4-0.1-0.5-0.2l-2.1-2.1c-0.3-0.3-0.3-0.8,0-1.1
											c0.3-0.3,0.8-0.3,1.1,0l2.1,2.1c0.3,0.3,0.3,0.8,0,1.1C40.6,270.9,40.4,271,40.2,271z M136.6,268.8
											c-0.2,0-0.4-0.1-0.5-0.2c-0.3-0.3-0.3-0.8,0-1.1l2.1-2.1c0.3-0.3,0.8-0.3,1.1,0c0.3,0.3,0.3,0.8,0,1.1l-2.1,2.1
											C137,268.7,136.8,268.8,136.6,268.8z M34.7,265.5c-0.2,0-0.4-0.1-0.5-0.2l-2.1-2.1c-0.3-0.3-0.3-0.8,0-1.1
											c0.3-0.3,0.8-0.3,1.1,0l2.1,2.1c0.3,0.3,0.3,0.8,0,1.1C35.1,265.4,34.9,265.5,34.7,265.5z M142.1,263.2
											c-0.2,0-0.4-0.1-0.5-0.2c-0.3-0.3-0.3-0.8,0-1.1l1.1-1.1c0.3-0.3,0.6-0.6,0.9-1c0.3-0.3,0.7-0.4,1.1-0.1
											c0.3,0.3,0.4,0.7,0.1,1.1c-0.3,0.4-0.6,0.8-1,1.1l-1.1,1.1C142.5,263.2,142.3,263.2,142.1,263.2z M29.4,259.7
											c-0.3,0-0.5-0.1-0.6-0.4c-0.5-0.9-0.9-1.9-1.2-2.9c-0.1-0.4,0.1-0.8,0.5-0.9c0.4-0.1,0.8,0.1,0.9,0.5
											c0.3,0.9,0.6,1.7,1.1,2.5c0.2,0.4,0.1,0.8-0.3,1C29.7,259.6,29.6,259.7,29.4,259.7z M146.4,256.8c-0.1,0-0.1,0-0.2,0
											c-0.4-0.1-0.6-0.5-0.5-0.9c0.2-0.9,0.4-1.8,0.4-2.7c0-0.4,0.4-0.8,0.8-0.7c0.4,0,0.7,0.4,0.7,0.8c0,1-0.2,2.1-0.5,3.1
											C147,256.5,146.7,256.8,146.4,256.8z M27.8,252.1c-0.4,0-0.8-0.3-0.8-0.8v-2.9c0-0.4,0.3-0.8,0.8-0.8
											c0.4,0,0.8,0.3,0.8,0.8v2.9C28.5,251.8,28.2,252.1,27.8,252.1z M146.8,249c-0.4,0-0.8-0.3-0.8-0.8v-2.9
											c0-0.4,0.3-0.8,0.8-0.8c0.4,0,0.8,0.3,0.8,0.8v2.9C147.6,248.6,147.2,249,146.8,249z M27.8,244.3c-0.4,0-0.8-0.3-0.8-0.8
											v-2.9c0-0.4,0.3-0.8,0.8-0.8c0.4,0,0.8,0.3,0.8,0.8v2.9C28.5,243.9,28.2,244.3,27.8,244.3z M146.8,241.1
											c-0.4,0-0.8-0.3-0.8-0.8v-2.9c0-0.4,0.3-0.8,0.8-0.8c0.4,0,0.8,0.3,0.8,0.8v2.9C147.6,240.8,147.2,241.1,146.8,241.1z
											 M27.8,236.4c-0.4,0-0.8-0.3-0.8-0.8v-2.9c0-0.4,0.3-0.8,0.8-0.8c0.4,0,0.8,0.3,0.8,0.8v2.9
											C28.5,236.1,28.2,236.4,27.8,236.4z M146.8,233.3c-0.4,0-0.8-0.3-0.8-0.8v-2.9c0-0.4,0.3-0.8,0.8-0.8
											c0.4,0,0.8,0.3,0.8,0.8v2.9C147.6,232.9,147.2,233.3,146.8,233.3z M27.8,228.6c-0.4,0-0.8-0.3-0.8-0.8v-2.9
											c0-0.4,0.3-0.8,0.8-0.8c0.4,0,0.8,0.3,0.8,0.8v2.9C28.5,228.2,28.2,228.6,27.8,228.6z M146.8,225.4
											c-0.4,0-0.8-0.3-0.8-0.8v-2.9c0-0.4,0.3-0.8,0.8-0.8c0.4,0,0.8,0.3,0.8,0.8v2.9C147.6,225.1,147.2,225.4,146.8,225.4z
											 M27.8,220.7c-0.4,0-0.8-0.3-0.8-0.8V217c0-0.4,0.3-0.8,0.8-0.8c0.4,0,0.8,0.3,0.8,0.8v2.9
											C28.5,220.4,28.2,220.7,27.8,220.7z M27.9,212.9C27.8,212.9,27.8,212.9,27.9,212.9c-0.5-0.1-0.8-0.4-0.7-0.8
											c0.1-1,0.4-2.1,0.7-3c0.1-0.4,0.6-0.6,1-0.4c0.4,0.1,0.6,0.6,0.4,1c-0.3,0.9-0.5,1.8-0.7,2.7
											C28.6,212.6,28.2,212.9,27.9,212.9z M31.1,205.9c-0.2,0-0.4-0.1-0.5-0.2c-0.3-0.3-0.3-0.8,0-1.1l2.1-2.1
											c0.3-0.3,0.8-0.3,1.1,0c0.3,0.3,0.3,0.8,0,1.1l-2.1,2.1C31.5,205.8,31.3,205.9,31.1,205.9z M36.7,200.3
											c-0.2,0-0.4-0.1-0.5-0.2c-0.3-0.3-0.3-0.8,0-1.1l2.1-2.1c0.3-0.3,0.8-0.3,1.1,0c0.3,0.3,0.3,0.8,0,1.1l-2.1,2.1
											C37.1,200.2,36.9,200.3,36.7,200.3z M137.2,199.6c-0.2,0-0.4-0.1-0.5-0.2l-2.1-2.1c-0.3-0.3-0.3-0.8,0-1.1
											c0.3-0.3,0.8-0.3,1.1,0l2.1,2.1c0.3,0.3,0.3,0.8,0,1.1C137.6,199.5,137.4,199.6,137.2,199.6z M42.2,194.8
											c-0.2,0-0.4-0.1-0.5-0.2c-0.3-0.3-0.3-0.8,0-1.1l2.1-2.1c0.3-0.3,0.8-0.3,1.1,0c0.3,0.3,0.3,0.8,0,1.1l-2.1,2.1
											C42.6,194.7,42.4,194.8,42.2,194.8z M131.7,194.1c-0.2,0-0.4-0.1-0.5-0.2l-2.1-2.1c-0.3-0.3-0.3-0.8,0-1.1
											c0.3-0.3,0.8-0.3,1.1,0l2.1,2.1c0.3,0.3,0.3,0.8,0,1.1C132,194,131.8,194.1,131.7,194.1z M47.8,189.2
											c-0.2,0-0.4-0.1-0.5-0.2c-0.3-0.3-0.3-0.8,0-1.1l2.1-2.1c0.3-0.3,0.8-0.3,1.1,0c0.3,0.3,0.3,0.8,0,1.1l-2.1,2.1
											C48.2,189.1,48,189.2,47.8,189.2z M126.1,188.5c-0.2,0-0.4-0.1-0.5-0.2l-2.1-2.1c-0.3-0.3-0.3-0.8,0-1.1s0.8-0.3,1.1,0
											l2.1,2.1c0.3,0.3,0.3,0.8,0,1.1C126.5,188.4,126.3,188.5,126.1,188.5z M53.3,183.7c-0.2,0-0.4-0.1-0.5-0.2
											c-0.3-0.3-0.3-0.8,0-1.1l2.1-2.1c0.3-0.3,0.8-0.3,1.1,0c0.3,0.3,0.3,0.8,0,1.1l-2.1,2.1C53.7,183.6,53.5,183.7,53.3,183.7
											z M120.6,183c-0.2,0-0.4-0.1-0.5-0.2l-2.1-2.1c-0.3-0.3-0.3-0.8,0-1.1s0.8-0.3,1.1,0l2.1,2.1c0.3,0.3,0.3,0.8,0,1.1
											C120.9,182.9,120.7,183,120.6,183z M58.9,178.1c-0.2,0-0.4-0.1-0.5-0.2c-0.3-0.3-0.3-0.8,0-1.1l0.2-0.2
											c0.7-0.7,1.4-1.3,2.2-1.8c0.3-0.2,0.8-0.1,1,0.2c0.2,0.4,0.1,0.8-0.2,1c-0.7,0.5-1.4,1-2,1.6l-0.2,0.2
											C59.3,178,59.1,178.1,58.9,178.1z M115,177.4c-0.2,0-0.4-0.1-0.5-0.2c-0.7-0.6-1.5-1.1-2.3-1.6c-0.4-0.2-0.5-0.6-0.3-1
											c0.2-0.4,0.6-0.5,1-0.3c0.9,0.5,1.8,1.1,2.6,1.8c0.3,0.3,0.3,0.7,0.1,1.1C115.4,177.3,115.2,177.4,115,177.4z M65.7,174.5
											c-0.4,0-0.7-0.3-0.7-0.6c-0.1-0.4,0.2-0.8,0.6-0.9c0.7-0.1,1.4-0.2,2.1-0.2h0.9c0.4,0,0.8,0.3,0.8,0.8
											c0,0.4-0.3,0.8-0.8,0.8h-0.9c-0.6,0-1.3,0.1-1.9,0.2C65.8,174.5,65.8,174.5,65.7,174.5z M107.9,174.4
											C107.9,174.4,107.8,174.4,107.9,174.4c-0.4,0-0.7,0-1,0h-1.9c-0.4,0-0.8-0.3-0.8-0.8c0-0.4,0.3-0.8,0.8-0.8h1.9
											c0.4,0,0.7,0,1.1,0c0.4,0,0.7,0.4,0.7,0.8C108.6,174.1,108.3,174.4,107.9,174.4z M100,174.4h-2.9c-0.4,0-0.8-0.3-0.8-0.8
											c0-0.4,0.3-0.8,0.8-0.8h2.9c0.4,0,0.8,0.3,0.8,0.8C100.8,174,100.5,174.4,100,174.4z M92.2,174.4h-2.9
											c-0.4,0-0.8-0.3-0.8-0.8c0-0.4,0.3-0.8,0.8-0.8h2.9c0.4,0,0.8,0.3,0.8,0.8C92.9,174,92.6,174.4,92.2,174.4z M84.3,174.4
											h-2.9c-0.4,0-0.8-0.3-0.8-0.8c0-0.4,0.3-0.8,0.8-0.8h2.9c0.4,0,0.8,0.3,0.8,0.8C85.1,174,84.8,174.4,84.3,174.4z
											 M76.5,174.4h-2.9c-0.4,0-0.8-0.3-0.8-0.8c0-0.4,0.3-0.8,0.8-0.8h2.9c0.4,0,0.8,0.3,0.8,0.8
											C77.2,174,76.9,174.4,76.5,174.4z"/>
									</g>
								</g>
								<g>
									<g>
										<g>
											<path style="fill:#FFFFFF;" d="M74.2,273.5c-2.4,0-4.6-0.9-6.3-2.6l-18.5-18.4c-1.7-1.7-2.6-3.9-2.6-6.3v-26.1
												c0-2.4,0.9-4.6,2.6-6.3l18.5-18.4c1.7-1.7,3.9-2.6,6.3-2.6h26.1c2.4,0,4.7,0.9,6.3,2.6l18.5,18.4
												c1.7,1.7,2.6,3.9,2.6,6.3v26.1c0,2.4-0.9,4.6-2.6,6.3l-18.5,18.4c-1.7,1.7-3.9,2.6-6.3,2.6H74.2z"/>
										</g>
										<g>
											<path style="fill:#3E487A;" d="M100.4,193.5c2.2,0,4.3,0.9,5.8,2.4l18.5,18.4c1.5,1.5,2.4,3.6,2.4,5.8v26.1
												c0,2.2-0.9,4.2-2.4,5.8l-18.5,18.4c-1.5,1.5-3.6,2.4-5.8,2.4H74.2c-2.2,0-4.3-0.9-5.8-2.4L50,252
												c-1.5-1.5-2.4-3.6-2.4-5.8v-26.1c0-2.2,0.9-4.2,2.4-5.8l18.5-18.4c1.5-1.5,3.6-2.4,5.8-2.4H100.4 M100.4,192H74.2
												c-2.6,0-5,1-6.8,2.8l-18.5,18.4c-1.8,1.8-2.8,4.3-2.8,6.8v26.1c0,2.6,1,5,2.8,6.8l18.5,18.4c1.8,1.8,4.3,2.8,6.9,2.8
												h26.1c2.6,0,5-1,6.8-2.8l18.5-18.4c1.8-1.8,2.8-4.3,2.8-6.8v-26.1c0-2.6-1-5-2.8-6.8l-18.5-18.4
												C105.4,193.1,102.9,192,100.4,192L100.4,192z"/>
										</g>
									</g>
								</g>
							</g>
						</g>
					</g>
				</g>
				<g>
					<g>
						<g>
							<g>
								<ellipse style="fill:#E7EAF9;" cx="84.5" cy="225" rx="17.9" ry="18"/>
							</g>
							<g>
								<path style="fill:#3E487A;" d="M84.5,207.7c9.5,0,17.2,7.7,17.2,17.3c0,9.5-7.7,17.3-17.2,17.3c-9.5,0-17.2-7.7-17.2-17.3
									C67.3,215.4,75,207.7,84.5,207.7 M84.5,206.2c-10.3,0-18.7,8.4-18.7,18.8c0,10.3,8.4,18.8,18.7,18.8
									c10.3,0,18.7-8.4,18.7-18.8C103.1,214.6,94.8,206.2,84.5,206.2L84.5,206.2z"/>
							</g>
						</g>
						<g>
							<g>
								<g>
									<path style="fill:#E7EAF9;" d="M84.5,242.9c-2.6,0-5.1-0.5-7.5-1.6l-0.2-0.1c0,0-0.7-0.3-1.1-0.5l-0.3-0.2
										c-1.3-0.7-2.5-1.7-3.7-2.8c-0.2-0.2-0.3-0.5-0.2-0.8c0.1-0.4,0.3-0.7,0.4-1.1c1-2.7,2.7-4.6,4.6-5.6c1.1-0.5,2-0.7,2.6-0.7
										l0.1,0l10.6,0c0,0,0.1,0,0.1,0c0.5,0,1.5,0.1,2.6,0.7c0.8,0.4,2.1,1.3,3.2,3c0.7,1,1.2,2.3,1.7,3.7c0.1,0.3,0,0.6-0.2,0.8
										c-1.2,1.1-2.4,2-3.8,2.8l-0.1,0.1c-0.1,0.1-0.4,0.2-1.1,0.5l-0.2,0.1C89.6,242.4,87.1,242.9,84.5,242.9z"/>
								</g>
								<g>
									<path style="fill:#3E487A;" d="M79.1,230.4l10.6,0c0,0,0.1,0,0.1,0c0.5,0,1.3,0.1,2.3,0.6c1,0.5,2,1.4,2.9,2.7
										c0.6,0.9,1.2,2.1,1.6,3.5c-1.1,1-2.3,1.9-3.6,2.7c-0.1,0-0.1,0.1-0.2,0.1c-0.1,0.1-1,0.5-1,0.5c-0.1,0-0.1,0.1-0.2,0.1
										c-2.2,1-4.7,1.6-7.2,1.6c-2.6,0-5-0.6-7.2-1.6c-0.1,0-0.2-0.1-0.2-0.1c0,0-0.7-0.3-1-0.5c-0.1,0-0.2-0.1-0.3-0.1
										c-1.3-0.7-2.5-1.6-3.5-2.6c0.1-0.4,0.2-0.7,0.4-1c1.1-2.8,2.7-4.4,4.2-5.2c0.9-0.5,1.8-0.6,2.3-0.6
										C79.1,230.4,79.1,230.4,79.1,230.4 M79.1,228.9C79.1,228.9,79.1,228.9,79.1,228.9c-0.1,0-0.1,0-0.2,0
										c-0.6,0-1.7,0.1-2.9,0.7c-1.4,0.7-3.5,2.3-4.9,6c-0.1,0.3-0.3,0.7-0.4,1.1c-0.2,0.5,0,1.2,0.4,1.6c1.2,1.1,2.5,2.1,3.8,2.9
										l0.3,0.2c0.4,0.2,1,0.5,1.1,0.5l0.2,0.1c2.5,1.1,5.1,1.7,7.8,1.7c2.7,0,5.3-0.6,7.8-1.7l0.2-0.1c0.7-0.3,1-0.5,1.2-0.6
										l0.1-0.1c1.4-0.8,2.7-1.8,3.9-2.9c0.4-0.4,0.6-1,0.4-1.6c-0.5-1.5-1.1-2.8-1.8-3.8c-1-1.5-2.2-2.6-3.5-3.3
										c-1.2-0.6-2.2-0.7-2.9-0.7c0,0-0.1,0-0.1,0L79.1,228.9L79.1,228.9z"/>
								</g>
							</g>
							<g>
								<g>
									<path style="fill:#E7EAF9;" d="M84.5,229.6c-3.8,0-6.9-3.1-6.9-6.9c0-3.8,3.1-6.9,6.9-6.9s6.9,3.1,6.9,6.9
										C91.4,226.5,88.3,229.6,84.5,229.6z"/>
								</g>
								<g>
									<path style="fill:#3E487A;" d="M84.5,216.5c3.4,0,6.2,2.8,6.2,6.2c0,3.4-2.8,6.2-6.2,6.2c-3.4,0-6.2-2.8-6.2-6.2
										C78.3,219.3,81,216.5,84.5,216.5 M84.5,215c-4.2,0-7.7,3.4-7.7,7.7c0,4.2,3.4,7.7,7.7,7.7c4.2,0,7.7-3.4,7.7-7.7
										C92.1,218.4,88.7,215,84.5,215L84.5,215z"/>
								</g>
							</g>
						</g>
					</g>
					<g>
						<g>
							<path style="fill:#FFFFFF;" d="M100,260.1c-0.7,0-1.4-0.2-2-0.7c-2.8-2.1-6.3-2.8-6.3-2.9c-1.2-0.2-2-0.6-2.9-1.2
								c-0.3-0.2-0.7-0.5-1.1-0.7c-0.3-0.2-0.6-0.3-0.8-0.5c-1.6-1-3.1-1.8-4.5-2.3c-0.5-0.2-0.9-0.5-1.1-0.9
								c-0.2-0.4-0.2-0.9,0-1.5c0.2-0.6,0.8-1.2,1.3-1.4c0.5-0.3,1.1-0.4,1.8-0.4c0.4,0,0.7,0,1.2,0.1c0.3,0,1,0.3,2.4,0.9
								c0.5,0.2,1,0.5,1.4,0.6c0-0.1,0-0.3,0-0.6c0-0.3-0.1-0.7-0.3-1c-1.4-2.6-2.9-5.2-4.3-7.7l-1.7-3c-0.7-1.1-0.4-2.4,0.7-3.1
								c0.4-0.3,0.8-0.4,1.3-0.4c0.7,0,1.4,0.3,1.9,0.9c0.4,0.5,0.8,1,1.2,1.5c0.4,0.5,0.8,1,1.2,1.5l0.4,0.5
								c0.6,0.7,1.2,1.5,1.7,2.2l0.5,0.6c1-0.3,3.4-1,6.4-1c1.5,0,3.1,0.2,4.5,0.5c0.6,0.2,1,0.5,1.3,1c1.1,2,2.4,5,2.8,7.9
								c0.2,0.6,0.4,1.1,0.6,1.5l0.1,0.3l0.7,1.2c0.5,0.8,0.3,2-0.5,2.6l-5.6,4.5C101.5,259.9,100.8,260.1,100,260.1L100,260.1z"/>
						</g>
						<g>
							<path style="fill:#3E487A;" d="M85,234.3c0.5,0,1,0.2,1.3,0.6c0.8,1,1.5,1.9,2.3,2.9c0.7,0.9,1.4,1.8,2.1,2.7l0.9,1.1
								c0,0,2.8-1.1,6.7-1.1c1.3,0,2.8,0.1,4.3,0.5c0.3,0.1,0.6,0.3,0.7,0.6c0.6,1.2,2.4,4.5,2.8,7.8c0.2,0.8,0.6,1.5,0.7,2l0.7,1.2
								c0.3,0.6,0.2,1.2-0.3,1.6l-5.6,4.5c-0.5,0.4-1.1,0.6-1.6,0.6c-0.5,0-1.1-0.2-1.5-0.5c-3-2.2-6.6-3-6.6-3
								c-0.9-0.2-1.8-0.5-2.6-1.1c-0.6-0.4-1.4-0.8-1.9-1.2c-1.5-1-3-1.8-4.7-2.4c-0.7-0.2-0.9-0.7-0.6-1.4c0.1-0.4,0.6-0.8,0.9-1
								c0.5-0.2,1-0.3,1.5-0.3c0.4,0,0.7,0,1,0.1c0.5,0,2.7,1.2,3.7,1.5c0.1,0.1,0.3,0.1,0.4,0.1c0.6,0,0.6-0.7,0.6-1.5
								c0-0.5-0.2-0.9-0.4-1.3c-1.9-3.6-4-7.2-6-10.7c-0.5-0.8-0.3-1.6,0.4-2.1C84.4,234.4,84.7,234.3,85,234.3 M85,232.8L85,232.8
								c-0.6,0-1.2,0.2-1.7,0.5c-1.4,0.9-1.7,2.6-0.9,4.1c0.5,1,1.1,2,1.7,3c1.4,2.5,2.9,5.1,4.3,7.7c0,0,0,0,0,0
								c-1.4-0.7-2.1-0.9-2.6-1c-0.5-0.1-0.9-0.1-1.3-0.1c-0.8,0-1.5,0.2-2.2,0.5c-0.7,0.4-1.4,1.1-1.7,1.8c-0.3,0.8-0.3,1.5,0,2.1
								c0.2,0.4,0.6,1,1.6,1.3c1.4,0.5,2.8,1.2,4.3,2.2c0.2,0.2,0.5,0.3,0.9,0.5c0.4,0.2,0.7,0.4,1,0.6c1.2,0.9,2.3,1.2,3.2,1.3
								c0,0,3.4,0.7,6,2.7c0.7,0.5,1.5,0.8,2.4,0.8c0.9,0,1.9-0.3,2.6-0.9l5.6-4.5c1-0.8,1.3-2.4,0.6-3.5l-0.6-1.1
								c0-0.1-0.1-0.2-0.1-0.3c-0.2-0.4-0.4-0.9-0.5-1.4c-0.4-3-1.8-6.1-2.9-8.1c-0.3-0.7-0.9-1.2-1.7-1.4c0,0,0,0-0.1,0
								c-1.5-0.4-3.1-0.5-4.7-0.5c-2.7,0-4.9,0.5-6.2,0.9l-0.2-0.3c-0.6-0.8-1.2-1.5-1.7-2.2l-0.4-0.5c-0.4-0.5-0.8-1-1.2-1.5
								c-0.4-0.5-0.8-1-1.2-1.5C86.9,233.3,86,232.8,85,232.8L85,232.8z"/>
						</g>
					</g>
				</g>
				<g>
					<path style="fill:#2A91E9;" d="M150.1,223.9c-0.2,0-0.3-0.1-0.5-0.2l-3-2.6l-2.8,2.6c-0.3,0.3-0.8,0.3-1,0
						c-0.3-0.3-0.3-0.8,0-1l3.3-3.1c0.3-0.3,0.7-0.3,1,0l3.5,3.1c0.3,0.3,0.3,0.7,0.1,1C150.5,223.8,150.3,223.9,150.1,223.9z"/>
				</g>
				<g>
					<path style="fill:#5059C9;" d="M136.1,245.9c-0.2,0-0.3-0.1-0.5-0.2l-3.5-3.1c-0.3-0.3-0.3-0.7-0.1-1c0.3-0.3,0.7-0.3,1-0.1
						l3,2.6l2.8-2.6c0.3-0.3,0.8-0.3,1,0c0.3,0.3,0.3,0.8,0,1l-3.3,3.1C136.4,245.8,136.2,245.9,136.1,245.9z"/>
				</g>
			</g>
		</g>
		<g>
			<path style="fill:#2A91E9;" d="M64,318.4c-0.4,0.2-1.4,0.5-2.5,0.5c-2.7,0-4.7-1.7-4.7-4.8c0-3,2-5,5-5c1.2,0,1.9,0.3,2.3,0.4
				l-0.3,1c-0.5-0.2-1.1-0.4-1.9-0.4c-2.2,0-3.7,1.4-3.7,3.9c0,2.3,1.3,3.8,3.6,3.8c0.8,0,1.5-0.2,2-0.4L64,318.4z"/>
			<path style="fill:#2A91E9;" d="M71.5,315.3c0,2.5-1.8,3.6-3.4,3.6c-1.8,0-3.3-1.4-3.3-3.5c0-2.3,1.5-3.6,3.4-3.6
				C70.2,311.8,71.5,313.2,71.5,315.3z M66.1,315.3c0,1.5,0.8,2.6,2.1,2.6c1.2,0,2.1-1.1,2.1-2.6c0-1.2-0.6-2.6-2-2.6
				C66.8,312.7,66.1,314.1,66.1,315.3z"/>
			<path style="fill:#2A91E9;" d="M78.8,316.9c0,0.7,0,1.3,0.1,1.9h-1.1l-0.1-1.1h0c-0.3,0.5-1,1.3-2.3,1.3c-1.1,0-2.3-0.6-2.3-3v-4
				h1.2v3.8c0,1.3,0.4,2.2,1.5,2.2c0.8,0,1.4-0.6,1.6-1.1c0.1-0.2,0.1-0.4,0.1-0.6v-4.2h1.2V316.9z"/>
			<path style="fill:#2A91E9;" d="M80.8,314.2c0-0.9,0-1.6-0.1-2.2h1.1l0.1,1.2h0c0.5-0.8,1.3-1.3,2.4-1.3c1.7,0,2.9,1.4,2.9,3.4
				c0,2.4-1.5,3.7-3.1,3.7c-0.9,0-1.7-0.4-2.1-1.1h0v3.7h-1.2V314.2z M82.1,316c0,0.2,0,0.4,0.1,0.5c0.2,0.9,1,1.4,1.9,1.4
				c1.3,0,2.1-1.1,2.1-2.6c0-1.4-0.7-2.5-2-2.5c-0.8,0-1.6,0.6-1.9,1.5c0,0.2-0.1,0.3-0.1,0.5V316z"/>
			<path style="fill:#2A91E9;" d="M88.8,308.7h1.2v10h-1.2V308.7z"/>
			<path style="fill:#2A91E9;" d="M92.8,315.6c0,1.7,1.1,2.4,2.3,2.4c0.9,0,1.4-0.2,1.9-0.4l0.2,0.9c-0.4,0.2-1.2,0.4-2.3,0.4
				c-2.1,0-3.3-1.4-3.3-3.4c0-2.1,1.2-3.7,3.2-3.7c2.2,0,2.8,1.9,2.8,3.2c0,0.3,0,0.4,0,0.6H92.8z M96.5,314.7c0-0.8-0.3-2-1.7-2
				c-1.3,0-1.8,1.1-1.9,2H96.5z"/>
			<path style="fill:#2A91E9;" d="M105.1,308.7v8.2c0,0.6,0,1.3,0.1,1.8H104l-0.1-1.2h0c-0.4,0.8-1.2,1.3-2.3,1.3
				c-1.6,0-2.9-1.4-2.9-3.5c0-2.3,1.4-3.6,3.1-3.6c1.1,0,1.7,0.5,2.1,1h0v-4.1H105.1z M103.8,314.7c0-0.2,0-0.4-0.1-0.5
				c-0.2-0.8-0.9-1.4-1.8-1.4c-1.3,0-2,1.1-2,2.6c0,1.4,0.7,2.5,2,2.5c0.8,0,1.6-0.6,1.8-1.5c0-0.2,0.1-0.3,0.1-0.5V314.7z"/>
			<path style="fill:#2A91E9;" d="M111.5,310c0,0.4-0.3,0.8-0.8,0.8c-0.5,0-0.7-0.3-0.7-0.8s0.3-0.8,0.8-0.8
				C111.2,309.2,111.5,309.6,111.5,310z M110.1,318.7v-6.8h1.2v6.8H110.1z"/>
			<path style="fill:#2A91E9;" d="M113.2,317.5c0.4,0.2,1,0.5,1.6,0.5c0.9,0,1.3-0.4,1.3-1c0-0.6-0.4-0.9-1.3-1.2
				c-1.2-0.5-1.8-1.1-1.8-1.9c0-1.1,0.9-2,2.3-2c0.7,0,1.3,0.2,1.7,0.4l-0.3,0.9c-0.3-0.2-0.8-0.4-1.4-0.4c-0.7,0-1.1,0.4-1.1,0.9
				c0,0.6,0.4,0.8,1.3,1.2c1.2,0.4,1.8,1,1.8,2c0,1.2-0.9,2.1-2.5,2.1c-0.7,0-1.4-0.2-1.9-0.5L113.2,317.5z"/>
			<path style="fill:#2A91E9;" d="M123.3,310c0,0.4-0.3,0.8-0.8,0.8c-0.5,0-0.7-0.3-0.7-0.8s0.3-0.8,0.8-0.8
				C123,309.2,123.3,309.6,123.3,310z M122,318.7v-6.8h1.2v6.8H122z"/>
			<path style="fill:#2A91E9;" d="M125.2,313.8c0-0.7,0-1.3-0.1-1.8h1.1l0.1,1.1h0c0.3-0.6,1.1-1.3,2.3-1.3c0.9,0,2.4,0.6,2.4,2.9
				v4.1h-1.2v-3.9c0-1.1-0.4-2-1.6-2c-0.8,0-1.4,0.6-1.7,1.3c-0.1,0.2-0.1,0.4-0.1,0.6v4.1h-1.2V313.8z"/>
			<path style="fill:#2A91E9;" d="M133.7,315.6c0,1.7,1.1,2.4,2.3,2.4c0.9,0,1.4-0.2,1.9-0.4l0.2,0.9c-0.4,0.2-1.2,0.4-2.3,0.4
				c-2.1,0-3.3-1.4-3.3-3.4c0-2.1,1.2-3.7,3.2-3.7c2.2,0,2.8,1.9,2.8,3.2c0,0.3,0,0.4,0,0.6H133.7z M137.4,314.7c0-0.8-0.3-2-1.7-2
				c-1.3,0-1.8,1.1-1.9,2H137.4z"/>
			<path style="fill:#2A91E9;" d="M148.6,310c-0.3-0.2-0.8-0.4-1.4-0.4c-1.3,0-1.7,0.9-1.7,2v0.3h4v6.8h-1.2v-5.9h-2.7v5.9h-1.2
				v-5.9h-2.9v5.9h-1.2v-5.9h-0.9v-0.9h0.9v-0.2c0-0.8,0.2-1.7,0.8-2.3c0.4-0.4,1-0.7,1.7-0.7c0.5,0,0.9,0.2,1.2,0.3l-0.4,0.9
				c-0.2-0.1-0.5-0.2-0.8-0.2c-0.4,0-0.7,0.1-0.9,0.4c-0.3,0.4-0.5,1-0.5,1.6v0.3h2.9v-0.4c0-1.8,1.1-3,3-3c0.6,0,1.3,0.2,1.7,0.4
				L148.6,310z"/>
			<path style="fill:#2A91E9;" d="M156.4,318.5c-0.3,0.2-1,0.4-2,0.4c-2.1,0-3.4-1.4-3.4-3.5c0-2.1,1.4-3.6,3.7-3.6
				c0.7,0,1.4,0.2,1.7,0.4l-0.3,0.9c-0.3-0.2-0.8-0.3-1.4-0.3c-1.6,0-2.4,1.2-2.4,2.6c0,1.6,1,2.5,2.4,2.5c0.7,0,1.2-0.2,1.5-0.3
				L156.4,318.5z"/>
			<path style="fill:#2A91E9;" d="M159.2,310c0,0.4-0.3,0.8-0.8,0.8c-0.5,0-0.7-0.3-0.7-0.8s0.3-0.8,0.8-0.8
				C158.9,309.2,159.2,309.6,159.2,310z M157.9,318.7v-6.8h1.2v6.8H157.9z"/>
			<path style="fill:#2A91E9;" d="M161.8,315.6c0,1.7,1.1,2.4,2.3,2.4c0.9,0,1.4-0.2,1.9-0.4l0.2,0.9c-0.4,0.2-1.2,0.4-2.3,0.4
				c-2.1,0-3.3-1.4-3.3-3.4c0-2.1,1.2-3.7,3.2-3.7c2.2,0,2.8,1.9,2.8,3.2c0,0.3,0,0.4,0,0.6H161.8z M165.5,314.7c0-0.8-0.3-2-1.7-2
				c-1.3,0-1.8,1.1-1.9,2H165.5z"/>
			<path style="fill:#2A91E9;" d="M168.2,313.8c0-0.7,0-1.3-0.1-1.8h1.1l0.1,1.1h0c0.3-0.6,1.1-1.3,2.3-1.3c0.9,0,2.4,0.6,2.4,2.9
				v4.1h-1.2v-3.9c0-1.1-0.4-2-1.6-2c-0.8,0-1.4,0.6-1.7,1.3c-0.1,0.2-0.1,0.4-0.1,0.6v4.1h-1.2V313.8z"/>
			<path style="fill:#2A91E9;" d="M177.4,310.3v1.6h1.8v0.9h-1.8v3.7c0,0.8,0.2,1.3,0.9,1.3c0.3,0,0.5,0,0.7-0.1l0.1,0.9
				c-0.2,0.1-0.6,0.2-1.1,0.2c-0.6,0-1-0.2-1.3-0.5c-0.3-0.4-0.5-1-0.5-1.8v-3.7h-1.1v-0.9h1.1v-1.3L177.4,310.3z"/>
			<path style="fill:#2A91E9;" d="M183.7,318.7v-5.9h-0.9v-0.9h0.9v-0.3c0-1,0.2-1.8,0.8-2.4c0.5-0.5,1.1-0.6,1.7-0.6
				c0.5,0,0.8,0.1,1.1,0.2l-0.2,1c-0.2-0.1-0.4-0.2-0.8-0.2c-1.1,0-1.3,0.9-1.3,2v0.4h1.6v0.9h-1.6v5.9H183.7z"/>
			<path style="fill:#2A91E9;" d="M193.7,315.3c0,2.5-1.8,3.6-3.4,3.6c-1.8,0-3.3-1.4-3.3-3.5c0-2.3,1.5-3.6,3.4-3.6
				C192.3,311.8,193.7,313.2,193.7,315.3z M188.3,315.3c0,1.5,0.8,2.6,2.1,2.6c1.2,0,2.1-1.1,2.1-2.6c0-1.2-0.6-2.6-2-2.6
				C188.9,312.7,188.3,314.1,188.3,315.3z"/>
			<path style="fill:#2A91E9;" d="M195.2,314.1c0-0.8,0-1.5-0.1-2.1h1.1l0.1,1.4h0c0.3-0.9,1.1-1.5,1.9-1.5c0.1,0,0.2,0,0.3,0v1.2
				c-0.1,0-0.3,0-0.4,0c-0.9,0-1.5,0.6-1.7,1.6c0,0.2,0,0.4,0,0.6v3.6h-1.2V314.1z"/>
			<path style="fill:#2A91E9;" d="M204.1,309.3v4h4.6v-4h1.2v9.5h-1.2v-4.4h-4.6v4.4h-1.2v-9.5H204.1z"/>
			<path style="fill:#2A91E9;" d="M218.6,318.4c-0.4,0.2-1.4,0.5-2.5,0.5c-2.7,0-4.7-1.7-4.7-4.8c0-3,2-5,5-5c1.2,0,1.9,0.3,2.3,0.4
				l-0.3,1c-0.5-0.2-1.1-0.4-1.9-0.4c-2.2,0-3.7,1.4-3.7,3.9c0,2.3,1.3,3.8,3.6,3.8c0.8,0,1.5-0.2,2-0.4L218.6,318.4z"/>
			<path style="fill:#2A91E9;" d="M220.2,309.4c0.7-0.1,1.6-0.2,2.6-0.2c1.8,0,3,0.4,3.8,1.2c0.9,0.8,1.4,1.9,1.4,3.4
				c0,1.5-0.5,2.8-1.4,3.7c-0.9,0.9-2.4,1.4-4.2,1.4c-0.9,0-1.6,0-2.2-0.1V309.4z M221.4,317.8c0.3,0,0.8,0.1,1.2,0.1
				c2.6,0,4-1.5,4-4c0-2.2-1.3-3.7-3.8-3.7c-0.6,0-1.1,0.1-1.4,0.1V317.8z"/>
		</g>
	</g>
	<g>
		<g>
			<path style="fill:#F7F8FD;" d="M283.6,496.5h-1.7H8.8H7.1c-1.8,0-3.2,0.5-3.2,1v20.3c0,0.6,1.4,1,3.2,1h1.7h273h1.7
				c1.8,0,3.2-0.5,3.2-1v-20.3C286.8,497,285.4,496.5,283.6,496.5z"/>
		</g>
		<g>
			<g>
				<path style="fill:#2A91E9;" d="M57,502.9c0.7-0.1,1.6-0.2,2.6-0.2c1.8,0,3,0.4,3.8,1.2c0.9,0.8,1.4,1.9,1.4,3.4
					c0,1.5-0.5,2.8-1.4,3.7c-0.9,0.9-2.4,1.4-4.2,1.4c-0.9,0-1.6,0-2.2-0.1V502.9z M58.2,511.3c0.3,0,0.8,0.1,1.2,0.1
					c2.6,0,4-1.5,4-4c0-2.2-1.3-3.7-3.8-3.7c-0.6,0-1.1,0.1-1.4,0.1V511.3z"/>
				<path style="fill:#2A91E9;" d="M67.1,509.1c0,1.7,1.1,2.4,2.3,2.4c0.9,0,1.4-0.2,1.9-0.4l0.2,0.9c-0.4,0.2-1.2,0.4-2.3,0.4
					c-2.1,0-3.3-1.4-3.3-3.4c0-2.1,1.2-3.7,3.2-3.7c2.2,0,2.8,1.9,2.8,3.2c0,0.3,0,0.4,0,0.6H67.1z M70.7,508.2c0-0.8-0.3-2-1.7-2
					c-1.3,0-1.8,1.1-1.9,2H70.7z"/>
				<path style="fill:#2A91E9;" d="M76.7,508v0.9h-3.5V508H76.7z"/>
				<path style="fill:#2A91E9;" d="M83.2,512c-0.3,0.2-1,0.4-2,0.4c-2.1,0-3.4-1.4-3.4-3.5c0-2.1,1.4-3.6,3.7-3.6
					c0.7,0,1.4,0.2,1.7,0.4l-0.3,0.9c-0.3-0.2-0.8-0.3-1.4-0.3c-1.6,0-2.4,1.2-2.4,2.6c0,1.6,1,2.5,2.4,2.5c0.7,0,1.2-0.2,1.5-0.3
					L83.2,512z"/>
				<path style="fill:#2A91E9;" d="M90.8,508.8c0,2.5-1.8,3.6-3.4,3.6c-1.8,0-3.3-1.4-3.3-3.5c0-2.3,1.5-3.6,3.4-3.6
					C89.4,505.3,90.8,506.7,90.8,508.8z M85.4,508.9c0,1.5,0.8,2.6,2.1,2.6c1.2,0,2.1-1.1,2.1-2.6c0-1.2-0.6-2.6-2-2.6
					C86,506.2,85.4,507.6,85.4,508.9z"/>
				<path style="fill:#2A91E9;" d="M98,510.4c0,0.7,0,1.3,0.1,1.9H97l-0.1-1.1h0c-0.3,0.5-1,1.3-2.3,1.3c-1.1,0-2.3-0.6-2.3-3v-4
					h1.2v3.8c0,1.3,0.4,2.2,1.5,2.2c0.8,0,1.4-0.6,1.6-1.1c0.1-0.2,0.1-0.4,0.1-0.6v-4.2H98V510.4z"/>
				<path style="fill:#2A91E9;" d="M100.1,507.7c0-0.9,0-1.6-0.1-2.2h1.1l0.1,1.2h0c0.5-0.8,1.3-1.3,2.4-1.3c1.7,0,2.9,1.4,2.9,3.4
					c0,2.4-1.5,3.7-3.1,3.7c-0.9,0-1.7-0.4-2.1-1.1h0v3.7h-1.2V507.7z M101.3,509.5c0,0.2,0,0.4,0.1,0.5c0.2,0.9,1,1.4,1.9,1.4
					c1.3,0,2.1-1.1,2.1-2.6c0-1.4-0.7-2.5-2-2.5c-0.8,0-1.6,0.6-1.9,1.5c0,0.2-0.1,0.3-0.1,0.5V509.5z"/>
				<path style="fill:#2A91E9;" d="M108.1,502.3h1.2v10h-1.2V502.3z"/>
				<path style="fill:#2A91E9;" d="M112.1,509.1c0,1.7,1.1,2.4,2.3,2.4c0.9,0,1.4-0.2,1.9-0.4l0.2,0.9c-0.4,0.2-1.2,0.4-2.3,0.4
					c-2.1,0-3.3-1.4-3.3-3.4c0-2.1,1.2-3.7,3.2-3.7c2.2,0,2.8,1.9,2.8,3.2c0,0.3,0,0.4,0,0.6H112.1z M115.7,508.2c0-0.8-0.3-2-1.7-2
					c-1.3,0-1.8,1.1-1.9,2H115.7z"/>
				<path style="fill:#2A91E9;" d="M124.3,502.3v8.2c0,0.6,0,1.3,0.1,1.8h-1.1l-0.1-1.2h0c-0.4,0.8-1.2,1.3-2.3,1.3
					c-1.6,0-2.9-1.4-2.9-3.5c0-2.3,1.4-3.6,3.1-3.6c1.1,0,1.7,0.5,2.1,1h0v-4.1H124.3z M123.1,508.2c0-0.2,0-0.4-0.1-0.5
					c-0.2-0.8-0.9-1.4-1.8-1.4c-1.3,0-2,1.1-2,2.6c0,1.4,0.7,2.5,2,2.5c0.8,0,1.6-0.6,1.8-1.5c0-0.2,0.1-0.3,0.1-0.5V508.2z"/>
				<path style="fill:#2A91E9;" d="M130.7,503.5c0,0.4-0.3,0.8-0.8,0.8c-0.5,0-0.7-0.3-0.7-0.8c0-0.4,0.3-0.8,0.8-0.8
					C130.4,502.8,130.7,503.1,130.7,503.5z M129.3,512.3v-6.8h1.2v6.8H129.3z"/>
				<path style="fill:#2A91E9;" d="M132.5,511c0.4,0.2,1,0.5,1.6,0.5c0.9,0,1.3-0.4,1.3-1c0-0.6-0.4-0.9-1.3-1.2
					c-1.2-0.5-1.8-1.1-1.8-1.9c0-1.1,0.9-2,2.3-2c0.7,0,1.3,0.2,1.7,0.4l-0.3,0.9c-0.3-0.2-0.8-0.4-1.4-0.4c-0.7,0-1.1,0.4-1.1,0.9
					c0,0.6,0.4,0.8,1.3,1.2c1.2,0.4,1.8,1,1.8,2c0,1.2-0.9,2.1-2.5,2.1c-0.7,0-1.4-0.2-1.9-0.5L132.5,511z"/>
				<path style="fill:#2A91E9;" d="M141.9,509.1c0,1.7,1.1,2.4,2.3,2.4c0.9,0,1.4-0.2,1.9-0.4l0.2,0.9c-0.4,0.2-1.2,0.4-2.3,0.4
					c-2.1,0-3.3-1.4-3.3-3.4c0-2.1,1.2-3.7,3.2-3.7c2.2,0,2.8,1.9,2.8,3.2c0,0.3,0,0.4,0,0.6H141.9z M145.5,508.2c0-0.8-0.3-2-1.7-2
					c-1.3,0-1.8,1.1-1.9,2H145.5z"/>
				<path style="fill:#2A91E9;" d="M156.8,503.5c-0.3-0.2-0.8-0.4-1.4-0.4c-1.3,0-1.7,0.9-1.7,2v0.3h4v6.8h-1.2v-5.9h-2.7v5.9h-1.2
					v-5.9h-2.9v5.9h-1.2v-5.9h-0.9v-0.9h0.9v-0.2c0-0.8,0.2-1.7,0.8-2.3c0.4-0.4,1-0.7,1.7-0.7c0.5,0,0.9,0.2,1.2,0.3l-0.4,0.9
					c-0.2-0.1-0.5-0.2-0.8-0.2c-0.4,0-0.7,0.1-0.9,0.4c-0.3,0.4-0.5,1-0.5,1.6v0.3h2.9v-0.4c0-1.8,1.1-3,3-3c0.6,0,1.3,0.2,1.7,0.4
					L156.8,503.5z"/>
				<path style="fill:#2A91E9;" d="M164.5,512c-0.3,0.2-1,0.4-2,0.4c-2.1,0-3.4-1.4-3.4-3.5c0-2.1,1.4-3.6,3.7-3.6
					c0.7,0,1.4,0.2,1.7,0.4l-0.3,0.9c-0.3-0.2-0.8-0.3-1.4-0.3c-1.6,0-2.4,1.2-2.4,2.6c0,1.6,1,2.5,2.4,2.5c0.7,0,1.2-0.2,1.5-0.3
					L164.5,512z"/>
				<path style="fill:#2A91E9;" d="M167.4,503.5c0,0.4-0.3,0.8-0.8,0.8c-0.5,0-0.7-0.3-0.7-0.8c0-0.4,0.3-0.8,0.8-0.8
					C167.1,502.8,167.4,503.1,167.4,503.5z M166,512.3v-6.8h1.2v6.8H166z"/>
				<path style="fill:#2A91E9;" d="M170,509.1c0,1.7,1.1,2.4,2.3,2.4c0.9,0,1.4-0.2,1.9-0.4l0.2,0.9c-0.4,0.2-1.2,0.4-2.3,0.4
					c-2.1,0-3.3-1.4-3.3-3.4c0-2.1,1.2-3.7,3.2-3.7c2.2,0,2.8,1.9,2.8,3.2c0,0.3,0,0.4,0,0.6H170z M173.6,508.2c0-0.8-0.3-2-1.7-2
					c-1.3,0-1.8,1.1-1.9,2H173.6z"/>
				<path style="fill:#2A91E9;" d="M176.3,507.3c0-0.7,0-1.3-0.1-1.8h1.1l0.1,1.1h0c0.3-0.6,1.1-1.3,2.3-1.3c0.9,0,2.4,0.6,2.4,2.9
					v4.1h-1.2v-3.9c0-1.1-0.4-2-1.6-2c-0.8,0-1.4,0.6-1.7,1.3c-0.1,0.2-0.1,0.4-0.1,0.6v4.1h-1.2V507.3z"/>
				<path style="fill:#2A91E9;" d="M185.6,503.8v1.6h1.8v0.9h-1.8v3.7c0,0.8,0.2,1.3,0.9,1.3c0.3,0,0.5,0,0.7-0.1l0.1,0.9
					c-0.2,0.1-0.6,0.2-1.1,0.2c-0.6,0-1-0.2-1.3-0.5c-0.3-0.4-0.5-1-0.5-1.8v-3.7h-1.1v-0.9h1.1v-1.3L185.6,503.8z"/>
				<path style="fill:#2A91E9;" d="M191.8,512.3v-5.9h-0.9v-0.9h0.9v-0.3c0-1,0.2-1.8,0.8-2.4c0.5-0.5,1.1-0.6,1.7-0.6
					c0.5,0,0.8,0.1,1.1,0.2l-0.2,1c-0.2-0.1-0.4-0.2-0.8-0.2c-1.1,0-1.3,0.9-1.3,2v0.4h1.6v0.9h-1.6v5.9H191.8z"/>
				<path style="fill:#2A91E9;" d="M201.8,508.8c0,2.5-1.8,3.6-3.4,3.6c-1.8,0-3.3-1.4-3.3-3.5c0-2.3,1.5-3.6,3.4-3.6
					C200.5,505.3,201.8,506.7,201.8,508.8z M196.4,508.9c0,1.5,0.8,2.6,2.1,2.6c1.2,0,2.1-1.1,2.1-2.6c0-1.2-0.6-2.6-2-2.6
					C197,506.2,196.4,507.6,196.4,508.9z"/>
				<path style="fill:#2A91E9;" d="M203.4,507.6c0-0.8,0-1.5-0.1-2.1h1.1l0.1,1.4h0c0.3-0.9,1.1-1.5,1.9-1.5c0.1,0,0.2,0,0.3,0v1.2
					c-0.1,0-0.3,0-0.4,0c-0.9,0-1.5,0.6-1.7,1.6c0,0.2,0,0.4,0,0.6v3.6h-1.2V507.6z"/>
				<path style="fill:#2A91E9;" d="M212.2,502.8v4h4.6v-4h1.2v9.5h-1.2v-4.4h-4.6v4.4H211v-9.5H212.2z"/>
				<path style="fill:#2A91E9;" d="M226.8,512c-0.4,0.2-1.4,0.5-2.5,0.5c-2.7,0-4.7-1.7-4.7-4.8c0-3,2-5,5-5c1.2,0,1.9,0.3,2.3,0.4
					l-0.3,1c-0.5-0.2-1.1-0.4-1.9-0.4c-2.2,0-3.7,1.4-3.7,3.9c0,2.3,1.3,3.8,3.6,3.8c0.8,0,1.5-0.2,2-0.4L226.8,512z"/>
				<path style="fill:#2A91E9;" d="M228.3,502.9c0.7-0.1,1.6-0.2,2.6-0.2c1.8,0,3,0.4,3.8,1.2c0.9,0.8,1.4,1.9,1.4,3.4
					c0,1.5-0.5,2.8-1.4,3.7c-0.9,0.9-2.4,1.4-4.2,1.4c-0.9,0-1.6,0-2.2-0.1V502.9z M229.5,511.3c0.3,0,0.8,0.1,1.2,0.1
					c2.6,0,4-1.5,4-4c0-2.2-1.3-3.7-3.8-3.7c-0.6,0-1.1,0.1-1.4,0.1V511.3z"/>
			</g>
			<g>
				<g>
					<path style="fill:#3E487A;" d="M187,346.6c0.6-0.1,1.8-0.2,2.9-0.2c1.4,0,2.4,0.2,3.1,0.7c0.7,0.4,1.1,1.1,1.1,2
						c0,1-0.6,1.9-1.8,2.3v0c1.1,0.3,2.2,1.2,2.2,2.7c0,1-0.4,1.7-1,2.2c-0.8,0.7-2,1-4,1c-1.1,0-1.9-0.1-2.4-0.1V346.6z M189,350.9
						h1c1.4,0,2.1-0.6,2.1-1.6c0-1-0.8-1.5-2-1.5c-0.6,0-0.9,0-1.1,0.1V350.9z M189,355.8c0.3,0,0.6,0,1,0c1.3,0,2.4-0.5,2.4-1.8
						c0-1.3-1.1-1.8-2.5-1.8h-1V355.8z"/>
					<path style="fill:#3E487A;" d="M198.4,354.2l-0.9,3.1h-2l3.5-10.8h2.5l3.5,10.8h-2.1l-1-3.1H198.4z M201.5,352.7l-0.8-2.7
						c-0.2-0.7-0.4-1.4-0.5-2h0c-0.2,0.6-0.3,1.4-0.5,2l-0.8,2.7H201.5z"/>
					<path style="fill:#3E487A;" d="M213.8,356.9c-0.5,0.2-1.5,0.5-2.8,0.5c-3.4,0-5.5-2.1-5.5-5.4c0-3.6,2.5-5.7,5.8-5.7
						c1.3,0,2.2,0.3,2.6,0.5l-0.4,1.6c-0.5-0.2-1.2-0.4-2.1-0.4c-2.2,0-3.8,1.4-3.8,4c0,2.4,1.4,3.9,3.8,3.9c0.8,0,1.6-0.2,2.1-0.4
						L213.8,356.9z"/>
					<path style="fill:#3E487A;" d="M215.5,346.4h2v5h0c0.3-0.4,0.5-0.8,0.8-1.2l2.8-3.8h2.4l-3.7,4.6l4,6.2h-2.3l-3-4.9l-1,1.2v3.8
						h-2V346.4z"/>
					<path style="fill:#3E487A;" d="M230.8,352.5h-4.1v3.2h4.5v1.6h-6.5v-10.8h6.3v1.6h-4.3v2.8h4.1V352.5z"/>
					<path style="fill:#3E487A;" d="M233,357.2v-10.8h2.3l2.8,4.6c0.7,1.2,1.3,2.4,1.8,3.6h0c-0.1-1.4-0.2-2.8-0.2-4.5v-3.8h1.8
						v10.8h-2l-2.8-4.8c-0.7-1.2-1.4-2.5-1.9-3.7l-0.1,0c0.1,1.4,0.1,2.8,0.1,4.6v3.9H233z"/>
					<path style="fill:#3E487A;" d="M243.8,346.6c0.9-0.1,2-0.2,3.1-0.2c2,0,3.4,0.4,4.4,1.2c1.1,0.8,1.7,2.1,1.7,4
						c0,1.9-0.7,3.4-1.7,4.3c-1.1,1-2.8,1.5-4.9,1.5c-1.1,0-2-0.1-2.7-0.1V346.6z M245.8,355.7c0.3,0,0.7,0,1.1,0
						c2.6,0,4.1-1.4,4.1-4.1c0-2.4-1.4-3.7-3.8-3.7c-0.6,0-1.1,0-1.3,0.1V355.7z"/>
				</g>
				<g>
					<path style="fill:#3E487A;" d="M51.2,346.4v6.3c0,2.1,0.9,3.1,2.2,3.1c1.4,0,2.3-1,2.3-3.1v-6.3h2v6.2c0,3.3-1.7,4.8-4.3,4.8
						c-2.5,0-4.1-1.4-4.1-4.8v-6.2H51.2z"/>
					<path style="fill:#3E487A;" d="M61.9,346.4v10.8h-2v-10.8H61.9z"/>
					<path style="fill:#3E487A;" d="M66.5,357.9l3.9-11.6h1.4l-3.9,11.6H66.5z"/>
					<path style="fill:#3E487A;" d="M78.1,346.4v6.3c0,2.1,0.9,3.1,2.2,3.1c1.4,0,2.3-1,2.3-3.1v-6.3h2v6.2c0,3.3-1.7,4.8-4.3,4.8
						c-2.5,0-4.1-1.4-4.1-4.8v-6.2H78.1z"/>
					<path style="fill:#3E487A;" d="M92.6,357.2l-1.2-2.1c-0.5-0.8-0.8-1.4-1.1-2h0c-0.3,0.6-0.5,1.2-1,2l-1.1,2.1H86l3.2-5.5
						l-3.1-5.3h2.3l1.2,2.2c0.4,0.7,0.6,1.2,0.9,1.8h0c0.3-0.7,0.5-1.2,0.8-1.8l1.2-2.2h2.3l-3.2,5.3l3.3,5.5H92.6z"/>
				</g>
				<g>
					<g>
						<path style="fill:#2A91E9;" d="M87.7,486.7h-2.9c-0.4,0-0.8-0.3-0.8-0.8s0.3-0.8,0.8-0.8h2.9c0.4,0,0.8,0.3,0.8,0.8
							S88.1,486.7,87.7,486.7z M79.8,486.7h-2.9c-0.4,0-0.8-0.3-0.8-0.8s0.3-0.8,0.8-0.8h2.9c0.4,0,0.8,0.3,0.8,0.8
							S80.2,486.7,79.8,486.7z M72,486.7H69c-0.4,0-0.8-0.3-0.8-0.8s0.3-0.8,0.8-0.8H72c0.4,0,0.8,0.3,0.8,0.8S72.4,486.7,72,486.7z
							 M64.1,486.7h-2.9c-0.4,0-0.8-0.3-0.8-0.8s0.3-0.8,0.8-0.8h2.9c0.4,0,0.8,0.3,0.8,0.8S64.6,486.7,64.1,486.7z M56.3,486.7
							h-2.9c-0.4,0-0.8-0.3-0.8-0.8s0.3-0.8,0.8-0.8h2.9c0.4,0,0.8,0.3,0.8,0.8S56.7,486.7,56.3,486.7z M92.6,486.7
							c-0.4,0-0.7-0.3-0.7-0.7c0-0.4,0.3-0.8,0.7-0.8c0.9,0,1.8-0.2,2.7-0.4c0.4-0.1,0.8,0.1,0.9,0.5c0.1,0.4-0.1,0.8-0.5,0.9
							C94.7,486.5,93.7,486.7,92.6,486.7C92.6,486.7,92.6,486.7,92.6,486.7z M48.5,485.9c-0.1,0-0.2,0-0.3-0.1
							c-1-0.4-1.9-0.9-2.8-1.5c-0.3-0.2-0.4-0.7-0.2-1c0.2-0.3,0.7-0.4,1-0.2c0.8,0.5,1.6,1,2.4,1.3c0.4,0.1,0.6,0.6,0.4,1
							C49.1,485.8,48.8,485.9,48.5,485.9z M99.8,484c-0.2,0-0.4-0.1-0.6-0.3c-0.3-0.3-0.2-0.8,0.1-1.1c0.3-0.3,0.6-0.5,0.9-0.8
							l1.2-1.2c0.3-0.3,0.8-0.3,1.1,0c0.3,0.3,0.3,0.8,0,1.1l-1.2,1.2c-0.3,0.3-0.7,0.6-1,0.9C100.1,483.9,100,484,99.8,484z
							 M42.4,481.2c-0.2,0-0.4-0.1-0.5-0.2l-2.1-2.1c-0.3-0.3-0.3-0.8,0-1.1c0.3-0.3,0.8-0.3,1.1,0l2.1,2.1c0.3,0.3,0.3,0.8,0,1.1
							C42.7,481.2,42.5,481.2,42.4,481.2z M105.4,478.5c-0.2,0-0.4-0.1-0.5-0.2c-0.3-0.3-0.3-0.8,0-1.1l2.1-2.1
							c0.3-0.3,0.8-0.3,1.1,0c0.3,0.3,0.3,0.8,0,1.1l-2.1,2.1C105.8,478.4,105.6,478.5,105.4,478.5z M36.8,475.7
							c-0.2,0-0.4-0.1-0.5-0.2l-2.1-2.1c-0.3-0.3-0.3-0.8,0-1.1c0.3-0.3,0.8-0.3,1.1,0l2.1,2.1c0.3,0.3,0.3,0.8,0,1.1
							C37.2,475.6,37,475.7,36.8,475.7z M110.9,472.9c-0.2,0-0.4-0.1-0.5-0.2c-0.3-0.3-0.3-0.8,0-1.1l2.1-2.1c0.3-0.3,0.8-0.3,1.1,0
							c0.3,0.3,0.3,0.8,0,1.1l-2.1,2.1C111.3,472.8,111.1,472.9,110.9,472.9z M31.3,470.1c-0.2,0-0.4-0.1-0.5-0.2l-2.1-2.1
							c-0.3-0.3-0.3-0.8,0-1.1c0.3-0.3,0.8-0.3,1.1,0l2.1,2.1c0.3,0.3,0.3,0.8,0,1.1C31.7,470,31.5,470.1,31.3,470.1z M116.4,467.3
							c-0.2,0-0.4-0.1-0.5-0.2c-0.3-0.3-0.3-0.8,0-1.1l2.1-2.1c0.3-0.3,0.8-0.3,1.1,0c0.3,0.3,0.3,0.8,0,1.1l-2.1,2.1
							C116.8,467.3,116.6,467.3,116.4,467.3z M25.8,464.5c-0.2,0-0.4-0.1-0.5-0.2l-2.1-2.1c-0.3-0.3-0.3-0.8,0-1.1
							c0.3-0.3,0.8-0.3,1.1,0l2.1,2.1c0.3,0.3,0.3,0.8,0,1.1C26.1,464.4,26,464.5,25.8,464.5z M122,461.8c-0.2,0-0.4-0.1-0.5-0.2
							c-0.3-0.3-0.3-0.8,0-1.1l2.1-2.1c0.3-0.3,0.8-0.3,1.1,0c0.3,0.3,0.3,0.8,0,1.1l-2.1,2.1C122.4,461.7,122.2,461.8,122,461.8z
							 M20.2,459c-0.2,0-0.4-0.1-0.5-0.2l-2.1-2.1c-0.3-0.3-0.3-0.8,0-1.1c0.3-0.3,0.8-0.3,1.1,0l2.1,2.1c0.3,0.3,0.3,0.8,0,1.1
							C20.6,458.9,20.4,459,20.2,459z M127.5,456.2c-0.2,0-0.4-0.1-0.5-0.2c-0.3-0.3-0.3-0.8,0-1.1l0.9-0.9c0.4-0.4,0.7-0.7,1-1.1
							c0.3-0.3,0.7-0.4,1.1-0.1c0.3,0.3,0.4,0.7,0.1,1.1c-0.3,0.5-0.7,0.9-1.1,1.3L128,456C127.9,456.1,127.7,456.2,127.5,456.2z
							 M14.9,453.2c-0.2,0-0.5-0.1-0.6-0.3c-0.6-0.9-1-1.8-1.3-2.8c-0.1-0.4,0.1-0.8,0.5-1c0.4-0.1,0.8,0.1,1,0.5
							c0.3,0.9,0.7,1.7,1.2,2.5c0.2,0.3,0.1,0.8-0.2,1C15.2,453.2,15.1,453.2,14.9,453.2z M131.6,449.7c-0.1,0-0.1,0-0.2,0
							c-0.4-0.1-0.6-0.5-0.5-0.9c0.2-0.9,0.4-1.8,0.4-2.7c0-0.4,0.4-0.7,0.8-0.7c0.4,0,0.7,0.3,0.7,0.8c0,1-0.2,2.1-0.4,3.1
							C132.3,449.4,132,449.7,131.6,449.7z M13,445.7c-0.4,0-0.8-0.3-0.8-0.8V442c0-0.4,0.3-0.8,0.8-0.8c0.4,0,0.8,0.3,0.8,0.8v2.9
							C13.7,445.4,13.4,445.7,13,445.7z M132,441.8c-0.4,0-0.8-0.3-0.8-0.8v-2.9c0-0.4,0.3-0.8,0.8-0.8c0.4,0,0.8,0.3,0.8,0.8v2.9
							C132.8,441.5,132.4,441.8,132,441.8z M13,437.9c-0.4,0-0.8-0.3-0.8-0.8v-2.9c0-0.4,0.3-0.8,0.8-0.8c0.4,0,0.8,0.3,0.8,0.8v2.9
							C13.7,437.5,13.4,437.9,13,437.9z M132,434c-0.4,0-0.8-0.3-0.8-0.8v-2.9c0-0.4,0.3-0.8,0.8-0.8c0.4,0,0.8,0.3,0.8,0.8v2.9
							C132.8,433.7,132.4,434,132,434z M13,430c-0.4,0-0.8-0.3-0.8-0.8v-2.9c0-0.4,0.3-0.8,0.8-0.8c0.4,0,0.8,0.3,0.8,0.8v2.9
							C13.7,429.7,13.4,430,13,430z M132,426.1c-0.4,0-0.8-0.3-0.8-0.8v-2.9c0-0.4,0.3-0.8,0.8-0.8c0.4,0,0.8,0.3,0.8,0.8v2.9
							C132.8,425.8,132.4,426.1,132,426.1z M13,422.2c-0.4,0-0.8-0.3-0.8-0.8v-2.9c0-0.4,0.3-0.8,0.8-0.8c0.4,0,0.8,0.3,0.8,0.8v2.9
							C13.7,421.8,13.4,422.2,13,422.2z M132,418.3c-0.4,0-0.8-0.3-0.8-0.8v-2.9c0-0.4,0.3-0.8,0.8-0.8c0.4,0,0.8,0.3,0.8,0.8v2.9
							C132.8,418,132.4,418.3,132,418.3z M13,414.3c-0.4,0-0.8-0.3-0.8-0.8v-2.9c0-0.4,0.3-0.8,0.8-0.8c0.4,0,0.8,0.3,0.8,0.8v2.9
							C13.7,414,13.4,414.3,13,414.3z M132,410.5c-0.4,0-0.8-0.3-0.8-0.8v-2.9c0-0.4,0.3-0.8,0.8-0.8c0.4,0,0.8,0.3,0.8,0.8v2.9
							C132.8,410.1,132.4,410.5,132,410.5z M13,406.5C13,406.5,13,406.5,13,406.5c-0.5,0-0.8-0.4-0.7-0.8c0.1-1,0.2-2.1,0.5-3.1
							c0.1-0.4,0.5-0.6,0.9-0.5c0.4,0.1,0.6,0.5,0.5,0.9c-0.3,0.9-0.4,1.8-0.5,2.7C13.7,406.2,13.4,406.5,13,406.5z M131.2,402.7
							c-0.3,0-0.6-0.2-0.7-0.5c-0.3-0.9-0.8-1.7-1.3-2.4c-0.2-0.3-0.1-0.8,0.2-1c0.3-0.2,0.8-0.1,1,0.2c0.6,0.9,1.1,1.8,1.4,2.8
							c0.1,0.4,0,0.8-0.4,1C131.4,402.7,131.3,402.7,131.2,402.7z M15.8,399.3c-0.2,0-0.3-0.1-0.5-0.2c-0.3-0.3-0.4-0.7-0.1-1.1
							c0.3-0.3,0.5-0.6,0.8-0.9l1.2-1.2c0.3-0.3,0.8-0.3,1.1,0c0.3,0.3,0.3,0.8,0,1.1l-1.2,1.2c-0.3,0.3-0.5,0.5-0.8,0.8
							C16.2,399.2,16,399.3,15.8,399.3z M126.6,396.5c-0.2,0-0.4-0.1-0.5-0.2l-2.1-2.1c-0.3-0.3-0.3-0.8,0-1.1
							c0.3-0.3,0.8-0.3,1.1,0l2.1,2.1c0.3,0.3,0.3,0.8,0,1.1C126.9,396.4,126.8,396.5,126.6,396.5z M21.3,393.7
							c-0.2,0-0.4-0.1-0.5-0.2c-0.3-0.3-0.3-0.8,0-1.1l2.1-2.1c0.3-0.3,0.8-0.3,1.1,0c0.3,0.3,0.3,0.8,0,1.1l-2.1,2.1
							C21.6,393.6,21.4,393.7,21.3,393.7z M121,390.9c-0.2,0-0.4-0.1-0.5-0.2l-2.1-2.1c-0.3-0.3-0.3-0.8,0-1.1
							c0.3-0.3,0.8-0.3,1.1,0l2.1,2.1c0.3,0.3,0.3,0.8,0,1.1C121.4,390.8,121.2,390.9,121,390.9z M26.8,388.1
							c-0.2,0-0.4-0.1-0.5-0.2c-0.3-0.3-0.3-0.8,0-1.1l2.1-2.1c0.3-0.3,0.8-0.3,1.1,0c0.3,0.3,0.3,0.8,0,1.1l-2.1,2.1
							C27.2,388,27,388.1,26.8,388.1z M115.5,385.3c-0.2,0-0.4-0.1-0.5-0.2l-2.1-2.1c-0.3-0.3-0.3-0.8,0-1.1c0.3-0.3,0.8-0.3,1.1,0
							l2.1,2.1c0.3,0.3,0.3,0.8,0,1.1C115.9,385.3,115.7,385.3,115.5,385.3z M32.3,382.5c-0.2,0-0.4-0.1-0.5-0.2
							c-0.3-0.3-0.3-0.8,0-1.1l2.1-2.1c0.3-0.3,0.8-0.3,1.1,0c0.3,0.3,0.3,0.8,0,1.1l-2.1,2.1C32.7,382.4,32.5,382.5,32.3,382.5z
							 M110,379.8c-0.2,0-0.4-0.1-0.5-0.2l-2.1-2.1c-0.3-0.3-0.3-0.8,0-1.1c0.3-0.3,0.8-0.3,1.1,0l2.1,2.1c0.3,0.3,0.3,0.8,0,1.1
							C110.3,379.7,110.2,379.8,110,379.8z M37.8,376.9c-0.2,0-0.4-0.1-0.5-0.2c-0.3-0.3-0.3-0.8,0-1.1l2.1-2.1
							c0.3-0.3,0.8-0.3,1.1,0c0.3,0.3,0.3,0.8,0,1.1l-2.1,2.1C38.2,376.9,38,376.9,37.8,376.9z M104.4,374.2c-0.2,0-0.4-0.1-0.5-0.2
							l-2.1-2.1c-0.3-0.3-0.3-0.8,0-1.1c0.3-0.3,0.8-0.3,1.1,0l2.1,2.1c0.3,0.3,0.3,0.8,0,1.1C104.8,374.1,104.6,374.2,104.4,374.2z
							 M43.4,371.4c-0.2,0-0.4-0.1-0.5-0.2c-0.3-0.3-0.3-0.8,0-1.1l0.9-0.9c0.4-0.4,0.9-0.8,1.4-1.2c0.3-0.3,0.8-0.2,1.1,0.1
							c0.3,0.3,0.2,0.8-0.1,1.1c-0.4,0.3-0.8,0.7-1.2,1l-0.9,0.9C43.8,371.3,43.6,371.4,43.4,371.4z M98.7,368.9
							c-0.1,0-0.3,0-0.4-0.1c-0.8-0.5-1.6-0.9-2.5-1.2c-0.4-0.1-0.6-0.6-0.5-1c0.1-0.4,0.6-0.6,1-0.5c1,0.3,1.9,0.8,2.8,1.4
							c0.3,0.2,0.4,0.7,0.2,1C99.2,368.7,99,368.9,98.7,368.9z M49.9,367.3c-0.3,0-0.6-0.2-0.7-0.6c-0.1-0.4,0.1-0.8,0.5-0.9
							c1-0.3,2.1-0.4,3.1-0.4c0,0,0,0,0,0c0.4,0,0.7,0.3,0.8,0.7c0,0.4-0.3,0.8-0.7,0.8c-0.9,0-1.8,0.1-2.7,0.4
							C50,367.3,50,367.3,49.9,367.3z M92.1,366.9h-2.9c-0.4,0-0.8-0.3-0.8-0.8s0.3-0.8,0.8-0.8h2.9c0.4,0,0.8,0.3,0.8,0.8
							S92.5,366.9,92.1,366.9z M84.2,366.9h-2.9c-0.4,0-0.8-0.3-0.8-0.8s0.3-0.8,0.8-0.8h2.9c0.4,0,0.8,0.3,0.8,0.8
							S84.6,366.9,84.2,366.9z M76.4,366.9h-2.9c-0.4,0-0.8-0.3-0.8-0.8s0.3-0.8,0.8-0.8h2.9c0.4,0,0.8,0.3,0.8,0.8
							S76.8,366.9,76.4,366.9z M68.5,366.9h-2.9c-0.4,0-0.8-0.3-0.8-0.8s0.3-0.8,0.8-0.8h2.9c0.4,0,0.8,0.3,0.8,0.8
							S68.9,366.9,68.5,366.9z M60.7,366.9h-2.9c-0.4,0-0.8-0.3-0.8-0.8s0.3-0.8,0.8-0.8h2.9c0.4,0,0.8,0.3,0.8,0.8
							S61.1,366.9,60.7,366.9z"/>
					</g>
				</g>
				<g>
					<g>
						<path style="fill:#5059C9;" d="M234.5,486.7h-2.9c-0.4,0-0.8-0.3-0.8-0.8s0.3-0.8,0.8-0.8h2.9c0.4,0,0.8,0.3,0.8,0.8
							S234.9,486.7,234.5,486.7z M226.7,486.7h-2.9c-0.4,0-0.8-0.3-0.8-0.8s0.3-0.8,0.8-0.8h2.9c0.4,0,0.8,0.3,0.8,0.8
							S227.1,486.7,226.7,486.7z M218.8,486.7h-2.9c-0.4,0-0.8-0.3-0.8-0.8s0.3-0.8,0.8-0.8h2.9c0.4,0,0.8,0.3,0.8,0.8
							S219.2,486.7,218.8,486.7z M211,486.7H208c-0.4,0-0.8-0.3-0.8-0.8s0.3-0.8,0.8-0.8h2.9c0.4,0,0.8,0.3,0.8,0.8
							S211.4,486.7,211,486.7z M203.1,486.7h-2.9c-0.4,0-0.8-0.3-0.8-0.8s0.3-0.8,0.8-0.8h2.9c0.4,0,0.8,0.3,0.8,0.8
							S203.5,486.7,203.1,486.7z M239.4,486.7c-0.4,0-0.7-0.3-0.7-0.7c0-0.4,0.3-0.8,0.7-0.8c0.9,0,1.8-0.2,2.7-0.4
							c0.4-0.1,0.8,0.1,0.9,0.5c0.1,0.4-0.1,0.8-0.5,0.9C241.5,486.5,240.5,486.7,239.4,486.7C239.4,486.7,239.4,486.7,239.4,486.7z
							 M195.4,485.9c-0.1,0-0.2,0-0.3-0.1c-1-0.4-1.9-0.9-2.8-1.5c-0.3-0.2-0.4-0.7-0.2-1c0.2-0.3,0.7-0.4,1-0.2
							c0.8,0.5,1.6,1,2.4,1.3c0.4,0.1,0.6,0.6,0.4,1C196,485.8,195.7,485.9,195.4,485.9z M246.6,484c-0.2,0-0.4-0.1-0.6-0.3
							c-0.3-0.3-0.2-0.8,0.1-1.1c0.3-0.3,0.6-0.5,0.9-0.8l1.2-1.2c0.3-0.3,0.8-0.3,1.1,0c0.3,0.3,0.3,0.8,0,1.1l-1.2,1.2
							c-0.3,0.3-0.7,0.6-1,0.9C247,483.9,246.8,484,246.6,484z M189.2,481.2c-0.2,0-0.4-0.1-0.5-0.2l-2.1-2.1
							c-0.3-0.3-0.3-0.8,0-1.1c0.3-0.3,0.8-0.3,1.1,0l2.1,2.1c0.3,0.3,0.3,0.8,0,1.1C189.6,481.2,189.4,481.2,189.2,481.2z
							 M252.2,478.5c-0.2,0-0.4-0.1-0.5-0.2c-0.3-0.3-0.3-0.8,0-1.1l2.1-2.1c0.3-0.3,0.8-0.3,1.1,0c0.3,0.3,0.3,0.8,0,1.1l-2.1,2.1
							C252.6,478.4,252.4,478.5,252.2,478.5z M183.7,475.7c-0.2,0-0.4-0.1-0.5-0.2l-2.1-2.1c-0.3-0.3-0.3-0.8,0-1.1
							c0.3-0.3,0.8-0.3,1.1,0l2.1,2.1c0.3,0.3,0.3,0.8,0,1.1C184,475.6,183.8,475.7,183.7,475.7z M257.7,472.9
							c-0.2,0-0.4-0.1-0.5-0.2c-0.3-0.3-0.3-0.8,0-1.1l2.1-2.1c0.3-0.3,0.8-0.3,1.1,0c0.3,0.3,0.3,0.8,0,1.1l-2.1,2.1
							C258.1,472.8,257.9,472.9,257.7,472.9z M178.1,470.1c-0.2,0-0.4-0.1-0.5-0.2l-2.1-2.1c-0.3-0.3-0.3-0.8,0-1.1
							c0.3-0.3,0.8-0.3,1.1,0l2.1,2.1c0.3,0.3,0.3,0.8,0,1.1C178.5,470,178.3,470.1,178.1,470.1z M263.3,467.3
							c-0.2,0-0.4-0.1-0.5-0.2c-0.3-0.3-0.3-0.8,0-1.1l2.1-2.1c0.3-0.3,0.8-0.3,1.1,0c0.3,0.3,0.3,0.8,0,1.1l-2.1,2.1
							C263.7,467.3,263.5,467.3,263.3,467.3z M172.6,464.5c-0.2,0-0.4-0.1-0.5-0.2l-2.1-2.1c-0.3-0.3-0.3-0.8,0-1.1
							c0.3-0.3,0.8-0.3,1.1,0l2.1,2.1c0.3,0.3,0.3,0.8,0,1.1C173,464.4,172.8,464.5,172.6,464.5z M268.8,461.8
							c-0.2,0-0.4-0.1-0.5-0.2c-0.3-0.3-0.3-0.8,0-1.1l2.1-2.1c0.3-0.3,0.8-0.3,1.1,0c0.3,0.3,0.3,0.8,0,1.1l-2.1,2.1
							C269.2,461.7,269,461.8,268.8,461.8z M167.1,459c-0.2,0-0.4-0.1-0.5-0.2l-2.1-2.1c-0.3-0.3-0.3-0.8,0-1.1
							c0.3-0.3,0.8-0.3,1.1,0l2.1,2.1c0.3,0.3,0.3,0.8,0,1.1C167.4,458.9,167.3,459,167.1,459z M274.3,456.2c-0.2,0-0.4-0.1-0.5-0.2
							c-0.3-0.3-0.3-0.8,0-1.1l0.9-0.9c0.4-0.4,0.7-0.7,1-1.1c0.3-0.3,0.7-0.4,1.1-0.1c0.3,0.3,0.4,0.7,0.1,1.1
							c-0.3,0.5-0.7,0.9-1.1,1.3l-0.9,0.9C274.7,456.1,274.5,456.2,274.3,456.2z M161.8,453.2c-0.2,0-0.5-0.1-0.6-0.3
							c-0.6-0.9-1-1.8-1.3-2.8c-0.1-0.4,0.1-0.8,0.5-1c0.4-0.1,0.8,0.1,1,0.5c0.3,0.9,0.7,1.7,1.2,2.5c0.2,0.3,0.1,0.8-0.2,1
							C162,453.2,161.9,453.2,161.8,453.2z M278.5,449.7c-0.1,0-0.1,0-0.2,0c-0.4-0.1-0.6-0.5-0.5-0.9c0.2-0.9,0.4-1.8,0.4-2.7
							c0-0.4,0.4-0.7,0.8-0.7c0.4,0,0.7,0.3,0.7,0.8c0,1-0.2,2.1-0.4,3.1C279.1,449.4,278.8,449.7,278.5,449.7z M159.8,445.7
							c-0.4,0-0.8-0.3-0.8-0.8V442c0-0.4,0.3-0.8,0.8-0.8c0.4,0,0.8,0.3,0.8,0.8v2.9C160.6,445.4,160.2,445.7,159.8,445.7z
							 M278.9,441.8c-0.4,0-0.8-0.3-0.8-0.8v-2.9c0-0.4,0.3-0.8,0.8-0.8c0.4,0,0.8,0.3,0.8,0.8v2.9
							C279.6,441.5,279.3,441.8,278.9,441.8z M159.8,437.9c-0.4,0-0.8-0.3-0.8-0.8v-2.9c0-0.4,0.3-0.8,0.8-0.8
							c0.4,0,0.8,0.3,0.8,0.8v2.9C160.6,437.5,160.2,437.9,159.8,437.9z M278.9,434c-0.4,0-0.8-0.3-0.8-0.8v-2.9
							c0-0.4,0.3-0.8,0.8-0.8c0.4,0,0.8,0.3,0.8,0.8v2.9C279.6,433.7,279.3,434,278.9,434z M159.8,430c-0.4,0-0.8-0.3-0.8-0.8v-2.9
							c0-0.4,0.3-0.8,0.8-0.8c0.4,0,0.8,0.3,0.8,0.8v2.9C160.6,429.7,160.2,430,159.8,430z M278.9,426.1c-0.4,0-0.8-0.3-0.8-0.8
							v-2.9c0-0.4,0.3-0.8,0.8-0.8c0.4,0,0.8,0.3,0.8,0.8v2.9C279.6,425.8,279.3,426.1,278.9,426.1z M159.8,422.2
							c-0.4,0-0.8-0.3-0.8-0.8v-2.9c0-0.4,0.3-0.8,0.8-0.8c0.4,0,0.8,0.3,0.8,0.8v2.9C160.6,421.8,160.2,422.2,159.8,422.2z
							 M278.9,418.3c-0.4,0-0.8-0.3-0.8-0.8v-2.9c0-0.4,0.3-0.8,0.8-0.8c0.4,0,0.8,0.3,0.8,0.8v2.9
							C279.6,418,279.3,418.3,278.9,418.3z M159.8,414.3c-0.4,0-0.8-0.3-0.8-0.8v-2.9c0-0.4,0.3-0.8,0.8-0.8c0.4,0,0.8,0.3,0.8,0.8
							v2.9C160.6,414,160.2,414.3,159.8,414.3z M278.9,410.5c-0.4,0-0.8-0.3-0.8-0.8v-2.9c0-0.4,0.3-0.8,0.8-0.8
							c0.4,0,0.8,0.3,0.8,0.8v2.9C279.6,410.1,279.3,410.5,278.9,410.5z M159.8,406.5C159.8,406.5,159.8,406.5,159.8,406.5
							c-0.5,0-0.8-0.4-0.7-0.8c0.1-1,0.2-2.1,0.5-3.1c0.1-0.4,0.5-0.6,0.9-0.5c0.4,0.1,0.6,0.5,0.5,0.9c-0.3,0.9-0.4,1.8-0.5,2.7
							C160.6,406.2,160.2,406.5,159.8,406.5z M278.1,402.7c-0.3,0-0.6-0.2-0.7-0.5c-0.3-0.9-0.8-1.7-1.3-2.4c-0.2-0.3-0.1-0.8,0.2-1
							c0.3-0.2,0.8-0.1,1,0.2c0.6,0.9,1.1,1.8,1.4,2.8c0.1,0.4,0,0.8-0.4,1C278.2,402.7,278.1,402.7,278.1,402.7z M162.6,399.3
							c-0.2,0-0.3-0.1-0.5-0.2c-0.3-0.3-0.4-0.7-0.1-1.1c0.3-0.3,0.5-0.6,0.8-0.9l1.2-1.2c0.3-0.3,0.8-0.3,1.1,0
							c0.3,0.3,0.3,0.8,0,1.1l-1.2,1.2c-0.3,0.3-0.5,0.5-0.8,0.8C163,399.2,162.8,399.3,162.6,399.3z M273.4,396.5
							c-0.2,0-0.4-0.1-0.5-0.2l-2.1-2.1c-0.3-0.3-0.3-0.8,0-1.1c0.3-0.3,0.8-0.3,1.1,0l2.1,2.1c0.3,0.3,0.3,0.8,0,1.1
							C273.8,396.4,273.6,396.5,273.4,396.5z M168.1,393.7c-0.2,0-0.4-0.1-0.5-0.2c-0.3-0.3-0.3-0.8,0-1.1l2.1-2.1
							c0.3-0.3,0.8-0.3,1.1,0c0.3,0.3,0.3,0.8,0,1.1l-2.1,2.1C168.5,393.6,168.3,393.7,168.1,393.7z M267.9,390.9
							c-0.2,0-0.4-0.1-0.5-0.2l-2.1-2.1c-0.3-0.3-0.3-0.8,0-1.1c0.3-0.3,0.8-0.3,1.1,0l2.1,2.1c0.3,0.3,0.3,0.8,0,1.1
							C268.2,390.8,268.1,390.9,267.9,390.9z M173.6,388.1c-0.2,0-0.4-0.1-0.5-0.2c-0.3-0.3-0.3-0.8,0-1.1l2.1-2.1
							c0.3-0.3,0.8-0.3,1.1,0c0.3,0.3,0.3,0.8,0,1.1l-2.1,2.1C174,388,173.8,388.1,173.6,388.1z M262.3,385.3
							c-0.2,0-0.4-0.1-0.5-0.2l-2.1-2.1c-0.3-0.3-0.3-0.8,0-1.1c0.3-0.3,0.8-0.3,1.1,0l2.1,2.1c0.3,0.3,0.3,0.8,0,1.1
							C262.7,385.3,262.5,385.3,262.3,385.3z M179.1,382.5c-0.2,0-0.4-0.1-0.5-0.2c-0.3-0.3-0.3-0.8,0-1.1l2.1-2.1
							c0.3-0.3,0.8-0.3,1.1,0c0.3,0.3,0.3,0.8,0,1.1l-2.1,2.1C179.5,382.4,179.3,382.5,179.1,382.5z M256.8,379.8
							c-0.2,0-0.4-0.1-0.5-0.2l-2.1-2.1c-0.3-0.3-0.3-0.8,0-1.1c0.3-0.3,0.8-0.3,1.1,0l2.1,2.1c0.3,0.3,0.3,0.8,0,1.1
							C257.2,379.7,257,379.8,256.8,379.8z M184.7,376.9c-0.2,0-0.4-0.1-0.5-0.2c-0.3-0.3-0.3-0.8,0-1.1l2.1-2.1
							c0.3-0.3,0.8-0.3,1.1,0c0.3,0.3,0.3,0.8,0,1.1l-2.1,2.1C185.1,376.9,184.9,376.9,184.7,376.9z M251.3,374.2
							c-0.2,0-0.4-0.1-0.5-0.2l-2.1-2.1c-0.3-0.3-0.3-0.8,0-1.1c0.3-0.3,0.8-0.3,1.1,0l2.1,2.1c0.3,0.3,0.3,0.8,0,1.1
							C251.6,374.1,251.5,374.2,251.3,374.2z M190.2,371.4c-0.2,0-0.4-0.1-0.5-0.2c-0.3-0.3-0.3-0.8,0-1.1l0.9-0.9
							c0.4-0.4,0.9-0.8,1.4-1.2c0.3-0.3,0.8-0.2,1.1,0.1c0.3,0.3,0.2,0.8-0.1,1.1c-0.4,0.3-0.8,0.7-1.2,1l-0.9,0.9
							C190.6,371.3,190.4,371.4,190.2,371.4z M245.5,368.9c-0.1,0-0.3,0-0.4-0.1c-0.8-0.5-1.6-0.9-2.5-1.2c-0.4-0.1-0.6-0.6-0.5-1
							c0.1-0.4,0.6-0.6,1-0.5c1,0.3,1.9,0.8,2.8,1.4c0.3,0.2,0.4,0.7,0.2,1C246,368.7,245.8,368.9,245.5,368.9z M196.8,367.3
							c-0.3,0-0.6-0.2-0.7-0.6c-0.1-0.4,0.1-0.8,0.5-0.9c1-0.3,2-0.4,3.1-0.4c0.4,0,0.8,0.3,0.8,0.7c0,0.4-0.3,0.8-0.7,0.8
							c-0.9,0-1.8,0.1-2.7,0.4C196.9,367.3,196.8,367.3,196.8,367.3z M238.9,366.9H236c-0.4,0-0.8-0.3-0.8-0.8s0.3-0.8,0.8-0.8h2.9
							c0.4,0,0.8,0.3,0.8,0.8S239.3,366.9,238.9,366.9z M231.1,366.9h-2.9c-0.4,0-0.8-0.3-0.8-0.8s0.3-0.8,0.8-0.8h2.9
							c0.4,0,0.8,0.3,0.8,0.8S231.5,366.9,231.1,366.9z M223.2,366.9h-2.9c-0.4,0-0.8-0.3-0.8-0.8s0.3-0.8,0.8-0.8h2.9
							c0.4,0,0.8,0.3,0.8,0.8S223.6,366.9,223.2,366.9z M215.4,366.9h-2.9c-0.4,0-0.8-0.3-0.8-0.8s0.3-0.8,0.8-0.8h2.9
							c0.4,0,0.8,0.3,0.8,0.8S215.8,366.9,215.4,366.9z M207.5,366.9h-2.9c-0.4,0-0.8-0.3-0.8-0.8s0.3-0.8,0.8-0.8h2.9
							c0.4,0,0.8,0.3,0.8,0.8S207.9,366.9,207.5,366.9z"/>
					</g>
				</g>
				<g>
					<g>
						<g>
							<g>
								<g>
									<g>
										<g>
											<g>
												<path style="fill:#FFFFFF;" d="M206.1,466.8c-2.4,0-4.7-0.9-6.4-2.6L181,445.4c-1.7-1.7-2.6-4-2.6-6.4v-26.5
													c0-2.4,0.9-4.7,2.6-6.4l18.7-18.7c1.7-1.7,4-2.6,6.4-2.6h26.5c2.4,0,4.7,1,6.4,2.6l18.7,18.7c1.7,1.7,2.6,4,2.6,6.4V439
													c0,2.4-0.9,4.7-2.6,6.4L239,464.1c-1.7,1.7-4,2.6-6.4,2.6H206.1z"/>
											</g>
											<g>
												<path style="fill:#3E487A;" d="M232.6,385.5c2.2,0,4.3,0.9,5.9,2.4l18.7,18.7c1.6,1.6,2.4,3.7,2.4,5.9V439
													c0,2.2-0.9,4.3-2.4,5.9l-18.7,18.7c-1.6,1.6-3.7,2.4-5.9,2.4h-26.5c-2.2,0-4.3-0.9-5.9-2.4l-18.7-18.7
													c-1.6-1.6-2.4-3.7-2.4-5.9v-26.5c0-2.2,0.9-4.3,2.4-5.9l18.7-18.7c1.6-1.6,3.7-2.4,5.9-2.4H232.6 M232.6,384h-26.5
													c-2.6,0-5.1,1-6.9,2.9l-18.7,18.7c-1.8,1.9-2.9,4.3-2.9,6.9V439c0,2.6,1,5.1,2.9,6.9l18.7,18.7c1.8,1.8,4.3,2.9,6.9,2.9
													h26.5c2.6,0,5.1-1,6.9-2.9l18.7-18.7c1.8-1.8,2.9-4.3,2.9-6.9v-26.5c0-2.6-1-5.1-2.9-6.9l-18.7-18.7
													C237.7,385,235.2,384,232.6,384L232.6,384z"/>
											</g>
										</g>
									</g>
								</g>
							</g>
						</g>
					</g>
					<g>
						<g>
							<line style="fill:#FFFFFF;" x1="219.5" y1="408.6" x2="219.5" y2="448"/>
							<path style="fill:#3E487A;" d="M219.5,448.8c-0.4,0-0.8-0.3-0.8-0.8v-39.4c0-0.4,0.3-0.8,0.8-0.8c0.4,0,0.8,0.3,0.8,0.8V448
								C220.2,448.5,219.9,448.8,219.5,448.8z"/>
						</g>
						<g>
							<g>
								<path style="fill:#FFFFFF;" d="M236.8,428.8h-34c-0.3,0-0.5-0.2-0.5-0.5v-9.8c0-0.3,0.2-0.5,0.5-0.5h34
									c0.3,0,0.5,0.2,0.5,0.5v9.8C237.2,428.5,237,428.8,236.8,428.8z"/>
								<path style="fill:#3E487A;" d="M236.8,429.5h-34c-0.7,0-1.2-0.5-1.2-1.2v-9.8c0-0.7,0.5-1.2,1.2-1.2h34
									c0.7,0,1.2,0.5,1.2,1.2v9.8C238,429,237.5,429.5,236.8,429.5z M203.1,428h33.4v-9.3h-33.4V428z"/>
							</g>
							<g>
								<path style="fill:#E7EAF9;" d="M209.2,423.4c0,0.7-0.6,1.3-1.3,1.3c-0.7,0-1.3-0.6-1.3-1.3c0-0.7,0.6-1.3,1.3-1.3
									C208.6,422.1,209.2,422.7,209.2,423.4z"/>
								<path style="fill:#3E487A;" d="M207.9,425.4c-1.1,0-2-0.9-2-2c0-1.1,0.9-2,2-2c1.1,0,2,0.9,2,2
									C209.9,424.5,209,425.4,207.9,425.4z M207.9,422.9c-0.3,0-0.5,0.2-0.5,0.5c0,0.3,0.2,0.5,0.5,0.5s0.5-0.2,0.5-0.5
									C208.4,423.1,208.2,422.9,207.9,422.9z"/>
							</g>
							<g>
								<line style="fill:#FFFFFF;" x1="214.2" y1="423" x2="233.5" y2="423"/>
								<path style="fill:#3E487A;" d="M233.5,423.8h-19.3c-0.4,0-0.8-0.3-0.8-0.8s0.3-0.8,0.8-0.8h19.3c0.4,0,0.8,0.3,0.8,0.8
									S233.9,423.8,233.5,423.8z"/>
							</g>
						</g>
						<g>
							<g>
								<path style="fill:#FFFFFF;" d="M236.8,414h-34c-0.3,0-0.5-0.2-0.5-0.5v-9.8c0-0.3,0.2-0.5,0.5-0.5h34c0.3,0,0.5,0.2,0.5,0.5
									v9.8C237.2,413.8,237,414,236.8,414z"/>
								<path style="fill:#3E487A;" d="M236.8,414.7h-34c-0.7,0-1.2-0.5-1.2-1.2v-9.8c0-0.7,0.5-1.2,1.2-1.2h34
									c0.7,0,1.2,0.5,1.2,1.2v9.8C238,414.2,237.5,414.7,236.8,414.7z M203.1,413.2h33.4V404h-33.4V413.2z"/>
							</g>
							<g>
								<path style="fill:#E7EAF9;" d="M209.2,408.6c0,0.7-0.6,1.3-1.3,1.3c-0.7,0-1.3-0.6-1.3-1.3c0-0.7,0.6-1.3,1.3-1.3
									C208.6,407.3,209.2,407.9,209.2,408.6z"/>
								<path style="fill:#3E487A;" d="M207.9,410.6c-1.1,0-2-0.9-2-2c0-1.1,0.9-2,2-2c1.1,0,2,0.9,2,2
									C209.9,409.7,209,410.6,207.9,410.6z M207.9,408.1c-0.3,0-0.5,0.2-0.5,0.5c0,0.3,0.2,0.5,0.5,0.5s0.5-0.2,0.5-0.5
									C208.4,408.3,208.2,408.1,207.9,408.1z"/>
							</g>
							<g>
								<line style="fill:#FFFFFF;" x1="214.2" y1="408.3" x2="233.5" y2="408.3"/>
								<path style="fill:#3E487A;" d="M233.5,409h-19.3c-0.4,0-0.8-0.3-0.8-0.8c0-0.4,0.3-0.8,0.8-0.8h19.3c0.4,0,0.8,0.3,0.8,0.8
									C234.3,408.7,233.9,409,233.5,409z"/>
							</g>
						</g>
						<g>
							<g>
								<path style="fill:#FFFFFF;" d="M236.8,443.5h-34c-0.3,0-0.5-0.2-0.5-0.5v-9.8c0-0.3,0.2-0.5,0.5-0.5h34
									c0.3,0,0.5,0.2,0.5,0.5v9.8C237.2,443.3,237,443.5,236.8,443.5z"/>
								<path style="fill:#3E487A;" d="M236.8,444.3h-34c-0.7,0-1.2-0.5-1.2-1.2v-9.8c0-0.7,0.5-1.2,1.2-1.2h34
									c0.7,0,1.2,0.5,1.2,1.2v9.8C238,443.7,237.5,444.3,236.8,444.3z M203.1,442.8h33.4v-9.3h-33.4V442.8z"/>
							</g>
							<g>
								<path style="fill:#E7EAF9;" d="M209.2,438.1c0,0.7-0.6,1.3-1.3,1.3c-0.7,0-1.3-0.6-1.3-1.3s0.6-1.3,1.3-1.3
									C208.6,436.9,209.2,437.5,209.2,438.1z"/>
								<path style="fill:#3E487A;" d="M207.9,440.2c-1.1,0-2-0.9-2-2c0-1.1,0.9-2,2-2c1.1,0,2,0.9,2,2
									C209.9,439.3,209,440.2,207.9,440.2z M207.9,437.6c-0.3,0-0.5,0.2-0.5,0.5c0,0.3,0.2,0.5,0.5,0.5s0.5-0.2,0.5-0.5
									C208.4,437.9,208.2,437.6,207.9,437.6z"/>
							</g>
							<g>
								<line style="fill:#FFFFFF;" x1="214.2" y1="437.8" x2="233.5" y2="437.8"/>
								<path style="fill:#3E487A;" d="M233.5,438.6h-19.3c-0.4,0-0.8-0.3-0.8-0.8c0-0.4,0.3-0.8,0.8-0.8h19.3
									c0.4,0,0.8,0.3,0.8,0.8C234.3,438.2,233.9,438.6,233.5,438.6z"/>
							</g>
						</g>
						<g>
							<line style="fill:#FFFFFF;" x1="202.6" y1="449.5" x2="236.9" y2="449.5"/>
							<path style="fill:#3E487A;" d="M236.9,450.2h-34.3c-0.4,0-0.8-0.3-0.8-0.8c0-0.4,0.3-0.8,0.8-0.8h34.3c0.4,0,0.8,0.3,0.8,0.8
								C237.7,449.9,237.4,450.2,236.9,450.2z"/>
						</g>
						<g>
							<path style="fill:#FFFFFF;" d="M221.7,449.4c0,1.2-1,2.1-2.1,2.1c-1.2,0-2.1-1-2.1-2.1c0-1.2,1-2.1,2.1-2.1
								C220.7,447.2,221.7,448.2,221.7,449.4z"/>
							<path style="fill:#3E487A;" d="M219.6,452.2c-1.6,0-2.9-1.3-2.9-2.9c0-1.6,1.3-2.9,2.9-2.9c1.6,0,2.9,1.3,2.9,2.9
								C222.4,450.9,221.1,452.2,219.6,452.2z M219.6,448c-0.8,0-1.4,0.6-1.4,1.4c0,0.8,0.6,1.4,1.4,1.4c0.8,0,1.4-0.6,1.4-1.4
								C220.9,448.6,220.3,448,219.6,448z"/>
						</g>
					</g>
				</g>
				<g>
					<g>
						<g>
							<g>
								<g>
									<g>
										<g>
											<g>
												<path style="fill:#FFFFFF;" d="M59.4,466.1c-2.4,0-4.6-0.9-6.3-2.6l-18.5-18.4c-1.7-1.7-2.6-3.9-2.6-6.3v-26.1
													c0-2.4,0.9-4.6,2.6-6.3L53.1,388c1.7-1.7,3.9-2.6,6.3-2.6h26.1c2.4,0,4.7,0.9,6.3,2.6l18.5,18.4
													c1.7,1.7,2.6,3.9,2.6,6.3v26.1c0,2.4-0.9,4.6-2.6,6.3l-18.5,18.4c-1.7,1.7-3.9,2.6-6.3,2.6H59.4z"/>
											</g>
											<g>
												<path style="fill:#3E487A;" d="M85.6,386.1c2.2,0,4.3,0.9,5.8,2.4l18.5,18.4c1.5,1.5,2.4,3.6,2.4,5.8v26.1
													c0,2.2-0.9,4.2-2.4,5.8L91.4,463c-1.5,1.5-3.6,2.4-5.8,2.4H59.4c-2.2,0-4.3-0.9-5.8-2.4l-18.5-18.4
													c-1.5-1.5-2.4-3.6-2.4-5.8v-26.1c0-2.2,0.9-4.2,2.4-5.8l18.5-18.4c1.5-1.5,3.6-2.4,5.8-2.4H85.6 M85.6,384.6H59.4
													c-2.6,0-5,1-6.8,2.8l-18.5,18.4c-1.8,1.8-2.8,4.3-2.8,6.8v26.1c0,2.6,1,5,2.8,6.8l18.5,18.4c1.8,1.8,4.3,2.8,6.9,2.8
													h26.1c2.6,0,5-1,6.8-2.8l18.5-18.4c1.8-1.8,2.8-4.3,2.8-6.8v-26.1c0-2.6-1-5-2.8-6.8l-18.5-18.4
													C90.6,385.7,88.1,384.6,85.6,384.6L85.6,384.6z"/>
											</g>
										</g>
									</g>
								</g>
							</g>
						</g>
					</g>
					<g>
						<g>
							<g>
								<g>
									<ellipse style="fill:#E7EAF9;" cx="69.7" cy="417.6" rx="17.9" ry="18"/>
								</g>
								<g>
									<path style="fill:#3E487A;" d="M69.7,400.3c9.5,0,17.2,7.7,17.2,17.3c0,9.5-7.7,17.3-17.2,17.3s-17.2-7.7-17.2-17.3
										C52.5,408,60.2,400.3,69.7,400.3 M69.7,398.8c-10.3,0-18.7,8.4-18.7,18.8c0,10.3,8.4,18.8,18.7,18.8
										c10.3,0,18.7-8.4,18.7-18.8C88.3,407.2,80,398.8,69.7,398.8L69.7,398.8z"/>
								</g>
							</g>
							<g>
								<g>
									<g>
										<path style="fill:#E7EAF9;" d="M69.7,435.5c-2.6,0-5.1-0.5-7.5-1.6l-0.2-0.1c0,0-0.7-0.3-1.1-0.5l-0.3-0.2
											c-1.3-0.7-2.5-1.7-3.7-2.8c-0.2-0.2-0.3-0.5-0.2-0.8c0.1-0.4,0.3-0.7,0.4-1.1c1-2.7,2.7-4.6,4.6-5.6
											c1.1-0.5,2-0.7,2.6-0.7l0.1,0l10.6,0c0,0,0.1,0,0.1,0c0.5,0,1.5,0.1,2.6,0.7c0.8,0.4,2.1,1.3,3.2,3c0.7,1,1.2,2.3,1.7,3.7
											c0.1,0.3,0,0.6-0.2,0.8c-1.2,1.1-2.4,2-3.8,2.8l-0.1,0.1c-0.1,0.1-0.4,0.2-1.1,0.5l-0.2,0.1
											C74.8,435,72.3,435.5,69.7,435.5z"/>
									</g>
									<g>
										<path style="fill:#3E487A;" d="M64.3,423l10.6,0c0,0,0.1,0,0.1,0c0.5,0,1.3,0.1,2.3,0.6c1,0.5,2,1.4,2.9,2.7
											c0.6,0.9,1.2,2.1,1.6,3.5c-1.1,1-2.3,1.9-3.6,2.7c-0.1,0-0.1,0.1-0.2,0.1c-0.1,0.1-1,0.5-1,0.5c-0.1,0-0.1,0.1-0.2,0.1
											c-2.2,1-4.7,1.6-7.2,1.6c-2.6,0-5-0.6-7.2-1.6c-0.1,0-0.2-0.1-0.2-0.1c0,0-0.7-0.3-1-0.5c-0.1,0-0.2-0.1-0.3-0.1
											c-1.3-0.7-2.5-1.6-3.5-2.6c0.1-0.4,0.2-0.7,0.4-1c1.1-2.8,2.7-4.4,4.2-5.2c0.9-0.5,1.8-0.6,2.3-0.6
											C64.3,423.1,64.3,423,64.3,423 M64.3,421.5C64.3,421.5,64.3,421.5,64.3,421.5c-0.1,0-0.1,0-0.2,0c-0.6,0-1.7,0.1-2.9,0.7
											c-1.4,0.7-3.5,2.3-4.9,6c-0.1,0.3-0.3,0.7-0.4,1.1c-0.2,0.5,0,1.2,0.4,1.6c1.2,1.1,2.5,2.1,3.8,2.9l0.3,0.2
											c0.4,0.2,1,0.5,1.1,0.5c0.1,0,0.2,0.1,0.2,0.1c2.5,1.1,5.1,1.7,7.8,1.7c2.7,0,5.3-0.6,7.8-1.7l0.2-0.1
											c0.7-0.3,1-0.5,1.2-0.6l0.1-0.1c1.4-0.8,2.7-1.8,3.9-2.9c0.4-0.4,0.6-1,0.4-1.6c-0.5-1.5-1.1-2.8-1.8-3.8
											c-1-1.5-2.2-2.6-3.5-3.3c-1.2-0.6-2.2-0.7-2.9-0.7c0,0-0.1,0-0.1,0L64.3,421.5L64.3,421.5z"/>
									</g>
								</g>
								<g>
									<g>
										<path style="fill:#E7EAF9;" d="M69.7,422.2c-3.8,0-6.9-3.1-6.9-6.9c0-3.8,3.1-6.9,6.9-6.9s6.9,3.1,6.9,6.9
											C76.6,419.1,73.5,422.2,69.7,422.2z"/>
									</g>
									<g>
										<path style="fill:#3E487A;" d="M69.7,409.1c3.4,0,6.2,2.8,6.2,6.2c0,3.4-2.8,6.2-6.2,6.2c-3.4,0-6.2-2.8-6.2-6.2
											C63.5,411.9,66.2,409.1,69.7,409.1 M69.7,407.6c-4.2,0-7.7,3.4-7.7,7.7c0,4.2,3.4,7.7,7.7,7.7c4.2,0,7.7-3.4,7.7-7.7
											C77.3,411.1,73.9,407.6,69.7,407.6L69.7,407.6z"/>
									</g>
								</g>
							</g>
						</g>
						<g>
							<g>
								<path style="fill:#FFFFFF;" d="M85.2,452.7c-0.7,0-1.4-0.2-2-0.7c-2.8-2.1-6.3-2.8-6.3-2.9c-1.2-0.2-2-0.6-2.9-1.2
									c-0.3-0.2-0.7-0.5-1.1-0.7c-0.3-0.2-0.6-0.3-0.8-0.5c-1.6-1-3.1-1.8-4.5-2.3c-0.5-0.2-0.9-0.5-1.1-0.9
									c-0.2-0.4-0.2-0.9,0-1.5c0.2-0.6,0.8-1.2,1.3-1.4c0.5-0.3,1.1-0.4,1.8-0.4c0.4,0,0.7,0,1.2,0.1c0.3,0,1,0.3,2.4,0.9
									c0.5,0.2,1,0.5,1.4,0.6c0-0.1,0-0.3,0-0.6c0-0.3-0.1-0.7-0.3-1c-1.4-2.6-2.9-5.2-4.3-7.7l-1.7-3c-0.7-1.1-0.4-2.4,0.7-3.1
									c0.4-0.3,0.8-0.4,1.3-0.4c0.7,0,1.4,0.3,1.9,0.9c0.4,0.5,0.8,1,1.2,1.5c0.4,0.5,0.8,1,1.2,1.5l0.4,0.5
									c0.6,0.7,1.2,1.5,1.7,2.2l0.5,0.6c1-0.3,3.4-1,6.4-1c1.5,0,3.1,0.2,4.5,0.5c0.6,0.2,1,0.5,1.3,1c1.1,2,2.4,5,2.8,7.9
									c0.2,0.6,0.4,1.1,0.6,1.5l0.1,0.3l0.7,1.2c0.5,0.8,0.3,2-0.5,2.6l-5.6,4.5C86.8,452.5,86,452.7,85.2,452.7L85.2,452.7z"/>
							</g>
							<g>
								<path style="fill:#3E487A;" d="M70.2,426.9c0.5,0,1,0.2,1.3,0.6c0.8,1,1.5,1.9,2.3,2.9c0.7,0.9,1.4,1.8,2.1,2.7l0.9,1.1
									c0,0,2.8-1.1,6.7-1.1c1.3,0,2.8,0.1,4.3,0.5c0.3,0.1,0.6,0.3,0.7,0.6c0.6,1.2,2.4,4.5,2.8,7.8c0.2,0.8,0.6,1.5,0.7,2
									l0.7,1.2c0.3,0.6,0.2,1.2-0.3,1.6l-5.6,4.5c-0.5,0.4-1.1,0.6-1.6,0.6c-0.5,0-1.1-0.2-1.5-0.5c-3-2.2-6.6-3-6.6-3
									c-0.9-0.2-1.8-0.5-2.6-1.1c-0.6-0.4-1.4-0.8-1.9-1.2c-1.5-1-3-1.8-4.7-2.4c-0.7-0.2-0.9-0.7-0.6-1.4c0.1-0.4,0.6-0.8,0.9-1
									c0.5-0.2,1-0.3,1.5-0.3c0.4,0,0.7,0,1,0.1c0.5,0,2.7,1.2,3.7,1.5c0.1,0.1,0.3,0.1,0.4,0.1c0.6,0,0.6-0.7,0.6-1.5
									c0-0.5-0.2-0.9-0.4-1.3c-1.9-3.6-4-7.2-6-10.7c-0.5-0.8-0.3-1.6,0.4-2.1C69.6,427,69.9,426.9,70.2,426.9 M70.2,425.4
									L70.2,425.4c-0.6,0-1.2,0.2-1.7,0.5c-1.4,0.9-1.7,2.6-0.9,4.1c0.5,1,1.1,2,1.7,3c1.4,2.5,2.9,5.1,4.3,7.7c0,0,0,0,0,0
									c-1.4-0.7-2.1-0.9-2.6-1c-0.5-0.1-0.9-0.1-1.3-0.1c-0.8,0-1.5,0.2-2.2,0.5c-0.7,0.4-1.4,1.1-1.7,1.8c-0.3,0.8-0.3,1.5,0,2.1
									c0.2,0.4,0.6,1,1.6,1.3c1.4,0.5,2.8,1.2,4.3,2.2c0.2,0.2,0.6,0.3,0.9,0.5c0.4,0.2,0.7,0.4,1,0.6c1.2,0.9,2.3,1.2,3.2,1.3
									c0,0,3.4,0.7,6,2.7c0.7,0.5,1.5,0.8,2.4,0.8c0.9,0,1.9-0.3,2.6-0.9l5.6-4.5c1-0.8,1.3-2.4,0.6-3.5l-0.6-1.1
									c0-0.1-0.1-0.2-0.1-0.3c-0.2-0.4-0.4-0.9-0.5-1.4c-0.4-3-1.8-6.1-2.9-8.1c-0.3-0.7-0.9-1.2-1.7-1.4c0,0,0,0-0.1,0
									c-1.5-0.4-3.1-0.5-4.7-0.5c-2.7,0-4.9,0.5-6.2,0.9l-0.2-0.3c-0.6-0.8-1.2-1.5-1.7-2.2l-0.4-0.5c-0.4-0.5-0.8-1-1.2-1.5
									c-0.4-0.5-0.8-1-1.2-1.5C72.1,425.9,71.2,425.4,70.2,425.4L70.2,425.4L70.2,425.4z"/>
							</g>
						</g>
					</g>
				</g>
				<g>
					<g>
						<path style="fill:#2A91E9;" d="M154.1,398.2h-17.3c-1.4,0-2.8,0.6-3.8,1.6l-12.3,12.3c-1,1-1.6,2.4-1.6,3.8v17.3
							c0,1.4,0.6,2.8,1.6,3.8l12.3,12.3c1,1,2.4,1.6,3.8,1.6h17.3c1.4,0,2.8-0.6,3.8-1.6l12.3-12.3c1-1,1.6-2.4,1.6-3.8v-17.3
							c0-1.4-0.6-2.8-1.6-3.8L158,399.8C157,398.8,155.6,398.2,154.1,398.2z"/>
					</g>
				</g>
				<g>
					<g>
						<path style="fill:#2A91E9;" d="M145.5,429.2c-0.6,0-1.3-0.1-1.9-0.2c-0.4-0.1-0.6-0.4-0.6-0.7l0-1.8c-0.5-0.2-1-0.4-1.5-0.6
							l-1.4,1.3c-0.1,0.1-0.3,0.2-0.5,0.2c-0.1,0-0.3,0-0.4-0.1c-1-0.7-1.9-1.6-2.7-2.6c-0.2-0.3-0.2-0.7,0.1-1l1.3-1.3
							c-0.2-0.5-0.4-0.9-0.6-1.4l-1.9,0c-0.4,0-0.7-0.3-0.7-0.6c-0.2-1.2-0.2-2.5,0-3.7c0.1-0.4,0.4-0.6,0.7-0.6l1.9,0
							c0.2-0.5,0.4-1,0.6-1.4l-1.3-1.3c-0.3-0.3-0.3-0.7-0.1-1c0.7-1,1.6-1.9,2.7-2.6c0.1-0.1,0.3-0.1,0.4-0.1
							c0.2,0,0.4,0.1,0.5,0.2l1.4,1.3c0.5-0.2,1-0.4,1.5-0.6l0-1.8c0-0.4,0.3-0.7,0.6-0.7c0.6-0.1,1.3-0.2,1.9-0.2
							c0.6,0,1.3,0.1,1.9,0.2c0.4,0.1,0.6,0.4,0.6,0.7l0,1.8c0.5,0.2,1,0.4,1.5,0.6l1.4-1.3c0.1-0.1,0.3-0.2,0.5-0.2
							c0.1,0,0.3,0,0.4,0.1c1,0.7,1.9,1.6,2.7,2.6c0.2,0.3,0.2,0.7-0.1,1l-1.3,1.3c0.2,0.5,0.4,0.9,0.6,1.4l1.9,0
							c0.4,0,0.7,0.3,0.7,0.6c0.2,1.2,0.2,2.5,0,3.7c-0.1,0.4-0.4,0.6-0.7,0.6l-1.9,0c-0.2,0.5-0.4,1-0.6,1.4l1.3,1.3
							c0.3,0.3,0.3,0.7,0.1,1c-0.7,1-1.6,1.9-2.7,2.6c-0.1,0.1-0.3,0.1-0.4,0.1c-0.2,0-0.4-0.1-0.5-0.2l-1.4-1.3
							c-0.5,0.2-1,0.4-1.5,0.6l0,1.8c0,0.4-0.3,0.7-0.6,0.7C146.7,429.2,146.1,429.2,145.5,429.2z M145.5,416.3
							c-1.3,0-2.4,1-2.4,2.3s1.1,2.3,2.4,2.3c1.3,0,2.4-1,2.4-2.3S146.8,416.3,145.5,416.3z"/>
					</g>
					<g>
						<path style="fill:#FFFFFF;" d="M145.5,408.6c0.6,0,1.2,0,1.8,0.1l0,2.4c0.8,0.2,1.6,0.5,2.4,1l1.8-1.7c1,0.7,1.8,1.5,2.5,2.4
							l-1.8,1.7c0.5,0.7,0.8,1.5,1,2.3l2.5,0c0.2,1.1,0.2,2.3,0,3.4l-2.5,0c-0.2,0.8-0.5,1.6-1,2.3l1.8,1.7
							c-0.7,0.9-1.5,1.8-2.5,2.4l-1.8-1.7c-0.7,0.4-1.5,0.8-2.4,1l0,2.4c-0.6,0.1-1.2,0.1-1.8,0.1c-0.6,0-1.2,0-1.8-0.1l0-2.4
							c-0.8-0.2-1.6-0.5-2.4-1l-1.8,1.7c-1-0.7-1.8-1.5-2.5-2.4l1.8-1.7c-0.5-0.7-0.8-1.5-1-2.3l-2.5,0c-0.2-1.1-0.2-2.3,0-3.4
							l2.5,0c0.2-0.8,0.5-1.6,1-2.3l-1.8-1.7c0.7-0.9,1.5-1.8,2.5-2.4l1.8,1.7c0.7-0.4,1.5-0.8,2.4-1l0-2.4
							C144.3,408.7,144.9,408.6,145.5,408.6 M145.5,421.6c1.7,0,3.1-1.4,3.1-3.1s-1.4-3.1-3.1-3.1c-1.7,0-3.1,1.4-3.1,3.1
							S143.7,421.6,145.5,421.6 M145.5,407.1c-0.7,0-1.3,0.1-2,0.2c-0.7,0.1-1.2,0.7-1.2,1.5l0,1.3c-0.2,0.1-0.4,0.2-0.6,0.2l-1-1
							c-0.3-0.3-0.7-0.4-1-0.4c-0.3,0-0.6,0.1-0.8,0.3c-1.1,0.8-2.1,1.7-2.8,2.8c-0.4,0.6-0.4,1.4,0.2,2l0.9,0.9
							c-0.1,0.2-0.2,0.3-0.2,0.5l-1.4,0c-0.7,0-1.3,0.5-1.5,1.2c-0.2,1.3-0.2,2.6,0,3.9c0.1,0.7,0.7,1.2,1.5,1.2l1.4,0
							c0.1,0.2,0.1,0.3,0.2,0.5l-0.9,0.9c-0.5,0.5-0.6,1.4-0.2,2c0.8,1.1,1.7,2,2.8,2.8c0.3,0.2,0.6,0.3,0.8,0.3
							c0.4,0,0.8-0.1,1-0.4l1-1c0.2,0.1,0.4,0.2,0.6,0.2l0,1.3c0,0.7,0.5,1.4,1.2,1.5c0.7,0.1,1.3,0.2,2,0.2c0.7,0,1.3-0.1,2-0.2
							c0.7-0.1,1.2-0.7,1.2-1.5l0-1.3c0.2-0.1,0.4-0.2,0.6-0.2l1,1c0.3,0.3,0.7,0.4,1,0.4c0.3,0,0.6-0.1,0.8-0.3
							c1.1-0.8,2.1-1.7,2.8-2.8c0.4-0.6,0.4-1.4-0.2-2l-0.9-0.9c0.1-0.2,0.2-0.3,0.2-0.5l1.4,0c0.7,0,1.3-0.5,1.5-1.2
							c0.2-1.3,0.2-2.6,0-3.9c-0.1-0.7-0.7-1.2-1.5-1.2l-1.4,0c-0.1-0.2-0.1-0.3-0.2-0.5l0.9-0.9c0.5-0.5,0.6-1.4,0.2-2
							c-0.8-1.1-1.7-2-2.8-2.8c-0.3-0.2-0.6-0.3-0.8-0.3c-0.4,0-0.8,0.1-1,0.4l-1,1c-0.2-0.1-0.4-0.2-0.6-0.2l0-1.3
							c0-0.7-0.5-1.4-1.2-1.5C146.8,407.2,146.1,407.1,145.5,407.1L145.5,407.1z M145.5,420.1c-0.9,0-1.6-0.7-1.6-1.6
							s0.7-1.6,1.6-1.6c0.9,0,1.6,0.7,1.6,1.6S146.4,420.1,145.5,420.1L145.5,420.1z"/>
					</g>
				</g>
				<g>
					<path style="fill:#FFFFFF;" d="M139.4,440.4l-0.7,2.3h-1.5l2.6-8h1.9l2.6,8h-1.6l-0.7-2.3H139.4z M141.7,439.3l-0.6-2
						c-0.2-0.5-0.3-1-0.4-1.5h0c-0.1,0.5-0.2,1-0.4,1.5l-0.6,2H141.7z"/>
					<path style="fill:#FFFFFF;" d="M145.3,434.8c0.5-0.1,1.3-0.2,2.2-0.2c1.1,0,1.8,0.2,2.3,0.6c0.5,0.4,0.8,1,0.8,1.8
						c0,0.8-0.2,1.4-0.7,1.8c-0.6,0.6-1.5,0.9-2.5,0.9c-0.3,0-0.5,0-0.7-0.1v3h-1.4V434.8z M146.8,438.4c0.2,0.1,0.4,0.1,0.7,0.1
						c1.1,0,1.8-0.5,1.8-1.5c0-0.9-0.6-1.3-1.6-1.3c-0.4,0-0.7,0-0.8,0.1V438.4z"/>
					<path style="fill:#FFFFFF;" d="M153.4,434.6v8H152v-8H153.4z"/>
				</g>
			</g>
		</g>
	</g>
</g>
</svg>