<?xml version="1.0" encoding="utf-8"?>
<!-- Generator: Adobe Illustrator 24.1.1, SVG Export Plug-In . SVG Version: 6.00 Build 0)  -->
<svg version="1.1" id="Layer_1" xmlns="http://www.w3.org/2000/svg" xmlns:xlink="http://www.w3.org/1999/xlink" x="0px" y="0px"
	 viewBox="0 0 320 215.6" style="enable-background:new 0 0 320 215.6;" xml:space="preserve">
<g>
	<g>
		<path style="fill:#3E487A;" d="M99.5,59.6l-1.3,3.8h-1.6l4.1-12.1h1.9l4.1,12.1h-1.7l-1.3-3.8H99.5z M103.5,58.4l-1.2-3.5
			c-0.3-0.8-0.5-1.5-0.6-2.2h0c-0.2,0.7-0.4,1.5-0.6,2.2l-1.2,3.5H103.5z"/>
		<path style="fill:#3E487A;" d="M108.6,51.5c0.8-0.1,1.9-0.3,3-0.3c1.7,0,2.8,0.3,3.5,1c0.6,0.5,1,1.4,1,2.3c0,1.6-1,2.6-2.3,3.1
			v0.1c0.9,0.3,1.5,1.2,1.8,2.4c0.4,1.7,0.7,2.9,0.9,3.3h-1.6c-0.2-0.4-0.5-1.4-0.8-2.9c-0.4-1.7-1-2.3-2.4-2.4h-1.5v5.3h-1.6V51.5z
			 M110.1,57h1.6c1.7,0,2.7-0.9,2.7-2.3c0-1.6-1.1-2.3-2.8-2.3c-0.8,0-1.3,0.1-1.5,0.1V57z"/>
		<path style="fill:#3E487A;" d="M126.8,63.1c-0.6,0.3-1.7,0.6-3.2,0.6c-3.4,0-6-2.2-6-6.2c0-3.8,2.6-6.4,6.3-6.4
			c1.5,0,2.5,0.3,2.9,0.5l-0.4,1.3c-0.6-0.3-1.4-0.5-2.4-0.5c-2.8,0-4.7,1.8-4.7,5c0,3,1.7,4.9,4.6,4.9c1,0,1.9-0.2,2.6-0.5
			L126.8,63.1z"/>
		<path style="fill:#3E487A;" d="M130.3,51.3v5.1h5.9v-5.1h1.6v12.1h-1.6v-5.7h-5.9v5.7h-1.6V51.3H130.3z"/>
		<path style="fill:#3E487A;" d="M142.1,51.3v12.1h-1.6V51.3H142.1z"/>
		<path style="fill:#3E487A;" d="M147.1,52.6h-3.7v-1.3h9v1.3h-3.7v10.8h-1.6V52.6z"/>
		<path style="fill:#3E487A;" d="M160,57.8h-4.7v4.4h5.3v1.3h-6.8V51.3h6.6v1.3h-5v3.8h4.7V57.8z"/>
		<path style="fill:#3E487A;" d="M171.1,63.1c-0.6,0.3-1.7,0.6-3.2,0.6c-3.4,0-6-2.2-6-6.2c0-3.8,2.6-6.4,6.3-6.4
			c1.5,0,2.5,0.3,2.9,0.5l-0.4,1.3c-0.6-0.3-1.4-0.5-2.4-0.5c-2.8,0-4.7,1.8-4.7,5c0,3,1.7,4.9,4.6,4.9c1,0,1.9-0.2,2.6-0.5
			L171.1,63.1z"/>
		<path style="fill:#3E487A;" d="M175.8,52.6h-3.7v-1.3h9v1.3h-3.7v10.8h-1.6V52.6z"/>
		<path style="fill:#3E487A;" d="M184.1,51.3v7.2c0,2.7,1.2,3.9,2.8,3.9c1.8,0,3-1.2,3-3.9v-7.2h1.6v7.1c0,3.7-2,5.2-4.6,5.2
			c-2.5,0-4.4-1.4-4.4-5.2v-7.1H184.1z"/>
		<path style="fill:#3E487A;" d="M194.1,51.5c0.8-0.1,1.9-0.3,3-0.3c1.7,0,2.8,0.3,3.5,1c0.6,0.5,1,1.4,1,2.3c0,1.6-1,2.6-2.3,3.1
			v0.1c0.9,0.3,1.5,1.2,1.8,2.4c0.4,1.7,0.7,2.9,0.9,3.3h-1.6c-0.2-0.4-0.5-1.4-0.8-2.9c-0.4-1.7-1-2.3-2.4-2.4h-1.5v5.3h-1.6V51.5z
			 M195.7,57h1.6c1.7,0,2.7-0.9,2.7-2.3c0-1.6-1.1-2.3-2.8-2.3c-0.8,0-1.3,0.1-1.5,0.1V57z"/>
		<path style="fill:#3E487A;" d="M210.1,57.8h-4.7v4.4h5.3v1.3h-6.8V51.3h6.6v1.3h-5v3.8h4.7V57.8z"/>
	</g>
	<g>
		<path style="fill:#3E487A;" d="M90.3,17.9h4.4v12.4c0,5.6-2.7,7.5-6.9,7.5c-1,0-2.4-0.2-3.2-0.5l0.5-3.6c0.6,0.2,1.4,0.3,2.3,0.3
			c1.9,0,3-0.8,3-3.9V17.9z"/>
		<path style="fill:#3E487A;" d="M103,32.5l-1.4,5H97l5.9-19.6h5.8l6.1,19.6h-4.8l-1.5-5H103z M107.9,29.2l-1.2-4.1
			c-0.3-1.2-0.7-2.6-1-3.8h-0.1c-0.3,1.2-0.6,2.6-0.9,3.8l-1.2,4.1H107.9z"/>
		<path style="fill:#3E487A;" d="M134,30c-0.1-2.3-0.2-5.2-0.2-8h-0.1c-0.6,2.5-1.5,5.3-2.2,7.6l-2.4,7.6h-3.5l-2.1-7.5
			c-0.6-2.3-1.3-5.1-1.8-7.7h-0.1c-0.1,2.6-0.2,5.7-0.3,8.1l-0.4,7.4H117l1.2-19.6h5.9l1.9,6.5c0.6,2.3,1.2,4.7,1.7,7h0.1
			c0.5-2.3,1.2-4.8,1.9-7l2.1-6.5h5.8l1,19.6h-4.3L134,30z"/>
		<path style="fill:#3E487A;" d="M142.1,32.9c1.2,0.6,3,1.2,4.9,1.2c2,0,3.1-0.8,3.1-2.1c0-1.2-0.9-1.9-3.3-2.7
			c-3.2-1.2-5.4-3-5.4-5.8c0-3.3,2.8-5.9,7.4-5.9c2.2,0,3.8,0.4,5,1l-1,3.5c-0.8-0.4-2.2-0.9-4.1-0.9c-1.9,0-2.8,0.9-2.8,1.9
			c0,1.2,1.1,1.8,3.6,2.8c3.5,1.3,5,3.1,5,5.8c0,3.3-2.5,6.1-7.9,6.1c-2.2,0-4.4-0.6-5.5-1.2L142.1,32.9z"/>
		<path style="fill:#3E487A;" d="M161.4,21.7h-5.3v-3.7h15v3.7h-5.3v15.8h-4.4V21.7z"/>
		<path style="fill:#3E487A;" d="M176,32.5l-1.4,5H170l5.9-19.6h5.8l6.1,19.6h-4.8l-1.5-5H176z M180.9,29.2l-1.2-4.1
			c-0.3-1.2-0.7-2.6-1-3.8h-0.1c-0.3,1.2-0.6,2.6-0.9,3.8l-1.2,4.1H180.9z"/>
		<path style="fill:#3E487A;" d="M204.1,37c-0.8,0.4-2.6,0.8-5,0.8c-6.8,0-10.2-4.2-10.2-9.8c0-6.7,4.8-10.4,10.7-10.4
			c2.3,0,4,0.4,4.8,0.9l-0.9,3.5c-0.9-0.4-2.1-0.7-3.7-0.7c-3.5,0-6.2,2.1-6.2,6.5c0,3.9,2.3,6.4,6.2,6.4c1.4,0,2.8-0.3,3.7-0.6
			L204.1,37z"/>
		<path style="fill:#3E487A;" d="M207,17.9h4.4v8.6h0.1c0.4-0.8,0.9-1.5,1.4-2.1l4.4-6.5h5.5l-6.5,8.3l6.8,11.2h-5.1L213,29
			l-1.7,2.1v6.4H207V17.9z"/>
	</g>
	<g>
		<g>
			<g>
				<g>
					<g>
						<g>
							<path style="fill:#2A91E9;" d="M224.6,133.2h-2c-0.4,0-0.8-0.3-0.8-0.8s0.3-0.8,0.8-0.8h2c0.4,0,0.8,0.3,0.8,0.8
								S225,133.2,224.6,133.2z M219.6,133.2h-2c-0.4,0-0.8-0.3-0.8-0.8s0.3-0.8,0.8-0.8h2c0.4,0,0.8,0.3,0.8,0.8
								S220,133.2,219.6,133.2z M214.6,133.2h-2c-0.4,0-0.8-0.3-0.8-0.8s0.3-0.8,0.8-0.8h2c0.4,0,0.8,0.3,0.8,0.8
								S215,133.2,214.6,133.2z M209.6,133.2h-2c-0.4,0-0.8-0.3-0.8-0.8s0.3-0.8,0.8-0.8h2c0.4,0,0.8,0.3,0.8,0.8
								S210,133.2,209.6,133.2z"/>
						</g>
						<g>
							<g>
								<polygon style="fill:#2A91E9;" points="219.7,126.3 218.6,127.4 224.1,132.5 218.6,137.5 219.7,138.6 226.3,132.5 								
									"/>
							</g>
						</g>
					</g>
				</g>
			</g>
		</g>
		<g>
			<g>
				<g>
					<g>
						<g>
							<path style="fill:#2A91E9;" d="M226.3,154.6h-2c-0.4,0-0.8-0.3-0.8-0.8s0.3-0.8,0.8-0.8h2c0.4,0,0.8,0.3,0.8,0.8
								S226.7,154.6,226.3,154.6z M221.3,154.6h-2c-0.4,0-0.8-0.3-0.8-0.8s0.3-0.8,0.8-0.8h2c0.4,0,0.8,0.3,0.8,0.8
								S221.7,154.6,221.3,154.6z M216.3,154.6h-2c-0.4,0-0.8-0.3-0.8-0.8s0.3-0.8,0.8-0.8h2c0.4,0,0.8,0.3,0.8,0.8
								S216.7,154.6,216.3,154.6z M211.3,154.6h-2c-0.4,0-0.8-0.3-0.8-0.8s0.3-0.8,0.8-0.8h2c0.4,0,0.8,0.3,0.8,0.8
								S211.7,154.6,211.3,154.6z"/>
						</g>
						<g>
							<g>
								<polygon style="fill:#2A91E9;" points="214.3,160 215.3,158.9 209.9,153.8 215.3,148.8 214.3,147.7 207.7,153.8 								"/>
							</g>
						</g>
					</g>
				</g>
			</g>
		</g>
		<g>
			<g>
				<g>
					<g>
						<g>
							<path style="fill:#2A91E9;" d="M110.9,133.2h-2c-0.4,0-0.8-0.3-0.8-0.8s0.3-0.8,0.8-0.8h2c0.4,0,0.8,0.3,0.8,0.8
								S111.4,133.2,110.9,133.2z M105.9,133.2h-2c-0.4,0-0.8-0.3-0.8-0.8s0.3-0.8,0.8-0.8h2c0.4,0,0.8,0.3,0.8,0.8
								S106.4,133.2,105.9,133.2z M100.9,133.2h-2c-0.4,0-0.8-0.3-0.8-0.8s0.3-0.8,0.8-0.8h2c0.4,0,0.8,0.3,0.8,0.8
								S101.4,133.2,100.9,133.2z M95.9,133.2h-2c-0.4,0-0.8-0.3-0.8-0.8s0.3-0.8,0.8-0.8h2c0.4,0,0.8,0.3,0.8,0.8
								S96.4,133.2,95.9,133.2z"/>
						</g>
						<g>
							<g>
								<polygon style="fill:#2A91E9;" points="106,126.3 105,127.4 110.4,132.5 105,137.5 106,138.6 112.6,132.5 								"/>
							</g>
						</g>
					</g>
				</g>
			</g>
		</g>
		<g>
			<g>
				<g>
					<g>
						<g>
							<path style="fill:#2A91E9;" d="M113.6,154.6h-2c-0.4,0-0.8-0.3-0.8-0.8s0.3-0.8,0.8-0.8h2c0.4,0,0.8,0.3,0.8,0.8
								S114,154.6,113.6,154.6z M108.6,154.6h-2c-0.4,0-0.8-0.3-0.8-0.8s0.3-0.8,0.8-0.8h2c0.4,0,0.8,0.3,0.8,0.8
								S109,154.6,108.6,154.6z M103.6,154.6h-2c-0.4,0-0.8-0.3-0.8-0.8s0.3-0.8,0.8-0.8h2c0.4,0,0.8,0.3,0.8,0.8
								S104,154.6,103.6,154.6z M98.6,154.6h-2c-0.4,0-0.8-0.3-0.8-0.8s0.3-0.8,0.8-0.8h2c0.4,0,0.8,0.3,0.8,0.8
								S99,154.6,98.6,154.6z"/>
						</g>
						<g>
							<g>
								<polygon style="fill:#2A91E9;" points="101.6,160 102.6,158.9 97.2,153.8 102.6,148.8 101.6,147.7 95,153.8 								"/>
							</g>
						</g>
					</g>
				</g>
			</g>
		</g>
		<g>
			<g>
				<g>
					<path style="fill:#FFFFFF;" d="M233.4,190.4c-2.3,0-4.1-1.8-4.1-4.1V94.7c0-2.3,1.8-4.1,4.1-4.1h80.4c2.3,0,4.1,1.8,4.1,4.1
						v91.6c0,2.3-1.8,4.1-4.1,4.1H233.4z"/>
				</g>
				<g>
					<g>
						<path style="fill:#3E487A;" d="M313.8,91.4c1.8,0,3.3,1.5,3.3,3.3v91.6c0,1.8-1.5,3.3-3.3,3.3h-80.4c-1.8,0-3.3-1.5-3.3-3.3
							V94.7c0-1.8,1.5-3.3,3.3-3.3H313.8 M313.8,89.9h-80.4c-2.7,0-4.8,2.2-4.8,4.8v91.6c0,2.7,2.2,4.8,4.8,4.8h80.4
							c2.7,0,4.8-2.2,4.8-4.8V94.7C318.6,92,316.4,89.9,313.8,89.9L313.8,89.9z"/>
					</g>
				</g>
			</g>
			<g>
				<path style="fill:#2A91E9;" d="M264.8,179.6l-0.8,2.5h-1.1l2.8-8.1h1.2l2.8,8.1h-1.1l-0.9-2.5H264.8z M267.4,178.7l-0.8-2.3
					c-0.2-0.5-0.3-1-0.4-1.5h0c-0.1,0.5-0.2,1-0.4,1.5l-0.8,2.3H267.4z"/>
				<path style="fill:#2A91E9;" d="M270.8,174.1c0.6-0.1,1.4-0.2,2.2-0.2c1.5,0,2.6,0.4,3.3,1c0.7,0.7,1.2,1.6,1.2,2.9
					c0,1.3-0.4,2.4-1.2,3.1c-0.8,0.8-2,1.2-3.6,1.2c-0.8,0-1.4,0-1.9-0.1V174.1z M271.9,181.3c0.3,0,0.6,0,1.1,0
					c2.2,0,3.4-1.2,3.4-3.4c0-1.9-1.1-3.1-3.3-3.1c-0.5,0-0.9,0-1.2,0.1V181.3z"/>
				<path style="fill:#2A91E9;" d="M278.8,182.1V174h1.2l2.6,4.1c0.6,0.9,1.1,1.8,1.4,2.6l0,0c-0.1-1.1-0.1-2.1-0.1-3.3V174h1v8.1
					h-1.1l-2.6-4.1c-0.6-0.9-1.1-1.8-1.5-2.7l0,0c0.1,1,0.1,2,0.1,3.3v3.5H278.8z"/>
			</g>
			<g>
				<g>
					<circle style="fill-rule:evenodd;clip-rule:evenodd;fill:#E7EAF9;" cx="273.6" cy="131.3" r="24.6"/>
					<path style="fill:#3E487A;" d="M273.6,156.6c-14,0-25.3-11.4-25.3-25.3s11.4-25.3,25.3-25.3s25.3,11.4,25.3,25.3
						S287.6,156.6,273.6,156.6z M273.6,107.5c-13.1,0-23.8,10.7-23.8,23.8s10.7,23.8,23.8,23.8c13.1,0,23.8-10.7,23.8-23.8
						S286.7,107.5,273.6,107.5z"/>
				</g>
				<g>
					<path style="fill:#3E487A;" d="M273.6,156.6c-6.6,0-11.8-11.1-11.8-25.3S267,106,273.6,106c6.6,0,11.8,11.1,11.8,25.3
						S280.2,156.6,273.6,156.6z M273.6,107.5c-5.6,0-10.3,10.9-10.3,23.8s4.7,23.8,10.3,23.8c5.6,0,10.3-10.9,10.3-23.8
						S279.2,107.5,273.6,107.5z"/>
				</g>
				<g>
					<path style="fill:#3E487A;" d="M290.3,150.1c-0.2,0-0.4-0.1-0.5-0.2c-4.4-4.1-10.2-6.4-16.2-6.4c-6,0-11.7,2.2-16.1,6.3
						c-0.3,0.3-0.8,0.3-1.1,0c-0.3-0.3-0.3-0.8,0-1.1c4.7-4.3,10.8-6.7,17.1-6.7c6.4,0,12.5,2.4,17.2,6.8c0.3,0.3,0.3,0.8,0,1.1
						C290.7,150,290.5,150.1,290.3,150.1z"/>
				</g>
				<g>
					<path style="fill:#3E487A;" d="M273.6,121.2c-6.4,0-12.5-2.4-17.2-6.8c-0.3-0.3-0.3-0.8,0-1.1c0.3-0.3,0.8-0.3,1.1,0
						c4.4,4.1,10.2,6.4,16.2,6.4c6,0,11.8-2.3,16.2-6.4c0.3-0.3,0.8-0.3,1.1,0c0.3,0.3,0.3,0.8,0,1.1
						C286.1,118.8,280,121.2,273.6,121.2z"/>
				</g>
				<g>
					<path style="fill:#3E487A;" d="M298.2,132.2h-48.4c-0.4,0-0.8-0.3-0.8-0.8s0.3-0.8,0.8-0.8h48.4c0.4,0,0.8,0.3,0.8,0.8
						S298.6,132.2,298.2,132.2z"/>
				</g>
			</g>
		</g>
		<g>
			<g>
				<g>
					<g>
						<path style="fill:#FFFFFF;" d="M120,191.9c-2.3,0-4.1-1.8-4.1-4.1V96.2c0-2.3,1.8-4.1,4.1-4.1h80.4c2.3,0,4.1,1.8,4.1,4.1
							v91.6c0,2.3-1.8,4.1-4.1,4.1H120z"/>
					</g>
					<g>
						<path style="fill:#3E487A;" d="M200.4,92.9c1.8,0,3.3,1.5,3.3,3.3v91.6c0,1.8-1.5,3.3-3.3,3.3H120c-1.8,0-3.3-1.5-3.3-3.3
							V96.2c0-1.8,1.5-3.3,3.3-3.3H200.4 M200.4,91.4H120c-2.7,0-4.8,2.2-4.8,4.8v91.6c0,2.7,2.2,4.8,4.8,4.8h80.4
							c2.7,0,4.8-2.2,4.8-4.8V96.2C205.2,93.5,203.1,91.4,200.4,91.4L200.4,91.4z"/>
					</g>
				</g>
			</g>
			<g>
				<path style="fill:#2A91E9;" d="M137.2,175.7c0.5-0.1,1.2-0.2,1.9-0.2c1,0,1.7,0.2,2.2,0.6c0.4,0.3,0.7,0.8,0.7,1.4
					c0,0.8-0.5,1.5-1.4,1.8v0c0.8,0.2,1.7,0.8,1.7,2c0,0.7-0.3,1.2-0.7,1.6c-0.6,0.5-1.5,0.8-2.8,0.8c-0.7,0-1.3,0-1.6-0.1V175.7z
					 M138.2,179h0.9c1.1,0,1.7-0.6,1.7-1.4c0-0.9-0.7-1.3-1.8-1.3c-0.5,0-0.8,0-0.9,0.1V179z M138.2,182.8c0.2,0,0.5,0,0.9,0
					c1.1,0,2.1-0.4,2.1-1.6c0-1.1-0.9-1.6-2.1-1.6h-0.9V182.8z"/>
				<path style="fill:#2A91E9;" d="M143.7,175.6c0.5-0.1,1.3-0.2,2-0.2c1.1,0,1.8,0.2,2.3,0.7c0.4,0.4,0.6,0.9,0.6,1.5
					c0,1.1-0.7,1.8-1.5,2.1v0c0.6,0.2,1,0.8,1.2,1.6c0.3,1.1,0.5,1.9,0.6,2.2h-1.1c-0.1-0.2-0.3-0.9-0.5-1.9
					c-0.2-1.1-0.7-1.5-1.6-1.6h-1v3.5h-1V175.6z M144.7,179.3h1.1c1.1,0,1.8-0.6,1.8-1.5c0-1-0.8-1.5-1.9-1.5c-0.5,0-0.9,0-1,0.1
					V179.3z"/>
				<path style="fill:#2A91E9;" d="M157.1,179.5c0,2.8-1.7,4.3-3.8,4.3c-2.1,0-3.6-1.7-3.6-4.1c0-2.6,1.6-4.2,3.7-4.2
					C155.7,175.4,157.1,177.1,157.1,179.5z M150.8,179.6c0,1.7,0.9,3.3,2.6,3.3c1.7,0,2.6-1.5,2.6-3.4c0-1.6-0.8-3.3-2.6-3.3
					C151.7,176.2,150.8,177.9,150.8,179.6z"/>
				<path style="fill:#2A91E9;" d="M159.8,183.6l-2.1-8.1h1.1l1,4.1c0.2,1,0.5,2,0.6,2.8h0c0.1-0.8,0.4-1.8,0.7-2.8l1.1-4.1h1.1
					l1,4.1c0.2,1,0.4,1.9,0.6,2.8h0c0.2-0.9,0.4-1.8,0.6-2.8l1.1-4.1h1.1l-2.3,8.1h-1.1l-1-4.2c-0.3-1-0.4-1.8-0.5-2.6h0
					c-0.1,0.8-0.3,1.6-0.6,2.6l-1.2,4.2H159.8z"/>
				<path style="fill:#2A91E9;" d="M168.5,182.4c0.5,0.3,1.1,0.5,1.9,0.5c1.1,0,1.7-0.6,1.7-1.4c0-0.7-0.4-1.2-1.5-1.6
					c-1.3-0.5-2.1-1.2-2.1-2.3c0-1.3,1-2.2,2.6-2.2c0.8,0,1.4,0.2,1.8,0.4l-0.3,0.9c-0.3-0.2-0.8-0.4-1.5-0.4
					c-1.1,0-1.5,0.7-1.5,1.2c0,0.8,0.5,1.1,1.6,1.6c1.4,0.5,2.1,1.2,2.1,2.4c0,1.2-0.9,2.3-2.8,2.3c-0.8,0-1.6-0.2-2.1-0.5
					L168.5,182.4z"/>
				<path style="fill:#2A91E9;" d="M178.7,179.8h-3.1v2.9h3.5v0.9h-4.6v-8.1h4.4v0.9h-3.3v2.6h3.1V179.8z"/>
				<path style="fill:#2A91E9;" d="M180.4,175.6c0.5-0.1,1.3-0.2,2-0.2c1.1,0,1.8,0.2,2.3,0.7c0.4,0.4,0.6,0.9,0.6,1.5
					c0,1.1-0.7,1.8-1.5,2.1v0c0.6,0.2,1,0.8,1.2,1.6c0.3,1.1,0.5,1.9,0.6,2.2h-1.1c-0.1-0.2-0.3-0.9-0.5-1.9
					c-0.2-1.1-0.7-1.5-1.6-1.6h-1v3.5h-1V175.6z M181.5,179.3h1.1c1.1,0,1.8-0.6,1.8-1.5c0-1-0.8-1.5-1.9-1.5c-0.5,0-0.9,0-1,0.1
					V179.3z"/>
			</g>
			<g>
				<g>
					<g>
						<path style="fill:#E7EAF9;" d="M129.6,116.4c-0.4,0-0.8-0.3-0.8-0.8v-5.1c0-1.1,0.9-2,2-2h58.2c1.1,0,2,0.9,2,2v5.1
							c0,0.4-0.3,0.8-0.8,0.8H129.6z"/>
					</g>
					<g>
						<path style="fill:#3E487A;" d="M189.1,109.3c0.7,0,1.3,0.6,1.3,1.2v5.1h-60.7v-5.1c0-0.7,0.6-1.2,1.3-1.2H189.1 M189.1,107.8
							h-58.2c-1.5,0-2.8,1.2-2.8,2.7v5.1c0,0.8,0.7,1.5,1.5,1.5h60.7c0.8,0,1.5-0.7,1.5-1.5v-5.1C191.9,109,190.6,107.8,189.1,107.8
							L189.1,107.8z"/>
					</g>
				</g>
				<g>
					<g>
						<path style="fill:#FFFFFF;" d="M130.9,157c-1.1,0-2-0.9-2-2v-39.9h62.2V155c0,1.1-0.9,2-2,2H130.9z"/>
					</g>
					<g>
						<path style="fill:#3E487A;" d="M190.4,115.9V155c0,0.7-0.6,1.2-1.3,1.2h-58.2c-0.7,0-1.3-0.6-1.3-1.2v-39.1H190.4
							 M191.9,114.4h-1.5h-60.7h-1.5v1.5V155c0,1.5,1.2,2.7,2.8,2.7h58.2c1.5,0,2.8-1.2,2.8-2.7v-39.1V114.4L191.9,114.4z"/>
					</g>
				</g>
				<g>
					<g>
						<path style="fill:#3E487A;" d="M134.9,112.1c0,0.5-0.4,1-1,1s-1-0.4-1-1c0-0.5,0.4-1,1-1S134.9,111.5,134.9,112.1z"/>
					</g>
					<g>
						<path style="fill:#3E487A;" d="M138.4,112.1c0,0.5-0.4,1-1,1s-1-0.4-1-1c0-0.5,0.4-1,1-1S138.4,111.5,138.4,112.1z"/>
					</g>
					<g>
						<path style="fill:#3E487A;" d="M141.9,112.1c0,0.5-0.4,1-1,1s-1-0.4-1-1c0-0.5,0.4-1,1-1S141.9,111.5,141.9,112.1z"/>
					</g>
				</g>
			</g>
			<g>
				<g>
					<path style="fill:#E7EAF9;" d="M165.6,129.4h-26.8c-0.4,0-0.8-0.4-1-0.9c-0.2-0.6-0.2-1.3,0-1.9c0.2-0.6,0.6-0.9,1-0.9h26.8
						c0.4,0,0.8,0.4,1,0.9c0.2,0.6,0.2,1.3,0,1.9C166.4,129,166,129.4,165.6,129.4z"/>
					<path style="fill:#3E487A;" d="M165.6,130.1h-26.8c-0.8,0-1.4-0.6-1.7-1.4c-0.3-0.8-0.3-1.7,0-2.4c0.3-0.9,1-1.4,1.7-1.4h26.8
						c0.8,0,1.4,0.6,1.7,1.4c0.3,0.8,0.3,1.7,0,2.4C167,129.6,166.3,130.1,165.6,130.1z M138.8,126.4c0,0-0.2,0.1-0.3,0.5
						c-0.2,0.4-0.2,1,0,1.4c0.1,0.3,0.3,0.5,0.3,0.5h26.8c0,0,0.2-0.1,0.3-0.5c0.2-0.4,0.2-1,0-1.4c-0.1-0.3-0.3-0.5-0.3-0.5H138.8z
						"/>
				</g>
				<g>
					<path style="fill:#E7EAF9;" d="M181.8,145.9h-43c-0.4,0-0.8-0.4-1-0.9c-0.2-0.6-0.2-1.3,0-1.9c0.2-0.6,0.6-0.9,1-0.9h43
						c0.4,0,0.8,0.4,1,0.9c0.2,0.6,0.2,1.3,0,1.9C182.6,145.5,182.2,145.9,181.8,145.9z"/>
					<path style="fill:#3E487A;" d="M181.8,146.6h-43c-0.8,0-1.4-0.6-1.7-1.4c-0.3-0.8-0.3-1.7,0-2.4c0.3-0.9,1-1.4,1.7-1.4h43
						c0.8,0,1.4,0.6,1.7,1.4c0.3,0.8,0.3,1.7,0,2.4C183.2,146.1,182.6,146.6,181.8,146.6z M138.8,142.9c0,0-0.2,0.1-0.3,0.5
						c-0.2,0.4-0.2,1,0,1.4c0.1,0.3,0.3,0.5,0.3,0.5h43c0,0,0.2-0.1,0.3-0.5c0.2-0.4,0.2-1,0-1.4c-0.1-0.3-0.3-0.5-0.3-0.5H138.8z"
						/>
				</g>
				<g>
					<path style="fill:#E7EAF9;" d="M138.8,133.9h43c0.4,0,0.8,0.4,1,0.9c0.2,0.6,0.2,1.3,0,1.9c-0.2,0.6-0.6,0.9-1,0.9h-43
						c-0.4,0-0.8-0.4-1-0.9c-0.2-0.6-0.2-1.3,0-1.9C137.9,134.2,138.3,133.9,138.8,133.9z"/>
					<path style="fill:#3E487A;" d="M181.8,138.4h-43c-0.8,0-1.4-0.6-1.7-1.4c-0.3-0.8-0.3-1.7,0-2.4c0.3-0.9,1-1.4,1.7-1.4h43
						c0.8,0,1.4,0.6,1.7,1.4c0.3,0.8,0.3,1.7,0,2.4C183.2,137.8,182.6,138.4,181.8,138.4z M138.8,134.6c0,0-0.2,0.1-0.3,0.5
						c-0.2,0.4-0.2,1,0,1.4c0.1,0.3,0.3,0.5,0.3,0.5h43c0,0,0.2-0.1,0.3-0.5c0.2-0.4,0.2-1,0-1.4c-0.1-0.3-0.3-0.5-0.3-0.5H138.8z"
						/>
				</g>
			</g>
		</g>
		<g>
			<g>
				<g>
					<g>
						<path style="fill:#FFFFFF;" d="M6.6,191.9c-2.3,0-4.1-1.8-4.1-4.1V96.2c0-2.3,1.8-4.1,4.1-4.1h80.5c2.3,0,4.1,1.8,4.1,4.1
							v91.6c0,2.3-1.8,4.1-4.1,4.1H6.6z"/>
					</g>
					<g>
						<path style="fill:#3E487A;" d="M87.1,92.9c1.8,0,3.3,1.5,3.3,3.3v91.6c0,1.8-1.5,3.3-3.3,3.3H6.6c-1.8,0-3.3-1.5-3.3-3.3V96.2
							c0-1.8,1.5-3.3,3.3-3.3H87.1 M87.1,91.4H6.6c-2.7,0-4.8,2.2-4.8,4.8v91.6c0,2.7,2.2,4.8,4.8,4.8h80.5c2.7,0,4.8-2.2,4.8-4.8
							V96.2C91.9,93.5,89.7,91.4,87.1,91.4L87.1,91.4z"/>
					</g>
				</g>
				<g>
					<path style="fill:#2A91E9;" d="M39,181.1l-0.8,2.5h-1.1l2.8-8.1h1.2l2.8,8.1h-1.1l-0.9-2.5H39z M41.6,180.3l-0.8-2.3
						c-0.2-0.5-0.3-1-0.4-1.5h0c-0.1,0.5-0.2,1-0.4,1.5l-0.8,2.3H41.6z"/>
					<path style="fill:#2A91E9;" d="M45,175.6c0.5-0.1,1.2-0.2,2-0.2c1,0,1.8,0.2,2.3,0.7c0.4,0.4,0.7,1,0.7,1.7
						c0,0.7-0.2,1.3-0.6,1.7c-0.6,0.6-1.5,0.9-2.5,0.9c-0.3,0-0.6,0-0.8-0.1v3.2h-1V175.6z M46.1,179.5c0.2,0.1,0.5,0.1,0.9,0.1
						c1.3,0,2-0.6,2-1.7c0-1.1-0.8-1.6-1.9-1.6c-0.5,0-0.8,0-1,0.1V179.5z"/>
					<path style="fill:#2A91E9;" d="M52.4,175.5v8.1h-1.1v-8.1H52.4z"/>
					<path style="fill:#2A91E9;" d="M54.1,182.6c0.3,0.2,0.9,0.4,1.4,0.4c0.8,0,1.1-0.4,1.1-0.9c0-0.5-0.3-0.8-1.1-1.1
						c-1.1-0.4-1.5-0.9-1.5-1.6c0-0.9,0.8-1.7,2-1.7c0.6,0,1.1,0.2,1.4,0.4l-0.3,0.8c-0.2-0.1-0.6-0.3-1.2-0.3c-0.6,0-1,0.4-1,0.8
						c0,0.5,0.3,0.7,1.1,1c1,0.4,1.5,0.9,1.5,1.7c0,1-0.8,1.8-2.2,1.8c-0.6,0-1.2-0.2-1.6-0.4L54.1,182.6z"/>
				</g>
				<g>
					<g>
						<path style="fill:#E7EAF9;" d="M67.8,136.8H25.9c-1.5,0-2.6-1.2-2.6-2.6v-19.9c0-1.5,1.2-2.6,2.6-2.6h41.9
							c1.5,0,2.6,1.2,2.6,2.6v19.9C70.4,135.7,69.3,136.8,67.8,136.8z"/>
					</g>
					<g>
						<rect x="11.2" y="125.2" style="fill:#FFFFFF;" width="21" height="29.9"/>
					</g>
					<g>
						<path style="fill:#E7EAF9;" d="M31.9,152.8H13.6c-0.7,0-1.3-0.6-1.3-1.3v-23.8c0-0.7,0.6-1.3,1.3-1.3h18.4
							c0.7,0,1.3,0.6,1.3,1.3v23.8C33.3,152.2,32.7,152.8,31.9,152.8z"/>
					</g>
					<g>
						<rect x="66.4" y="135.9" style="fill:#E7EAF9;" width="13.9" height="18.3"/>
					</g>
					<g>
						<path style="fill:#3E487A;" d="M79.2,158.7H67.5c-1.2,0-2.1-0.9-2.1-2.1V137c0-1.1,1-2.1,2.1-2.1h11.7c1.1,0,2.1,1,2.1,2.1
							v19.7C81.3,157.7,80.3,158.7,79.2,158.7z M67.5,136.4c-0.3,0-0.6,0.2-0.6,0.6v19.7c0,0.3,0.2,0.6,0.6,0.6h11.7
							c0.3,0,0.6-0.3,0.6-0.6V137c0-0.3-0.3-0.6-0.6-0.6H67.5z M31.5,157.4H14c-1.6,0-2.9-1.3-2.9-2.9v-26.5c0-1.6,1.3-2.9,2.9-2.9
							h17.5h0c0,0,0,0,0,0c0.8,0,1.5,0.3,2.1,0.8c0.6,0.5,0.9,1.3,0.9,2v7.8h28.4c0.4,0,0.8,0.3,0.8,0.8s-0.3,0.8-0.8,0.8H34.4v7.1
							h28.4c0.4,0,0.8,0.3,0.8,0.8s-0.3,0.8-0.8,0.8h-7.6l1.2,4.1h5c1.2,0,2.1,1.1,2.1,2.4c0,1.3-0.9,2.4-2.1,2.4h-27
							C34.3,156.2,33,157.4,31.5,157.4z M14,126.7c-0.8,0-1.4,0.6-1.4,1.4v26.5c0,0.7,0.7,1.4,1.4,1.4h17.5c0.8,0,1.4-0.6,1.4-1.4
							v-26.5c0-0.7-0.7-1.4-1.4-1.4v0H14z M34.4,153.2h27c0.3,0,0.6-0.4,0.6-0.9c0-0.5-0.3-0.9-0.6-0.9h-5.6c-0.3,0-0.6-0.2-0.7-0.5
							l-1.5-5H40.2l-1.5,5c-0.1,0.3-0.4,0.5-0.7,0.5h-3.6V153.2z M34.4,150h3.1l1.2-4.1h-4.2V150z M79,155H67.7
							c-0.4,0-0.8-0.3-0.8-0.8s0.3-0.8,0.8-0.8H79c0.4,0,0.8,0.3,0.8,0.8S79.4,155,79,155z M31.6,153.3H14.2c-0.4,0-0.8-0.3-0.8-0.8
							s0.3-0.8,0.8-0.8h17.4c0.4,0,0.7,0.3,0.7,0.8S32,153.3,31.6,153.3z M74.1,133.4c-0.4,0-0.8-0.3-0.8-0.8V113
							c0-1.8-1.5-3.2-3.4-3.2H23.9c-1.9,0-3.4,1.5-3.4,3.2v10.8c0,0.4-0.3,0.8-0.8,0.8s-0.8-0.3-0.8-0.8V113c0-2.6,2.2-4.7,4.9-4.7
							H70c2.7,0,4.9,2.1,4.9,4.7v19.6C74.9,133.1,74.5,133.4,74.1,133.4z M70.4,133c-0.4,0-0.8-0.3-0.8-0.8v-18.9
							c0-0.2-0.2-0.4-0.5-0.4l-44.4,0c-0.3,0-0.5,0.2-0.5,0.4v10.4c0,0.4-0.3,0.8-0.8,0.8s-0.8-0.3-0.8-0.8v-10.4
							c0-1.1,0.9-1.9,2-1.9l44.4,0c1.1,0,2,0.9,2,1.9v18.9C71.1,132.7,70.8,133,70.4,133z"/>
					</g>
				</g>
			</g>
			<g>
				<path style="fill:#3E487A;" d="M24,154.1c0,0.5-0.4,1-1,1s-1-0.4-1-1s0.4-1,1-1S24,153.6,24,154.1z"/>
			</g>
			<g>
				<path style="fill:#3E487A;" d="M74.3,155.9c0,0.5-0.4,1-1,1c-0.6,0-1-0.4-1-1s0.4-1,1-1C73.8,154.9,74.3,155.4,74.3,155.9z"/>
			</g>
		</g>
	</g>
</g>
</svg>