<?xml version="1.0" encoding="utf-8"?>
<!-- Generator: Adobe Illustrator 24.1.1, SVG Export Plug-In . SVG Version: 6.00 Build 0)  -->
<svg version="1.1" id="Layer_1" xmlns="http://www.w3.org/2000/svg" xmlns:xlink="http://www.w3.org/1999/xlink" x="0px" y="0px"
	 viewBox="0 0 720 853.6" style="enable-background:new 0 0 720 853.6;" xml:space="preserve">
<g>
	<g>
		<rect x="-1.5" y="-1.7" style="fill:#F7F8FD;" width="723.6" height="856.2"/>
	</g>
	<g>
		<path style="fill:#3E487A;" d="M60,64.2h-6.6v-4.6h18.6v4.6h-6.6v19.7H60V64.2z"/>
		<path style="fill:#3E487A;" d="M75,59.9c1.8-0.3,4.4-0.5,7.3-0.5c3.6,0,6.1,0.5,7.8,1.9c1.5,1.2,2.3,2.9,2.3,5.1
			c0,3.1-2.2,5.2-4.3,5.9v0.1c1.7,0.7,2.6,2.3,3.2,4.5c0.8,2.8,1.5,5.9,1.9,6.9h-5.6c-0.4-0.7-1-2.7-1.7-5.7c-0.7-3.1-1.7-3.9-4-3.9
			h-1.6v9.5H75V59.9z M80.4,70.3h2.2c2.7,0,4.4-1.4,4.4-3.5c0-2.2-1.5-3.3-4-3.3c-1.3,0-2.1,0.1-2.5,0.2V70.3z"/>
		<path style="fill:#3E487A;" d="M102.3,77.6l-1.7,6.2h-5.7l7.4-24.3h7.2l7.6,24.3h-5.9l-1.9-6.2H102.3z M108.4,73.5l-1.5-5.1
			c-0.4-1.4-0.9-3.2-1.2-4.7h-0.1c-0.4,1.4-0.7,3.3-1.1,4.7l-1.4,5.1H108.4z"/>
		<path style="fill:#3E487A;" d="M120.3,59.9c2-0.3,4.6-0.5,7.4-0.5c4.6,0,7.7,0.9,10,2.6c2.5,1.9,4.1,4.9,4.1,9.1
			c0,4.6-1.7,7.8-4,9.8c-2.6,2.1-6.5,3.1-11.2,3.1c-2.8,0-4.9-0.2-6.2-0.4V59.9z M125.7,79.7c0.5,0.1,1.3,0.1,1.9,0.1
			c5,0,8.3-2.7,8.3-8.5c0-5-3-7.7-7.7-7.7c-1.2,0-2,0.1-2.5,0.2V79.7z"/>
		<path style="fill:#3E487A;" d="M150.8,59.6v24.3h-5.5V59.6H150.8z"/>
		<path style="fill:#3E487A;" d="M160.3,64.2h-6.6v-4.6h18.6v4.6h-6.6v19.7h-5.5V64.2z"/>
		<path style="fill:#3E487A;" d="M180.8,59.6v24.3h-5.5V59.6H180.8z"/>
		<path style="fill:#3E487A;" d="M207.8,71.5c0,8-4.8,12.8-11.9,12.8c-7.2,0-11.4-5.4-11.4-12.4c0-7.3,4.7-12.7,11.8-12.7
			C203.7,59.1,207.8,64.7,207.8,71.5z M190.2,71.7c0,4.8,2.2,8.1,5.9,8.1c3.7,0,5.8-3.5,5.8-8.2c0-4.4-2.1-8.1-5.8-8.1
			C192.4,63.5,190.2,67,190.2,71.7z"/>
		<path style="fill:#3E487A;" d="M211.4,83.8V59.6h6.4l5,8.9c1.4,2.6,2.8,5.6,4,8.3h0.1c-0.3-3.2-0.4-6.5-0.4-10.2v-7.1h5v24.3h-5.8
			l-5.2-9.4c-1.4-2.6-3.1-5.7-4.2-8.6h-0.1c0.2,3.2,0.3,6.7,0.3,10.6v7.3H211.4z"/>
		<path style="fill:#3E487A;" d="M241.9,77.6l-1.7,6.2h-5.7l7.4-24.3h7.2l7.6,24.3h-5.9l-1.9-6.2H241.9z M248,73.5l-1.5-5.1
			c-0.4-1.4-0.9-3.2-1.2-4.7h-0.1c-0.4,1.4-0.7,3.3-1.1,4.7l-1.4,5.1H248z"/>
		<path style="fill:#3E487A;" d="M259.9,59.6h5.5v19.7h9.6v4.6h-15.1V59.6z"/>
		<path style="fill:#3E487A;" d="M303.3,83.2c-1,0.5-3.3,1-6.2,1c-8.4,0-12.7-5.3-12.7-12.2c0-8.3,5.9-12.9,13.2-12.9
			c2.8,0,5,0.5,6,1.1l-1.2,4.3c-1.1-0.5-2.6-0.9-4.6-0.9c-4.3,0-7.7,2.6-7.7,8c0,4.9,2.9,7.9,7.7,7.9c1.7,0,3.5-0.3,4.6-0.8
			L303.3,83.2z"/>
		<path style="fill:#3E487A;" d="M327.4,74.6c-0.1-2.9-0.2-6.4-0.2-10h-0.1c-0.8,3.1-1.8,6.6-2.7,9.4l-3,9.5h-4.3l-2.6-9.4
			c-0.8-2.9-1.6-6.3-2.2-9.5h-0.1c-0.1,3.3-0.3,7-0.4,10l-0.5,9.2h-5.1l1.5-24.3h7.3l2.4,8.1c0.8,2.8,1.5,5.8,2.1,8.7h0.1
			c0.6-2.8,1.5-6,2.3-8.7l2.6-8.1h7.2l1.3,24.3h-5.3L327.4,74.6z"/>
		<path style="fill:#3E487A;" d="M337.5,78.2c1.4,0.8,3.7,1.5,6.1,1.5c2.5,0,3.9-1,3.9-2.6c0-1.5-1.2-2.4-4.1-3.4
			c-4-1.4-6.7-3.7-6.7-7.2c0-4.1,3.5-7.3,9.2-7.3c2.8,0,4.8,0.5,6.2,1.2l-1.2,4.4c-0.9-0.5-2.7-1.2-5-1.2c-2.4,0-3.5,1.1-3.5,2.3
			c0,1.5,1.3,2.2,4.5,3.4c4.3,1.6,6.3,3.8,6.3,7.2c0,4.1-3.1,7.5-9.8,7.5c-2.8,0-5.5-0.8-6.9-1.5L337.5,78.2z"/>
		<path style="fill:#3E487A;" d="M413.2,59.6v9.3h9v-9.3h5.5v24.3h-5.5V73.7h-9v10.2h-5.5V59.6H413.2z"/>
		<path style="fill:#3E487A;" d="M446.9,73.6H438v5.8h10v4.5h-15.4V59.6h14.9v4.5H438v5h8.9V73.6z"/>
		<path style="fill:#3E487A;" d="M457.4,77.6l-1.7,6.2H450l7.4-24.3h7.2l7.6,24.3h-5.9l-1.9-6.2H457.4z M463.5,73.5l-1.5-5.1
			c-0.4-1.4-0.9-3.2-1.2-4.7h-0.1c-0.4,1.4-0.7,3.3-1.1,4.7l-1.4,5.1H463.5z"/>
		<path style="fill:#3E487A;" d="M475.4,59.9c2-0.3,4.6-0.5,7.4-0.5c4.6,0,7.7,0.9,10,2.6c2.5,1.9,4.1,4.9,4.1,9.1
			c0,4.6-1.7,7.8-4,9.8c-2.6,2.1-6.5,3.1-11.2,3.1c-2.8,0-4.9-0.2-6.2-0.4V59.9z M480.8,79.7c0.5,0.1,1.3,0.1,1.9,0.1
			c5,0,8.3-2.7,8.3-8.5c0-5-3-7.7-7.7-7.7c-1.2,0-2,0.1-2.5,0.2V79.7z"/>
		<path style="fill:#3E487A;" d="M500.4,59.6h5.5v19.7h9.6v4.6h-15.1V59.6z"/>
		<path style="fill:#3E487A;" d="M533.2,73.6h-8.9v5.8h10v4.5h-15.4V59.6h14.9v4.5h-9.5v5h8.9V73.6z"/>
		<path style="fill:#3E487A;" d="M538.2,78.2c1.4,0.8,3.7,1.5,6.1,1.5c2.5,0,3.9-1,3.9-2.6c0-1.5-1.2-2.4-4.1-3.4
			c-4-1.4-6.7-3.7-6.7-7.2c0-4.1,3.5-7.3,9.2-7.3c2.8,0,4.8,0.5,6.2,1.2l-1.2,4.4c-0.9-0.5-2.7-1.2-5-1.2c-2.4,0-3.5,1.1-3.5,2.3
			c0,1.5,1.3,2.2,4.5,3.4c4.3,1.6,6.3,3.8,6.3,7.2c0,4.1-3.1,7.5-9.8,7.5c-2.8,0-5.5-0.8-6.9-1.5L538.2,78.2z"/>
		<path style="fill:#3E487A;" d="M557.7,78.2c1.4,0.8,3.7,1.5,6.1,1.5c2.5,0,3.9-1,3.9-2.6c0-1.5-1.2-2.4-4.1-3.4
			c-4-1.4-6.7-3.7-6.7-7.2c0-4.1,3.5-7.3,9.2-7.3c2.8,0,4.8,0.5,6.2,1.2l-1.2,4.4c-0.9-0.5-2.7-1.2-5-1.2c-2.4,0-3.5,1.1-3.5,2.3
			c0,1.5,1.3,2.2,4.5,3.4c4.3,1.6,6.3,3.8,6.3,7.2c0,4.1-3.1,7.5-9.8,7.5c-2.8,0-5.5-0.8-6.9-1.5L557.7,78.2z"/>
		<path style="fill:#3E487A;" d="M602,83.2c-1,0.5-3.3,1-6.2,1c-8.4,0-12.7-5.3-12.7-12.2c0-8.3,5.9-12.9,13.2-12.9
			c2.8,0,5,0.5,6,1.1l-1.2,4.3c-1.1-0.5-2.6-0.9-4.6-0.9c-4.3,0-7.7,2.6-7.7,8c0,4.9,2.9,7.9,7.7,7.9c1.7,0,3.5-0.3,4.6-0.8
			L602,83.2z"/>
		<path style="fill:#3E487A;" d="M626.1,74.6c-0.1-2.9-0.2-6.4-0.2-10h-0.1c-0.8,3.1-1.8,6.6-2.7,9.4l-3,9.5h-4.3l-2.6-9.4
			c-0.8-2.9-1.6-6.3-2.2-9.5H611c-0.1,3.3-0.3,7-0.4,10l-0.5,9.2h-5.1l1.5-24.3h7.3l2.4,8.1c0.8,2.8,1.5,5.8,2.1,8.7h0.1
			c0.6-2.8,1.5-6,2.3-8.7l2.6-8.1h7.2l1.3,24.3h-5.3L626.1,74.6z"/>
		<path style="fill:#3E487A;" d="M636.2,78.2c1.4,0.8,3.7,1.5,6.1,1.5c2.5,0,3.9-1,3.9-2.6c0-1.5-1.2-2.4-4.1-3.4
			c-4-1.4-6.7-3.7-6.7-7.2c0-4.1,3.5-7.3,9.2-7.3c2.8,0,4.8,0.5,6.2,1.2l-1.2,4.4c-0.9-0.5-2.7-1.2-5-1.2c-2.4,0-3.5,1.1-3.5,2.3
			c0,1.5,1.3,2.2,4.5,3.4c4.3,1.6,6.3,3.8,6.3,7.2c0,4.1-3.1,7.5-9.8,7.5c-2.8,0-5.5-0.8-6.9-1.5L636.2,78.2z"/>
	</g>
	<g>
		<path style="fill:#2A91E9;" d="M373.3,79.2L369,65.8h3.3l1.6,5.7c0.5,1.6,0.9,3.1,1.2,4.8h0.1c0.3-1.6,0.8-3.2,1.2-4.8l1.7-5.8
			h3.2l-4.5,13.5H373.3z"/>
		<path style="fill:#2A91E9;" d="M382.8,76.1c0.8,0.4,2.1,0.8,3.4,0.8c1.4,0,2.1-0.6,2.1-1.5c0-0.8-0.6-1.3-2.3-1.9
			c-2.2-0.8-3.7-2-3.7-4c0-2.3,1.9-4,5.1-4c1.5,0,2.6,0.3,3.4,0.7l-0.7,2.4c-0.5-0.3-1.5-0.6-2.8-0.6c-1.3,0-2,0.6-2,1.3
			c0,0.9,0.7,1.2,2.5,1.9c2.4,0.9,3.5,2.1,3.5,4c0,2.3-1.7,4.2-5.4,4.2c-1.5,0-3.1-0.4-3.8-0.8L382.8,76.1z"/>
	</g>
	<g>
		<path style="fill:#3E487A;" d="M55.7,632.9c-0.1-0.7-0.3-2-0.3-3.2c0-1.6,0.2-2.6,0.8-3.5c0.5-0.8,1.2-1.3,2.3-1.3
			c1.1,0,2.1,0.7,2.6,2h0.1c0.3-1.3,1.3-2.4,3-2.4c1.1,0,1.9,0.5,2.5,1.2c0.7,0.9,1.1,2.3,1.1,4.5c0,1.2-0.1,2.1-0.2,2.7H55.7z
			 M60.5,630.7v-1.1c0-1.5-0.7-2.4-1.7-2.4c-1.2,0-1.7,0.9-1.7,2.3c0,0.6,0,1,0.1,1.3H60.5z M66.1,630.7c0.1-0.3,0.1-0.7,0.1-1.2
			c0-1.4-0.5-2.7-2-2.7c-1.4,0-2,1.2-2,2.8v1.1H66.1z"/>
		<path style="fill:#3E487A;" d="M64.2,620.1l3.4,1v2.3l-12.1-3.9v-2.8l12.1-3.9v2.4l-3.4,1.1V620.1z M62.6,616.7l-3,1
			c-0.7,0.2-1.6,0.4-2.3,0.6v0c0.7,0.2,1.5,0.4,2.3,0.6l3,0.9V616.7z"/>
		<path style="fill:#3E487A;" d="M67.3,602.8c0.3,0.5,0.5,1.7,0.5,3.2c0,3.9-2.4,6.2-6.1,6.2c-4,0-6.4-2.8-6.4-6.5
			c0-1.5,0.3-2.5,0.5-2.9l1.8,0.5c-0.3,0.6-0.5,1.4-0.5,2.4c0,2.5,1.5,4.2,4.5,4.2c2.7,0,4.4-1.5,4.4-4.2c0-0.9-0.2-1.8-0.4-2.4
			L67.3,602.8z"/>
		<path style="fill:#3E487A;" d="M55.5,600.9v-2.2h5.6v-0.1c-0.5-0.3-0.9-0.6-1.3-0.9l-4.3-3.2v-2.7l5.2,4.2l7-4.4v2.6l-5.6,3.4
			l1.3,1.1h4.3v2.2H55.5z"/>
		<path style="fill:#3E487A;" d="M62.3,583.7v4.6h3.6v-5.1h1.8v7.3H55.5v-7.1h1.8v4.8h3.1v-4.6H62.3z"/>
		<path style="fill:#3E487A;" d="M67.7,581.2H55.5v-2.5l5.2-3.1c1.4-0.8,2.8-1.5,4.1-2.1v0c-1.6,0.2-3.2,0.2-5,0.2h-4.2v-2.1h12.1
			v2.3l-5.3,3.2c-1.3,0.8-2.8,1.6-4.2,2.2l0,0.1c1.6-0.1,3.2-0.1,5.2-0.1h4.3V581.2z"/>
		<path style="fill:#3E487A;" d="M55.7,569c-0.1-1-0.3-2.2-0.3-3.5c0-2.3,0.5-3.8,1.4-4.9c1-1.2,2.4-1.9,4.5-1.9
			c2.2,0,3.8,0.7,4.8,1.9c1.1,1.2,1.7,3.1,1.7,5.5c0,1.3-0.1,2.3-0.2,3H55.7z M66,566.8c0.1-0.3,0.1-0.8,0.1-1.2
			c0-2.9-1.6-4.6-4.7-4.6c-2.7,0-4.2,1.5-4.2,4.3c0,0.7,0.1,1.2,0.1,1.5H66z"/>
	</g>
	<g>
		<path style="fill:#3E487A;" d="M54.5,351.9v-7h1.8v4.8h3.3v-4.5h1.8v4.5h5.2v2.2H54.5z"/>
		<path style="fill:#3E487A;" d="M54.7,342.7c-0.2-0.8-0.3-2.1-0.3-3.3c0-1.7,0.3-2.9,1-3.7c0.6-0.7,1.4-1,2.4-1
			c1.6,0,2.6,1.1,3,2.2H61c0.3-0.9,1.2-1.4,2.3-1.7c1.5-0.4,2.9-0.7,3.4-1v2.3c-0.4,0.2-1.4,0.5-2.9,0.8c-1.6,0.4-2.1,0.9-2.1,2.2
			v1.1h5v2.2H54.7z M60.1,340.5v-1.3c0-1.5-0.8-2.4-2-2.4c-1.3,0-1.9,0.9-1.9,2.4c0,0.7,0.1,1.2,0.1,1.4H60.1z"/>
		<path style="fill:#3E487A;" d="M60.5,321.7c4.1,0,6.4,2.5,6.4,5.8c0,3.4-2.6,5.6-6.2,5.6c-3.7,0-6.4-2.4-6.4-5.8
			C54.3,323.8,57,321.7,60.5,321.7z M60.6,330.8c2.5,0,4.4-1.2,4.4-3.4c0-2.1-2-3.3-4.5-3.3c-2.3,0-4.4,1.1-4.4,3.3
			C56.1,329.6,58.1,330.8,60.6,330.8z"/>
		<path style="fill:#3E487A;" d="M66.7,319.8H54.5v-2.5l5.2-3.1c1.4-0.8,2.8-1.5,4.1-2.1v0c-1.6,0.2-3.2,0.2-5,0.2h-4.2v-2.1h12.1
			v2.3l-5.3,3.2c-1.3,0.8-2.8,1.6-4.2,2.2l0,0.1c1.6-0.1,3.2-0.1,5.2-0.1h4.3V319.8z"/>
		<path style="fill:#3E487A;" d="M56.4,305.3v3.5h-1.9v-9.2h1.9v3.5h10.3v2.2H56.4z"/>
		<path style="fill:#3E487A;" d="M61.3,291.4v4.6h3.6v-5.1h1.8v7.3H54.5v-7.1h1.8v4.8h3.1v-4.6H61.3z"/>
		<path style="fill:#3E487A;" d="M66.7,288.9H54.5v-2.5l5.2-3.1c1.4-0.8,2.8-1.5,4.1-2.1v0c-1.6,0.2-3.2,0.2-5,0.2h-4.2v-2.1h12.1
			v2.3l-5.3,3.2c-1.3,0.8-2.8,1.6-4.2,2.2l0,0.1c1.6-0.1,3.2-0.1,5.2-0.1h4.3V288.9z"/>
		<path style="fill:#3E487A;" d="M54.7,276.7c-0.1-1-0.3-2.2-0.3-3.5c0-2.3,0.5-3.8,1.4-4.9c1-1.2,2.4-1.9,4.5-1.9
			c2.2,0,3.8,0.7,4.8,1.9c1.1,1.2,1.7,3.1,1.7,5.5c0,1.3-0.1,2.3-0.2,3H54.7z M65,274.5c0.1-0.3,0.1-0.8,0.1-1.2
			c0-2.9-1.6-4.6-4.7-4.6c-2.7,0-4.2,1.5-4.2,4.3c0,0.7,0.1,1.2,0.1,1.5H65z"/>
	</g>
	<g>
		<g>
			<g>
				<g>
					<g>
						<g>
							<path style="fill:#FFFFFF;" d="M520.6,124.3h-28.4c-2.4,0-4.6,0.9-6.3,2.6l-20.1,20.1c-1.7,1.7-2.6,3.9-2.6,6.3v28.4
								c0,2.4,0.9,4.6,2.6,6.3l20.1,20.1c1.7,1.7,3.9,2.6,6.3,2.6h28.4c2.4,0,4.6-0.9,6.3-2.6l20.1-20.1c1.7-1.7,2.6-3.9,2.6-6.3
								v-28.4c0-2.4-0.9-4.6-2.6-6.3l-20.1-20.1C525.2,125.2,523,124.3,520.6,124.3z"/>
							<path style="fill:#2A91E9;" d="M520.6,211.5h-1.8c-0.6,0-1-0.4-1-1s0.4-1,1-1h1.8c0.4,0,0.7,0,1.1-0.1
								c0.6-0.1,1.1,0.3,1.1,0.9c0.1,0.5-0.3,1.1-0.9,1.1C521.5,211.5,521.1,211.5,520.6,211.5z M513.9,211.5h-3c-0.6,0-1-0.4-1-1
								s0.4-1,1-1h3c0.6,0,1,0.4,1,1S514.4,211.5,513.9,211.5z M505.9,211.5h-3c-0.6,0-1-0.4-1-1s0.4-1,1-1h3c0.6,0,1,0.4,1,1
								S506.4,211.5,505.9,211.5z M497.9,211.5h-3c-0.6,0-1-0.4-1-1s0.4-1,1-1h3c0.6,0,1,0.4,1,1S498.4,211.5,497.9,211.5z
								 M489.9,211.2c-0.1,0-0.2,0-0.3,0c-1.1-0.3-2.1-0.8-3-1.4c-0.5-0.3-0.6-0.9-0.3-1.4c0.3-0.5,0.9-0.6,1.4-0.3
								c0.7,0.5,1.5,0.9,2.4,1.1c0.5,0.1,0.8,0.7,0.7,1.2C490.7,210.9,490.3,211.2,489.9,211.2z M526.4,209.4
								c-0.3,0-0.6-0.1-0.8-0.4c-0.4-0.4-0.3-1.1,0.1-1.4c0.2-0.1,0.3-0.3,0.5-0.4l1.6-1.6c0.4-0.4,1-0.4,1.4,0c0.4,0.4,0.4,1,0,1.4
								l-1.6,1.6c-0.2,0.2-0.4,0.4-0.6,0.6C526.8,209.4,526.6,209.4,526.4,209.4z M483.6,206.5c-0.3,0-0.5-0.1-0.7-0.3l-2.1-2.1
								c-0.4-0.4-0.4-1,0-1.4c0.4-0.4,1-0.4,1.4,0l2.1,2.1c0.4,0.4,0.4,1,0,1.4C484.1,206.4,483.8,206.5,483.6,206.5z M532,203.8
								c-0.3,0-0.5-0.1-0.7-0.3c-0.4-0.4-0.4-1,0-1.4l2.1-2.1c0.4-0.4,1-0.4,1.4,0c0.4,0.4,0.4,1,0,1.4l-2.1,2.1
								C532.5,203.7,532.3,203.8,532,203.8z M477.9,200.9c-0.3,0-0.5-0.1-0.7-0.3l-2.1-2.1c-0.4-0.4-0.4-1,0-1.4
								c0.4-0.4,1-0.4,1.4,0l2.1,2.1c0.4,0.4,0.4,1,0,1.4C478.4,200.8,478.2,200.9,477.9,200.9z M537.7,198.1
								c-0.3,0-0.5-0.1-0.7-0.3c-0.4-0.4-0.4-1,0-1.4l2.1-2.1c0.4-0.4,1-0.4,1.4,0s0.4,1,0,1.4l-2.1,2.1
								C538.2,198,537.9,198.1,537.7,198.1z M472.2,195.2c-0.3,0-0.5-0.1-0.7-0.3l-2.1-2.1c-0.4-0.4-0.4-1,0-1.4
								c0.4-0.4,1-0.4,1.4,0l2.1,2.1c0.4,0.4,0.4,1,0,1.4C472.8,195.1,472.5,195.2,472.2,195.2z M543.4,192.5
								c-0.3,0-0.5-0.1-0.7-0.3c-0.4-0.4-0.4-1,0-1.4l2.1-2.1c0.4-0.4,1-0.4,1.4,0c0.4,0.4,0.4,1,0,1.4l-2.1,2.1
								C543.9,192.4,543.6,192.5,543.4,192.5z M466.6,189.5c-0.3,0-0.5-0.1-0.7-0.3l-0.7-0.7c-0.5-0.5-1-1.1-1.4-1.8
								c-0.3-0.5-0.1-1.1,0.3-1.4c0.5-0.3,1.1-0.1,1.4,0.3c0.3,0.5,0.7,1,1.1,1.4l0.7,0.7c0.4,0.4,0.4,1,0,1.4
								C467.1,189.4,466.8,189.5,466.6,189.5z M548.6,186.5c-0.1,0-0.3,0-0.4-0.1c-0.5-0.2-0.7-0.8-0.5-1.3c0.4-0.8,0.6-1.7,0.8-2.5
								c0.1-0.5,0.6-0.9,1.1-0.9c0.5,0.1,0.9,0.6,0.9,1.1c-0.1,1.1-0.5,2.2-0.9,3.2C549.4,186.3,549,186.5,548.6,186.5z
								 M463.3,182.5c-0.6,0-1-0.4-1-1v-3c0-0.6,0.4-1,1-1s1,0.4,1,1v3C464.3,182.1,463.9,182.5,463.3,182.5z M549.6,178.7
								c-0.6,0-1-0.4-1-1v-3c0-0.6,0.4-1,1-1s1,0.4,1,1v3C550.6,178.2,550.1,178.7,549.6,178.7z M463.3,174.5c-0.6,0-1-0.4-1-1v-3
								c0-0.6,0.4-1,1-1s1,0.4,1,1v3C464.3,174.1,463.9,174.5,463.3,174.5z M549.6,170.7c-0.6,0-1-0.4-1-1v-3c0-0.6,0.4-1,1-1
								s1,0.4,1,1v3C550.6,170.2,550.1,170.7,549.6,170.7z M463.3,166.5c-0.6,0-1-0.4-1-1v-3c0-0.6,0.4-1,1-1s1,0.4,1,1v3
								C464.3,166.1,463.9,166.5,463.3,166.5z M549.6,162.7c-0.6,0-1-0.4-1-1v-3c0-0.6,0.4-1,1-1s1,0.4,1,1v3
								C550.6,162.2,550.1,162.7,549.6,162.7z M463.3,158.5c-0.6,0-1-0.4-1-1v-3c0-0.6,0.4-1,1-1s1,0.4,1,1v3
								C464.3,158.1,463.9,158.5,463.3,158.5z M549.6,154.7c-0.6,0-1-0.4-1-1v-0.5c0-0.8-0.1-1.5-0.3-2.2c-0.2-0.5,0.1-1.1,0.7-1.2
								c0.5-0.2,1.1,0.1,1.2,0.7c0.3,0.9,0.4,1.8,0.4,2.8v0.5C550.6,154.2,550.1,154.7,549.6,154.7z M464.1,150.6
								c-0.1,0-0.3,0-0.4-0.1c-0.5-0.2-0.7-0.8-0.5-1.3c0.5-1,1.1-2,1.8-2.8c0.4-0.4,1-0.4,1.4,0c0.4,0.4,0.4,1,0,1.4
								c-0.6,0.7-1.1,1.4-1.5,2.2C464.8,150.4,464.4,150.6,464.1,150.6z M546.6,147.5c-0.3,0-0.5-0.1-0.7-0.3l-2.1-2.1
								c-0.4-0.4-0.4-1,0-1.4s1-0.4,1.4,0l2.1,2.1c0.4,0.4,0.4,1,0,1.4C547.1,147.4,546.8,147.5,546.6,147.5z M469.2,144.6
								c-0.3,0-0.5-0.1-0.7-0.3c-0.4-0.4-0.4-1,0-1.4l2.1-2.1c0.4-0.4,1-0.4,1.4,0c0.4,0.4,0.4,1,0,1.4l-2.1,2.1
								C469.8,144.5,469.5,144.6,469.2,144.6z M540.9,141.9c-0.3,0-0.5-0.1-0.7-0.3l-2.1-2.1c-0.4-0.4-0.4-1,0-1.4s1-0.4,1.4,0
								l2.1,2.1c0.4,0.4,0.4,1,0,1.4C541.4,141.8,541.2,141.9,540.9,141.9z M474.9,138.9c-0.3,0-0.5-0.1-0.7-0.3
								c-0.4-0.4-0.4-1,0-1.4l2.1-2.1c0.4-0.4,1-0.4,1.4,0s0.4,1,0,1.4l-2.1,2.1C475.4,138.8,475.2,138.9,474.9,138.9z M535.2,136.2
								c-0.3,0-0.5-0.1-0.7-0.3l-2.1-2.1c-0.4-0.4-0.4-1,0-1.4s1-0.4,1.4,0l2.1,2.1c0.4,0.4,0.4,1,0,1.4
								C535.8,136.1,535.5,136.2,535.2,136.2z M480.6,133.3c-0.3,0-0.5-0.1-0.7-0.3c-0.4-0.4-0.4-1,0-1.4l2.1-2.1
								c0.4-0.4,1-0.4,1.4,0c0.4,0.4,0.4,1,0,1.4l-2.1,2.1C481.1,133.2,480.8,133.3,480.6,133.3z M529.6,130.6
								c-0.3,0-0.5-0.1-0.7-0.3l-2.1-2.1c-0.4-0.4-0.4-1,0-1.4s1-0.4,1.4,0l2.1,2.1c0.4,0.4,0.4,1,0,1.4
								C530.1,130.5,529.8,130.6,529.6,130.6z M486.2,127.6c-0.3,0-0.5-0.1-0.7-0.3c-0.4-0.4-0.3-1,0.1-1.4c0.8-0.8,1.8-1.4,2.8-1.8
								c0.5-0.2,1.1,0,1.3,0.5c0.2,0.5,0,1.1-0.5,1.3c-0.8,0.4-1.6,0.8-2.2,1.4C486.7,127.5,486.5,127.6,486.2,127.6z M523.4,125.7
								c-0.1,0-0.2,0-0.3,0c-0.8-0.3-1.6-0.4-2.4-0.4h-3c-0.6,0-1-0.4-1-1s0.4-1,1-1h3c1,0,2.1,0.2,3,0.5c0.5,0.2,0.8,0.7,0.6,1.3
								C524.2,125.4,523.8,125.7,523.4,125.7z M512.6,125.3h-3c-0.6,0-1-0.4-1-1s0.4-1,1-1h3c0.6,0,1,0.4,1,1
								S513.2,125.3,512.6,125.3z M504.6,125.3h-3c-0.6,0-1-0.4-1-1s0.4-1,1-1h3c0.6,0,1,0.4,1,1S505.2,125.3,504.6,125.3z
								 M496.6,125.3h-3c-0.6,0-1-0.4-1-1s0.4-1,1-1h3c0.6,0,1,0.4,1,1S497.2,125.3,496.6,125.3z"/>
						</g>
					</g>
					<g>
						<g>
							<path style="fill:#3E487A;" d="M517.9,132.5c1.9,0,3.7,0.8,5.1,2.1l16.3,16.2c1.3,1.4,2.1,3.2,2.1,5.1v23
								c0,1.9-0.8,3.7-2.1,5.1L523,200.2c-1.4,1.3-3.2,2.1-5.1,2.1h-23c-1.9,0-3.7-0.8-5.1-2.1L473.6,184c-1.3-1.4-2.1-3.2-2.1-5.1
								v-23c0-1.9,0.8-3.7,2.1-5.1l16.2-16.2c1.4-1.3,3.2-2.1,5.1-2.1H517.9 M517.9,131h-23c-2.3,0-4.5,0.9-6.1,2.5l-16.2,16.2
								c-1.6,1.7-2.5,3.8-2.5,6.2v23c0,2.3,0.9,4.5,2.5,6.1l16.2,16.2c1.6,1.6,3.8,2.5,6.2,2.5h23c2.3,0,4.5-0.9,6.1-2.5l16.2-16.2
								c1.6-1.6,2.5-3.8,2.5-6.2v-23c0-2.3-0.9-4.5-2.5-6.1l-16.3-16.2C522.4,131.9,520.2,131,517.9,131L517.9,131z"/>
						</g>
					</g>
				</g>
			</g>
		</g>
		<g>
			<g>
				<path style="fill:#FFFFFF;" d="M512.3,147.4h-13.5c-1.1,0-2.2,0.4-3,1.2l-9.5,9.5c-0.8,0.8-1.2,1.9-1.2,3v13.5
					c0,1.1,0.4,2.2,1.2,3l9.5,9.5c0.8,0.8,1.9,1.2,3,1.2h13.5c1.1,0,2.2-0.4,3-1.2l9.5-9.5c0.8-0.8,1.2-1.9,1.2-3v-13.5
					c0-1.1-0.4-2.2-1.2-3l-9.5-9.5C514.5,147.9,513.4,147.4,512.3,147.4z"/>
			</g>
			<g>
				<path style="fill:#0F1015;" d="M514.8,187.6c-0.8,0.5-1.4,0.6-1.9,0.2c-0.1-0.1-0.3-0.2-0.3-0.3c-0.1-0.1-0.3-0.8-0.5-1.6
					c-0.3-1.3-0.4-1.4-0.5-1.4c-0.2-0.1-2-0.2-3.8-0.3l-0.6,0l0.2,0.3c0.4,0.6,0.7,1.4,1,2.3c0.1,0.4,0.2,0.7,0.2,0.7
					c0,0-2.1,0.6-2.1,0.6c0,0-0.1-0.3-0.2-0.6c-0.4-1.2-0.8-2.1-1.5-2.9l-0.3-0.4l-0.1,0.1c-0.2,0.1-0.6,0.6-0.9,1
					c-0.3,0.4-0.7,1.3-1,2.1c-0.1,0.3-0.2,0.6-0.2,0.6c0,0-2-0.7-2.1-0.7c-0.1,0,0.9-2.2,1.2-2.8c0,0,0,0-0.1,0
					c-0.1,0-0.6,0.1-1.1,0.1c-0.5,0.1-1,0.1-1,0.1c-0.1,0-0.2,0.2-0.7,1.6c-0.3,0.9-0.4,1-0.6,1.2c-0.4,0.3-1,0.5-1.4,0.3
					c0,0,1,0.8,2.5,0.7c1.9,0,13.7,0,13.7,0S513.8,188.4,514.8,187.6z M506.4,160.7c3.7,0.2,5.8,0.9,6.4,2.2
					c0.1,0.2,0.1,0.3,0.1,0.7c0,0.4,0,0.5-0.2,0.7c-0.2,0.4-0.6,0.8-1.1,1c-1,0.5-2.5,0.8-3.9,0.7c-1.2-0.1-2-0.3-3-0.7
					c-0.2-0.1-0.5-0.2-0.5-0.2c-0.1,0-0.3,0.1-0.5,0.2c-1,0.4-1.9,0.6-3.1,0.5c-1.8-0.1-3-0.6-3.4-1.5c-0.1-0.3-0.1-0.3-0.1-0.6
					c0.1-1.7,1.4-2.5,4.3-2.9C502.7,160.6,504.8,160.6,506.4,160.7z M521.4,181.1c0,0-0.3-0.1-0.5-0.2c-0.9-0.3-1.7-0.7-2.9-1.6
					c-1.7-1.3-2.4-1.6-3.6-1.8c-0.4-0.1-0.5-0.1-1,0c-0.5,0.1-1,0.2-1.6,0.3l-0.3,0.1l0,0.5c0,0.3,0,1.2,0.1,2.2l0,1.7l-0.2,0
					c-0.1,0-0.6-0.1-1.1-0.1c-3.3-0.3-7.2-0.2-10.5,0.2c-0.4,0.1-0.8,0.1-0.8,0.1c0,0,0-2.1,0.1-3.2c0.2-2.7,0.5-4.5,1.1-5.3
					c0.1-0.1,0.2-0.3,0.2-0.3c0,0-0.1-0.1-0.3-0.2c-0.2-0.1-0.5-0.3-0.8-0.4c-2.4-1.4-3.9-3.7-4.2-6.4c-0.1-0.7-0.1-2.1,0.1-2.9
					c0.6-3.6,2.6-6.6,5.7-8.3c1.1-0.6,2.7-1.1,4.7-1.3c0.7-0.1,2.8-0.1,3.5,0c3,0.4,5.7,1.7,8,3.8c0.5,0.5,0.6,0.7,0.6,1.1
					c0,0.5-0.1,0.7-0.9,1.4c-1,0.9-1.3,1.3-1.3,1.8c0,0.1,0.1,0.4,0.1,0.7c0.4,2,0.4,3.7-0.1,5.3c-0.2,0.6-0.5,1.3-0.9,1.9
					c-0.1,0.2-0.2,0.3-0.2,0.4c0,0,0.3,0,0.6-0.1c1.5-0.2,3,0,4.3,0.5c0.6,0.2,1.3,0.4,2,0.5c0.4,0.1,0.8,0.1,1.8,0.1
					c1.3,0,2-0.1,3-0.3c0,0,0,2.9,0,3.5c0,0.6-0.1,1-0.1,1c-1.8,0.4-3.9,0.3-5.3-0.1c-0.3-0.1-0.9-0.3-1.4-0.5
					c-1.5-0.6-2.2-0.8-3.3-0.9c-0.6-0.1-1.2-0.1-1.5,0c-0.4,0.1-0.4,0.1,0,0.1c0.8,0,1.7,0.2,2.7,0.6c0.7,0.3,1.2,0.5,2,1.1
					c1.7,1.1,3.2,1.7,5.6,1.8L521.4,181.1z M503.3,174.4c0.3,0.1,1,0.1,1.5,0.2l0.9,0.1l-1,1.2c-0.6,0.7-1,1.2-1,1.2
					c0,0-0.2-0.3-0.3-0.7c-0.2-0.4-0.4-1-0.6-1.4l-0.3-0.7l0.1,0C502.6,174.3,503,174.4,503.3,174.4z"/>
			</g>
			<g>
				<path style="fill:#FFFFFF;" d="M506.4,160.6c3.7,0.2,5.8,0.9,6.4,2.2c0.1,0.2,0.1,0.3,0.1,0.7c0,0.4,0,0.5-0.2,0.7
					c-0.2,0.4-0.6,0.8-1.1,1c-1,0.5-2.5,0.8-3.9,0.7c-1.2-0.1-2-0.3-3-0.7c-0.2-0.1-0.5-0.2-0.5-0.2c-0.1,0-0.3,0.1-0.5,0.2
					c-1,0.4-1.9,0.6-3.1,0.5c-1.8-0.1-3-0.6-3.4-1.5c-0.1-0.3-0.1-0.3-0.1-0.6c0.1-1.7,1.4-2.5,4.3-2.9
					C502.7,160.6,504.8,160.6,506.4,160.6z"/>
			</g>
			<g>
				<path style="fill:#FFFFFF;" d="M503.3,174.4c0.3,0.1,1,0.1,1.5,0.2l0.9,0.1l-1,1.2c-0.6,0.7-1,1.2-1,1.2c0,0-0.2-0.3-0.3-0.7
					c-0.2-0.4-0.4-1-0.6-1.4l-0.3-0.7l0.1,0C502.6,174.3,503,174.4,503.3,174.4z"/>
			</g>
			<g>
				<g>
					<path style="fill:#0F1015;" d="M500.2,162.1c-0.3,0.2-0.5,0.4-0.7,0.7c-0.1,0.2-0.1,0.3-0.1,0.6c0,0.6,0.3,1,0.8,1.2
						c0.3,0.2,0.9,0.2,1.2,0c0.3-0.1,0.6-0.4,0.7-0.7c0.2-0.3,0.1-0.9,0-1.2C501.7,162,500.9,161.7,500.2,162.1z"/>
				</g>
				<g>
					<path style="fill:#0F1015;" d="M507.6,162c-0.3,0.1-0.7,0.5-0.8,0.7c-0.3,0.7,0,1.5,0.7,1.9c0.2,0.1,0.3,0.1,0.6,0.1
						c0.3,0,0.4,0,0.6-0.1c0.7-0.3,1-1.2,0.7-1.9c-0.2-0.3-0.5-0.6-0.8-0.7C508.3,161.9,507.8,161.9,507.6,162z"/>
				</g>
			</g>
		</g>
	</g>
	<g>
		<path style="fill:#2A91E9;" d="M216.5,617.1c-0.6,0-1-0.4-1-1v-3c0-0.6,0.4-1,1-1s1,0.4,1,1v3
			C217.5,616.6,217.1,617.1,216.5,617.1z M216.5,609.1c-0.6,0-1-0.4-1-1v-3c0-0.6,0.4-1,1-1s1,0.4,1,1v3
			C217.5,608.6,217.1,609.1,216.5,609.1z M216.5,601.1c-0.6,0-1-0.4-1-1v-3c0-0.6,0.4-1,1-1s1,0.4,1,1v3
			C217.5,600.6,217.1,601.1,216.5,601.1z M216.5,593.1c-0.6,0-1-0.4-1-1v-3c0-0.6,0.4-1,1-1s1,0.4,1,1v3
			C217.5,592.6,217.1,593.1,216.5,593.1z M216.5,585.1c-0.6,0-1-0.4-1-1v-3c0-0.6,0.4-1,1-1s1,0.4,1,1v3
			C217.5,584.6,217.1,585.1,216.5,585.1z M216.5,577.1c-0.6,0-1-0.4-1-1v-3c0-0.6,0.4-1,1-1s1,0.4,1,1v3
			C217.5,576.6,217.1,577.1,216.5,577.1z M216.5,569.1c-0.6,0-1-0.4-1-1v-3c0-0.6,0.4-1,1-1s1,0.4,1,1v3
			C217.5,568.6,217.1,569.1,216.5,569.1z M216.5,561.1c-0.6,0-1-0.4-1-1v-3c0-0.6,0.4-1,1-1s1,0.4,1,1v3
			C217.5,560.6,217.1,561.1,216.5,561.1z M216.5,553.1c-0.6,0-1-0.4-1-1v-3c0-0.6,0.4-1,1-1s1,0.4,1,1v3
			C217.5,552.6,217.1,553.1,216.5,553.1z M216.5,545.1c-0.6,0-1-0.4-1-1v-3c0-0.6,0.4-1,1-1s1,0.4,1,1v3
			C217.5,544.6,217.1,545.1,216.5,545.1z M216.5,537.1c-0.6,0-1-0.4-1-1v-3c0-0.6,0.4-1,1-1s1,0.4,1,1v3
			C217.5,536.6,217.1,537.1,216.5,537.1z M216.5,529.1c-0.6,0-1-0.4-1-1v-3c0-0.6,0.4-1,1-1s1,0.4,1,1v3
			C217.5,528.6,217.1,529.1,216.5,529.1z M216.5,521.1c-0.6,0-1-0.4-1-1v-3c0-0.6,0.4-1,1-1s1,0.4,1,1v3
			C217.5,520.6,217.1,521.1,216.5,521.1z M216.5,513.1c-0.6,0-1-0.4-1-1v-3c0-0.6,0.4-1,1-1s1,0.4,1,1v3
			C217.5,512.6,217.1,513.1,216.5,513.1z M216.5,505.1c-0.6,0-1-0.4-1-1v-3c0-0.6,0.4-1,1-1s1,0.4,1,1v3
			C217.5,504.6,217.1,505.1,216.5,505.1z M216.5,497.1c-0.6,0-1-0.4-1-1v-3c0-0.6,0.4-1,1-1s1,0.4,1,1v3
			C217.5,496.6,217.1,497.1,216.5,497.1z M216.5,489.1c-0.6,0-1-0.4-1-1v-3c0-0.6,0.4-1,1-1s1,0.4,1,1v3
			C217.5,488.6,217.1,489.1,216.5,489.1z M216.5,481.1c-0.6,0-1-0.4-1-1v-3c0-0.6,0.4-1,1-1s1,0.4,1,1v3
			C217.5,480.6,217.1,481.1,216.5,481.1z M216.5,473.1c-0.6,0-1-0.4-1-1v-3c0-0.6,0.4-1,1-1s1,0.4,1,1v3
			C217.5,472.6,217.1,473.1,216.5,473.1z M216.5,465.1c-0.6,0-1-0.4-1-1v-3c0-0.6,0.4-1,1-1s1,0.4,1,1v3
			C217.5,464.6,217.1,465.1,216.5,465.1z M216.5,457.1c-0.6,0-1-0.4-1-1v-3c0-0.6,0.4-1,1-1s1,0.4,1,1v3
			C217.5,456.6,217.1,457.1,216.5,457.1z M216.5,449.1c-0.6,0-1-0.4-1-1v-3c0-0.6,0.4-1,1-1s1,0.4,1,1v3
			C217.5,448.6,217.1,449.1,216.5,449.1z M216.5,441.1c-0.6,0-1-0.4-1-1v-3c0-0.6,0.4-1,1-1s1,0.4,1,1v3
			C217.5,440.6,217.1,441.1,216.5,441.1z M216.5,433.1c-0.6,0-1-0.4-1-1v-3c0-0.6,0.4-1,1-1s1,0.4,1,1v3
			C217.5,432.6,217.1,433.1,216.5,433.1z M216.5,425.1c-0.6,0-1-0.4-1-1v-3c0-0.6,0.4-1,1-1s1,0.4,1,1v3
			C217.5,424.6,217.1,425.1,216.5,425.1z M216.5,417.1c-0.6,0-1-0.4-1-1v-3c0-0.6,0.4-1,1-1s1,0.4,1,1v3
			C217.5,416.6,217.1,417.1,216.5,417.1z M216.5,409.1c-0.6,0-1-0.4-1-1v-3c0-0.6,0.4-1,1-1s1,0.4,1,1v3
			C217.5,408.6,217.1,409.1,216.5,409.1z M216.5,401.1c-0.6,0-1-0.4-1-1v-3c0-0.6,0.4-1,1-1s1,0.4,1,1v3
			C217.5,400.6,217.1,401.1,216.5,401.1z M216.5,393.1c-0.6,0-1-0.4-1-1v-3c0-0.6,0.4-1,1-1s1,0.4,1,1v3
			C217.5,392.6,217.1,393.1,216.5,393.1z M216.5,385.1c-0.6,0-1-0.4-1-1v-3c0-0.6,0.4-1,1-1s1,0.4,1,1v3
			C217.5,384.6,217.1,385.1,216.5,385.1z M216.5,377.1c-0.6,0-1-0.4-1-1v-3c0-0.6,0.4-1,1-1s1,0.4,1,1v3
			C217.5,376.6,217.1,377.1,216.5,377.1z M216.5,369.1c-0.6,0-1-0.4-1-1v-3c0-0.6,0.4-1,1-1s1,0.4,1,1v3
			C217.5,368.6,217.1,369.1,216.5,369.1z M216.5,361.1c-0.6,0-1-0.4-1-1v-3c0-0.6,0.4-1,1-1s1,0.4,1,1v3
			C217.5,360.6,217.1,361.1,216.5,361.1z M216.5,353.1c-0.6,0-1-0.4-1-1v-3c0-0.6,0.4-1,1-1s1,0.4,1,1v3
			C217.5,352.6,217.1,353.1,216.5,353.1z M216.5,345.1c-0.6,0-1-0.4-1-1v-3c0-0.6,0.4-1,1-1s1,0.4,1,1v3
			C217.5,344.6,217.1,345.1,216.5,345.1z M216.5,337.1c-0.6,0-1-0.4-1-1v-3c0-0.6,0.4-1,1-1s1,0.4,1,1v3
			C217.5,336.6,217.1,337.1,216.5,337.1z"/>
	</g>
	<g>
		<path style="fill:#FFFFFF;" d="M168.4,709.7c1.2-0.2,2.6-0.3,4.1-0.3c2.6,0,4.5,0.5,5.8,1.6c1.4,1.1,2.2,2.8,2.2,5.2
			c0,2.5-0.9,4.4-2.2,5.6c-1.4,1.3-3.7,1.9-6.4,1.9c-1.5,0-2.6-0.1-3.5-0.2V709.7z M171,721.7c0.4,0.1,0.9,0.1,1.4,0.1
			c3.4,0,5.4-1.8,5.4-5.4c0-3.1-1.8-4.9-5-4.9c-0.8,0-1.4,0.1-1.8,0.1V721.7z"/>
		<path style="fill:#FFFFFF;" d="M185.3,719.7l-1.2,4h-2.7l4.5-14.2h3.3l4.6,14.2h-2.8l-1.3-4H185.3z M189.4,717.7l-1.1-3.5
			c-0.3-0.9-0.5-1.8-0.7-2.6h0c-0.2,0.8-0.4,1.8-0.7,2.6l-1.1,3.5H189.4z"/>
		<path style="fill:#FFFFFF;" d="M196.8,711.7h-4v-2.2h10.7v2.2h-4.1v12h-2.6V711.7z"/>
		<path style="fill:#FFFFFF;" d="M206.5,719.7l-1.2,4h-2.7l4.5-14.2h3.3l4.6,14.2h-2.8l-1.3-4H206.5z M210.5,717.7l-1.1-3.5
			c-0.3-0.9-0.5-1.8-0.7-2.6h0c-0.2,0.8-0.4,1.8-0.7,2.6l-1.1,3.5H210.5z"/>
		<path style="fill:#FFFFFF;" d="M217,709.8c0.8-0.2,2.3-0.3,3.8-0.3c1.9,0,3.1,0.3,4,0.9c0.9,0.5,1.5,1.4,1.5,2.7
			c0,1.3-0.8,2.5-2.4,3v0.1c1.5,0.4,2.9,1.6,2.9,3.5c0,1.3-0.5,2.2-1.3,2.9c-1,0.9-2.7,1.3-5.3,1.3c-1.4,0-2.5-0.1-3.2-0.2V709.8z
			 M219.5,715.3h1.3c1.8,0,2.8-0.8,2.8-2c0-1.3-1-2-2.6-2c-0.8,0-1.2,0-1.5,0.1V715.3z M219.5,721.8c0.3,0.1,0.8,0.1,1.4,0.1
			c1.7,0,3.1-0.6,3.1-2.4c0-1.7-1.4-2.3-3.2-2.3h-1.3V721.8z"/>
		<path style="fill:#FFFFFF;" d="M231.8,719.7l-1.2,4H228l4.5-14.2h3.3l4.6,14.2h-2.8l-1.3-4H231.8z M235.9,717.7l-1.1-3.5
			c-0.3-0.9-0.5-1.8-0.7-2.6h0c-0.2,0.8-0.4,1.8-0.7,2.6l-1.1,3.5H235.9z"/>
		<path style="fill:#FFFFFF;" d="M242.3,720.9c0.8,0.5,2.1,0.9,3.4,0.9c1.6,0,2.6-0.8,2.6-1.9c0-1.1-0.7-1.7-2.5-2.4
			c-2.4-0.8-3.8-2.1-3.8-4.1c0-2.3,1.9-4.1,5-4.1c1.5,0,2.6,0.3,3.4,0.7l-0.6,2.1c-0.5-0.3-1.5-0.7-2.8-0.7c-1.6,0-2.3,0.9-2.3,1.7
			c0,1.1,0.8,1.6,2.7,2.3c2.5,0.9,3.6,2.2,3.6,4.2c0,2.3-1.7,4.3-5.4,4.3c-1.5,0-3.1-0.4-3.8-0.9L242.3,720.9z"/>
		<path style="fill:#FFFFFF;" d="M261.2,717.4h-5.3v4.2h6v2.1h-8.5v-14.2h8.2v2.1h-5.6v3.7h5.3V717.4z"/>
	</g>
	<g>
		<g>
			<path style="fill:#E7EAF9;" d="M321,336.5H110.2c-1.4,0-2.6-1.2-2.6-2.6v-56.7c0-1.4,1.2-2.6,2.6-2.6H321c1.4,0,2.6,1.2,2.6,2.6
				v56.7C323.5,335.3,322.4,336.5,321,336.5z"/>
			<path style="fill:#5059C9;" d="M321,337.2H110.2c-1.8,0-3.3-1.5-3.3-3.3v-56.7c0-1.8,1.5-3.3,3.3-3.3H321c1.8,0,3.3,1.5,3.3,3.3
				v56.7C324.3,335.7,322.8,337.2,321,337.2z M110.2,275.4c-1,0-1.8,0.8-1.8,1.8v56.7c0,1,0.8,1.8,1.8,1.8H321c1,0,1.8-0.8,1.8-1.8
				v-56.7c0-1-0.8-1.8-1.8-1.8H110.2z"/>
		</g>
		<g>
			<path style="fill:#3E487A;" d="M171,297.4c0.8-0.2,2.3-0.3,3.8-0.3c1.9,0,3.1,0.3,4,0.9c0.9,0.5,1.5,1.4,1.5,2.7
				c0,1.3-0.8,2.5-2.4,3v0.1c1.5,0.4,2.9,1.6,2.9,3.5c0,1.3-0.5,2.2-1.3,2.9c-1,0.9-2.7,1.3-5.3,1.3c-1.4,0-2.5-0.1-3.2-0.2V297.4z
				 M173.5,302.9h1.3c1.8,0,2.8-0.8,2.8-2c0-1.3-1-2-2.6-2c-0.8,0-1.2,0-1.5,0.1V302.9z M173.5,309.4c0.3,0.1,0.8,0.1,1.4,0.1
				c1.7,0,3.1-0.6,3.1-2.4c0-1.7-1.4-2.3-3.2-2.3h-1.3V309.4z"/>
			<path style="fill:#3E487A;" d="M183.1,297.4c1-0.2,2.4-0.3,3.9-0.3c2,0,3.4,0.3,4.4,1.1c0.8,0.7,1.2,1.6,1.2,2.9
				c0,1.8-1.2,3.1-2.6,3.5v0.1c1,0.4,1.6,1.4,2,2.7c0.5,1.8,0.8,3.4,1.1,3.9h-2.6c-0.2-0.4-0.6-1.6-0.9-3.3
				c-0.4-1.8-1.1-2.4-2.5-2.5h-1.3v5.8h-2.6V297.4z M185.6,303.6h1.5c1.7,0,2.8-0.9,2.8-2.3c0-1.5-1.1-2.3-2.8-2.3
				c-0.8,0-1.3,0.1-1.6,0.1V303.6z"/>
			<path style="fill:#3E487A;" d="M207.6,304.1c0,4.7-2.9,7.5-6.8,7.5c-4,0-6.5-3.1-6.5-7.2c0-4.4,2.8-7.4,6.7-7.4
				C205.1,296.9,207.6,300,207.6,304.1z M197,304.3c0,2.9,1.4,5.2,3.9,5.2c2.5,0,3.9-2.3,3.9-5.3c0-2.7-1.3-5.2-3.9-5.2
				C198.4,299,197,301.3,197,304.3z"/>
			<path style="fill:#3E487A;" d="M212,311.3l-3.5-14.2h2.8l1.3,6.4c0.4,1.7,0.7,3.5,0.9,4.9h0c0.2-1.5,0.6-3.2,1-5l1.5-6.4h2.7
				l1.4,6.5c0.3,1.7,0.7,3.3,0.9,4.8h0c0.3-1.6,0.6-3.2,1-4.9l1.5-6.4h2.6l-3.8,14.2h-2.8l-1.5-6.7c-0.4-1.6-0.6-3-0.8-4.5h0
				c-0.2,1.5-0.5,2.9-0.9,4.5l-1.6,6.7H212z"/>
			<path style="fill:#3E487A;" d="M227.9,308.5c0.8,0.5,2.1,0.9,3.4,0.9c1.6,0,2.6-0.8,2.6-1.9c0-1.1-0.7-1.7-2.5-2.4
				c-2.4-0.8-3.8-2.1-3.8-4.1c0-2.3,1.9-4.1,5-4.1c1.5,0,2.6,0.3,3.4,0.7l-0.6,2.1c-0.5-0.3-1.5-0.7-2.8-0.7c-1.6,0-2.3,0.9-2.3,1.7
				c0,1.1,0.8,1.6,2.7,2.3c2.5,0.9,3.6,2.2,3.6,4.2c0,2.3-1.7,4.3-5.4,4.3c-1.5,0-3.1-0.4-3.8-0.9L227.9,308.5z"/>
			<path style="fill:#3E487A;" d="M246.7,305h-5.3v4.2h6v2.1h-8.5v-14.2h8.2v2.1h-5.6v3.7h5.3V305z"/>
			<path style="fill:#3E487A;" d="M249.6,297.4c1-0.2,2.4-0.3,3.9-0.3c2,0,3.4,0.3,4.4,1.1c0.8,0.7,1.2,1.6,1.2,2.9
				c0,1.8-1.2,3.1-2.6,3.5v0.1c1,0.4,1.6,1.4,2,2.7c0.5,1.8,0.8,3.4,1.1,3.9H257c-0.2-0.4-0.6-1.6-0.9-3.3c-0.4-1.8-1.1-2.4-2.5-2.5
				h-1.3v5.8h-2.6V297.4z M252.2,303.6h1.5c1.7,0,2.8-0.9,2.8-2.3c0-1.5-1.1-2.3-2.8-2.3c-0.8,0-1.3,0.1-1.6,0.1V303.6z"/>
		</g>
	</g>
	<g>
		<path style="fill:#FFFFFF;" d="M322,778.7H109.2c-2.3,0-4.2-1.9-4.2-4.2V451c0-2.3,1.9-4.2,4.2-4.2H322c2.3,0,4.2,1.9,4.2,4.2
			v323.5C326.2,776.8,324.3,778.7,322,778.7z"/>
		<path style="fill:#2A91E9;" d="M322,779.4H109.2c-2.7,0-5-2.2-5-5V451c0-2.7,2.2-5,5-5H322c2.7,0,5,2.2,5,5v323.5
			C326.9,777.2,324.7,779.4,322,779.4z M109.2,447.6c-1.9,0-3.5,1.5-3.5,3.5v323.5c0,1.9,1.5,3.5,3.5,3.5H322c1.9,0,3.5-1.5,3.5-3.5
			V451c0-1.9-1.5-3.5-3.5-3.5H109.2z"/>
	</g>
	<g>
		<path style="fill:#3E487A;" d="M132.4,475.9h-5v-2.7h13.2v2.7h-5v14.8h-3.2V475.9z"/>
		<path style="fill:#3E487A;" d="M141.2,482.2c0-1.7,0-3-0.1-4.1h2.8l0.1,2.4h0.1c0.6-1.8,2.1-2.7,3.5-2.7c0.3,0,0.5,0,0.8,0.1v3
			c-0.3-0.1-0.6-0.1-1-0.1c-1.5,0-2.6,1-2.9,2.4c-0.1,0.3-0.1,0.6-0.1,1v6.6h-3.2V482.2z"/>
		<path style="fill:#3E487A;" d="M160.1,487.7c0,1.1,0.1,2.3,0.2,3h-2.9l-0.2-1.4h-0.1c-0.8,1-2.1,1.7-3.7,1.7c-2.5,0-4-1.8-4-3.8
			c0-3.2,2.8-4.8,7.5-4.8v-0.2c0-0.8-0.3-2.2-2.6-2.2c-1.2,0-2.5,0.4-3.4,0.9l-0.6-2.1c0.9-0.6,2.6-1.1,4.6-1.1
			c4.1,0,5.2,2.6,5.2,5.4V487.7z M157,484.6c-2.3,0-4.4,0.4-4.4,2.4c0,1.2,0.8,1.8,1.8,1.8c1.3,0,2.2-0.8,2.5-1.7
			c0.1-0.2,0.1-0.5,0.1-0.7V484.6z"/>
		<path style="fill:#3E487A;" d="M175.1,472.3v14.9c0,1.3,0.1,2.7,0.1,3.6h-2.8l-0.2-2h-0.1c-0.8,1.4-2.3,2.3-4.1,2.3
			c-3,0-5.4-2.6-5.4-6.5c0-4.2,2.6-6.8,5.7-6.8c1.7,0,3,0.7,3.6,1.6h0.1v-7.1H175.1z M171.9,483.4c0-0.3,0-0.6-0.1-0.9
			c-0.3-1.2-1.3-2.2-2.8-2.2c-2.1,0-3.2,1.8-3.2,4.2c0,2.3,1.1,4,3.2,4c1.3,0,2.4-0.9,2.8-2.3c0.1-0.3,0.1-0.6,0.1-0.9V483.4z"/>
		<path style="fill:#3E487A;" d="M182,474.6c0,0.9-0.7,1.7-1.8,1.7c-1.1,0-1.8-0.8-1.8-1.7c0-1,0.7-1.7,1.8-1.7
			C181.3,472.8,181.9,473.6,182,474.6z M178.6,490.8v-12.7h3.2v12.7H178.6z"/>
		<path style="fill:#3E487A;" d="M188.9,474.9v3.3h3v2.4h-3v5.6c0,1.6,0.4,2.3,1.6,2.3c0.6,0,0.9,0,1.2-0.1l0.1,2.4
			c-0.5,0.2-1.3,0.3-2.3,0.3c-1.2,0-2.2-0.4-2.8-1c-0.7-0.7-1-1.9-1-3.6v-6h-1.8v-2.4h1.8v-2.4L188.9,474.9z"/>
		<path style="fill:#3E487A;" d="M197.8,474.6c0,0.9-0.7,1.7-1.8,1.7c-1.1,0-1.8-0.8-1.8-1.7c0-1,0.7-1.7,1.8-1.7
			C197.1,472.8,197.7,473.6,197.8,474.6z M194.3,490.8v-12.7h3.2v12.7H194.3z"/>
		<path style="fill:#3E487A;" d="M213,484.3c0,4.7-3.3,6.7-6.5,6.7c-3.6,0-6.3-2.4-6.3-6.5c0-4.2,2.7-6.7,6.6-6.7
			C210.5,477.8,213,480.5,213,484.3z M203.5,484.5c0,2.4,1.2,4.3,3.1,4.3c1.8,0,3.1-1.8,3.1-4.3c0-2-0.9-4.3-3.1-4.3
			C204.4,480.1,203.5,482.4,203.5,484.5z"/>
		<path style="fill:#3E487A;" d="M215.7,481.9c0-1.5-0.1-2.7-0.1-3.8h2.8l0.2,1.9h0.1c0.6-1,2-2.2,4.1-2.2c2.2,0,4.5,1.4,4.5,5.4
			v7.5h-3.2v-7.2c0-1.8-0.7-3.2-2.4-3.2c-1.3,0-2.2,0.9-2.5,1.9c-0.1,0.3-0.2,0.6-0.2,1v7.5h-3.2V481.9z"/>
		<path style="fill:#3E487A;" d="M240.4,487.7c0,1.1,0.1,2.3,0.2,3h-2.9l-0.2-1.4h-0.1c-0.8,1-2.1,1.7-3.7,1.7c-2.5,0-4-1.8-4-3.8
			c0-3.2,2.8-4.8,7.5-4.8v-0.2c0-0.8-0.3-2.2-2.6-2.2c-1.2,0-2.5,0.4-3.4,0.9l-0.6-2.1c0.9-0.6,2.6-1.1,4.6-1.1
			c4.1,0,5.2,2.6,5.2,5.4V487.7z M237.2,484.6c-2.3,0-4.4,0.4-4.4,2.4c0,1.2,0.8,1.8,1.8,1.8c1.3,0,2.2-0.8,2.5-1.7
			c0.1-0.2,0.1-0.5,0.1-0.7V484.6z"/>
		<path style="fill:#3E487A;" d="M243.7,472.3h3.2v18.5h-3.2V472.3z"/>
		<path style="fill:#3E487A;" d="M268.5,490.3c-0.8,0.4-2.4,0.8-4.5,0.8c-5.6,0-8.9-3.5-8.9-8.8c0-5.8,4-9.3,9.4-9.3
			c2.1,0,3.6,0.4,4.2,0.8l-0.7,2.5c-0.8-0.4-2-0.7-3.4-0.7c-3.6,0-6.1,2.2-6.1,6.4c0,3.9,2.2,6.3,6.1,6.3c1.3,0,2.6-0.3,3.5-0.6
			L268.5,490.3z"/>
		<path style="fill:#3E487A;" d="M286,483.6c-0.1-2.3-0.2-5-0.2-7.4h-0.1c-0.6,2.1-1.3,4.5-2.1,6.7l-2.6,7.6h-2.4l-2.3-7.5
			c-0.7-2.2-1.3-4.6-1.8-6.8h-0.1c-0.1,2.3-0.2,5.1-0.3,7.5l-0.4,7h-3l1.2-17.5h4.2l2.3,7c0.6,2.1,1.2,4.1,1.6,6.1h0.1
			c0.5-1.9,1.1-4.1,1.7-6.1l2.4-7h4.2l1,17.5h-3.1L286,483.6z"/>
		<path style="fill:#3E487A;" d="M292.7,487.3c1,0.6,2.6,1.1,4.2,1.1c2,0,3.2-1,3.2-2.4c0-1.3-0.9-2.1-3.1-2.9
			c-2.9-1-4.8-2.6-4.8-5.1c0-2.9,2.4-5,6.2-5c1.9,0,3.3,0.4,4.2,0.9l-0.8,2.6c-0.6-0.3-1.9-0.8-3.5-0.8c-2,0-2.9,1.1-2.9,2.1
			c0,1.4,1,2,3.4,2.9c3,1.1,4.5,2.7,4.5,5.2c0,2.8-2.1,5.3-6.6,5.3c-1.9,0-3.8-0.5-4.8-1.1L292.7,487.3z"/>
	</g>
	<g>
		<g>
			<path style="fill:#FFFFFF;" d="M298.9,624.8H132.3c-1.1,0-2-0.9-2-2v-42.9c0-1.1,0.9-2,2-2h166.6c1.1,0,2,0.9,2,2v42.9
				C300.9,623.9,300,624.8,298.9,624.8z"/>
			<path style="fill:#2A91E9;" d="M298.9,625.6H132.3c-1.5,0-2.8-1.2-2.8-2.8v-42.9c0-1.5,1.2-2.8,2.8-2.8h166.6
				c1.5,0,2.8,1.2,2.8,2.8v42.9C301.7,624.3,300.4,625.6,298.9,625.6z M132.3,578.6c-0.7,0-1.3,0.6-1.3,1.3v42.9
				c0,0.7,0.6,1.3,1.3,1.3h166.6c0.7,0,1.3-0.6,1.3-1.3v-42.9c0-0.7-0.6-1.3-1.3-1.3H132.3z"/>
		</g>
		<g>
			<path style="fill:#3E487A;" d="M200.6,605.7l-3.5-10.7h2.1l1.5,4.9c0.4,1.4,0.8,2.6,1.1,3.9h0c0.3-1.3,0.7-2.6,1.1-3.9l1.6-4.9
				h2.1l-3.7,10.7H200.6z"/>
			<path style="fill:#3E487A;" d="M209.7,595v10.7h-2V595H209.7z"/>
			<path style="fill:#3E487A;" d="M217.9,601h-4v3.2h4.5v1.6h-6.5V595h6.2v1.6h-4.3v2.8h4V601z"/>
			<path style="fill:#3E487A;" d="M222,605.7l-2.6-10.7h2.1l1,4.9c0.3,1.3,0.5,2.7,0.7,3.7h0c0.2-1.1,0.5-2.4,0.8-3.8l1.2-4.9h2.1
				l1.1,4.9c0.3,1.3,0.5,2.5,0.7,3.6h0c0.2-1.2,0.4-2.4,0.7-3.7l1.1-4.8h2l-2.9,10.7h-2.1l-1.1-5c-0.3-1.2-0.5-2.2-0.6-3.4h0
				c-0.2,1.1-0.4,2.2-0.7,3.4l-1.2,5H222z"/>
		</g>
	</g>
	<g>
		<g>
			<path style="fill:#FFFFFF;" d="M298.9,688H132.3c-1.1,0-2-0.9-2-2v-42.9c0-1.1,0.9-2,2-2h166.6c1.1,0,2,0.9,2,2V686
				C300.9,687.1,300,688,298.9,688z"/>
			<path style="fill:#2A91E9;" d="M298.9,688.8H132.3c-1.5,0-2.8-1.2-2.8-2.8v-42.9c0-1.5,1.2-2.8,2.8-2.8h166.6
				c1.5,0,2.8,1.2,2.8,2.8V686C301.7,687.5,300.4,688.8,298.9,688.8z M132.3,641.8c-0.7,0-1.3,0.6-1.3,1.3V686
				c0,0.7,0.6,1.3,1.3,1.3h166.6c0.7,0,1.3-0.6,1.3-1.3v-42.9c0-0.7-0.6-1.3-1.3-1.3H132.3z"/>
		</g>
		<g>
			<path style="fill:#3E487A;" d="M177.5,668.6c-0.5,0.2-1.5,0.5-2.8,0.5c-3.4,0-5.5-2.1-5.5-5.4c0-3.5,2.5-5.7,5.8-5.7
				c1.3,0,2.2,0.3,2.6,0.5l-0.4,1.6c-0.5-0.2-1.2-0.4-2.1-0.4c-2.2,0-3.8,1.4-3.8,4c0,2.4,1.4,3.9,3.7,3.9c0.8,0,1.6-0.2,2.1-0.4
				L177.5,668.6z"/>
			<path style="fill:#3E487A;" d="M188.3,663.4c0,3.6-2.2,5.7-5.1,5.7c-3,0-5-2.3-5-5.5c0-3.3,2.1-5.6,5.1-5.6
				C186.5,658,188.3,660.4,188.3,663.4z M180.3,663.6c0,2.2,1.1,3.9,3,3.9c1.9,0,3-1.8,3-4c0-2-1-3.9-3-3.9
				C181.3,659.6,180.3,661.4,180.3,663.6z"/>
			<path style="fill:#3E487A;" d="M190,668.9v-10.7h2.2l2.8,4.6c0.7,1.2,1.3,2.4,1.8,3.6h0c-0.1-1.4-0.2-2.8-0.2-4.5v-3.7h1.8v10.7
				h-2l-2.8-4.7c-0.7-1.2-1.4-2.5-1.9-3.7l-0.1,0c0.1,1.4,0.1,2.8,0.1,4.6v3.8H190z"/>
			<path style="fill:#3E487A;" d="M202.8,659.8h-3.1v-1.6h8.1v1.6h-3.1v9.1h-2V659.8z"/>
			<path style="fill:#3E487A;" d="M209.1,658.3c0.7-0.1,1.8-0.2,3-0.2c1.5,0,2.6,0.3,3.3,0.9c0.6,0.5,0.9,1.2,0.9,2.2
				c0,1.4-0.9,2.3-2,2.7v0c0.8,0.3,1.2,1,1.5,2.1c0.4,1.3,0.6,2.6,0.8,3h-2c-0.2-0.3-0.4-1.2-0.7-2.5c-0.3-1.4-0.8-1.8-1.9-1.9h-1
				v4.4h-1.9V658.3z M211.1,663.1h1.2c1.3,0,2.1-0.7,2.1-1.8c0-1.2-0.8-1.7-2.1-1.7c-0.6,0-1,0-1.2,0.1V663.1z"/>
			<path style="fill:#3E487A;" d="M227.7,663.4c0,3.6-2.2,5.7-5.1,5.7c-3,0-5-2.3-5-5.5c0-3.3,2.1-5.6,5.1-5.6
				C225.9,658,227.7,660.4,227.7,663.4z M219.7,663.6c0,2.2,1.1,3.9,3,3.9c1.9,0,3-1.8,3-4c0-2-1-3.9-3-3.9
				C220.7,659.6,219.7,661.4,219.7,663.6z"/>
			<path style="fill:#3E487A;" d="M229.4,658.2h2v9.1h4.4v1.6h-6.4V658.2z"/>
			<path style="fill:#3E487A;" d="M237.2,658.2h2v9.1h4.4v1.6h-6.4V658.2z"/>
			<path style="fill:#3E487A;" d="M251.1,664.2h-4v3.2h4.5v1.6h-6.5v-10.7h6.2v1.6h-4.3v2.8h4V664.2z"/>
			<path style="fill:#3E487A;" d="M253.3,658.3c0.7-0.1,1.8-0.2,3-0.2c1.5,0,2.6,0.3,3.3,0.9c0.6,0.5,0.9,1.2,0.9,2.2
				c0,1.4-0.9,2.3-2,2.7v0c0.8,0.3,1.2,1,1.5,2.1c0.4,1.3,0.6,2.6,0.8,3h-2c-0.2-0.3-0.4-1.2-0.7-2.5c-0.3-1.4-0.8-1.8-1.9-1.9h-1
				v4.4h-1.9V658.3z M255.2,663.1h1.2c1.3,0,2.1-0.7,2.1-1.8c0-1.2-0.8-1.7-2.1-1.7c-0.6,0-1,0-1.2,0.1V663.1z"/>
		</g>
	</g>
	<g>
		<g>
			<path style="fill:#FFFFFF;" d="M298.9,751.2H132.3c-1.1,0-2-0.9-2-2v-42.9c0-1.1,0.9-2,2-2h166.6c1.1,0,2,0.9,2,2v42.9
				C300.9,750.3,300,751.2,298.9,751.2z"/>
			<path style="fill:#2A91E9;" d="M298.9,752H132.3c-1.5,0-2.8-1.2-2.8-2.8v-42.9c0-1.5,1.2-2.8,2.8-2.8h166.6
				c1.5,0,2.8,1.2,2.8,2.8v42.9C301.7,750.7,300.4,752,298.9,752z M132.3,705c-0.7,0-1.3,0.6-1.3,1.3v42.9c0,0.7,0.6,1.3,1.3,1.3
				h166.6c0.7,0,1.3-0.6,1.3-1.3v-42.9c0-0.7-0.6-1.3-1.3-1.3H132.3z"/>
		</g>
		<g>
			<path style="fill:#3E487A;" d="M179.6,721.5c0.9-0.1,2-0.2,3.1-0.2c2,0,3.4,0.4,4.4,1.2c1.1,0.8,1.7,2.1,1.7,4
				c0,1.9-0.7,3.4-1.7,4.3c-1.1,1-2.8,1.5-4.9,1.5c-1.1,0-2-0.1-2.7-0.1V721.5z M181.6,730.6c0.3,0,0.7,0,1.1,0
				c2.6,0,4.1-1.4,4.1-4.1c0-2.4-1.4-3.7-3.8-3.7c-0.6,0-1.1,0-1.3,0.1V730.6z"/>
			<path style="fill:#3E487A;" d="M192.5,729.1l-0.9,3.1h-2l3.5-10.8h2.5l3.5,10.8h-2.1l-1-3.1H192.5z M195.6,727.6l-0.8-2.7
				c-0.2-0.7-0.4-1.4-0.5-2h0c-0.2,0.6-0.3,1.4-0.5,2l-0.8,2.7H195.6z"/>
			<path style="fill:#3E487A;" d="M201.3,723h-3.1v-1.6h8.2v1.6h-3.1v9.1h-2V723z"/>
			<path style="fill:#3E487A;" d="M208.6,729.1l-0.9,3.1h-2l3.5-10.8h2.5l3.5,10.8H213l-1-3.1H208.6z M211.7,727.6l-0.8-2.7
				c-0.2-0.7-0.4-1.4-0.5-2h0c-0.2,0.6-0.3,1.4-0.5,2l-0.8,2.7H211.7z"/>
			<path style="fill:#3E487A;" d="M216.7,721.5c0.6-0.1,1.8-0.2,2.9-0.2c1.4,0,2.4,0.2,3.1,0.7c0.7,0.4,1.1,1.1,1.1,2
				c0,1-0.6,1.9-1.8,2.3v0c1.1,0.3,2.2,1.2,2.2,2.7c0,1-0.4,1.7-1,2.2c-0.8,0.7-2,1-4,1c-1.1,0-1.9-0.1-2.4-0.1V721.5z M218.6,725.7
				h1c1.4,0,2.1-0.6,2.1-1.6c0-1-0.8-1.5-2-1.5c-0.6,0-0.9,0-1.1,0.1V725.7z M218.6,730.7c0.3,0,0.6,0,1,0c1.3,0,2.4-0.5,2.4-1.8
				c0-1.3-1.1-1.8-2.5-1.8h-1V730.7z"/>
			<path style="fill:#3E487A;" d="M228,729.1l-0.9,3.1h-2l3.5-10.8h2.5l3.5,10.8h-2.1l-1-3.1H228z M231.1,727.6l-0.8-2.7
				c-0.2-0.7-0.4-1.4-0.5-2h0c-0.2,0.6-0.3,1.4-0.5,2l-0.8,2.7H231.1z"/>
			<path style="fill:#3E487A;" d="M236,730c0.6,0.4,1.6,0.7,2.6,0.7c1.3,0,2-0.6,2-1.5c0-0.8-0.5-1.3-1.9-1.8
				c-1.8-0.6-2.9-1.6-2.9-3.1c0-1.8,1.5-3.1,3.8-3.1c1.2,0,2,0.3,2.6,0.5l-0.5,1.6c-0.4-0.2-1.2-0.5-2.2-0.5c-1.3,0-1.8,0.7-1.8,1.3
				c0,0.8,0.6,1.2,2.1,1.8c1.9,0.7,2.8,1.6,2.8,3.2c0,1.7-1.3,3.2-4.1,3.2c-1.2,0-2.3-0.3-2.9-0.7L236,730z"/>
			<path style="fill:#3E487A;" d="M250.4,727.3h-4.1v3.2h4.6v1.6h-6.5v-10.8h6.3v1.6h-4.3v2.8h4.1V727.3z"/>
		</g>
	</g>
	<g>
		<g>
			<path style="fill:#FFFFFF;" d="M298.9,561.6H132.3c-1.1,0-2-0.9-2-2v-42.9c0-1.1,0.9-2,2-2h166.6c1.1,0,2,0.9,2,2v42.9
				C300.9,560.7,300,561.6,298.9,561.6z"/>
			<path style="fill:#2A91E9;" d="M298.9,562.4H132.3c-1.5,0-2.8-1.2-2.8-2.8v-42.9c0-1.5,1.2-2.8,2.8-2.8h166.6
				c1.5,0,2.8,1.2,2.8,2.8v42.9C301.7,561.1,300.4,562.4,298.9,562.4z M132.3,515.5c-0.7,0-1.3,0.6-1.3,1.3v42.9
				c0,0.7,0.6,1.3,1.3,1.3h166.6c0.7,0,1.3-0.6,1.3-1.3v-42.9c0-0.7-0.6-1.3-1.3-1.3H132.3z"/>
		</g>
		<g>
			<path style="fill:#3E487A;" d="M199.5,538.1c-0.1-1.4-0.1-3.1-0.1-4.5h0c-0.4,1.3-0.8,2.8-1.3,4.1l-1.6,4.7H195l-1.4-4.6
				c-0.4-1.4-0.8-2.8-1.1-4.2h0c0,1.4-0.1,3.1-0.2,4.6l-0.2,4.3h-1.8l0.7-10.7h2.6l1.4,4.3c0.4,1.3,0.7,2.5,1,3.7h0
				c0.3-1.2,0.7-2.5,1.1-3.7l1.5-4.3h2.5l0.6,10.7h-1.9L199.5,538.1z"/>
			<path style="fill:#3E487A;" d="M213.1,537c0,3.6-2.2,5.7-5.1,5.7c-3,0-5-2.3-5-5.5c0-3.3,2.1-5.6,5.1-5.6
				C211.3,531.6,213.1,534,213.1,537z M205.1,537.2c0,2.2,1.1,3.9,3,3.9c1.9,0,3-1.8,3-4c0-2-1-3.9-3-3.9
				C206.2,533.2,205.1,535,205.1,537.2z"/>
			<path style="fill:#3E487A;" d="M214.8,531.9c0.9-0.1,2-0.2,3.1-0.2c2,0,3.4,0.4,4.4,1.2c1.1,0.8,1.7,2.1,1.7,4
				c0,1.9-0.7,3.3-1.7,4.3c-1.1,1-2.8,1.5-4.9,1.5c-1.1,0-2-0.1-2.6-0.1V531.9z M216.8,541c0.3,0,0.7,0,1.1,0c2.5,0,4.1-1.4,4.1-4.1
				c0-2.4-1.4-3.7-3.8-3.7c-0.6,0-1.1,0-1.3,0.1V541z"/>
			<path style="fill:#3E487A;" d="M231.7,537.8h-4v3.2h4.5v1.6h-6.5v-10.7h6.2v1.6h-4.3v2.8h4V537.8z"/>
			<path style="fill:#3E487A;" d="M233.9,531.8h2v9.1h4.4v1.6h-6.4V531.8z"/>
		</g>
	</g>
	<g>
		<path style="fill:#5059C9;" d="M625.5,379.1h-2.7c-0.6,0-1-0.4-1-1s0.4-1,1-1h2c0.2-0.2,0.4-0.3,0.7-0.3c0.6,0,1,0.4,1,1v0.3
			C626.5,378.6,626.1,379.1,625.5,379.1z M617.8,379.1h-3c-0.6,0-1-0.4-1-1s0.4-1,1-1h3c0.6,0,1,0.4,1,1S618.4,379.1,617.8,379.1z
			 M609.8,379.1h-3c-0.6,0-1-0.4-1-1s0.4-1,1-1h3c0.6,0,1,0.4,1,1S610.4,379.1,609.8,379.1z M601.8,379.1h-3c-0.6,0-1-0.4-1-1
			s0.4-1,1-1h3c0.6,0,1,0.4,1,1S602.4,379.1,601.8,379.1z M593.8,379.1h-3c-0.6,0-1-0.4-1-1s0.4-1,1-1h3c0.6,0,1,0.4,1,1
			S594.4,379.1,593.8,379.1z M585.8,379.1h-3c-0.6,0-1-0.4-1-1s0.4-1,1-1h3c0.6,0,1,0.4,1,1S586.4,379.1,585.8,379.1z M577.8,379.1
			h-3c-0.6,0-1-0.4-1-1s0.4-1,1-1h3c0.6,0,1,0.4,1,1S578.4,379.1,577.8,379.1z M569.8,379.1h-3c-0.6,0-1-0.4-1-1s0.4-1,1-1h3
			c0.6,0,1,0.4,1,1S570.4,379.1,569.8,379.1z M561.8,379.1h-3c-0.6,0-1-0.4-1-1s0.4-1,1-1h3c0.6,0,1,0.4,1,1
			S562.4,379.1,561.8,379.1z M553.8,379.1h-3c-0.6,0-1-0.4-1-1s0.4-1,1-1h3c0.6,0,1,0.4,1,1S554.4,379.1,553.8,379.1z M545.8,379.1
			h-3c-0.6,0-1-0.4-1-1s0.4-1,1-1h3c0.6,0,1,0.4,1,1S546.4,379.1,545.8,379.1z M537.8,379.1h-3c-0.6,0-1-0.4-1-1s0.4-1,1-1h3
			c0.6,0,1,0.4,1,1S538.4,379.1,537.8,379.1z M529.8,379.1h-3c-0.6,0-1-0.4-1-1s0.4-1,1-1h3c0.6,0,1,0.4,1,1
			S530.4,379.1,529.8,379.1z M521.8,379.1h-3c-0.6,0-1-0.4-1-1s0.4-1,1-1h3c0.6,0,1,0.4,1,1S522.4,379.1,521.8,379.1z M513.8,379.1
			h-3c-0.6,0-1-0.4-1-1s0.4-1,1-1h3c0.6,0,1,0.4,1,1S514.4,379.1,513.8,379.1z M505.8,379.1h-3c-0.6,0-1-0.4-1-1s0.4-1,1-1h3
			c0.6,0,1,0.4,1,1S506.4,379.1,505.8,379.1z M497.8,379.1h-3c-0.6,0-1-0.4-1-1s0.4-1,1-1h3c0.6,0,1,0.4,1,1
			S498.4,379.1,497.8,379.1z M489.8,379.1h-3c-0.6,0-1-0.4-1-1s0.4-1,1-1h3c0.6,0,1,0.4,1,1S490.4,379.1,489.8,379.1z M481.8,379.1
			h-3c-0.6,0-1-0.4-1-1s0.4-1,1-1h3c0.6,0,1,0.4,1,1S482.4,379.1,481.8,379.1z M473.8,379.1h-3c-0.6,0-1-0.4-1-1s0.4-1,1-1h3
			c0.6,0,1,0.4,1,1S474.4,379.1,473.8,379.1z M465.8,379.1h-3c-0.6,0-1-0.4-1-1s0.4-1,1-1h3c0.6,0,1,0.4,1,1
			S466.4,379.1,465.8,379.1z M457.8,379.1h-3c-0.6,0-1-0.4-1-1s0.4-1,1-1h3c0.6,0,1,0.4,1,1S458.4,379.1,457.8,379.1z M449.8,379.1
			h-3c-0.6,0-1-0.4-1-1s0.4-1,1-1h3c0.6,0,1,0.4,1,1S450.4,379.1,449.8,379.1z M441.8,379.1h-3c-0.6,0-1-0.4-1-1s0.4-1,1-1h3
			c0.6,0,1,0.4,1,1S442.4,379.1,441.8,379.1z M433.8,379.1h-3c-0.6,0-1-0.4-1-1s0.4-1,1-1h3c0.6,0,1,0.4,1,1
			S434.4,379.1,433.8,379.1z M425.8,379.1h-3c-0.6,0-1-0.4-1-1s0.4-1,1-1h3c0.6,0,1,0.4,1,1S426.4,379.1,425.8,379.1z M417.8,379.1
			h-3c-0.6,0-1-0.4-1-1s0.4-1,1-1h3c0.6,0,1,0.4,1,1S418.4,379.1,417.8,379.1z M409.8,379.1h-3c-0.6,0-1-0.4-1-1s0.4-1,1-1h3
			c0.6,0,1,0.4,1,1S410.4,379.1,409.8,379.1z M401.8,379.1h-3c-0.6,0-1-0.4-1-1s0.4-1,1-1h3c0.6,0,1,0.4,1,1
			S402.4,379.1,401.8,379.1z M393.8,379.1h-3c-0.6,0-1-0.4-1-1s0.4-1,1-1h3c0.6,0,1,0.4,1,1S394.4,379.1,393.8,379.1z M385.8,379.1
			h-1.1c-0.6,0-1-0.4-1-1v-1.9c0-0.6,0.4-1,1-1s1,0.4,1,1v0.9h0.1c0.6,0,1,0.4,1,1S386.4,379.1,385.8,379.1z M625.5,373.7
			c-0.6,0-1-0.4-1-1v-3c0-0.6,0.4-1,1-1s1,0.4,1,1v3C626.5,373.3,626.1,373.7,625.5,373.7z M384.7,372.2c-0.6,0-1-0.4-1-1v-3
			c0-0.6,0.4-1,1-1s1,0.4,1,1v3C385.7,371.7,385.3,372.2,384.7,372.2z M625.5,365.7c-0.6,0-1-0.4-1-1v-3c0-0.6,0.4-1,1-1s1,0.4,1,1
			v3C626.5,365.3,626.1,365.7,625.5,365.7z M384.7,364.2c-0.6,0-1-0.4-1-1v-1.4c0-0.6,0.4-1,1-1s1,0.4,1,1v1.4
			C385.7,363.7,385.3,364.2,384.7,364.2z"/>
	</g>
	<g>
		<path style="fill:#FFFFFF;" d="M612.6,777.9H398.3c-2.3,0-4.2-1.9-4.2-4.2V500.9c0-2.3,1.9-4.2,4.2-4.2h214.2
			c2.3,0,4.2,1.9,4.2,4.2v272.8C616.8,776,614.9,777.9,612.6,777.9z"/>
		<path style="fill:#2A91E9;" d="M612.6,778.7H398.4c-2.8,0-5-2.2-5-5V500.9c0-2.8,2.2-5,5-5h214.2c2.8,0,5,2.2,5,5v272.8
			C617.6,776.5,615.3,778.7,612.6,778.7z M398.4,497.4c-1.9,0-3.5,1.6-3.5,3.5v272.8c0,1.9,1.6,3.5,3.5,3.5h214.2
			c1.9,0,3.5-1.6,3.5-3.5V500.9c0-1.9-1.6-3.5-3.5-3.5H398.4z"/>
	</g>
	<g>
		<path style="fill:#5059C9;" d="M506.4,573.3c-0.6,0-1-0.4-1-1v-0.5c0-0.6,0.4-1,1-1s1,0.4,1,1v0.5
			C507.4,572.9,507,573.3,506.4,573.3z M506.4,567.9c-0.6,0-1-0.4-1-1v-3c0-0.6,0.4-1,1-1s1,0.4,1,1v3
			C507.4,567.4,507,567.9,506.4,567.9z M506.4,559.9c-0.6,0-1-0.4-1-1v-3c0-0.6,0.4-1,1-1s1,0.4,1,1v3
			C507.4,559.4,507,559.9,506.4,559.9z M506.4,551.9c-0.6,0-1-0.4-1-1v-3c0-0.6,0.4-1,1-1s1,0.4,1,1v3
			C507.4,551.4,507,551.9,506.4,551.9z M506.4,543.9c-0.6,0-1-0.4-1-1v-3c0-0.6,0.4-1,1-1s1,0.4,1,1v3
			C507.4,543.4,507,543.9,506.4,543.9z M506.4,535.9c-0.6,0-1-0.4-1-1v-3c0-0.6,0.4-1,1-1s1,0.4,1,1v3
			C507.4,535.4,507,535.9,506.4,535.9z M506.4,527.9c-0.6,0-1-0.4-1-1v-3c0-0.6,0.4-1,1-1s1,0.4,1,1v3
			C507.4,527.4,507,527.9,506.4,527.9z M506.4,519.9c-0.6,0-1-0.4-1-1v-3c0-0.6,0.4-1,1-1s1,0.4,1,1v3
			C507.4,519.4,507,519.9,506.4,519.9z M506.4,511.9c-0.6,0-1-0.4-1-1v-3c0-0.6,0.4-1,1-1s1,0.4,1,1v3
			C507.4,511.4,507,511.9,506.4,511.9z M506.4,503.9c-0.6,0-1-0.4-1-1v-3c0-0.6,0.4-1,1-1s1,0.4,1,1v3
			C507.4,503.4,507,503.9,506.4,503.9z M506.4,495.9c-0.6,0-1-0.4-1-1v-3c0-0.6,0.4-1,1-1s1,0.4,1,1v3
			C507.4,495.4,507,495.9,506.4,495.9z M506.4,487.9c-0.6,0-1-0.4-1-1v-3c0-0.6,0.4-1,1-1s1,0.4,1,1v3
			C507.4,487.4,507,487.9,506.4,487.9z M506.4,479.9c-0.6,0-1-0.4-1-1v-3c0-0.6,0.4-1,1-1s1,0.4,1,1v3
			C507.4,479.4,507,479.9,506.4,479.9z"/>
	</g>
	<g>
		<path style="fill:#5059C9;" d="M506.4,422.5c-0.6,0-1-0.4-1-1v-3c0-0.6,0.4-1,1-1s1,0.4,1,1v3C507.4,422.1,507,422.5,506.4,422.5z
			 M506.4,414.5c-0.6,0-1-0.4-1-1v-3c0-0.6,0.4-1,1-1s1,0.4,1,1v3C507.4,414.1,507,414.5,506.4,414.5z M506.4,406.5
			c-0.6,0-1-0.4-1-1v-3c0-0.6,0.4-1,1-1s1,0.4,1,1v3C507.4,406.1,507,406.5,506.4,406.5z M506.4,398.5c-0.6,0-1-0.4-1-1v-3
			c0-0.6,0.4-1,1-1s1,0.4,1,1v3C507.4,398.1,507,398.5,506.4,398.5z M506.4,390.5c-0.6,0-1-0.4-1-1v-3c0-0.6,0.4-1,1-1s1,0.4,1,1v3
			C507.4,390.1,507,390.5,506.4,390.5z M506.4,382.5c-0.6,0-1-0.4-1-1v-3c0-0.6,0.4-1,1-1s1,0.4,1,1v3
			C507.4,382.1,507,382.5,506.4,382.5z"/>
	</g>
	<g>
		<g>
			<path style="fill:#FFFFFF;" d="M588.8,750.3H422.1c-1.1,0-2-0.9-2-2v-42.9c0-1.1,0.9-2,2-2h166.6c1.1,0,2,0.9,2,2v42.9
				C590.8,749.4,589.9,750.3,588.8,750.3z"/>
			<path style="fill:#2A91E9;" d="M588.8,751H422.1c-1.5,0-2.8-1.2-2.8-2.8v-42.9c0-1.5,1.2-2.8,2.8-2.8h166.6
				c1.5,0,2.8,1.2,2.8,2.8v42.9C591.6,749.8,590.3,751,588.8,751z M422.1,704.1c-0.7,0-1.3,0.6-1.3,1.3v42.9c0,0.7,0.6,1.3,1.3,1.3
				h166.6c0.7,0,1.3-0.6,1.3-1.3v-42.9c0-0.7-0.6-1.3-1.3-1.3H422.1z"/>
		</g>
		<g>
			<path style="fill:#3E487A;" d="M469.5,720.5c0.9-0.1,2-0.2,3.1-0.2c2,0,3.4,0.4,4.4,1.2c1.1,0.8,1.7,2.1,1.7,4
				c0,1.9-0.7,3.4-1.7,4.3c-1.1,1-2.8,1.5-4.9,1.5c-1.1,0-2-0.1-2.7-0.1V720.5z M471.4,729.7c0.3,0,0.7,0,1.1,0
				c2.6,0,4.1-1.4,4.1-4.1c0-2.4-1.4-3.7-3.8-3.7c-0.6,0-1.1,0-1.3,0.1V729.7z"/>
			<path style="fill:#3E487A;" d="M482.3,728.1l-0.9,3.1h-2l3.5-10.8h2.5l3.5,10.8h-2.1l-1-3.1H482.3z M485.4,726.6l-0.8-2.7
				c-0.2-0.7-0.4-1.4-0.5-2h0c-0.2,0.6-0.3,1.4-0.5,2l-0.8,2.7H485.4z"/>
			<path style="fill:#3E487A;" d="M491.2,722.1h-3.1v-1.6h8.2v1.6h-3.1v9.1h-2V722.1z"/>
			<path style="fill:#3E487A;" d="M498.5,728.1l-0.9,3.1h-2l3.5-10.8h2.5l3.5,10.8h-2.1l-1-3.1H498.5z M501.6,726.6l-0.8-2.7
				c-0.2-0.7-0.4-1.4-0.5-2h0c-0.2,0.6-0.3,1.4-0.5,2l-0.8,2.7H501.6z"/>
			<path style="fill:#3E487A;" d="M506.5,720.6c0.6-0.1,1.8-0.2,2.9-0.2c1.4,0,2.4,0.2,3.1,0.7c0.7,0.4,1.1,1.1,1.1,2
				c0,1-0.6,1.9-1.8,2.3v0c1.1,0.3,2.2,1.2,2.2,2.7c0,1-0.4,1.7-1,2.2c-0.8,0.7-2,1-4,1c-1.1,0-1.9-0.1-2.4-0.1V720.6z M508.5,724.8
				h1c1.4,0,2.1-0.6,2.1-1.6c0-1-0.8-1.5-2-1.5c-0.6,0-0.9,0-1.1,0.1V724.8z M508.5,729.8c0.3,0,0.6,0,1,0c1.3,0,2.4-0.5,2.4-1.8
				c0-1.3-1.1-1.8-2.5-1.8h-1V729.8z"/>
			<path style="fill:#3E487A;" d="M517.9,728.1l-0.9,3.1h-2l3.5-10.8h2.5l3.5,10.8h-2.1l-1-3.1H517.9z M521,726.6l-0.8-2.7
				c-0.2-0.7-0.4-1.4-0.5-2h0c-0.2,0.6-0.3,1.4-0.5,2l-0.8,2.7H521z"/>
			<path style="fill:#3E487A;" d="M525.9,729c0.6,0.4,1.6,0.7,2.6,0.7c1.3,0,2-0.6,2-1.5c0-0.8-0.5-1.3-1.9-1.8
				c-1.8-0.6-2.9-1.6-2.9-3.1c0-1.8,1.5-3.1,3.8-3.1c1.2,0,2,0.3,2.6,0.5l-0.5,1.6c-0.4-0.2-1.2-0.5-2.2-0.5c-1.3,0-1.8,0.7-1.8,1.3
				c0,0.8,0.6,1.2,2.1,1.8c1.9,0.7,2.8,1.6,2.8,3.2c0,1.7-1.3,3.3-4.1,3.3c-1.2,0-2.3-0.3-2.9-0.7L525.9,729z"/>
			<path style="fill:#3E487A;" d="M540.3,726.4h-4.1v3.2h4.6v1.6h-6.5v-10.8h6.3v1.6h-4.3v2.8h4.1V726.4z"/>
		</g>
	</g>
	<g>
		<g>
			<path style="fill:#2A91E9;" d="M588.8,624.5H422.1c-1.1,0-2-0.9-2-2v-42.9c0-1.1,0.9-2,2-2h166.6c1.1,0,2,0.9,2,2v42.9
				C590.8,623.6,589.9,624.5,588.8,624.5z"/>
		</g>
		<g>
			<path style="fill:#FFFFFF;" d="M496.5,602.3l-0.9,3.1h-2l3.5-10.8h2.5l3.5,10.8h-2.1l-1-3.1H496.5z M499.5,600.8l-0.8-2.7
				c-0.2-0.7-0.4-1.4-0.5-2h0c-0.2,0.6-0.3,1.4-0.5,2l-0.8,2.7H499.5z"/>
			<path style="fill:#FFFFFF;" d="M504.5,594.7c0.7-0.1,1.7-0.2,3-0.2c1.4,0,2.5,0.3,3.2,0.9c0.6,0.5,1.1,1.4,1.1,2.4
				c0,1-0.3,1.9-0.9,2.4c-0.8,0.8-2,1.2-3.4,1.2c-0.4,0-0.7,0-1-0.1v4.1h-2V594.7z M506.4,599.8c0.3,0.1,0.6,0.1,1,0.1
				c1.5,0,2.4-0.7,2.4-2c0-1.2-0.8-1.8-2.2-1.8c-0.5,0-0.9,0-1.1,0.1V599.8z"/>
			<path style="fill:#FFFFFF;" d="M515.4,594.6v10.8h-2v-10.8H515.4z"/>
		</g>
	</g>
	<g>
		<g>
			<path style="fill:#FFFFFF;" d="M589,687.9H421.8c-1.1,0-2-0.9-2-2V643c0-1.1,0.9-2,2-2H589c1.1,0,2,0.9,2,2v42.9
				C591,687,590.1,687.9,589,687.9z"/>
			<path style="fill:#2A91E9;" d="M589,688.6H421.8c-1.5,0-2.8-1.2-2.8-2.8V643c0-1.5,1.2-2.8,2.8-2.8H589c1.5,0,2.8,1.2,2.8,2.8
				v42.9C591.7,687.4,590.5,688.6,589,688.6z M421.8,641.7c-0.7,0-1.3,0.6-1.3,1.3v42.9c0,0.7,0.6,1.3,1.3,1.3H589
				c0.7,0,1.3-0.6,1.3-1.3V643c0-0.7-0.6-1.3-1.3-1.3H421.8z"/>
		</g>
		<g>
			<path style="fill:#3E487A;" d="M489,664.4c-0.1-1.4-0.1-3.1-0.1-4.5h0c-0.4,1.3-0.8,2.8-1.3,4.1l-1.6,4.7h-1.5l-1.4-4.6
				c-0.4-1.4-0.8-2.8-1.1-4.2h0c0,1.4-0.1,3.1-0.2,4.6l-0.2,4.3h-1.8l0.7-10.7h2.6l1.4,4.3c0.4,1.3,0.7,2.5,1,3.7h0
				c0.3-1.2,0.7-2.5,1.1-3.7l1.5-4.3h2.5l0.6,10.7h-1.9L489,664.4z"/>
			<path style="fill:#3E487A;" d="M502.7,663.3c0,3.6-2.2,5.7-5.1,5.7c-3,0-5-2.3-5-5.5c0-3.3,2.1-5.6,5.1-5.6
				C500.8,657.8,502.7,660.2,502.7,663.3z M494.6,663.4c0,2.2,1.1,3.9,3,3.9c1.9,0,3-1.8,3-4c0-2-1-3.9-3-3.9
				C495.7,659.4,494.6,661.2,494.6,663.4z"/>
			<path style="fill:#3E487A;" d="M504.3,658.2c0.9-0.1,2-0.2,3.1-0.2c2,0,3.4,0.4,4.4,1.2c1.1,0.8,1.7,2.1,1.7,4
				c0,1.9-0.7,3.3-1.7,4.3c-1.1,1-2.8,1.5-4.9,1.5c-1.1,0-2-0.1-2.6-0.1V658.2z M506.3,667.3c0.3,0,0.7,0,1.1,0
				c2.5,0,4.1-1.4,4.1-4.1c0-2.4-1.4-3.7-3.8-3.7c-0.6,0-1.1,0-1.3,0.1V667.3z"/>
			<path style="fill:#3E487A;" d="M521.2,664h-4v3.2h4.5v1.6h-6.5V658h6.2v1.6h-4.3v2.8h4V664z"/>
			<path style="fill:#3E487A;" d="M523.4,658h2v9.1h4.4v1.6h-6.4V658z"/>
		</g>
	</g>
	<g>
		<path style="fill:#3E487A;" d="M97.6,384.3h-19c-0.4,0-0.8-0.3-0.8-0.8V228c0-0.4,0.3-0.8,0.8-0.8h19c0.4,0,0.8,0.3,0.8,0.8
			s-0.3,0.8-0.8,0.8H79.4v154.1h18.2c0.4,0,0.8,0.3,0.8,0.8S98,384.3,97.6,384.3z"/>
	</g>
	<g>
		<path style="fill:#3E487A;" d="M97.6,790.9h-19c-0.4,0-0.8-0.3-0.8-0.8V396.3c0-0.4,0.3-0.8,0.8-0.8h19c0.4,0,0.8,0.3,0.8,0.8
			S98,397,97.6,397H79.4v392.4h18.2c0.4,0,0.8,0.3,0.8,0.8S98,790.9,97.6,790.9z"/>
	</g>
	<g>
		<path style="fill:#3E487A;" d="M668.3,559.3c0.1,0.7,0.3,2,0.3,3.2c0,1.6-0.2,2.6-0.8,3.5c-0.5,0.8-1.2,1.3-2.3,1.3
			c-1.1,0-2.1-0.7-2.6-2h-0.1c-0.3,1.3-1.3,2.4-3,2.4c-1.1,0-1.9-0.5-2.5-1.2c-0.7-0.9-1.1-2.3-1.1-4.5c0-1.2,0.1-2.1,0.2-2.7H668.3
			z M658,561.5c-0.1,0.3-0.1,0.7-0.1,1.2c0,1.4,0.5,2.7,2,2.7c1.4,0,2-1.2,2-2.8v-1.1H658z M663.6,561.5v1.1c0,1.5,0.7,2.4,1.7,2.4
			c1.2,0,1.7-0.9,1.7-2.3c0-0.6,0-1-0.1-1.3H663.6z"/>
		<path style="fill:#3E487A;" d="M659.8,572l-3.4-1v-2.3l12.1,3.9v2.8l-12.1,3.9v-2.4l3.4-1.1V572z M661.5,575.5l3-1
			c0.7-0.2,1.6-0.4,2.3-0.6v0c-0.7-0.2-1.5-0.4-2.3-0.6l-3-0.9V575.5z"/>
		<path style="fill:#3E487A;" d="M656.7,589.3c-0.3-0.5-0.5-1.7-0.5-3.2c0-3.9,2.4-6.2,6.1-6.2c4,0,6.4,2.8,6.4,6.5
			c0,1.5-0.3,2.5-0.5,2.9l-1.8-0.5c0.3-0.6,0.5-1.4,0.5-2.4c0-2.5-1.5-4.2-4.5-4.2c-2.7,0-4.4,1.5-4.4,4.2c0,0.9,0.2,1.8,0.4,2.4
			L656.7,589.3z"/>
		<path style="fill:#3E487A;" d="M668.5,591.2v2.2h-5.6v0.1c0.5,0.3,0.9,0.6,1.3,0.9l4.3,3.2v2.7l-5.2-4.2l-7,4.4v-2.6l5.6-3.4
			l-1.3-1.1h-4.3v-2.2H668.5z"/>
		<path style="fill:#3E487A;" d="M661.8,608.5v-4.6h-3.6v5.1h-1.8v-7.3h12.1v7.1h-1.8v-4.8h-3.1v4.6H661.8z"/>
		<path style="fill:#3E487A;" d="M656.4,611h12.1v2.5l-5.2,3.1c-1.4,0.8-2.8,1.5-4.1,2.1v0c1.6-0.2,3.2-0.2,5-0.2h4.2v2.1h-12.1
			v-2.3l5.3-3.2c1.3-0.8,2.8-1.6,4.2-2.2l0-0.1c-1.6,0.1-3.2,0.1-5.2,0.1h-4.3V611z"/>
		<path style="fill:#3E487A;" d="M668.4,623.1c0.1,1,0.3,2.2,0.3,3.5c0,2.3-0.5,3.8-1.4,4.9c-1,1.2-2.4,1.9-4.5,1.9
			c-2.2,0-3.8-0.7-4.8-1.9c-1.1-1.2-1.7-3.1-1.7-5.5c0-1.3,0.1-2.3,0.2-3H668.4z M658.1,625.4c-0.1,0.3-0.1,0.8-0.1,1.2
			c0,2.9,1.6,4.6,4.7,4.6c2.7,0,4.2-1.5,4.2-4.3c0-0.7-0.1-1.2-0.1-1.5H658.1z"/>
	</g>
	<g>
		<path style="fill:#3E487A;" d="M457.6,466.8l-1,3.4h-2.3l3.9-12.1h2.8l3.9,12.1h-2.4l-1.1-3.4H457.6z M461.1,465.1l-1-3
			c-0.2-0.7-0.4-1.6-0.6-2.3h0c-0.2,0.7-0.4,1.5-0.6,2.3l-0.9,3H461.1z"/>
		<path style="fill:#3E487A;" d="M466.7,458.3c0.8-0.1,1.9-0.3,3.4-0.3c1.6,0,2.8,0.3,3.6,1c0.7,0.6,1.2,1.5,1.2,2.7
			c0,1.2-0.4,2.1-1,2.7c-0.9,0.9-2.3,1.3-3.8,1.3c-0.4,0-0.8,0-1.1-0.1v4.6h-2.2V458.3z M468.9,463.9c0.3,0.1,0.6,0.1,1.1,0.1
			c1.7,0,2.7-0.8,2.7-2.2c0-1.4-0.9-2.1-2.5-2.1c-0.6,0-1,0.1-1.3,0.1V463.9z"/>
		<path style="fill:#3E487A;" d="M478.9,458.1v12.1h-2.2v-12.1H478.9z"/>
		<path style="fill:#3E487A;" d="M494.9,469.7c-0.8,0.3-2.3,0.7-3.9,0.7c-2.1,0-3.6-0.5-4.8-1.6c-1.1-1-1.7-2.6-1.7-4.5
			c0-3.9,2.7-6.3,6.8-6.3c1.5,0,2.7,0.3,3.2,0.6l-0.5,1.8c-0.7-0.3-1.5-0.5-2.8-0.5c-2.6,0-4.4,1.5-4.4,4.4c0,2.8,1.7,4.4,4.2,4.4
			c0.8,0,1.4-0.1,1.7-0.2v-3h-2.1v-1.7h4.3V469.7z"/>
		<path style="fill:#3E487A;" d="M499.6,466.8l-1,3.4h-2.3l3.9-12.1h2.8l3.9,12.1h-2.4l-1.1-3.4H499.6z M503.1,465.1l-1-3
			c-0.2-0.7-0.4-1.6-0.6-2.3h0c-0.2,0.7-0.4,1.5-0.6,2.3l-0.9,3H503.1z"/>
		<path style="fill:#3E487A;" d="M509.5,460H506v-1.9h9.2v1.9h-3.5v10.3h-2.2V460z"/>
		<path style="fill:#3E487A;" d="M523.4,464.8h-4.6v3.6h5.1v1.8h-7.3v-12.1h7.1v1.8h-4.8v3.1h4.6V464.8z"/>
		<path style="fill:#3E487A;" d="M528,470.2l-3-12.1h2.4l1.2,5.5c0.3,1.5,0.6,3,0.8,4.2h0c0.2-1.3,0.5-2.7,0.9-4.3l1.3-5.5h2.3
			l1.2,5.6c0.3,1.4,0.6,2.8,0.7,4.1h0c0.2-1.3,0.5-2.7,0.8-4.2l1.3-5.5h2.3l-3.3,12.1h-2.4l-1.3-5.7c-0.3-1.4-0.5-2.5-0.7-3.9h0
			c-0.2,1.3-0.4,2.5-0.8,3.9l-1.4,5.7H528z"/>
		<path style="fill:#3E487A;" d="M543.1,466.8l-1,3.4h-2.3l3.9-12.1h2.8l3.9,12.1h-2.4l-1.1-3.4H543.1z M546.6,465.1l-1-3
			c-0.2-0.7-0.4-1.6-0.6-2.3h0c-0.2,0.7-0.4,1.5-0.6,2.3l-0.9,3H546.6z"/>
		<path style="fill:#3E487A;" d="M553.3,470.2v-5.1l-3.8-7.1h2.5l1.4,3.1c0.4,0.9,0.7,1.6,1.1,2.4h0c0.3-0.8,0.6-1.5,1-2.4l1.5-3.1
			h2.5l-4,7v5.1H553.3z"/>
	</g>
	<g>
		<path style="fill:#3E487A;" d="M644.9,790.9h-19c-0.4,0-0.8-0.3-0.8-0.8s0.3-0.8,0.8-0.8h18.2V397h-18.2c-0.4,0-0.8-0.3-0.8-0.8
			s0.3-0.8,0.8-0.8h19c0.4,0,0.8,0.3,0.8,0.8v393.9C645.7,790.6,645.3,790.9,644.9,790.9z"/>
	</g>
	<g>
		<g>
			<path style="fill:#E7EAF9;" d="M498.7,308.9H397.8c-1.8,0-3.3-1.5-3.3-3.3v-30.1c0-1.8,1.5-3.3,3.3-3.3h100.9
				c1.8,0,3.3,1.5,3.3,3.3v30.1C502,307.4,500.5,308.9,498.7,308.9z"/>
			<path style="fill:#5059C9;" d="M498.7,309.6H397.8c-2.2,0-4-1.8-4-4v-30.1c0-2.2,1.8-4,4-4h100.9c2.2,0,4,1.8,4,4v30.1
				C502.7,307.8,500.9,309.6,498.7,309.6z M397.8,272.9c-1.4,0-2.5,1.1-2.5,2.5v30.1c0,1.4,1.1,2.5,2.5,2.5h100.9
				c1.4,0,2.5-1.1,2.5-2.5v-30.1c0-1.4-1.1-2.5-2.5-2.5H397.8z"/>
		</g>
		<g>
			<g>
				<path style="fill:#E7EAF9;" d="M612.4,308.9H511.5c-1.8,0-3.3-1.5-3.3-3.3v-30.1c0-1.8,1.5-3.3,3.3-3.3h100.9
					c1.8,0,3.3,1.5,3.3,3.3v30.1C615.7,307.4,614.2,308.9,612.4,308.9z"/>
			</g>
			<g>
				<path style="fill:#5059C9;" d="M612.4,309.6H511.5c-2.2,0-4-1.8-4-4v-30.1c0-2.2,1.8-4,4-4h100.9c2.2,0,4,1.8,4,4v30.1
					C616.4,307.8,614.6,309.6,612.4,309.6z M511.5,272.9c-1.4,0-2.5,1.1-2.5,2.5v30.1c0,1.4,1.1,2.5,2.5,2.5h100.9
					c1.4,0,2.5-1.1,2.5-2.5v-30.1c0-1.4-1.1-2.5-2.5-2.5H511.5z"/>
			</g>
		</g>
		<g>
			<path style="fill:#3E487A;" d="M426,286.1c0.5-0.1,1.4-0.2,2.2-0.2c1.2,0,2,0.2,2.6,0.7c0.5,0.4,0.8,0.9,0.8,1.7
				c0,0.9-0.6,1.7-1.6,2.1v0c0.9,0.2,1.9,1,1.9,2.4c0,0.8-0.3,1.4-0.8,1.9c-0.6,0.6-1.7,0.9-3.2,0.9c-0.8,0-1.5-0.1-1.9-0.1V286.1z
				 M427.3,290h1.1c1.3,0,2-0.7,2-1.6c0-1.1-0.8-1.5-2.1-1.5c-0.6,0-0.9,0-1.1,0.1V290z M427.3,294.5c0.3,0,0.6,0.1,1,0.1
				c1.3,0,2.4-0.5,2.4-1.8c0-1.3-1.1-1.8-2.4-1.8h-1V294.5z"/>
			<path style="fill:#3E487A;" d="M433.6,290.8c0-0.8,0-1.5-0.1-2.1h1.1l0.1,1.3h0c0.3-0.9,1.1-1.5,1.9-1.5c0.1,0,0.2,0,0.3,0v1.2
				c-0.1,0-0.3,0-0.4,0c-0.9,0-1.5,0.6-1.7,1.6c0,0.2,0,0.4,0,0.6v3.6h-1.2V290.8z"/>
			<path style="fill:#3E487A;" d="M444.2,292c0,2.5-1.8,3.6-3.4,3.6c-1.8,0-3.3-1.3-3.3-3.5c0-2.3,1.5-3.6,3.4-3.6
				C442.8,288.5,444.2,289.9,444.2,292z M438.8,292.1c0,1.5,0.8,2.6,2,2.6c1.2,0,2.1-1.1,2.1-2.6c0-1.1-0.6-2.6-2-2.6
				C439.4,289.4,438.8,290.8,438.8,292.1z"/>
			<path style="fill:#3E487A;" d="M446.1,288.7l0.9,3.4c0.2,0.8,0.4,1.5,0.5,2.2h0c0.2-0.7,0.4-1.4,0.6-2.1l1.1-3.5h1l1.1,3.4
				c0.3,0.8,0.4,1.5,0.6,2.2h0c0.1-0.7,0.3-1.4,0.5-2.2l1-3.4h1.2l-2.2,6.8h-1.1l-1-3.2c-0.2-0.8-0.4-1.4-0.6-2.2h0
				c-0.2,0.8-0.4,1.5-0.6,2.2l-1.1,3.2h-1.1l-2-6.8H446.1z"/>
			<path style="fill:#3E487A;" d="M455.7,294.2c0.4,0.2,1,0.5,1.6,0.5c0.9,0,1.3-0.4,1.3-1c0-0.6-0.3-0.9-1.2-1.2
				c-1.2-0.4-1.8-1.1-1.8-1.9c0-1.1,0.9-2,2.3-2c0.7,0,1.3,0.2,1.7,0.4l-0.3,0.9c-0.3-0.2-0.8-0.4-1.4-0.4c-0.7,0-1.1,0.4-1.1,0.9
				c0,0.6,0.4,0.8,1.3,1.2c1.2,0.4,1.8,1,1.8,2c0,1.2-0.9,2-2.5,2c-0.7,0-1.4-0.2-1.9-0.5L455.7,294.2z"/>
			<path style="fill:#3E487A;" d="M462.1,292.3c0,1.7,1.1,2.4,2.3,2.4c0.9,0,1.4-0.2,1.9-0.4l0.2,0.9c-0.4,0.2-1.2,0.4-2.3,0.4
				c-2.1,0-3.3-1.4-3.3-3.4c0-2,1.2-3.6,3.2-3.6c2.2,0,2.8,1.9,2.8,3.2c0,0.3,0,0.4,0,0.6H462.1z M465.7,291.4c0-0.8-0.3-2-1.7-2
				c-1.3,0-1.8,1.1-1.9,2H465.7z"/>
			<path style="fill:#3E487A;" d="M468.4,290.8c0-0.8,0-1.5-0.1-2.1h1.1l0.1,1.3h0c0.3-0.9,1.1-1.5,1.9-1.5c0.1,0,0.2,0,0.3,0v1.2
				c-0.1,0-0.3,0-0.4,0c-0.9,0-1.5,0.6-1.7,1.6c0,0.2,0,0.4,0,0.6v3.6h-1.2V290.8z"/>
		</g>
		<g>
			<path style="fill:#3E487A;" d="M524.8,286.1c0.7-0.1,1.6-0.2,2.6-0.2c1.8,0,3,0.4,3.8,1.2c0.9,0.8,1.3,1.9,1.3,3.4
				c0,1.5-0.5,2.8-1.4,3.7c-0.9,0.9-2.4,1.4-4.2,1.4c-0.9,0-1.6,0-2.2-0.1V286.1z M526,294.5c0.3,0,0.8,0.1,1.2,0.1c2.6,0,4-1.5,4-4
				c0-2.2-1.2-3.6-3.8-3.6c-0.6,0-1.1,0.1-1.4,0.1V294.5z"/>
			<path style="fill:#3E487A;" d="M534.8,292.3c0,1.7,1.1,2.4,2.3,2.4c0.9,0,1.4-0.2,1.9-0.4l0.2,0.9c-0.4,0.2-1.2,0.4-2.3,0.4
				c-2.1,0-3.3-1.4-3.3-3.4c0-2,1.2-3.6,3.2-3.6c2.2,0,2.8,1.9,2.8,3.2c0,0.3,0,0.4,0,0.6H534.8z M538.4,291.4c0-0.8-0.3-2-1.7-2
				c-1.3,0-1.8,1.1-1.9,2H538.4z"/>
			<path style="fill:#3E487A;" d="M541,294.2c0.4,0.2,1,0.5,1.6,0.5c0.9,0,1.3-0.4,1.3-1c0-0.6-0.3-0.9-1.2-1.2
				c-1.2-0.4-1.8-1.1-1.8-1.9c0-1.1,0.9-2,2.3-2c0.7,0,1.3,0.2,1.7,0.4l-0.3,0.9c-0.3-0.2-0.8-0.4-1.4-0.4c-0.7,0-1.1,0.4-1.1,0.9
				c0,0.6,0.4,0.8,1.3,1.2c1.2,0.4,1.8,1,1.8,2c0,1.2-0.9,2-2.5,2c-0.7,0-1.4-0.2-1.9-0.5L541,294.2z"/>
			<path style="fill:#3E487A;" d="M547.9,291.8L547.9,291.8c0.2-0.2,0.4-0.5,0.6-0.8l2-2.3h1.5l-2.6,2.8l3,4h-1.5l-2.3-3.3l-0.6,0.7
				v2.5h-1.2v-9.9h1.2V291.8z"/>
			<path style="fill:#3E487A;" d="M554.7,287v1.6h1.8v0.9h-1.8v3.7c0,0.8,0.2,1.3,0.9,1.3c0.3,0,0.5,0,0.7-0.1l0.1,0.9
				c-0.2,0.1-0.6,0.2-1.1,0.2c-0.6,0-1-0.2-1.3-0.5c-0.3-0.4-0.5-1-0.5-1.8v-3.7h-1.1v-0.9h1.1v-1.3L554.7,287z"/>
			<path style="fill:#3E487A;" d="M563.9,292c0,2.5-1.8,3.6-3.4,3.6c-1.8,0-3.3-1.3-3.3-3.5c0-2.3,1.5-3.6,3.4-3.6
				C562.6,288.5,563.9,289.9,563.9,292z M558.6,292.1c0,1.5,0.8,2.6,2,2.6c1.2,0,2.1-1.1,2.1-2.6c0-1.1-0.6-2.6-2-2.6
				C559.2,289.4,558.6,290.8,558.6,292.1z"/>
			<path style="fill:#3E487A;" d="M565.5,290.9c0-0.9,0-1.6-0.1-2.2h1.1l0.1,1.2h0c0.5-0.8,1.3-1.3,2.4-1.3c1.7,0,2.9,1.4,2.9,3.4
				c0,2.4-1.5,3.6-3.1,3.6c-0.9,0-1.7-0.4-2.1-1.1h0v3.7h-1.2V290.9z M566.7,292.7c0,0.2,0,0.4,0.1,0.5c0.2,0.9,1,1.4,1.8,1.4
				c1.3,0,2.1-1.1,2.1-2.6c0-1.3-0.7-2.5-2-2.5c-0.8,0-1.6,0.6-1.9,1.5c0,0.2-0.1,0.3-0.1,0.5V292.7z"/>
			<path style="fill:#3E487A;" d="M578,292.5l-1,3h-1.3l3.2-9.4h1.5l3.2,9.4h-1.3l-1-3H578z M581.1,291.5l-0.9-2.7
				c-0.2-0.6-0.4-1.2-0.5-1.7h0c-0.1,0.5-0.3,1.1-0.5,1.7l-0.9,2.7H581.1z"/>
			<path style="fill:#3E487A;" d="M584.9,290.9c0-0.9,0-1.6-0.1-2.2h1.1l0.1,1.2h0c0.5-0.8,1.3-1.3,2.4-1.3c1.7,0,2.9,1.4,2.9,3.4
				c0,2.4-1.5,3.6-3.1,3.6c-0.9,0-1.7-0.4-2.1-1.1h0v3.7h-1.2V290.9z M586.2,292.7c0,0.2,0,0.4,0.1,0.5c0.2,0.9,1,1.4,1.8,1.4
				c1.3,0,2.1-1.1,2.1-2.6c0-1.3-0.7-2.5-2-2.5c-0.8,0-1.6,0.6-1.9,1.5c0,0.2-0.1,0.3-0.1,0.5V292.7z"/>
			<path style="fill:#3E487A;" d="M592.9,290.9c0-0.9,0-1.6-0.1-2.2h1.1l0.1,1.2h0c0.5-0.8,1.3-1.3,2.4-1.3c1.7,0,2.9,1.4,2.9,3.4
				c0,2.4-1.5,3.6-3.1,3.6c-0.9,0-1.7-0.4-2.1-1.1h0v3.7h-1.2V290.9z M594.1,292.7c0,0.2,0,0.4,0.1,0.5c0.2,0.9,1,1.4,1.8,1.4
				c1.3,0,2.1-1.1,2.1-2.6c0-1.3-0.7-2.5-2-2.5c-0.8,0-1.6,0.6-1.9,1.5c0,0.2-0.1,0.3-0.1,0.5V292.7z"/>
		</g>
		<g>
			<g>
				<path style="fill:#E7EAF9;" d="M498.7,353H397.8c-1.8,0-3.3-1.5-3.3-3.3v-30.1c0-1.8,1.5-3.3,3.3-3.3h100.9
					c1.8,0,3.3,1.5,3.3,3.3v30.1C502,351.6,500.5,353,498.7,353z"/>
			</g>
			<g>
				<path style="fill:#5059C9;" d="M498.7,353.8H397.8c-2.2,0-4-1.8-4-4v-30.1c0-2.2,1.8-4,4-4h100.9c2.2,0,4,1.8,4,4v30.1
					C502.7,352,500.9,353.8,498.7,353.8z M397.8,317.1c-1.4,0-2.5,1.1-2.5,2.5v30.1c0,1.4,1.1,2.5,2.5,2.5h100.9
					c1.4,0,2.5-1.1,2.5-2.5v-30.1c0-1.4-1.1-2.5-2.5-2.5H397.8z"/>
			</g>
		</g>
		<g>
			<g>
				<path style="fill:#E7EAF9;" d="M612.4,353H511.5c-1.8,0-3.3-1.5-3.3-3.3v-30.1c0-1.8,1.5-3.3,3.3-3.3h100.9
					c1.8,0,3.3,1.5,3.3,3.3v30.1C615.7,351.6,614.2,353,612.4,353z"/>
			</g>
			<g>
				<path style="fill:#5059C9;" d="M612.4,353.8H511.5c-2.2,0-4-1.8-4-4v-30.1c0-2.2,1.8-4,4-4h100.9c2.2,0,4,1.8,4,4v30.1
					C616.4,352,614.6,353.8,612.4,353.8z M511.5,317.1c-1.4,0-2.5,1.1-2.5,2.5v30.1c0,1.4,1.1,2.5,2.5,2.5h100.9
					c1.4,0,2.5-1.1,2.5-2.5v-30.1c0-1.4-1.1-2.5-2.5-2.5H511.5z"/>
			</g>
		</g>
		<g>
			<path style="fill:#3E487A;" d="M412.4,337.1c0.5,0.4,1.3,0.6,2.2,0.6c1.2,0,2-0.7,2-1.6c0-0.9-0.5-1.4-1.8-1.9
				c-1.5-0.6-2.5-1.4-2.5-2.7c0-1.5,1.2-2.6,3.1-2.6c1,0,1.7,0.2,2.1,0.5l-0.3,1c-0.3-0.2-0.9-0.4-1.8-0.4c-1.3,0-1.8,0.8-1.8,1.4
				c0,0.9,0.6,1.3,1.9,1.8c1.6,0.6,2.4,1.4,2.4,2.8c0,1.5-1.1,2.7-3.3,2.7c-0.9,0-1.9-0.3-2.4-0.6L412.4,337.1z"/>
			<path style="fill:#3E487A;" d="M419.4,333.7c0-0.7,0-1.3-0.1-1.8h1.1l0.1,1.1h0c0.4-0.6,1-1.2,2.1-1.2c0.9,0,1.6,0.6,1.9,1.4h0
				c0.2-0.4,0.5-0.7,0.8-0.9c0.4-0.3,0.8-0.5,1.5-0.5c0.9,0,2.2,0.6,2.2,2.9v4h-1.2v-3.8c0-1.3-0.5-2.1-1.5-2.1
				c-0.7,0-1.2,0.5-1.5,1.1c-0.1,0.2-0.1,0.4-0.1,0.6v4.2h-1.2v-4.1c0-1.1-0.5-1.8-1.4-1.8c-0.8,0-1.3,0.6-1.5,1.2
				c-0.1,0.2-0.1,0.4-0.1,0.6v4.1h-1.2V333.7z"/>
			<path style="fill:#3E487A;" d="M435.8,337c0,0.6,0,1.2,0.1,1.6h-1.1l-0.1-0.9h0c-0.4,0.5-1.1,1-2.1,1c-1.4,0-2.1-1-2.1-1.9
				c0-1.6,1.5-2.5,4.1-2.5v-0.1c0-0.5-0.2-1.6-1.5-1.6c-0.6,0-1.3,0.2-1.8,0.5l-0.3-0.8c0.6-0.4,1.4-0.6,2.2-0.6
				c2.1,0,2.6,1.4,2.6,2.8V337z M434.6,335.1c-1.3,0-2.9,0.2-2.9,1.5c0,0.8,0.5,1.2,1.1,1.2c0.9,0,1.5-0.6,1.7-1.1
				c0-0.1,0.1-0.3,0.1-0.4V335.1z"/>
			<path style="fill:#3E487A;" d="M437.8,333.9c0-0.8,0-1.5-0.1-2.1h1.1l0.1,1.3h0c0.3-0.9,1.1-1.5,1.9-1.5c0.1,0,0.2,0,0.3,0v1.2
				c-0.1,0-0.3,0-0.4,0c-0.9,0-1.5,0.6-1.7,1.6c0,0.2,0,0.4,0,0.6v3.6h-1.2V333.9z"/>
			<path style="fill:#3E487A;" d="M444.2,330.2v1.6h1.8v0.9h-1.8v3.7c0,0.8,0.2,1.3,0.9,1.3c0.3,0,0.5,0,0.7-0.1l0.1,0.9
				c-0.2,0.1-0.6,0.2-1.1,0.2c-0.6,0-1-0.2-1.3-0.5c-0.3-0.4-0.5-1-0.5-1.8v-3.7H442v-0.9h1.1v-1.3L444.2,330.2z"/>
			<path style="fill:#3E487A;" d="M451.4,338.6l-2.4-9.4h1.3l1.1,4.8c0.3,1.2,0.5,2.4,0.7,3.3h0c0.2-0.9,0.4-2.1,0.8-3.3l1.3-4.8
				h1.3l1.1,4.8c0.3,1.1,0.5,2.2,0.7,3.2h0c0.2-1,0.5-2.1,0.8-3.3l1.2-4.8h1.2l-2.7,9.4h-1.3l-1.2-4.9c-0.3-1.2-0.5-2.1-0.6-3.1h0
				c-0.2,0.9-0.4,1.9-0.7,3.1l-1.3,4.9H451.4z"/>
			<path style="fill:#3E487A;" d="M466,337c0,0.6,0,1.2,0.1,1.6H465l-0.1-0.9h0c-0.4,0.5-1.1,1-2.1,1c-1.4,0-2.1-1-2.1-1.9
				c0-1.6,1.5-2.5,4.1-2.5v-0.1c0-0.5-0.2-1.6-1.5-1.6c-0.6,0-1.3,0.2-1.8,0.5l-0.3-0.8c0.6-0.4,1.4-0.6,2.2-0.6
				c2.1,0,2.6,1.4,2.6,2.8V337z M464.8,335.1c-1.3,0-2.9,0.2-2.9,1.5c0,0.8,0.5,1.2,1.1,1.2c0.9,0,1.5-0.6,1.7-1.1
				c0-0.1,0.1-0.3,0.1-0.4V335.1z"/>
			<path style="fill:#3E487A;" d="M469.4,330.2v1.6h1.8v0.9h-1.8v3.7c0,0.8,0.2,1.3,0.9,1.3c0.3,0,0.5,0,0.7-0.1l0.1,0.9
				c-0.2,0.1-0.6,0.2-1.1,0.2c-0.6,0-1-0.2-1.3-0.5c-0.3-0.4-0.5-1-0.5-1.8v-3.7h-1.1v-0.9h1.1v-1.3L469.4,330.2z"/>
			<path style="fill:#3E487A;" d="M477.3,338.4c-0.3,0.2-1,0.4-1.9,0.4c-2,0-3.4-1.4-3.4-3.5c0-2.1,1.4-3.6,3.6-3.6
				c0.7,0,1.4,0.2,1.7,0.4L477,333c-0.3-0.2-0.8-0.3-1.4-0.3c-1.6,0-2.4,1.2-2.4,2.6c0,1.6,1,2.5,2.4,2.5c0.7,0,1.2-0.2,1.5-0.3
				L477.3,338.4z"/>
			<path style="fill:#3E487A;" d="M478.7,328.7h1.2v4.2h0c0.2-0.4,0.5-0.7,0.9-0.9c0.4-0.2,0.8-0.3,1.3-0.3c0.9,0,2.4,0.6,2.4,2.9v4
				h-1.2v-3.9c0-1.1-0.4-2-1.6-2c-0.8,0-1.4,0.6-1.7,1.2c-0.1,0.2-0.1,0.4-0.1,0.6v4.1h-1.2V328.7z"/>
		</g>
		<g>
			<path style="fill:#3E487A;" d="M525.3,337.1c0.5,0.4,1.3,0.6,2.2,0.6c1.2,0,2-0.7,2-1.6c0-0.9-0.5-1.4-1.8-1.9
				c-1.5-0.6-2.5-1.4-2.5-2.7c0-1.5,1.2-2.6,3.1-2.6c1,0,1.7,0.2,2.1,0.5l-0.3,1c-0.3-0.2-0.9-0.4-1.8-0.4c-1.3,0-1.8,0.8-1.8,1.4
				c0,0.9,0.6,1.3,1.9,1.8c1.6,0.6,2.4,1.4,2.4,2.8c0,1.5-1.1,2.7-3.3,2.7c-0.9,0-1.9-0.3-2.4-0.6L525.3,337.1z"/>
			<path style="fill:#3E487A;" d="M532.3,333.7c0-0.7,0-1.3-0.1-1.8h1.1l0.1,1.1h0c0.4-0.6,1-1.2,2.1-1.2c0.9,0,1.6,0.6,1.9,1.4h0
				c0.2-0.4,0.5-0.7,0.8-0.9c0.4-0.3,0.8-0.5,1.5-0.5c0.9,0,2.2,0.6,2.2,2.9v4h-1.2v-3.8c0-1.3-0.5-2.1-1.5-2.1
				c-0.7,0-1.2,0.5-1.5,1.1c-0.1,0.2-0.1,0.4-0.1,0.6v4.2h-1.2v-4.1c0-1.1-0.5-1.8-1.4-1.8c-0.8,0-1.3,0.6-1.5,1.2
				c-0.1,0.2-0.1,0.4-0.1,0.6v4.1h-1.2V333.7z"/>
			<path style="fill:#3E487A;" d="M548.8,337c0,0.6,0,1.2,0.1,1.6h-1.1l-0.1-0.9h0c-0.4,0.5-1.1,1-2.1,1c-1.4,0-2.1-1-2.1-1.9
				c0-1.6,1.5-2.5,4.1-2.5v-0.1c0-0.5-0.2-1.6-1.5-1.6c-0.6,0-1.3,0.2-1.8,0.5l-0.3-0.8c0.6-0.4,1.4-0.6,2.2-0.6
				c2.1,0,2.6,1.4,2.6,2.8V337z M547.6,335.1c-1.3,0-2.9,0.2-2.9,1.5c0,0.8,0.5,1.2,1.1,1.2c0.9,0,1.5-0.6,1.7-1.1
				c0-0.1,0.1-0.3,0.1-0.4V335.1z"/>
			<path style="fill:#3E487A;" d="M550.8,333.9c0-0.8,0-1.5-0.1-2.1h1.1l0.1,1.3h0c0.3-0.9,1.1-1.5,1.9-1.5c0.1,0,0.2,0,0.3,0v1.2
				c-0.1,0-0.3,0-0.4,0c-0.9,0-1.5,0.6-1.7,1.6c0,0.2,0,0.4,0,0.6v3.6h-1.2V333.9z"/>
			<path style="fill:#3E487A;" d="M557.2,330.2v1.6h1.8v0.9h-1.8v3.7c0,0.8,0.2,1.3,0.9,1.3c0.3,0,0.5,0,0.7-0.1l0.1,0.9
				c-0.2,0.1-0.6,0.2-1.1,0.2c-0.6,0-1-0.2-1.3-0.5c-0.3-0.4-0.5-1-0.5-1.8v-3.7h-1.1v-0.9h1.1v-1.3L557.2,330.2z"/>
			<path style="fill:#3E487A;" d="M563.3,329.3c0.6-0.1,1.4-0.2,2.3-0.2c1.2,0,2.1,0.3,2.6,0.8c0.5,0.4,0.8,1.1,0.8,2
				c0,0.9-0.3,1.5-0.7,2c-0.7,0.7-1.7,1-2.9,1c-0.4,0-0.7,0-1-0.1v3.8h-1.2V329.3z M564.5,333.8c0.3,0.1,0.6,0.1,1,0.1
				c1.5,0,2.4-0.7,2.4-2c0-1.3-0.9-1.9-2.2-1.9c-0.5,0-0.9,0-1.1,0.1V333.8z"/>
			<path style="fill:#3E487A;" d="M570.6,328.7h1.2v4.2h0c0.2-0.4,0.5-0.7,0.9-0.9c0.4-0.2,0.8-0.3,1.3-0.3c0.9,0,2.4,0.6,2.4,2.9v4
				h-1.2v-3.9c0-1.1-0.4-2-1.6-2c-0.8,0-1.4,0.6-1.7,1.2c-0.1,0.2-0.1,0.4-0.1,0.6v4.1h-1.2V328.7z"/>
			<path style="fill:#3E487A;" d="M584.6,335.2c0,2.5-1.8,3.6-3.4,3.6c-1.8,0-3.3-1.3-3.3-3.5c0-2.3,1.5-3.6,3.4-3.6
				C583.2,331.7,584.6,333.1,584.6,335.2z M579.2,335.2c0,1.5,0.8,2.6,2,2.6c1.2,0,2.1-1.1,2.1-2.6c0-1.1-0.6-2.6-2-2.6
				C579.8,332.6,579.2,333.9,579.2,335.2z"/>
			<path style="fill:#3E487A;" d="M586.1,333.7c0-0.7,0-1.3-0.1-1.8h1.1l0.1,1.1h0c0.3-0.6,1.1-1.3,2.2-1.3c0.9,0,2.4,0.6,2.4,2.9v4
				h-1.2v-3.9c0-1.1-0.4-2-1.6-2c-0.8,0-1.4,0.6-1.7,1.3c-0.1,0.2-0.1,0.4-0.1,0.6v4.1h-1.2V333.7z"/>
			<path style="fill:#3E487A;" d="M594.6,335.4c0,1.7,1.1,2.4,2.3,2.4c0.9,0,1.4-0.2,1.9-0.4l0.2,0.9c-0.4,0.2-1.2,0.4-2.3,0.4
				c-2.1,0-3.3-1.4-3.3-3.4c0-2,1.2-3.6,3.2-3.6c2.2,0,2.8,1.9,2.8,3.2c0,0.3,0,0.4,0,0.6H594.6z M598.2,334.6c0-0.8-0.3-2-1.7-2
				c-1.3,0-1.8,1.1-1.9,2H598.2z"/>
		</g>
		<g>
			<g>
				<path style="fill:#E7EAF9;" d="M498.7,264.5H397.8c-1.8,0-3.3-1.5-3.3-3.3v-30.1c0-1.8,1.5-3.3,3.3-3.3h100.9
					c1.8,0,3.3,1.5,3.3,3.3v30.1C502,263,500.5,264.5,498.7,264.5z"/>
			</g>
			<g>
				<path style="fill:#5059C9;" d="M498.7,265.3H397.8c-2.2,0-4-1.8-4-4v-30.1c0-2.2,1.8-4,4-4h100.9c2.2,0,4,1.8,4,4v30.1
					C502.7,263.4,500.9,265.3,498.7,265.3z M397.8,228.6c-1.4,0-2.5,1.1-2.5,2.5v30.1c0,1.4,1.1,2.5,2.5,2.5h100.9
					c1.4,0,2.5-1.1,2.5-2.5v-30.1c0-1.4-1.1-2.5-2.5-2.5H397.8z"/>
			</g>
		</g>
		<g>
			<g>
				<path style="fill:#E7EAF9;" d="M612.4,264.5H511.5c-1.8,0-3.3-1.5-3.3-3.3v-30.1c0-1.8,1.5-3.3,3.3-3.3h100.9
					c1.8,0,3.3,1.5,3.3,3.3v30.1C615.7,263,614.2,264.5,612.4,264.5z"/>
			</g>
			<g>
				<path style="fill:#5059C9;" d="M612.4,265.3H511.5c-2.2,0-4-1.8-4-4v-30.1c0-2.2,1.8-4,4-4h100.9c2.2,0,4,1.8,4,4v30.1
					C616.4,263.4,614.6,265.3,612.4,265.3z M511.5,228.6c-1.4,0-2.5,1.1-2.5,2.5v30.1c0,1.4,1.1,2.5,2.5,2.5h100.9
					c1.4,0,2.5-1.1,2.5-2.5v-30.1c0-1.4-1.1-2.5-2.5-2.5H511.5z"/>
			</g>
		</g>
		<g>
			<path style="fill:#3E487A;" d="M441.1,241.4v10.8h-1.4v-10.8H441.1z"/>
			<path style="fill:#3E487A;" d="M450.5,248.2c0,2.9-2,4.1-3.9,4.1c-2.1,0-3.7-1.5-3.7-4c0-2.6,1.7-4.1,3.8-4.1
				C449,244.3,450.5,245.9,450.5,248.2z M444.4,248.3c0,1.7,1,3,2.3,3c1.3,0,2.4-1.3,2.4-3c0-1.3-0.7-3-2.3-3
				C445.1,245.3,444.4,246.8,444.4,248.3z"/>
			<path style="fill:#3E487A;" d="M453.7,242.6h-3.3v-1.2h8v1.2h-3.3v9.6h-1.4V242.6z"/>
		</g>
		<g>
			<path style="fill:#3E487A;" d="M519.9,240.8c0.7-0.1,1.6-0.2,2.6-0.2c1.8,0,3,0.4,3.8,1.2c0.9,0.8,1.3,1.9,1.3,3.4
				c0,1.5-0.5,2.8-1.4,3.7c-0.9,0.9-2.4,1.4-4.2,1.4c-0.9,0-1.6,0-2.2-0.1V240.8z M521.2,249.1c0.3,0,0.8,0.1,1.2,0.1
				c2.6,0,4-1.5,4-4c0-2.2-1.2-3.6-3.8-3.6c-0.6,0-1.1,0.1-1.4,0.1V249.1z"/>
			<path style="fill:#3E487A;" d="M530.6,241.4c0,0.4-0.3,0.8-0.8,0.8c-0.4,0-0.7-0.3-0.7-0.8c0-0.4,0.3-0.8,0.8-0.8
				C530.3,240.6,530.6,241,530.6,241.4z M529.2,250.1v-6.8h1.2v6.8H529.2z"/>
			<path style="fill:#3E487A;" d="M538.3,249.1c0,1.6-0.3,2.5-1,3.1c-0.7,0.6-1.6,0.8-2.5,0.8c-0.8,0-1.7-0.2-2.3-0.6l0.3-1
				c0.4,0.3,1.1,0.5,2,0.5c1.3,0,2.2-0.7,2.2-2.4v-0.7h0c-0.4,0.6-1.1,1.1-2.2,1.1c-1.7,0-2.9-1.4-2.9-3.3c0-2.3,1.5-3.6,3.1-3.6
				c1.2,0,1.8,0.6,2.1,1.2h0l0-1h1.1c0,0.5-0.1,1-0.1,1.8V249.1z M537.1,246c0-0.2,0-0.4-0.1-0.5c-0.2-0.7-0.8-1.3-1.7-1.3
				c-1.2,0-2,1-2,2.6c0,1.3,0.7,2.4,2,2.4c0.8,0,1.5-0.5,1.7-1.3c0.1-0.2,0.1-0.4,0.1-0.7V246z"/>
			<path style="fill:#3E487A;" d="M541.6,241.4c0,0.4-0.3,0.8-0.8,0.8c-0.4,0-0.7-0.3-0.7-0.8c0-0.4,0.3-0.8,0.8-0.8
				C541.3,240.6,541.6,241,541.6,241.4z M540.2,250.1v-6.8h1.2v6.8H540.2z"/>
			<path style="fill:#3E487A;" d="M545,241.7v1.6h1.8v0.9H545v3.7c0,0.8,0.2,1.3,0.9,1.3c0.3,0,0.5,0,0.7-0.1l0.1,0.9
				c-0.2,0.1-0.6,0.2-1.1,0.2c-0.6,0-1-0.2-1.3-0.5c-0.3-0.4-0.5-1-0.5-1.8v-3.7h-1.1v-0.9h1.1V242L545,241.7z"/>
			<path style="fill:#3E487A;" d="M552.9,248.5c0,0.6,0,1.2,0.1,1.6h-1.1l-0.1-0.9h0c-0.4,0.5-1.1,1-2.1,1c-1.4,0-2.1-1-2.1-1.9
				c0-1.6,1.5-2.5,4.1-2.5v-0.1c0-0.5-0.2-1.6-1.5-1.6c-0.6,0-1.3,0.2-1.8,0.5l-0.3-0.8c0.6-0.4,1.4-0.6,2.2-0.6
				c2.1,0,2.6,1.4,2.6,2.8V248.5z M551.7,246.6c-1.3,0-2.9,0.2-2.9,1.5c0,0.8,0.5,1.2,1.1,1.2c0.9,0,1.5-0.6,1.7-1.1
				c0-0.1,0.1-0.3,0.1-0.4V246.6z"/>
			<path style="fill:#3E487A;" d="M554.9,240.1h1.2v9.9h-1.2V240.1z"/>
			<path style="fill:#3E487A;" d="M561.1,248.6c0.5,0.4,1.3,0.6,2.2,0.6c1.2,0,2-0.7,2-1.6c0-0.9-0.5-1.4-1.8-1.9
				c-1.5-0.6-2.5-1.4-2.5-2.7c0-1.5,1.2-2.6,3.1-2.6c1,0,1.7,0.2,2.1,0.5l-0.3,1c-0.3-0.2-0.9-0.4-1.8-0.4c-1.3,0-1.8,0.8-1.8,1.4
				c0,0.9,0.6,1.3,1.9,1.8c1.6,0.6,2.4,1.4,2.4,2.8c0,1.5-1.1,2.7-3.3,2.7c-0.9,0-1.9-0.3-2.4-0.6L561.1,248.6z"/>
			<path style="fill:#3E487A;" d="M569.4,241.4c0,0.4-0.3,0.8-0.8,0.8c-0.4,0-0.7-0.3-0.7-0.8c0-0.4,0.3-0.8,0.8-0.8
				C569.1,240.6,569.4,241,569.4,241.4z M568.1,250.1v-6.8h1.2v6.8H568.1z"/>
			<path style="fill:#3E487A;" d="M577.1,249.1c0,1.6-0.3,2.5-1,3.1c-0.7,0.6-1.6,0.8-2.5,0.8c-0.8,0-1.7-0.2-2.3-0.6l0.3-1
				c0.4,0.3,1.1,0.5,2,0.5c1.3,0,2.2-0.7,2.2-2.4v-0.7h0c-0.4,0.6-1.1,1.1-2.2,1.1c-1.7,0-2.9-1.4-2.9-3.3c0-2.3,1.5-3.6,3.1-3.6
				c1.2,0,1.8,0.6,2.1,1.2h0l0-1h1.1c0,0.5-0.1,1-0.1,1.8V249.1z M575.9,246c0-0.2,0-0.4-0.1-0.5c-0.2-0.7-0.8-1.3-1.7-1.3
				c-1.2,0-2,1-2,2.6c0,1.3,0.7,2.4,2,2.4c0.8,0,1.5-0.5,1.7-1.3c0.1-0.2,0.1-0.4,0.1-0.7V246z"/>
			<path style="fill:#3E487A;" d="M579.1,245.1c0-0.7,0-1.3-0.1-1.8h1.1l0.1,1.1h0c0.3-0.6,1.1-1.3,2.2-1.3c0.9,0,2.4,0.6,2.4,2.9v4
				h-1.2v-3.9c0-1.1-0.4-2-1.6-2c-0.8,0-1.4,0.6-1.7,1.3c-0.1,0.2-0.1,0.4-0.1,0.6v4.1h-1.2V245.1z"/>
			<path style="fill:#3E487A;" d="M591.6,248.5c0,0.6,0,1.2,0.1,1.6h-1.1l-0.1-0.9h0c-0.4,0.5-1.1,1-2.1,1c-1.4,0-2.1-1-2.1-1.9
				c0-1.6,1.5-2.5,4.1-2.5v-0.1c0-0.5-0.2-1.6-1.5-1.6c-0.6,0-1.3,0.2-1.8,0.5l-0.3-0.8c0.6-0.4,1.4-0.6,2.2-0.6
				c2.1,0,2.6,1.4,2.6,2.8V248.5z M590.4,246.6c-1.3,0-2.9,0.2-2.9,1.5c0,0.8,0.5,1.2,1.1,1.2c0.9,0,1.5-0.6,1.7-1.1
				c0-0.1,0.1-0.3,0.1-0.4V246.6z"/>
			<path style="fill:#3E487A;" d="M599.4,249.1c0,1.6-0.3,2.5-1,3.1c-0.7,0.6-1.6,0.8-2.5,0.8c-0.8,0-1.7-0.2-2.3-0.6l0.3-1
				c0.4,0.3,1.1,0.5,2,0.5c1.3,0,2.2-0.7,2.2-2.4v-0.7h0c-0.4,0.6-1.1,1.1-2.2,1.1c-1.7,0-2.9-1.4-2.9-3.3c0-2.3,1.5-3.6,3.1-3.6
				c1.2,0,1.8,0.6,2.1,1.2h0l0-1h1.1c0,0.5-0.1,1-0.1,1.8V249.1z M598.2,246c0-0.2,0-0.4-0.1-0.5c-0.2-0.7-0.8-1.3-1.7-1.3
				c-1.2,0-2,1-2,2.6c0,1.3,0.7,2.4,2,2.4c0.8,0,1.5-0.5,1.7-1.3c0.1-0.2,0.1-0.4,0.1-0.7V246z"/>
			<path style="fill:#3E487A;" d="M602.1,246.9c0,1.7,1.1,2.4,2.3,2.4c0.9,0,1.4-0.2,1.9-0.4l0.2,0.9c-0.4,0.2-1.2,0.4-2.3,0.4
				c-2.1,0-3.3-1.4-3.3-3.4c0-2,1.2-3.6,3.2-3.6c2.2,0,2.8,1.9,2.8,3.2c0,0.3,0,0.4,0,0.6H602.1z M605.7,246c0-0.8-0.3-2-1.7-2
				c-1.3,0-1.8,1.1-1.9,2H605.7z"/>
		</g>
	</g>
	<g>
		<rect x="459.4" y="518.5" style="fill:#FFFFFF;" width="92.9" height="31.3"/>
	</g>
	<g>
		<path style="fill:#3E487A;" d="M433.4,523.1v7h7.4v-7h3.2v17.5h-3.2v-7.7h-7.4v7.7h-3.2v-17.5H433.4z"/>
		<path style="fill:#3E487A;" d="M449.8,535.2c0.1,2.3,1.8,3.3,3.9,3.3c1.5,0,2.5-0.2,3.5-0.6l0.5,2.2c-1.1,0.5-2.6,0.8-4.4,0.8
			c-4.1,0-6.5-2.5-6.5-6.4c0-3.5,2.1-6.8,6.2-6.8c4.1,0,5.5,3.4,5.5,6.2c0,0.6-0.1,1.1-0.1,1.4H449.8z M455.3,532.9
			c0-1.2-0.5-3.1-2.6-3.1c-2,0-2.8,1.8-2.9,3.1H455.3z"/>
		<path style="fill:#3E487A;" d="M470.8,537.6c0,1.1,0.1,2.3,0.2,3h-2.9l-0.2-1.4h-0.1c-0.8,1-2.1,1.7-3.7,1.7c-2.5,0-4-1.8-4-3.8
			c0-3.2,2.8-4.8,7.5-4.8v-0.2c0-0.8-0.3-2.2-2.6-2.2c-1.2,0-2.5,0.4-3.4,0.9l-0.6-2.1c0.9-0.6,2.6-1.1,4.6-1.1
			c4.1,0,5.2,2.6,5.2,5.4V537.6z M467.6,534.4c-2.3,0-4.4,0.4-4.4,2.4c0,1.2,0.8,1.8,1.8,1.8c1.3,0,2.2-0.8,2.5-1.7
			c0.1-0.2,0.1-0.5,0.1-0.7V534.4z"/>
		<path style="fill:#3E487A;" d="M485.8,522.2v14.9c0,1.3,0.1,2.7,0.1,3.6h-2.8l-0.2-2h-0.1c-0.8,1.4-2.3,2.3-4.1,2.3
			c-3,0-5.4-2.6-5.4-6.5c0-4.2,2.6-6.8,5.7-6.8c1.7,0,3,0.7,3.6,1.6h0.1v-7.1H485.8z M482.6,533.2c0-0.3,0-0.6-0.1-0.9
			c-0.3-1.2-1.3-2.2-2.8-2.2c-2.1,0-3.2,1.8-3.2,4.2c0,2.3,1.1,4,3.2,4c1.3,0,2.4-0.9,2.8-2.3c0.1-0.3,0.1-0.6,0.1-0.9V533.2z"/>
		<path style="fill:#3E487A;" d="M489.2,522.2h3.2v18.5h-3.2V522.2z"/>
		<path style="fill:#3E487A;" d="M498.2,535.2c0.1,2.3,1.8,3.3,3.9,3.3c1.5,0,2.5-0.2,3.5-0.6l0.5,2.2c-1.1,0.5-2.6,0.8-4.4,0.8
			c-4.1,0-6.5-2.5-6.5-6.4c0-3.5,2.1-6.8,6.2-6.8c4.1,0,5.5,3.4,5.5,6.2c0,0.6-0.1,1.1-0.1,1.4H498.2z M503.8,532.9
			c0-1.2-0.5-3.1-2.6-3.1c-2,0-2.8,1.8-2.9,3.1H503.8z"/>
		<path style="fill:#3E487A;" d="M509.2,537.7c0.7,0.4,2.1,0.9,3.2,0.9c1.4,0,2-0.6,2-1.4c0-0.9-0.5-1.3-2.1-1.8
			c-2.5-0.8-3.5-2.2-3.5-3.7c0-2.2,1.8-4,4.8-4c1.4,0,2.6,0.3,3.4,0.8l-0.7,2.2c-0.5-0.3-1.6-0.7-2.7-0.7c-1.1,0-1.8,0.6-1.8,1.4
			c0,0.8,0.6,1.2,2.2,1.8c2.3,0.8,3.4,2,3.4,3.8c0,2.3-1.8,4-5.1,4c-1.5,0-2.9-0.4-3.8-0.9L509.2,537.7z"/>
		<path style="fill:#3E487A;" d="M520.1,537.7c0.7,0.4,2.1,0.9,3.2,0.9c1.4,0,2-0.6,2-1.4c0-0.9-0.5-1.3-2.1-1.8
			c-2.5-0.8-3.5-2.2-3.5-3.7c0-2.2,1.8-4,4.8-4c1.4,0,2.6,0.3,3.4,0.8l-0.7,2.2c-0.5-0.3-1.6-0.7-2.7-0.7c-1.1,0-1.8,0.6-1.8,1.4
			c0,0.8,0.6,1.2,2.2,1.8c2.3,0.8,3.4,2,3.4,3.8c0,2.3-1.8,4-5.1,4c-1.5,0-2.9-0.4-3.8-0.9L520.1,537.7z"/>
		<path style="fill:#3E487A;" d="M549.1,540.1c-0.8,0.4-2.4,0.8-4.5,0.8c-5.6,0-8.9-3.5-8.9-8.8c0-5.8,4-9.3,9.4-9.3
			c2.1,0,3.6,0.4,4.2,0.8l-0.7,2.5c-0.8-0.4-2-0.7-3.4-0.7c-3.6,0-6.1,2.2-6.1,6.4c0,3.9,2.2,6.3,6.1,6.3c1.3,0,2.6-0.3,3.5-0.6
			L549.1,540.1z"/>
		<path style="fill:#3E487A;" d="M566.6,533.5c-0.1-2.3-0.2-5-0.2-7.4h-0.1c-0.6,2.1-1.3,4.5-2.1,6.7l-2.6,7.6h-2.4l-2.3-7.5
			c-0.7-2.2-1.3-4.6-1.8-6.8h-0.1c-0.1,2.3-0.2,5.1-0.3,7.5l-0.4,7h-3l1.2-17.5h4.2l2.3,7c0.6,2.1,1.2,4.1,1.6,6.1h0.1
			c0.5-1.9,1.1-4.1,1.7-6.1l2.4-7h4.2l1,17.5H567L566.6,533.5z"/>
		<path style="fill:#3E487A;" d="M573.3,537.1c1,0.6,2.6,1.1,4.2,1.1c2,0,3.2-1,3.2-2.4c0-1.3-0.9-2.1-3.1-2.9
			c-2.9-1-4.8-2.6-4.8-5.1c0-2.9,2.4-5,6.2-5c1.9,0,3.3,0.4,4.2,0.9l-0.8,2.6c-0.6-0.3-1.9-0.8-3.5-0.8c-2,0-2.9,1.1-2.9,2.1
			c0,1.4,1,2,3.4,2.9c3,1.1,4.5,2.7,4.5,5.2c0,2.8-2.1,5.3-6.6,5.3c-1.9,0-3.8-0.5-4.8-1.1L573.3,537.1z"/>
	</g>
	<g>
		<g>
			<g>
				<g>
					<g>
						<g>
							<path style="fill:#FFFFFF;" d="M230.1,124.3h-28.4c-2.4,0-4.6,0.9-6.3,2.6l-20.1,20.1c-1.7,1.7-2.6,3.9-2.6,6.3v28.4
								c0,2.4,0.9,4.6,2.6,6.3l20.1,20.1c1.7,1.7,3.9,2.6,6.3,2.6h28.4c2.4,0,4.6-0.9,6.3-2.6l20.1-20.1c1.7-1.7,2.6-3.9,2.6-6.3
								v-28.4c0-2.4-0.9-4.6-2.6-6.3l-20.1-20.1C234.8,125.2,232.5,124.3,230.1,124.3z"/>
							<path style="fill:#2A91E9;" d="M230.1,211.5h-1.8c-0.6,0-1-0.4-1-1s0.4-1,1-1h1.8c0.4,0,0.7,0,1.1-0.1
								c0.5-0.1,1.1,0.3,1.1,0.9c0.1,0.5-0.3,1.1-0.9,1.1C231.1,211.5,230.6,211.5,230.1,211.5z M223.4,211.5h-3c-0.6,0-1-0.4-1-1
								s0.4-1,1-1h3c0.6,0,1,0.4,1,1S223.9,211.5,223.4,211.5z M215.4,211.5h-3c-0.6,0-1-0.4-1-1s0.4-1,1-1h3c0.6,0,1,0.4,1,1
								S215.9,211.5,215.4,211.5z M207.4,211.5h-3c-0.6,0-1-0.4-1-1s0.4-1,1-1h3c0.6,0,1,0.4,1,1S207.9,211.5,207.4,211.5z
								 M199.4,211.2c-0.1,0-0.2,0-0.3,0c-1.1-0.3-2.1-0.8-3-1.4c-0.5-0.3-0.6-0.9-0.3-1.4c0.3-0.5,0.9-0.6,1.4-0.3
								c0.7,0.5,1.5,0.9,2.4,1.1c0.5,0.1,0.8,0.7,0.7,1.2C200.3,210.9,199.9,211.2,199.4,211.2z M235.9,209.4
								c-0.3,0-0.6-0.1-0.8-0.4c-0.4-0.4-0.3-1.1,0.1-1.4c0.2-0.1,0.3-0.3,0.5-0.4l1.6-1.6c0.4-0.4,1-0.4,1.4,0c0.4,0.4,0.4,1,0,1.4
								l-1.6,1.6c-0.2,0.2-0.4,0.4-0.6,0.6C236.3,209.4,236.1,209.4,235.9,209.4z M193.1,206.5c-0.3,0-0.5-0.1-0.7-0.3l-2.1-2.1
								c-0.4-0.4-0.4-1,0-1.4s1-0.4,1.4,0l2.1,2.1c0.4,0.4,0.4,1,0,1.4C193.6,206.4,193.3,206.5,193.1,206.5z M241.6,203.8
								c-0.3,0-0.5-0.1-0.7-0.3c-0.4-0.4-0.4-1,0-1.4l2.1-2.1c0.4-0.4,1-0.4,1.4,0s0.4,1,0,1.4l-2.1,2.1
								C242.1,203.7,241.8,203.8,241.6,203.8z M187.4,200.9c-0.3,0-0.5-0.1-0.7-0.3l-2.1-2.1c-0.4-0.4-0.4-1,0-1.4
								c0.4-0.4,1-0.4,1.4,0l2.1,2.1c0.4,0.4,0.4,1,0,1.4C187.9,200.8,187.7,200.9,187.4,200.9z M247.2,198.1
								c-0.3,0-0.5-0.1-0.7-0.3c-0.4-0.4-0.4-1,0-1.4l2.1-2.1c0.4-0.4,1-0.4,1.4,0c0.4,0.4,0.4,1,0,1.4l-2.1,2.1
								C247.7,198,247.5,198.1,247.2,198.1z M181.8,195.2c-0.3,0-0.5-0.1-0.7-0.3l-2.1-2.1c-0.4-0.4-0.4-1,0-1.4
								c0.4-0.4,1-0.4,1.4,0l2.1,2.1c0.4,0.4,0.4,1,0,1.4C182.3,195.1,182,195.2,181.8,195.2z M252.9,192.5c-0.3,0-0.5-0.1-0.7-0.3
								c-0.4-0.4-0.4-1,0-1.4l2.1-2.1c0.4-0.4,1-0.4,1.4,0c0.4,0.4,0.4,1,0,1.4l-2.1,2.1C253.4,192.4,253.1,192.5,252.9,192.5z
								 M176.1,189.5c-0.3,0-0.5-0.1-0.7-0.3l-0.7-0.7c-0.5-0.5-1-1.1-1.4-1.8c-0.3-0.5-0.1-1.1,0.3-1.4c0.5-0.3,1.1-0.1,1.4,0.3
								c0.3,0.5,0.7,1,1.1,1.4l0.7,0.7c0.4,0.4,0.4,1,0,1.4C176.6,189.4,176.4,189.5,176.1,189.5z M258.2,186.5
								c-0.1,0-0.3,0-0.4-0.1c-0.5-0.2-0.7-0.8-0.5-1.3c0.4-0.8,0.6-1.7,0.8-2.5c0.1-0.5,0.6-0.9,1.1-0.9c0.5,0.1,0.9,0.6,0.9,1.1
								c-0.1,1.1-0.5,2.2-0.9,3.2C258.9,186.3,258.5,186.5,258.2,186.5z M172.8,182.5c-0.6,0-1-0.4-1-1v-3c0-0.6,0.4-1,1-1
								s1,0.4,1,1v3C173.8,182.1,173.4,182.5,172.8,182.5z M259.1,178.7c-0.6,0-1-0.4-1-1v-3c0-0.6,0.4-1,1-1s1,0.4,1,1v3
								C260.1,178.2,259.6,178.7,259.1,178.7z M172.8,174.5c-0.6,0-1-0.4-1-1v-3c0-0.6,0.4-1,1-1s1,0.4,1,1v3
								C173.8,174.1,173.4,174.5,172.8,174.5z M259.1,170.7c-0.6,0-1-0.4-1-1v-3c0-0.6,0.4-1,1-1s1,0.4,1,1v3
								C260.1,170.2,259.6,170.7,259.1,170.7z M172.8,166.5c-0.6,0-1-0.4-1-1v-3c0-0.6,0.4-1,1-1s1,0.4,1,1v3
								C173.8,166.1,173.4,166.5,172.8,166.5z M259.1,162.7c-0.6,0-1-0.4-1-1v-3c0-0.6,0.4-1,1-1s1,0.4,1,1v3
								C260.1,162.2,259.6,162.7,259.1,162.7z M172.8,158.5c-0.6,0-1-0.4-1-1v-3c0-0.6,0.4-1,1-1s1,0.4,1,1v3
								C173.8,158.1,173.4,158.5,172.8,158.5z M259.1,154.7c-0.6,0-1-0.4-1-1v-0.5c0-0.8-0.1-1.5-0.3-2.2c-0.2-0.5,0.1-1.1,0.7-1.2
								c0.5-0.2,1.1,0.1,1.2,0.7c0.3,0.9,0.4,1.8,0.4,2.8v0.5C260.1,154.2,259.6,154.7,259.1,154.7z M173.6,150.6
								c-0.1,0-0.3,0-0.4-0.1c-0.5-0.2-0.7-0.8-0.5-1.3c0.4-1,1.1-2,1.8-2.8c0.4-0.4,1-0.4,1.4,0c0.4,0.4,0.4,1,0,1.4
								c-0.6,0.7-1.1,1.4-1.5,2.2C174.3,150.4,174,150.6,173.6,150.6z M256.1,147.5c-0.3,0-0.5-0.1-0.7-0.3l-2.1-2.1
								c-0.4-0.4-0.4-1,0-1.4s1-0.4,1.4,0l2.1,2.1c0.4,0.4,0.4,1,0,1.4C256.6,147.4,256.4,147.5,256.1,147.5z M178.8,144.6
								c-0.3,0-0.5-0.1-0.7-0.3c-0.4-0.4-0.4-1,0-1.4l2.1-2.1c0.4-0.4,1-0.4,1.4,0s0.4,1,0,1.4l-2.1,2.1
								C179.3,144.5,179,144.6,178.8,144.6z M250.4,141.9c-0.3,0-0.5-0.1-0.7-0.3l-2.1-2.1c-0.4-0.4-0.4-1,0-1.4s1-0.4,1.4,0
								l2.1,2.1c0.4,0.4,0.4,1,0,1.4C251,141.8,250.7,141.9,250.4,141.9z M184.4,138.9c-0.3,0-0.5-0.1-0.7-0.3c-0.4-0.4-0.4-1,0-1.4
								l2.1-2.1c0.4-0.4,1-0.4,1.4,0s0.4,1,0,1.4l-2.1,2.1C184.9,138.8,184.7,138.9,184.4,138.9z M244.8,136.2
								c-0.3,0-0.5-0.1-0.7-0.3l-2.1-2.1c-0.4-0.4-0.4-1,0-1.4s1-0.4,1.4,0l2.1,2.1c0.4,0.4,0.4,1,0,1.4
								C245.3,136.1,245,136.2,244.8,136.2z M190.1,133.3c-0.3,0-0.5-0.1-0.7-0.3c-0.4-0.4-0.4-1,0-1.4l2.1-2.1c0.4-0.4,1-0.4,1.4,0
								c0.4,0.4,0.4,1,0,1.4l-2.1,2.1C190.6,133.2,190.3,133.3,190.1,133.3z M239.1,130.6c-0.3,0-0.5-0.1-0.7-0.3l-2.1-2.1
								c-0.4-0.4-0.4-1,0-1.4s1-0.4,1.4,0l2.1,2.1c0.4,0.4,0.4,1,0,1.4C239.6,130.5,239.4,130.6,239.1,130.6z M195.7,127.6
								c-0.3,0-0.5-0.1-0.7-0.3c-0.4-0.4-0.3-1,0.1-1.4c0.8-0.8,1.8-1.4,2.8-1.8c0.5-0.2,1.1,0,1.3,0.5c0.2,0.5,0,1.1-0.5,1.3
								c-0.8,0.4-1.6,0.8-2.2,1.4C196.2,127.5,196,127.6,195.7,127.6z M232.9,125.7c-0.1,0-0.2,0-0.3,0c-0.8-0.3-1.6-0.4-2.4-0.4h-3
								c-0.6,0-1-0.4-1-1s0.4-1,1-1h3c1,0,2.1,0.2,3,0.5c0.5,0.2,0.8,0.7,0.6,1.3C233.7,125.4,233.3,125.7,232.9,125.7z
								 M222.1,125.3h-3c-0.6,0-1-0.4-1-1s0.4-1,1-1h3c0.6,0,1,0.4,1,1S222.7,125.3,222.1,125.3z M214.1,125.3h-3c-0.6,0-1-0.4-1-1
								s0.4-1,1-1h3c0.6,0,1,0.4,1,1S214.7,125.3,214.1,125.3z M206.1,125.3h-3c-0.6,0-1-0.4-1-1s0.4-1,1-1h3c0.6,0,1,0.4,1,1
								S206.7,125.3,206.1,125.3z"/>
						</g>
					</g>
					<g>
						<g>
							<path style="fill:#3E487A;" d="M227.5,132.5c1.9,0,3.7,0.8,5.1,2.1l16.3,16.2c1.3,1.4,2.1,3.2,2.1,5.1v23
								c0,1.9-0.8,3.7-2.1,5.1l-16.2,16.2c-1.4,1.3-3.2,2.1-5.1,2.1h-23c-1.9,0-3.7-0.8-5.1-2.1L183.1,184c-1.3-1.4-2.1-3.2-2.1-5.1
								v-23c0-1.9,0.8-3.7,2.1-5.1l16.2-16.2c1.4-1.3,3.2-2.1,5.1-2.1H227.5 M227.5,131h-23c-2.3,0-4.5,0.9-6.1,2.5l-16.2,16.2
								c-1.6,1.7-2.5,3.8-2.5,6.2v23c0,2.3,0.9,4.5,2.5,6.1l16.2,16.2c1.6,1.6,3.8,2.5,6.2,2.5h23c2.3,0,4.5-0.9,6.1-2.5l16.2-16.2
								c1.6-1.6,2.5-3.8,2.5-6.2v-23c0-2.3-0.9-4.5-2.5-6.1l-16.3-16.2C232,131.9,229.7,131,227.5,131L227.5,131z"/>
						</g>
					</g>
				</g>
			</g>
		</g>
		<g>
			<g>
				<path style="fill:#3E487A;" d="M198.1,168.6c0,7,4,13,9.9,15.8l-8.4-23C198.7,163.6,198.1,166,198.1,168.6z"/>
			</g>
			<g>
				<path style="fill:#3E487A;" d="M227.6,167.7c0-2.2-0.8-3.7-1.5-4.8c-0.9-1.4-1.7-2.7-1.7-4.1c0-1.6,1.2-3.1,3-3.1
					c0.1,0,0.2,0,0.2,0c-3.1-2.9-7.3-4.6-11.9-4.6c-6.1,0-11.5,3.2-14.7,7.9c0.4,0,0.8,0,1.1,0c1.8,0,4.7-0.2,4.7-0.2
					c0.9-0.1,1.1,1.3,0.1,1.4c0,0-1,0.1-2,0.2l6.4,19l3.8-11.5l-2.7-7.5c-0.9-0.1-1.8-0.2-1.8-0.2c-0.9-0.1-0.8-1.5,0.1-1.4
					c0,0,2.9,0.2,4.6,0.2c1.8,0,4.7-0.2,4.7-0.2c0.9-0.1,1.1,1.3,0.1,1.4c0,0-1,0.1-2,0.2l6.4,18.9l1.8-5.9
					C227,170.9,227.6,169.2,227.6,167.7z"/>
			</g>
			<g>
				<path style="fill:#3E487A;" d="M216,170.1l-5.3,15.3c1.6,0.5,3.2,0.7,5,0.7c2,0,4-0.4,5.8-1c0-0.1-0.1-0.2-0.1-0.2L216,170.1z"
					/>
			</g>
			<g>
				<path style="fill:#3E487A;" d="M231.2,160.1c0.1,0.6,0.1,1.2,0.1,1.8c0,1.8-0.3,3.8-1.3,6.3l-5.4,15.5c5.2-3,8.7-8.7,8.7-15.2
					C233.3,165.5,232.5,162.6,231.2,160.1z"/>
			</g>
			<g>
				<path style="fill:#3E487A;" d="M215.7,148.1c-11.3,0-20.5,9.2-20.5,20.5c0,11.3,9.2,20.5,20.5,20.5c11.3,0,20.5-9.2,20.5-20.5
					C236.2,157.3,227,148.1,215.7,148.1z M215.7,188.1c-10.8,0-19.6-8.8-19.6-19.6c0-10.8,8.8-19.6,19.6-19.6
					c10.8,0,19.6,8.8,19.6,19.6C235.3,179.3,226.5,188.1,215.7,188.1z"/>
			</g>
		</g>
	</g>
	<g>
		<g>
			<g>
				<g>
					<path style="fill:#FFFFFF;" d="M497.4,448.9c-1.7,0-3.2-0.6-4.4-1.8l-12.3-12.3c-1.2-1.2-1.8-2.7-1.8-4.4v-17.4
						c0-1.6,0.6-3.2,1.8-4.4l12.3-12.3c1.2-1.2,2.7-1.8,4.4-1.8h17.4c1.6,0,3.2,0.7,4.4,1.8l12.3,12.3c1.2,1.2,1.8,2.7,1.8,4.4v17.4
						c0,1.7-0.6,3.2-1.8,4.4l-12.3,12.3c-1.2,1.2-2.7,1.8-4.4,1.8H497.4z"/>
				</g>
				<g>
					<path style="fill:#3E487A;" d="M514.8,395.4c1.4,0,2.8,0.6,3.8,1.6l12.3,12.3c1,1,1.6,2.4,1.6,3.8v17.4c0,1.4-0.6,2.8-1.6,3.8
						l-12.3,12.3c-1,1-2.4,1.6-3.8,1.6h-17.4c-1.4,0-2.8-0.6-3.8-1.6l-12.3-12.3c-1-1-1.6-2.4-1.6-3.8v-17.4c0-1.4,0.6-2.8,1.6-3.8
						l12.3-12.3c1-1,2.4-1.6,3.8-1.6H514.8 M514.8,393.9h-17.4c-1.8,0-3.6,0.7-4.9,2l-12.3,12.3c-1.3,1.3-2,3.1-2,4.9v17.4
						c0,1.8,0.7,3.6,2,4.9l12.3,12.3c1.3,1.3,3.1,2,4.9,2h17.4c1.8,0,3.6-0.7,4.9-2l12.3-12.3c1.3-1.3,2-3.1,2-4.9v-17.4
						c0-1.8-0.7-3.6-2-4.9l-12.3-12.3C518.4,394.6,516.6,393.9,514.8,393.9L514.8,393.9z"/>
				</g>
			</g>
		</g>
		<g>
			<g>
				<g>
					<path style="fill:#3E487A;" d="M507.1,419.3c-0.2-0.1-0.5,0-0.6,0.3l-1.8,5.3c-0.1,0.2,0,0.5,0.3,0.6c0.2,0.1,0.5,0,0.6-0.3
						l1.8-5.3C507.5,419.7,507.3,419.4,507.1,419.3z"/>
				</g>
				<g>
					<path style="fill:#3E487A;" d="M503.8,424.8l-1.6-2.4l1.6-2.4c0.1-0.2,0.1-0.5-0.1-0.6c-0.2-0.1-0.5-0.1-0.6,0.1l-1.8,2.6
						c-0.1,0.1-0.1,0.3,0,0.5l1.8,2.6c0.1,0.2,0.4,0.3,0.6,0.1C503.9,425.3,503.9,425,503.8,424.8L503.8,424.8z"/>
				</g>
				<g>
					<path style="fill:#3E487A;" d="M510.9,422.1l-1.8-2.6c-0.1-0.2-0.4-0.3-0.6-0.1c-0.2,0.1-0.3,0.4-0.1,0.6l1.6,2.4l-1.6,2.4
						c-0.1,0.2-0.1,0.5,0.1,0.6c0.2,0.1,0.5,0.1,0.6-0.1v0l1.8-2.6C511,422.5,511,422.3,510.9,422.1z"/>
				</g>
			</g>
			<g>
				<path style="fill:#3E487A;" d="M498.7,409.5v25.9l-6.1-3v-19.1L498.7,409.5 M500.2,406.8l-2.3,1.4l-6.1,3.8l-0.7,0.4v0.8v19.1
					v0.9l0.8,0.4l6.1,3l2.2,1.1v-2.4v-25.9V406.8L500.2,406.8z"/>
			</g>
			<g>
				<path style="fill:#3E487A;" d="M513.4,409.5l6.1,3.8v19.1l-6.1,3V409.5 M511.9,406.8v2.7v25.9v2.4l2.2-1.1l6.1-3l0.8-0.4v-0.9
					v-19.1v-0.8l-0.7-0.4l-6.1-3.8L511.9,406.8L511.9,406.8z"/>
			</g>
			<g>
				<path style="fill:#3E487A;" d="M511.6,416.9h-2.1v-1.5h2.1V416.9z M507.2,416.9H505v-1.5h2.3V416.9z M502.7,416.9h-2.3v-1.5h2.3
					V416.9z"/>
			</g>
			<g>
				<path style="fill:#3E487A;" d="M511.6,429.7h-2.1v-1.5h2.1V429.7z M507.2,429.7H505v-1.5h2.3V429.7z M502.7,429.7h-2.3v-1.5h2.3
					V429.7z"/>
			</g>
		</g>
	</g>
</g>
</svg>