<?xml version="1.0" encoding="utf-8"?>
<!-- Generator: Adobe Illustrator 24.1.1, SVG Export Plug-In . SVG Version: 6.00 Build 0)  -->
<svg version="1.1" id="Layer_1" xmlns="http://www.w3.org/2000/svg" xmlns:xlink="http://www.w3.org/1999/xlink" x="0px" y="0px"
	 viewBox="0 0 720 400.7" style="enable-background:new 0 0 720 400.7;" xml:space="preserve">
<g>
	<g>
		<rect x="-1.5" y="-2.1" style="fill:#F7F8FD;" width="723.6" height="404"/>
	</g>
	<g>
		<g>
			<g>
				<path style="fill:#FFFFFF;" d="M695.7,16.9h-4.2H27.4h-4.2c-4.3,0-7.8,1.8-7.8,4.1v81.9c0,2.2,3.5,4.1,7.8,4.1h4.2h664.1h4.2
					c4.3,0,7.8-1.8,7.8-4.1V21C703.5,18.7,700,16.9,695.7,16.9z"/>
			</g>
		</g>
		<g>
			<g>
				<g>
					<path style="fill:#3E487A;" d="M57.2,50.7v7.4h7.2v-7.4h4.3v19.3h-4.3v-8.1h-7.2v8.1h-4.3V50.7H57.2z"/>
				</g>
				<g>
					<path style="fill:#3E487A;" d="M76.9,50.7v11.1c0,3.3,1.3,5,3.5,5c2.3,0,3.5-1.6,3.5-5V50.7h4.3v10.8c0,5.9-3,8.8-8,8.8
						c-4.9,0-7.7-2.7-7.7-8.8V50.7H76.9z"/>
				</g>
				<g>
					<path style="fill:#3E487A;" d="M108.3,62.6c-0.1-2.3-0.2-5.1-0.2-7.9h-0.1c-0.6,2.5-1.4,5.2-2.2,7.5l-2.3,7.5h-3.4l-2.1-7.4
						c-0.6-2.3-1.3-5-1.7-7.5h-0.1c-0.1,2.6-0.2,5.6-0.3,8l-0.4,7.3h-4l1.2-19.3h5.8l1.9,6.4c0.6,2.2,1.2,4.6,1.6,6.9h0.1
						c0.5-2.2,1.2-4.8,1.8-6.9l2-6.4h5.7l1,19.3h-4.2L108.3,62.6z"/>
				</g>
				<g>
					<path style="fill:#3E487A;" d="M120.6,65l-1.4,4.9h-4.5l5.9-19.3h5.7l6,19.3h-4.7l-1.5-4.9H120.6z M125.5,61.7l-1.2-4.1
						c-0.3-1.1-0.7-2.6-1-3.7h-0.1c-0.3,1.1-0.6,2.6-0.9,3.7l-1.1,4.1H125.5z"/>
				</g>
				<g>
					<path style="fill:#3E487A;" d="M134.9,69.9V50.7h5.1l4,7.1c1.1,2,2.3,4.4,3.1,6.6h0.1c-0.3-2.5-0.3-5.1-0.3-8.1v-5.6h4v19.3
						h-4.6l-4.1-7.4c-1.1-2.1-2.4-4.5-3.3-6.8h-0.1c0.1,2.6,0.2,5.3,0.2,8.4v5.8H134.9z"/>
				</g>
				<g>
					<path style="fill:#3E487A;" d="M174.5,69.4c-0.8,0.4-2.6,0.8-4.9,0.8c-6.7,0-10.1-4.2-10.1-9.7c0-6.6,4.7-10.2,10.5-10.2
						c2.3,0,4,0.4,4.7,0.9l-0.9,3.4c-0.9-0.4-2.1-0.7-3.7-0.7c-3.4,0-6.1,2.1-6.1,6.4c0,3.9,2.3,6.3,6.1,6.3c1.3,0,2.8-0.3,3.7-0.6
						L174.5,69.4z"/>
				</g>
				<g>
					<path style="fill:#3E487A;" d="M188.9,61.8h-7.1v4.6h7.9v3.6h-12.3V50.7h11.9v3.6h-7.5v4h7.1V61.8z"/>
				</g>
				<g>
					<path style="fill:#3E487A;" d="M192.7,69.9V50.7h5.1l4,7.1c1.1,2,2.3,4.4,3.1,6.6h0.1c-0.3-2.5-0.3-5.1-0.3-8.1v-5.6h4v19.3
						H204l-4.1-7.4c-1.1-2.1-2.4-4.5-3.3-6.8h-0.1c0.1,2.6,0.2,5.3,0.2,8.4v5.8H192.7z"/>
				</g>
				<g>
					<path style="fill:#3E487A;" d="M216.1,54.3h-5.2v-3.7h14.8v3.7h-5.3v15.6h-4.3V54.3z"/>
				</g>
				<g>
					<path style="fill:#3E487A;" d="M228.1,50.9c1.4-0.2,3.5-0.4,5.8-0.4c2.9,0,4.9,0.4,6.2,1.5c1.2,0.9,1.8,2.3,1.8,4.1
						c0,2.4-1.7,4.1-3.4,4.7v0.1c1.3,0.5,2.1,1.8,2.6,3.6c0.6,2.2,1.2,4.7,1.5,5.5h-4.5c-0.3-0.6-0.8-2.1-1.3-4.5
						c-0.5-2.4-1.4-3.1-3.2-3.1h-1.3v7.6h-4.3V50.9z M232.4,59.2h1.7c2.2,0,3.5-1.1,3.5-2.8c0-1.7-1.2-2.7-3.2-2.7
						c-1.1,0-1.7,0.1-2,0.1V59.2z"/>
				</g>
				<g>
					<path style="fill:#3E487A;" d="M249.4,50.7v19.3H245V50.7H249.4z"/>
				</g>
				<g>
					<path style="fill:#3E487A;" d="M267.3,69.4c-0.8,0.4-2.6,0.8-4.9,0.8c-6.7,0-10.1-4.2-10.1-9.7c0-6.6,4.7-10.2,10.5-10.2
						c2.3,0,4,0.4,4.7,0.9l-0.9,3.4c-0.9-0.4-2.1-0.7-3.7-0.7c-3.4,0-6.1,2.1-6.1,6.4c0,3.9,2.3,6.3,6.1,6.3c1.3,0,2.8-0.3,3.7-0.6
						L267.3,69.4z"/>
				</g>
				<g>
					<path style="fill:#3E487A;" d="M275.9,51c1.6-0.3,3.7-0.4,5.9-0.4c3.7,0,6.1,0.7,7.9,2.1c2,1.5,3.3,3.9,3.3,7.3
						c0,3.7-1.3,6.2-3.2,7.8c-2,1.7-5.1,2.5-8.9,2.5c-2.3,0-3.9-0.1-4.9-0.3V51z M280.3,66.7c0.4,0.1,1,0.1,1.5,0.1
						c4,0,6.6-2.1,6.6-6.7c0-4-2.3-6.1-6.1-6.1c-0.9,0-1.6,0.1-2,0.2V66.7z"/>
				</g>
				<g>
					<path style="fill:#3E487A;" d="M307.3,61.8h-7.1v4.6h7.9v3.6h-12.3V50.7h11.9v3.6h-7.5v4h7.1V61.8z"/>
				</g>
				<g>
					<path style="fill:#3E487A;" d="M311.3,65.5c1.1,0.6,3,1.2,4.8,1.2c2,0,3.1-0.8,3.1-2.1c0-1.2-0.9-1.9-3.2-2.7
						c-3.2-1.1-5.3-2.9-5.3-5.7c0-3.3,2.8-5.8,7.3-5.8c2.2,0,3.8,0.4,4.9,1l-1,3.5c-0.7-0.4-2.1-0.9-4-0.9c-1.9,0-2.8,0.9-2.8,1.9
						c0,1.2,1.1,1.8,3.6,2.7c3.4,1.3,5,3,5,5.7c0,3.2-2.5,6-7.7,6c-2.2,0-4.4-0.6-5.5-1.2L311.3,65.5z"/>
				</g>
				<g>
					<path style="fill:#3E487A;" d="M330.9,50.7v19.3h-4.3V50.7H330.9z"/>
				</g>
				<g>
					<path style="fill:#3E487A;" d="M350.8,69.1c-1.3,0.5-3.9,1.1-6.4,1.1c-3.5,0-6.1-0.9-7.8-2.6c-1.7-1.7-2.7-4.2-2.7-7
						c0-6.4,4.7-10.1,11-10.1c2.5,0,4.4,0.5,5.3,0.9l-0.9,3.5c-1.1-0.5-2.3-0.8-4.5-0.8c-3.6,0-6.4,2-6.4,6.2c0,4,2.5,6.3,6.1,6.3
						c1,0,1.8-0.1,2.1-0.3v-4.1h-3v-3.4h7.2V69.1z"/>
				</g>
				<g>
					<path style="fill:#3E487A;" d="M354.2,69.9V50.7h5.1l4,7.1c1.1,2,2.3,4.4,3.1,6.6h0.1c-0.3-2.5-0.3-5.1-0.3-8.1v-5.6h4v19.3
						h-4.6l-4.1-7.4c-1.1-2.1-2.4-4.5-3.3-6.8H358c0.1,2.6,0.2,5.3,0.2,8.4v5.8H354.2z"/>
				</g>
			</g>
			<g>
				<g>
					<path style="fill:#3E487A;" d="M422.1,65l-1.4,4.9h-4.5l5.9-19.3h5.7l6,19.3h-4.7l-1.5-4.9H422.1z M426.9,61.7l-1.2-4.1
						c-0.3-1.1-0.7-2.6-1-3.7h-0.1c-0.3,1.1-0.6,2.6-0.9,3.7l-1.1,4.1H426.9z"/>
				</g>
				<g>
					<path style="fill:#3E487A;" d="M436.3,50.9c1.3-0.2,3.2-0.4,5.9-0.4c2.7,0,4.6,0.5,5.9,1.5c1.3,1,2.1,2.6,2.1,4.5
						s-0.6,3.5-1.8,4.6c-1.5,1.4-3.7,2-6.3,2c-0.6,0-1.1,0-1.5-0.1v6.9h-4.3V50.9z M440.6,59.7c0.4,0.1,0.8,0.1,1.5,0.1
						c2.3,0,3.7-1.2,3.7-3.1c0-1.8-1.2-2.8-3.4-2.8c-0.9,0-1.5,0.1-1.8,0.1V59.7z"/>
				</g>
				<g>
					<path style="fill:#3E487A;" d="M457.3,50.7v19.3H453V50.7H457.3z"/>
				</g>
				<g>
					<path style="fill:#3E487A;" d="M481,69.4c-0.8,0.4-2.6,0.8-4.9,0.8c-6.7,0-10.1-4.2-10.1-9.7c0-6.6,4.7-10.2,10.5-10.2
						c2.3,0,4,0.4,4.7,0.9l-0.9,3.4c-0.9-0.4-2.1-0.7-3.7-0.7c-3.4,0-6.1,2.1-6.1,6.4c0,3.9,2.3,6.3,6.1,6.3c1.3,0,2.8-0.3,3.7-0.6
						L481,69.4z"/>
				</g>
				<g>
					<path style="fill:#3E487A;" d="M495.3,61.8h-7.1v4.6h7.9v3.6h-12.3V50.7h11.9v3.6h-7.5v4h7.1V61.8z"/>
				</g>
				<g>
					<path style="fill:#3E487A;" d="M499.1,69.9V50.7h5.1l4,7.1c1.1,2,2.3,4.4,3.1,6.6h0.1c-0.3-2.5-0.3-5.1-0.3-8.1v-5.6h4v19.3
						h-4.6l-4.1-7.4c-1.1-2.1-2.4-4.5-3.3-6.8h-0.1c0.1,2.6,0.2,5.3,0.2,8.4v5.8H499.1z"/>
				</g>
				<g>
					<path style="fill:#3E487A;" d="M522.6,54.3h-5.2v-3.7h14.8v3.7H527v15.6h-4.3V54.3z"/>
				</g>
				<g>
					<path style="fill:#3E487A;" d="M534.5,50.9c1.4-0.2,3.5-0.4,5.8-0.4c2.9,0,4.9,0.4,6.2,1.5c1.2,0.9,1.8,2.3,1.8,4.1
						c0,2.4-1.7,4.1-3.4,4.7v0.1c1.3,0.5,2.1,1.8,2.6,3.6c0.6,2.2,1.2,4.7,1.5,5.5h-4.5c-0.3-0.6-0.8-2.1-1.3-4.5
						c-0.5-2.4-1.4-3.1-3.2-3.1h-1.3v7.6h-4.3V50.9z M538.8,59.2h1.7c2.2,0,3.5-1.1,3.5-2.8c0-1.7-1.2-2.7-3.2-2.7
						c-1.1,0-1.7,0.1-2,0.1V59.2z"/>
				</g>
				<g>
					<path style="fill:#3E487A;" d="M555.9,50.7v19.3h-4.3V50.7H555.9z"/>
				</g>
				<g>
					<path style="fill:#3E487A;" d="M573.8,69.4c-0.8,0.4-2.6,0.8-4.9,0.8c-6.7,0-10.1-4.2-10.1-9.7c0-6.6,4.7-10.2,10.5-10.2
						c2.3,0,4,0.4,4.7,0.9l-0.9,3.4c-0.9-0.4-2.1-0.7-3.7-0.7c-3.4,0-6.1,2.1-6.1,6.4c0,3.9,2.3,6.3,6.1,6.3c1.3,0,2.8-0.3,3.7-0.6
						L573.8,69.4z"/>
				</g>
				<g>
					<path style="fill:#3E487A;" d="M582.4,51c1.6-0.3,3.7-0.4,5.9-0.4c3.7,0,6.1,0.7,7.9,2.1c2,1.5,3.3,3.9,3.3,7.3
						c0,3.7-1.3,6.2-3.2,7.8c-2,1.7-5.1,2.5-8.9,2.5c-2.3,0-3.9-0.1-4.9-0.3V51z M586.8,66.7c0.4,0.1,1,0.1,1.5,0.1
						c4,0,6.6-2.1,6.6-6.7c0-4-2.3-6.1-6.1-6.1c-0.9,0-1.6,0.1-2,0.2V66.7z"/>
				</g>
				<g>
					<path style="fill:#3E487A;" d="M613.8,61.8h-7.1v4.6h7.9v3.6h-12.3V50.7h11.9v3.6h-7.5v4h7.1V61.8z"/>
				</g>
				<g>
					<path style="fill:#3E487A;" d="M617.7,65.5c1.1,0.6,3,1.2,4.8,1.2c2,0,3.1-0.8,3.1-2.1c0-1.2-0.9-1.9-3.2-2.7
						c-3.2-1.1-5.3-2.9-5.3-5.7c0-3.3,2.8-5.8,7.3-5.8c2.2,0,3.8,0.4,4.9,1l-1,3.5c-0.7-0.4-2.1-0.9-4-0.9c-1.9,0-2.8,0.9-2.8,1.9
						c0,1.2,1.1,1.8,3.6,2.7c3.4,1.3,5,3,5,5.7c0,3.2-2.5,6-7.7,6c-2.2,0-4.4-0.6-5.5-1.2L617.7,65.5z"/>
				</g>
				<g>
					<path style="fill:#3E487A;" d="M637.4,50.7v19.3h-4.3V50.7H637.4z"/>
				</g>
				<g>
					<path style="fill:#3E487A;" d="M657.3,69.1c-1.3,0.5-3.9,1.1-6.4,1.1c-3.5,0-6.1-0.9-7.8-2.6c-1.7-1.7-2.7-4.2-2.7-7
						c0-6.4,4.7-10.1,11-10.1c2.5,0,4.4,0.5,5.3,0.9l-0.9,3.5c-1.1-0.5-2.3-0.8-4.5-0.8c-3.6,0-6.4,2-6.4,6.2c0,4,2.5,6.3,6.1,6.3
						c1,0,1.8-0.1,2.1-0.3v-4.1h-3v-3.4h7.2V69.1z"/>
				</g>
				<g>
					<path style="fill:#3E487A;" d="M660.7,69.9V50.7h5.1l4,7.1c1.1,2,2.3,4.4,3.1,6.6h0.1c-0.3-2.5-0.3-5.1-0.3-8.1v-5.6h4v19.3
						h-4.6l-4.1-7.4c-1.1-2.1-2.4-4.5-3.3-6.8h-0.1c0.1,2.6,0.2,5.3,0.2,8.4v5.8H660.7z"/>
				</g>
			</g>
			<g>
				<g>
					<g>
						<path style="fill:#2A91E9;" d="M401.7,57.4h-15.4c-0.6,0-1.1-0.5-1.1-1.1s0.5-1.1,1.1-1.1h15.4c0.6,0,1.1,0.5,1.1,1.1
							S402.3,57.4,401.7,57.4z"/>
					</g>
				</g>
				<g>
					<g>
						<path style="fill:#2A91E9;" d="M401.7,64.6h-15.4c-0.6,0-1.1-0.5-1.1-1.1c0-0.6,0.5-1.1,1.1-1.1h15.4c0.6,0,1.1,0.5,1.1,1.1
							C402.9,64.1,402.3,64.6,401.7,64.6z"/>
					</g>
				</g>
			</g>
		</g>
	</g>
	<g>
		<g>
			<path style="fill:#3E487A;" d="M204.1,146.1c0.8-0.2,2.2-0.3,3.6-0.3c1.8,0,3,0.2,3.9,0.9c0.8,0.5,1.4,1.4,1.4,2.6
				c0,1.2-0.8,2.4-2.3,2.9v0.1c1.4,0.4,2.7,1.5,2.7,3.3c0,1.2-0.5,2.1-1.3,2.8c-1,0.8-2.6,1.2-5,1.2c-1.4,0-2.4-0.1-3-0.2V146.1z
				 M206.6,151.4h1.3c1.7,0,2.7-0.8,2.7-1.9c0-1.3-1-1.9-2.5-1.9c-0.7,0-1.1,0-1.4,0.1V151.4z M206.6,157.6c0.3,0.1,0.7,0.1,1.3,0.1
				c1.6,0,3-0.6,3-2.3c0-1.6-1.4-2.2-3.1-2.2h-1.2V157.6z"/>
			<path style="fill:#3E487A;" d="M218.4,155.6l-1.2,3.8h-2.6l4.3-13.5h3.2l4.4,13.5h-2.7l-1.2-3.8H218.4z M222.2,153.7l-1.1-3.3
				c-0.3-0.8-0.5-1.7-0.7-2.5h0c-0.2,0.8-0.4,1.7-0.6,2.5l-1,3.3H222.2z"/>
			<path style="fill:#3E487A;" d="M237.7,159c-0.6,0.3-1.9,0.6-3.5,0.6c-4.3,0-6.9-2.7-6.9-6.8c0-4.5,3.1-7.2,7.3-7.2
				c1.6,0,2.8,0.3,3.3,0.6l-0.5,2c-0.6-0.3-1.5-0.5-2.7-0.5c-2.8,0-4.7,1.7-4.7,5c0,3,1.7,4.9,4.7,4.9c1,0,2-0.2,2.7-0.5L237.7,159z
				"/>
			<path style="fill:#3E487A;" d="M239.8,145.9h2.5v6.2h0.1c0.3-0.5,0.7-1,1-1.5l3.6-4.8h3l-4.7,5.8l5,7.8h-2.9l-3.8-6.2l-1.2,1.4
				v4.8h-2.5V145.9z"/>
			<path style="fill:#3E487A;" d="M259.1,153.4H254v4h5.7v2h-8.2v-13.5h7.9v2H254v3.5h5.1V153.4z"/>
			<path style="fill:#3E487A;" d="M261.8,159.4v-13.5h2.8l3.5,5.8c0.9,1.5,1.7,3.1,2.3,4.5h0c-0.2-1.8-0.2-3.6-0.2-5.6v-4.7h2.3
				v13.5H270l-3.5-6c-0.9-1.5-1.7-3.1-2.4-4.7l-0.1,0c0.1,1.7,0.1,3.5,0.1,5.8v4.8H261.8z"/>
			<path style="fill:#3E487A;" d="M275.4,146c1.1-0.2,2.5-0.3,3.9-0.3c2.5,0,4.3,0.5,5.5,1.6c1.3,1.1,2.1,2.7,2.1,5
				c0,2.4-0.8,4.2-2.1,5.4c-1.3,1.2-3.5,1.8-6.1,1.8c-1.4,0-2.5-0.1-3.3-0.2V146z M277.9,157.5c0.3,0.1,0.9,0.1,1.4,0.1
				c3.2,0,5.1-1.8,5.1-5.2c0-3-1.7-4.7-4.8-4.7c-0.8,0-1.3,0.1-1.7,0.1V157.5z"/>
		</g>
		<g>
			<path style="fill:#3E487A;" d="M96.4,145.9v7.9c0,2.7,1.1,3.9,2.8,3.9c1.8,0,2.9-1.2,2.9-3.9v-7.9h2.5v7.7c0,4.2-2.2,6-5.4,6
				c-3.1,0-5.2-1.7-5.2-6v-7.8H96.4z"/>
			<path style="fill:#3E487A;" d="M109.8,145.9v13.5h-2.5v-13.5H109.8z"/>
			<path style="fill:#3E487A;" d="M115.5,160.2l4.9-14.6h1.7l-4.9,14.6H115.5z"/>
			<path style="fill:#3E487A;" d="M130.1,145.9v7.9c0,2.7,1.1,3.9,2.8,3.9c1.8,0,2.9-1.2,2.9-3.9v-7.9h2.5v7.7c0,4.2-2.2,6-5.4,6
				c-3.1,0-5.2-1.7-5.2-6v-7.8H130.1z"/>
			<path style="fill:#3E487A;" d="M148.3,159.4l-1.4-2.7c-0.6-1-1-1.8-1.4-2.6h0c-0.3,0.8-0.7,1.5-1.2,2.6l-1.3,2.7H140l4-6.9
				l-3.9-6.7h2.9l1.5,2.8c0.4,0.8,0.8,1.5,1.1,2.3h0.1c0.4-0.8,0.6-1.4,1.1-2.3l1.4-2.8h2.8l-4,6.6l4.1,6.9H148.3z"/>
		</g>
		<g>
			<g>
				<g>
					<g>
						<g>
							<g>
								<g>
									<path style="fill:#5059C9;" d="M266.4,311.9h-2c-0.6,0-1.1-0.5-1.1-1.1s0.5-1.1,1.1-1.1h2c0.4,0,0.9,0,1.3-0.1
										c0.6-0.1,1.2,0.4,1.2,1c0.1,0.6-0.4,1.2-1,1.2C267.4,311.9,266.9,311.9,266.4,311.9z M258.8,311.9h-3.3
										c-0.6,0-1.1-0.5-1.1-1.1s0.5-1.1,1.1-1.1h3.3c0.6,0,1.1,0.5,1.1,1.1S259.4,311.9,258.8,311.9z M249.9,311.9h-3.3
										c-0.6,0-1.1-0.5-1.1-1.1s0.5-1.1,1.1-1.1h3.3c0.6,0,1.1,0.5,1.1,1.1S250.5,311.9,249.9,311.9z M241,311.9h-3.3
										c-0.6,0-1.1-0.5-1.1-1.1s0.5-1.1,1.1-1.1h3.3c0.6,0,1.1,0.5,1.1,1.1S241.6,311.9,241,311.9z M232,311.9h-3.3
										c-0.6,0-1.1-0.5-1.1-1.1s0.5-1.1,1.1-1.1h3.3c0.6,0,1.1,0.5,1.1,1.1S232.7,311.9,232,311.9z M223.1,311.9h-1.3
										c-0.7,0-1.5-0.1-2.2-0.2c-0.6-0.1-1-0.7-0.9-1.3c0.1-0.6,0.7-1,1.3-0.9c0.6,0.1,1.3,0.1,1.9,0.1h1.3c0.6,0,1.1,0.5,1.1,1.1
										S223.7,311.9,223.1,311.9z M273,310.2c-0.4,0-0.8-0.2-1-0.6c-0.3-0.5-0.1-1.2,0.4-1.5c0.9-0.5,1.7-1.1,2.5-1.8
										c0.5-0.4,1.2-0.4,1.6,0.1c0.4,0.5,0.4,1.2-0.1,1.6c-0.9,0.8-1.9,1.5-2.9,2.1C273.4,310.1,273.2,310.2,273,310.2z
										 M214.6,309.8c-0.2,0-0.4-0.1-0.6-0.2c-1-0.6-2-1.4-2.8-2.2l1.6-1.6l0,0c0.7,0.7,1.5,1.3,2.4,1.9c0.5,0.3,0.7,1,0.4,1.5
										C215.3,309.7,214.9,309.8,214.6,309.8z M279.7,304.3c-0.3,0-0.6-0.1-0.8-0.3c-0.4-0.4-0.4-1.1,0-1.6l2.4-2.4
										c0.4-0.4,1.1-0.4,1.6,0c0.4,0.4,0.4,1.1,0,1.6l-2.4,2.4C280.3,304.2,280,304.3,279.7,304.3z M208,303.8
										c-0.3,0-0.6-0.1-0.8-0.3l-2.4-2.4c-0.4-0.4-0.4-1.1,0-1.6c0.4-0.4,1.1-0.4,1.6,0l2.4,2.4c0.4,0.4,0.4,1.1,0,1.6
										C208.6,303.7,208.3,303.8,208,303.8z M286,298c-0.3,0-0.6-0.1-0.8-0.3c-0.4-0.4-0.4-1.1,0-1.6l2.4-2.4
										c0.4-0.4,1.1-0.4,1.6,0c0.4,0.4,0.4,1.1,0,1.6l-2.4,2.4C286.6,297.9,286.3,298,286,298z M201.7,297.5
										c-0.3,0-0.6-0.1-0.8-0.3l-2.4-2.4c-0.4-0.4-0.4-1.1,0-1.6c0.4-0.4,1.1-0.4,1.6,0l2.4,2.4c0.4,0.4,0.4,1.1,0,1.6
										C202.2,297.4,202,297.5,201.7,297.5z M292.4,291.7c-0.3,0-0.6-0.1-0.8-0.3c-0.4-0.4-0.4-1.1,0-1.6l2.4-2.4
										c0.4-0.4,1.1-0.4,1.6,0c0.4,0.4,0.4,1.1,0,1.6l-2.4,2.4C292.9,291.6,292.6,291.7,292.4,291.7z M195.4,291.2
										c-0.3,0-0.6-0.1-0.8-0.3l-2.4-2.4c-0.4-0.4-0.4-1.1,0-1.6c0.4-0.4,1.1-0.4,1.6,0l2.4,2.4c0.4,0.4,0.4,1.1,0,1.6
										C195.9,291.1,195.6,291.2,195.4,291.2z M298.7,285.4c-0.3,0-0.6-0.1-0.8-0.3c-0.4-0.4-0.4-1.1,0-1.6l2.4-2.4
										c0.4-0.4,1.1-0.4,1.6,0c0.4,0.4,0.4,1.1,0,1.6l-2.4,2.4C299.2,285.3,299,285.4,298.7,285.4z M189,284.9
										c-0.3,0-0.6-0.1-0.8-0.3l-2.4-2.4c-0.4-0.4-0.4-1.1,0-1.6c0.4-0.4,1.1-0.4,1.6,0l2.4,2.4c0.4,0.4,0.4,1.1,0,1.6
										C189.6,284.8,189.3,284.9,189,284.9z M305,279c-0.3,0-0.6-0.1-0.8-0.3c-0.4-0.4-0.4-1.1,0-1.6l2.4-2.4
										c0.4-0.4,1.1-0.4,1.6,0c0.4,0.4,0.4,1.1,0,1.6l-2.4,2.4C305.6,278.9,305.3,279,305,279z M310.6,272.2c-0.2,0-0.3,0-0.5-0.1
										c-0.6-0.3-0.8-0.9-0.6-1.5c0.4-0.9,0.7-1.9,0.9-2.9c0.1-0.6,0.7-1,1.3-0.9c0.6,0.1,1,0.7,0.9,1.3c-0.2,1.2-0.6,2.3-1.1,3.4
										C311.4,271.9,311,272.2,310.6,272.2z M311.8,263.4c-0.6,0-1.1-0.5-1.1-1.1V259c0-0.6,0.5-1.1,1.1-1.1s1.1,0.5,1.1,1.1v3.3
										C312.9,262.9,312.4,263.4,311.8,263.4z M176.4,256.2c-0.6,0-1.1-0.5-1.1-1.1v-3.3c0-0.6,0.5-1.1,1.1-1.1s1.1,0.5,1.1,1.1
										v3.3C177.5,255.7,177,256.2,176.4,256.2z M311.8,254.5c-0.6,0-1.1-0.5-1.1-1.1V250c0-0.6,0.5-1.1,1.1-1.1s1.1,0.5,1.1,1.1
										v3.3C312.9,254,312.4,254.5,311.8,254.5z M176.4,247.3c-0.6,0-1.1-0.5-1.1-1.1v-3.3c0-0.6,0.5-1.1,1.1-1.1s1.1,0.5,1.1,1.1
										v3.3C177.5,246.8,177,247.3,176.4,247.3z M311.8,245.6c-0.6,0-1.1-0.5-1.1-1.1v-3.3c0-0.6,0.5-1.1,1.1-1.1s1.1,0.5,1.1,1.1
										v3.3C312.9,245.1,312.4,245.6,311.8,245.6z M176.4,238.4c-0.6,0-1.1-0.5-1.1-1.1v-3.3c0-0.6,0.5-1.1,1.1-1.1
										s1.1,0.5,1.1,1.1v3.3C177.5,237.9,177,238.4,176.4,238.4z M311.8,236.6c-0.6,0-1.1-0.5-1.1-1.1v-3.3c0-0.6,0.5-1.1,1.1-1.1
										s1.1,0.5,1.1,1.1v3.3C312.9,236.1,312.4,236.6,311.8,236.6z M176.4,229.5c-0.6,0-1.1-0.5-1.1-1.1V225
										c0-0.6,0.5-1.1,1.1-1.1s1.1,0.5,1.1,1.1v3.3C177.5,229,177,229.5,176.4,229.5z M311.8,227.7c-0.6,0-1.1-0.5-1.1-1.1v-3.3
										c0-0.6,0.5-1.1,1.1-1.1s1.1,0.5,1.1,1.1v3.3C312.9,227.2,312.4,227.7,311.8,227.7z M176.4,220.5c0,0-0.1,0-0.1,0
										c-0.6-0.1-1.1-0.6-1-1.2c0.1-1.2,0.4-2.4,0.8-3.5c0.2-0.6,0.8-0.9,1.4-0.7c0.6,0.2,0.9,0.8,0.7,1.4c-0.3,1-0.6,2-0.7,3
										C177.5,220.1,177,220.5,176.4,220.5z M311.5,218.8c-0.5,0-1-0.4-1.1-0.9c-0.2-1-0.6-2-1-2.9c-0.3-0.6-0.1-1.2,0.5-1.5
										c0.6-0.3,1.2-0.1,1.5,0.5c0.5,1.1,0.9,2.2,1.2,3.4c0.1,0.6-0.2,1.2-0.8,1.3C311.6,218.8,311.5,218.8,311.5,218.8z
										 M180,212.5c-0.3,0-0.5-0.1-0.8-0.3c-0.5-0.4-0.5-1.1-0.1-1.6c0.2-0.2,0.3-0.4,0.5-0.5l1.9-1.9c0.4-0.4,1.1-0.4,1.6,0
										c0.4,0.4,0.4,1.1,0,1.6l-1.9,1.9c-0.1,0.1-0.3,0.3-0.4,0.5C180.6,212.4,180.3,212.5,180,212.5z M307,211.2
										c-0.3,0-0.6-0.1-0.8-0.3l-2.4-2.4c-0.4-0.4-0.4-1.1,0-1.6c0.4-0.4,1.1-0.4,1.6,0l2.4,2.4c0.4,0.4,0.4,1.1,0,1.6
										C307.5,211.1,307.3,211.2,307,211.2z M186.3,206.2c-0.3,0-0.6-0.1-0.8-0.3c-0.4-0.4-0.4-1.1,0-1.6l2.4-2.4
										c0.4-0.4,1.1-0.4,1.6,0c0.4,0.4,0.4,1.1,0,1.6l-2.4,2.4C186.9,206.1,186.6,206.2,186.3,206.2z M300.7,204.9
										c-0.3,0-0.6-0.1-0.8-0.3l-2.4-2.4c-0.4-0.4-0.4-1.1,0-1.6c0.4-0.4,1.1-0.4,1.6,0l2.4,2.4c0.4,0.4,0.4,1.1,0,1.6
										C301.2,204.8,300.9,204.9,300.7,204.9z M192.6,199.9c-0.3,0-0.6-0.1-0.8-0.3c-0.4-0.4-0.4-1.1,0-1.6l2.4-2.4
										c0.4-0.4,1.1-0.4,1.6,0c0.4,0.4,0.4,1.1,0,1.6l-2.4,2.4C193.2,199.8,192.9,199.9,192.6,199.9z M294.3,198.6
										c-0.3,0-0.6-0.1-0.8-0.3l-2.4-2.4c-0.4-0.4-0.4-1.1,0-1.6c0.4-0.4,1.1-0.4,1.6,0l2.4,2.4c0.4,0.4,0.4,1.1,0,1.6
										C294.9,198.5,294.6,198.6,294.3,198.6z M198.9,193.5c-0.3,0-0.6-0.1-0.8-0.3c-0.4-0.4-0.4-1.1,0-1.6l2.4-2.4
										c0.4-0.4,1.1-0.4,1.6,0c0.4,0.4,0.4,1.1,0,1.6l-2.4,2.4C199.5,193.4,199.2,193.5,198.9,193.5z M288,192.3
										c-0.3,0-0.6-0.1-0.8-0.3l-2.4-2.4c-0.4-0.4-0.4-1.1,0-1.6c0.4-0.4,1.1-0.4,1.6,0l2.4,2.4c0.4,0.4,0.4,1.1,0,1.6
										C288.6,192.2,288.3,192.3,288,192.3z M205.2,187.2c-0.3,0-0.6-0.1-0.8-0.3c-0.4-0.4-0.4-1.1,0-1.6l2.4-2.4
										c0.4-0.4,1.1-0.4,1.6,0c0.4,0.4,0.4,1.1,0,1.6l-2.4,2.4C205.8,187.1,205.5,187.2,205.2,187.2z M281.7,186
										c-0.3,0-0.6-0.1-0.8-0.3l-2.4-2.4c-0.4-0.4-0.4-1.1,0-1.6c0.4-0.4,1.1-0.4,1.6,0l2.4,2.4c0.4,0.4,0.4,1.1,0,1.6
										C282.3,185.9,282,186,281.7,186z M211.5,180.9c-0.3,0-0.6-0.1-0.8-0.3c-0.4-0.4-0.4-1.1,0-1.6l0.4-0.4
										c0.7-0.7,1.5-1.3,2.3-1.9c0.5-0.3,1.2-0.2,1.5,0.3c0.3,0.5,0.2,1.2-0.3,1.5c-0.7,0.5-1.4,1-2,1.6l-0.4,0.4
										C212.1,180.8,211.8,180.9,211.5,180.9z M275.4,179.7c-0.3,0-0.5-0.1-0.7-0.3c-0.8-0.7-1.6-1.2-2.6-1.7
										c-0.6-0.3-0.8-0.9-0.5-1.5s0.9-0.8,1.5-0.5c1.1,0.5,2.1,1.2,3,2c0.5,0.4,0.5,1.1,0.1,1.6
										C276,179.6,275.7,179.7,275.4,179.7z M219.2,176.7c-0.5,0-1-0.4-1.1-0.9c-0.1-0.6,0.3-1.2,0.9-1.3c0.9-0.2,1.9-0.3,2.8-0.3
										h0.7c0.6,0,1.1,0.5,1.1,1.1s-0.5,1.1-1.1,1.1h-0.7c-0.8,0-1.6,0.1-2.4,0.2C219.4,176.7,219.3,176.7,219.2,176.7z
										 M267.2,176.5C267.2,176.5,267.2,176.5,267.2,176.5c-0.3,0-0.6,0-0.8,0h-2.5c-0.6,0-1.1-0.5-1.1-1.1s0.5-1.1,1.1-1.1h2.5
										c0.3,0,0.6,0,0.9,0c0.6,0,1.1,0.6,1,1.2C268.3,176,267.8,176.5,267.2,176.5z M258.3,176.4h-3.3c-0.6,0-1.1-0.5-1.1-1.1
										s0.5-1.1,1.1-1.1h3.3c0.6,0,1.1,0.5,1.1,1.1S258.9,176.4,258.3,176.4z M249.4,176.4H246c-0.6,0-1.1-0.5-1.1-1.1
										s0.5-1.1,1.1-1.1h3.3c0.6,0,1.1,0.5,1.1,1.1S250,176.4,249.4,176.4z M240.4,176.4h-3.3c-0.6,0-1.1-0.5-1.1-1.1
										s0.5-1.1,1.1-1.1h3.3c0.6,0,1.1,0.5,1.1,1.1S241,176.4,240.4,176.4z M231.5,176.4h-3.3c-0.6,0-1.1-0.5-1.1-1.1
										s0.5-1.1,1.1-1.1h3.3c0.6,0,1.1,0.5,1.1,1.1S232.1,176.4,231.5,176.4z"/>
								</g>
							</g>
							<g>
								<g>
									<g>
										<g>
											<path style="fill:#FFFFFF;" d="M229,289.6c-2.7,0-5.3-1.1-7.2-3l-21.3-21.3c-1.9-1.9-3-4.5-3-7.2V228
												c0-2.7,1.1-5.3,3-7.2l21.3-21.3c1.9-1.9,4.5-3,7.2-3h30.1c2.7,0,5.3,1.1,7.2,3l21.3,21.3c1.9,1.9,3,4.5,3,7.2v30.1
												c0,2.7-1.1,5.3-3,7.2l-21.3,21.3c-1.9,1.9-4.5,3-7.2,3H229z"/>
										</g>
									</g>
									<g>
										<g>
											<g>
												<path style="fill:#3E487A;" d="M259.2,197.2c2.5,0,4.9,1,6.7,2.8l21.3,21.3c1.8,1.8,2.8,4.2,2.8,6.7v30.1
													c0,2.5-1,4.9-2.8,6.7l-21.3,21.3c-1.8,1.8-4.2,2.8-6.7,2.8H229c-2.5,0-4.9-1-6.7-2.8L201,264.8
													c-1.8-1.8-2.8-4.2-2.8-6.7V228c0-2.5,1-4.9,2.8-6.7l21.3-21.3c1.8-1.8,4.2-2.8,6.7-2.8H259.2 M259.2,195.7H229
													c-2.9,0-5.7,1.1-7.7,3.2L200,220.2c-2.1,2.1-3.2,4.8-3.2,7.7v30.1c0,2.9,1.1,5.7,3.2,7.7l21.3,21.3
													c2.1,2.1,4.8,3.2,7.7,3.2h30.1c2.9,0,5.7-1.1,7.7-3.2l21.3-21.3c2.1-2.1,3.2-4.8,3.2-7.7V228c0-2.9-1.1-5.7-3.2-7.7
													l-21.3-21.3C264.9,196.9,262,195.7,259.2,195.7L259.2,195.7z"/>
											</g>
										</g>
									</g>
								</g>
							</g>
						</g>
					</g>
				</g>
			</g>
			<g>
				<g>
					<path style="fill:#3E487A;" d="M244.2,269.1c-0.4,0-0.8-0.3-0.8-0.8v-44.9c0-0.4,0.3-0.8,0.8-0.8s0.8,0.3,0.8,0.8v44.9
						C245,268.8,244.7,269.1,244.2,269.1z"/>
				</g>
				<g>
					<g>
						<path style="fill:#FFFFFF;" d="M263.9,246.5h-38.7c-0.3,0-0.5-0.2-0.5-0.5v-11.2c0-0.3,0.2-0.5,0.5-0.5h38.7
							c0.3,0,0.5,0.2,0.5,0.5v11.2C264.5,246.2,264.2,246.5,263.9,246.5z"/>
						<path style="fill:#3E487A;" d="M263.9,247.2h-38.7c-0.7,0-1.3-0.6-1.3-1.3v-11.2c0-0.7,0.6-1.3,1.3-1.3h38.7
							c0.7,0,1.3,0.6,1.3,1.3v11.2C265.2,246.6,264.6,247.2,263.9,247.2z M225.5,245.7h38.2v-10.8h-38.2V245.7z"/>
					</g>
					<g>
						<ellipse style="fill:#E7EAF9;" cx="231.1" cy="240.3" rx="1.4" ry="1.4"/>
						<path style="fill:#3E487A;" d="M231.1,242.5c-1.2,0-2.2-1-2.2-2.2s1-2.2,2.2-2.2s2.2,1,2.2,2.2S232.3,242.5,231.1,242.5z
							 M231.1,239.6c-0.4,0-0.7,0.3-0.7,0.7s0.3,0.7,0.7,0.7s0.7-0.3,0.7-0.7S231.4,239.6,231.1,239.6z"/>
					</g>
					<g>
						<path style="fill:#3E487A;" d="M260.2,240.7h-21.9c-0.4,0-0.8-0.3-0.8-0.8s0.3-0.8,0.8-0.8h21.9c0.4,0,0.8,0.3,0.8,0.8
							S260.6,240.7,260.2,240.7z"/>
					</g>
				</g>
				<g>
					<g>
						<path style="fill:#FFFFFF;" d="M263.9,229.6h-38.7c-0.3,0-0.5-0.2-0.5-0.5v-11.2c0-0.3,0.2-0.5,0.5-0.5h38.7
							c0.3,0,0.5,0.2,0.5,0.5v11.2C264.5,229.4,264.2,229.6,263.9,229.6z"/>
						<path style="fill:#3E487A;" d="M263.9,230.4h-38.7c-0.7,0-1.3-0.6-1.3-1.3v-11.2c0-0.7,0.6-1.3,1.3-1.3h38.7
							c0.7,0,1.3,0.6,1.3,1.3v11.2C265.2,229.8,264.6,230.4,263.9,230.4z M225.5,228.9h38.2v-10.8h-38.2V228.9z"/>
					</g>
					<g>
						<path style="fill:#E7EAF9;" d="M232.5,223.5c0,0.8-0.6,1.4-1.4,1.4c-0.8,0-1.4-0.6-1.4-1.4c0-0.8,0.6-1.4,1.4-1.4
							C231.9,222.1,232.5,222.7,232.5,223.5z"/>
						<path style="fill:#3E487A;" d="M231.1,225.7c-1.2,0-2.2-1-2.2-2.2s1-2.2,2.2-2.2s2.2,1,2.2,2.2S232.3,225.7,231.1,225.7z
							 M231.1,222.8c-0.4,0-0.7,0.3-0.7,0.7s0.3,0.7,0.7,0.7s0.7-0.3,0.7-0.7S231.4,222.8,231.1,222.8z"/>
					</g>
					<g>
						<path style="fill:#3E487A;" d="M260.2,223.9h-21.9c-0.4,0-0.8-0.3-0.8-0.8s0.3-0.8,0.8-0.8h21.9c0.4,0,0.8,0.3,0.8,0.8
							S260.6,223.9,260.2,223.9z"/>
					</g>
				</g>
				<g>
					<g>
						<path style="fill:#FFFFFF;" d="M263.9,263.3h-38.7c-0.3,0-0.5-0.2-0.5-0.5v-11.2c0-0.3,0.2-0.5,0.5-0.5h38.7
							c0.3,0,0.5,0.2,0.5,0.5v11.2C264.5,263,264.2,263.3,263.9,263.3z"/>
						<path style="fill:#3E487A;" d="M263.9,264h-38.7c-0.7,0-1.3-0.6-1.3-1.3v-11.2c0-0.7,0.6-1.3,1.3-1.3h38.7
							c0.7,0,1.3,0.6,1.3,1.3v11.2C265.2,263.4,264.6,264,263.9,264z M225.5,262.5h38.2v-10.8h-38.2V262.5z"/>
					</g>
					<g>
						<path style="fill:#E7EAF9;" d="M232.5,257.1c0,0.8-0.6,1.4-1.4,1.4c-0.8,0-1.4-0.6-1.4-1.4c0-0.8,0.6-1.4,1.4-1.4
							C231.9,255.7,232.5,256.3,232.5,257.1z"/>
						<path style="fill:#3E487A;" d="M231.1,259.3c-1.2,0-2.2-1-2.2-2.2s1-2.2,2.2-2.2s2.2,1,2.2,2.2S232.3,259.3,231.1,259.3z
							 M231.1,256.5c-0.4,0-0.7,0.3-0.7,0.7s0.3,0.7,0.7,0.7s0.7-0.3,0.7-0.7S231.4,256.5,231.1,256.5z"/>
					</g>
					<g>
						<path style="fill:#3E487A;" d="M260.2,257.5h-21.9c-0.4,0-0.8-0.3-0.8-0.8s0.3-0.8,0.8-0.8h21.9c0.4,0,0.8,0.3,0.8,0.8
							S260.6,257.5,260.2,257.5z"/>
					</g>
				</g>
				<g>
					<path style="fill:#3E487A;" d="M264.1,270.8h-39.1c-0.4,0-0.8-0.3-0.8-0.8s0.3-0.8,0.8-0.8h39.1c0.4,0,0.8,0.3,0.8,0.8
						S264.5,270.8,264.1,270.8z"/>
				</g>
				<g>
					<ellipse style="fill:#FFFFFF;" cx="244.3" cy="269.9" rx="2.4" ry="2.4"/>
					<path style="fill:#3E487A;" d="M244.3,273.1c-1.8,0-3.2-1.4-3.2-3.2s1.4-3.2,3.2-3.2s3.2,1.4,3.2,3.2S246.1,273.1,244.3,273.1z
						 M244.3,268.2c-0.9,0-1.7,0.8-1.7,1.7s0.8,1.7,1.7,1.7s1.7-0.8,1.7-1.7S245.3,268.2,244.3,268.2z"/>
				</g>
			</g>
			<g>
				<g>
					<g>
						<g>
							<g>
								<g>
									<path style="fill:#2A91E9;" d="M137.8,311.9h-3.3c-0.6,0-1.1-0.5-1.1-1.1s0.5-1.1,1.1-1.1h3.3c0.6,0,1.1,0.5,1.1,1.1
										S138.4,311.9,137.8,311.9z M128.9,311.9h-3.3c-0.6,0-1.1-0.5-1.1-1.1s0.5-1.1,1.1-1.1h3.3c0.6,0,1.1,0.5,1.1,1.1
										S129.5,311.9,128.9,311.9z M120,311.9h-3.3c-0.6,0-1.1-0.5-1.1-1.1s0.5-1.1,1.1-1.1h3.3c0.6,0,1.1,0.5,1.1,1.1
										S120.6,311.9,120,311.9z M111,311.9h-3.3c-0.6,0-1.1-0.5-1.1-1.1s0.5-1.1,1.1-1.1h3.3c0.6,0,1.1,0.5,1.1,1.1
										S111.6,311.9,111,311.9z M102.1,311.9h-3.3c-0.6,0-1.1-0.5-1.1-1.1s0.5-1.1,1.1-1.1h3.3c0.6,0,1.1,0.5,1.1,1.1
										S102.7,311.9,102.1,311.9z M143.4,311.9c-0.6,0-1.1-0.5-1.1-1.1c0-0.6,0.5-1.1,1.1-1.1c1,0,2.1-0.1,3-0.4
										c0.6-0.2,1.2,0.2,1.4,0.8c0.2,0.6-0.2,1.2-0.8,1.4C145.8,311.7,144.6,311.9,143.4,311.9
										C143.4,311.9,143.4,311.9,143.4,311.9z M93.3,310.8c-0.1,0-0.3,0-0.4-0.1c-1.1-0.5-2.2-1.1-3.1-1.8
										c-0.5-0.4-0.6-1.1-0.2-1.6c0.4-0.5,1.1-0.6,1.6-0.2c0.8,0.6,1.7,1.1,2.7,1.5c0.6,0.2,0.8,0.9,0.6,1.5
										C94.2,310.5,93.7,310.8,93.3,310.8z M151.7,309c-0.3,0-0.7-0.2-0.9-0.4c-0.4-0.5-0.3-1.2,0.2-1.6c0.5-0.3,0.9-0.7,1.3-1.1
										l1-1c0.4-0.4,1.1-0.4,1.6,0c0.4,0.4,0.4,1.1,0,1.6l-1.1,1.1c-0.5,0.5-1,0.9-1.5,1.3C152.2,308.9,151.9,309,151.7,309z
										 M86.3,305.3c-0.3,0-0.6-0.1-0.8-0.3l-2.4-2.4c-0.4-0.4-0.4-1.1,0-1.6c0.4-0.4,1.1-0.4,1.6,0l2.4,2.4
										c0.4,0.4,0.4,1.1,0,1.6C86.9,305.2,86.6,305.3,86.3,305.3z M158.1,302.8c-0.3,0-0.6-0.1-0.8-0.3c-0.4-0.4-0.4-1.1,0-1.6
										l2.4-2.4c0.4-0.4,1.1-0.4,1.6,0c0.4,0.4,0.4,1.1,0,1.6l-2.4,2.4C158.7,302.7,158.4,302.8,158.1,302.8z M80,299
										c-0.3,0-0.6-0.1-0.8-0.3l-2.4-2.4c-0.4-0.4-0.4-1.1,0-1.6c0.4-0.4,1.1-0.4,1.6,0l2.4,2.4c0.4,0.4,0.4,1.1,0,1.6
										C80.6,298.9,80.3,299,80,299z M164.4,296.5c-0.3,0-0.6-0.1-0.8-0.3c-0.4-0.4-0.4-1.1,0-1.6l2.4-2.4c0.4-0.4,1.1-0.4,1.6,0
										c0.4,0.4,0.4,1.1,0,1.6l-2.4,2.4C165,296.4,164.7,296.5,164.4,296.5z M73.7,292.7c-0.3,0-0.6-0.1-0.8-0.3l-2.4-2.4
										c-0.4-0.4-0.4-1.1,0-1.6c0.4-0.4,1.1-0.4,1.6,0l2.4,2.4c0.4,0.4,0.4,1.1,0,1.6C74.3,292.6,74,292.7,73.7,292.7z
										 M170.7,290.2c-0.3,0-0.6-0.1-0.8-0.3c-0.4-0.4-0.4-1.1,0-1.6l2.4-2.4c0.4-0.4,1.1-0.4,1.6,0c0.4,0.4,0.4,1.1,0,1.6
										l-2.4,2.4C171.3,290.1,171,290.2,170.7,290.2z M67.4,286.4c-0.3,0-0.6-0.1-0.8-0.3l-2.4-2.4c-0.4-0.4-0.4-1.1,0-1.6
										c0.4-0.4,1.1-0.4,1.6,0l2.4,2.4c0.4,0.4,0.4,1.1,0,1.6C68,286.3,67.7,286.4,67.4,286.4z M177,283.9c-0.3,0-0.6-0.1-0.8-0.3
										c-0.4-0.4-0.4-1.1,0-1.6l2.4-2.4c0.4-0.4,1.1-0.4,1.6,0c0.4,0.4,0.4,1.1,0,1.6l-2.4,2.4C177.6,283.7,177.3,283.9,177,283.9
										z M61.1,280.1c-0.3,0-0.6-0.1-0.8-0.3l-2.4-2.4c-0.4-0.4-0.4-1.1,0-1.6c0.4-0.4,1.1-0.4,1.6,0l2.4,2.4
										c0.4,0.4,0.4,1.1,0,1.6C61.7,280,61.4,280.1,61.1,280.1z M183.3,277.5c-0.3,0-0.6-0.1-0.8-0.3c-0.4-0.4-0.4-1.1,0-1.6
										l1.2-1.2c0.3-0.3,0.7-0.7,1-1.1c0.4-0.5,1.1-0.6,1.6-0.2c0.5,0.4,0.6,1.1,0.2,1.6c-0.4,0.4-0.7,0.9-1.1,1.3l-1.2,1.2
										C183.9,277.4,183.6,277.5,183.3,277.5z M55.1,273.5c-0.4,0-0.8-0.2-1-0.6c-0.6-1-1.1-2.2-1.4-3.3c-0.2-0.6,0.2-1.2,0.8-1.4
										c0.6-0.2,1.2,0.2,1.4,0.8c0.3,1,0.7,1.9,1.2,2.8c0.3,0.5,0.1,1.2-0.4,1.5C55.5,273.4,55.3,273.5,55.1,273.5z M188.2,270.2
										c-0.1,0-0.2,0-0.3,0c-0.6-0.2-0.9-0.8-0.8-1.4c0.3-1,0.4-2,0.5-3c0-0.6,0.5-1.1,1.2-1.1c0.6,0,1.1,0.5,1.1,1.2
										c0,1.2-0.2,2.4-0.5,3.6C189.1,269.9,188.7,270.2,188.2,270.2z M53.2,264.9c-0.6,0-1.1-0.5-1.1-1.1v-3.3
										c0-0.6,0.5-1.1,1.1-1.1s1.1,0.5,1.1,1.1v3.3C54.4,264.4,53.9,264.9,53.2,264.9z M188.7,261.3c-0.6,0-1.1-0.5-1.1-1.1v-3.3
										c0-0.6,0.5-1.1,1.1-1.1s1.1,0.5,1.1,1.1v3.3C189.8,260.8,189.3,261.3,188.7,261.3z M53.2,255.9c-0.6,0-1.1-0.5-1.1-1.1
										v-3.3c0-0.6,0.5-1.1,1.1-1.1s1.1,0.5,1.1,1.1v3.3C54.4,255.4,53.9,255.9,53.2,255.9z M188.7,252.4c-0.6,0-1.1-0.5-1.1-1.1
										v-3.3c0-0.6,0.5-1.1,1.1-1.1s1.1,0.5,1.1,1.1v3.3C189.8,251.9,189.3,252.4,188.7,252.4z M53.2,247c-0.6,0-1.1-0.5-1.1-1.1
										v-3.3c0-0.6,0.5-1.1,1.1-1.1s1.1,0.5,1.1,1.1v3.3C54.4,246.5,53.9,247,53.2,247z M188.7,243.4c-0.6,0-1.1-0.5-1.1-1.1V239
										c0-0.6,0.5-1.1,1.1-1.1s1.1,0.5,1.1,1.1v3.3C189.8,242.9,189.3,243.4,188.7,243.4z M53.2,238.1c-0.6,0-1.1-0.5-1.1-1.1
										v-3.3c0-0.6,0.5-1.1,1.1-1.1s1.1,0.5,1.1,1.1v3.3C54.4,237.6,53.9,238.1,53.2,238.1z M188.7,234.5c-0.6,0-1.1-0.5-1.1-1.1
										V230c0-0.6,0.5-1.1,1.1-1.1s1.1,0.5,1.1,1.1v3.3C189.8,234,189.3,234.5,188.7,234.5z M53.2,229.2c-0.6,0-1.1-0.5-1.1-1.1
										v-3.3c0-0.6,0.5-1.1,1.1-1.1s1.1,0.5,1.1,1.1v3.3C54.4,228.7,53.9,229.2,53.2,229.2z M53.3,220.2c0,0-0.1,0-0.1,0
										c-0.6-0.1-1-0.6-1-1.2c0.1-1.2,0.4-2.4,0.9-3.5c0.2-0.6,0.9-0.9,1.4-0.7c0.6,0.2,0.9,0.9,0.7,1.4c-0.4,1-0.6,2-0.7,3
										C54.4,219.8,53.9,220.2,53.3,220.2z M57.1,212.3c-0.3,0-0.5-0.1-0.8-0.3c-0.5-0.4-0.5-1.1-0.1-1.6c0.1-0.1,0.2-0.2,0.3-0.3
										l2.1-2.1c0.4-0.4,1.1-0.4,1.6,0c0.4,0.4,0.4,1.1,0,1.6l-2.1,2.1c-0.1,0.1-0.2,0.2-0.2,0.2
										C57.7,212.2,57.4,212.3,57.1,212.3z M63.4,206c-0.3,0-0.6-0.1-0.8-0.3c-0.4-0.4-0.4-1.1,0-1.6l2.4-2.4
										c0.4-0.4,1.1-0.4,1.6,0c0.4,0.4,0.4,1.1,0,1.6l-2.4,2.4C63.9,205.8,63.7,206,63.4,206z M177.7,205.2
										c-0.3,0-0.6-0.1-0.8-0.3l-2.4-2.4c-0.4-0.4-0.4-1.1,0-1.6c0.4-0.4,1.1-0.4,1.6,0l2.4,2.4c0.4,0.4,0.4,1.1,0,1.6
										C178.3,205,178,205.2,177.7,205.2z M69.7,199.6c-0.3,0-0.6-0.1-0.8-0.3c-0.4-0.4-0.4-1.1,0-1.6l2.4-2.4
										c0.4-0.4,1.1-0.4,1.6,0c0.4,0.4,0.4,1.1,0,1.6l-2.4,2.4C70.3,199.5,70,199.6,69.7,199.6z M171.4,198.8
										c-0.3,0-0.6-0.1-0.8-0.3l-2.4-2.4c-0.4-0.4-0.4-1.1,0-1.6c0.4-0.4,1.1-0.4,1.6,0l2.4,2.4c0.4,0.4,0.4,1.1,0,1.6
										C172,198.7,171.7,198.8,171.4,198.8z M76,193.3c-0.3,0-0.6-0.1-0.8-0.3c-0.4-0.4-0.4-1.1,0-1.6l2.4-2.4
										c0.4-0.4,1.1-0.4,1.6,0c0.4,0.4,0.4,1.1,0,1.6l-2.4,2.4C76.6,193.2,76.3,193.3,76,193.3z M165.1,192.5
										c-0.3,0-0.6-0.1-0.8-0.3l-2.4-2.4c-0.4-0.4-0.4-1.1,0-1.6c0.4-0.4,1.1-0.4,1.6,0l2.4,2.4c0.4,0.4,0.4,1.1,0,1.6
										C165.7,192.4,165.4,192.5,165.1,192.5z M82.3,187c-0.3,0-0.6-0.1-0.8-0.3c-0.4-0.4-0.4-1.1,0-1.6l2.4-2.4
										c0.4-0.4,1.1-0.4,1.6,0c0.4,0.4,0.4,1.1,0,1.6l-2.4,2.4C82.9,186.9,82.6,187,82.3,187z M158.8,186.2
										c-0.3,0-0.6-0.1-0.8-0.3l-2.4-2.4c-0.4-0.4-0.4-1.1,0-1.6c0.4-0.4,1.1-0.4,1.6,0l2.4,2.4c0.4,0.4,0.4,1.1,0,1.6
										C159.4,186.1,159.1,186.2,158.8,186.2z M88.6,180.7c-0.3,0-0.6-0.1-0.8-0.3c-0.4-0.4-0.4-1.1,0-1.6l0.2-0.2
										c0.8-0.8,1.7-1.5,2.6-2.1c0.5-0.3,1.2-0.2,1.5,0.3c0.3,0.5,0.2,1.2-0.3,1.5c-0.8,0.5-1.5,1.1-2.2,1.8l-0.2,0.2
										C89.2,180.6,88.9,180.7,88.6,180.7z M152.5,179.9c-0.3,0-0.5-0.1-0.7-0.3c-0.8-0.7-1.6-1.3-2.5-1.7c-0.5-0.3-0.8-1-0.5-1.5
										c0.3-0.5,1-0.8,1.5-0.5c1.1,0.6,2.1,1.2,3,2c0.5,0.4,0.5,1.1,0.1,1.6C153.1,179.8,152.8,179.9,152.5,179.9z M96.4,176.6
										c-0.5,0-1-0.4-1.1-0.9c-0.1-0.6,0.3-1.2,0.9-1.3c0.8-0.1,1.6-0.2,2.5-0.2h1c0.6,0,1.1,0.5,1.1,1.1s-0.5,1.1-1.1,1.1h-1
										c-0.7,0-1.4,0.1-2.1,0.2C96.5,176.6,96.5,176.6,96.4,176.6z M144.4,176.5C144.4,176.5,144.3,176.5,144.4,176.5
										c-0.4,0-0.8,0-1.2,0H141c-0.6,0-1.1-0.5-1.1-1.1s0.5-1.1,1.1-1.1h2.2c0.4,0,0.8,0,1.2,0.1c0.6,0.1,1.1,0.6,1,1.2
										C145.4,176,145,176.5,144.4,176.5z M135.5,176.4h-3.3c-0.6,0-1.1-0.5-1.1-1.1s0.5-1.1,1.1-1.1h3.3c0.6,0,1.1,0.5,1.1,1.1
										S136.1,176.4,135.5,176.4z M126.5,176.4h-3.3c-0.6,0-1.1-0.5-1.1-1.1s0.5-1.1,1.1-1.1h3.3c0.6,0,1.1,0.5,1.1,1.1
										S127.1,176.4,126.5,176.4z M117.6,176.4h-3.3c-0.6,0-1.1-0.5-1.1-1.1s0.5-1.1,1.1-1.1h3.3c0.6,0,1.1,0.5,1.1,1.1
										S118.2,176.4,117.6,176.4z M108.7,176.4h-3.3c-0.6,0-1.1-0.5-1.1-1.1s0.5-1.1,1.1-1.1h3.3c0.6,0,1.1,0.5,1.1,1.1
										S109.3,176.4,108.7,176.4z"/>
								</g>
							</g>
							<g>
								<g>
									<g>
										<g>
											<path style="fill:#FFFFFF;" d="M106.1,288.9c-2.7,0-5.2-1-7.1-2.9l-21-21c-1.9-1.9-2.9-4.4-2.9-7.1v-29.6
												c0-2.7,1-5.2,2.9-7.1l21-21c1.9-1.9,4.4-2.9,7.1-2.9h29.7c2.6,0,5.2,1.1,7.1,2.9l21,21c1.9,1.9,2.9,4.4,2.9,7.1v29.6
												c0,2.7-1,5.2-2.9,7.1l-21,21c-1.9,1.9-4.4,2.9-7.1,2.9H106.1z"/>
										</g>
									</g>
									<g>
										<g>
											<path style="fill:#3E487A;" d="M135.8,198c2.5,0,4.8,1,6.6,2.7l21,21c1.7,1.7,2.7,4.1,2.7,6.6v29.6c0,2.5-1,4.8-2.7,6.6
												l-21,21c-1.8,1.7-4.1,2.7-6.6,2.7h-29.7c-2.5,0-4.8-1-6.6-2.7l-21-21c-1.7-1.7-2.7-4.1-2.7-6.6v-29.6
												c0-2.5,1-4.8,2.7-6.6l21-21c1.8-1.7,4.1-2.7,6.6-2.7H135.8 M135.8,196.5h-29.7c-2.9,0-5.6,1.1-7.6,3.1l-21,21
												c-2,2-3.2,4.8-3.2,7.6v29.6c0,2.9,1.1,5.6,3.2,7.6l21,21c2,2,4.8,3.2,7.6,3.2h29.7c2.9,0,5.6-1.1,7.6-3.1l21-21
												c2-2,3.2-4.7,3.2-7.6v-29.6c0-2.9-1.1-5.6-3.2-7.6l-21-21C141.5,197.6,138.7,196.5,135.8,196.5L135.8,196.5z"/>
										</g>
									</g>
								</g>
							</g>
						</g>
					</g>
				</g>
			</g>
			<g>
				<g>
					<g>
						<g>
							<g>
								<path style="fill:#E7EAF9;" d="M117.7,254.1c-11.2,0-20.3-9.1-20.3-20.4s9.1-20.4,20.3-20.4s20.3,9.1,20.3,20.4
									S128.9,254.1,117.7,254.1z"/>
							</g>
						</g>
						<g>
							<g>
								<path style="fill:#3E487A;" d="M117.7,214.1c10.8,0,19.5,8.8,19.5,19.6s-8.7,19.6-19.5,19.6s-19.5-8.8-19.5-19.6
									S106.9,214.1,117.7,214.1 M117.7,212.6c-11.6,0-21,9.5-21,21.1s9.4,21.1,21,21.1s21-9.5,21-21.1S129.3,212.6,117.7,212.6
									L117.7,212.6z"/>
							</g>
						</g>
					</g>
					<g>
						<g>
							<g>
								<g>
									<path style="fill:#E7EAF9;" d="M117.7,254.1c-2.9,0-5.8-0.6-8.5-1.8l-0.3-0.1c0,0-0.8-0.4-1.2-0.6l-0.3-0.2
										c-1.5-0.8-2.9-1.9-4.2-3.1c-0.2-0.2-0.3-0.5-0.2-0.8c0.1-0.4,0.3-0.8,0.4-1.2c1.2-3,3-5.2,5.1-6.3c1.3-0.6,2.3-0.7,2.9-0.7
										l0.1,0l12.1,0c0,0,0.1,0,0.1,0c0.5,0,1.6,0.1,2.9,0.7c1,0.5,2.4,1.4,3.6,3.4c0.8,1.2,1.4,2.6,1.9,4.1
										c0.1,0.3,0,0.6-0.2,0.8c-1.3,1.3-2.7,2.3-4.2,3.2l-0.2,0.1c-0.1,0.1-0.4,0.2-1.3,0.6l-0.2,0.1
										C123.5,253.4,120.7,254.1,117.7,254.1z"/>
								</g>
							</g>
							<g>
								<g>
									<path style="fill:#3E487A;" d="M111.7,240l12.1,0c0,0,0.1,0,0.1,0c0.6,0,1.5,0.1,2.6,0.7c1.1,0.6,2.3,1.6,3.3,3.1
										c0.7,1.1,1.3,2.4,1.8,4c-1.2,1.2-2.6,2.2-4.1,3.1c-0.1,0-0.1,0.1-0.2,0.1c-0.1,0.1-1.2,0.6-1.2,0.6c-0.1,0-0.2,0.1-0.2,0.1
										c-2.5,1.1-5.3,1.8-8.2,1.8c-2.9,0-5.7-0.6-8.2-1.8c-0.1,0-0.2-0.1-0.3-0.1c0,0-0.8-0.3-1.2-0.6c-0.1-0.1-0.2-0.1-0.3-0.2
										c-1.5-0.8-2.8-1.8-4-3c0.1-0.4,0.3-0.8,0.4-1.2c1.3-3.2,3.1-5.1,4.8-5.9c1.1-0.5,2-0.7,2.6-0.7
										C111.6,240,111.6,240,111.7,240 M111.7,238.5L111.7,238.5c-0.1,0-0.1,0-0.2,0c-0.7,0-1.9,0.2-3.2,0.8
										c-1.6,0.8-3.9,2.6-5.5,6.7c-0.1,0.4-0.3,0.8-0.5,1.3c-0.2,0.5,0,1.2,0.4,1.6c1.3,1.3,2.8,2.4,4.3,3.2
										c0.1,0.1,0.2,0.1,0.3,0.2c0.4,0.2,1.2,0.6,1.2,0.6l0.3,0.1c2.8,1.3,5.8,1.9,8.8,1.9c3.1,0,6-0.6,8.8-1.9l0.2-0.1
										c0.8-0.4,1.2-0.5,1.3-0.7l0.1-0.1c1.6-0.9,3.1-2,4.4-3.3c0.4-0.4,0.6-1,0.4-1.6c-0.5-1.6-1.2-3.1-2-4.3
										c-1.1-1.6-2.4-2.9-3.9-3.6c-1.3-0.7-2.5-0.8-3.2-0.8c0,0-0.1,0-0.1,0L111.7,238.5L111.7,238.5z"/>
								</g>
							</g>
						</g>
						<g>
							<g>
								<g>
									<path style="fill:#E7EAF9;" d="M117.7,238.9c-4.3,0-7.8-3.5-7.8-7.8s3.5-7.8,7.8-7.8s7.8,3.5,7.8,7.8
										S122,238.9,117.7,238.9z"/>
								</g>
							</g>
							<g>
								<g>
									<path style="fill:#3E487A;" d="M117.7,224.1c3.9,0,7,3.2,7,7c0,3.9-3.2,7-7,7c-3.9,0-7-3.2-7-7
										C110.7,227.3,113.8,224.1,117.7,224.1 M117.7,222.6c-4.7,0-8.5,3.8-8.5,8.5c0,4.7,3.8,8.5,8.5,8.5s8.5-3.8,8.5-8.5
										C126.3,226.4,122.4,222.6,117.7,222.6L117.7,222.6z"/>
								</g>
							</g>
						</g>
					</g>
				</g>
				<g>
					<g>
						<g>
							<path style="fill:#FFFFFF;" d="M135.4,273.6c-0.8,0-1.6-0.3-2.2-0.8c-3.2-2.4-7.2-3.3-7.2-3.3c-1.3-0.3-2.3-0.7-3.2-1.3
								c-0.3-0.3-0.8-0.5-1.2-0.8c-0.3-0.2-0.7-0.4-0.9-0.6c-1.8-1.2-3.5-2-5.2-2.6c-0.6-0.2-1-0.5-1.2-1c-0.2-0.5-0.2-1,0-1.7
								c0.2-0.6,0.8-1.3,1.4-1.6c0.6-0.3,1.3-0.5,2-0.5c0.4,0,0.8,0,1.3,0.1c0.4,0,1.2,0.4,2.7,1.1c0.6,0.3,1.2,0.6,1.6,0.7
								c0,0,0,0,0,0c0-0.1,0.1-0.4,0-0.8c0-0.4-0.2-0.8-0.4-1.2c-1.6-3-3.3-5.9-4.9-8.8c-0.6-1.1-1.3-2.3-1.9-3.4
								c-0.7-1.2-0.4-2.6,0.7-3.4c0.4-0.3,0.9-0.4,1.4-0.4c0.8,0,1.5,0.4,2.1,1c0.4,0.5,0.9,1.1,1.3,1.6c0.4,0.6,0.9,1.1,1.3,1.7
								l0.5,0.6c0.6,0.8,1.3,1.7,2,2.5l0.6,0.8c1.1-0.4,3.8-1.1,7.3-1.1c1.8,0,3.5,0.2,5.1,0.6c0.7,0.2,1.1,0.6,1.4,1.1
								c1.2,2.2,2.8,5.6,3.2,9c0.2,0.7,0.4,1.3,0.6,1.7l0.2,0.4l0.7,1.3c0.5,0.9,0.3,2.1-0.5,2.8l-6.4,5.1
								C137.1,273.3,136.3,273.6,135.4,273.6L135.4,273.6z"/>
						</g>
					</g>
					<g>
						<g>
							<path style="fill:#3E487A;" d="M118.4,244.4c0.5,0,1.1,0.2,1.5,0.7c0.9,1.1,1.7,2.2,2.6,3.3c0.8,1,1.6,2,2.4,3.1l1,1.2
								c0,0,3.2-1.2,7.6-1.2c1.5,0,3.2,0.2,4.9,0.6c0.4,0.1,0.7,0.3,0.8,0.7c0.7,1.4,2.7,5.1,3.2,8.8c0.3,0.9,0.6,1.7,0.8,2.3
								l0.8,1.4c0.4,0.6,0.2,1.4-0.3,1.8l-6.4,5.1c-0.5,0.4-1.2,0.7-1.9,0.7c-0.6,0-1.2-0.2-1.8-0.6c-3.4-2.5-7.5-3.4-7.5-3.4
								c-1.1-0.2-2-0.5-2.9-1.2c-0.6-0.5-1.6-0.9-2.2-1.4c-1.7-1.1-3.5-2-5.4-2.7c-0.8-0.3-1.1-0.8-0.7-1.6c0.2-0.4,0.6-0.9,1.1-1.2
								c0.6-0.3,1.1-0.4,1.7-0.4c0.4,0,0.8,0,1.2,0.1c0.6,0.1,3.1,1.3,4.2,1.7c0.2,0.1,0.3,0.1,0.4,0.1c0.6,0,0.7-0.8,0.6-1.7
								c-0.1-0.5-0.2-1-0.5-1.5c-2.2-4.1-4.5-8.1-6.8-12.2c-0.5-0.9-0.3-1.8,0.5-2.4C117.7,244.5,118,244.4,118.4,244.4
								 M118.4,242.9L118.4,242.9c-0.7,0-1.3,0.2-1.8,0.6c-1.5,1-1.9,2.8-0.9,4.4c0.6,1.1,1.3,2.2,1.9,3.4c1.6,2.9,3.3,5.8,4.9,8.8
								c0.1,0.2,0.2,0.3,0.2,0.5c-0.2-0.1-0.4-0.2-0.5-0.2c-1.6-0.7-2.4-1.1-2.9-1.1c-0.5-0.1-1-0.1-1.4-0.1c-0.9,0-1.7,0.2-2.4,0.5
								c-0.8,0.4-1.5,1.2-1.8,2c-0.3,0.8-0.3,1.6,0,2.2c0.3,0.6,0.9,1.1,1.7,1.3c1.6,0.5,3.2,1.4,5,2.5c0.3,0.2,0.6,0.4,1,0.6
								c0.4,0.2,0.9,0.5,1.2,0.7c1.3,0.9,2.6,1.3,3.5,1.5c0,0,3.9,0.9,6.9,3.1c0.7,0.6,1.7,0.9,2.7,0.9c1,0,2-0.4,2.8-1l6.4-5.2
								c1.1-0.9,1.4-2.5,0.7-3.8l-0.7-1.3c0-0.1-0.1-0.2-0.1-0.3c-0.2-0.4-0.4-1-0.6-1.6c-0.5-3.4-2-6.9-3.3-9.2
								c-0.3-0.7-1-1.2-1.8-1.5c0,0,0,0-0.1,0c-1.7-0.4-3.5-0.6-5.3-0.6c-3.1,0-5.7,0.6-7.1,1l-0.3-0.4c-0.6-0.9-1.3-1.7-2-2.5
								l-0.4-0.6c-0.5-0.6-0.9-1.1-1.3-1.7c-0.4-0.6-0.9-1.1-1.3-1.7C120.3,243.3,119.4,242.9,118.4,242.9L118.4,242.9L118.4,242.9z
								"/>
						</g>
					</g>
				</g>
			</g>
			<g>
				<path style="fill:#2A91E9;" d="M192.4,232.5c-0.2,0-0.4-0.1-0.6-0.2l-3.4-3l-3.2,3c-0.3,0.3-0.9,0.3-1.2,0
					c-0.3-0.3-0.3-0.9,0-1.2l3.8-3.5c0.3-0.3,0.8-0.3,1.1,0l4,3.5c0.3,0.3,0.4,0.8,0.1,1.2C192.9,232.4,192.6,232.5,192.4,232.5z"/>
			</g>
			<g>
				<path style="fill:#5059C9;" d="M176.4,257.5c-0.2,0-0.4-0.1-0.6-0.2l-4-3.5c-0.3-0.3-0.4-0.8-0.1-1.2c0.3-0.3,0.8-0.4,1.2-0.1
					l3.4,3l3.2-3c0.3-0.3,0.9-0.3,1.2,0c0.3,0.3,0.3,0.9,0,1.2l-3.8,3.5C176.8,257.4,176.6,257.5,176.4,257.5z"/>
			</g>
		</g>
	</g>
	<g>
		<path style="fill:#2A91E9;" d="M94.5,350.2c-0.5,0.3-1.5,0.5-2.8,0.5c-3,0-5.3-1.9-5.3-5.5c0-3.4,2.3-5.7,5.6-5.7
			c1.3,0,2.2,0.3,2.6,0.5l-0.4,1.1c-0.5-0.3-1.3-0.4-2.2-0.4c-2.5,0-4.2,1.6-4.2,4.5c0,2.7,1.5,4.3,4.1,4.3c0.9,0,1.7-0.2,2.3-0.4
			L94.5,350.2z"/>
		<path style="fill:#2A91E9;" d="M103,346.6c0,2.9-2,4.1-3.9,4.1c-2.1,0-3.7-1.5-3.7-4c0-2.6,1.7-4.1,3.8-4.1
			C101.5,342.7,103,344.3,103,346.6z M96.9,346.7c0,1.7,1,3,2.3,3c1.3,0,2.4-1.3,2.4-3c0-1.3-0.7-3-2.3-3
			C97.6,343.7,96.9,345.3,96.9,346.7z"/>
		<path style="fill:#2A91E9;" d="M111.3,348.4c0,0.8,0,1.5,0.1,2.1h-1.2l-0.1-1.3h0c-0.4,0.6-1.2,1.4-2.6,1.4
			c-1.2,0-2.7-0.7-2.7-3.4v-4.5h1.4v4.3c0,1.5,0.5,2.5,1.7,2.5c0.9,0,1.6-0.7,1.9-1.3c0.1-0.2,0.1-0.4,0.1-0.7v-4.7h1.4V348.4z"/>
		<path style="fill:#2A91E9;" d="M113.6,345.3c0-1,0-1.8-0.1-2.5h1.2l0.1,1.3h0c0.6-0.9,1.5-1.5,2.8-1.5c1.9,0,3.3,1.6,3.3,3.9
			c0,2.8-1.7,4.2-3.5,4.2c-1,0-1.9-0.4-2.4-1.2h0v4.2h-1.4V345.3z M115,347.4c0,0.2,0,0.4,0.1,0.6c0.3,1,1.1,1.6,2.1,1.6
			c1.5,0,2.4-1.2,2.4-3c0-1.5-0.8-2.9-2.3-2.9c-1,0-1.9,0.7-2.1,1.7c0,0.2-0.1,0.4-0.1,0.6V347.4z"/>
		<path style="fill:#2A91E9;" d="M122.7,339.2h1.4v11.4h-1.4V339.2z"/>
		<path style="fill:#2A91E9;" d="M127.3,346.9c0,1.9,1.2,2.7,2.7,2.7c1,0,1.6-0.2,2.1-0.4l0.3,1c-0.5,0.2-1.4,0.5-2.6,0.5
			c-2.4,0-3.8-1.6-3.8-3.9s1.4-4.2,3.6-4.2c2.5,0,3.2,2.2,3.2,3.6c0,0.3,0,0.5,0,0.7H127.3z M131.4,345.9c0-0.9-0.4-2.3-2-2.3
			c-1.4,0-2,1.3-2.2,2.3H131.4z"/>
		<path style="fill:#2A91E9;" d="M141.2,339.2v9.4c0,0.7,0,1.5,0.1,2H140l-0.1-1.3h0c-0.4,0.9-1.3,1.5-2.6,1.5
			c-1.9,0-3.3-1.6-3.3-3.9c0-2.6,1.6-4.1,3.5-4.1c1.2,0,2,0.6,2.3,1.2h0v-4.6H141.2z M139.8,346c0-0.2,0-0.4-0.1-0.6
			c-0.2-0.9-1-1.6-2-1.6c-1.5,0-2.3,1.3-2.3,3c0,1.6,0.8,2.9,2.3,2.9c0.9,0,1.8-0.6,2.1-1.7c0-0.2,0.1-0.4,0.1-0.6V346z"/>
		<path style="fill:#2A91E9;" d="M148.5,340.6c0,0.5-0.3,0.9-0.9,0.9c-0.5,0-0.8-0.4-0.8-0.9s0.4-0.9,0.9-0.9
			C148.1,339.8,148.5,340.1,148.5,340.6z M146.9,350.6v-7.7h1.4v7.7H146.9z"/>
		<path style="fill:#2A91E9;" d="M150.5,349.1c0.4,0.3,1.2,0.5,1.9,0.5c1,0,1.5-0.5,1.5-1.2c0-0.7-0.4-1-1.4-1.4
			c-1.4-0.5-2.1-1.3-2.1-2.2c0-1.2,1-2.3,2.7-2.3c0.8,0,1.5,0.2,1.9,0.5l-0.3,1c-0.3-0.2-0.9-0.5-1.6-0.5c-0.8,0-1.3,0.5-1.3,1.1
			c0,0.6,0.4,0.9,1.5,1.3c1.3,0.5,2,1.2,2,2.3c0,1.4-1.1,2.3-2.9,2.3c-0.8,0-1.6-0.2-2.2-0.5L150.5,349.1z"/>
		<path style="fill:#2A91E9;" d="M162,340.6c0,0.5-0.3,0.9-0.9,0.9c-0.5,0-0.8-0.4-0.8-0.9s0.4-0.9,0.9-0.9
			C161.6,339.8,162,340.1,162,340.6z M160.4,350.6v-7.7h1.4v7.7H160.4z"/>
		<path style="fill:#2A91E9;" d="M164.1,344.9c0-0.8,0-1.5-0.1-2.1h1.2l0.1,1.3h0c0.4-0.7,1.3-1.4,2.6-1.4c1.1,0,2.7,0.6,2.7,3.3
			v4.6h-1.4v-4.5c0-1.2-0.5-2.3-1.8-2.3c-0.9,0-1.6,0.7-1.9,1.4c-0.1,0.2-0.1,0.4-0.1,0.7v4.7h-1.4V344.9z"/>
		<path style="fill:#2A91E9;" d="M173.8,346.9c0,1.9,1.2,2.7,2.7,2.7c1,0,1.6-0.2,2.1-0.4l0.3,1c-0.5,0.2-1.4,0.5-2.6,0.5
			c-2.4,0-3.8-1.6-3.8-3.9s1.4-4.2,3.6-4.2c2.5,0,3.2,2.2,3.2,3.6c0,0.3,0,0.5,0,0.7H173.8z M177.9,345.9c0-0.9-0.4-2.3-2-2.3
			c-1.4,0-2,1.3-2.2,2.3H177.9z"/>
		<path style="fill:#2A91E9;" d="M190.7,340.6c-0.4-0.2-0.9-0.4-1.6-0.4c-1.5,0-1.9,1-1.9,2.3v0.4h4.5v7.7h-1.4v-6.7h-3.1v6.7h-1.4
			v-6.7h-3.3v6.7h-1.4v-6.7h-1.1v-1.1h1.1v-0.3c0-1,0.3-1.9,0.9-2.6c0.4-0.5,1.1-0.8,2-0.8c0.5,0,1.1,0.2,1.4,0.3l-0.4,1
			c-0.2-0.1-0.6-0.3-1-0.3c-0.4,0-0.8,0.2-1,0.4c-0.4,0.4-0.5,1.1-0.5,1.8v0.3h3.3v-0.4c0-2,1.2-3.4,3.4-3.4c0.7,0,1.5,0.2,1.9,0.5
			L190.7,340.6z"/>
		<path style="fill:#2A91E9;" d="M199.6,350.3c-0.4,0.2-1.2,0.4-2.2,0.4c-2.3,0-3.9-1.6-3.9-4c0-2.4,1.6-4.1,4.2-4.1
			c0.8,0,1.6,0.2,2,0.4l-0.3,1.1c-0.3-0.2-0.9-0.4-1.6-0.4c-1.8,0-2.7,1.3-2.7,2.9c0,1.8,1.2,2.9,2.7,2.9c0.8,0,1.3-0.2,1.7-0.4
			L199.6,350.3z"/>
		<path style="fill:#2A91E9;" d="M202.8,340.6c0,0.5-0.3,0.9-0.9,0.9c-0.5,0-0.8-0.4-0.8-0.9s0.4-0.9,0.9-0.9
			C202.4,339.8,202.8,340.1,202.8,340.6z M201.2,350.6v-7.7h1.4v7.7H201.2z"/>
		<path style="fill:#2A91E9;" d="M205.8,346.9c0,1.9,1.2,2.7,2.7,2.7c1,0,1.6-0.2,2.1-0.4l0.3,1c-0.5,0.2-1.4,0.5-2.6,0.5
			c-2.4,0-3.8-1.6-3.8-3.9s1.4-4.2,3.6-4.2c2.5,0,3.2,2.2,3.2,3.6c0,0.3,0,0.5,0,0.7H205.8z M209.9,345.9c0-0.9-0.4-2.3-2-2.3
			c-1.4,0-2,1.3-2.2,2.3H209.9z"/>
		<path style="fill:#2A91E9;" d="M213,344.9c0-0.8,0-1.5-0.1-2.1h1.2l0.1,1.3h0c0.4-0.7,1.3-1.4,2.6-1.4c1.1,0,2.7,0.6,2.7,3.3v4.6
			h-1.4v-4.5c0-1.2-0.5-2.3-1.8-2.3c-0.9,0-1.6,0.7-1.9,1.4c-0.1,0.2-0.1,0.4-0.1,0.7v4.7H213V344.9z"/>
		<path style="fill:#2A91E9;" d="M223.5,341v1.9h2v1.1h-2v4.2c0,1,0.3,1.5,1.1,1.5c0.4,0,0.6,0,0.8-0.1l0.1,1.1
			c-0.3,0.1-0.7,0.2-1.2,0.2c-0.7,0-1.2-0.2-1.5-0.6c-0.4-0.4-0.5-1.1-0.5-2v-4.2h-1.2v-1.1h1.2v-1.4L223.5,341z"/>
		<path style="fill:#2A91E9;" d="M230.6,350.6v-6.7h-1.1v-1.1h1.1v-0.4c0-1.1,0.3-2.1,0.9-2.7c0.5-0.5,1.2-0.7,1.9-0.7
			c0.5,0,0.9,0.1,1.2,0.2l-0.2,1.1c-0.2-0.1-0.5-0.2-0.9-0.2c-1.2,0-1.5,1-1.5,2.2v0.4h1.9v1.1H232v6.7H230.6z"/>
		<path style="fill:#2A91E9;" d="M242,346.6c0,2.9-2,4.1-3.9,4.1c-2.1,0-3.7-1.5-3.7-4c0-2.6,1.7-4.1,3.8-4.1
			C240.5,342.7,242,344.3,242,346.6z M235.8,346.7c0,1.7,1,3,2.3,3c1.3,0,2.4-1.3,2.4-3c0-1.3-0.7-3-2.3-3
			C236.6,343.7,235.8,345.3,235.8,346.7z"/>
		<path style="fill:#2A91E9;" d="M243.7,345.2c0-0.9,0-1.7-0.1-2.4h1.2l0.1,1.5h0c0.4-1,1.2-1.7,2.2-1.7c0.1,0,0.3,0,0.4,0v1.3
			c-0.1,0-0.3,0-0.5,0c-1,0-1.7,0.7-1.9,1.8c0,0.2,0,0.4,0,0.7v4.1h-1.4V345.2z"/>
		<path style="fill:#2A91E9;" d="M253.8,339.8v4.5h5.2v-4.5h1.4v10.8H259v-5.1h-5.2v5.1h-1.4v-10.8H253.8z"/>
		<path style="fill:#2A91E9;" d="M270.4,350.2c-0.5,0.3-1.5,0.5-2.8,0.5c-3,0-5.3-1.9-5.3-5.5c0-3.4,2.3-5.7,5.6-5.7
			c1.3,0,2.2,0.3,2.6,0.5l-0.4,1.1c-0.5-0.3-1.3-0.4-2.2-0.4c-2.5,0-4.2,1.6-4.2,4.5c0,2.7,1.5,4.3,4.1,4.3c0.9,0,1.7-0.2,2.3-0.4
			L270.4,350.2z"/>
		<path style="fill:#2A91E9;" d="M272.1,339.9c0.8-0.1,1.9-0.2,3-0.2c2,0,3.4,0.5,4.4,1.3c1,0.9,1.5,2.1,1.5,3.9
			c0,1.8-0.6,3.2-1.6,4.2c-1,1-2.7,1.6-4.8,1.6c-1,0-1.8,0-2.5-0.1V339.9z M273.5,349.5c0.4,0,0.9,0.1,1.4,0.1c3,0,4.6-1.7,4.6-4.6
			c0-2.5-1.4-4.2-4.4-4.2c-0.7,0-1.3,0.1-1.6,0.1V349.5z"/>
	</g>
	<g>
		<path style="fill:#2A91E9;" d="M424.5,339.9c0.8-0.1,1.9-0.2,3-0.2c2,0,3.4,0.5,4.4,1.3c1,0.9,1.5,2.1,1.5,3.9
			c0,1.8-0.6,3.2-1.6,4.2c-1,1-2.7,1.6-4.8,1.6c-1,0-1.8,0-2.5-0.1V339.9z M425.9,349.5c0.4,0,0.9,0.1,1.4,0.1c3,0,4.6-1.7,4.6-4.6
			c0-2.5-1.4-4.2-4.4-4.2c-0.7,0-1.3,0.1-1.6,0.1V349.5z"/>
		<path style="fill:#2A91E9;" d="M436,346.9c0,1.9,1.2,2.7,2.7,2.7c1,0,1.6-0.2,2.1-0.4l0.3,1c-0.5,0.2-1.4,0.5-2.6,0.5
			c-2.4,0-3.8-1.6-3.8-3.9s1.4-4.2,3.6-4.2c2.5,0,3.2,2.2,3.2,3.6c0,0.3,0,0.5,0,0.7H436z M440.1,345.9c0-0.9-0.4-2.3-2-2.3
			c-1.4,0-2,1.3-2.2,2.3H440.1z"/>
		<path style="fill:#2A91E9;" d="M446.9,345.7v1h-4v-1H446.9z"/>
		<path style="fill:#2A91E9;" d="M454.4,350.3c-0.4,0.2-1.2,0.4-2.2,0.4c-2.3,0-3.9-1.6-3.9-4c0-2.4,1.6-4.1,4.2-4.1
			c0.8,0,1.6,0.2,2,0.4l-0.3,1.1c-0.3-0.2-0.9-0.4-1.6-0.4c-1.8,0-2.7,1.3-2.7,2.9c0,1.8,1.2,2.9,2.7,2.9c0.8,0,1.3-0.2,1.7-0.4
			L454.4,350.3z"/>
		<path style="fill:#2A91E9;" d="M462.9,346.6c0,2.9-2,4.1-3.9,4.1c-2.1,0-3.7-1.5-3.7-4c0-2.6,1.7-4.1,3.8-4.1
			C461.4,342.7,462.9,344.3,462.9,346.6z M456.8,346.7c0,1.7,1,3,2.3,3c1.3,0,2.4-1.3,2.4-3c0-1.3-0.7-3-2.3-3
			C457.5,343.7,456.8,345.3,456.8,346.7z"/>
		<path style="fill:#2A91E9;" d="M471.2,348.4c0,0.8,0,1.5,0.1,2.1H470l-0.1-1.3h0c-0.4,0.6-1.2,1.4-2.6,1.4c-1.2,0-2.7-0.7-2.7-3.4
			v-4.5h1.4v4.3c0,1.5,0.5,2.5,1.7,2.5c0.9,0,1.6-0.7,1.9-1.3c0.1-0.2,0.1-0.4,0.1-0.7v-4.7h1.4V348.4z"/>
		<path style="fill:#2A91E9;" d="M473.5,345.3c0-1,0-1.8-0.1-2.5h1.2l0.1,1.3h0c0.6-0.9,1.5-1.5,2.8-1.5c1.9,0,3.3,1.6,3.3,3.9
			c0,2.8-1.7,4.2-3.5,4.2c-1,0-1.9-0.4-2.4-1.2h0v4.2h-1.4V345.3z M474.9,347.4c0,0.2,0,0.4,0.1,0.6c0.3,1,1.1,1.6,2.1,1.6
			c1.5,0,2.4-1.2,2.4-3c0-1.5-0.8-2.9-2.3-2.9c-1,0-1.9,0.7-2.1,1.7c0,0.2-0.1,0.4-0.1,0.6V347.4z"/>
		<path style="fill:#2A91E9;" d="M482.6,339.2h1.4v11.4h-1.4V339.2z"/>
		<path style="fill:#2A91E9;" d="M487.2,346.9c0,1.9,1.2,2.7,2.7,2.7c1,0,1.6-0.2,2.1-0.4l0.3,1c-0.5,0.2-1.4,0.5-2.6,0.5
			c-2.4,0-3.8-1.6-3.8-3.9s1.4-4.2,3.6-4.2c2.5,0,3.2,2.2,3.2,3.6c0,0.3,0,0.5,0,0.7H487.2z M491.3,345.9c0-0.9-0.4-2.3-2-2.3
			c-1.4,0-2,1.3-2.2,2.3H491.3z"/>
		<path style="fill:#2A91E9;" d="M501.1,339.2v9.4c0,0.7,0,1.5,0.1,2h-1.2l-0.1-1.3h0c-0.4,0.9-1.3,1.5-2.6,1.5
			c-1.9,0-3.3-1.6-3.3-3.9c0-2.6,1.6-4.1,3.5-4.1c1.2,0,2,0.6,2.3,1.2h0v-4.6H501.1z M499.7,346c0-0.2,0-0.4-0.1-0.6
			c-0.2-0.9-1-1.6-2-1.6c-1.5,0-2.3,1.3-2.3,3c0,1.6,0.8,2.9,2.3,2.9c0.9,0,1.8-0.6,2.1-1.7c0-0.2,0.1-0.4,0.1-0.6V346z"/>
		<path style="fill:#2A91E9;" d="M508.4,340.6c0,0.5-0.3,0.9-0.9,0.9c-0.5,0-0.8-0.4-0.8-0.9s0.4-0.9,0.9-0.9
			C508.1,339.8,508.4,340.1,508.4,340.6z M506.8,350.6v-7.7h1.4v7.7H506.8z"/>
		<path style="fill:#2A91E9;" d="M510.4,349.1c0.4,0.3,1.2,0.5,1.9,0.5c1,0,1.5-0.5,1.5-1.2c0-0.7-0.4-1-1.4-1.4
			c-1.4-0.5-2.1-1.3-2.1-2.2c0-1.2,1-2.3,2.7-2.3c0.8,0,1.5,0.2,1.9,0.5l-0.3,1c-0.3-0.2-0.9-0.5-1.6-0.5c-0.8,0-1.3,0.5-1.3,1.1
			c0,0.6,0.4,0.9,1.5,1.3c1.3,0.5,2,1.2,2,2.3c0,1.4-1.1,2.3-2.9,2.3c-0.8,0-1.6-0.2-2.2-0.5L510.4,349.1z"/>
		<path style="fill:#2A91E9;" d="M521.1,346.9c0,1.9,1.2,2.7,2.7,2.7c1,0,1.6-0.2,2.1-0.4l0.3,1c-0.5,0.2-1.4,0.5-2.6,0.5
			c-2.4,0-3.8-1.6-3.8-3.9s1.4-4.2,3.6-4.2c2.5,0,3.2,2.2,3.2,3.6c0,0.3,0,0.5,0,0.7H521.1z M525.2,345.9c0-0.9-0.4-2.3-2-2.3
			c-1.4,0-2,1.3-2.2,2.3H525.2z"/>
		<path style="fill:#2A91E9;" d="M538,340.6c-0.4-0.2-0.9-0.4-1.6-0.4c-1.5,0-1.9,1-1.9,2.3v0.4h4.5v7.7h-1.4v-6.7h-3.1v6.7h-1.4
			v-6.7h-3.3v6.7h-1.4v-6.7h-1.1v-1.1h1.1v-0.3c0-1,0.3-1.9,0.9-2.6c0.4-0.5,1.1-0.8,2-0.8c0.5,0,1.1,0.2,1.4,0.3l-0.4,1
			c-0.2-0.1-0.6-0.3-1-0.3c-0.4,0-0.8,0.2-1,0.4c-0.4,0.4-0.5,1.1-0.5,1.8v0.3h3.3v-0.4c0-2,1.2-3.4,3.4-3.4c0.7,0,1.5,0.2,1.9,0.5
			L538,340.6z"/>
		<path style="fill:#2A91E9;" d="M546.9,350.3c-0.4,0.2-1.2,0.4-2.2,0.4c-2.3,0-3.9-1.6-3.9-4c0-2.4,1.6-4.1,4.2-4.1
			c0.8,0,1.6,0.2,2,0.4l-0.3,1.1c-0.3-0.2-0.9-0.4-1.6-0.4c-1.8,0-2.7,1.3-2.7,2.9c0,1.8,1.2,2.9,2.7,2.9c0.8,0,1.3-0.2,1.7-0.4
			L546.9,350.3z"/>
		<path style="fill:#2A91E9;" d="M550.1,340.6c0,0.5-0.3,0.9-0.9,0.9c-0.5,0-0.8-0.4-0.8-0.9s0.4-0.9,0.9-0.9
			C549.8,339.8,550.1,340.1,550.1,340.6z M548.5,350.6v-7.7h1.4v7.7H548.5z"/>
		<path style="fill:#2A91E9;" d="M553.1,346.9c0,1.9,1.2,2.7,2.7,2.7c1,0,1.6-0.2,2.1-0.4l0.3,1c-0.5,0.2-1.4,0.5-2.6,0.5
			c-2.4,0-3.8-1.6-3.8-3.9s1.4-4.2,3.6-4.2c2.5,0,3.2,2.2,3.2,3.6c0,0.3,0,0.5,0,0.7H553.1z M557.2,345.9c0-0.9-0.4-2.3-2-2.3
			c-1.4,0-2,1.3-2.2,2.3H557.2z"/>
		<path style="fill:#2A91E9;" d="M560.3,344.9c0-0.8,0-1.5-0.1-2.1h1.2l0.1,1.3h0c0.4-0.7,1.3-1.4,2.6-1.4c1.1,0,2.7,0.6,2.7,3.3
			v4.6h-1.4v-4.5c0-1.2-0.5-2.3-1.8-2.3c-0.9,0-1.6,0.7-1.9,1.4c-0.1,0.2-0.1,0.4-0.1,0.7v4.7h-1.4V344.9z"/>
		<path style="fill:#2A91E9;" d="M570.8,341v1.9h2v1.1h-2v4.2c0,1,0.3,1.5,1.1,1.5c0.4,0,0.6,0,0.8-0.1l0.1,1.1
			c-0.3,0.1-0.7,0.2-1.2,0.2c-0.7,0-1.2-0.2-1.5-0.6c-0.4-0.4-0.5-1.1-0.5-2v-4.2h-1.2v-1.1h1.2v-1.4L570.8,341z"/>
		<path style="fill:#2A91E9;" d="M577.9,350.6v-6.7h-1.1v-1.1h1.1v-0.4c0-1.1,0.3-2.1,0.9-2.7c0.5-0.5,1.2-0.7,1.9-0.7
			c0.5,0,0.9,0.1,1.2,0.2l-0.2,1.1c-0.2-0.1-0.5-0.2-0.9-0.2c-1.2,0-1.5,1-1.5,2.2v0.4h1.9v1.1h-1.9v6.7H577.9z"/>
		<path style="fill:#2A91E9;" d="M589.3,346.6c0,2.9-2,4.1-3.9,4.1c-2.1,0-3.7-1.5-3.7-4c0-2.6,1.7-4.1,3.8-4.1
			C587.8,342.7,589.3,344.3,589.3,346.6z M583.1,346.7c0,1.7,1,3,2.3,3c1.3,0,2.4-1.3,2.4-3c0-1.3-0.7-3-2.3-3
			C583.9,343.7,583.1,345.3,583.1,346.7z"/>
		<path style="fill:#2A91E9;" d="M591,345.2c0-0.9,0-1.7-0.1-2.4h1.2l0.1,1.5h0c0.4-1,1.2-1.7,2.2-1.7c0.1,0,0.3,0,0.4,0v1.3
			c-0.1,0-0.3,0-0.5,0c-1,0-1.7,0.7-1.9,1.8c0,0.2,0,0.4,0,0.7v4.1H591V345.2z"/>
		<path style="fill:#2A91E9;" d="M601.1,339.8v4.5h5.2v-4.5h1.4v10.8h-1.4v-5.1h-5.2v5.1h-1.4v-10.8H601.1z"/>
		<path style="fill:#2A91E9;" d="M617.7,350.2c-0.5,0.3-1.5,0.5-2.8,0.5c-3,0-5.3-1.9-5.3-5.5c0-3.4,2.3-5.7,5.6-5.7
			c1.3,0,2.2,0.3,2.6,0.5l-0.4,1.1c-0.5-0.3-1.3-0.4-2.2-0.4c-2.5,0-4.2,1.6-4.2,4.5c0,2.7,1.5,4.3,4.1,4.3c0.9,0,1.7-0.2,2.3-0.4
			L617.7,350.2z"/>
		<path style="fill:#2A91E9;" d="M619.4,339.9c0.8-0.1,1.9-0.2,3-0.2c2,0,3.4,0.5,4.4,1.3c1,0.9,1.5,2.1,1.5,3.9
			c0,1.8-0.6,3.2-1.6,4.2c-1,1-2.7,1.6-4.8,1.6c-1,0-1.8,0-2.5-0.1V339.9z M620.8,349.5c0.4,0,0.9,0.1,1.4,0.1c3,0,4.6-1.7,4.6-4.6
			c0-2.5-1.4-4.2-4.4-4.2c-0.7,0-1.3,0.1-1.6,0.1V349.5z"/>
	</g>
	<g>
		<g>
			<g>
				<path style="fill:#3E487A;" d="M569.2,146.1c0.8-0.2,2.2-0.3,3.6-0.3c1.8,0,3,0.2,3.9,0.9c0.8,0.5,1.4,1.4,1.4,2.6
					c0,1.2-0.8,2.4-2.3,2.9v0.1c1.4,0.4,2.7,1.5,2.7,3.3c0,1.2-0.5,2.1-1.3,2.8c-1,0.8-2.6,1.2-5,1.2c-1.4,0-2.4-0.1-3-0.2V146.1z
					 M571.6,151.4h1.3c1.7,0,2.7-0.8,2.7-1.9c0-1.3-1-1.9-2.5-1.9c-0.7,0-1.1,0-1.4,0.1V151.4z M571.6,157.6
					c0.3,0.1,0.7,0.1,1.3,0.1c1.6,0,3-0.6,3-2.3c0-1.6-1.4-2.2-3.1-2.2h-1.2V157.6z"/>
			</g>
			<g>
				<path style="fill:#3E487A;" d="M583.4,155.6l-1.2,3.8h-2.6l4.3-13.5h3.2l4.4,13.5h-2.7l-1.2-3.8H583.4z M587.3,153.7l-1.1-3.3
					c-0.3-0.8-0.5-1.7-0.7-2.5h0c-0.2,0.8-0.4,1.7-0.6,2.5l-1,3.3H587.3z"/>
			</g>
			<g>
				<path style="fill:#3E487A;" d="M602.8,159c-0.6,0.3-1.9,0.6-3.5,0.6c-4.3,0-6.9-2.7-6.9-6.8c0-4.5,3.1-7.2,7.3-7.2
					c1.6,0,2.8,0.3,3.3,0.6l-0.5,2c-0.6-0.3-1.5-0.5-2.7-0.5c-2.8,0-4.7,1.7-4.7,5c0,3,1.7,4.9,4.7,4.9c1,0,2-0.2,2.7-0.5L602.8,159
					z"/>
			</g>
			<g>
				<path style="fill:#3E487A;" d="M604.9,145.9h2.5v6.2h0.1c0.3-0.5,0.7-1,1-1.5l3.6-4.8h3l-4.7,5.8l5,7.8h-2.9l-3.8-6.2l-1.2,1.4
					v4.8h-2.5V145.9z"/>
			</g>
			<g>
				<path style="fill:#3E487A;" d="M624.1,153.4H619v4h5.7v2h-8.2v-13.5h7.9v2H619v3.5h5.1V153.4z"/>
			</g>
			<g>
				<path style="fill:#3E487A;" d="M626.9,159.4v-13.5h2.8l3.5,5.8c0.9,1.5,1.7,3.1,2.3,4.5h0c-0.2-1.8-0.2-3.6-0.2-5.6v-4.7h2.3
					v13.5h-2.6l-3.5-6c-0.9-1.5-1.7-3.1-2.4-4.7l-0.1,0c0.1,1.7,0.1,3.5,0.1,5.8v4.8H626.9z"/>
			</g>
			<g>
				<path style="fill:#3E487A;" d="M640.5,146c1.1-0.2,2.5-0.3,3.9-0.3c2.5,0,4.3,0.5,5.5,1.6c1.3,1.1,2.1,2.7,2.1,5
					c0,2.4-0.8,4.2-2.1,5.4c-1.3,1.2-3.5,1.8-6.1,1.8c-1.4,0-2.5-0.1-3.3-0.2V146z M643,157.5c0.3,0.1,0.9,0.1,1.4,0.1
					c3.2,0,5.1-1.8,5.1-5.2c0-3-1.7-4.7-4.8-4.7c-0.8,0-1.3,0.1-1.7,0.1V157.5z"/>
			</g>
		</g>
		<g>
			<g>
				<path style="fill:#3E487A;" d="M415.6,145.9v7.9c0,2.7,1.1,3.9,2.8,3.9c1.8,0,2.9-1.2,2.9-3.9v-7.9h2.5v7.7c0,4.2-2.2,6-5.4,6
					c-3.1,0-5.2-1.7-5.2-6v-7.8H415.6z"/>
			</g>
			<g>
				<path style="fill:#3E487A;" d="M429,145.9v13.5h-2.5v-13.5H429z"/>
			</g>
			<g>
				<path style="fill:#3E487A;" d="M434.7,160.2l4.9-14.6h1.7l-4.9,14.6H434.7z"/>
			</g>
			<g>
				<path style="fill:#3E487A;" d="M449.4,145.9v7.9c0,2.7,1.1,3.9,2.8,3.9c1.8,0,2.9-1.2,2.9-3.9v-7.9h2.5v7.7c0,4.2-2.2,6-5.4,6
					c-3.1,0-5.2-1.7-5.2-6v-7.8H449.4z"/>
			</g>
			<g>
				<path style="fill:#3E487A;" d="M467.5,159.4l-1.4-2.7c-0.6-1-1-1.8-1.4-2.6h0c-0.3,0.8-0.7,1.5-1.2,2.6l-1.3,2.7h-2.8l4-6.9
					l-3.9-6.7h2.9l1.5,2.8c0.4,0.8,0.8,1.5,1.1,2.3h0.1c0.4-0.8,0.6-1.4,1.1-2.3l1.4-2.8h2.8l-4,6.6l4.1,6.9H467.5z"/>
			</g>
		</g>
		<g>
			<g>
				<g>
					<path style="fill:#2A91E9;" d="M459.4,312.7h-3.3c-0.6,0-1.1-0.5-1.1-1.1s0.5-1.1,1.1-1.1h3.3c0.6,0,1.1,0.5,1.1,1.1
						S460.1,312.7,459.4,312.7z M450.5,312.7h-3.3c-0.6,0-1.1-0.5-1.1-1.1s0.5-1.1,1.1-1.1h3.3c0.6,0,1.1,0.5,1.1,1.1
						S451.1,312.7,450.5,312.7z M441.6,312.7h-3.3c-0.6,0-1.1-0.5-1.1-1.1s0.5-1.1,1.1-1.1h3.3c0.6,0,1.1,0.5,1.1,1.1
						S442.2,312.7,441.6,312.7z M432.7,312.7h-3.3c-0.6,0-1.1-0.5-1.1-1.1s0.5-1.1,1.1-1.1h3.3c0.6,0,1.1,0.5,1.1,1.1
						S433.3,312.7,432.7,312.7z M423.7,312.7h-3.3c-0.6,0-1.1-0.5-1.1-1.1s0.5-1.1,1.1-1.1h3.3c0.6,0,1.1,0.5,1.1,1.1
						S424.3,312.7,423.7,312.7z M465,312.7c-0.6,0-1.1-0.5-1.1-1.1c0-0.6,0.5-1.1,1.1-1.2c1,0,2-0.2,3-0.5c0.6-0.2,1.2,0.2,1.4,0.8
						c0.2,0.6-0.2,1.2-0.8,1.4C467.5,312.4,466.3,312.6,465,312.7C465.1,312.7,465,312.7,465,312.7z M414.9,311.8
						c-0.1,0-0.3,0-0.4-0.1c-1.1-0.4-2.2-1-3.2-1.7c-0.5-0.4-0.6-1-0.3-1.6c0.4-0.5,1-0.6,1.6-0.3c0.8,0.6,1.8,1.1,2.7,1.4
						c0.6,0.2,0.9,0.9,0.6,1.4C415.8,311.5,415.4,311.8,414.9,311.8z M473.2,309.6c-0.3,0-0.6-0.1-0.9-0.4c-0.4-0.5-0.3-1.2,0.2-1.6
						c0.3-0.3,0.7-0.6,1-0.9l1.3-1.3c0.4-0.4,1.1-0.4,1.6,0c0.4,0.4,0.4,1.1,0,1.6l-1.3,1.3c-0.4,0.4-0.8,0.7-1.2,1.1
						C473.7,309.5,473.5,309.6,473.2,309.6z M407.9,306.4c-0.3,0-0.6-0.1-0.8-0.3l-2.4-2.4c-0.4-0.4-0.4-1.1,0-1.6
						c0.4-0.4,1.1-0.4,1.6,0l2.4,2.4c0.4,0.4,0.4,1.1,0,1.6C408.4,306.3,408.2,306.4,407.9,306.4z M479.6,303.3
						c-0.3,0-0.6-0.1-0.8-0.3c-0.4-0.4-0.4-1.1,0-1.6l2.4-2.4c0.4-0.4,1.1-0.4,1.6,0c0.4,0.4,0.4,1.1,0,1.6l-2.4,2.4
						C480.2,303.2,479.9,303.3,479.6,303.3z M401.6,300.1c-0.3,0-0.6-0.1-0.8-0.3l-2.4-2.4c-0.4-0.4-0.4-1.1,0-1.6
						c0.4-0.4,1.1-0.4,1.6,0l2.4,2.4c0.4,0.4,0.4,1.1,0,1.6C402.2,300,401.9,300.1,401.6,300.1z M485.9,296.9
						c-0.3,0-0.6-0.1-0.8-0.3c-0.4-0.4-0.4-1.1,0-1.6l2.4-2.4c0.4-0.4,1.1-0.4,1.6,0c0.4,0.4,0.4,1.1,0,1.6l-2.4,2.4
						C486.4,296.8,486.2,296.9,485.9,296.9z M395.3,293.7c-0.3,0-0.6-0.1-0.8-0.3l-2.4-2.4c-0.4-0.4-0.4-1.1,0-1.6
						c0.4-0.4,1.1-0.4,1.6,0l2.4,2.4c0.4,0.4,0.4,1.1,0,1.6C395.9,293.6,395.6,293.7,395.3,293.7z M492.2,290.6
						c-0.3,0-0.6-0.1-0.8-0.3c-0.4-0.4-0.4-1.1,0-1.6l2.4-2.4c0.4-0.4,1.1-0.4,1.6,0c0.4,0.4,0.4,1.1,0,1.6l-2.4,2.4
						C492.7,290.5,492.4,290.6,492.2,290.6z M389,287.4c-0.3,0-0.6-0.1-0.8-0.3l-2.4-2.4c-0.4-0.4-0.4-1.1,0-1.6
						c0.4-0.4,1.1-0.4,1.6,0l2.4,2.4c0.4,0.4,0.4,1.1,0,1.6C389.6,287.3,389.3,287.4,389,287.4z M498.5,284.3
						c-0.3,0-0.6-0.1-0.8-0.3c-0.4-0.4-0.4-1.1,0-1.6l2.4-2.4c0.4-0.4,1.1-0.4,1.6,0c0.4,0.4,0.4,1.1,0,1.6l-2.4,2.4
						C499,284.2,498.7,284.3,498.5,284.3z M382.7,281.1c-0.3,0-0.6-0.1-0.8-0.3l-2.4-2.4c-0.4-0.4-0.4-1.1,0-1.6
						c0.4-0.4,1.1-0.4,1.6,0l2.4,2.4c0.4,0.4,0.4,1.1,0,1.6C383.3,281,383,281.1,382.7,281.1z M504.7,277.9c-0.3,0-0.6-0.1-0.8-0.3
						c-0.4-0.4-0.4-1.1,0-1.6l1.1-1.1c0.4-0.4,0.8-0.8,1.1-1.3c0.4-0.5,1.1-0.6,1.6-0.2s0.6,1.1,0.2,1.6c-0.4,0.5-0.8,1-1.3,1.5
						l-1.1,1.1C505.3,277.8,505,277.9,504.7,277.9z M376.7,274.5c-0.4,0-0.7-0.2-0.9-0.5c-0.6-1-1.2-2.1-1.6-3.2
						c-0.2-0.6,0.1-1.2,0.7-1.4c0.6-0.2,1.2,0.1,1.4,0.7c0.3,1,0.8,1.9,1.3,2.8c0.3,0.5,0.2,1.2-0.3,1.5
						C377.1,274.5,376.9,274.5,376.7,274.5z M509.4,270.5c-0.1,0-0.2,0-0.3,0c-0.6-0.2-1-0.8-0.8-1.4c0.3-1,0.4-2,0.4-3
						c0-0.6,0.5-1.1,1.1-1.1c0,0,0,0,0,0c0.6,0,1.1,0.5,1.1,1.1c0,1.2-0.2,2.4-0.5,3.6C510.4,270.2,509.9,270.5,509.4,270.5z
						 M374.5,266c-0.6,0-1.1-0.5-1.1-1.1v-3.3c0-0.6,0.5-1.1,1.1-1.1s1.1,0.5,1.1,1.1v3.3C375.6,265.5,375.1,266,374.5,266z
						 M509.9,261.6c-0.6,0-1.1-0.5-1.1-1.1v-3.3c0-0.6,0.5-1.1,1.1-1.1s1.1,0.5,1.1,1.1v3.3C511,261.1,510.5,261.6,509.9,261.6z
						 M374.5,257.1c-0.6,0-1.1-0.5-1.1-1.1v-3.3c0-0.6,0.5-1.1,1.1-1.1s1.1,0.5,1.1,1.1v3.3C375.6,256.6,375.1,257.1,374.5,257.1z
						 M509.9,252.7c-0.6,0-1.1-0.5-1.1-1.1v-3.3c0-0.6,0.5-1.1,1.1-1.1s1.1,0.5,1.1,1.1v3.3C511,252.2,510.5,252.7,509.9,252.7z
						 M374.5,248.2c-0.6,0-1.1-0.5-1.1-1.1v-3.3c0-0.6,0.5-1.1,1.1-1.1s1.1,0.5,1.1,1.1v3.3C375.6,247.7,375.1,248.2,374.5,248.2z
						 M509.9,243.7c-0.6,0-1.1-0.5-1.1-1.1v-3.3c0-0.6,0.5-1.1,1.1-1.1s1.1,0.5,1.1,1.1v3.3C511,243.2,510.5,243.7,509.9,243.7z
						 M374.5,239.2c-0.6,0-1.1-0.5-1.1-1.1v-3.3c0-0.6,0.5-1.1,1.1-1.1s1.1,0.5,1.1,1.1v3.3C375.6,238.7,375.1,239.2,374.5,239.2z
						 M509.9,234.8c-0.6,0-1.1-0.5-1.1-1.1v-3.3c0-0.6,0.5-1.1,1.1-1.1s1.1,0.5,1.1,1.1v3.3C511,234.3,510.5,234.8,509.9,234.8z
						 M374.5,230.3c-0.6,0-1.1-0.5-1.1-1.1v-3.3c0-0.6,0.5-1.1,1.1-1.1s1.1,0.5,1.1,1.1v3.3C375.6,229.8,375.1,230.3,374.5,230.3z
						 M509.9,225.9c-0.6,0-1.1-0.5-1.1-1.1v-3.3c0-0.6,0.5-1.1,1.1-1.1s1.1,0.5,1.1,1.1v3.3C511,225.4,510.5,225.9,509.9,225.9z
						 M374.5,221.4C374.5,221.4,374.4,221.4,374.5,221.4c-0.7,0-1.1-0.6-1.1-1.2c0.1-1.2,0.3-2.4,0.6-3.6c0.2-0.6,0.8-0.9,1.4-0.8
						c0.6,0.2,0.9,0.8,0.8,1.4c-0.3,1-0.5,2-0.5,3C375.6,220.9,375.1,221.4,374.5,221.4z M509,217.1c-0.5,0-0.9-0.3-1-0.7
						c-0.4-1-0.8-1.9-1.4-2.7c-0.3-0.5-0.2-1.2,0.3-1.6c0.5-0.3,1.2-0.2,1.6,0.3c0.7,1,1.2,2.1,1.7,3.2c0.2,0.6-0.1,1.2-0.6,1.4
						C509.2,217,509.1,217.1,509,217.1z M377.6,213.2c-0.2,0-0.5-0.1-0.7-0.2c-0.5-0.4-0.6-1.1-0.2-1.6c0.3-0.4,0.6-0.7,1-1.1
						l1.4-1.4c0.4-0.4,1.1-0.4,1.6,0c0.4,0.4,0.4,1.1,0,1.6l-1.4,1.4c-0.3,0.3-0.6,0.6-0.8,0.9C378.3,213,378,213.2,377.6,213.2z
						 M503.7,210c-0.3,0-0.6-0.1-0.8-0.3l-2.4-2.4c-0.4-0.4-0.4-1.1,0-1.6c0.4-0.4,1.1-0.4,1.6,0l2.4,2.4c0.4,0.4,0.4,1.1,0,1.6
						C504.2,209.9,504,210,503.7,210z M383.9,206.8c-0.3,0-0.6-0.1-0.8-0.3c-0.4-0.4-0.4-1.1,0-1.6l2.4-2.4c0.4-0.4,1.1-0.4,1.6,0
						c0.4,0.4,0.4,1.1,0,1.6l-2.4,2.4C384.4,206.7,384.2,206.8,383.9,206.8z M497.4,203.7c-0.3,0-0.6-0.1-0.8-0.3l-2.4-2.4
						c-0.4-0.4-0.4-1.1,0-1.6c0.4-0.4,1.1-0.4,1.6,0l2.4,2.4c0.4,0.4,0.4,1.1,0,1.6C497.9,203.6,497.7,203.7,497.4,203.7z
						 M390.2,200.4c-0.3,0-0.6-0.1-0.8-0.3c-0.4-0.4-0.4-1.1,0-1.6l2.4-2.4c0.4-0.4,1.1-0.4,1.6,0c0.4,0.4,0.4,1.1,0,1.6l-2.4,2.4
						C390.7,200.3,390.4,200.4,390.2,200.4z M491.1,197.3c-0.3,0-0.6-0.1-0.8-0.3l-2.4-2.4c-0.4-0.4-0.4-1.1,0-1.6
						c0.4-0.4,1.1-0.4,1.6,0l2.4,2.4c0.4,0.4,0.4,1.1,0,1.6C491.7,197.2,491.4,197.3,491.1,197.3z M396.5,194.1
						c-0.3,0-0.6-0.1-0.8-0.3c-0.4-0.4-0.4-1.1,0-1.6l2.4-2.4c0.4-0.4,1.1-0.4,1.6,0c0.4,0.4,0.4,1.1,0,1.6l-2.4,2.4
						C397,194,396.7,194.1,396.5,194.1z M484.8,191c-0.3,0-0.6-0.1-0.8-0.3l-2.4-2.4c-0.4-0.4-0.4-1.1,0-1.6c0.4-0.4,1.1-0.4,1.6,0
						l2.4,2.4c0.4,0.4,0.4,1.1,0,1.6C485.4,190.9,485.1,191,484.8,191z M402.7,187.8c-0.3,0-0.6-0.1-0.8-0.3c-0.4-0.4-0.4-1.1,0-1.6
						l2.4-2.4c0.4-0.4,1.1-0.4,1.6,0c0.4,0.4,0.4,1.1,0,1.6l-2.4,2.4C403.3,187.7,403,187.8,402.7,187.8z M478.5,184.7
						c-0.3,0-0.6-0.1-0.8-0.3l-2.4-2.4c-0.4-0.4-0.4-1.1,0-1.6c0.4-0.4,1.1-0.4,1.6,0l2.4,2.4c0.4,0.4,0.4,1.1,0,1.6
						C479.1,184.6,478.8,184.7,478.5,184.7z M409,181.4c-0.3,0-0.6-0.1-0.8-0.3c-0.4-0.4-0.4-1.1,0-1.6l1-1c0.5-0.5,1-1,1.6-1.4
						c0.5-0.4,1.2-0.3,1.6,0.2c0.4,0.5,0.3,1.2-0.2,1.6c-0.5,0.4-0.9,0.8-1.3,1.2l-1,1C409.6,181.3,409.3,181.4,409,181.4z
						 M472,178.6c-0.2,0-0.4-0.1-0.6-0.2c-0.9-0.6-1.8-1-2.8-1.3c-0.6-0.2-0.9-0.8-0.7-1.4s0.8-0.9,1.4-0.7c1.1,0.4,2.2,0.9,3.2,1.6
						c0.5,0.3,0.7,1,0.3,1.5C472.7,178.4,472.4,178.6,472,178.6z M416.5,176.8c-0.5,0-1-0.3-1.1-0.8c-0.2-0.6,0.2-1.2,0.8-1.4
						c1.2-0.3,2.4-0.5,3.6-0.5c0.6,0,1.1,0.5,1.1,1.1c0,0.6-0.5,1.1-1.1,1.1c-1,0-2.1,0.1-3,0.4
						C416.7,176.7,416.6,176.8,416.5,176.8z M464.4,176.3h-3.3c-0.6,0-1.1-0.5-1.1-1.1s0.5-1.1,1.1-1.1h3.3c0.6,0,1.1,0.5,1.1,1.1
						S465.1,176.3,464.4,176.3z M455.5,176.3h-3.3c-0.6,0-1.1-0.5-1.1-1.1s0.5-1.1,1.1-1.1h3.3c0.6,0,1.1,0.5,1.1,1.1
						S456.1,176.3,455.5,176.3z M446.6,176.3h-3.3c-0.6,0-1.1-0.5-1.1-1.1s0.5-1.1,1.1-1.1h3.3c0.6,0,1.1,0.5,1.1,1.1
						S447.2,176.3,446.6,176.3z M437.7,176.3h-3.3c-0.6,0-1.1-0.5-1.1-1.1s0.5-1.1,1.1-1.1h3.3c0.6,0,1.1,0.5,1.1,1.1
						S438.3,176.3,437.7,176.3z M428.7,176.3h-3.3c-0.6,0-1.1-0.5-1.1-1.1s0.5-1.1,1.1-1.1h3.3c0.6,0,1.1,0.5,1.1,1.1
						S429.3,176.3,428.7,176.3z"/>
				</g>
			</g>
		</g>
		<g>
			<g>
				<g>
					<path style="fill:#5059C9;" d="M626.5,312.7h-3.3c-0.6,0-1.1-0.5-1.1-1.1s0.5-1.1,1.1-1.1h3.3c0.6,0,1.1,0.5,1.1,1.1
						S627.1,312.7,626.5,312.7z M617.6,312.7h-3.3c-0.6,0-1.1-0.5-1.1-1.1s0.5-1.1,1.1-1.1h3.3c0.6,0,1.1,0.5,1.1,1.1
						S618.2,312.7,617.6,312.7z M608.6,312.7h-3.3c-0.6,0-1.1-0.5-1.1-1.1s0.5-1.1,1.1-1.1h3.3c0.6,0,1.1,0.5,1.1,1.1
						S609.2,312.7,608.6,312.7z M599.7,312.7h-3.3c-0.6,0-1.1-0.5-1.1-1.1s0.5-1.1,1.1-1.1h3.3c0.6,0,1.1,0.5,1.1,1.1
						S600.3,312.7,599.7,312.7z M590.8,312.7h-3.3c-0.6,0-1.1-0.5-1.1-1.1s0.5-1.1,1.1-1.1h3.3c0.6,0,1.1,0.5,1.1,1.1
						S591.4,312.7,590.8,312.7z M632.1,312.7c-0.6,0-1.1-0.5-1.1-1.1c0-0.6,0.5-1.1,1.1-1.2c1,0,2-0.2,3-0.5
						c0.6-0.2,1.2,0.2,1.4,0.8c0.2,0.6-0.2,1.2-0.8,1.4C634.5,312.4,633.3,312.6,632.1,312.7C632.1,312.7,632.1,312.7,632.1,312.7z
						 M582,311.8c-0.1,0-0.3,0-0.4-0.1c-1.1-0.4-2.2-1-3.2-1.7c-0.5-0.4-0.6-1-0.3-1.6c0.4-0.5,1-0.6,1.6-0.3
						c0.8,0.6,1.8,1.1,2.7,1.4c0.6,0.2,0.9,0.9,0.6,1.4C582.8,311.5,582.4,311.8,582,311.8z M640.3,309.6c-0.3,0-0.6-0.1-0.9-0.4
						c-0.4-0.5-0.3-1.2,0.2-1.6c0.3-0.3,0.7-0.6,1-0.9l1.3-1.3c0.4-0.4,1.1-0.4,1.6,0c0.4,0.4,0.4,1.1,0,1.6l-1.3,1.3
						c-0.4,0.4-0.8,0.7-1.2,1.1C640.8,309.5,640.5,309.6,640.3,309.6z M574.9,306.4c-0.3,0-0.6-0.1-0.8-0.3l-2.4-2.4
						c-0.4-0.4-0.4-1.1,0-1.6c0.4-0.4,1.1-0.4,1.6,0l2.4,2.4c0.4,0.4,0.4,1.1,0,1.6C575.5,306.3,575.2,306.4,574.9,306.4z
						 M646.6,303.3c-0.3,0-0.6-0.1-0.8-0.3c-0.4-0.4-0.4-1.1,0-1.6l2.4-2.4c0.4-0.4,1.1-0.4,1.6,0c0.4,0.4,0.4,1.1,0,1.6l-2.4,2.4
						C647.2,303.2,646.9,303.3,646.6,303.3z M568.6,300.1c-0.3,0-0.6-0.1-0.8-0.3l-2.4-2.4c-0.4-0.4-0.4-1.1,0-1.6
						c0.4-0.4,1.1-0.4,1.6,0l2.4,2.4c0.4,0.4,0.4,1.1,0,1.6C569.2,300,568.9,300.1,568.6,300.1z M652.9,296.9
						c-0.3,0-0.6-0.1-0.8-0.3c-0.4-0.4-0.4-1.1,0-1.6l2.4-2.4c0.4-0.4,1.1-0.4,1.6,0c0.4,0.4,0.4,1.1,0,1.6l-2.4,2.4
						C653.5,296.8,653.2,296.9,652.9,296.9z M562.3,293.7c-0.3,0-0.6-0.1-0.8-0.3l-2.4-2.4c-0.4-0.4-0.4-1.1,0-1.6
						c0.4-0.4,1.1-0.4,1.6,0l2.4,2.4c0.4,0.4,0.4,1.1,0,1.6C562.9,293.6,562.6,293.7,562.3,293.7z M659.2,290.6
						c-0.3,0-0.6-0.1-0.8-0.3c-0.4-0.4-0.4-1.1,0-1.6l2.4-2.4c0.4-0.4,1.1-0.4,1.6,0c0.4,0.4,0.4,1.1,0,1.6l-2.4,2.4
						C659.8,290.5,659.5,290.6,659.2,290.6z M556,287.4c-0.3,0-0.6-0.1-0.8-0.3l-2.4-2.4c-0.4-0.4-0.4-1.1,0-1.6
						c0.4-0.4,1.1-0.4,1.6,0l2.4,2.4c0.4,0.4,0.4,1.1,0,1.6C556.6,287.3,556.3,287.4,556,287.4z M665.5,284.3
						c-0.3,0-0.6-0.1-0.8-0.3c-0.4-0.4-0.4-1.1,0-1.6l2.4-2.4c0.4-0.4,1.1-0.4,1.6,0c0.4,0.4,0.4,1.1,0,1.6l-2.4,2.4
						C666.1,284.2,665.8,284.3,665.5,284.3z M549.8,281.1c-0.3,0-0.6-0.1-0.8-0.3l-2.4-2.4c-0.4-0.4-0.4-1.1,0-1.6
						c0.4-0.4,1.1-0.4,1.6,0l2.4,2.4c0.4,0.4,0.4,1.1,0,1.6C550.3,281,550,281.1,549.8,281.1z M671.8,277.9c-0.3,0-0.6-0.1-0.8-0.3
						c-0.4-0.4-0.4-1.1,0-1.6l1.1-1.1c0.4-0.4,0.8-0.8,1.1-1.3c0.4-0.5,1.1-0.6,1.6-0.2c0.5,0.4,0.6,1.1,0.2,1.6
						c-0.4,0.5-0.8,1-1.3,1.5l-1.1,1.1C672.4,277.8,672.1,277.9,671.8,277.9z M543.7,274.5c-0.4,0-0.7-0.2-0.9-0.5
						c-0.6-1-1.2-2.1-1.6-3.2c-0.2-0.6,0.1-1.2,0.7-1.4c0.6-0.2,1.2,0.1,1.4,0.7c0.3,1,0.8,1.9,1.3,2.8c0.3,0.5,0.2,1.2-0.3,1.5
						C544.1,274.5,543.9,274.5,543.7,274.5z M676.5,270.5c-0.1,0-0.2,0-0.3,0c-0.6-0.2-1-0.8-0.8-1.4c0.3-1,0.4-2,0.4-3
						c0-0.6,0.5-1.1,1.1-1.1c0.6,0,1.1,0.5,1.1,1.1c0,1.2-0.2,2.4-0.5,3.6C677.4,270.2,677,270.5,676.5,270.5z M541.5,266
						c-0.6,0-1.1-0.5-1.1-1.1v-3.3c0-0.6,0.5-1.1,1.1-1.1s1.1,0.5,1.1,1.1v3.3C542.6,265.5,542.1,266,541.5,266z M676.9,261.6
						c-0.6,0-1.1-0.5-1.1-1.1v-3.3c0-0.6,0.5-1.1,1.1-1.1s1.1,0.5,1.1,1.1v3.3C678.1,261.1,677.6,261.6,676.9,261.6z M541.5,257.1
						c-0.6,0-1.1-0.5-1.1-1.1v-3.3c0-0.6,0.5-1.1,1.1-1.1s1.1,0.5,1.1,1.1v3.3C542.6,256.6,542.1,257.1,541.5,257.1z M676.9,252.7
						c-0.6,0-1.1-0.5-1.1-1.1v-3.3c0-0.6,0.5-1.1,1.1-1.1s1.1,0.5,1.1,1.1v3.3C678.1,252.2,677.6,252.7,676.9,252.7z M541.5,248.2
						c-0.6,0-1.1-0.5-1.1-1.1v-3.3c0-0.6,0.5-1.1,1.1-1.1s1.1,0.5,1.1,1.1v3.3C542.6,247.7,542.1,248.2,541.5,248.2z M676.9,243.7
						c-0.6,0-1.1-0.5-1.1-1.1v-3.3c0-0.6,0.5-1.1,1.1-1.1s1.1,0.5,1.1,1.1v3.3C678.1,243.2,677.6,243.7,676.9,243.7z M541.5,239.2
						c-0.6,0-1.1-0.5-1.1-1.1v-3.3c0-0.6,0.5-1.1,1.1-1.1s1.1,0.5,1.1,1.1v3.3C542.6,238.7,542.1,239.2,541.5,239.2z M676.9,234.8
						c-0.6,0-1.1-0.5-1.1-1.1v-3.3c0-0.6,0.5-1.1,1.1-1.1s1.1,0.5,1.1,1.1v3.3C678.1,234.3,677.6,234.8,676.9,234.8z M541.5,230.3
						c-0.6,0-1.1-0.5-1.1-1.1v-3.3c0-0.6,0.5-1.1,1.1-1.1s1.1,0.5,1.1,1.1v3.3C542.6,229.8,542.1,230.3,541.5,230.3z M676.9,225.9
						c-0.6,0-1.1-0.5-1.1-1.1v-3.3c0-0.6,0.5-1.1,1.1-1.1s1.1,0.5,1.1,1.1v3.3C678.1,225.4,677.6,225.9,676.9,225.9z M541.5,221.4
						C541.5,221.4,541.5,221.4,541.5,221.4c-0.7,0-1.1-0.6-1.1-1.2c0.1-1.2,0.3-2.4,0.6-3.6c0.2-0.6,0.8-0.9,1.4-0.8
						c0.6,0.2,0.9,0.8,0.8,1.4c-0.3,1-0.5,2-0.5,3C542.6,220.9,542.1,221.4,541.5,221.4z M676,217.1c-0.5,0-0.9-0.3-1-0.7
						c-0.4-1-0.8-1.9-1.4-2.7c-0.3-0.5-0.2-1.2,0.3-1.6c0.5-0.3,1.2-0.2,1.6,0.3c0.7,1,1.2,2.1,1.7,3.2c0.2,0.6-0.1,1.2-0.6,1.4
						C676.3,217,676.2,217.1,676,217.1z M544.7,213.2c-0.2,0-0.5-0.1-0.7-0.2c-0.5-0.4-0.6-1.1-0.2-1.6c0.3-0.4,0.6-0.7,1-1.1
						l1.4-1.4c0.4-0.4,1.1-0.4,1.6,0c0.4,0.4,0.4,1.1,0,1.6l-1.4,1.4c-0.3,0.3-0.6,0.6-0.8,0.9C545.3,213,545,213.2,544.7,213.2z
						 M670.7,210c-0.3,0-0.6-0.1-0.8-0.3l-2.4-2.4c-0.4-0.4-0.4-1.1,0-1.6c0.4-0.4,1.1-0.4,1.6,0l2.4,2.4c0.4,0.4,0.4,1.1,0,1.6
						C671.3,209.9,671,210,670.7,210z M550.9,206.8c-0.3,0-0.6-0.1-0.8-0.3c-0.4-0.4-0.4-1.1,0-1.6l2.4-2.4c0.4-0.4,1.1-0.4,1.6,0
						c0.4,0.4,0.4,1.1,0,1.6l-2.4,2.4C551.5,206.7,551.2,206.8,550.9,206.8z M664.4,203.7c-0.3,0-0.6-0.1-0.8-0.3l-2.4-2.4
						c-0.4-0.4-0.4-1.1,0-1.6c0.4-0.4,1.1-0.4,1.6,0l2.4,2.4c0.4,0.4,0.4,1.1,0,1.6C665,203.6,664.7,203.7,664.4,203.7z
						 M557.2,200.4c-0.3,0-0.6-0.1-0.8-0.3c-0.4-0.4-0.4-1.1,0-1.6l2.4-2.4c0.4-0.4,1.1-0.4,1.6,0c0.4,0.4,0.4,1.1,0,1.6l-2.4,2.4
						C557.8,200.3,557.5,200.4,557.2,200.4z M658.1,197.3c-0.3,0-0.6-0.1-0.8-0.3l-2.4-2.4c-0.4-0.4-0.4-1.1,0-1.6
						c0.4-0.4,1.1-0.4,1.6,0l2.4,2.4c0.4,0.4,0.4,1.1,0,1.6C658.7,197.2,658.4,197.3,658.1,197.3z M563.5,194.1
						c-0.3,0-0.6-0.1-0.8-0.3c-0.4-0.4-0.4-1.1,0-1.6l2.4-2.4c0.4-0.4,1.1-0.4,1.6,0c0.4,0.4,0.4,1.1,0,1.6l-2.4,2.4
						C564.1,194,563.8,194.1,563.5,194.1z M651.8,191c-0.3,0-0.6-0.1-0.8-0.3l-2.4-2.4c-0.4-0.4-0.4-1.1,0-1.6
						c0.4-0.4,1.1-0.4,1.6,0l2.4,2.4c0.4,0.4,0.4,1.1,0,1.6C652.4,190.9,652.1,191,651.8,191z M569.8,187.8c-0.3,0-0.6-0.1-0.8-0.3
						c-0.4-0.4-0.4-1.1,0-1.6l2.4-2.4c0.4-0.4,1.1-0.4,1.6,0c0.4,0.4,0.4,1.1,0,1.6l-2.4,2.4C570.4,187.7,570.1,187.8,569.8,187.8z
						 M645.5,184.7c-0.3,0-0.6-0.1-0.8-0.3l-2.4-2.4c-0.4-0.4-0.4-1.1,0-1.6c0.4-0.4,1.1-0.4,1.6,0l2.4,2.4c0.4,0.4,0.4,1.1,0,1.6
						C646.1,184.6,645.8,184.7,645.5,184.7z M576.1,181.4c-0.3,0-0.6-0.1-0.8-0.3c-0.4-0.4-0.4-1.1,0-1.6l1-1c0.5-0.5,1-1,1.6-1.4
						c0.5-0.4,1.2-0.3,1.6,0.2c0.4,0.5,0.3,1.2-0.2,1.6c-0.5,0.4-0.9,0.8-1.3,1.2l-1,1C576.7,181.3,576.4,181.4,576.1,181.4z
						 M639,178.6c-0.2,0-0.4-0.1-0.6-0.2c-0.9-0.6-1.8-1-2.8-1.3c-0.6-0.2-0.9-0.8-0.7-1.4c0.2-0.6,0.8-0.9,1.4-0.7
						c1.1,0.4,2.2,0.9,3.2,1.6c0.5,0.3,0.7,1,0.3,1.5C639.8,178.4,639.4,178.6,639,178.6z M583.5,176.8c-0.5,0-1-0.3-1.1-0.8
						c-0.2-0.6,0.2-1.2,0.8-1.4c1.2-0.3,2.4-0.5,3.6-0.5c0,0,0,0,0,0c0.6,0,1.1,0.5,1.1,1.1c0,0.6-0.5,1.1-1.1,1.1
						c-1,0-2.1,0.1-3,0.4C583.7,176.7,583.6,176.8,583.5,176.8z M631.5,176.3h-3.3c-0.6,0-1.1-0.5-1.1-1.1s0.5-1.1,1.1-1.1h3.3
						c0.6,0,1.1,0.5,1.1,1.1S632.1,176.3,631.5,176.3z M622.6,176.3h-3.3c-0.6,0-1.1-0.5-1.1-1.1s0.5-1.1,1.1-1.1h3.3
						c0.6,0,1.1,0.5,1.1,1.1S623.2,176.3,622.6,176.3z M613.6,176.3h-3.3c-0.6,0-1.1-0.5-1.1-1.1s0.5-1.1,1.1-1.1h3.3
						c0.6,0,1.1,0.5,1.1,1.1S614.2,176.3,613.6,176.3z M604.7,176.3h-3.3c-0.6,0-1.1-0.5-1.1-1.1s0.5-1.1,1.1-1.1h3.3
						c0.6,0,1.1,0.5,1.1,1.1S605.3,176.3,604.7,176.3z M595.8,176.3h-3.3c-0.6,0-1.1-0.5-1.1-1.1s0.5-1.1,1.1-1.1h3.3
						c0.6,0,1.1,0.5,1.1,1.1S596.4,176.3,595.8,176.3z"/>
				</g>
			</g>
		</g>
		<g>
			<g>
				<g>
					<g>
						<g>
							<g>
								<g>
									<g>
										<g>
											<path style="fill:#FFFFFF;" d="M594.2,289.6c-2.7,0-5.3-1.1-7.2-3l-21.3-21.3c-1.9-1.9-3-4.5-3-7.2V228
												c0-2.7,1.1-5.3,3-7.2l21.3-21.3c1.9-1.9,4.5-3,7.2-3h30.1c2.7,0,5.3,1.1,7.2,3l21.3,21.3c1.9,1.9,3,4.5,3,7.2v30.1
												c0,2.7-1.1,5.3-3,7.2l-21.3,21.3c-1.9,1.9-4.5,3-7.2,3H594.2z"/>
										</g>
									</g>
									<g>
										<g>
											<path style="fill:#3E487A;" d="M624.3,197.2c2.5,0,4.9,1,6.7,2.8l21.3,21.3c1.8,1.8,2.8,4.2,2.8,6.7v30.1
												c0,2.5-1,4.9-2.8,6.7L631,286.1c-1.8,1.8-4.2,2.8-6.7,2.8h-30.1c-2.5,0-4.9-1-6.7-2.8l-21.3-21.3
												c-1.8-1.8-2.8-4.2-2.8-6.7V228c0-2.5,1-4.9,2.8-6.7l21.3-21.3c1.8-1.8,4.2-2.8,6.7-2.8H624.3 M624.3,195.7h-30.1
												c-2.9,0-5.7,1.1-7.7,3.2l-21.3,21.3c-2.1,2.1-3.2,4.8-3.2,7.7v30.1c0,2.9,1.1,5.7,3.2,7.7l21.3,21.3
												c2.1,2.1,4.8,3.2,7.7,3.2h30.1c2.9,0,5.7-1.1,7.7-3.2l21.3-21.3c2.1-2.1,3.2-4.8,3.2-7.7V228c0-2.9-1.1-5.7-3.2-7.7
												L632,198.9C630,196.9,627.2,195.7,624.3,195.7L624.3,195.7z"/>
										</g>
									</g>
								</g>
							</g>
						</g>
					</g>
				</g>
			</g>
			<g>
				<g>
					<g>
						<path style="fill:#3E487A;" d="M609.4,269.1c-0.4,0-0.8-0.3-0.8-0.8v-44.9c0-0.4,0.3-0.8,0.8-0.8s0.8,0.3,0.8,0.8v44.9
							C610.1,268.8,609.8,269.1,609.4,269.1z"/>
					</g>
				</g>
				<g>
					<g>
						<g>
							<path style="fill:#FFFFFF;" d="M629.1,246.5h-38.7c-0.3,0-0.5-0.2-0.5-0.5v-11.2c0-0.3,0.2-0.5,0.5-0.5h38.7
								c0.3,0,0.5,0.2,0.5,0.5v11.2C629.6,246.2,629.4,246.5,629.1,246.5z"/>
						</g>
						<g>
							<path style="fill:#3E487A;" d="M629.1,247.2h-38.7c-0.7,0-1.3-0.6-1.3-1.3v-11.2c0-0.7,0.6-1.3,1.3-1.3h38.7
								c0.7,0,1.3,0.6,1.3,1.3v11.2C630.3,246.6,629.8,247.2,629.1,247.2z M590.6,245.7h38.2v-10.8h-38.2V245.7z"/>
						</g>
					</g>
					<g>
						<g>
							<ellipse style="fill:#E7EAF9;" cx="596.2" cy="240.3" rx="1.4" ry="1.4"/>
						</g>
						<g>
							<path style="fill:#3E487A;" d="M596.2,242.5c-1.2,0-2.2-1-2.2-2.2s1-2.2,2.2-2.2s2.2,1,2.2,2.2S597.4,242.5,596.2,242.5z
								 M596.2,239.6c-0.4,0-0.7,0.3-0.7,0.7s0.3,0.7,0.7,0.7s0.7-0.3,0.7-0.7S596.6,239.6,596.2,239.6z"/>
						</g>
					</g>
					<g>
						<g>
							<path style="fill:#3E487A;" d="M625.3,240.7h-21.9c-0.4,0-0.8-0.3-0.8-0.8s0.3-0.8,0.8-0.8h21.9c0.4,0,0.8,0.3,0.8,0.8
								S625.8,240.7,625.3,240.7z"/>
						</g>
					</g>
				</g>
				<g>
					<g>
						<g>
							<path style="fill:#FFFFFF;" d="M629.1,229.6h-38.7c-0.3,0-0.5-0.2-0.5-0.5v-11.2c0-0.3,0.2-0.5,0.5-0.5h38.7
								c0.3,0,0.5,0.2,0.5,0.5v11.2C629.6,229.4,629.4,229.6,629.1,229.6z"/>
						</g>
						<g>
							<path style="fill:#3E487A;" d="M629.1,230.4h-38.7c-0.7,0-1.3-0.6-1.3-1.3v-11.2c0-0.7,0.6-1.3,1.3-1.3h38.7
								c0.7,0,1.3,0.6,1.3,1.3v11.2C630.3,229.8,629.8,230.4,629.1,230.4z M590.6,228.9h38.2v-10.8h-38.2V228.9z"/>
						</g>
					</g>
					<g>
						<g>
							<path style="fill:#E7EAF9;" d="M597.6,223.5c0,0.8-0.6,1.4-1.4,1.4s-1.4-0.6-1.4-1.4c0-0.8,0.6-1.4,1.4-1.4
								S597.6,222.7,597.6,223.5z"/>
						</g>
						<g>
							<path style="fill:#3E487A;" d="M596.2,225.7c-1.2,0-2.2-1-2.2-2.2s1-2.2,2.2-2.2s2.2,1,2.2,2.2S597.4,225.7,596.2,225.7z
								 M596.2,222.8c-0.4,0-0.7,0.3-0.7,0.7s0.3,0.7,0.7,0.7s0.7-0.3,0.7-0.7S596.6,222.8,596.2,222.8z"/>
						</g>
					</g>
					<g>
						<g>
							<path style="fill:#3E487A;" d="M625.3,223.9h-21.9c-0.4,0-0.8-0.3-0.8-0.8s0.3-0.8,0.8-0.8h21.9c0.4,0,0.8,0.3,0.8,0.8
								S625.8,223.9,625.3,223.9z"/>
						</g>
					</g>
				</g>
				<g>
					<g>
						<g>
							<path style="fill:#FFFFFF;" d="M629.1,263.3h-38.7c-0.3,0-0.5-0.2-0.5-0.5v-11.2c0-0.3,0.2-0.5,0.5-0.5h38.7
								c0.3,0,0.5,0.2,0.5,0.5v11.2C629.6,263,629.4,263.3,629.1,263.3z"/>
						</g>
						<g>
							<path style="fill:#3E487A;" d="M629.1,264h-38.7c-0.7,0-1.3-0.6-1.3-1.3v-11.2c0-0.7,0.6-1.3,1.3-1.3h38.7
								c0.7,0,1.3,0.6,1.3,1.3v11.2C630.3,263.4,629.8,264,629.1,264z M590.6,262.5h38.2v-10.8h-38.2V262.5z"/>
						</g>
					</g>
					<g>
						<g>
							<path style="fill:#E7EAF9;" d="M597.6,257.1c0,0.8-0.6,1.4-1.4,1.4s-1.4-0.6-1.4-1.4c0-0.8,0.6-1.4,1.4-1.4
								S597.6,256.3,597.6,257.1z"/>
						</g>
						<g>
							<path style="fill:#3E487A;" d="M596.2,259.3c-1.2,0-2.2-1-2.2-2.2s1-2.2,2.2-2.2s2.2,1,2.2,2.2S597.4,259.3,596.2,259.3z
								 M596.2,256.5c-0.4,0-0.7,0.3-0.7,0.7s0.3,0.7,0.7,0.7s0.7-0.3,0.7-0.7S596.6,256.5,596.2,256.5z"/>
						</g>
					</g>
					<g>
						<g>
							<path style="fill:#3E487A;" d="M625.3,257.5h-21.9c-0.4,0-0.8-0.3-0.8-0.8s0.3-0.8,0.8-0.8h21.9c0.4,0,0.8,0.3,0.8,0.8
								S625.8,257.5,625.3,257.5z"/>
						</g>
					</g>
				</g>
				<g>
					<g>
						<path style="fill:#3E487A;" d="M629.3,270.8h-39.1c-0.4,0-0.8-0.3-0.8-0.8s0.3-0.8,0.8-0.8h39.1c0.4,0,0.8,0.3,0.8,0.8
							S629.7,270.8,629.3,270.8z"/>
					</g>
				</g>
				<g>
					<g>
						<ellipse style="fill:#FFFFFF;" cx="609.5" cy="269.9" rx="2.4" ry="2.4"/>
					</g>
					<g>
						<path style="fill:#3E487A;" d="M609.5,273.1c-1.8,0-3.2-1.4-3.2-3.2s1.4-3.2,3.2-3.2s3.2,1.4,3.2,3.2S611.2,273.1,609.5,273.1
							z M609.5,268.2c-0.9,0-1.7,0.8-1.7,1.7s0.8,1.7,1.7,1.7s1.7-0.8,1.7-1.7S610.4,268.2,609.5,268.2z"/>
					</g>
				</g>
			</g>
		</g>
		<g>
			<g>
				<g>
					<g>
						<g>
							<g>
								<g>
									<g>
										<g>
											<path style="fill:#FFFFFF;" d="M427.3,288.9c-2.7,0-5.2-1-7.1-2.9l-21-21c-1.9-1.9-2.9-4.4-2.9-7.1v-29.6
												c0-2.7,1-5.2,2.9-7.1l21-21c1.9-1.9,4.4-2.9,7.1-2.9H457c2.6,0,5.2,1.1,7.1,2.9l21,21c1.9,1.9,2.9,4.4,2.9,7.1v29.6
												c0,2.7-1,5.2-2.9,7.1l-21,21c-1.9,1.9-4.4,2.9-7.1,2.9H427.3z"/>
										</g>
									</g>
									<g>
										<g>
											<path style="fill:#3E487A;" d="M457,198c2.5,0,4.8,1,6.6,2.7l21,21c1.7,1.7,2.7,4.1,2.7,6.6v29.6c0,2.5-1,4.8-2.7,6.6
												l-21,21c-1.8,1.7-4.1,2.7-6.6,2.7h-29.7c-2.5,0-4.8-1-6.6-2.7l-21-21c-1.7-1.7-2.7-4.1-2.7-6.6v-29.6
												c0-2.5,1-4.8,2.7-6.6l21-21c1.8-1.7,4.1-2.7,6.6-2.7H457 M457,196.5h-29.7c-2.9,0-5.6,1.1-7.6,3.1l-21,21
												c-2,2-3.2,4.8-3.2,7.6v29.6c0,2.9,1.1,5.6,3.2,7.6l21,21c2,2,4.8,3.2,7.6,3.2H457c2.9,0,5.6-1.1,7.6-3.1l21-21
												c2-2,3.2-4.7,3.2-7.6v-29.6c0-2.9-1.1-5.6-3.2-7.6l-21-21C462.7,197.6,459.9,196.5,457,196.5L457,196.5z"/>
										</g>
									</g>
								</g>
							</g>
						</g>
					</g>
				</g>
			</g>
			<g>
				<g>
					<g>
						<g>
							<g>
								<path style="fill:#E7EAF9;" d="M438.9,254.1c-11.2,0-20.3-9.1-20.3-20.4s9.1-20.4,20.3-20.4s20.3,9.1,20.3,20.4
									S450.1,254.1,438.9,254.1z"/>
							</g>
						</g>
						<g>
							<g>
								<path style="fill:#3E487A;" d="M438.9,214.1c10.8,0,19.5,8.8,19.5,19.6s-8.7,19.6-19.5,19.6c-10.8,0-19.5-8.8-19.5-19.6
									S428.1,214.1,438.9,214.1 M438.9,212.6c-11.6,0-21,9.5-21,21.1s9.4,21.1,21,21.1c11.6,0,21-9.5,21-21.1
									S450.5,212.6,438.9,212.6L438.9,212.6z"/>
							</g>
						</g>
					</g>
					<g>
						<g>
							<g>
								<g>
									<path style="fill:#E7EAF9;" d="M438.9,254.1c-2.9,0-5.8-0.6-8.5-1.8l-0.3-0.1c0,0-0.8-0.4-1.2-0.6l-0.3-0.2
										c-1.5-0.8-2.9-1.9-4.2-3.1c-0.2-0.2-0.3-0.5-0.2-0.8c0.1-0.4,0.3-0.8,0.4-1.2c1.2-3,3-5.2,5.1-6.3c1.3-0.6,2.3-0.7,2.9-0.7
										l0.1,0l12.1,0c0,0,0.1,0,0.1,0c0.5,0,1.6,0.1,2.9,0.7c1,0.5,2.4,1.4,3.6,3.4c0.8,1.2,1.4,2.6,1.9,4.1
										c0.1,0.3,0,0.6-0.2,0.8c-1.3,1.3-2.7,2.3-4.2,3.2l-0.2,0.1c-0.1,0.1-0.4,0.2-1.3,0.6l-0.2,0.1
										C444.8,253.4,441.9,254.1,438.9,254.1z"/>
								</g>
							</g>
							<g>
								<g>
									<path style="fill:#3E487A;" d="M432.9,240l12.1,0c0,0,0.1,0,0.1,0c0.6,0,1.5,0.1,2.6,0.7c1.1,0.6,2.3,1.6,3.3,3.1
										c0.7,1.1,1.3,2.4,1.8,4c-1.2,1.2-2.6,2.2-4.1,3.1c-0.1,0-0.1,0.1-0.2,0.1c-0.1,0.1-1.2,0.6-1.2,0.6c-0.1,0-0.2,0.1-0.2,0.1
										c-2.5,1.1-5.3,1.8-8.2,1.8c-2.9,0-5.7-0.6-8.2-1.8c-0.1,0-0.2-0.1-0.3-0.1c0,0-0.8-0.3-1.2-0.6c-0.1-0.1-0.2-0.1-0.3-0.2
										c-1.5-0.8-2.8-1.8-4-3c0.1-0.4,0.3-0.8,0.4-1.2c1.3-3.2,3.1-5.1,4.8-5.9c1.1-0.5,2-0.7,2.6-0.7
										C432.8,240,432.9,240,432.9,240 M432.9,238.5L432.9,238.5c-0.1,0-0.1,0-0.2,0c-0.7,0-1.9,0.2-3.2,0.8
										c-1.6,0.8-3.9,2.6-5.5,6.7c-0.1,0.4-0.3,0.8-0.5,1.3c-0.2,0.5,0,1.2,0.4,1.6c1.3,1.3,2.8,2.4,4.3,3.2
										c0.1,0.1,0.2,0.1,0.3,0.2c0.4,0.2,1.2,0.6,1.2,0.6l0.3,0.1c2.8,1.3,5.8,1.9,8.8,1.9c3.1,0,6-0.6,8.8-1.9l0.2-0.1
										c0.8-0.4,1.2-0.5,1.3-0.7l0.1-0.1c1.6-0.9,3.1-2,4.4-3.3c0.4-0.4,0.6-1,0.4-1.6c-0.5-1.6-1.2-3.1-2-4.3
										c-1.1-1.6-2.4-2.9-3.9-3.6c-1.3-0.7-2.5-0.8-3.2-0.8c0,0-0.1,0-0.1,0L432.9,238.5L432.9,238.5z"/>
								</g>
							</g>
						</g>
						<g>
							<g>
								<g>
									<path style="fill:#E7EAF9;" d="M438.9,238.9c-4.3,0-7.8-3.5-7.8-7.8s3.5-7.8,7.8-7.8s7.8,3.5,7.8,7.8
										S443.2,238.9,438.9,238.9z"/>
								</g>
							</g>
							<g>
								<g>
									<path style="fill:#3E487A;" d="M438.9,224.1c3.9,0,7,3.2,7,7c0,3.9-3.2,7-7,7c-3.9,0-7-3.2-7-7
										C431.9,227.3,435.1,224.1,438.9,224.1 M438.9,222.6c-4.7,0-8.5,3.8-8.5,8.5c0,4.7,3.8,8.5,8.5,8.5c4.7,0,8.5-3.8,8.5-8.5
										C447.5,226.4,443.6,222.6,438.9,222.6L438.9,222.6z"/>
								</g>
							</g>
						</g>
					</g>
				</g>
				<g>
					<g>
						<g>
							<path style="fill:#FFFFFF;" d="M456.7,273.6c-0.8,0-1.6-0.3-2.2-0.8c-3.2-2.4-7.2-3.3-7.2-3.3c-1.3-0.3-2.3-0.7-3.2-1.3
								c-0.3-0.3-0.8-0.5-1.2-0.8c-0.3-0.2-0.7-0.4-0.9-0.6c-1.8-1.2-3.5-2-5.2-2.6c-0.6-0.2-1-0.5-1.2-0.9c-0.2-0.5-0.2-1,0-1.7
								c0.2-0.6,0.8-1.3,1.4-1.6c0.6-0.3,1.3-0.5,2-0.5c0.4,0,0.8,0,1.3,0.1c0.4,0,1.2,0.4,2.7,1.1c0.6,0.3,1.2,0.6,1.6,0.7
								c0,0,0,0,0,0c0-0.1,0.1-0.4,0-0.8c0-0.4-0.2-0.8-0.4-1.2c-1.6-3-3.3-5.9-4.9-8.8c-0.6-1.1-1.3-2.3-1.9-3.4
								c-0.7-1.2-0.4-2.6,0.7-3.4c0.4-0.3,0.9-0.4,1.4-0.4c0.8,0,1.5,0.4,2.1,1c0.4,0.6,0.9,1.1,1.3,1.7c0.4,0.5,0.9,1.1,1.3,1.6
								l0.4,0.5c0.7,0.8,1.4,1.7,2,2.6l0.6,0.8c1.1-0.4,3.8-1.1,7.3-1.1c1.8,0,3.5,0.2,5.1,0.6c0.7,0.2,1.1,0.6,1.4,1.1
								c1.2,2.2,2.8,5.6,3.2,9c0.2,0.7,0.4,1.3,0.6,1.7l0.2,0.4l0.7,1.3c0.5,0.9,0.3,2.1-0.5,2.8l-6.4,5.1
								C458.3,273.3,457.5,273.6,456.7,273.6L456.7,273.6z"/>
						</g>
					</g>
					<g>
						<g>
							<path style="fill:#3E487A;" d="M439.6,244.4c0.5,0,1.1,0.2,1.5,0.7c0.9,1.1,1.7,2.2,2.6,3.3c0.8,1,1.6,2,2.4,3.1l1,1.2
								c0,0,3.2-1.2,7.6-1.2c1.5,0,3.2,0.2,4.9,0.6c0.4,0.1,0.7,0.3,0.8,0.7c0.7,1.4,2.7,5.1,3.2,8.8c0.3,0.9,0.6,1.7,0.8,2.3
								l0.8,1.4c0.4,0.6,0.2,1.4-0.3,1.8l-6.4,5.1c-0.5,0.4-1.2,0.7-1.9,0.7c-0.6,0-1.2-0.2-1.8-0.6c-3.4-2.5-7.5-3.4-7.5-3.4
								c-1.1-0.2-2-0.5-2.9-1.2c-0.6-0.5-1.6-0.9-2.2-1.4c-1.7-1.1-3.5-2-5.4-2.7c-0.8-0.3-1.1-0.8-0.7-1.6c0.2-0.4,0.6-0.9,1.1-1.2
								c0.6-0.3,1.1-0.4,1.7-0.4c0.4,0,0.8,0,1.2,0.1c0.6,0.1,3.1,1.3,4.2,1.7c0.2,0.1,0.3,0.1,0.4,0.1c0.6,0,0.7-0.8,0.6-1.7
								c-0.1-0.5-0.2-1-0.5-1.5c-2.2-4.1-4.5-8.1-6.8-12.2c-0.5-0.9-0.3-1.8,0.5-2.4C438.9,244.5,439.2,244.4,439.6,244.4
								 M439.6,242.9L439.6,242.9c-0.7,0-1.3,0.2-1.8,0.6c-1.5,1-1.9,2.8-0.9,4.4c0.6,1.1,1.3,2.2,1.9,3.4c1.6,2.9,3.3,5.8,4.9,8.8
								c0.1,0.2,0.2,0.3,0.2,0.5c-0.2-0.1-0.4-0.2-0.5-0.2c-1.6-0.7-2.4-1.1-2.9-1.1c-0.5-0.1-1-0.1-1.4-0.1c-0.9,0-1.7,0.2-2.4,0.5
								c-0.8,0.4-1.5,1.2-1.8,2c-0.3,0.8-0.3,1.6,0,2.2c0.3,0.6,0.9,1.1,1.7,1.3c1.6,0.5,3.2,1.4,5,2.5c0.3,0.2,0.6,0.4,1,0.6
								c0.4,0.2,0.9,0.5,1.2,0.7c1.3,0.9,2.6,1.3,3.6,1.5c0,0,3.9,0.9,6.9,3.1c0.7,0.6,1.7,0.9,2.7,0.9c1,0,2-0.4,2.8-1l6.4-5.2
								c1.1-0.9,1.4-2.5,0.7-3.8l-0.7-1.3c0-0.1-0.1-0.2-0.1-0.3c-0.2-0.4-0.4-1-0.6-1.6c-0.5-3.4-2-6.9-3.3-9.2
								c-0.3-0.7-1-1.2-1.8-1.5c0,0,0,0-0.1,0c-1.7-0.4-3.5-0.6-5.3-0.6c-3.1,0-5.7,0.6-7.1,1l-0.3-0.4c-0.6-0.9-1.3-1.7-2-2.5
								l-0.4-0.6c-0.5-0.6-0.9-1.1-1.3-1.7c-0.4-0.6-0.9-1.1-1.3-1.7C441.6,243.3,440.6,242.9,439.6,242.9L439.6,242.9L439.6,242.9z
								"/>
						</g>
					</g>
				</g>
			</g>
		</g>
		<g>
			<g>
				<g>
					<path style="fill:#2A91E9;" d="M535,211.7h-19.7c-1.6,0-3.2,0.7-4.4,1.8l-14,14c-1.2,1.2-1.8,2.7-1.8,4.4v19.7
						c0,1.6,0.7,3.2,1.8,4.4l14,14c1.2,1.2,2.7,1.8,4.4,1.8H535c1.6,0,3.2-0.7,4.4-1.8l14-14c1.2-1.2,1.8-2.7,1.8-4.4v-19.7
						c0-1.6-0.7-3.2-1.8-4.4l-14-14C538.2,212.4,536.7,211.7,535,211.7z"/>
				</g>
			</g>
		</g>
		<g>
			<g>
				<g>
					<path style="fill:#2A91E9;" d="M525.2,246.9c-0.7,0-1.4-0.1-2.1-0.2c-0.4-0.1-0.6-0.4-0.6-0.7l0-2.2c-0.6-0.2-1.2-0.4-1.8-0.7
						l-1.6,1.5c-0.1,0.1-0.3,0.2-0.5,0.2c-0.1,0-0.3,0-0.4-0.1c-1.2-0.8-2.2-1.8-3-2.9c-0.2-0.3-0.2-0.7,0.1-1l1.6-1.5
						c-0.3-0.6-0.6-1.1-0.7-1.7l-2.3,0c-0.4,0-0.7-0.3-0.7-0.6c-0.2-1.4-0.2-2.8,0-4.1c0.1-0.4,0.4-0.6,0.7-0.6l2.3,0
						c0.2-0.6,0.4-1.2,0.7-1.7l-1.6-1.5c-0.3-0.3-0.3-0.7-0.1-1c0.8-1.1,1.8-2.1,3-2.9c0.1-0.1,0.3-0.1,0.4-0.1
						c0.2,0,0.4,0.1,0.5,0.2l1.6,1.5c0.6-0.3,1.2-0.6,1.8-0.7l0-2.2c0-0.4,0.3-0.7,0.6-0.7c0.7-0.1,1.4-0.2,2.1-0.2s1.4,0.1,2.1,0.2
						c0.4,0.1,0.6,0.4,0.6,0.7l0,2.2c0.6,0.2,1.2,0.4,1.8,0.7l1.6-1.5c0.1-0.1,0.3-0.2,0.5-0.2c0.1,0,0.3,0,0.4,0.1
						c1.2,0.8,2.2,1.8,3,2.9c0.2,0.3,0.2,0.7-0.1,1l-1.6,1.5c0.3,0.6,0.6,1.1,0.7,1.7l2.3,0c0.4,0,0.7,0.3,0.7,0.6
						c0.2,1.4,0.2,2.8,0,4.1c-0.1,0.4-0.4,0.6-0.7,0.6l-2.3,0c-0.2,0.6-0.4,1.2-0.7,1.7l1.6,1.5c0.3,0.3,0.3,0.7,0.1,1
						c-0.8,1.1-1.8,2.1-3,2.9c-0.1,0.1-0.3,0.1-0.4,0.1c-0.2,0-0.4-0.1-0.5-0.2l-1.6-1.5c-0.6,0.3-1.2,0.6-1.8,0.7l0,2.2
						c0,0.4-0.3,0.7-0.6,0.7C526.6,246.9,525.9,246.9,525.2,246.9z M525.2,232.1c-1.6,0-2.8,1.2-2.8,2.7c0,1.5,1.3,2.7,2.8,2.7
						s2.8-1.2,2.8-2.7C528,233.4,526.7,232.1,525.2,232.1z"/>
				</g>
			</g>
			<g>
				<g>
					<path style="fill:#FFFFFF;" d="M525.2,223.6c0.7,0,1.3,0.1,2,0.2l0,2.7c1,0.2,1.9,0.6,2.7,1.1l2-1.9c1.1,0.7,2.1,1.7,2.8,2.7
						l-2,1.9c0.5,0.8,0.9,1.7,1.1,2.6l2.8,0c0.2,1.3,0.2,2.6,0,3.9l-2.8,0c-0.2,0.9-0.6,1.8-1.1,2.6l2,1.9c-0.8,1.1-1.7,2-2.8,2.7
						l-2-1.9c-0.8,0.5-1.7,0.9-2.7,1.1l0,2.7c-0.7,0.1-1.3,0.2-2,0.2s-1.3-0.1-2-0.2l0-2.7c-1-0.2-1.9-0.6-2.7-1.1l-2,1.9
						c-1.1-0.7-2.1-1.7-2.8-2.7l2-1.9c-0.5-0.8-0.9-1.7-1.1-2.6l-2.8,0c-0.2-1.3-0.2-2.6,0-3.9l2.8,0c0.2-0.9,0.6-1.8,1.1-2.6
						l-2-1.9c0.8-1.1,1.7-2,2.8-2.7l2,1.9c0.8-0.5,1.7-0.9,2.7-1.1l0-2.7C523.8,223.6,524.5,223.6,525.2,223.6 M525.2,238.3
						c2,0,3.6-1.6,3.6-3.5c0-1.9-1.6-3.5-3.6-3.5s-3.6,1.6-3.6,3.5C521.6,236.8,523.2,238.3,525.2,238.3 M525.2,222.1
						c-0.8,0-1.5,0.1-2.2,0.2c-0.7,0.1-1.2,0.7-1.2,1.5l0,1.6c-0.3,0.1-0.6,0.2-0.9,0.4l-1.2-1.2c-0.3-0.3-0.7-0.4-1-0.4
						c-0.3,0-0.6,0.1-0.8,0.3c-1.2,0.8-2.3,1.9-3.2,3.1c-0.4,0.6-0.4,1.4,0.2,2l1.2,1.1c-0.1,0.3-0.3,0.6-0.4,0.8l-1.7,0
						c-0.7,0-1.3,0.5-1.5,1.2c-0.3,1.5-0.3,2.9,0,4.4c0.1,0.7,0.7,1.2,1.5,1.2l1.7,0c0.1,0.3,0.2,0.6,0.4,0.8l-1.2,1.1
						c-0.5,0.5-0.6,1.4-0.2,2c0.9,1.2,1.9,2.3,3.2,3.1c0.3,0.2,0.6,0.3,0.8,0.3c0.4,0,0.8-0.1,1-0.4l1.2-1.2
						c0.3,0.1,0.6,0.3,0.9,0.4l0,1.6c0,0.7,0.5,1.4,1.2,1.5c0.7,0.1,1.5,0.2,2.2,0.2s1.5-0.1,2.2-0.2c0.7-0.1,1.2-0.7,1.2-1.5l0-1.6
						c0.3-0.1,0.6-0.2,0.9-0.4l1.2,1.2c0.3,0.3,0.7,0.4,1,0.4c0.3,0,0.6-0.1,0.8-0.3c1.2-0.8,2.3-1.9,3.2-3.1c0.4-0.6,0.4-1.4-0.2-2
						l-1.2-1.1c0.1-0.3,0.3-0.6,0.4-0.8l1.7,0c0.7,0,1.3-0.5,1.5-1.2c0.3-1.5,0.3-2.9,0-4.4c-0.1-0.7-0.7-1.2-1.5-1.2l-1.7,0
						c-0.1-0.3-0.2-0.6-0.4-0.8l1.2-1.1c0.5-0.5,0.6-1.4,0.2-2c-0.9-1.2-1.9-2.3-3.2-3.1c-0.3-0.2-0.6-0.3-0.8-0.3
						c-0.4,0-0.8,0.1-1,0.4l-1.2,1.2c-0.3-0.1-0.6-0.3-0.9-0.4l0-1.6c0-0.7-0.5-1.4-1.2-1.5C526.7,222.1,525.9,222.1,525.2,222.1
						L525.2,222.1z M525.2,236.8c-1.1,0-2.1-0.9-2.1-2c0-1.1,0.9-2,2.1-2c1.1,0,2.1,0.9,2.1,2C527.2,236,526.3,236.8,525.2,236.8
						L525.2,236.8z"/>
				</g>
			</g>
		</g>
		<g>
			<g>
				<path style="fill:#FFFFFF;" d="M518.3,259.6l-0.8,2.6h-1.7l2.9-9.1h2.1l3,9.1H522l-0.8-2.6H518.3z M520.9,258.4l-0.7-2.2
					c-0.2-0.6-0.3-1.2-0.5-1.7h0c-0.1,0.5-0.3,1.2-0.4,1.7l-0.7,2.2H520.9z"/>
			</g>
			<g>
				<path style="fill:#FFFFFF;" d="M525,253.3c0.6-0.1,1.4-0.2,2.5-0.2c1.2,0,2.1,0.3,2.7,0.7c0.5,0.4,0.9,1.2,0.9,2
					c0,0.9-0.3,1.6-0.8,2c-0.7,0.7-1.7,1-2.9,1c-0.3,0-0.6,0-0.8-0.1v3.4H525V253.3z M526.7,257.5c0.2,0.1,0.5,0.1,0.8,0.1
					c1.2,0,2-0.6,2-1.7c0-1-0.7-1.5-1.8-1.5c-0.5,0-0.8,0-1,0.1V257.5z"/>
			</g>
			<g>
				<path style="fill:#FFFFFF;" d="M534.2,253.1v9.1h-1.7v-9.1H534.2z"/>
			</g>
		</g>
	</g>
</g>
</svg>
