<?xml version="1.0" encoding="utf-8"?>
<!-- Generator: Adobe Illustrator 24.1.1, SVG Export Plug-In . SVG Version: 6.00 Build 0)  -->
<svg version="1.1" id="Layer_1" xmlns="http://www.w3.org/2000/svg" xmlns:xlink="http://www.w3.org/1999/xlink" x="0px" y="0px"
	 viewBox="0 0 720 589.8" style="enable-background:new 0 0 720 589.8;" xml:space="preserve">
<g>
	<g>
		<g>
			<g>
				<path style="fill:#FFFFFF;" d="M660.4,543.9H60.1c-6.7,0-12.2-5.5-12.2-12.2V62.4c0-6.7,5.5-12.2,12.2-12.2h600.3
					c6.7,0,12.2,5.5,12.2,12.2v469.3C672.6,538.5,667.1,543.9,660.4,543.9z"/>
			</g>
		</g>
		<g>
			<g>
				<path style="fill:#5059C9;" d="M660.4,544.7h-3c-0.4,0-0.8-0.3-0.8-0.8s0.3-0.8,0.8-0.8h3c0.4,0,0.8,0.3,0.8,0.8
					S660.8,544.7,660.4,544.7z M652.4,544.7h-3c-0.4,0-0.8-0.3-0.8-0.8s0.3-0.8,0.8-0.8h3c0.4,0,0.8,0.3,0.8,0.8
					S652.8,544.7,652.4,544.7z M644.4,544.7h-3c-0.4,0-0.8-0.3-0.8-0.8s0.3-0.8,0.8-0.8h3c0.4,0,0.8,0.3,0.8,0.8
					S644.8,544.7,644.4,544.7z M636.4,544.7h-3c-0.4,0-0.8-0.3-0.8-0.8s0.3-0.8,0.8-0.8h3c0.4,0,0.8,0.3,0.8,0.8
					S636.8,544.7,636.4,544.7z M628.4,544.7h-3c-0.4,0-0.8-0.3-0.8-0.8s0.3-0.8,0.8-0.8h3c0.4,0,0.8,0.3,0.8,0.8
					S628.8,544.7,628.4,544.7z M620.4,544.7h-3c-0.4,0-0.8-0.3-0.8-0.8s0.3-0.8,0.8-0.8h3c0.4,0,0.8,0.3,0.8,0.8
					S620.8,544.7,620.4,544.7z M612.4,544.7h-3c-0.4,0-0.8-0.3-0.8-0.8s0.3-0.8,0.8-0.8h3c0.4,0,0.8,0.3,0.8,0.8
					S612.8,544.7,612.4,544.7z M604.4,544.7h-3c-0.4,0-0.8-0.3-0.8-0.8s0.3-0.8,0.8-0.8h3c0.4,0,0.8,0.3,0.8,0.8
					S604.8,544.7,604.4,544.7z M596.4,544.7h-3c-0.4,0-0.8-0.3-0.8-0.8s0.3-0.8,0.8-0.8h3c0.4,0,0.8,0.3,0.8,0.8
					S596.8,544.7,596.4,544.7z M588.4,544.7h-3c-0.4,0-0.8-0.3-0.8-0.8s0.3-0.8,0.8-0.8h3c0.4,0,0.8,0.3,0.8,0.8
					S588.8,544.7,588.4,544.7z M580.4,544.7h-3c-0.4,0-0.8-0.3-0.8-0.8s0.3-0.8,0.8-0.8h3c0.4,0,0.8,0.3,0.8,0.8
					S580.8,544.7,580.4,544.7z M572.4,544.7h-3c-0.4,0-0.8-0.3-0.8-0.8s0.3-0.8,0.8-0.8h3c0.4,0,0.8,0.3,0.8,0.8
					S572.8,544.7,572.4,544.7z M564.4,544.7h-3c-0.4,0-0.8-0.3-0.8-0.8s0.3-0.8,0.8-0.8h3c0.4,0,0.8,0.3,0.8,0.8
					S564.8,544.7,564.4,544.7z M556.4,544.7h-3c-0.4,0-0.8-0.3-0.8-0.8s0.3-0.8,0.8-0.8h3c0.4,0,0.8,0.3,0.8,0.8
					S556.8,544.7,556.4,544.7z M548.4,544.7h-3c-0.4,0-0.8-0.3-0.8-0.8s0.3-0.8,0.8-0.8h3c0.4,0,0.8,0.3,0.8,0.8
					S548.8,544.7,548.4,544.7z M540.4,544.7h-3c-0.4,0-0.8-0.3-0.8-0.8s0.3-0.8,0.8-0.8h3c0.4,0,0.8,0.3,0.8,0.8
					S540.8,544.7,540.4,544.7z M532.4,544.7h-3c-0.4,0-0.8-0.3-0.8-0.8s0.3-0.8,0.8-0.8h3c0.4,0,0.8,0.3,0.8,0.8
					S532.8,544.7,532.4,544.7z M524.4,544.7h-3c-0.4,0-0.8-0.3-0.8-0.8s0.3-0.8,0.8-0.8h3c0.4,0,0.8,0.3,0.8,0.8
					S524.8,544.7,524.4,544.7z M516.4,544.7h-3c-0.4,0-0.8-0.3-0.8-0.8s0.3-0.8,0.8-0.8h3c0.4,0,0.8,0.3,0.8,0.8
					S516.8,544.7,516.4,544.7z M508.4,544.7h-3c-0.4,0-0.8-0.3-0.8-0.8s0.3-0.8,0.8-0.8h3c0.4,0,0.8,0.3,0.8,0.8
					S508.8,544.7,508.4,544.7z M500.4,544.7h-3c-0.4,0-0.8-0.3-0.8-0.8s0.3-0.8,0.8-0.8h3c0.4,0,0.8,0.3,0.8,0.8
					S500.8,544.7,500.4,544.7z M492.4,544.7h-3c-0.4,0-0.8-0.3-0.8-0.8s0.3-0.8,0.8-0.8h3c0.4,0,0.8,0.3,0.8,0.8
					S492.8,544.7,492.4,544.7z M484.4,544.7h-3c-0.4,0-0.8-0.3-0.8-0.8s0.3-0.8,0.8-0.8h3c0.4,0,0.8,0.3,0.8,0.8
					S484.8,544.7,484.4,544.7z M476.4,544.7h-3c-0.4,0-0.8-0.3-0.8-0.8s0.3-0.8,0.8-0.8h3c0.4,0,0.8,0.3,0.8,0.8
					S476.8,544.7,476.4,544.7z M468.4,544.7h-3c-0.4,0-0.8-0.3-0.8-0.8s0.3-0.8,0.8-0.8h3c0.4,0,0.8,0.3,0.8,0.8
					S468.8,544.7,468.4,544.7z M460.4,544.7h-3c-0.4,0-0.8-0.3-0.8-0.8s0.3-0.8,0.8-0.8h3c0.4,0,0.8,0.3,0.8,0.8
					S460.8,544.7,460.4,544.7z M452.4,544.7h-3c-0.4,0-0.8-0.3-0.8-0.8s0.3-0.8,0.8-0.8h3c0.4,0,0.8,0.3,0.8,0.8
					S452.8,544.7,452.4,544.7z M444.4,544.7h-3c-0.4,0-0.8-0.3-0.8-0.8s0.3-0.8,0.8-0.8h3c0.4,0,0.8,0.3,0.8,0.8
					S444.8,544.7,444.4,544.7z M436.4,544.7h-3c-0.4,0-0.8-0.3-0.8-0.8s0.3-0.8,0.8-0.8h3c0.4,0,0.8,0.3,0.8,0.8
					S436.8,544.7,436.4,544.7z M428.4,544.7h-3c-0.4,0-0.8-0.3-0.8-0.8s0.3-0.8,0.8-0.8h3c0.4,0,0.8,0.3,0.8,0.8
					S428.8,544.7,428.4,544.7z M420.4,544.7h-3c-0.4,0-0.8-0.3-0.8-0.8s0.3-0.8,0.8-0.8h3c0.4,0,0.8,0.3,0.8,0.8
					S420.8,544.7,420.4,544.7z M412.4,544.7h-3c-0.4,0-0.8-0.3-0.8-0.8s0.3-0.8,0.8-0.8h3c0.4,0,0.8,0.3,0.8,0.8
					S412.8,544.7,412.4,544.7z M404.4,544.7h-3c-0.4,0-0.8-0.3-0.8-0.8s0.3-0.8,0.8-0.8h3c0.4,0,0.8,0.3,0.8,0.8
					S404.8,544.7,404.4,544.7z M396.4,544.7h-3c-0.4,0-0.8-0.3-0.8-0.8s0.3-0.8,0.8-0.8h3c0.4,0,0.8,0.3,0.8,0.8
					S396.8,544.7,396.4,544.7z M388.4,544.7h-3c-0.4,0-0.8-0.3-0.8-0.8s0.3-0.8,0.8-0.8h3c0.4,0,0.8,0.3,0.8,0.8
					S388.8,544.7,388.4,544.7z M380.4,544.7h-3c-0.4,0-0.8-0.3-0.8-0.8s0.3-0.8,0.8-0.8h3c0.4,0,0.8,0.3,0.8,0.8
					S380.8,544.7,380.4,544.7z M372.4,544.7h-3c-0.4,0-0.8-0.3-0.8-0.8s0.3-0.8,0.8-0.8h3c0.4,0,0.8,0.3,0.8,0.8
					S372.8,544.7,372.4,544.7z M364.4,544.7h-3c-0.4,0-0.8-0.3-0.8-0.8s0.3-0.8,0.8-0.8h3c0.4,0,0.8,0.3,0.8,0.8
					S364.8,544.7,364.4,544.7z M356.4,544.7h-3c-0.4,0-0.8-0.3-0.8-0.8s0.3-0.8,0.8-0.8h3c0.4,0,0.8,0.3,0.8,0.8
					S356.8,544.7,356.4,544.7z M348.4,544.7h-3c-0.4,0-0.8-0.3-0.8-0.8s0.3-0.8,0.8-0.8h3c0.4,0,0.8,0.3,0.8,0.8
					S348.8,544.7,348.4,544.7z M340.4,544.7h-3c-0.4,0-0.8-0.3-0.8-0.8s0.3-0.8,0.8-0.8h3c0.4,0,0.8,0.3,0.8,0.8
					S340.8,544.7,340.4,544.7z M332.4,544.7h-3c-0.4,0-0.8-0.3-0.8-0.8s0.3-0.8,0.8-0.8h3c0.4,0,0.8,0.3,0.8,0.8
					S332.8,544.7,332.4,544.7z M324.4,544.7h-3c-0.4,0-0.8-0.3-0.8-0.8s0.3-0.8,0.8-0.8h3c0.4,0,0.8,0.3,0.8,0.8
					S324.8,544.7,324.4,544.7z M316.4,544.7h-3c-0.4,0-0.8-0.3-0.8-0.8s0.3-0.8,0.8-0.8h3c0.4,0,0.8,0.3,0.8,0.8
					S316.8,544.7,316.4,544.7z M308.4,544.7h-3c-0.4,0-0.8-0.3-0.8-0.8s0.3-0.8,0.8-0.8h3c0.4,0,0.8,0.3,0.8,0.8
					S308.8,544.7,308.4,544.7z M300.4,544.7h-3c-0.4,0-0.8-0.3-0.8-0.8s0.3-0.8,0.8-0.8h3c0.4,0,0.8,0.3,0.8,0.8
					S300.8,544.7,300.4,544.7z M292.4,544.7h-3c-0.4,0-0.8-0.3-0.8-0.8s0.3-0.8,0.8-0.8h3c0.4,0,0.8,0.3,0.8,0.8
					S292.8,544.7,292.4,544.7z M284.4,544.7h-3c-0.4,0-0.8-0.3-0.8-0.8s0.3-0.8,0.8-0.8h3c0.4,0,0.8,0.3,0.8,0.8
					S284.8,544.7,284.4,544.7z M276.4,544.7h-3c-0.4,0-0.8-0.3-0.8-0.8s0.3-0.8,0.8-0.8h3c0.4,0,0.8,0.3,0.8,0.8
					S276.8,544.7,276.4,544.7z M268.4,544.7h-3c-0.4,0-0.8-0.3-0.8-0.8s0.3-0.8,0.8-0.8h3c0.4,0,0.8,0.3,0.8,0.8
					S268.8,544.7,268.4,544.7z M260.4,544.7h-3c-0.4,0-0.8-0.3-0.8-0.8s0.3-0.8,0.8-0.8h3c0.4,0,0.8,0.3,0.8,0.8
					S260.8,544.7,260.4,544.7z M252.4,544.7h-3c-0.4,0-0.8-0.3-0.8-0.8s0.3-0.8,0.8-0.8h3c0.4,0,0.8,0.3,0.8,0.8
					S252.8,544.7,252.4,544.7z M244.4,544.7h-3c-0.4,0-0.8-0.3-0.8-0.8s0.3-0.8,0.8-0.8h3c0.4,0,0.8,0.3,0.8,0.8
					S244.8,544.7,244.4,544.7z M236.4,544.7h-3c-0.4,0-0.8-0.3-0.8-0.8s0.3-0.8,0.8-0.8h3c0.4,0,0.8,0.3,0.8,0.8
					S236.8,544.7,236.4,544.7z M228.4,544.7h-3c-0.4,0-0.8-0.3-0.8-0.8s0.3-0.8,0.8-0.8h3c0.4,0,0.8,0.3,0.8,0.8
					S228.8,544.7,228.4,544.7z M220.4,544.7h-3c-0.4,0-0.8-0.3-0.8-0.8s0.3-0.8,0.8-0.8h3c0.4,0,0.8,0.3,0.8,0.8
					S220.8,544.7,220.4,544.7z M212.4,544.7h-3c-0.4,0-0.8-0.3-0.8-0.8s0.3-0.8,0.8-0.8h3c0.4,0,0.8,0.3,0.8,0.8
					S212.8,544.7,212.4,544.7z M204.4,544.7h-3c-0.4,0-0.8-0.3-0.8-0.8s0.3-0.8,0.8-0.8h3c0.4,0,0.8,0.3,0.8,0.8
					S204.8,544.7,204.4,544.7z M196.4,544.7h-3c-0.4,0-0.8-0.3-0.8-0.8s0.3-0.8,0.8-0.8h3c0.4,0,0.8,0.3,0.8,0.8
					S196.8,544.7,196.4,544.7z M188.4,544.7h-3c-0.4,0-0.8-0.3-0.8-0.8s0.3-0.8,0.8-0.8h3c0.4,0,0.8,0.3,0.8,0.8
					S188.8,544.7,188.4,544.7z M180.4,544.7h-3c-0.4,0-0.8-0.3-0.8-0.8s0.3-0.8,0.8-0.8h3c0.4,0,0.8,0.3,0.8,0.8
					S180.8,544.7,180.4,544.7z M172.4,544.7h-3c-0.4,0-0.8-0.3-0.8-0.8s0.3-0.8,0.8-0.8h3c0.4,0,0.8,0.3,0.8,0.8
					S172.8,544.7,172.4,544.7z M164.4,544.7h-3c-0.4,0-0.8-0.3-0.8-0.8s0.3-0.8,0.8-0.8h3c0.4,0,0.8,0.3,0.8,0.8
					S164.8,544.7,164.4,544.7z M156.4,544.7h-3c-0.4,0-0.8-0.3-0.8-0.8s0.3-0.8,0.8-0.8h3c0.4,0,0.8,0.3,0.8,0.8
					S156.8,544.7,156.4,544.7z M148.4,544.7h-3c-0.4,0-0.8-0.3-0.8-0.8s0.3-0.8,0.8-0.8h3c0.4,0,0.8,0.3,0.8,0.8
					S148.8,544.7,148.4,544.7z M140.4,544.7h-3c-0.4,0-0.8-0.3-0.8-0.8s0.3-0.8,0.8-0.8h3c0.4,0,0.8,0.3,0.8,0.8
					S140.8,544.7,140.4,544.7z M132.4,544.7h-3c-0.4,0-0.8-0.3-0.8-0.8s0.3-0.8,0.8-0.8h3c0.4,0,0.8,0.3,0.8,0.8
					S132.8,544.7,132.4,544.7z M124.4,544.7h-3c-0.4,0-0.8-0.3-0.8-0.8s0.3-0.8,0.8-0.8h3c0.4,0,0.8,0.3,0.8,0.8
					S124.8,544.7,124.4,544.7z M116.4,544.7h-3c-0.4,0-0.8-0.3-0.8-0.8s0.3-0.8,0.8-0.8h3c0.4,0,0.8,0.3,0.8,0.8
					S116.8,544.7,116.4,544.7z M108.4,544.7h-3c-0.4,0-0.8-0.3-0.8-0.8s0.3-0.8,0.8-0.8h3c0.4,0,0.8,0.3,0.8,0.8
					S108.8,544.7,108.4,544.7z M100.4,544.7h-3c-0.4,0-0.8-0.3-0.8-0.8s0.3-0.8,0.8-0.8h3c0.4,0,0.8,0.3,0.8,0.8
					S100.8,544.7,100.4,544.7z M92.4,544.7h-3c-0.4,0-0.8-0.3-0.8-0.8s0.3-0.8,0.8-0.8h3c0.4,0,0.8,0.3,0.8,0.8
					S92.8,544.7,92.4,544.7z M84.4,544.7h-3c-0.4,0-0.8-0.3-0.8-0.8s0.3-0.8,0.8-0.8h3c0.4,0,0.8,0.3,0.8,0.8S84.8,544.7,84.4,544.7
					z M76.4,544.7h-3c-0.4,0-0.8-0.3-0.8-0.8s0.3-0.8,0.8-0.8h3c0.4,0,0.8,0.3,0.8,0.8S76.8,544.7,76.4,544.7z M68.4,544.7h-3
					c-0.4,0-0.8-0.3-0.8-0.8s0.3-0.8,0.8-0.8h3c0.4,0,0.8,0.3,0.8,0.8S68.8,544.7,68.4,544.7z M60.4,544.7h-0.3
					c-1,0-1.9-0.1-2.8-0.3c-0.4-0.1-0.7-0.5-0.6-0.9c0.1-0.4,0.5-0.7,0.9-0.6c0.8,0.2,1.7,0.3,2.5,0.3h0.3c0.4,0,0.8,0.3,0.8,0.8
					S60.8,544.7,60.4,544.7z M665.2,543.7c-0.3,0-0.6-0.2-0.7-0.5c-0.2-0.4,0-0.8,0.4-1c0.9-0.4,1.7-0.8,2.4-1.4
					c0.3-0.3,0.8-0.2,1.1,0.1c0.3,0.3,0.2,0.8-0.1,1.1c-0.8,0.6-1.8,1.2-2.7,1.6C665.4,543.7,665.3,543.7,665.2,543.7z M52.9,542.3
					c-0.2,0-0.3,0-0.4-0.1c-0.9-0.6-1.6-1.4-2.3-2.2c-0.3-0.3-0.2-0.8,0.1-1.1c0.3-0.3,0.8-0.2,1.1,0.1c0.6,0.7,1.3,1.4,2,1.9
					c0.3,0.2,0.4,0.7,0.2,1C53.3,542.2,53.1,542.3,52.9,542.3z M671,538.4c-0.1,0-0.2,0-0.4-0.1c-0.4-0.2-0.5-0.7-0.3-1
					c0.5-0.8,0.8-1.7,1.1-2.6c0.1-0.4,0.5-0.6,0.9-0.5c0.4,0.1,0.6,0.5,0.5,0.9c-0.3,1-0.7,2-1.2,2.9
					C671.5,538.3,671.3,538.4,671,538.4z M48.3,535.9c-0.3,0-0.6-0.2-0.7-0.5c-0.3-1-0.5-2.1-0.5-3.1c0-0.4,0.3-0.8,0.7-0.8
					c0.4,0,0.8,0.3,0.8,0.7c0,0.9,0.2,1.9,0.4,2.8c0.1,0.4-0.1,0.8-0.5,0.9C48.5,535.9,48.4,535.9,48.3,535.9z M672.6,530.7
					c-0.4,0-0.8-0.3-0.8-0.8v-3c0-0.4,0.3-0.8,0.8-0.8s0.8,0.3,0.8,0.8v3C673.3,530.3,673,530.7,672.6,530.7z M47.9,527.9
					c-0.4,0-0.8-0.3-0.8-0.8v-3c0-0.4,0.3-0.8,0.8-0.8s0.8,0.3,0.8,0.8v3C48.6,527.6,48.3,527.9,47.9,527.9z M672.6,522.7
					c-0.4,0-0.8-0.3-0.8-0.8v-3c0-0.4,0.3-0.8,0.8-0.8s0.8,0.3,0.8,0.8v3C673.3,522.3,673,522.7,672.6,522.7z M47.9,519.9
					c-0.4,0-0.8-0.3-0.8-0.8v-3c0-0.4,0.3-0.8,0.8-0.8s0.8,0.3,0.8,0.8v3C48.6,519.6,48.3,519.9,47.9,519.9z M672.6,514.7
					c-0.4,0-0.8-0.3-0.8-0.8v-3c0-0.4,0.3-0.8,0.8-0.8s0.8,0.3,0.8,0.8v3C673.3,514.3,673,514.7,672.6,514.7z M47.9,511.9
					c-0.4,0-0.8-0.3-0.8-0.8v-3c0-0.4,0.3-0.8,0.8-0.8s0.8,0.3,0.8,0.8v3C48.6,511.6,48.3,511.9,47.9,511.9z M672.6,506.7
					c-0.4,0-0.8-0.3-0.8-0.8v-3c0-0.4,0.3-0.8,0.8-0.8s0.8,0.3,0.8,0.8v3C673.3,506.3,673,506.7,672.6,506.7z M47.9,503.9
					c-0.4,0-0.8-0.3-0.8-0.8v-3c0-0.4,0.3-0.8,0.8-0.8s0.8,0.3,0.8,0.8v3C48.6,503.6,48.3,503.9,47.9,503.9z M672.6,498.7
					c-0.4,0-0.8-0.3-0.8-0.8v-3c0-0.4,0.3-0.8,0.8-0.8s0.8,0.3,0.8,0.8v3C673.3,498.3,673,498.7,672.6,498.7z M47.9,495.9
					c-0.4,0-0.8-0.3-0.8-0.8v-3c0-0.4,0.3-0.8,0.8-0.8s0.8,0.3,0.8,0.8v3C48.6,495.6,48.3,495.9,47.9,495.9z M672.6,490.7
					c-0.4,0-0.8-0.3-0.8-0.8v-3c0-0.4,0.3-0.8,0.8-0.8s0.8,0.3,0.8,0.8v3C673.3,490.3,673,490.7,672.6,490.7z M47.9,487.9
					c-0.4,0-0.8-0.3-0.8-0.8v-3c0-0.4,0.3-0.8,0.8-0.8s0.8,0.3,0.8,0.8v3C48.6,487.6,48.3,487.9,47.9,487.9z M672.6,482.7
					c-0.4,0-0.8-0.3-0.8-0.8v-3c0-0.4,0.3-0.8,0.8-0.8s0.8,0.3,0.8,0.8v3C673.3,482.3,673,482.7,672.6,482.7z M47.9,479.9
					c-0.4,0-0.8-0.3-0.8-0.8v-3c0-0.4,0.3-0.8,0.8-0.8s0.8,0.3,0.8,0.8v3C48.6,479.6,48.3,479.9,47.9,479.9z M672.6,474.7
					c-0.4,0-0.8-0.3-0.8-0.8v-3c0-0.4,0.3-0.8,0.8-0.8s0.8,0.3,0.8,0.8v3C673.3,474.3,673,474.7,672.6,474.7z M47.9,471.9
					c-0.4,0-0.8-0.3-0.8-0.8v-3c0-0.4,0.3-0.8,0.8-0.8s0.8,0.3,0.8,0.8v3C48.6,471.6,48.3,471.9,47.9,471.9z M672.6,466.7
					c-0.4,0-0.8-0.3-0.8-0.8v-3c0-0.4,0.3-0.8,0.8-0.8s0.8,0.3,0.8,0.8v3C673.3,466.3,673,466.7,672.6,466.7z M47.9,463.9
					c-0.4,0-0.8-0.3-0.8-0.8v-3c0-0.4,0.3-0.8,0.8-0.8s0.8,0.3,0.8,0.8v3C48.6,463.6,48.3,463.9,47.9,463.9z M672.6,458.7
					c-0.4,0-0.8-0.3-0.8-0.8v-3c0-0.4,0.3-0.8,0.8-0.8s0.8,0.3,0.8,0.8v3C673.3,458.3,673,458.7,672.6,458.7z M47.9,455.9
					c-0.4,0-0.8-0.3-0.8-0.8v-3c0-0.4,0.3-0.8,0.8-0.8s0.8,0.3,0.8,0.8v3C48.6,455.6,48.3,455.9,47.9,455.9z M672.6,450.7
					c-0.4,0-0.8-0.3-0.8-0.8v-3c0-0.4,0.3-0.8,0.8-0.8s0.8,0.3,0.8,0.8v3C673.3,450.3,673,450.7,672.6,450.7z M47.9,447.9
					c-0.4,0-0.8-0.3-0.8-0.8v-3c0-0.4,0.3-0.8,0.8-0.8s0.8,0.3,0.8,0.8v3C48.6,447.6,48.3,447.9,47.9,447.9z M672.6,442.7
					c-0.4,0-0.8-0.3-0.8-0.8v-3c0-0.4,0.3-0.8,0.8-0.8s0.8,0.3,0.8,0.8v3C673.3,442.3,673,442.7,672.6,442.7z M47.9,439.9
					c-0.4,0-0.8-0.3-0.8-0.8v-3c0-0.4,0.3-0.8,0.8-0.8s0.8,0.3,0.8,0.8v3C48.6,439.6,48.3,439.9,47.9,439.9z M672.6,434.7
					c-0.4,0-0.8-0.3-0.8-0.8v-3c0-0.4,0.3-0.8,0.8-0.8s0.8,0.3,0.8,0.8v3C673.3,434.3,673,434.7,672.6,434.7z M47.9,431.9
					c-0.4,0-0.8-0.3-0.8-0.8v-3c0-0.4,0.3-0.8,0.8-0.8s0.8,0.3,0.8,0.8v3C48.6,431.6,48.3,431.9,47.9,431.9z M672.6,426.7
					c-0.4,0-0.8-0.3-0.8-0.8v-3c0-0.4,0.3-0.8,0.8-0.8s0.8,0.3,0.8,0.8v3C673.3,426.3,673,426.7,672.6,426.7z M47.9,423.9
					c-0.4,0-0.8-0.3-0.8-0.8v-3c0-0.4,0.3-0.8,0.8-0.8s0.8,0.3,0.8,0.8v3C48.6,423.6,48.3,423.9,47.9,423.9z M672.6,418.7
					c-0.4,0-0.8-0.3-0.8-0.8v-3c0-0.4,0.3-0.8,0.8-0.8s0.8,0.3,0.8,0.8v3C673.3,418.3,673,418.7,672.6,418.7z M47.9,415.9
					c-0.4,0-0.8-0.3-0.8-0.8v-3c0-0.4,0.3-0.8,0.8-0.8s0.8,0.3,0.8,0.8v3C48.6,415.6,48.3,415.9,47.9,415.9z M672.6,410.7
					c-0.4,0-0.8-0.3-0.8-0.8v-3c0-0.4,0.3-0.8,0.8-0.8s0.8,0.3,0.8,0.8v3C673.3,410.3,673,410.7,672.6,410.7z M47.9,407.9
					c-0.4,0-0.8-0.3-0.8-0.8v-3c0-0.4,0.3-0.8,0.8-0.8s0.8,0.3,0.8,0.8v3C48.6,407.6,48.3,407.9,47.9,407.9z M672.6,402.7
					c-0.4,0-0.8-0.3-0.8-0.8v-3c0-0.4,0.3-0.8,0.8-0.8s0.8,0.3,0.8,0.8v3C673.3,402.3,673,402.7,672.6,402.7z M47.9,399.9
					c-0.4,0-0.8-0.3-0.8-0.8v-3c0-0.4,0.3-0.8,0.8-0.8s0.8,0.3,0.8,0.8v3C48.6,399.6,48.3,399.9,47.9,399.9z M672.6,394.7
					c-0.4,0-0.8-0.3-0.8-0.8v-3c0-0.4,0.3-0.8,0.8-0.8s0.8,0.3,0.8,0.8v3C673.3,394.3,673,394.7,672.6,394.7z M47.9,391.9
					c-0.4,0-0.8-0.3-0.8-0.8v-3c0-0.4,0.3-0.8,0.8-0.8s0.8,0.3,0.8,0.8v3C48.6,391.6,48.3,391.9,47.9,391.9z M672.6,386.7
					c-0.4,0-0.8-0.3-0.8-0.8v-3c0-0.4,0.3-0.8,0.8-0.8s0.8,0.3,0.8,0.8v3C673.3,386.3,673,386.7,672.6,386.7z M47.9,383.9
					c-0.4,0-0.8-0.3-0.8-0.8v-3c0-0.4,0.3-0.8,0.8-0.8s0.8,0.3,0.8,0.8v3C48.6,383.6,48.3,383.9,47.9,383.9z M672.6,378.7
					c-0.4,0-0.8-0.3-0.8-0.8v-3c0-0.4,0.3-0.8,0.8-0.8s0.8,0.3,0.8,0.8v3C673.3,378.3,673,378.7,672.6,378.7z M47.9,375.9
					c-0.4,0-0.8-0.3-0.8-0.8v-3c0-0.4,0.3-0.8,0.8-0.8s0.8,0.3,0.8,0.8v3C48.6,375.6,48.3,375.9,47.9,375.9z M672.6,370.7
					c-0.4,0-0.8-0.3-0.8-0.8v-3c0-0.4,0.3-0.8,0.8-0.8s0.8,0.3,0.8,0.8v3C673.3,370.3,673,370.7,672.6,370.7z M47.9,367.9
					c-0.4,0-0.8-0.3-0.8-0.8v-3c0-0.4,0.3-0.8,0.8-0.8s0.8,0.3,0.8,0.8v3C48.6,367.6,48.3,367.9,47.9,367.9z M672.6,362.7
					c-0.4,0-0.8-0.3-0.8-0.8v-3c0-0.4,0.3-0.8,0.8-0.8s0.8,0.3,0.8,0.8v3C673.3,362.3,673,362.7,672.6,362.7z M47.9,359.9
					c-0.4,0-0.8-0.3-0.8-0.8v-3c0-0.4,0.3-0.8,0.8-0.8s0.8,0.3,0.8,0.8v3C48.6,359.6,48.3,359.9,47.9,359.9z M672.6,354.7
					c-0.4,0-0.8-0.3-0.8-0.8v-3c0-0.4,0.3-0.8,0.8-0.8s0.8,0.3,0.8,0.8v3C673.3,354.3,673,354.7,672.6,354.7z M47.9,351.9
					c-0.4,0-0.8-0.3-0.8-0.8v-3c0-0.4,0.3-0.8,0.8-0.8s0.8,0.3,0.8,0.8v3C48.6,351.6,48.3,351.9,47.9,351.9z M672.6,346.7
					c-0.4,0-0.8-0.3-0.8-0.8v-3c0-0.4,0.3-0.8,0.8-0.8s0.8,0.3,0.8,0.8v3C673.3,346.3,673,346.7,672.6,346.7z M47.9,343.9
					c-0.4,0-0.8-0.3-0.8-0.8v-3c0-0.4,0.3-0.8,0.8-0.8s0.8,0.3,0.8,0.8v3C48.6,343.6,48.3,343.9,47.9,343.9z M672.6,338.7
					c-0.4,0-0.8-0.3-0.8-0.8v-3c0-0.4,0.3-0.8,0.8-0.8s0.8,0.3,0.8,0.8v3C673.3,338.3,673,338.7,672.6,338.7z M47.9,335.9
					c-0.4,0-0.8-0.3-0.8-0.8v-3c0-0.4,0.3-0.8,0.8-0.8s0.8,0.3,0.8,0.8v3C48.6,335.6,48.3,335.9,47.9,335.9z M672.6,330.7
					c-0.4,0-0.8-0.3-0.8-0.8v-3c0-0.4,0.3-0.8,0.8-0.8s0.8,0.3,0.8,0.8v3C673.3,330.3,673,330.7,672.6,330.7z M47.9,327.9
					c-0.4,0-0.8-0.3-0.8-0.8v-3c0-0.4,0.3-0.8,0.8-0.8s0.8,0.3,0.8,0.8v3C48.6,327.6,48.3,327.9,47.9,327.9z M672.6,322.7
					c-0.4,0-0.8-0.3-0.8-0.8v-3c0-0.4,0.3-0.8,0.8-0.8s0.8,0.3,0.8,0.8v3C673.3,322.3,673,322.7,672.6,322.7z M47.9,319.9
					c-0.4,0-0.8-0.3-0.8-0.8v-3c0-0.4,0.3-0.8,0.8-0.8s0.8,0.3,0.8,0.8v3C48.6,319.6,48.3,319.9,47.9,319.9z M672.6,314.7
					c-0.4,0-0.8-0.3-0.8-0.8v-3c0-0.4,0.3-0.8,0.8-0.8s0.8,0.3,0.8,0.8v3C673.3,314.3,673,314.7,672.6,314.7z M47.9,311.9
					c-0.4,0-0.8-0.3-0.8-0.8v-3c0-0.4,0.3-0.8,0.8-0.8s0.8,0.3,0.8,0.8v3C48.6,311.6,48.3,311.9,47.9,311.9z M672.6,306.7
					c-0.4,0-0.8-0.3-0.8-0.8v-3c0-0.4,0.3-0.8,0.8-0.8s0.8,0.3,0.8,0.8v3C673.3,306.3,673,306.7,672.6,306.7z M47.9,303.9
					c-0.4,0-0.8-0.3-0.8-0.8v-3c0-0.4,0.3-0.8,0.8-0.8s0.8,0.3,0.8,0.8v3C48.6,303.6,48.3,303.9,47.9,303.9z M672.6,298.7
					c-0.4,0-0.8-0.3-0.8-0.8v-3c0-0.4,0.3-0.8,0.8-0.8s0.8,0.3,0.8,0.8v3C673.3,298.3,673,298.7,672.6,298.7z M47.9,295.9
					c-0.4,0-0.8-0.3-0.8-0.8v-3c0-0.4,0.3-0.8,0.8-0.8s0.8,0.3,0.8,0.8v3C48.6,295.6,48.3,295.9,47.9,295.9z M672.6,290.7
					c-0.4,0-0.8-0.3-0.8-0.8v-3c0-0.4,0.3-0.8,0.8-0.8s0.8,0.3,0.8,0.8v3C673.3,290.3,673,290.7,672.6,290.7z M47.9,287.9
					c-0.4,0-0.8-0.3-0.8-0.8v-3c0-0.4,0.3-0.8,0.8-0.8s0.8,0.3,0.8,0.8v3C48.6,287.6,48.3,287.9,47.9,287.9z M672.6,282.7
					c-0.4,0-0.8-0.3-0.8-0.8v-3c0-0.4,0.3-0.8,0.8-0.8s0.8,0.3,0.8,0.8v3C673.3,282.3,673,282.7,672.6,282.7z M47.9,279.9
					c-0.4,0-0.8-0.3-0.8-0.8v-3c0-0.4,0.3-0.8,0.8-0.8s0.8,0.3,0.8,0.8v3C48.6,279.6,48.3,279.9,47.9,279.9z M672.6,274.7
					c-0.4,0-0.8-0.3-0.8-0.8v-3c0-0.4,0.3-0.8,0.8-0.8s0.8,0.3,0.8,0.8v3C673.3,274.3,673,274.7,672.6,274.7z M47.9,271.9
					c-0.4,0-0.8-0.3-0.8-0.8v-3c0-0.4,0.3-0.8,0.8-0.8s0.8,0.3,0.8,0.8v3C48.6,271.6,48.3,271.9,47.9,271.9z M672.6,266.7
					c-0.4,0-0.8-0.3-0.8-0.8v-3c0-0.4,0.3-0.8,0.8-0.8s0.8,0.3,0.8,0.8v3C673.3,266.3,673,266.7,672.6,266.7z M47.9,263.9
					c-0.4,0-0.8-0.3-0.8-0.8v-3c0-0.4,0.3-0.8,0.8-0.8s0.8,0.3,0.8,0.8v3C48.6,263.6,48.3,263.9,47.9,263.9z M672.6,258.7
					c-0.4,0-0.8-0.3-0.8-0.8v-3c0-0.4,0.3-0.8,0.8-0.8s0.8,0.3,0.8,0.8v3C673.3,258.3,673,258.7,672.6,258.7z M47.9,255.9
					c-0.4,0-0.8-0.3-0.8-0.8v-3c0-0.4,0.3-0.8,0.8-0.8s0.8,0.3,0.8,0.8v3C48.6,255.6,48.3,255.9,47.9,255.9z M672.6,250.7
					c-0.4,0-0.8-0.3-0.8-0.8v-3c0-0.4,0.3-0.8,0.8-0.8s0.8,0.3,0.8,0.8v3C673.3,250.3,673,250.7,672.6,250.7z M47.9,247.9
					c-0.4,0-0.8-0.3-0.8-0.8v-3c0-0.4,0.3-0.8,0.8-0.8s0.8,0.3,0.8,0.8v3C48.6,247.6,48.3,247.9,47.9,247.9z M672.6,242.7
					c-0.4,0-0.8-0.3-0.8-0.8v-3c0-0.4,0.3-0.8,0.8-0.8s0.8,0.3,0.8,0.8v3C673.3,242.3,673,242.7,672.6,242.7z M47.9,239.9
					c-0.4,0-0.8-0.3-0.8-0.8v-3c0-0.4,0.3-0.8,0.8-0.8s0.8,0.3,0.8,0.8v3C48.6,239.6,48.3,239.9,47.9,239.9z M672.6,234.7
					c-0.4,0-0.8-0.3-0.8-0.8v-3c0-0.4,0.3-0.8,0.8-0.8s0.8,0.3,0.8,0.8v3C673.3,234.3,673,234.7,672.6,234.7z M47.9,231.9
					c-0.4,0-0.8-0.3-0.8-0.8v-3c0-0.4,0.3-0.8,0.8-0.8s0.8,0.3,0.8,0.8v3C48.6,231.6,48.3,231.9,47.9,231.9z M672.6,226.7
					c-0.4,0-0.8-0.3-0.8-0.8v-3c0-0.4,0.3-0.8,0.8-0.8s0.8,0.3,0.8,0.8v3C673.3,226.3,673,226.7,672.6,226.7z M47.9,223.9
					c-0.4,0-0.8-0.3-0.8-0.8v-3c0-0.4,0.3-0.8,0.8-0.8s0.8,0.3,0.8,0.8v3C48.6,223.6,48.3,223.9,47.9,223.9z M672.6,218.7
					c-0.4,0-0.8-0.3-0.8-0.8v-3c0-0.4,0.3-0.8,0.8-0.8s0.8,0.3,0.8,0.8v3C673.3,218.3,673,218.7,672.6,218.7z M47.9,215.9
					c-0.4,0-0.8-0.3-0.8-0.8v-3c0-0.4,0.3-0.8,0.8-0.8s0.8,0.3,0.8,0.8v3C48.6,215.6,48.3,215.9,47.9,215.9z M672.6,210.7
					c-0.4,0-0.8-0.3-0.8-0.8v-3c0-0.4,0.3-0.8,0.8-0.8s0.8,0.3,0.8,0.8v3C673.3,210.3,673,210.7,672.6,210.7z M47.9,207.9
					c-0.4,0-0.8-0.3-0.8-0.8v-3c0-0.4,0.3-0.8,0.8-0.8s0.8,0.3,0.8,0.8v3C48.6,207.6,48.3,207.9,47.9,207.9z M672.6,202.7
					c-0.4,0-0.8-0.3-0.8-0.8v-3c0-0.4,0.3-0.8,0.8-0.8s0.8,0.3,0.8,0.8v3C673.3,202.3,673,202.7,672.6,202.7z M47.9,199.9
					c-0.4,0-0.8-0.3-0.8-0.8v-3c0-0.4,0.3-0.8,0.8-0.8s0.8,0.3,0.8,0.8v3C48.6,199.6,48.3,199.9,47.9,199.9z M672.6,194.7
					c-0.4,0-0.8-0.3-0.8-0.8v-3c0-0.4,0.3-0.8,0.8-0.8s0.8,0.3,0.8,0.8v3C673.3,194.3,673,194.7,672.6,194.7z M47.9,191.9
					c-0.4,0-0.8-0.3-0.8-0.8v-3c0-0.4,0.3-0.8,0.8-0.8s0.8,0.3,0.8,0.8v3C48.6,191.6,48.3,191.9,47.9,191.9z M672.6,186.7
					c-0.4,0-0.8-0.3-0.8-0.8v-3c0-0.4,0.3-0.8,0.8-0.8s0.8,0.3,0.8,0.8v3C673.3,186.3,673,186.7,672.6,186.7z M47.9,183.9
					c-0.4,0-0.8-0.3-0.8-0.8v-3c0-0.4,0.3-0.8,0.8-0.8s0.8,0.3,0.8,0.8v3C48.6,183.6,48.3,183.9,47.9,183.9z M672.6,178.7
					c-0.4,0-0.8-0.3-0.8-0.8v-3c0-0.4,0.3-0.8,0.8-0.8s0.8,0.3,0.8,0.8v3C673.3,178.3,673,178.7,672.6,178.7z M47.9,175.9
					c-0.4,0-0.8-0.3-0.8-0.8v-3c0-0.4,0.3-0.8,0.8-0.8s0.8,0.3,0.8,0.8v3C48.6,175.6,48.3,175.9,47.9,175.9z M672.6,170.7
					c-0.4,0-0.8-0.3-0.8-0.8v-3c0-0.4,0.3-0.8,0.8-0.8s0.8,0.3,0.8,0.8v3C673.3,170.3,673,170.7,672.6,170.7z M47.9,167.9
					c-0.4,0-0.8-0.3-0.8-0.8v-3c0-0.4,0.3-0.8,0.8-0.8s0.8,0.3,0.8,0.8v3C48.6,167.6,48.3,167.9,47.9,167.9z M672.6,162.7
					c-0.4,0-0.8-0.3-0.8-0.8v-3c0-0.4,0.3-0.8,0.8-0.8s0.8,0.3,0.8,0.8v3C673.3,162.3,673,162.7,672.6,162.7z M47.9,159.9
					c-0.4,0-0.8-0.3-0.8-0.8v-3c0-0.4,0.3-0.8,0.8-0.8s0.8,0.3,0.8,0.8v3C48.6,159.6,48.3,159.9,47.9,159.9z M672.6,154.7
					c-0.4,0-0.8-0.3-0.8-0.8v-3c0-0.4,0.3-0.8,0.8-0.8s0.8,0.3,0.8,0.8v3C673.3,154.3,673,154.7,672.6,154.7z M47.9,151.9
					c-0.4,0-0.8-0.3-0.8-0.8v-3c0-0.4,0.3-0.8,0.8-0.8s0.8,0.3,0.8,0.8v3C48.6,151.6,48.3,151.9,47.9,151.9z M672.6,146.7
					c-0.4,0-0.8-0.3-0.8-0.8v-3c0-0.4,0.3-0.8,0.8-0.8s0.8,0.3,0.8,0.8v3C673.3,146.3,673,146.7,672.6,146.7z M47.9,143.9
					c-0.4,0-0.8-0.3-0.8-0.8v-3c0-0.4,0.3-0.8,0.8-0.8s0.8,0.3,0.8,0.8v3C48.6,143.6,48.3,143.9,47.9,143.9z M672.6,138.7
					c-0.4,0-0.8-0.3-0.8-0.8v-3c0-0.4,0.3-0.8,0.8-0.8s0.8,0.3,0.8,0.8v3C673.3,138.3,673,138.7,672.6,138.7z M47.9,135.9
					c-0.4,0-0.8-0.3-0.8-0.8v-3c0-0.4,0.3-0.8,0.8-0.8s0.8,0.3,0.8,0.8v3C48.6,135.6,48.3,135.9,47.9,135.9z M672.6,130.7
					c-0.4,0-0.8-0.3-0.8-0.8v-3c0-0.4,0.3-0.8,0.8-0.8s0.8,0.3,0.8,0.8v3C673.3,130.3,673,130.7,672.6,130.7z M47.9,127.9
					c-0.4,0-0.8-0.3-0.8-0.8v-3c0-0.4,0.3-0.8,0.8-0.8s0.8,0.3,0.8,0.8v3C48.6,127.6,48.3,127.9,47.9,127.9z M672.6,122.7
					c-0.4,0-0.8-0.3-0.8-0.8v-3c0-0.4,0.3-0.8,0.8-0.8s0.8,0.3,0.8,0.8v3C673.3,122.3,673,122.7,672.6,122.7z M47.9,119.9
					c-0.4,0-0.8-0.3-0.8-0.8v-3c0-0.4,0.3-0.8,0.8-0.8s0.8,0.3,0.8,0.8v3C48.6,119.6,48.3,119.9,47.9,119.9z M672.6,114.7
					c-0.4,0-0.8-0.3-0.8-0.8v-3c0-0.4,0.3-0.8,0.8-0.8s0.8,0.3,0.8,0.8v3C673.3,114.3,673,114.7,672.6,114.7z M47.9,111.9
					c-0.4,0-0.8-0.3-0.8-0.8v-3c0-0.4,0.3-0.8,0.8-0.8s0.8,0.3,0.8,0.8v3C48.6,111.6,48.3,111.9,47.9,111.9z M672.6,106.7
					c-0.4,0-0.8-0.3-0.8-0.8v-3c0-0.4,0.3-0.8,0.8-0.8s0.8,0.3,0.8,0.8v3C673.3,106.3,673,106.7,672.6,106.7z M47.9,103.9
					c-0.4,0-0.8-0.3-0.8-0.8v-3c0-0.4,0.3-0.8,0.8-0.8s0.8,0.3,0.8,0.8v3C48.6,103.6,48.3,103.9,47.9,103.9z M672.6,98.7
					c-0.4,0-0.8-0.3-0.8-0.8v-3c0-0.4,0.3-0.8,0.8-0.8s0.8,0.3,0.8,0.8v3C673.3,98.3,673,98.7,672.6,98.7z M47.9,95.9
					c-0.4,0-0.8-0.3-0.8-0.8v-3c0-0.4,0.3-0.8,0.8-0.8s0.8,0.3,0.8,0.8v3C48.6,95.6,48.3,95.9,47.9,95.9z M672.6,90.7
					c-0.4,0-0.8-0.3-0.8-0.8v-3c0-0.4,0.3-0.8,0.8-0.8s0.8,0.3,0.8,0.8v3C673.3,90.3,673,90.7,672.6,90.7z M47.9,87.9
					c-0.4,0-0.8-0.3-0.8-0.8v-3c0-0.4,0.3-0.8,0.8-0.8s0.8,0.3,0.8,0.8v3C48.6,87.6,48.3,87.9,47.9,87.9z M672.6,82.7
					c-0.4,0-0.8-0.3-0.8-0.8v-3c0-0.4,0.3-0.8,0.8-0.8s0.8,0.3,0.8,0.8v3C673.3,82.3,673,82.7,672.6,82.7z M47.9,79.9
					c-0.4,0-0.8-0.3-0.8-0.8v-3c0-0.4,0.3-0.8,0.8-0.8s0.8,0.3,0.8,0.8v3C48.6,79.6,48.3,79.9,47.9,79.9z M672.6,74.7
					c-0.4,0-0.8-0.3-0.8-0.8v-3c0-0.4,0.3-0.8,0.8-0.8s0.8,0.3,0.8,0.8v3C673.3,74.3,673,74.7,672.6,74.7z M47.9,71.9
					c-0.4,0-0.8-0.3-0.8-0.8v-3c0-0.4,0.3-0.8,0.8-0.8s0.8,0.3,0.8,0.8v3C48.6,71.6,48.3,71.9,47.9,71.9z M672.6,66.7
					c-0.4,0-0.8-0.3-0.8-0.8v-3c0-0.4,0.3-0.8,0.8-0.8s0.8,0.3,0.8,0.8v3C673.3,66.3,673,66.7,672.6,66.7z M47.9,63.9
					c-0.4,0-0.8-0.3-0.8-0.8v-0.8c0-0.8,0.1-1.6,0.2-2.3c0.1-0.4,0.5-0.7,0.9-0.6c0.4,0.1,0.7,0.5,0.6,0.9c-0.1,0.7-0.2,1.4-0.2,2
					v0.8C48.6,63.6,48.3,63.9,47.9,63.9z M671.8,58.8c-0.3,0-0.6-0.2-0.7-0.5c-0.3-0.9-0.8-1.7-1.3-2.5c-0.2-0.3-0.2-0.8,0.2-1
					c0.3-0.2,0.8-0.2,1,0.2c0.6,0.9,1.1,1.8,1.5,2.8c0.1,0.4,0,0.8-0.4,1C671.9,58.8,671.9,58.8,671.8,58.8z M49.9,56.3
					c-0.1,0-0.3,0-0.4-0.1c-0.3-0.2-0.4-0.7-0.2-1c0.6-0.9,1.3-1.7,2.1-2.4c0.3-0.3,0.8-0.3,1.1,0.1c0.3,0.3,0.3,0.8-0.1,1.1
					c-0.7,0.6-1.3,1.3-1.8,2.1C50.4,56.2,50.2,56.3,49.9,56.3z M666.7,52.7c-0.1,0-0.3,0-0.4-0.1c-0.8-0.5-1.7-0.9-2.6-1.2
					c-0.4-0.1-0.6-0.5-0.5-0.9c0.1-0.4,0.5-0.6,0.9-0.5c1,0.3,2,0.8,2.9,1.3c0.4,0.2,0.5,0.7,0.2,1C667.2,52.6,667,52.7,666.7,52.7z
					 M56.2,51.6c-0.3,0-0.6-0.2-0.7-0.5c-0.1-0.4,0.1-0.8,0.5-1c1-0.3,2.1-0.6,3.1-0.6c0.4,0,0.8,0.3,0.8,0.7c0,0.4-0.3,0.8-0.7,0.8
					c-0.9,0.1-1.9,0.3-2.7,0.6C56.3,51.6,56.2,51.6,56.2,51.6z M659.1,50.9h-3c-0.4,0-0.8-0.3-0.8-0.8s0.3-0.8,0.8-0.8h3
					c0.4,0,0.8,0.3,0.8,0.8S659.5,50.9,659.1,50.9z M651.1,50.9h-3c-0.4,0-0.8-0.3-0.8-0.8s0.3-0.8,0.8-0.8h3c0.4,0,0.8,0.3,0.8,0.8
					S651.5,50.9,651.1,50.9z M643.1,50.9h-3c-0.4,0-0.8-0.3-0.8-0.8s0.3-0.8,0.8-0.8h3c0.4,0,0.8,0.3,0.8,0.8S643.5,50.9,643.1,50.9
					z M635.1,50.9h-3c-0.4,0-0.8-0.3-0.8-0.8s0.3-0.8,0.8-0.8h3c0.4,0,0.8,0.3,0.8,0.8S635.5,50.9,635.1,50.9z M627.1,50.9h-3
					c-0.4,0-0.8-0.3-0.8-0.8s0.3-0.8,0.8-0.8h3c0.4,0,0.8,0.3,0.8,0.8S627.5,50.9,627.1,50.9z M619.1,50.9h-3
					c-0.4,0-0.8-0.3-0.8-0.8s0.3-0.8,0.8-0.8h3c0.4,0,0.8,0.3,0.8,0.8S619.5,50.9,619.1,50.9z M611.1,50.9h-3
					c-0.4,0-0.8-0.3-0.8-0.8s0.3-0.8,0.8-0.8h3c0.4,0,0.8,0.3,0.8,0.8S611.5,50.9,611.1,50.9z M603.1,50.9h-3
					c-0.4,0-0.8-0.3-0.8-0.8s0.3-0.8,0.8-0.8h3c0.4,0,0.8,0.3,0.8,0.8S603.5,50.9,603.1,50.9z M595.1,50.9h-3
					c-0.4,0-0.8-0.3-0.8-0.8s0.3-0.8,0.8-0.8h3c0.4,0,0.8,0.3,0.8,0.8S595.5,50.9,595.1,50.9z M587.1,50.9h-3
					c-0.4,0-0.8-0.3-0.8-0.8s0.3-0.8,0.8-0.8h3c0.4,0,0.8,0.3,0.8,0.8S587.5,50.9,587.1,50.9z M579.1,50.9h-3
					c-0.4,0-0.8-0.3-0.8-0.8s0.3-0.8,0.8-0.8h3c0.4,0,0.8,0.3,0.8,0.8S579.5,50.9,579.1,50.9z M571.1,50.9h-3
					c-0.4,0-0.8-0.3-0.8-0.8s0.3-0.8,0.8-0.8h3c0.4,0,0.8,0.3,0.8,0.8S571.5,50.9,571.1,50.9z M563.1,50.9h-3
					c-0.4,0-0.8-0.3-0.8-0.8s0.3-0.8,0.8-0.8h3c0.4,0,0.8,0.3,0.8,0.8S563.5,50.9,563.1,50.9z M555.1,50.9h-3
					c-0.4,0-0.8-0.3-0.8-0.8s0.3-0.8,0.8-0.8h3c0.4,0,0.8,0.3,0.8,0.8S555.5,50.9,555.1,50.9z M547.1,50.9h-3
					c-0.4,0-0.8-0.3-0.8-0.8s0.3-0.8,0.8-0.8h3c0.4,0,0.8,0.3,0.8,0.8S547.5,50.9,547.1,50.9z M539.1,50.9h-3
					c-0.4,0-0.8-0.3-0.8-0.8s0.3-0.8,0.8-0.8h3c0.4,0,0.8,0.3,0.8,0.8S539.5,50.9,539.1,50.9z M531.1,50.9h-3
					c-0.4,0-0.8-0.3-0.8-0.8s0.3-0.8,0.8-0.8h3c0.4,0,0.8,0.3,0.8,0.8S531.5,50.9,531.1,50.9z M523.1,50.9h-3
					c-0.4,0-0.8-0.3-0.8-0.8s0.3-0.8,0.8-0.8h3c0.4,0,0.8,0.3,0.8,0.8S523.5,50.9,523.1,50.9z M515.1,50.9h-3
					c-0.4,0-0.7-0.3-0.7-0.8s0.3-0.8,0.7-0.8h3c0.4,0,0.8,0.3,0.8,0.8S515.5,50.9,515.1,50.9z M507.1,50.9h-3
					c-0.4,0-0.8-0.3-0.8-0.8s0.3-0.8,0.8-0.8h3c0.4,0,0.8,0.3,0.8,0.8S507.5,50.9,507.1,50.9z M499.1,50.9h-3
					c-0.4,0-0.8-0.3-0.8-0.8s0.3-0.8,0.8-0.8h3c0.4,0,0.8,0.3,0.8,0.8S499.5,50.9,499.1,50.9z M491.1,50.9h-3
					c-0.4,0-0.8-0.3-0.8-0.8s0.3-0.8,0.8-0.8h3c0.4,0,0.8,0.3,0.8,0.8S491.5,50.9,491.1,50.9z M483.1,50.9h-3
					c-0.4,0-0.8-0.3-0.8-0.8s0.3-0.8,0.8-0.8h3c0.4,0,0.8,0.3,0.8,0.8S483.5,50.9,483.1,50.9z M475.1,50.9h-3
					c-0.4,0-0.8-0.3-0.8-0.8s0.3-0.8,0.8-0.8h3c0.4,0,0.8,0.3,0.8,0.8S475.5,50.9,475.1,50.9z M467.1,50.9h-3
					c-0.4,0-0.8-0.3-0.8-0.8s0.3-0.8,0.8-0.8h3c0.4,0,0.8,0.3,0.8,0.8S467.5,50.9,467.1,50.9z M459.1,50.9h-3
					c-0.4,0-0.8-0.3-0.8-0.8s0.3-0.8,0.8-0.8h3c0.4,0,0.8,0.3,0.8,0.8S459.5,50.9,459.1,50.9z M451.1,50.9h-3
					c-0.4,0-0.8-0.3-0.8-0.8s0.3-0.8,0.8-0.8h3c0.4,0,0.8,0.3,0.8,0.8S451.5,50.9,451.1,50.9z M443.1,50.9h-3
					c-0.4,0-0.8-0.3-0.8-0.8s0.3-0.8,0.8-0.8h3c0.4,0,0.8,0.3,0.8,0.8S443.5,50.9,443.1,50.9z M435.1,50.9h-3
					c-0.4,0-0.8-0.3-0.8-0.8s0.3-0.8,0.8-0.8h3c0.4,0,0.8,0.3,0.8,0.8S435.5,50.9,435.1,50.9z M427.1,50.9h-3
					c-0.4,0-0.8-0.3-0.8-0.8s0.3-0.8,0.8-0.8h3c0.4,0,0.8,0.3,0.8,0.8S427.5,50.9,427.1,50.9z M419.1,50.9h-3
					c-0.4,0-0.8-0.3-0.8-0.8s0.3-0.8,0.8-0.8h3c0.4,0,0.8,0.3,0.8,0.8S419.5,50.9,419.1,50.9z M411.1,50.9h-3
					c-0.4,0-0.8-0.3-0.8-0.8s0.3-0.8,0.8-0.8h3c0.4,0,0.8,0.3,0.8,0.8S411.5,50.9,411.1,50.9z M403.1,50.9h-3
					c-0.4,0-0.8-0.3-0.8-0.8s0.3-0.8,0.8-0.8h3c0.4,0,0.8,0.3,0.8,0.8S403.5,50.9,403.1,50.9z M395.1,50.9h-3
					c-0.4,0-0.8-0.3-0.8-0.8s0.3-0.8,0.8-0.8h3c0.4,0,0.8,0.3,0.8,0.8S395.5,50.9,395.1,50.9z M387.1,50.9h-3
					c-0.4,0-0.8-0.3-0.8-0.8s0.3-0.8,0.8-0.8h3c0.4,0,0.8,0.3,0.8,0.8S387.5,50.9,387.1,50.9z M379.1,50.9h-3
					c-0.4,0-0.8-0.3-0.8-0.8s0.3-0.8,0.8-0.8h3c0.4,0,0.8,0.3,0.8,0.8S379.5,50.9,379.1,50.9z M371.1,50.9h-3
					c-0.4,0-0.8-0.3-0.8-0.8s0.3-0.8,0.8-0.8h3c0.4,0,0.8,0.3,0.8,0.8S371.5,50.9,371.1,50.9z M363.1,50.9h-3
					c-0.4,0-0.8-0.3-0.8-0.8s0.3-0.8,0.8-0.8h3c0.4,0,0.8,0.3,0.8,0.8S363.5,50.9,363.1,50.9z M355.1,50.9h-3
					c-0.4,0-0.8-0.3-0.8-0.8s0.3-0.8,0.8-0.8h3c0.4,0,0.8,0.3,0.8,0.8S355.5,50.9,355.1,50.9z M347.1,50.9h-3
					c-0.4,0-0.8-0.3-0.8-0.8s0.3-0.8,0.8-0.8h3c0.4,0,0.8,0.3,0.8,0.8S347.5,50.9,347.1,50.9z M339.1,50.9h-3
					c-0.4,0-0.8-0.3-0.8-0.8s0.3-0.8,0.8-0.8h3c0.4,0,0.8,0.3,0.8,0.8S339.5,50.9,339.1,50.9z M331.1,50.9h-3
					c-0.4,0-0.8-0.3-0.8-0.8s0.3-0.8,0.8-0.8h3c0.4,0,0.8,0.3,0.8,0.8S331.5,50.9,331.1,50.9z M323.1,50.9h-3
					c-0.4,0-0.8-0.3-0.8-0.8s0.3-0.8,0.8-0.8h3c0.4,0,0.8,0.3,0.8,0.8S323.5,50.9,323.1,50.9z M315.1,50.9h-3
					c-0.4,0-0.8-0.3-0.8-0.8s0.3-0.8,0.8-0.8h3c0.4,0,0.8,0.3,0.8,0.8S315.5,50.9,315.1,50.9z M307.1,50.9h-3
					c-0.4,0-0.8-0.3-0.8-0.8s0.3-0.8,0.8-0.8h3c0.4,0,0.8,0.3,0.8,0.8S307.5,50.9,307.1,50.9z M299.1,50.9h-3
					c-0.4,0-0.8-0.3-0.8-0.8s0.3-0.8,0.8-0.8h3c0.4,0,0.8,0.3,0.8,0.8S299.5,50.9,299.1,50.9z M291.1,50.9h-3
					c-0.4,0-0.8-0.3-0.8-0.8s0.3-0.8,0.8-0.8h3c0.4,0,0.8,0.3,0.8,0.8S291.5,50.9,291.1,50.9z M283.1,50.9h-3
					c-0.4,0-0.8-0.3-0.8-0.8s0.3-0.8,0.8-0.8h3c0.4,0,0.8,0.3,0.8,0.8S283.5,50.9,283.1,50.9z M275.1,50.9h-3
					c-0.4,0-0.8-0.3-0.8-0.8s0.3-0.8,0.8-0.8h3c0.4,0,0.8,0.3,0.8,0.8S275.5,50.9,275.1,50.9z M267.1,50.9h-3
					c-0.4,0-0.8-0.3-0.8-0.8s0.3-0.8,0.8-0.8h3c0.4,0,0.8,0.3,0.8,0.8S267.5,50.9,267.1,50.9z M259.1,50.9h-3
					c-0.4,0-0.8-0.3-0.8-0.8s0.3-0.8,0.8-0.8h3c0.4,0,0.8,0.3,0.8,0.8S259.5,50.9,259.1,50.9z M251.1,50.9h-3
					c-0.4,0-0.8-0.3-0.8-0.8s0.3-0.8,0.8-0.8h3c0.4,0,0.8,0.3,0.8,0.8S251.5,50.9,251.1,50.9z M243.1,50.9h-3
					c-0.4,0-0.8-0.3-0.8-0.8s0.3-0.8,0.8-0.8h3c0.4,0,0.8,0.3,0.8,0.8S243.5,50.9,243.1,50.9z M235.1,50.9h-3
					c-0.4,0-0.8-0.3-0.8-0.8s0.3-0.8,0.8-0.8h3c0.4,0,0.8,0.3,0.8,0.8S235.5,50.9,235.1,50.9z M227.1,50.9h-3
					c-0.4,0-0.8-0.3-0.8-0.8s0.3-0.8,0.8-0.8h3c0.4,0,0.8,0.3,0.8,0.8S227.5,50.9,227.1,50.9z M219.1,50.9h-3
					c-0.4,0-0.8-0.3-0.8-0.8s0.3-0.8,0.8-0.8h3c0.4,0,0.8,0.3,0.8,0.8S219.5,50.9,219.1,50.9z M211.1,50.9h-3
					c-0.4,0-0.8-0.3-0.8-0.8s0.3-0.8,0.8-0.8h3c0.4,0,0.8,0.3,0.8,0.8S211.5,50.9,211.1,50.9z M203.1,50.9h-3
					c-0.4,0-0.8-0.3-0.8-0.8s0.3-0.8,0.8-0.8h3c0.4,0,0.8,0.3,0.8,0.8S203.5,50.9,203.1,50.9z M195.1,50.9h-3
					c-0.4,0-0.8-0.3-0.8-0.8s0.3-0.8,0.8-0.8h3c0.4,0,0.8,0.3,0.8,0.8S195.5,50.9,195.1,50.9z M187.1,50.9h-3
					c-0.4,0-0.8-0.3-0.8-0.8s0.3-0.8,0.8-0.8h3c0.4,0,0.8,0.3,0.8,0.8S187.5,50.9,187.1,50.9z M179.1,50.9h-3
					c-0.4,0-0.8-0.3-0.8-0.8s0.3-0.8,0.8-0.8h3c0.4,0,0.8,0.3,0.8,0.8S179.5,50.9,179.1,50.9z M171.1,50.9h-3
					c-0.4,0-0.8-0.3-0.8-0.8s0.3-0.8,0.8-0.8h3c0.4,0,0.8,0.3,0.8,0.8S171.5,50.9,171.1,50.9z M163.1,50.9h-3
					c-0.4,0-0.8-0.3-0.8-0.8s0.3-0.8,0.8-0.8h3c0.4,0,0.8,0.3,0.8,0.8S163.5,50.9,163.1,50.9z M155.1,50.9h-3
					c-0.4,0-0.8-0.3-0.8-0.8s0.3-0.8,0.8-0.8h3c0.4,0,0.8,0.3,0.8,0.8S155.5,50.9,155.1,50.9z M147.1,50.9h-3
					c-0.4,0-0.8-0.3-0.8-0.8s0.3-0.8,0.8-0.8h3c0.4,0,0.8,0.3,0.8,0.8S147.5,50.9,147.1,50.9z M139.1,50.9h-3
					c-0.4,0-0.8-0.3-0.8-0.8s0.3-0.8,0.8-0.8h3c0.4,0,0.8,0.3,0.8,0.8S139.5,50.9,139.1,50.9z M131.1,50.9h-3
					c-0.4,0-0.8-0.3-0.8-0.8s0.3-0.8,0.8-0.8h3c0.4,0,0.8,0.3,0.8,0.8S131.5,50.9,131.1,50.9z M123.1,50.9h-3
					c-0.4,0-0.8-0.3-0.8-0.8s0.3-0.8,0.8-0.8h3c0.4,0,0.8,0.3,0.8,0.8S123.5,50.9,123.1,50.9z M115.1,50.9h-3
					c-0.4,0-0.8-0.3-0.8-0.8s0.3-0.8,0.8-0.8h3c0.4,0,0.8,0.3,0.8,0.8S115.5,50.9,115.1,50.9z M107.1,50.9h-3
					c-0.4,0-0.8-0.3-0.8-0.8s0.3-0.8,0.8-0.8h3c0.4,0,0.8,0.3,0.8,0.8S107.5,50.9,107.1,50.9z M99.1,50.9h-3c-0.4,0-0.8-0.3-0.8-0.8
					s0.3-0.8,0.8-0.8h3c0.4,0,0.8,0.3,0.8,0.8S99.5,50.9,99.1,50.9z M91.1,50.9h-3c-0.4,0-0.8-0.3-0.8-0.8s0.3-0.8,0.8-0.8h3
					c0.4,0,0.8,0.3,0.8,0.8S91.5,50.9,91.1,50.9z M83.1,50.9h-3c-0.4,0-0.8-0.3-0.8-0.8s0.3-0.8,0.8-0.8h3c0.4,0,0.8,0.3,0.8,0.8
					S83.5,50.9,83.1,50.9z M75.1,50.9h-3c-0.4,0-0.8-0.3-0.8-0.8s0.3-0.8,0.8-0.8h3c0.4,0,0.8,0.3,0.8,0.8S75.5,50.9,75.1,50.9z
					 M67.1,50.9h-3c-0.4,0-0.7-0.3-0.7-0.8s0.3-0.8,0.7-0.8h3c0.4,0,0.8,0.3,0.8,0.8S67.5,50.9,67.1,50.9z"/>
			</g>
		</g>
	</g>
	<g>
		<g>
			<g>
				<g>
					<g>
						<g>
							<g>
								<g>
									<path style="fill:#F7F8FD;" d="M642.1,527.6H78.3c-6.3,0-11.4-5.1-11.4-11.4V77.9c0-6.3,5.1-11.4,11.4-11.4h563.9
										c6.3,0,11.4,5.1,11.4,11.4v438.2C653.6,522.5,648.5,527.6,642.1,527.6z"/>
								</g>
							</g>
						</g>
					</g>
				</g>
			</g>
		</g>
		<g>
			<g>
				<g>
					<g>
						<g>
							<g>
								<g>
									<g>
										<g>
											<g>
												<path style="fill:#3E487A;" d="M470.7,317.1H240c-0.6,0-1-0.4-1-1s0.4-1,1-1h230.7c0.6,0,1,0.4,1,1
													S471.2,317.1,470.7,317.1z"/>
											</g>
										</g>
									</g>
								</g>
							</g>
						</g>
					</g>
					<g>
						<g>
							<g>
								<g>
									<g>
										<g>
											<g>
												<g>
													<polygon style="fill:#3E487A;" points="464.1,307.9 462.7,309.4 469.9,316.1 462.7,322.8 464.1,324.3 472.9,316.1 
																											"/>
												</g>
											</g>
										</g>
									</g>
								</g>
							</g>
						</g>
					</g>
				</g>
			</g>
		</g>
		<g>
			<g>
				<g>
					<g>
						<g>
							<g>
								<g>
									<g>
										<g>
											<g>
												<path style="fill:#3E487A;" d="M479.4,439.3H248.7c-0.6,0-1-0.4-1-1s0.4-1,1-1h230.7c0.6,0,1,0.4,1,1
													S480,439.3,479.4,439.3z"/>
											</g>
										</g>
									</g>
								</g>
							</g>
						</g>
					</g>
					<g>
						<g>
							<g>
								<g>
									<g>
										<g>
											<g>
												<g>
													<polygon style="fill:#3E487A;" points="255.4,446.4 256.7,445 249.5,438.3 256.7,431.6 255.4,430.1 246.6,438.3 
																											"/>
												</g>
											</g>
										</g>
									</g>
								</g>
							</g>
						</g>
					</g>
				</g>
			</g>
		</g>
		<g>
			<g>
				<g>
					<g>
						<g>
							<g>
								<g>
									<path style="fill:#FFFFFF;" d="M435.8,365H290.4c-2.7,0-4.8-2.2-4.8-4.8v-91.1c0-2.7,2.2-4.8,4.8-4.8h145.3
										c2.7,0,4.8,2.2,4.8,4.8v91.1C440.6,362.8,438.4,365,435.8,365z"/>
								</g>
							</g>
						</g>
					</g>
				</g>
			</g>
			<g>
				<g>
					<g>
						<g>
							<g>
								<g>
									<path style="fill:#2A91E9;" d="M435.8,365.8H290.4c-3.1,0-5.6-2.5-5.6-5.6v-91.1c0-3.1,2.5-5.6,5.6-5.6h145.3
										c3.1,0,5.6,2.5,5.6,5.6v91.1C441.3,363.2,438.8,365.8,435.8,365.8z M290.4,265c-2.3,0-4.1,1.8-4.1,4.1v91.1
										c0,2.3,1.8,4.1,4.1,4.1h145.3c2.3,0,4.1-1.8,4.1-4.1v-91.1c0-2.3-1.8-4.1-4.1-4.1H290.4z"/>
								</g>
							</g>
						</g>
					</g>
				</g>
			</g>
		</g>
		<g>
			<g>
				<g>
					<g>
						<g>
							<g>
								<g>
									<path style="fill:#5059C9;" d="M435.8,490H290.4c-2.7,0-4.8-2.2-4.8-4.8v-91.1c0-2.7,2.2-4.8,4.8-4.8h145.3
										c2.7,0,4.8,2.2,4.8,4.8v91.1C440.6,487.9,438.4,490,435.8,490z"/>
								</g>
							</g>
						</g>
					</g>
				</g>
			</g>
			<g>
				<g>
					<g>
						<g>
							<g>
								<g>
									<path style="fill:#FFFFFF;" d="M435.8,490.8H290.4c-3.1,0-5.6-2.5-5.6-5.6v-91.1c0-3.1,2.5-5.6,5.6-5.6h145.3
										c3.1,0,5.6,2.5,5.6,5.6v91.1C441.3,488.3,438.8,490.8,435.8,490.8z M290.4,390c-2.3,0-4.1,1.8-4.1,4.1v91.1
										c0,2.3,1.8,4.1,4.1,4.1h145.3c2.3,0,4.1-1.8,4.1-4.1v-91.1c0-2.3-1.8-4.1-4.1-4.1H290.4z"/>
								</g>
							</g>
						</g>
					</g>
				</g>
			</g>
		</g>
		<g>
			<g>
				<g>
					<g>
						<g>
							<g>
								<g>
									<path style="fill:#E7EAF9;" d="M630.2,490.4h-146c-2.5,0-4.5-2-4.5-4.5V268.3c0-2.5,2-4.5,4.5-4.5h146c2.5,0,4.5,2,4.5,4.5
										v217.6C634.7,488.4,632.6,490.4,630.2,490.4z"/>
								</g>
							</g>
						</g>
					</g>
				</g>
			</g>
			<g>
				<g>
					<g>
						<g>
							<g>
								<g>
									<path style="fill:#5059C9;" d="M630.2,491.1h-146c-2.9,0-5.3-2.4-5.3-5.2V268.3c0-2.9,2.4-5.2,5.3-5.2h146
										c2.9,0,5.3,2.4,5.3,5.2v217.6C635.4,488.8,633,491.1,630.2,491.1z M484.1,264.6c-2.1,0-3.8,1.7-3.8,3.7v217.6
										c0,2.1,1.7,3.7,3.8,3.7h146c2.1,0,3.8-1.7,3.8-3.7V268.3c0-2.1-1.7-3.7-3.8-3.7H484.1z"/>
								</g>
							</g>
						</g>
					</g>
				</g>
			</g>
		</g>
		<g>
			<g>
				<g>
					<g>
						<g>
							<g>
								<g>
									<path style="fill:#FFFFFF;" d="M233.5,264.3H89c-2.7,0-4.8,2.2-4.8,4.8v125v7.1v84c0,2.7,2.2,4.8,4.8,4.8h144.5
										c2.7,0,4.8-2.2,4.8-4.8v-84v-7.1v-125C238.3,266.4,236.2,264.3,233.5,264.3z"/>
								</g>
							</g>
						</g>
					</g>
				</g>
			</g>
			<g>
				<g>
					<g>
						<g>
							<g>
								<g>
									<path style="fill:#2A91E9;" d="M233.5,490.8H89c-3.1,0-5.6-2.5-5.6-5.6V269.1c0-3.1,2.5-5.6,5.6-5.6h144.5
										c3.1,0,5.6,2.5,5.6,5.6v216.1C239.1,488.3,236.6,490.8,233.5,490.8z M89,265c-2.2,0-4.1,1.8-4.1,4.1v216.1
										c0,2.2,1.8,4.1,4.1,4.1h144.5c2.2,0,4.1-1.8,4.1-4.1V269.1c0-2.2-1.8-4.1-4.1-4.1H89z"/>
								</g>
							</g>
						</g>
					</g>
				</g>
			</g>
		</g>
		<g>
			<g>
				<g>
					<g>
						<g>
							<g>
								<g>
									<g>
										<path style="fill:#3E487A;" d="M556.4,457.3c-0.6,0-1-0.4-1-1v-98.2c0-0.6,0.4-1,1-1s1,0.4,1,1v98.2
											C557.4,456.9,556.9,457.3,556.4,457.3z"/>
									</g>
								</g>
							</g>
						</g>
					</g>
				</g>
			</g>
			<g>
				<g>
					<g>
						<g>
							<g>
								<g>
									<g>
										<g>
											<path style="fill:#FFFFFF;" d="M599.3,398.8H515c-0.6,0-1.1-0.5-1.1-1.1v-24.5c0-0.6,0.5-1.1,1.1-1.1h84.4
												c0.6,0,1.1,0.5,1.1,1.1v24.5C600.5,398.3,600,398.8,599.3,398.8z"/>
										</g>
									</g>
								</g>
							</g>
						</g>
					</g>
					<g>
						<g>
							<g>
								<g>
									<g>
										<g>
											<path style="fill:#3E487A;" d="M599.3,399.8H515c-1.2,0-2.1-1-2.1-2.1v-24.5c0-1.2,1-2.1,2.1-2.1h84.4
												c1.2,0,2.1,1,2.1,2.1v24.5C601.5,398.9,600.5,399.8,599.3,399.8z M515,373c-0.1,0-0.1,0.1-0.1,0.1v24.5
												c0,0.1,0.1,0.1,0.1,0.1h84.4c0.1,0,0.1-0.1,0.1-0.1v-24.5c0-0.1-0.1-0.1-0.1-0.1H515z"/>
										</g>
									</g>
								</g>
							</g>
						</g>
					</g>
				</g>
				<g>
					<g>
						<g>
							<g>
								<g>
									<g>
										<g>
											<circle style="fill:#E7EAF9;" cx="527.6" cy="385.4" r="3.1"/>
										</g>
									</g>
								</g>
							</g>
						</g>
					</g>
					<g>
						<g>
							<g>
								<g>
									<g>
										<g>
											<path style="fill:#3E487A;" d="M527.6,389.6c-2.3,0-4.1-1.9-4.1-4.1s1.9-4.1,4.1-4.1s4.1,1.9,4.1,4.1
												S529.9,389.6,527.6,389.6z M527.6,383.3c-1.2,0-2.1,1-2.1,2.1c0,1.2,1,2.1,2.1,2.1s2.1-1,2.1-2.1
												C529.8,384.3,528.8,383.3,527.6,383.3z"/>
										</g>
									</g>
								</g>
							</g>
						</g>
					</g>
				</g>
				<g>
					<g>
						<g>
							<g>
								<g>
									<g>
										<g>
											<path style="fill:#3E487A;" d="M591.2,385.6h-47.8c-0.6,0-1-0.4-1-1s0.4-1,1-1h47.8c0.6,0,1,0.4,1,1
												S591.8,385.6,591.2,385.6z"/>
										</g>
									</g>
								</g>
							</g>
						</g>
					</g>
				</g>
			</g>
			<g>
				<g>
					<g>
						<g>
							<g>
								<g>
									<g>
										<g>
											<path style="fill:#FFFFFF;" d="M599.3,357.6H515c-0.6,0-1.1-0.5-1.1-1.1v-24.5c0-0.6,0.5-1.1,1.1-1.1h84.4
												c0.6,0,1.1,0.5,1.1,1.1v24.5C600.5,357,600,357.6,599.3,357.6z"/>
										</g>
									</g>
								</g>
							</g>
						</g>
					</g>
					<g>
						<g>
							<g>
								<g>
									<g>
										<g>
											<path style="fill:#3E487A;" d="M599.3,358.6H515c-1.2,0-2.1-1-2.1-2.1v-24.5c0-1.2,1-2.1,2.1-2.1h84.4
												c1.2,0,2.1,1,2.1,2.1v24.5C601.5,357.6,600.5,358.6,599.3,358.6z M515,331.8c-0.1,0-0.1,0.1-0.1,0.1v24.5
												c0,0.1,0.1,0.1,0.1,0.1h84.4c0.1,0,0.1-0.1,0.1-0.1v-24.5c0-0.1-0.1-0.1-0.1-0.1H515z"/>
										</g>
									</g>
								</g>
							</g>
						</g>
					</g>
				</g>
				<g>
					<g>
						<g>
							<g>
								<g>
									<g>
										<g>
											<circle style="fill:#E7EAF9;" cx="527.6" cy="344.2" r="3.1"/>
										</g>
									</g>
								</g>
							</g>
						</g>
					</g>
					<g>
						<g>
							<g>
								<g>
									<g>
										<g>
											<path style="fill:#3E487A;" d="M527.6,348.3c-2.3,0-4.1-1.9-4.1-4.1s1.9-4.1,4.1-4.1s4.1,1.9,4.1,4.1
												S529.9,348.3,527.6,348.3z M527.6,342c-1.2,0-2.1,1-2.1,2.1c0,1.2,1,2.1,2.1,2.1s2.1-1,2.1-2.1
												C529.8,343,528.8,342,527.6,342z"/>
										</g>
									</g>
								</g>
							</g>
						</g>
					</g>
				</g>
				<g>
					<g>
						<g>
							<g>
								<g>
									<g>
										<g>
											<path style="fill:#3E487A;" d="M591.2,344.3h-47.8c-0.6,0-1-0.4-1-1s0.4-1,1-1h47.8c0.6,0,1,0.4,1,1
												S591.8,344.3,591.2,344.3z"/>
										</g>
									</g>
								</g>
							</g>
						</g>
					</g>
				</g>
			</g>
			<g>
				<g>
					<g>
						<g>
							<g>
								<g>
									<g>
										<g>
											<path style="fill:#FFFFFF;" d="M599.3,440.1H515c-0.6,0-1.1-0.5-1.1-1.1v-24.5c0-0.6,0.5-1.1,1.1-1.1h84.4
												c0.6,0,1.1,0.5,1.1,1.1V439C600.5,439.6,600,440.1,599.3,440.1z"/>
										</g>
									</g>
								</g>
							</g>
						</g>
					</g>
					<g>
						<g>
							<g>
								<g>
									<g>
										<g>
											<path style="fill:#3E487A;" d="M599.3,441.1H515c-1.2,0-2.1-1-2.1-2.1v-24.5c0-1.2,1-2.1,2.1-2.1h84.4
												c1.2,0,2.1,1,2.1,2.1V439C601.5,440.1,600.5,441.1,599.3,441.1z M515,414.3c-0.1,0-0.1,0.1-0.1,0.1V439
												c0,0.1,0.1,0.1,0.1,0.1h84.4c0.1,0,0.1-0.1,0.1-0.1v-24.5c0-0.1-0.1-0.1-0.1-0.1H515z"/>
										</g>
									</g>
								</g>
							</g>
						</g>
					</g>
				</g>
				<g>
					<g>
						<g>
							<g>
								<g>
									<g>
										<g>
											<circle style="fill:#E7EAF9;" cx="527.6" cy="426.7" r="3.1"/>
										</g>
									</g>
								</g>
							</g>
						</g>
					</g>
					<g>
						<g>
							<g>
								<g>
									<g>
										<g>
											<path style="fill:#3E487A;" d="M527.6,430.8c-2.3,0-4.1-1.9-4.1-4.1s1.9-4.1,4.1-4.1s4.1,1.9,4.1,4.1
												S529.9,430.8,527.6,430.8z M527.6,424.6c-1.2,0-2.1,1-2.1,2.1c0,1.2,1,2.1,2.1,2.1s2.1-1,2.1-2.1
												C529.8,425.5,528.8,424.6,527.6,424.6z"/>
										</g>
									</g>
								</g>
							</g>
						</g>
					</g>
				</g>
				<g>
					<g>
						<g>
							<g>
								<g>
									<g>
										<g>
											<path style="fill:#3E487A;" d="M591.2,426.9h-47.8c-0.6,0-1-0.4-1-1s0.4-1,1-1h47.8c0.6,0,1,0.4,1,1
												S591.8,426.9,591.2,426.9z"/>
										</g>
									</g>
								</g>
							</g>
						</g>
					</g>
				</g>
			</g>
			<g>
				<g>
					<g>
						<g>
							<g>
								<g>
									<g>
										<path style="fill:#3E487A;" d="M599.7,460.9h-85.2c-0.6,0-1-0.4-1-1s0.4-1,1-1h85.2c0.6,0,1,0.4,1,1
											S600.3,460.9,599.7,460.9z"/>
									</g>
								</g>
							</g>
						</g>
					</g>
				</g>
			</g>
			<g>
				<g>
					<g>
						<g>
							<g>
								<g>
									<g>
										<circle style="fill:#E7EAF9;" cx="556.6" cy="459.6" r="3.1"/>
									</g>
								</g>
							</g>
						</g>
					</g>
				</g>
				<g>
					<g>
						<g>
							<g>
								<g>
									<g>
										<path style="fill:#3E487A;" d="M556.6,463.7c-2.3,0-4.1-1.9-4.1-4.1s1.9-4.1,4.1-4.1s4.1,1.9,4.1,4.1
											S558.9,463.7,556.6,463.7z M556.6,457.5c-1.2,0-2.1,1-2.1,2.1s1,2.1,2.1,2.1s2.1-1,2.1-2.1S557.8,457.5,556.6,457.5z"/>
									</g>
								</g>
							</g>
						</g>
					</g>
				</g>
			</g>
		</g>
		<g>
			<g>
				<g>
					<g>
						<g>
							<g>
								<g>
									<path style="fill:#3E487A;" d="M505.9,304l-4.1-16.2h2.2l1.9,8.2c0.5,2,0.9,4,1.2,5.6h0c0.3-1.6,0.8-3.5,1.3-5.6l2.2-8.2
										h2.2l2,8.2c0.5,1.9,0.9,3.8,1.1,5.5h0c0.3-1.8,0.8-3.6,1.3-5.6l2.1-8.2h2.1L517,304h-2.2l-2-8.4c-0.5-2.1-0.8-3.6-1.1-5.3
										h0c-0.3,1.6-0.6,3.2-1.2,5.3l-2.3,8.4H505.9z"/>
								</g>
							</g>
						</g>
					</g>
				</g>
			</g>
			<g>
				<g>
					<g>
						<g>
							<g>
								<g>
									<path style="fill:#3E487A;" d="M523.9,298.5c0,2.9,1.8,4,4,4c1.5,0,2.4-0.3,3.2-0.6l0.4,1.5c-0.7,0.3-2,0.7-3.9,0.7
										c-3.6,0-5.7-2.4-5.7-5.9c0-3.5,2.1-6.2,5.4-6.2c3.8,0,4.8,3.3,4.8,5.4c0,0.4,0,0.7-0.1,1H523.9z M530.1,297
										c0-1.3-0.6-3.4-2.9-3.4c-2.2,0-3.1,1.9-3.2,3.4H530.1z"/>
								</g>
							</g>
						</g>
					</g>
				</g>
			</g>
			<g>
				<g>
					<g>
						<g>
							<g>
								<g>
									<path style="fill:#3E487A;" d="M534.7,286.9h2.1v7.3h0c0.7-1.3,2.1-2.1,4-2.1c2.9,0,4.9,2.4,4.9,5.9c0,4.2-2.6,6.2-5.2,6.2
										c-1.7,0-3-0.6-3.9-2.2h0l-0.1,1.9h-1.8c0-0.8,0.1-2,0.1-3V286.9z M536.8,299.3c0,0.3,0,0.5,0.1,0.8
										c0.4,1.5,1.6,2.5,3.2,2.5c2.2,0,3.5-1.8,3.5-4.5c0-2.3-1.2-4.3-3.5-4.3c-1.4,0-2.8,1-3.2,2.6c-0.1,0.3-0.1,0.6-0.1,0.9
										V299.3z"/>
								</g>
							</g>
						</g>
					</g>
				</g>
			</g>
			<g>
				<g>
					<g>
						<g>
							<g>
								<g>
									<path style="fill:#3E487A;" d="M553.2,301.8c0.6,0.4,1.8,0.8,2.8,0.8c1.5,0,2.2-0.7,2.2-1.7c0-1-0.6-1.5-2.1-2.1
										c-2.1-0.8-3.1-1.9-3.1-3.3c0-1.9,1.5-3.4,4-3.4c1.2,0,2.2,0.3,2.8,0.7l-0.5,1.5c-0.5-0.3-1.3-0.7-2.4-0.7
										c-1.2,0-1.9,0.7-1.9,1.6c0,1,0.7,1.4,2.2,2c2,0.7,3,1.8,3,3.5c0,2.1-1.6,3.5-4.3,3.5c-1.3,0-2.4-0.3-3.3-0.8L553.2,301.8z"
										/>
								</g>
							</g>
						</g>
					</g>
				</g>
			</g>
			<g>
				<g>
					<g>
						<g>
							<g>
								<g>
									<path style="fill:#3E487A;" d="M564.1,298.5c0,2.9,1.8,4,4,4c1.5,0,2.4-0.3,3.2-0.6l0.4,1.5c-0.7,0.3-2,0.7-3.9,0.7
										c-3.6,0-5.7-2.4-5.7-5.9c0-3.5,2.1-6.2,5.4-6.2c3.8,0,4.8,3.3,4.8,5.4c0,0.4,0,0.7-0.1,1H564.1z M570.3,297
										c0-1.3-0.6-3.4-2.9-3.4c-2.2,0-3.1,1.9-3.2,3.4H570.3z"/>
								</g>
							</g>
						</g>
					</g>
				</g>
			</g>
			<g>
				<g>
					<g>
						<g>
							<g>
								<g>
									<path style="fill:#3E487A;" d="M575,296c0-1.4,0-2.5-0.1-3.6h1.8l0.1,2.3h0.1c0.5-1.6,1.8-2.5,3.2-2.5c0.2,0,0.4,0,0.6,0v2
										c-0.2,0-0.4,0-0.7,0c-1.5,0-2.5,1.1-2.8,2.7c0,0.3-0.1,0.6-0.1,1v6.2H575V296z"/>
								</g>
							</g>
						</g>
					</g>
				</g>
			</g>
			<g>
				<g>
					<g>
						<g>
							<g>
								<g>
									<path style="fill:#3E487A;" d="M584.3,292.4l2.3,6.5c0.4,1.1,0.7,2,0.9,3h0.1c0.3-1,0.6-1.9,1-3l2.3-6.5h2.2l-4.6,11.6h-2
										l-4.4-11.6H584.3z"/>
								</g>
							</g>
						</g>
					</g>
				</g>
			</g>
			<g>
				<g>
					<g>
						<g>
							<g>
								<g>
									<path style="fill:#3E487A;" d="M595.9,298.5c0,2.9,1.8,4,4,4c1.5,0,2.4-0.3,3.2-0.6l0.4,1.5c-0.7,0.3-2,0.7-3.9,0.7
										c-3.6,0-5.7-2.4-5.7-5.9c0-3.5,2.1-6.2,5.4-6.2c3.8,0,4.8,3.3,4.8,5.4c0,0.4,0,0.7-0.1,1H595.9z M602.1,297
										c0-1.3-0.6-3.4-2.9-3.4c-2.2,0-3.1,1.9-3.2,3.4H602.1z"/>
								</g>
							</g>
						</g>
					</g>
				</g>
			</g>
			<g>
				<g>
					<g>
						<g>
							<g>
								<g>
									<path style="fill:#3E487A;" d="M606.8,296c0-1.4,0-2.5-0.1-3.6h1.8l0.1,2.3h0.1c0.5-1.6,1.8-2.5,3.2-2.5c0.2,0,0.4,0,0.6,0
										v2c-0.2,0-0.4,0-0.7,0c-1.5,0-2.5,1.1-2.8,2.7c0,0.3-0.1,0.6-0.1,1v6.2h-2.1V296z"/>
								</g>
							</g>
						</g>
					</g>
				</g>
			</g>
		</g>
		<g>
			<g>
				<g>
					<g>
						<g>
							<g>
								<g>
									<path style="fill:#3E487A;" d="M338.4,291.7v7.3h8.5v-7.3h2.3v17.5h-2.3V301h-8.5v8.2h-2.3v-17.5H338.4z"/>
								</g>
							</g>
						</g>
					</g>
				</g>
			</g>
			<g>
				<g>
					<g>
						<g>
							<g>
								<g>
									<path style="fill:#3E487A;" d="M356.4,293.6H351v-1.9h13v1.9h-5.4v15.6h-2.3V293.6z"/>
								</g>
							</g>
						</g>
					</g>
				</g>
			</g>
			<g>
				<g>
					<g>
						<g>
							<g>
								<g>
									<path style="fill:#3E487A;" d="M370.3,293.6H365v-1.9h13v1.9h-5.4v15.6h-2.3V293.6z"/>
								</g>
							</g>
						</g>
					</g>
				</g>
			</g>
			<g>
				<g>
					<g>
						<g>
							<g>
								<g>
									<path style="fill:#3E487A;" d="M379.9,291.9c1.1-0.2,2.5-0.3,4.3-0.3c2.2,0,3.9,0.5,4.9,1.5c0.9,0.8,1.5,2.1,1.5,3.7
										c0,1.6-0.5,2.8-1.4,3.7c-1.2,1.3-3.1,1.9-5.4,1.9c-0.7,0-1.3,0-1.8-0.2v7h-2.3V291.9z M382.1,300.3
										c0.5,0.1,1.1,0.2,1.9,0.2c2.7,0,4.4-1.4,4.4-3.7c0-2.3-1.7-3.5-4.1-3.5c-1,0-1.7,0.1-2.1,0.2V300.3z"/>
								</g>
							</g>
						</g>
					</g>
				</g>
			</g>
			<g>
				<g>
					<g>
						<g>
							<g>
								<g>
									<path style="fill:#3E487A;" d="M323.8,326.7c0-1.5,0-2.8-0.1-3.9h2l0.1,2.5h0.1c0.6-1.7,2-2.8,3.5-2.8c0.2,0,0.4,0,0.6,0.1
										v2.2c-0.2-0.1-0.5-0.1-0.8-0.1c-1.6,0-2.8,1.2-3.1,2.9c-0.1,0.3-0.1,0.7-0.1,1.1v6.7h-2.3V326.7z"/>
								</g>
							</g>
						</g>
					</g>
				</g>
			</g>
			<g>
				<g>
					<g>
						<g>
							<g>
								<g>
									<path style="fill:#3E487A;" d="M333.3,329.5c0.1,3.1,2,4.4,4.3,4.4c1.6,0,2.7-0.3,3.5-0.6l0.4,1.6
										c-0.8,0.4-2.2,0.8-4.2,0.8c-3.9,0-6.2-2.6-6.2-6.4c0-3.8,2.2-6.8,5.9-6.8c4.1,0,5.2,3.6,5.2,5.9c0,0.5,0,0.8-0.1,1.1H333.3
										z M340,327.8c0-1.4-0.6-3.7-3.2-3.7c-2.3,0-3.3,2.1-3.5,3.7H340z"/>
								</g>
							</g>
						</g>
					</g>
				</g>
			</g>
			<g>
				<g>
					<g>
						<g>
							<g>
								<g>
									<path style="fill:#3E487A;" d="M353.6,333.4L353.6,333.4c-0.8,1.2-2.1,2.2-4.2,2.2c-2.9,0-5.3-2.5-5.3-6.3
										c0-4.7,3-6.8,5.7-6.8c1.9,0,3.3,1,3.9,2.2h0.1l0.1-1.9h2.2c-0.1,1-0.1,2.2-0.1,3.5v14.3h-2.3V333.4z M353.6,327.9
										c0-0.3,0-0.6-0.1-0.9c-0.4-1.4-1.6-2.6-3.3-2.6c-2.4,0-3.8,2-3.8,4.8c0,2.5,1.2,4.7,3.7,4.7c1.5,0,2.8-0.9,3.3-2.5
										c0.1-0.3,0.2-0.8,0.2-1.1V327.9z"/>
								</g>
							</g>
						</g>
					</g>
				</g>
			</g>
			<g>
				<g>
					<g>
						<g>
							<g>
								<g>
									<path style="fill:#3E487A;" d="M370.2,331.9c0,1.3,0,2.5,0.1,3.5h-2l-0.1-2.1h-0.1c-0.6,1-1.9,2.3-4.2,2.3
										c-2,0-4.3-1.1-4.3-5.5v-7.4h2.3v6.9c0,2.4,0.8,4,2.8,4c1.5,0,2.6-1.1,3-2.1c0.1-0.3,0.2-0.7,0.2-1.2v-7.7h2.3V331.9z"/>
								</g>
							</g>
						</g>
					</g>
				</g>
			</g>
			<g>
				<g>
					<g>
						<g>
							<g>
								<g>
									<path style="fill:#3E487A;" d="M375.3,329.5c0.1,3.1,2,4.4,4.3,4.4c1.6,0,2.7-0.3,3.5-0.6l0.4,1.6
										c-0.8,0.4-2.2,0.8-4.2,0.8c-3.9,0-6.2-2.6-6.2-6.4c0-3.8,2.2-6.8,5.9-6.8c4.1,0,5.2,3.6,5.2,5.9c0,0.5,0,0.8-0.1,1.1H375.3
										z M382,327.8c0-1.4-0.6-3.7-3.2-3.7c-2.3,0-3.3,2.1-3.5,3.7H382z"/>
								</g>
							</g>
						</g>
					</g>
				</g>
			</g>
			<g>
				<g>
					<g>
						<g>
							<g>
								<g>
									<path style="fill:#3E487A;" d="M386.7,333c0.7,0.4,1.9,0.9,3,0.9c1.6,0,2.4-0.8,2.4-1.9c0-1.1-0.7-1.7-2.3-2.3
										c-2.3-0.8-3.4-2.1-3.4-3.6c0-2,1.7-3.7,4.3-3.7c1.3,0,2.4,0.3,3.1,0.8l-0.5,1.7c-0.5-0.3-1.4-0.8-2.6-0.8
										c-1.4,0-2.1,0.8-2.1,1.7c0,1,0.7,1.5,2.4,2.2c2.2,0.8,3.3,1.9,3.3,3.8c0,2.2-1.7,3.8-4.7,3.8c-1.4,0-2.7-0.4-3.5-0.9
										L386.7,333z"/>
								</g>
							</g>
						</g>
					</g>
				</g>
			</g>
			<g>
				<g>
					<g>
						<g>
							<g>
								<g>
									<path style="fill:#3E487A;" d="M400.1,319.7v3h3.3v1.7h-3.3v6.8c0,1.6,0.4,2.4,1.7,2.4c0.6,0,1-0.1,1.3-0.2l0.1,1.7
										c-0.4,0.2-1.1,0.3-2,0.3c-1.1,0-1.9-0.4-2.5-1c-0.6-0.7-0.9-1.8-0.9-3.3v-6.9h-2v-1.7h2v-2.3L400.1,319.7z"/>
								</g>
							</g>
						</g>
					</g>
				</g>
			</g>
		</g>
		<g>
			<g>
				<g>
					<g>
						<g>
							<g>
								<g>
									<path style="fill:#FFFFFF;" d="M308.1,428.4c1.4-0.2,3-0.4,4.8-0.4c3.3,0,5.6,0.8,7.1,2.2c1.6,1.4,2.5,3.5,2.5,6.3
										c0,2.9-0.9,5.2-2.5,6.8c-1.7,1.6-4.4,2.5-7.8,2.5c-1.6,0-3-0.1-4.1-0.2V428.4z M310.4,443.9c0.6,0.1,1.4,0.1,2.3,0.1
										c4.9,0,7.5-2.7,7.5-7.4c0-4.1-2.3-6.8-7.1-6.8c-1.2,0-2.1,0.1-2.7,0.2V443.9z"/>
								</g>
							</g>
						</g>
					</g>
				</g>
			</g>
			<g>
				<g>
					<g>
						<g>
							<g>
								<g>
									<path style="fill:#FFFFFF;" d="M334.2,442.7c0,1.1,0.1,2.2,0.2,3h-2.1l-0.2-1.6h-0.1c-0.7,1-2.1,1.9-3.8,1.9
										c-2.5,0-3.8-1.8-3.8-3.6c0-3,2.7-4.7,7.6-4.7v-0.3c0-1-0.3-2.9-2.9-2.9c-1.2,0-2.4,0.3-3.3,0.9l-0.5-1.5
										c1-0.6,2.6-1.1,4.2-1.1c3.8,0,4.8,2.6,4.8,5.1V442.7z M332,439.3c-2.5-0.1-5.3,0.4-5.3,2.8c0,1.5,1,2.2,2.1,2.2
										c1.7,0,2.7-1,3.1-2.1c0.1-0.3,0.1-0.5,0.1-0.7V439.3z"/>
								</g>
							</g>
						</g>
					</g>
				</g>
			</g>
			<g>
				<g>
					<g>
						<g>
							<g>
								<g>
									<path style="fill:#FFFFFF;" d="M340.6,430.1v3h3.3v1.7h-3.3v6.8c0,1.6,0.4,2.4,1.7,2.4c0.6,0,1-0.1,1.3-0.2l0.1,1.7
										c-0.4,0.2-1.1,0.3-2,0.3c-1.1,0-1.9-0.4-2.5-1c-0.6-0.7-0.9-1.8-0.9-3.3v-6.9h-1.9v-1.7h1.9v-2.3L340.6,430.1z"/>
								</g>
							</g>
						</g>
					</g>
				</g>
			</g>
			<g>
				<g>
					<g>
						<g>
							<g>
								<g>
									<path style="fill:#FFFFFF;" d="M355.2,442.7c0,1.1,0.1,2.2,0.2,3h-2.1l-0.2-1.6h-0.1c-0.7,1-2.1,1.9-3.8,1.9
										c-2.5,0-3.8-1.8-3.8-3.6c0-3,2.7-4.7,7.6-4.7v-0.3c0-1-0.3-2.9-2.9-2.9c-1.2,0-2.4,0.3-3.3,0.9l-0.5-1.5
										c1-0.6,2.6-1.1,4.2-1.1c3.8,0,4.8,2.6,4.8,5.1V442.7z M353,439.3c-2.5-0.1-5.3,0.4-5.3,2.8c0,1.5,1,2.2,2.1,2.2
										c1.7,0,2.7-1,3.1-2.1c0.1-0.3,0.1-0.5,0.1-0.7V439.3z"/>
								</g>
							</g>
						</g>
					</g>
				</g>
			</g>
			<g>
				<g>
					<g>
						<g>
							<g>
								<g>
									<path style="fill:#FFFFFF;" d="M369.4,427.6c-1.9,2.6-3.3,5.9-3.3,10.7c0,4.6,1.4,7.9,3.3,10.5h-1.8
										c-1.6-2.2-3.4-5.5-3.4-10.6c0-5.1,1.8-8.5,3.4-10.6H369.4z"/>
								</g>
							</g>
						</g>
					</g>
				</g>
			</g>
			<g>
				<g>
					<g>
						<g>
							<g>
								<g>
									<path style="fill:#FFFFFF;" d="M374.6,430.1v3h3.3v1.7h-3.3v6.8c0,1.6,0.4,2.4,1.7,2.4c0.6,0,1-0.1,1.3-0.2l0.1,1.7
										c-0.4,0.2-1.1,0.3-2,0.3c-1.1,0-1.9-0.4-2.5-1c-0.6-0.7-0.9-1.8-0.9-3.3v-6.9h-2v-1.7h2v-2.3L374.6,430.1z"/>
								</g>
							</g>
						</g>
					</g>
				</g>
			</g>
			<g>
				<g>
					<g>
						<g>
							<g>
								<g>
									<path style="fill:#FFFFFF;" d="M381.6,439.8c0.1,3.1,2,4.4,4.3,4.4c1.6,0,2.7-0.3,3.5-0.7l0.4,1.6
										c-0.8,0.4-2.2,0.8-4.2,0.8c-3.9,0-6.2-2.6-6.2-6.4c0-3.8,2.2-6.8,5.9-6.8c4.1,0,5.2,3.6,5.2,5.9c0,0.5,0,0.8-0.1,1.1H381.6
										z M388.3,438.2c0-1.4-0.6-3.7-3.2-3.7c-2.3,0-3.3,2.1-3.5,3.7H388.3z"/>
								</g>
							</g>
						</g>
					</g>
				</g>
			</g>
			<g>
				<g>
					<g>
						<g>
							<g>
								<g>
									<path style="fill:#FFFFFF;" d="M394.3,433.1l1.8,2.7c0.5,0.7,0.9,1.3,1.3,2h0.1c0.4-0.7,0.8-1.4,1.3-2.1l1.7-2.7h2.5
										l-4.3,6.1l4.4,6.5h-2.6l-1.9-2.8c-0.5-0.7-0.9-1.4-1.4-2.2h-0.1c-0.4,0.8-0.8,1.4-1.3,2.2l-1.8,2.8h-2.5l4.5-6.4l-4.3-6.2
										H394.3z"/>
								</g>
							</g>
						</g>
					</g>
				</g>
			</g>
			<g>
				<g>
					<g>
						<g>
							<g>
								<g>
									<path style="fill:#FFFFFF;" d="M408.4,430.1v3h3.3v1.7h-3.3v6.8c0,1.6,0.4,2.4,1.7,2.4c0.6,0,1-0.1,1.3-0.2l0.1,1.7
										c-0.4,0.2-1.1,0.3-2,0.3c-1.1,0-1.9-0.4-2.5-1c-0.6-0.7-0.9-1.8-0.9-3.3v-6.9h-2v-1.7h2v-2.3L408.4,430.1z"/>
								</g>
							</g>
						</g>
					</g>
				</g>
			</g>
			<g>
				<g>
					<g>
						<g>
							<g>
								<g>
									<path style="fill:#FFFFFF;" d="M412.8,448.8c1.8-2.6,3.3-5.9,3.3-10.6s-1.4-8-3.3-10.6h1.8c1.6,2.1,3.4,5.5,3.4,10.6
										c0,5.1-1.8,8.4-3.4,10.6H412.8z"/>
								</g>
							</g>
						</g>
					</g>
				</g>
			</g>
		</g>
		<g>
			<g>
				<g>
					<g>
						<g>
							<g>
								<g>
									<circle style="fill:#3E487A;" cx="479.6" cy="438.3" r="3.8"/>
								</g>
							</g>
						</g>
					</g>
				</g>
			</g>
		</g>
		<g>
			<g>
				<g>
					<g>
						<g>
							<g>
								<g>
									<path style="fill:#FFFFFF;" d="M630.2,84.9h-3.4H92.4H89c-3.5,0-6.3,2.8-6.3,6.3V218c0,3.5,2.8,6.3,6.3,6.3h3.4h534.4h3.4
										c3.5,0,6.3-2.8,6.3-6.3V91.2C636.5,87.7,633.7,84.9,630.2,84.9z"/>
								</g>
							</g>
						</g>
					</g>
				</g>
			</g>
		</g>
		<g>
			<g>
				<g>
					<g>
						<g>
							<g>
								<g>
									<path style="fill:#3E487A;" d="M215.6,166.2l-6.4-27h6.5l2,11.1c0.6,3.2,1.2,6.7,1.6,9.5h0.1c0.4-2.9,1.1-6.2,1.8-9.5
										l2.3-11h6.5l2.2,11.4c0.6,3.2,1,6.1,1.4,9.1h0.1c0.4-3,1-6.2,1.6-9.4l2.2-11h6.2l-7,27H230l-2.3-11.6
										c-0.5-2.7-1-5.3-1.3-8.3h-0.1c-0.5,3-0.9,5.6-1.6,8.3l-2.6,11.6H215.6z"/>
								</g>
							</g>
						</g>
					</g>
				</g>
			</g>
			<g>
				<g>
					<g>
						<g>
							<g>
								<g>
									<path style="fill:#3E487A;" d="M262.9,154.7h-9.9v6.4H264v5h-17.2v-27h16.6v5h-10.5v5.6h9.9V154.7z"/>
								</g>
							</g>
						</g>
					</g>
				</g>
			</g>
			<g>
				<g>
					<g>
						<g>
							<g>
								<g>
									<path style="fill:#3E487A;" d="M268.2,139.5c1.6-0.3,4.8-0.6,7.9-0.6c3.7,0,6,0.4,8,1.5c1.9,1,3.2,2.8,3.2,5.3
										c0,2.4-1.4,4.6-4.5,5.7v0.1c3.1,0.8,5.4,3.2,5.4,6.6c0,2.5-1.1,4.4-2.8,5.8c-2,1.6-5.3,2.4-10.6,2.4c-3,0-5.3-0.2-6.6-0.4
										V139.5z M274.3,149.9h2c3.2,0,4.9-1.3,4.9-3.3c0-2-1.6-3.1-4.3-3.1c-1.4,0-2.1,0.1-2.6,0.2V149.9z M274.3,161.8
										c0.6,0.1,1.3,0.1,2.4,0.1c2.8,0,5.2-1.1,5.2-3.9c0-2.7-2.4-3.8-5.5-3.8h-2.1V161.8z"/>
								</g>
							</g>
						</g>
					</g>
				</g>
			</g>
			<g>
				<g>
					<g>
						<g>
							<g>
								<g>
									<path style="fill:#3E487A;" d="M306.8,159.2l-1.9,6.9h-6.3l8.2-27h8l8.4,27h-6.6l-2.1-6.9H306.8z M313.7,154.7l-1.7-5.7
										c-0.5-1.6-1-3.6-1.4-5.2h-0.1c-0.4,1.6-0.8,3.6-1.2,5.2l-1.6,5.7H313.7z"/>
								</g>
							</g>
						</g>
					</g>
				</g>
			</g>
			<g>
				<g>
					<g>
						<g>
							<g>
								<g>
									<path style="fill:#3E487A;" d="M326.8,139.5c1.9-0.3,4.5-0.6,8.3-0.6c3.8,0,6.5,0.7,8.3,2.2c1.8,1.4,2.9,3.6,2.9,6.3
										c0,2.6-0.8,4.9-2.5,6.4c-2.1,1.9-5.2,2.8-8.8,2.8c-0.8,0-1.5,0-2.1-0.2v9.7h-6.1V139.5z M332.9,151.8
										c0.5,0.1,1.1,0.2,2,0.2c3.2,0,5.3-1.6,5.3-4.4c0-2.5-1.7-4-4.8-4c-1.2,0-2,0.1-2.5,0.2V151.8z"/>
								</g>
							</g>
						</g>
					</g>
				</g>
			</g>
			<g>
				<g>
					<g>
						<g>
							<g>
								<g>
									<path style="fill:#3E487A;" d="M356.3,139.1v27h-6.1v-27H356.3z"/>
								</g>
							</g>
						</g>
					</g>
				</g>
			</g>
			<g>
				<g>
					<g>
						<g>
							<g>
								<g>
									<path style="fill:#3E487A;" d="M369.9,159.9c1.6,0.8,4.2,1.7,6.8,1.7c2.8,0,4.3-1.2,4.3-2.9c0-1.7-1.3-2.6-4.5-3.8
										c-4.5-1.6-7.5-4.1-7.5-8c0-4.6,3.9-8.1,10.2-8.1c3.1,0,5.3,0.6,6.9,1.4l-1.4,4.9c-1-0.5-3-1.3-5.6-1.3
										c-2.6,0-3.9,1.2-3.9,2.6c0,1.7,1.5,2.5,5,3.8c4.8,1.8,7,4.3,7,8.1c0,4.5-3.4,8.4-10.9,8.4c-3.1,0-6.1-0.8-7.7-1.7
										L369.9,159.9z"/>
								</g>
							</g>
						</g>
					</g>
				</g>
			</g>
			<g>
				<g>
					<g>
						<g>
							<g>
								<g>
									<path style="fill:#3E487A;" d="M397.6,166.2v-11.1l-8.5-16h7l2.7,6.5c0.8,2,1.4,3.4,2.1,5.2h0.1c0.6-1.7,1.2-3.2,2-5.2
										l2.7-6.5h6.9l-8.9,15.8v11.3H397.6z"/>
								</g>
							</g>
						</g>
					</g>
				</g>
			</g>
			<g>
				<g>
					<g>
						<g>
							<g>
								<g>
									<path style="fill:#3E487A;" d="M414.5,159.9c1.6,0.8,4.2,1.7,6.8,1.7c2.8,0,4.3-1.2,4.3-2.9c0-1.7-1.3-2.6-4.5-3.8
										c-4.5-1.6-7.5-4.1-7.5-8c0-4.6,3.9-8.1,10.2-8.1c3.1,0,5.3,0.6,6.9,1.4l-1.4,4.9c-1-0.5-3-1.3-5.6-1.3
										c-2.6,0-3.9,1.2-3.9,2.6c0,1.7,1.5,2.5,5,3.8c4.8,1.8,7,4.3,7,8.1c0,4.5-3.4,8.4-10.9,8.4c-3.1,0-6.1-0.8-7.7-1.7
										L414.5,159.9z"/>
								</g>
							</g>
						</g>
					</g>
				</g>
			</g>
			<g>
				<g>
					<g>
						<g>
							<g>
								<g>
									<path style="fill:#3E487A;" d="M441.2,144.3h-7.3v-5.1h20.8v5.1h-7.4v21.9h-6.1V144.3z"/>
								</g>
							</g>
						</g>
					</g>
				</g>
			</g>
			<g>
				<g>
					<g>
						<g>
							<g>
								<g>
									<path style="fill:#3E487A;" d="M474,154.7h-9.9v6.4h11.1v5H458v-27h16.6v5h-10.5v5.6h9.9V154.7z"/>
								</g>
							</g>
						</g>
					</g>
				</g>
			</g>
			<g>
				<g>
					<g>
						<g>
							<g>
								<g>
									<path style="fill:#3E487A;" d="M502.2,155.8c-0.1-3.2-0.2-7.2-0.2-11.1h-0.1c-0.9,3.4-2,7.3-3,10.5l-3.3,10.5h-4.8
										l-2.9-10.4c-0.9-3.2-1.8-7.1-2.4-10.6h-0.1c-0.1,3.6-0.3,7.8-0.4,11.2l-0.5,10.3h-5.7l1.7-27h8.1l2.6,9
										c0.9,3.1,1.7,6.5,2.3,9.7h0.2c0.7-3.1,1.6-6.7,2.6-9.7l2.8-9h8l1.4,27h-5.9L502.2,155.8z"/>
								</g>
							</g>
						</g>
					</g>
				</g>
			</g>
		</g>
		<g>
			<g>
				<g>
					<g>
						<g>
							<g>
								<g>
									<circle style="fill:#3E487A;" cx="240.4" cy="316.5" r="3.8"/>
								</g>
							</g>
						</g>
					</g>
				</g>
			</g>
		</g>
		<g>
			<g>
				<g>
					<g>
						<g>
							<g>
								<g>
									<g>
										<path style="fill:#3E487A;" d="M183.2,343.2h-3.3V342h8v1.2h-3.3v9.6h-1.4V343.2z"/>
									</g>
								</g>
							</g>
						</g>
					</g>
				</g>
				<g>
					<g>
						<g>
							<g>
								<g>
									<g>
										<path style="fill:#3E487A;" d="M194.9,348.9c0,2.9-2,4.1-3.9,4.1c-2.1,0-3.7-1.5-3.7-4c0-2.6,1.7-4.1,3.8-4.1
											C193.4,344.9,194.9,346.5,194.9,348.9z M188.8,349c0,1.7,1,3,2.3,3c1.3,0,2.4-1.3,2.4-3c0-1.3-0.7-3-2.3-3
											C189.5,346,188.8,347.5,188.8,349z"/>
									</g>
								</g>
							</g>
						</g>
					</g>
				</g>
				<g>
					<g>
						<g>
							<g>
								<g>
									<g>
										<path style="fill:#3E487A;" d="M203.7,348.9c0,2.9-2,4.1-3.9,4.1c-2.1,0-3.7-1.5-3.7-4c0-2.6,1.7-4.1,3.8-4.1
											C202.2,344.9,203.7,346.5,203.7,348.9z M197.6,349c0,1.7,1,3,2.3,3c1.3,0,2.4-1.3,2.4-3c0-1.3-0.7-3-2.3-3
											C198.3,346,197.6,347.5,197.6,349z"/>
									</g>
								</g>
							</g>
						</g>
					</g>
				</g>
				<g>
					<g>
						<g>
							<g>
								<g>
									<g>
										<path style="fill:#3E487A;" d="M205.5,341.5h1.4v11.4h-1.4V341.5z"/>
									</g>
								</g>
							</g>
						</g>
					</g>
				</g>
				<g>
					<g>
						<g>
							<g>
								<g>
									<g>
										<path style="fill:#3E487A;" d="M209.1,351.4c0.4,0.3,1.2,0.5,1.9,0.5c1,0,1.5-0.5,1.5-1.2c0-0.7-0.4-1-1.4-1.4
											c-1.4-0.5-2.1-1.3-2.1-2.2c0-1.2,1-2.3,2.7-2.3c0.8,0,1.5,0.2,1.9,0.5l-0.3,1c-0.3-0.2-0.9-0.5-1.6-0.5
											c-0.8,0-1.3,0.5-1.3,1.1c0,0.6,0.4,0.9,1.5,1.3c1.3,0.5,2,1.2,2,2.3c0,1.4-1.1,2.3-2.9,2.3c-0.8,0-1.6-0.2-2.2-0.5
											L209.1,351.4z"/>
									</g>
								</g>
							</g>
						</g>
					</g>
				</g>
			</g>
			<g>
				<g>
					<g>
						<g>
							<g>
								<g>
									<g>
										<path style="fill:#3E487A;" d="M104.8,337.4h5.8v1.2h-4.4v3.6h4.1v1.2h-4.1v4.9h-1.4V337.4z"/>
									</g>
								</g>
							</g>
						</g>
					</g>
				</g>
				<g>
					<g>
						<g>
							<g>
								<g>
									<g>
										<path style="fill:#3E487A;" d="M112.2,342.8c0-0.9,0-1.7-0.1-2.4h1.2l0.1,1.5h0c0.4-1,1.2-1.7,2.2-1.7c0.1,0,0.3,0,0.4,0
											v1.3c-0.1,0-0.3,0-0.5,0c-1,0-1.7,0.7-1.9,1.8c0,0.2,0,0.4,0,0.7v4.1h-1.4V342.8z"/>
									</g>
								</g>
							</g>
						</g>
					</g>
				</g>
				<g>
					<g>
						<g>
							<g>
								<g>
									<g>
										<path style="fill:#3E487A;" d="M124.2,344.2c0,2.9-2,4.1-3.9,4.1c-2.1,0-3.7-1.5-3.7-4c0-2.6,1.7-4.1,3.8-4.1
											C122.7,340.3,124.2,341.9,124.2,344.2z M118.1,344.3c0,1.7,1,3,2.3,3c1.3,0,2.4-1.3,2.4-3c0-1.3-0.7-3-2.3-3
											C118.8,341.3,118.1,342.9,118.1,344.3z"/>
									</g>
								</g>
							</g>
						</g>
					</g>
				</g>
				<g>
					<g>
						<g>
							<g>
								<g>
									<g>
										<path style="fill:#3E487A;" d="M126,342.5c0-0.8,0-1.5-0.1-2.1h1.2l0.1,1.3h0c0.4-0.7,1.3-1.4,2.6-1.4
											c1.1,0,2.7,0.6,2.7,3.3v4.6h-1.4v-4.5c0-1.2-0.5-2.3-1.8-2.3c-0.9,0-1.6,0.7-1.9,1.4c-0.1,0.2-0.1,0.4-0.1,0.7v4.7H126
											V342.5z"/>
									</g>
								</g>
							</g>
						</g>
					</g>
				</g>
				<g>
					<g>
						<g>
							<g>
								<g>
									<g>
										<path style="fill:#3E487A;" d="M136.5,338.6v1.9h2v1.1h-2v4.2c0,1,0.3,1.5,1.1,1.5c0.4,0,0.6,0,0.8-0.1l0.1,1.1
											c-0.3,0.1-0.7,0.2-1.2,0.2c-0.7,0-1.2-0.2-1.5-0.6c-0.4-0.4-0.5-1.1-0.5-2v-4.2H134v-1.1h1.2V339L136.5,338.6z"/>
									</g>
								</g>
							</g>
						</g>
					</g>
				</g>
				<g>
					<g>
						<g>
							<g>
								<g>
									<g>
										<path style="fill:#3E487A;" d="M98.9,362.4c0.4,0.3,1.2,0.5,1.9,0.5c1,0,1.5-0.5,1.5-1.2c0-0.7-0.4-1-1.4-1.4
											c-1.4-0.5-2.1-1.3-2.1-2.2c0-1.2,1-2.3,2.7-2.3c0.8,0,1.5,0.2,1.9,0.5l-0.3,1c-0.3-0.2-0.9-0.5-1.6-0.5
											c-0.8,0-1.3,0.5-1.3,1.1c0,0.6,0.4,0.9,1.5,1.3c1.3,0.5,2,1.2,2,2.3c0,1.4-1.1,2.3-2.9,2.3c-0.8,0-1.6-0.2-2.2-0.5
											L98.9,362.4z"/>
									</g>
								</g>
							</g>
						</g>
					</g>
				</g>
				<g>
					<g>
						<g>
							<g>
								<g>
									<g>
										<path style="fill:#3E487A;" d="M106,356.1l1.7,4.6c0.2,0.5,0.4,1.1,0.5,1.6h0c0.1-0.5,0.3-1.1,0.5-1.6l1.5-4.5h1.5
											l-2.1,5.5c-1,2.7-1.7,4-2.7,4.9c-0.7,0.6-1.4,0.8-1.7,0.9l-0.4-1.2c0.4-0.1,0.8-0.3,1.2-0.7c0.4-0.3,0.8-0.8,1.2-1.6
											c0.1-0.1,0.1-0.3,0.1-0.3s0-0.2-0.1-0.4l-2.8-7.1H106z"/>
									</g>
								</g>
							</g>
						</g>
					</g>
				</g>
				<g>
					<g>
						<g>
							<g>
								<g>
									<g>
										<path style="fill:#3E487A;" d="M112.7,362.4c0.4,0.3,1.2,0.5,1.9,0.5c1,0,1.5-0.5,1.5-1.2c0-0.7-0.4-1-1.4-1.4
											c-1.4-0.5-2.1-1.3-2.1-2.2c0-1.2,1-2.3,2.7-2.3c0.8,0,1.5,0.2,1.9,0.5l-0.3,1c-0.3-0.2-0.9-0.5-1.6-0.5
											c-0.8,0-1.3,0.5-1.3,1.1c0,0.6,0.4,0.9,1.5,1.3c1.3,0.5,2,1.2,2,2.3c0,1.4-1.1,2.3-2.9,2.3c-0.8,0-1.6-0.2-2.2-0.5
											L112.7,362.4z"/>
									</g>
								</g>
							</g>
						</g>
					</g>
				</g>
				<g>
					<g>
						<g>
							<g>
								<g>
									<g>
										<path style="fill:#3E487A;" d="M120.9,354.3v1.9h2v1.1h-2v4.2c0,1,0.3,1.5,1.1,1.5c0.4,0,0.6,0,0.8-0.1l0.1,1.1
											c-0.3,0.1-0.7,0.2-1.2,0.2c-0.7,0-1.2-0.2-1.5-0.6c-0.4-0.4-0.5-1.1-0.5-2v-4.2h-1.2v-1.1h1.2v-1.4L120.9,354.3z"/>
									</g>
								</g>
							</g>
						</g>
					</g>
				</g>
				<g>
					<g>
						<g>
							<g>
								<g>
									<g>
										<path style="fill:#3E487A;" d="M125.2,360.2c0,1.9,1.2,2.7,2.7,2.7c1,0,1.6-0.2,2.1-0.4l0.3,1c-0.5,0.2-1.4,0.5-2.6,0.5
											c-2.4,0-3.8-1.6-3.8-3.9s1.4-4.2,3.6-4.2c2.5,0,3.2,2.2,3.2,3.6c0,0.3,0,0.5,0,0.7H125.2z M129.3,359.2
											c0-0.9-0.4-2.3-2-2.3c-1.4,0-2,1.3-2.2,2.3H129.3z"/>
									</g>
								</g>
							</g>
						</g>
					</g>
				</g>
				<g>
					<g>
						<g>
							<g>
								<g>
									<g>
										<path style="fill:#3E487A;" d="M132.5,358.2c0-0.8,0-1.5-0.1-2.1h1.2l0.1,1.3h0c0.4-0.7,1.2-1.4,2.4-1.4
											c1,0,1.8,0.6,2.2,1.6h0c0.2-0.4,0.6-0.8,0.9-1c0.5-0.4,1-0.5,1.7-0.5c1,0,2.6,0.7,2.6,3.4v4.5h-1.4v-4.4
											c0-1.5-0.6-2.4-1.7-2.4c-0.8,0-1.4,0.6-1.7,1.3c-0.1,0.2-0.1,0.4-0.1,0.7v4.8h-1.4v-4.6c0-1.2-0.5-2.1-1.6-2.1
											c-0.9,0-1.5,0.7-1.7,1.4c-0.1,0.2-0.1,0.4-0.1,0.7v4.7h-1.4V358.2z"/>
									</g>
								</g>
							</g>
						</g>
					</g>
				</g>
			</g>
			<g>
				<g>
					<g>
						<g>
							<g>
								<g>
									<g>
										<path style="fill:#E7EAF9;" d="M132.1,284.9H132h-16.6h-0.1c-1.5,0-2.7,1.2-2.7,2.7v33.7c0,1.5,1.2,2.7,2.7,2.7h0.1H132
											h0.1c1.5,0,2.7-1.2,2.7-2.7v-33.7C134.8,286.1,133.6,284.9,132.1,284.9z M123.7,315.5c1,0.1,1.8,0.9,1.8,1.9
											c0,1-0.8,1.8-1.8,1.9c-1-0.1-1.8-0.9-1.8-1.9C121.9,316.4,122.7,315.6,123.7,315.5z M130.7,289.4v3.6h-14.1v-3.6H130.7z
											 M119.8,298h7.7 M119.8,302.8h7.7 M119.8,307.8h7.7"/>
									</g>
								</g>
							</g>
						</g>
					</g>
				</g>
				<g>
					<g>
						<g>
							<g>
								<g>
									<g>
										<path style="fill:#3E487A;" d="M132.1,325h-16.8c-2,0-3.7-1.7-3.7-3.7v-33.7c0-2,1.7-3.7,3.7-3.7h16.8
											c2,0,3.7,1.7,3.7,3.7v33.7C135.8,323.3,134.1,325,132.1,325z M115.3,285.9c-0.9,0-1.7,0.8-1.7,1.7v33.7
											c0,0.9,0.8,1.7,1.7,1.7h16.8c0.9,0,1.7-0.8,1.7-1.7v-33.7c0-0.9-0.8-1.7-1.7-1.7H115.3z M123.7,320.3
											C123.7,320.3,123.6,320.3,123.7,320.3c-1.6-0.1-2.8-1.4-2.8-2.9c0-1.5,1.2-2.8,2.7-2.9c0,0,0.1,0,0.1,0
											c1.5,0.1,2.7,1.4,2.7,2.9C126.5,319,125.3,320.2,123.7,320.3C123.7,320.3,123.7,320.3,123.7,320.3z M123.7,316.6
											c-0.4,0.1-0.8,0.4-0.8,0.9s0.3,0.8,0.8,0.9c0.4-0.1,0.8-0.4,0.8-0.9S124.1,316.6,123.7,316.6z M127.5,308.8h-7.7
											c-0.6,0-1-0.4-1-1s0.4-1,1-1h7.7c0.6,0,1,0.4,1,1S128,308.8,127.5,308.8z M127.5,303.8h-7.7c-0.6,0-1-0.4-1-1s0.4-1,1-1
											h7.7c0.6,0,1,0.4,1,1S128,303.8,127.5,303.8z M127.5,299h-7.7c-0.6,0-1-0.4-1-1s0.4-1,1-1h7.7c0.6,0,1,0.4,1,1
											S128,299,127.5,299z M130.7,294h-14.1c-0.6,0-1-0.4-1-1v-3.6c0-0.6,0.4-1,1-1h14.1c0.6,0,1,0.4,1,1v3.6
											C131.7,293.5,131.3,294,130.7,294z M117.6,292h12.1v-1.6h-12.1V292z"/>
									</g>
								</g>
							</g>
						</g>
					</g>
				</g>
			</g>
			<g>
				<g>
					<g>
						<g>
							<g>
								<g>
									<g>
										<g>
											<g>
												<path style="fill:#E7EAF9;" d="M207.6,316.9c-0.3,0-0.5-0.1-0.7-0.3l-1.5-1.5c-0.1,0-0.1,0.1-0.2,0.1
													c-0.5,0.4-1,0.8-1.9,1.1c-0.1,0-0.2,0.1-0.3,0.1c-0.2,0-0.4-0.1-0.6-0.2c-0.3-0.2-0.4-0.5-0.4-0.8v-5.5
													c-0.2-0.1-0.3-0.3-0.3-0.6c0-0.3,0.1-0.7,0.4-1c0.7-0.5,1.2-1,1.8-1.8c0.7-0.9,1.1-2,1.3-3.2c0.1-0.4,0.1-0.8,0.1-1.2
													c0-0.4-0.1-0.8-0.1-1.2c-0.2-1.1-0.6-2.2-1.3-3.2c-0.5-0.7-1.1-1.2-1.7-1.7c-0.9-0.7-2-1.1-3.2-1.3
													c-0.4-0.1-0.7-0.1-1.2-0.1c-0.4,0-0.8,0.1-1.2,0.1c-1.1,0.2-2.2,0.6-3.2,1.3c-0.7,0.5-1.2,1.1-1.7,1.7
													c-0.7,0.9-1.1,2-1.3,3.2c-0.1,0.4-0.1,0.8-0.1,1.2c0,0.4,0.1,0.8,0.1,1.3c0.2,1.2,0.6,2.2,1.3,3.2
													c0.5,0.7,1.1,1.3,1.7,1.7c0.3,0.2,0.5,0.6,0.4,0.9c0,0.4-0.2,0.6-0.5,0.8v5.4c0,0.3-0.2,0.6-0.4,0.8
													c-0.2,0.1-0.4,0.2-0.6,0.2c-0.1,0-0.2,0-0.3,0c-0.9-0.3-1.4-0.7-1.8-1.1c0,0-0.1-0.1-0.1-0.1l-1.5,1.5
													c-0.2,0.2-0.4,0.3-0.7,0.3c-0.2,0-0.4-0.1-0.6-0.2c-1.5-1.1-2.9-2.4-4.1-4.1c-0.3-0.4-0.2-0.9,0.1-1.3l0.2-0.2
													c0.3-0.2,0.5-0.5,0.7-0.7c0.2-0.2,0.4-0.4,0.6-0.6c-0.7-1.2-1.3-2.6-1.6-3.9h-2.2c-0.5,0-0.9-0.4-1-0.8
													c-0.2-0.9-0.2-1.9-0.2-2.9c0-1.1,0.1-2,0.2-2.9c0.1-0.5,0.5-0.8,1-0.8c0.4,0,1.5,0,1.8,0c0.1,0,0.2,0,0.4,0
													c0.3-1.3,0.9-2.6,1.6-3.9l-0.4-0.4c-0.4-0.4-0.8-0.8-1.2-1.2c-0.4-0.3-0.4-0.9-0.1-1.3c1.1-1.6,2.5-3,4.1-4.1
													c0.2-0.1,0.4-0.2,0.6-0.2c0.3,0,0.5,0.1,0.7,0.3l0.6,0.6c0.3,0.3,0.6,0.6,0.9,0.9c1.2-0.7,2.5-1.2,3.9-1.6v-0.8
													c0-0.2,0-0.3,0-0.5c0-0.3,0-0.5,0-0.8c0-0.5,0.3-1,0.8-1.1c0.9-0.2,1.8-0.2,2.9-0.2c0.9,0,1.8,0.1,2.8,0.2
													c0.5,0.1,0.9,0.5,0.9,1v1.4c0,0.2,0,0.7,0,0.8c1.4,0.3,2.7,0.9,3.9,1.6c0.2-0.2,0.4-0.4,0.6-0.6
													c0.3-0.3,0.6-0.6,0.9-0.9c0.2-0.2,0.5-0.3,0.7-0.3c0.2,0,0.4,0.1,0.6,0.2c1.6,1.1,3,2.5,4.1,4.1
													c0.3,0.4,0.2,0.9-0.1,1.3l-0.6,0.6c-0.3,0.3-0.6,0.6-1,1c0.7,1.2,1.3,2.5,1.6,3.9c0.1,0,1.8,0,2.1,0c0.5,0,1,0.4,1,0.8
													c0.1,0.7,0.2,1.5,0.3,2.2l0.1,0.7c0,1.1-0.1,2.1-0.2,3c-0.1,0.5-0.5,0.8-1,0.8h-2.2c-0.4,1.4-0.9,2.7-1.6,3.9l1.5,1.5
													c0.3,0.3,0.4,0.9,0.1,1.3c-1.1,1.5-2.5,2.9-4.1,4.1C208,316.8,207.8,316.9,207.6,316.9z"/>
											</g>
										</g>
									</g>
								</g>
							</g>
						</g>
					</g>
					<g>
						<g>
							<g>
								<g>
									<g>
										<g>
											<g>
												<path style="fill:#3E487A;" d="M197.7,285.1c0.9,0,1.8,0.1,2.7,0.2v1.4c0,0.5,0,1,0,1.4c0,0.1,0,0.1,0,0.2
													c1.8,0.3,3.5,1,5,2c0.1,0,0.2-0.1,0.2-0.2c0.6-0.6,1.3-1.3,1.9-1.9c1.5,1.1,2.8,2.4,3.9,3.9c-0.6,0.6-1.2,1.2-1.8,1.8
													c-0.2,0.2-0.2,0.2-0.3,0.3c1,1.5,1.7,3.2,2.1,5c0.1,0,0.2,0,0.3,0c0.3,0,0.6,0,0.9,0c0.6,0,1.2,0,1.8,0h0.1h0
													c0.2,0.9,0.2,1.8,0.3,2.8c0,0.9-0.1,1.8-0.2,2.7h-0.1h-2.8h-0.1c-0.4,1.8-1.1,3.5-2.1,5.1c0,0.1,0.1,0.1,0.1,0.2l2,2
													c-1.1,1.5-2.4,2.8-3.9,3.9l-2-2c-0.1-0.1-0.1-0.1-0.2-0.1c-1,0.6-1.3,1.2-2.5,1.6v-6c0.2-0.1-0.5-0.2-0.3-0.3
													c0.8-0.5,1.4-1.2,2-1.9c0.8-1,1.3-2.3,1.5-3.6c0.1-0.5,0.1-0.9,0.1-1.4s-0.1-0.9-0.1-1.4c-0.2-1.3-0.8-2.6-1.5-3.6
													c-0.6-0.8-1.2-1.4-2-2c-1-0.7-2.3-1.3-3.6-1.5c-0.4-0.1-0.9-0.1-1.4-0.1c-0.5,0-0.9,0.1-1.4,0.1
													c-1.3,0.2-2.6,0.7-3.6,1.5c-0.8,0.6-1.4,1.2-2,2c-0.8,1-1.3,2.3-1.5,3.6c-0.1,0.4-0.1,0.9-0.1,1.4s0.1,0.9,0.1,1.4
													c0.2,1.4,0.7,2.6,1.5,3.6c0.6,0.7,1.2,1.4,2,1.9c0.2,0.1-0.6,0.2-0.4,0.3v5.9c-1.2-0.4-1.3-0.9-2.3-1.6
													c-0.1,0-0.1,0.1-0.2,0.1l-2,2c-1.5-1-2.8-2.4-3.9-3.9l0.2-0.2c0.6-0.6,1.2-1.2,1.8-1.8c0.1-0.1,0.1-0.1,0.1-0.2
													c-1-1.5-1.7-3.2-2.1-5.1h-0.1h-2.8h-0.1c-0.2-0.9-0.2-1.8-0.2-2.7c0-1,0.1-1.9,0.2-2.8h0.1c0.6,0,1.2,0,1.8,0
													c0.3,0,0.6,0,0.9,0c0.1,0,0.2,0,0.3,0c0.3-1.8,1.1-3.5,2-5c-0.1-0.1-0.2-0.2-0.3-0.3c-0.6-0.6-1.2-1.2-1.8-1.8
													c1.1-1.5,2.4-2.8,3.9-3.9c0.6,0.6,1.3,1.3,1.9,1.9c0.1,0.1,0.2,0.2,0.2,0.2c1.5-1,3.2-1.7,5-2c0,0,0-0.1,0-0.2v-1.4
													c0-0.5,0-0.9,0-1.4C195.8,285.2,196.7,285.1,197.7,285.1 M197.7,283.1c-1.1,0-2.1,0.1-3.1,0.2c-1,0.2-1.7,1.1-1.7,2.1
													c0,0.2,0,0.5,0,0.7c0,0.2,0,0.3,0,0.5v0.1c-0.9,0.3-1.9,0.7-2.7,1.1c-0.1-0.1-0.3-0.3-0.4-0.4c-0.2-0.2-0.4-0.4-0.6-0.6
													c-0.4-0.4-0.9-0.6-1.4-0.6c-0.4,0-0.8,0.1-1.2,0.4c-1.7,1.2-3.2,2.7-4.4,4.4c-0.6,0.8-0.5,1.9,0.3,2.6
													c0.3,0.3,0.7,0.7,1,1c-0.5,0.9-0.8,1.8-1.1,2.7c-0.2,0-0.3,0-0.5,0c-0.3,0-0.6,0-0.9,0h-0.1c-1,0-1.8,0.7-2,1.7
													c-0.2,1-0.2,2-0.2,3.1c0,1.1,0.1,2.1,0.2,3.1c0.2,1,1,1.7,2,1.7h0.1h1.3c0.3,0.9,0.7,1.8,1.1,2.7c0,0-0.1,0.1-0.1,0.1
													c-0.2,0.2-0.5,0.5-0.7,0.7c0,0,0,0,0,0l-0.2,0.2c-0.7,0.7-0.8,1.8-0.2,2.6c1.3,1.7,2.7,3.2,4.4,4.3
													c0.3,0.2,0.7,0.4,1.1,0.4c0.5,0,1-0.2,1.4-0.6l0.9-0.9c0.4,0.3,0.9,0.6,1.6,0.8c0.2,0.1,0.4,0.1,0.6,0.1
													c0.4,0,0.8-0.1,1.2-0.4c0.5-0.4,0.8-1,0.8-1.6v-4.9c0.3-0.4,0.4-0.8,0.5-1.1c0.1-0.7-0.3-1.4-0.9-1.9h0
													c-0.6-0.4-1.1-0.9-1.5-1.5c-0.6-0.8-1-1.7-1.1-2.8c0-0.4-0.1-0.7-0.1-1.1c0-0.5,0-0.8,0.1-1c0,0,0-0.1,0-0.1
													c0.2-1,0.6-1.9,1.1-2.7c0.4-0.6,0.9-1.1,1.5-1.5c0.8-0.6,1.8-1,2.8-1.1c0.3,0,0.7-0.1,1-0.1c0.4,0,0.7,0,0.9,0.1
													c0,0,0.1,0,0.1,0c1,0.2,1.9,0.6,2.8,1.1c0.6,0.4,1.1,0.9,1.5,1.5c0.6,0.8,1,1.8,1.2,2.7c0.1,0.4,0.1,0.8,0.1,1.1
													c0,0.4,0,0.7-0.1,1c0,0,0,0,0,0.1c-0.2,1-0.6,2-1.1,2.8c-0.5,0.6-1,1.1-1.5,1.5c0,0-0.1,0.1-0.1,0.1
													c-0.6,0.5-0.9,1.2-0.8,1.9c0,0.3,0.1,0.6,0.3,0.8v5.1c0,0.6,0.3,1.3,0.8,1.6c0.3,0.2,0.7,0.4,1.2,0.4
													c0.2,0,0.4,0,0.7-0.1c0.7-0.3,1.2-0.5,1.6-0.8l0.9,0.9c0.4,0.4,0.9,0.6,1.4,0.6c0.4,0,0.8-0.1,1.2-0.4
													c1.7-1.2,3.1-2.7,4.3-4.3c0.6-0.8,0.5-1.9-0.2-2.6l-1-1c0.5-0.9,0.8-1.8,1.1-2.8h1.3h0.1c1,0,1.8-0.7,2-1.7
													c0.2-0.9,0.2-2,0.2-3.1c0-0.1,0-0.1,0-0.2l-0.1-0.6c-0.1-0.7-0.1-1.5-0.3-2.3c-0.2-1-1-1.7-2-1.7h-0.1
													c-0.3,0-0.6,0-0.9,0c-0.2,0-0.3,0-0.5,0c-0.3-0.9-0.7-1.8-1.1-2.7c0.1-0.1,0.3-0.3,0.4-0.4c0.2-0.2,0.4-0.4,0.6-0.6
													c0.7-0.7,0.8-1.8,0.2-2.6c-1.2-1.7-2.7-3.2-4.4-4.4c-0.4-0.3-0.8-0.4-1.2-0.4c-0.5,0-1.1,0.2-1.4,0.6
													c-0.3,0.3-0.6,0.6-0.9,0.9c0,0-0.1,0.1-0.1,0.1c-0.9-0.5-1.8-0.8-2.7-1.1c0,0,0,0,0-0.1v-1.4c0-1-0.8-1.9-1.8-2
													C199.5,283.2,198.6,283.1,197.7,283.1L197.7,283.1z"/>
											</g>
										</g>
									</g>
								</g>
							</g>
						</g>
					</g>
				</g>
				<g>
					<g>
						<g>
							<g>
								<g>
									<g>
										<g>
											<path style="fill:#3E487A;" d="M200.9,296.7c0.1,0.1,0.2,0.2,0.4,0.2c1.6,1.1,2.7,3,2.7,5.2c0,0.1,0,0.1,0,0.2
												c0,2.1-1.1,4-2.7,5.1c-0.2,0.2-0.5,0.3-0.8,0.5V321c0,1.5-1.3,2.8-2.8,2.8h-0.2c-1.5-0.2-2.7-1.4-2.6-2.9v-13
												c-0.3-0.2-0.6-0.3-0.8-0.5c-1.6-1.1-2.6-2.9-2.7-5v-0.2c0-2.1,1.1-4,2.7-5.1c0.1-0.1,0.2-0.2,0.4-0.3v4.7
												c0,0.8,0.7,1.5,1.5,1.5h3.5c0.8,0,1.5-0.7,1.5-1.5V296.7 M204,302.1L204,302.1L204,302.1L204,302.1 M200.9,294.7
												c-0.3,0-0.6,0.1-0.9,0.2c-0.7,0.3-1.1,1-1.1,1.8v4.2h-2.5v-4.2c0-0.7-0.4-1.4-1-1.7c-0.3-0.2-0.6-0.3-1-0.3
												c-0.4,0-0.7,0.1-1,0.3c-0.2,0.1-0.4,0.3-0.6,0.4c-2.2,1.5-3.5,4.1-3.5,6.7v0.2c0,0,0,0,0,0.1c0.1,2.6,1.4,5.1,3.5,6.6
												v11.9c-0.1,2.5,1.8,4.6,4.4,4.9c0.1,0,0.1,0,0.2,0h0.2c2.6,0,4.8-2.1,4.8-4.8v-12c2.1-1.5,3.4-3.8,3.5-6.4
												c0-0.2,0-0.3,0-0.5c0-2.7-1.3-5.2-3.5-6.8c-0.1-0.1-0.2-0.1-0.3-0.2l-0.1,0C201.7,294.8,201.3,294.7,200.9,294.7
												L200.9,294.7z"/>
										</g>
									</g>
								</g>
							</g>
						</g>
					</g>
				</g>
			</g>
		</g>
		<g>
			<g>
				<g>
					<g>
						<g>
							<g>
								<g>
									<g>
										<path style="fill:#3E487A;" d="M112.2,458H108v3.9h4.7v1.2h-6.1v-10.8h5.8v1.2H108v3.4h4.2V458z"/>
									</g>
								</g>
							</g>
						</g>
					</g>
				</g>
				<g>
					<g>
						<g>
							<g>
								<g>
									<g>
										<path style="fill:#3E487A;" d="M115.1,455.3l1.1,1.7c0.3,0.4,0.5,0.8,0.8,1.2h0c0.3-0.4,0.5-0.8,0.8-1.3l1.1-1.6h1.5
											l-2.6,3.7l2.7,4h-1.6l-1.2-1.7c-0.3-0.4-0.6-0.9-0.8-1.3h0c-0.3,0.5-0.5,0.9-0.8,1.3l-1.1,1.7h-1.6l2.8-4l-2.6-3.8H115.1z
											"/>
									</g>
								</g>
							</g>
						</g>
					</g>
				</g>
				<g>
					<g>
						<g>
							<g>
								<g>
									<g>
										<path style="fill:#3E487A;" d="M127.1,462.8c-0.4,0.2-1.2,0.4-2.2,0.4c-2.3,0-3.9-1.6-3.9-4c0-2.4,1.6-4.1,4.2-4.1
											c0.8,0,1.6,0.2,2,0.4l-0.3,1.1c-0.3-0.2-0.9-0.4-1.6-0.4c-1.8,0-2.7,1.3-2.7,2.9c0,1.8,1.2,2.9,2.7,2.9
											c0.8,0,1.3-0.2,1.7-0.4L127.1,462.8z"/>
									</g>
								</g>
							</g>
						</g>
					</g>
				</g>
				<g>
					<g>
						<g>
							<g>
								<g>
									<g>
										<path style="fill:#3E487A;" d="M129.4,459.4c0,1.9,1.2,2.7,2.7,2.7c1,0,1.6-0.2,2.1-0.4l0.3,1c-0.5,0.2-1.4,0.5-2.6,0.5
											c-2.4,0-3.8-1.6-3.8-3.9s1.4-4.2,3.6-4.2c2.5,0,3.2,2.2,3.2,3.6c0,0.3,0,0.5,0,0.7H129.4z M133.6,458.4
											c0-0.9-0.4-2.3-2-2.3c-1.4,0-2,1.3-2.2,2.3H133.6z"/>
									</g>
								</g>
							</g>
						</g>
					</g>
				</g>
				<g>
					<g>
						<g>
							<g>
								<g>
									<g>
										<path style="fill:#3E487A;" d="M136.7,451.7h1.4v11.4h-1.4V451.7z"/>
									</g>
								</g>
							</g>
						</g>
					</g>
				</g>
			</g>
			<g>
				<g>
					<g>
						<g>
							<g>
								<g>
									<g>
										<path style="fill:#3E487A;" d="M182.1,452.7l-1.1,3.4h-1.4l3.7-10.8h1.7l3.7,10.8h-1.5l-1.2-3.4H182.1z M185.6,451.6
											l-1.1-3.1c-0.2-0.7-0.4-1.3-0.6-2h0c-0.2,0.6-0.3,1.3-0.5,2l-1.1,3.1H185.6z"/>
									</g>
								</g>
							</g>
						</g>
					</g>
				</g>
				<g>
					<g>
						<g>
							<g>
								<g>
									<g>
										<path style="fill:#3E487A;" d="M190,450.9c0-1,0-1.8-0.1-2.5h1.2l0.1,1.3h0c0.6-0.9,1.5-1.5,2.8-1.5
											c1.9,0,3.3,1.6,3.3,3.9c0,2.8-1.7,4.2-3.5,4.2c-1,0-1.9-0.4-2.4-1.2h0v4.2H190V450.9z M191.4,452.9c0,0.2,0,0.4,0.1,0.6
											c0.3,1,1.1,1.6,2.1,1.6c1.5,0,2.4-1.2,2.4-3c0-1.5-0.8-2.9-2.3-2.9c-1,0-1.9,0.7-2.1,1.7c0,0.2-0.1,0.4-0.1,0.6V452.9z"/>
									</g>
								</g>
							</g>
						</g>
					</g>
				</g>
				<g>
					<g>
						<g>
							<g>
								<g>
									<g>
										<path style="fill:#3E487A;" d="M199.1,450.9c0-1,0-1.8-0.1-2.5h1.2l0.1,1.3h0c0.6-0.9,1.5-1.5,2.8-1.5
											c1.9,0,3.3,1.6,3.3,3.9c0,2.8-1.7,4.2-3.5,4.2c-1,0-1.9-0.4-2.4-1.2h0v4.2h-1.4V450.9z M200.5,452.9c0,0.2,0,0.4,0.1,0.6
											c0.3,1,1.1,1.6,2.1,1.6c1.5,0,2.4-1.2,2.4-3c0-1.5-0.8-2.9-2.3-2.9c-1,0-1.9,0.7-2.1,1.7c0,0.2-0.1,0.4-0.1,0.6V452.9z"/>
									</g>
								</g>
							</g>
						</g>
					</g>
				</g>
				<g>
					<g>
						<g>
							<g>
								<g>
									<g>
										<path style="fill:#3E487A;" d="M207.1,456.7l4.4-11.6h1.1l-4.5,11.6H207.1z"/>
									</g>
								</g>
							</g>
						</g>
					</g>
				</g>
				<g>
					<g>
						<g>
							<g>
								<g>
									<g>
										<path style="fill:#3E487A;" d="M170.2,462.9c0.6-0.1,1.6-0.2,2.5-0.2c1.4,0,2.3,0.2,2.9,0.8c0.6,0.4,0.9,1.1,0.9,1.9
											c0,1.1-0.7,2-1.8,2.4v0c1,0.2,2.2,1.1,2.2,2.7c0,0.9-0.4,1.6-0.9,2.2c-0.7,0.7-2,1-3.7,1c-1,0-1.7-0.1-2.2-0.1V462.9z
											 M171.6,467.3h1.3c1.5,0,2.3-0.8,2.3-1.8c0-1.2-0.9-1.8-2.4-1.8c-0.6,0-1,0-1.2,0.1V467.3z M171.6,472.5
											c0.3,0,0.7,0.1,1.2,0.1c1.4,0,2.8-0.5,2.8-2.1c0-1.5-1.3-2.1-2.8-2.1h-1.2V472.5z"/>
									</g>
								</g>
							</g>
						</g>
					</g>
				</g>
				<g>
					<g>
						<g>
							<g>
								<g>
									<g>
										<path style="fill:#3E487A;" d="M178.8,468.2c0-0.9,0-1.7-0.1-2.4h1.2l0.1,1.5h0c0.4-1,1.2-1.7,2.2-1.7c0.1,0,0.3,0,0.4,0
											v1.3c-0.1,0-0.3,0-0.5,0c-1,0-1.7,0.7-1.9,1.8c0,0.2,0,0.4,0,0.7v4.1h-1.4V468.2z"/>
									</g>
								</g>
							</g>
						</g>
					</g>
				</g>
				<g>
					<g>
						<g>
							<g>
								<g>
									<g>
										<path style="fill:#3E487A;" d="M190.9,469.6c0,2.9-2,4.1-3.9,4.1c-2.1,0-3.7-1.5-3.7-4c0-2.6,1.7-4.1,3.8-4.1
											C189.4,465.6,190.9,467.2,190.9,469.6z M184.8,469.7c0,1.7,1,3,2.3,3c1.3,0,2.4-1.3,2.4-3c0-1.3-0.7-3-2.3-3
											C185.5,466.7,184.8,468.2,184.8,469.7z"/>
									</g>
								</g>
							</g>
						</g>
					</g>
				</g>
				<g>
					<g>
						<g>
							<g>
								<g>
									<g>
										<path style="fill:#3E487A;" d="M193.1,465.8l1,3.9c0.2,0.9,0.4,1.7,0.6,2.5h0c0.2-0.8,0.4-1.6,0.7-2.4l1.3-4h1.2l1.2,3.9
											c0.3,0.9,0.5,1.7,0.7,2.5h0c0.1-0.8,0.3-1.6,0.6-2.5l1.1-3.9h1.4l-2.5,7.7h-1.3l-1.2-3.7c-0.3-0.9-0.5-1.6-0.7-2.5h0
											c-0.2,0.9-0.4,1.7-0.7,2.6l-1.2,3.7H194l-2.3-7.7H193.1z"/>
									</g>
								</g>
							</g>
						</g>
					</g>
				</g>
				<g>
					<g>
						<g>
							<g>
								<g>
									<g>
										<path style="fill:#3E487A;" d="M204.1,472.1c0.4,0.3,1.2,0.5,1.9,0.5c1,0,1.5-0.5,1.5-1.2c0-0.7-0.4-1-1.4-1.4
											c-1.4-0.5-2.1-1.3-2.1-2.2c0-1.2,1-2.3,2.7-2.3c0.8,0,1.5,0.2,1.9,0.5l-0.3,1c-0.3-0.2-0.9-0.5-1.6-0.5
											c-0.8,0-1.3,0.5-1.3,1.1c0,0.6,0.4,0.9,1.5,1.3c1.3,0.5,2,1.2,2,2.3c0,1.4-1.1,2.3-2.9,2.3c-0.8,0-1.6-0.2-2.2-0.5
											L204.1,472.1z"/>
									</g>
								</g>
							</g>
						</g>
					</g>
				</g>
				<g>
					<g>
						<g>
							<g>
								<g>
									<g>
										<path style="fill:#3E487A;" d="M211.4,469.9c0,1.9,1.2,2.7,2.7,2.7c1,0,1.6-0.2,2.1-0.4l0.3,1c-0.5,0.2-1.4,0.5-2.6,0.5
											c-2.4,0-3.8-1.6-3.8-3.9s1.4-4.2,3.6-4.2c2.5,0,3.2,2.2,3.2,3.6c0,0.3,0,0.5,0,0.7H211.4z M215.5,468.9
											c0-0.9-0.4-2.3-2-2.3c-1.4,0-2,1.3-2.2,2.3H215.5z"/>
									</g>
								</g>
							</g>
						</g>
					</g>
				</g>
				<g>
					<g>
						<g>
							<g>
								<g>
									<g>
										<path style="fill:#3E487A;" d="M218.6,468.2c0-0.9,0-1.7-0.1-2.4h1.2l0.1,1.5h0c0.4-1,1.2-1.7,2.2-1.7c0.1,0,0.3,0,0.4,0
											v1.3c-0.1,0-0.3,0-0.5,0c-1,0-1.7,0.7-1.9,1.8c0,0.2,0,0.4,0,0.7v4.1h-1.4V468.2z"/>
									</g>
								</g>
							</g>
						</g>
					</g>
				</g>
			</g>
			<g>
				<g>
					<g>
						<g>
							<g>
								<g>
									<g>
										<path style="fill:#E7EAF9;" d="M178.8,398.7c0.2-0.1,0.3-0.2,0.6-0.2h23.4h1.7 M197.3,428.6h-9.1h0h-8.6 M203.8,414.3
											l0.9,1.1c0.3-0.1,0.7-0.2,1.2-0.3v-17.6c0-1.3-0.8-2.4-1.9-2.9c-0.4-0.2-0.8-0.3-1.3-0.3h-21.5c-0.4,0-0.9,0.1-1.3,0.3
											c-1.1,0.5-1.9,1.6-1.9,2.9v33c0,1.7,1.4,3.1,3.1,3.1h21.6c0.9,0,1.8-0.4,2.4-1.1c-0.4-0.1-0.8-0.2-0.9-0.2"/>
									</g>
								</g>
							</g>
						</g>
					</g>
				</g>
				<g>
					<g>
						<g>
							<g>
								<g>
									<g>
										<path style="fill:#3E487A;" d="M202.6,434.5H181c-2.2,0-4.1-1.8-4.1-4.1v-33c0-1.7,1-3.2,2.6-3.8c0.5-0.2,1.1-0.3,1.6-0.3
											h21.5c0.6,0,1.1,0.1,1.7,0.3c1.5,0.6,2.5,2.1,2.5,3.8v17.6c0,0.4-0.3,0.8-0.7,1c-0.3,0.1-0.7,0.2-1,0.3l-0.3,0.1
											c-0.4,0.1-0.8,0-1-0.3l-0.9-1.1c-0.3-0.4-0.3-1.1,0.2-1.4c0.4-0.3,1.1-0.3,1.4,0.2l0.2,0.3v-14.5c-0.1,0-0.2,0-0.3,0
											h-25.1c0,0-0.1,0-0.1,0.1l-0.3-0.7v28.9c0.2-0.1,0.4-0.2,0.6-0.2h17.7c0.6,0,1,0.4,1,1s-0.4,1-1,1h-17.7
											c-0.2,0-0.4-0.1-0.6-0.2v1c0,1.1,0.9,2.1,2.1,2.1h21.6c0.2,0,0.4,0,0.5-0.1c0-0.1,0-0.2,0-0.3c0-0.6,0.4-1,1-1
											c0.3,0,0.9,0.2,1.1,0.3c0.3,0.1,0.6,0.3,0.7,0.7c0.1,0.3,0,0.7-0.2,0.9C205,433.9,203.8,434.5,202.6,434.5z M178.4,397.8
											l0.4,0.9L178.4,397.8z M181.1,395.3c-0.3,0-0.6,0.1-0.8,0.2c-0.8,0.3-1.3,1.1-1.3,2v0.2c0.1,0,0.3-0.1,0.5-0.1h25.1
											c0.1,0,0.2,0,0.3,0v-0.2c0-0.9-0.5-1.6-1.3-2c-0.3-0.1-0.6-0.2-0.9-0.2H181.1z"/>
									</g>
								</g>
							</g>
						</g>
					</g>
				</g>
			</g>
			<g>
				<g>
					<g>
						<g>
							<g>
								<g>
									<g>
										<g>
											<path style="fill:#FFFFFF;" d="M212,434.8c-0.8,0-1.5-0.3-2.1-0.7c-2.5-1.9-5.7-2.6-5.8-2.6c-0.8-0.2-1.8-0.4-2.8-1.2
												c-0.3-0.2-0.6-0.4-1-0.6c-0.3-0.2-0.6-0.3-0.8-0.5c-1.4-1-2.8-1.6-4.2-2.1c-0.6-0.2-1-0.5-1.2-1c-0.2-0.5-0.2-1,0-1.7
												c0.2-0.6,0.8-1.2,1.4-1.5c0.6-0.3,1.2-0.4,1.8-0.4c0.3,0,0.7,0,1.1,0.1c0.3,0,0.9,0.3,2.3,0.9c0.3,0.1,0.6,0.3,0.8,0.4
												c0,0,0,0,0-0.1c0-0.3-0.1-0.5-0.3-0.8c-1.3-2.4-2.7-4.9-4-7.2l-1.6-2.8c-0.7-1.2-0.4-2.5,0.7-3.3
												c0.4-0.3,0.9-0.4,1.4-0.4c0.8,0,1.5,0.4,2,1c0.4,0.5,0.7,0.9,1.1,1.4c0.4,0.4,0.7,0.9,1.1,1.3l0.4,0.5
												c0.5,0.7,1.1,1.4,1.6,2.1l0.4,0.4c1.1-0.3,3.2-0.9,5.9-0.9c1.5,0,2.9,0.2,4.3,0.5c0.7,0.2,1.1,0.6,1.4,1.1
												c1,1.8,2.3,4.7,2.7,7.4c0.2,0.5,0.3,1,0.5,1.4l0.1,0.3l0.6,1.1c0.5,0.9,0.3,2.1-0.5,2.8l-5.2,4.2
												C213.6,434.5,212.8,434.8,212,434.8C212,434.8,212,434.8,212,434.8z"/>
										</g>
									</g>
								</g>
							</g>
						</g>
					</g>
				</g>
				<g>
					<g>
						<g>
							<g>
								<g>
									<g>
										<g>
											<path style="fill:#3E487A;" d="M198,410.4c0.4,0,0.9,0.2,1.2,0.6c0.7,0.9,1.4,1.8,2.2,2.7c0.6,0.8,1.3,1.7,2,2.5l0.8,1
												c0,0,2.6-1,6.2-1c1.3,0,2.6,0.1,4,0.5c0.3,0.1,0.6,0.3,0.7,0.6c0.6,1.1,2.2,4.2,2.6,7.2c0.2,0.8,0.5,1.4,0.7,1.9l0.6,1.2
												c0.3,0.5,0.2,1.2-0.3,1.5l-5.2,4.2c-0.4,0.4-1,0.5-1.5,0.5c-0.5,0-1-0.2-1.4-0.5c-2.8-2.1-6.2-2.8-6.2-2.8
												c-0.9-0.2-1.6-0.4-2.4-1c-0.5-0.4-1.3-0.8-1.8-1.1c-1.4-0.9-2.8-1.7-4.4-2.2c-0.7-0.2-0.9-0.6-0.6-1.3
												c0.1-0.3,0.5-0.8,0.9-0.9c0.5-0.2,0.9-0.3,1.4-0.3c0.3,0,0.7,0,1,0.1c0.5,0,2.5,1.1,3.5,1.4c0.1,0,0.2,0.1,0.3,0.1
												c0.5,0,0.6-0.6,0.5-1.4c0-0.4-0.2-0.8-0.4-1.2c-1.8-3.4-3.7-6.7-5.6-10c-0.4-0.7-0.3-1.5,0.4-1.9
												C197.4,410.5,197.7,410.4,198,410.4 M198,408.4L198,408.4c-0.7,0-1.4,0.2-1.9,0.6c-1.5,1-2,3-1,4.6
												c0.5,0.9,1,1.8,1.6,2.8c1,1.8,2.1,3.7,3.1,5.6c-0.4-0.2-0.8-0.3-1-0.3c-0.5-0.1-0.9-0.1-1.3-0.1c-0.8,0-1.6,0.2-2.3,0.5
												c-0.8,0.4-1.5,1.2-1.8,2c-0.4,1.1-0.2,1.9,0,2.5c0.2,0.5,0.8,1.2,1.8,1.5c1.2,0.4,2.5,1.1,3.9,2c0.2,0.2,0.5,0.3,0.8,0.5
												c0.3,0.2,0.7,0.4,0.9,0.5c1.2,0.9,2.4,1.2,3.2,1.4l0,0c0,0,3,0.7,5.3,2.4c0.7,0.6,1.7,0.9,2.7,0.9c1,0,2-0.3,2.8-1
												l5.2-4.2c1.2-1,1.5-2.7,0.7-4.1l-0.6-1c0-0.1-0.1-0.1-0.1-0.2c-0.1-0.4-0.3-0.7-0.4-1.2c-0.4-2.9-1.7-5.8-2.8-7.7
												c-0.4-0.8-1.1-1.3-1.9-1.6c0,0-0.1,0-0.1,0c-1.4-0.3-3-0.5-4.5-0.5c-2.3,0-4.3,0.4-5.5,0.7c-0.5-0.7-1-1.3-1.6-2
												l-0.4-0.5c-0.4-0.5-0.7-0.9-1.1-1.4c-0.4-0.5-0.7-0.9-1.1-1.4C200.1,408.9,199.1,408.4,198,408.4L198,408.4L198,408.4z"
												/>
										</g>
									</g>
								</g>
							</g>
						</g>
					</g>
				</g>
			</g>
			<g>
				<g>
					<g>
						<g>
							<g>
								<g>
									<g>
										<path style="fill:#3E487A;" d="M185.4,422.8h-2.9c-0.8,0-1.4-0.7-1.4-1.5v-7.7c0-0.8,0.6-1.5,1.4-1.5l0,0l2.9,0
											c0.8,0,1.4,0.7,1.4,1.5v7.7C186.8,422.1,186.2,422.8,185.4,422.8z M183.1,420.8h1.7V414l-1.7,0V420.8z"/>
									</g>
								</g>
							</g>
						</g>
					</g>
				</g>
			</g>
			<g>
				<g>
					<g>
						<g>
							<g>
								<g>
									<g>
										<path style="fill:#3E487A;" d="M191.5,422.8h-1.3c-0.8,0-1.5-0.7-1.5-1.5v-14.8c0-0.8,0.7-1.5,1.5-1.5h3.3
											c0.8,0,1.5,0.7,1.5,1.5c0,0.6-0.4,1-1,1c-0.4,0-0.7-0.2-0.9-0.5h-2.4v13.8h0.8c0.6,0,1,0.4,1,1S192.1,422.8,191.5,422.8z"
											/>
									</g>
								</g>
							</g>
						</g>
					</g>
				</g>
			</g>
			<g>
				<g>
					<g>
						<g>
							<g>
								<g>
									<g>
										<g>
											<g>
												<path style="fill:#3E487A;" d="M135.4,403L135.4,403l-7.2,0c-0.6,0-1-0.4-1-1v-7.4c0-0.4,0.2-0.8,0.6-0.9
													c0.4-0.2,0.8-0.1,1.1,0.2l7.1,7.1c0.2,0.2,0.4,0.5,0.4,0.8c0.1,0.3,0,0.6-0.2,0.9C136,402.9,135.7,403,135.4,403z
													 M134.5,402.4L134.5,402.4L134.5,402.4z M129.1,401l4,0l-4-4V401z"/>
											</g>
										</g>
									</g>
								</g>
							</g>
						</g>
					</g>
					<g>
						<g>
							<g>
								<g>
									<g>
										<g>
											<g>
												<path style="fill:#3E487A;" d="M135.4,410.5c-0.6,0-1-0.4-1-1v-6.1c0-0.6,0.4-1,1-1s1,0.4,1,1v6.1
													C136.4,410.1,136,410.5,135.4,410.5z"/>
											</g>
										</g>
									</g>
								</g>
							</g>
						</g>
					</g>
					<g>
						<g>
							<g>
								<g>
									<g>
										<g>
											<g>
												<path style="fill:#3E487A;" d="M134.7,434.7H107c-0.9,0-1.7-0.8-1.7-1.7v-38c0-0.9,0.8-1.7,1.7-1.7h19.7
													c0.6,0,1,0.4,1,1s-0.4,1-1,1h-19.4v37.4h27.1v-7.2c0-0.6,0.4-1,1-1s1,0.4,1,1v7.5C136.4,433.9,135.6,434.7,134.7,434.7z
													"/>
											</g>
										</g>
									</g>
								</g>
							</g>
						</g>
					</g>
					<g>
						<g>
							<g>
								<g>
									<g>
										<g>
											<g>
												<rect x="115.9" y="410.9" style="fill:#E7EAF9;" width="25.1" height="13.1"/>
											</g>
										</g>
									</g>
								</g>
							</g>
						</g>
						<g>
							<g>
								<g>
									<g>
										<g>
											<g>
												<path style="fill:#3E487A;" d="M141,425h-25.1c-0.6,0-1-0.4-1-1v-13.1c0-0.6,0.4-1,1-1H141c0.6,0,1,0.4,1,1V424
													C142,424.6,141.6,425,141,425z M116.9,423H140v-11.1h-23.1V423z"/>
											</g>
										</g>
									</g>
								</g>
							</g>
						</g>
					</g>
				</g>
				<g>
					<g>
						<g>
							<g>
								<g>
									<g>
										<g>
											<path style="fill:#3E487A;" d="M125.3,421l-0.6-1.2c-0.3-0.5-0.4-0.8-0.6-1.2h0c-0.1,0.4-0.3,0.7-0.5,1.2L123,421h-1.8
												l2-3.4l-1.9-3.4h1.8l0.6,1.2c0.2,0.4,0.4,0.7,0.5,1.1h0c0.2-0.4,0.3-0.7,0.5-1.1l0.6-1.2h1.8l-1.9,3.3l2,3.5H125.3z"/>
										</g>
									</g>
								</g>
							</g>
						</g>
					</g>
					<g>
						<g>
							<g>
								<g>
									<g>
										<g>
											<path style="fill:#3E487A;" d="M127.9,414.2h1.5v5.5h2.7v1.3h-4.2V414.2z"/>
										</g>
									</g>
								</g>
							</g>
						</g>
					</g>
					<g>
						<g>
							<g>
								<g>
									<g>
										<g>
											<path style="fill:#3E487A;" d="M133.1,419.4c0.4,0.2,1,0.4,1.7,0.4c0.7,0,1.1-0.3,1.1-0.7c0-0.4-0.3-0.7-1.1-0.9
												c-1.1-0.4-1.9-1-1.9-2c0-1.2,1-2,2.6-2c0.8,0,1.3,0.2,1.7,0.3l-0.3,1.2c-0.3-0.1-0.8-0.3-1.4-0.3c-0.7,0-1,0.3-1,0.7
												c0,0.4,0.4,0.6,1.3,1c1.2,0.4,1.8,1.1,1.8,2c0,1.1-0.9,2.1-2.7,2.1c-0.8,0-1.5-0.2-1.9-0.4L133.1,419.4z"/>
										</g>
									</g>
								</g>
							</g>
						</g>
					</g>
				</g>
			</g>
		</g>
	</g>
</g>
</svg>