<svg fill="none" height="122" viewBox="0 0 613 122" width="613" xmlns="http://www.w3.org/2000/svg"><path d="m168.11 85.1201-165.46-21.23-1.64.57 166.03 21.35 87.41-38.83-.35-.04z" fill="#f0f7ff"/><path d="m167 85.8101-166-21.3501 96.92-33.88c1.5642-.4872 3.206-.6771 4.84-.56l151.68 17z" fill="#fff"/><path d="m254.79 78.9101-.68-22.22-19.11-2.21-69.12 30.64 1.37 35.8799c.944-.14 1.866-.406 2.74-.79z" fill="#aabce2"/><path d="m353.1 71.2001-188.1-21.85 83.44-33.45c1.541-.5008 3.167-.6845 4.78-.5401l170 17.2301z" fill="#c2d8ff"/><path d="m354.96 69.7101-186.81-21.61-3.11 1.25 188.06 21.85 70.18-38.61-.65-.06z" fill="#e6f1ff"/><path d="m423.4 49.5301-26.28-2.8-43.78 24 .8 37.9999c.722-.114 1.418-.351 2.06-.7l67.45-40.9999z" fill="#6d86b2"/><path d="m568.75 54.1301-215.57-22.27 61.26-30.00004c1.711-.69501 3.559-.985863 5.4-.84998l190.56 17.39002c1.93.17 2.76.88 1.87 1.59z" fill="#6b7dd6"/><path d="m611.65 18.6601-42.42 33.28c-.409.3179-.925.4649-1.44.41l-211.73-21.87-2.88 1.41 214.76 22.1899c.516.0522 1.033-.0984 1.44-.4199l42.89-33.66c.67-.5.37-1-.62-1.34z" fill="#7184e2"/><path d="m568.61 92.0601 43.44-37.67c.154-.1143.272-.2705.34-.45l.15-34.6-43.93 34.2099z" fill="#3e487a"/><path d="m342 44.9401c-3.09 1.54-25.26.66-49.15-1.95-23.51-2.56-39.54-5.8-36.15-7.26s24.62-.63 47.85 1.86c23.59 2.52 40.52 5.82 37.45 7.35z" fill="#7f9ecc"/><path d="m533.27 29.77c-2.22 1.48-24.93.65-50.34-1.84-25-2.45-42.91-5.55-40.35-7s24.32-.6099 49 1.7601c25.05 2.44 43.89 5.6099 41.69 7.0799z" fill="#3e487a"/><path d="m612.38 55.55.07-15.1099-24-2.35-19.84 15.4599v41.56c.439-.0946.858-.2637 1.24-.5l42-36.7199c.412-.7074.597-1.5242.53-2.3401z" fill="#3e487a"/><path d="m568.18 53.5101-213.59-22.07c-1.26.1-2.14.59-2.13 1.26l.8 38.07 212 24.58c1.139.0819 2.285-.0023 3.4-.25v-41.6c-.159.0191-.32.0224-.48.01z" fill="#5059c9"/><path d="m353.41 70.65-186-21.58c-1.63-.19-2.93.32-2.9 1.12l1.38 35 184.9 23.81c1.144.077 2.294.006 3.42-.21z" fill="#88a4e2"/><path d="m165.84 85.11-163.37997-21c-.3364-.0455-.67876-.0121-1.00007.0974-.3213.1095-.612744.2922-.851318.5337s-.417746.5351-.5233685.8578c-.1056229.3226-.134805.6653-.08524221 1.0011l1.63999871 29.4c.04702.7548.34215 1.4729.83949 2.0425.49734.5697 1.169.9591 1.91051 1.1075l159.72997 22.54c1.053.053 2.11-.007 3.15-.18z" fill="#cce1ff"/></svg>