<svg fill="none" height="202" viewBox="0 0 194 202" width="194" xmlns="http://www.w3.org/2000/svg"><path d="m51.6099 8.0101 21.5-7.410002 1.36 8.540002z" fill="#5f6166"/><path d="m133.9.45-56.4199-.45c-2.3295.0097419-4.6286.530617-6.7349 1.52587-2.1062.99525-3.9684 2.44063-5.4551 4.23413l-37.8 44.09c-3.1679 3.8574-4.8337 8.7305-4.69 13.72l.89 62c.0445 5.063 1.8075 9.96 5 13.89l38.4 45.85c1.4725 1.837 3.3021 3.357 5.3783 4.467 2.0763 1.111 4.3561 1.788 6.7017 1.993l55.4199 3.76c2.322.153 4.65-.21 6.815-1.064 2.165-.855 4.113-2.178 5.705-3.876l40.76-42.8c3.532-3.831 5.465-8.869 5.4-14.08l.12-65.29c.039-5.3995-1.875-10.631-5.39-14.73l-41.33-47.13c-1.576-1.86327-3.528-3.37125-5.73-4.42445-2.201-1.0532-4.6-1.627687-7.04-1.68555z" fill="#5f6166"/><path d="m193.31 133.69.12-65.2899c-.001-1.2767-.108-2.5511-.32-3.81l-30.6 6.41-4.92 88.7699h18.94l11.38-11.95c3.544-3.844 5.477-8.902 5.4-14.13z" fill="#3f4044"/><path d="m189.54 146.06-35.54 8.12-31.21 37.82 17.73 2.84.47-.12c2.418-.843 4.602-2.248 6.37-4.1l40.76-42.8c.507-.559.981-1.146 1.42-1.76z" fill="#2a2b2d"/><path d="m117.14 200.6 10.37-13.8 14.8 7.46" fill="#2a2b2d"/><path d="m109.9 8.36-55.39-.61c-2.2869.00435-4.5445.51503-6.6106 1.49537-2.0661.98033-3.8896 2.40603-5.3394 4.17463l-36.99999 43.52c-3.10062 3.8249-4.719461 8.6388-4.56 13.56l1 61.36c.07533 5.018 1.83644 9.864 5 13.76l37.82999 45.48c1.4449 1.819 3.2434 3.327 5.2869 4.432s4.2897 1.785 6.6031 1.998l54.41 3.85c2.281.159 4.57-.195 6.696-1.036 2.127-.841 4.039-2.147 5.594-3.824l39.88-42.25c3.463-3.801 5.344-8.779 5.26-13.92l-.06-64.59c.02-5.3373-1.871-10.5055-5.33-14.57l-40.72-46.75c-1.543-1.8431-3.46-3.338-5.623-4.3861-2.163-1.04801-4.524-1.62536-6.927-1.6939z" fill="#0f1015"/><path d="m91.57 51.53-18.38-.45c-.7611-.0066-1.5142.1549-2.2056.4729-.6915.3181-1.3042.7849-1.7944 1.3671l-12.7 14.52c-1.0724 1.2853-1.6411 2.9166-1.6 4.59l.25 20.9c.0124 1.709.6126 3.3616 1.7 4.68l12.94 15.29c.4889.603 1.096 1.099 1.7839 1.459.6879.359 1.4421.574 2.2161.631l18.28.81c.7649.029 1.5268-.111 2.2306-.412.7039-.301 1.3321-.755 1.8394-1.328l13-14.39c1.134-1.2874 1.741-2.9549 1.7-4.67l-.13-21.26c-.003-1.7288-.603-3.4035-1.7-4.74l-13.31-15.42c-.5057-.6102-1.1335-1.1078-1.8431-1.4609s-1.4851-.5537-2.2769-.5891z" fill="#fff"/><path d="m95.5001 114.69c-1.1.78-1.84.79-2.6.21-.1843-.151-.3401-.334-.46-.54-.09-.2-.38-1.21-.71-2.52-.49-2-.55-2.21-.69-2.26-1.6996-.318-3.4156-.542-5.14-.67l-.79-.08.22.46c.5586 1.173 1.0072 2.395 1.34 3.65.1133.345.1937.7.24 1.06-.05 0-2.81.8-2.84.77s-.12-.4-.25-.86c-.402-1.664-1.0997-3.243-2.06-4.66l-.39-.57-.18.1c-.4793.436-.8817.95-1.19 1.52-.536 1.019-.9811 2.083-1.33 3.18-.15.48-.3.9-.32.93-.954-.369-1.8886-.786-2.8-1.25.4367-1.471.9712-2.911 1.6-4.31 0 0-.05 0-.15 0l-1.44.11c-.7 0-1.32.12-1.4.14s-.22.32-.87 2.49c-.42 1.42-.46 1.51-.79 1.82-.2378.248-.5495.412-.8884.468s-.6868 0-.9916-.158c.9393.79 2.1137 1.247 3.34 1.3 2.6.1 18.53.83 18.53.83 1.0998-.063 2.1523-.469 3.01-1.16zm-11.9-42.53c5 .45 7.92 1.65 8.78 3.65.1574.3406.2229.7164.19 1.09.04.3977-.0292.7987-.2 1.16-.3203.6617-.828 1.2146-1.46 1.59-1.6501.8487-3.5222 1.1665-5.36.91-1.4274-.1251-2.8099-.5621-4.05-1.28-.2233-.1341-.4616-.2415-.71-.32-.2417.0623-.4763.1494-.7.26-1.323.6157-2.7893.8578-4.24.7-2.45-.17-4.07-1-4.67-2.48-.1531-.3095-.2089-.6581-.16-1 .14-2.6 1.9-3.91 5.81-4.31 2.2537-.1741 4.5179-.1641 6.77.03zm20.8099 32.84-.74-.32c-1.473-.69-2.824-1.616-3.9999-2.74-2.32-2.06-3.29-2.66-4.95-3-.444-.1137-.9057-.1408-1.36-.08-.7234.0492-1.4367.1973-2.12.44l-.4.13.05.76c0 .42.08 1.94.11 3.38l.06 2.61-.27-.07-1.44-.21c-4.7257-.602-9.5009-.716-14.25-.34l-1.14.1c-.07 0 0-3.19 0-5 .2-4.23.67-7 1.42-8.23.0959-.1269.1702-.2688.22-.42l-.42-.25c-.23-.13-.71-.45-1.07-.71-1.6228-1.2106-2.9781-2.7431-3.9813-4.5017-1.0032-1.7585-1.6325-3.7053-1.8487-5.7183-.1547-1.5093-.1547-3.0306 0-4.54.78-5.64 3.47-10.12 7.61-12.66 1.9513-1.0598 4.0985-1.7097 6.31-1.91 1.5864-.1117 3.1797-.0782 4.76.1 4.2863.7609 8.1749 2.988 11 6.3.2555.2132.4619.479.6052.7793.1432.3003.2199.628.2248.9607 0 .77-.14 1-1.24 2.22-1.3 1.39-1.71 2-1.7 2.79.0302.3697.0837.7371.16 1.1.6134 2.7415.5689 5.5892-.13 8.31-.292.9908-.677 1.9518-1.15 2.87-.1006.1779-.1908.3616-.27.55 0 0 .39 0 .83-.06 2.0374-.2131 4.0943.1326 5.9499 1 .892.4141 1.828.7261 2.79.93.834.1555 1.681.2325 2.53.23 1.398.0497 2.796-.0576 4.17-.32v5.46c.009.5127-.031 1.0251-.12 1.53-2.426.5597-4.961.4034-7.3-.45-.36-.15-1.21-.55-1.9-.9-1.39-.8037-2.915-1.3492-4.4999-1.61-.6959-.1074-1.4041-.1074-2.1 0-.52.11-.51.17 0 .19 1.2866.1033 2.5387.4673 3.68 1.07 1.0058.5046 1.9489 1.1256 2.8099 1.85 2.171 1.8683 4.909 2.9499 7.77 3.07zm-24.8299-11.54c.6607.1385 1.3283.242 2 .31l1.27.14-1.35 1.89c-.75 1-1.37 1.89-1.39 1.89-.1781-.3695-.3318-.7503-.46-1.14l-.84-2.25-.41-1.12h.2z" fill="#0f1015"/><path d="m83.6699 72.0901c5 .45 7.93 1.66 8.79 3.66.1581.3401.2204.717.18 1.09.0512.3979-.0185.8021-.2 1.16-.3104.6619-.812 1.2157-1.44 1.59-1.6541.8472-3.53 1.1616-5.37.9-1.4089-.132-2.773-.5651-4-1.27-.2242-.1323-.4623-.2396-.71-.32-.2451.0616-.4831.1488-.71.26-1.323.6157-2.7893.8577-4.24.7-2.44-.18-4.07-1-4.67-2.48-.1485-.311-.204-.6582-.16-1 .14-2.6 1.91-3.91 5.81-4.31 2.2371-.1702 4.484-.1635 6.72.02z" fill="#fff"/><path d="m79.5799 93.4599c.6607.1385 1.3283.2419 2 .31l1.27.14-1.35 1.89c-.75 1-1.37 1.89-1.39 1.89-.1781-.3695-.3318-.7503-.46-1.14l-.84-2.25-.41-1.12h.2z" fill="#fff"/><path d="m75.19 73.9999c-.2188.1079-.4133.2593-.5715.445s-.2768.4018-.3485.635c-.1372.3143-.1822.6611-.1299 1-.0031.3904.0958.7747.287 1.115s.468.6247.8029.825c.2502.1304.5263.2035.8083.2139.2819.0103.5626-.0422.8217-.1539.4542-.2399.8086-.6333 1-1.11.1983-.6072.1807-1.2643-.05-1.86-.0842-.2559-.2221-.491-.4046-.6892-.1825-.1983-.4053-.3553-.6534-.4604-.2482-.1051-.5159-.156-.7853-.1491-.2694.0068-.5342.0712-.7767.1887z" fill="#0f1015"/><path d="m85.28 74.27c-.4499.2547-.8019.6524-1 1.13-.2181.5312-.2434 1.1219-.0718 1.6698.1717.5479.5296 1.0185 1.0118 1.3302.2524.1636.5496.244.85.23.2988.0408.6026-.0228.86-.18.4731-.2997.8225-.7598.9841-1.296s.1246-1.1128-.1041-1.624c-.2197-.5108-.608-.9309-1.1-1.19-.4563-.1784-.9584-.203-1.43-.07z" fill="#0f1015"/><path d="m52.28 124.81-6.8 12.41 3.25 12.68-5.76-.33-2.39-9.35-2.38-.13-1.29 9.14-5.42-.3 3.51-24.93 5.43.26-1.46 10.44 1.94.1 5.62-10.25zm13.37 20.61c0 .613.27.947.81 1 .4776.047.9583-.051 1.38-.28l-.11 4c-.4417.41-.9616.727-1.5287.931-.567.205-1.1695.293-1.7713.259-2.31-.13-3.57-1.22-3.8-3.27-.4601.89-1.1695 1.627-2.0414 2.121-.8719.493-1.8686.722-2.8686.659-2.05-.12-3.39-.73-4-1.84-.4174-.713-.6383-1.524-.64-2.35-.0163-.793.0372-1.586.16-2.37l1.57-11 5.19.27-1.33 9.28c-.0565.418-.0833.839-.08 1.26-.0282.231-.0053.466.067.687.0724.221.1924.424.3517.594.1593.169.3539.302.5702.388.2162.087.4487.124.6811.111.4205.038.8435-.034 1.2275-.21.3841-.175.7158-.447.9625-.79l1.62-11.15 5.22.27-1.6 11c-.0236.142-.037.286-.04.43zm19-6.94c.0108.787-.1075 1.571-.35 2.32-.1503.571-.3755 1.119-.67 1.63l-.34.48-4.68-.25c.2567-.264.4567-.577.5874-.921s.1895-.711.1726-1.079c-.0022-.368-.1371-.723-.38-1-.118-.152-.2698-.275-.4433-.358-.1736-.083-.3642-.125-.5567-.122-.3755-.004-.7444.099-1.0645.295s-.5784.479-.7455.815l-1.62 11.07-5.24-.29 2.45-16.84 4.88.24-.35 2.36c1.16-1.85 2.57-2.74 4.25-2.66.5596-.006 1.1147.102 1.6307.319s.9821.537 1.3693.941c.7418.841 1.1415 1.929 1.12 3.05zm10.18-3.61c1.8941-.027 3.7278.666 5.13 1.94.463.502.823 1.092 1.058 1.733.235.642.341 1.324.312 2.007.005.573-.042 1.145-.14 1.71l-.63 4.13c-.38 2.5-1.29 4.22-2.75 5.19-1.7338 1.029-3.7562 1.465-5.76 1.24-1.9357.036-3.82-.624-5.31-1.86-.4421-.481-.7831-1.045-1.003-1.66-.2198-.615-.3141-1.268-.277-1.92.0064-.602.0532-1.204.14-1.8l.62-4.11c.71-4.65 3.57-6.85 8.63-6.6zm.91 7.81c.0442-.291.0642-.586.06-.88-.0269-.453-.1716-.891-.42-1.27-.1528-.241-.3664-.437-.6193-.568-.2528-.132-.5359-.195-.8207-.182-.3146-.026-.6309.023-.9228.143-.292.12-.5515.308-.7572.547-.4932.558-.7946 1.259-.86 2l-.4 2.63c-.0193.306-.0193.614 0 .92.0258.428.1713.841.42 1.19.1543.228.3633.413.608.539.2446.126.517.188.792.181.3202.023.6414-.028.9394-.147.298-.12.5649-.305.7806-.543.4613-.543.7595-1.205.86-1.91zm13.91 11.12c-4.367-.24-6.56-2.07-6.58-5.49-.001-.512.036-1.023.11-1.53l.63-4.38c.086-.989.369-1.951.833-2.828.464-.878 1.098-1.654 1.867-2.282 1.666-1.189 3.701-1.746 5.74-1.57 4.5.22 6.76 2.103 6.78 5.65.013.694-.068 1.387-.24 2.06-.079.426-.238.834-.47 1.2l-.25.34-5.39-.28c.254-.229.455-.51.589-.825.135-.314.2-.653.191-.995 0-1.29-.58-2-1.72-2-.313-.025-.627.014-.924.114-.297.099-.571.258-.806.466-.53.54-.859 1.246-.93 2l-.4 2.58c-.04.224-.057.452-.05.68 0 1.26.7 1.93 2.09 2 .224.013.448-.019.66-.095.211-.075.405-.193.57-.345.345-.263.58-.644.66-1.07l5.25.36c-.653 4.433-3.383 6.513-8.19 6.24zm20.44-17.15c1.933-.015 3.8.699 5.23 2 .471.508.837 1.105 1.075 1.755.239.651.346 1.343.315 2.035-.004.576-.054 1.152-.15 1.72l-.66 4.18c-.4 2.52-1.343 4.267-2.83 5.24-1.779 1.045-3.85 1.484-5.9 1.25-2.46-.14-4.267-.767-5.42-1.88-.448-.485-.793-1.056-1.013-1.678-.22-.623-.311-1.283-.267-1.942-.004-.609.043-1.218.14-1.82l.65-4.16c.727-4.727 3.677-6.96 8.85-6.7zm.9 7.9c.044-.298.064-.599.06-.9-.032-.456-.18-.897-.43-1.28-.156-.245-.375-.444-.633-.578-.258-.133-.547-.196-.837-.182-.321-.024-.644.027-.942.148-.298.122-.565.311-.778.552-.502.554-.81 1.256-.88 2l-.4 2.67c-.05.307-.07.619-.06.93.025.434.171.853.42 1.21.159.232.375.42.627.546s.532.186.813.174c.325.027.652-.021.956-.14.303-.12.575-.308.794-.55.472-.546.777-1.216.88-1.93z" fill="#fff"/><path d="m164.15 59.5999-40.76-46.75c-1.544-1.8443-3.462-3.33997-5.627-4.38806-2.166-1.04809-4.528-1.62476-6.933-1.6919l-54.45-.58-4.9 1.69h.08c.9284-.18512 1.8733-.27558 2.82-.27l55.39.61c2.403.06854 4.764.64589 6.927 1.69393 2.163 1.04803 4.08 2.54293 5.623 4.38603l40.73 46.75c3.459 4.0645 5.35 9.2328 5.33 14.57l.06 64.5901c.038 4.229-1.222 8.369-3.61 11.86 3.094-3.724 4.76-8.429 4.7-13.27v-64.6301c-.003-5.342-1.91-10.5081-5.38-14.57z" fill="#909399"/></svg>