<svg fill="none" height="188" viewBox="0 0 171 188" width="171" xmlns="http://www.w3.org/2000/svg"><path d="m117 1.38999-48.6698-1.3200003c-2.0143-.023811-4.006.4262703-5.8143 1.3139103-1.8083.88765-3.3825 2.18799-4.5957 3.79609l-31.84 40.09001c-2.6976 3.632-4.0417 8.0922-3.8 12.61l2 57.28c.1449 4.685 1.7691 9.204 4.64 12.91l34.08 42.86c1.2549 1.686 2.8404 3.098 4.6595 4.15s3.8336 1.723 5.9205 1.97l47.9198 4.14c2.007.166 4.024-.148 5.885-.916 1.86-.769 3.511-1.97 4.815-3.504l34.23-39c3-3.612 4.55-8.209 4.35-12.9l-1.21-60.1c-.085-4.9585-1.819-9.7474-4.93-13.61l-36.54-44.00001c-1.333-1.69619-3.013-3.08832-4.927-4.08335-1.914-.99504-4.019-1.57006-6.173-1.68665z" fill="#199ed8"/><path d="m170.8 124.92-1.21-60.1c-.029-1.0323-.129-2.0615-.3-3.08l-26.83 7.38-.36 73.5 17.68 2.79 6.67-7.59c3-3.612 4.55-8.209 4.35-12.9z" fill="#069"/><path d="m167.78 136-25.19 6.9-32 35.64 4.6 2.06 6.3.55c2.006.166 4.024-.148 5.884-.916 1.861-.769 3.512-1.97 4.816-3.504l34.23-39c.277-.32.537-.654.78-1 .22-.16.41-.42.58-.73z" fill="#004f7f"/><path d="m42.0901 8.85002 21.86-8.08-4.1 8.89z" fill="#199ed8"/><path d="m103.56 187.16 22.41-6.39-14.1-3.88z" fill="#004f7f"/><path d="m93.4 9.82997-47.79-1.41c-1.9777-.0354-3.9355.39944-5.7123 1.26872-1.7768.86931-3.3218 2.14811-4.5076 3.73131l-31.17005 39.67c-2.64741 3.5992-3.955956 8.0093-3.699992 12.47l2.080002 56.73c.15885 4.638 1.76371 9.11 4.59 12.79l33.64994 42.51c1.231 1.668 2.7889 3.067 4.5788 4.112 1.7898 1.046 3.774 1.715 5.8313 1.968l47.0799 4.18c1.969.168 3.95-.14 5.775-.897 1.826-.757 3.443-1.941 4.715-3.453l33.5-38.5c2.942-3.583 4.453-8.129 4.24-12.76l-1.36-59.49c-.088-4.913-1.805-9.6577-4.88-13.49l-36-43.63c-1.303-1.6874-2.952-3.0774-4.8345-4.0776-1.883-1.0001-3.9576-1.58729-6.0855-1.72243z" fill="#007bbb"/><g fill="#fff"><path d="m39.14 84.3201c.2369-.2963.4135-.636.52-1 .121-.4119.1717-.8413.15-1.27-.0115-.4424-.089-.8806-.23-1.3-.1317-.398-.3313-.7702-.59-1.1-.2233-.3178-.5091-.5867-.84-.79-.3019-.1833-.6469-.2833-1-.29-.3447-.0354-.6923.0307-1 .19-.3155.1629-.584.4039-.78.7-.0713.0819-.1318.1727-.18.27-.26.4471-.4203.9451-.47 1.46-.1095 1.0642.1751 2.1316.8 3 .1679.2012.3519.3884.55.56.3462.3155.7921.4995 1.26.52.0686.0197.1414.0197.21 0 .3058-.0081.6049-.0907.8715-.2405.2666-.1499.4927-.3625.6585-.6195"/><path d="m40.85 100.83c.3194-.418.5569-.8934.7-1.4.1535-.553.221-1.1264.2-1.7-.0211-.5958-.129-1.1853-.32-1.75-.1821-.5418-.4487-1.0515-.79-1.51-.469-.6669-1.1488-1.1566-1.93-1.39-.5331-.1242-1.0912-.0847-1.6014.1133-.5103.198-.9489.5454-1.2586.9967-.0426.0225-.0775.0574-.1.1-.0762.1075-.1431.2212-.2.34-.1072.1572-.1914.329-.25.51-.0293.054-.0527.111-.07.17-.1407.4134-.2248.844-.25 1.28-.0053.0109-.0081.0229-.0081.035s.0028.0241.0081.035v.66c.0522 1.1625.4414 2.2847 1.12 3.23.2801.402.6424.741 1.0631.992.4206.252.89.411 1.3769.468.4449.039.8918-.048 1.29-.25.421-.219.7817-.538 1.05-.93"/><path d="m34.77 81.7301c-.014-.698.155-1.3875.49-2l-5.5-.89c.0614.3503.0981.7045.11 1.06.0214.3956-.0089.7922-.09 1.18l5.17 1.76c-.097-.3457-.1541-.7013-.17-1.06"/><path d="m29.0901 82.57c-.2051.2821-.4551.5287-.74.73l5.19 8.17.78-2-4.67-8c-.1158.3986-.3058.7718-.56 1.1z"/><path d="m28.3501 83.3c.2849-.2013.5349-.4479.74-.73.2566-.3229.447-.6934.56-1.09.0597-.1448.1033-.2957.13-.45.0811-.3878.1114-.7845.09-1.18-.0119-.3555-.0487-.7097-.11-1.06-.1577-.6486-.447-1.2579-.85-1.79-.268-.3709-.6082-.6838-1-.92-.3432-.2136-.7361-.3342-1.14-.35-.3907-.0298-.782.0499-1.13.23-.3675.1958-.6856.4728-.93.81-.2816.3737-.4887.798-.61 1.25-.1347.4913-.1887 1.0013-.16 1.51.0109.5134.0985 1.0224.26 1.51.1623.468.3986.9069.7 1.3.2688.3701.6088.6828 1 .92.3488.2092.7438.3294 1.15.35.4543.0264.9064-.0814 1.3-.31"/><path d="m29.7899 90.24s-.1499 3.1-.9299 4.13l-.15.2 3.23 1 1-2.56z"/><path d="m33.5401 91.4699-.62 1.57-1 2.56-2.05 5.4001c1.1498.34 2.1485 1.063 2.83 2.05.08.11.15.22.22.33l1.77-6.8001.37-1.48.35-1.35.42-1.73 1.78-6.87c-.0687.0192-.1413.0192-.21 0-.4679-.0205-.9138-.2045-1.26-.52l-1.82 4.77z"/><path d="m26.0001 95.8c-.2111-.0051-.4217-.0252-.63-.06l.91 6c.3721-.32.8043-.563 1.2713-.714.4671-.151.9596-.208 1.4487-.166.2953.019.5872.073.87.16l-1.64-6c-.3005.2706-.6538.476-1.0375.6033-.3838.1274-.7898.1739-1.1925.1367"/><path d="m35.7502 94.29.1-.1c.2034-.3063.4735-.5627.79-.75l-.8101-1.39-.4099 1.73z"/><path d="m34.6899 96.6101h.2601v-.06c.0203-.4366.1045-.8679.25-1.28l-.1701-.19z"/><path d="m34.4001 96.5099.28-1.61.84.36-.28 1.62z"/><path d="m30.17 90.4299c-.035-.7063-.1731-1.4037-.41-2.07-.2306-.6454-.5687-1.2473-1-1.78-.364-.5162-.8303-.9519-1.37-1.28-.482-.3004-1.0328-.4725-1.6-.5-.5433-.0301-1.0849.0837-1.57.33-.5136.2644-.9561.6486-1.29 1.12-.7688 1.1202-1.1451 2.4634-1.07 3.82.0317 1.4382.4989 2.8329 1.34 4 .5579.82 1.3804 1.4237 2.33 1.71.2081.0381.4186.0615.63.07.4024.0331.8073-.0154 1.1905-.1426.3831-.1271.7367-.3303 1.0395-.5974.1732-.1567.3369-.3236.49-.5.0437-.068.094-.1317.15-.19.3903-.5154.6819-1.0985.86-1.72.1921-.6826.2732-1.3916.24-2.1z"/><path d="m26.4902 101.76c-.3097.267-.5911.565-.8401.89-.7168.998-1.1582 2.167-1.28 3.39-.1545 1.349-.0076 2.715.43 4 .3943 1.206 1.0815 2.295 2 3.17.7793.76 1.796 1.23 2.88 1.33.6691.05 1.3392-.082 1.94-.38.6402-.323 1.1953-.792 1.62-1.37.4603-.647.7991-1.372 1-2.14.2257-.84.3201-1.711.28-2.58-.0075-1.635-.498-3.232-1.41-4.59-.0651-.115-.1386-.226-.22-.33-.681-.989-1.6795-1.716-2.83-2.06-.2827-.087-.5747-.141-.87-.16-.4825-.047-.9696.002-1.433.145-.4634.142-.894.375-1.2669.685z"/><path d="m75.59 84.64c-1.2983.0801-2.5635.4429-3.7069 1.063-1.1435.6201-2.1377 1.4825-2.9131 2.527-2.0926 2.6917-3.1245 6.0579-2.9 9.46.0433 3.565 1.2671 7.015 3.48 9.81.9918 1.309 2.2321 2.411 3.65 3.24 1.2811.752 2.726 1.181 4.21 1.25 1.4639.119 2.9332-.15 4.26-.78l-.14-5c-1.2691.397-2.5903.603-3.92.61-.9619-.094-1.8931-.39-2.7325-.869-.8393-.479-1.5678-1.13-2.1375-1.911-1.3563-1.737-2.114-3.867-2.16-6.07-.0435-1.092.0951-2.1836.41-3.23.2836-.9605.7562-1.8547 1.39-2.63.4721-.6565 1.0876-1.1968 1.7998-1.5797.7121-.383 1.5022-.5985 2.3102-.6303.2097-.015.4203-.015.63 0 .218.0091.4351.0325.65.07 1.1582.2795 2.2769.7028 3.33 1.26l-.16-5.31c-1.0177-.586-2.1319-.9856-3.29-1.18-.3312-.0517-.6651-.085-1-.1-.3331-.0187-.6669-.0187-1 0"/><path d="m63.5701 91.3101c-.1111-1.5517-.6096-3.0508-1.45-4.36-.4049-.6957-.8917-1.3403-1.45-1.92-.8775-.7517-1.9416-1.2526-3.08-1.45l-8.7901-.48.8701 27.1899 4.48.29-.34-10.58 3.35.2c1.0531 1.547 1.8437 3.256 2.34 5.06.5207 1.85.7468 3.77.67 5.69l4.4399.29c-.54-5.567-1.9666-9.853-4.28-12.8599 1.1811-.6079 2.1091-1.6139 2.6201-2.84.5832-1.3286.7973-2.7899.62-4.23zm-10.12-3c.7132-.1444 1.4486-.1389 2.1595.016.711.1549 1.382.456 1.9704.884.483.3312.8874.7643 1.1846 1.2689.2972.5045.48 1.0682.5354 1.6511.0862.5352.0257 1.0838-.1751 1.5874-.2007.5036-.5341.9434-.9648 1.2726-.6482.4333-1.3794.7273-2.1471.8633s-1.5553.111-2.3129-.0733z"/><path d="m122.37 93.5399-.14-5.68c-3.24-1-5.923-1.1233-8.05-.37-.871.2972-1.658.7993-2.295 1.4641-.637.6647-1.105 1.4727-1.365 2.3559-.401 1.044-.589 2.1574-.555 3.2751s.291 2.2174.755 3.2349c.884 1.6152 2.151 2.9891 3.69 4.0001 1 .67 2.26 1.61 3.91 2.79 1.06 1 1.36 2 .83 3.07-.188.44-.502.814-.902 1.076-.401.262-.87.399-1.348.394-1.38.13-3.45-.39-6.25-1.53l.15 5.81c4 1.05 7.09 1.17 9.18.4.902-.235 1.723-.71 2.375-1.376s1.11-1.497 1.325-2.404c.556-2.092.34-4.315-.61-6.26-.869-1.561-2.054-2.924-3.48-4.0001-1.29-.8805-2.522-1.8424-3.69-2.88-.467-.3356-.833-.7926-1.058-1.3214-.226-.5289-.303-1.1093-.222-1.6786.3-1.24 1.43-1.75 3.36-1.61 1.53.1266 3.02.5477 4.39 1.24z"/><path d="m107 114-1.24-27.7399-6.84-.38-3.31 19.2899-4.12-19.6999-6.77-.37.29 27.4799 4.65.3-.51-19.9999 4.85 20.2499 4 .26 3.75-19.7799.6 19.9999z"/></g><path d="m111.58 180.33 31.77-36.52c2.96-3.594 4.481-8.159 4.27-12.81l-1.36-59.5201c-.094-4.9088-1.81-9.6485-4.88-13.48l-36-43.63c-1.302-1.6922-2.953-3.0849-4.841-4.0838-1.8871-.99897-3.9671-1.5808-6.0989-1.70617l-47.84-1.4-4.49 1.66h.08c1.1198-.30908 2.2786-.45393 3.44-.43l47.79 1.41c2.1305.13114 4.2085.71547 6.0951 1.71397 1.8868.9985 3.5388 2.3881 4.8448 4.076l36 43.63c3.076 3.8324 4.792 8.5771 4.88 13.49l1.36 59.4901c.207 4.643-1.319 9.198-4.28 12.78z" fill="#41afd6"/></svg>