<svg fill="none" height="50" viewBox="0 0 135 50" width="135" xmlns="http://www.w3.org/2000/svg" xmlns:xlink="http://www.w3.org/1999/xlink"><clipPath id="a"><path d="m0 0h134.933v50h-134.933z"/></clipPath><g clip-path="url(#a)"><path d="m77.6587 15.8214-4.7845 7.7786 2.1311 7.65h-3.9697l-1.5669-5.6572h-1.6506l-.9819 5.6572h-3.7608l2.6534-15.4286h3.7607l-1.1073 6.4286h1.3372l3.9696-6.4286zm8.9751 12.1286c0 .3714.1811.5571.5433.5571.3761 0 .6895-.0714.9402-.2143l-.1045 2.4215c-.6686.5571-1.4208.8357-2.2565.8357-1.5739 0-2.4305-.6214-2.5698-1.8643-.8357 1.2429-1.964 1.8643-3.3847 1.8643-1.4068 0-2.3191-.3286-2.7369-.9857-.2786-.4143-.4179-.8857-.4179-1.4143s.0418-1.0143.1254-1.4572l1.17-6.75h3.5517l-.9819 5.7c-.0418.2572-.0627.5143-.0627.7715 0 .6857.3761 1.0285 1.1282 1.0285.6268 0 1.1282-.2214 1.5043-.6642l1.1909-6.8358h3.5519l-1.1701 6.75c-.0139.0858-.0209.1715-.0209.2572zm12.9171-4.8214c0 .4857-.0836.9571-.2507 1.4142-.1532.4572-.3065.7929-.4597 1.0072l-.2298.3h-3.1548c.3482-.3286.5223-.7357.5223-1.2214 0-.2572-.0836-.4643-.2507-.6215-.1532-.1714-.3691-.2571-.6477-.2571-.4736 0-.8845.2428-1.2327.7286l-1.17 6.7714h-3.5518l1.7759-10.3072h3.3011l-.2507 1.4358c.7939-1.1572 1.755-1.7358 2.8832-1.7358.9054 0 1.5809.2215 2.0266.6643.4597.4429.6895 1.05.6895 1.8215zm6.8461-2.4858c1.504 0 2.639.3358 3.405 1.0072.599.5286.899 1.2643.899 2.2071 0 .3143-.035.6572-.105 1.0286l-.439 2.5071c-.264 1.5143-.884 2.5858-1.859 3.2143-.961.6286-2.249.9429-3.865.9429s-2.8-.3143-3.552-.9429c-.557-.4714-.836-1.1785-.836-2.1214 0-.3286.035-.6929.105-1.0929l.439-2.5071c.487-2.8286 2.423-4.2429 5.808-4.2429zm.564 4.6715c.028-.1429.042-.3215.042-.5357 0-.2286-.091-.4786-.272-.75-.181-.2715-.501-.4072-.961-.4072-.446 0-.822.1572-1.128.4714-.307.3-.502.7072-.585 1.2215l-.272 1.6071c-.028.1429-.042.3286-.042.5572 0 .2142.091.45.272.7071s.494.3857.94.3857c.46 0 .843-.1571 1.149-.4714.307-.3286.502-.7214.585-1.1786zm9.202 6.2357c-2.897 0-4.345-1.0286-4.345-3.0857 0-.2857.027-.5929.083-.9215l.439-2.6571c.223-1.3714.829-2.4214 1.818-3.15 1.002-.7286 2.27-1.1 3.802-1.1143 2.967 0 4.45 1.0572 4.45 3.1714 0 .4572-.055.8715-.167 1.2429-.097.3571-.202.6-.314.7286l-.166.2143h-3.552c.348-.3143.522-.6858.522-1.1143 0-.7715-.376-1.1572-1.128-1.1572-.446 0-.829.1357-1.149.4072-.321.2714-.529.6857-.627 1.2428l-.272 1.5643c-.027.1429-.041.2786-.041.4072 0 .7571.459 1.1357 1.379 1.1357.306 0 .578-.1.814-.3.251-.2.397-.4215.439-.6643l3.468.0428c-.459 2.6715-2.277 4.0072-5.453 4.0072zm13.514-10.9072c1.504 0 2.639.3358 3.405 1.0072.599.5286.899 1.2643.899 2.2071 0 .3143-.035.6572-.105 1.0286l-.439 2.5071c-.264 1.5143-.884 2.5858-1.859 3.2143-.961.6286-2.25.9429-3.865.9429-1.616 0-2.8-.3143-3.552-.9429-.557-.4714-.836-1.1785-.836-2.1214 0-.3286.035-.6929.105-1.0929l.438-2.5071c.488-2.8286 2.424-4.2429 5.809-4.2429zm.564 4.6715c.028-.1429.042-.3215.042-.5357 0-.2286-.091-.4786-.272-.75-.181-.2715-.501-.4072-.961-.4072-.446 0-.822.1572-1.128.4714-.307.3-.502.7072-.585 1.2215l-.272 1.6071c-.028.1429-.042.3286-.042.5572 0 .2142.091.45.272.7071s.494.3857.94.3857c.46 0 .843-.1571 1.149-.4714.307-.3286.502-.7214.585-1.1786z" fill="#fff"/><path d="m32.3872 0h-16.0298c-1.3318 0-2.6089.543052-3.5531 1.50599l-11.33612 11.62801c-.938764.9686-1.46818 2.2786-1.46818 3.6447v16.4426c0 1.3661.529416 2.6761 1.46818 3.6447l11.33612 11.628c.9442.9686 2.2213 1.506 3.5531 1.506h16.0298c1.3317 0 2.6089-.543 3.5531-1.506l11.3361-11.628c.9442-.9686 1.4681-2.2786 1.4681-3.6447v-16.4426c0-1.3661-.5294-2.6761-1.4681-3.6447l-11.3416-11.62801c-.9387-.962938-2.2159-1.50599-3.5476-1.50599z" fill="#fff"/><path d="m35.3564 49.0091c-.9605.655-1.61.6886-2.2704.2575-.1474-.0952-.3112-.2686-.393-.4086-.0819-.1512-.3275-.935-.6004-1.9484-.4148-1.5507-.4694-1.7075-.584-1.741-.2784-.0896-2.3687-.2575-4.4864-.3583l-.6932-.0336.191.3527c.4203.7558.8078 1.7075 1.1463 2.816.1309.4311.2182.8006.2018.823-.0436.0447-2.4724.7278-2.4996.7054-.011-.0112-.1038-.3135-.2075-.6718-.4475-1.5116-.966-2.5529-1.7738-3.5831l-.3383-.4367-.1583.0841c-.2128.1119-.7205.6998-1.0698 1.2372-.3547.5486-.846 1.59-1.1952 2.5417-.1419.3863-.273.7222-.2948.7446-.0327.0336-2.3524-.8061-2.4506-.8902-.0764-.0559 1.0206-2.648 1.4463-3.443.011-.0168-.0491-.0224-.1309-.0168-.0874.0112-.655.0728-1.2718.1344-.6166.0615-1.168.1399-1.2334.1623-.1201.056-.1965.252-.7914 1.9819-.3875 1.1364-.4202 1.2093-.715 1.4612-.4367.3863-1.1298.5822-1.6592.3135 0 0 1.1352.9182 2.9364.9069 2.2923-.0112 16.2482 0 16.2482 0s1.3917-.0447 2.647-.9909zm-10.0643-32.8351c4.3717.2296 6.8933 1.0973 7.6246 2.6257.1365.2743.1529.3751.1529.8454 0 .487-.0164.5654-.1801.907-.2183.4534-.7205.9573-1.2772 1.2708-1.1298.6438-2.9636.9742-4.6829.8454-1.4136-.1064-2.3414-.3359-3.5258-.8902-.2783-.1231-.5512-.2295-.6168-.2295-.0654 0-.3437.1008-.6221.2184-1.1844.5206-2.2487.7109-3.7223.6606-2.145-.0729-3.5695-.7111-4.0825-1.8196-.1474-.3302-.1583-.3918-.131-.7837.1419-2.0379 1.7083-3.1072 5.1413-3.5103 1.5391-.1792 4.0279-.2407 5.9219-.14zm17.8527 24.9469c-.0218-.0169-.3929-.14-.633-.2296-1.0862-.3918-1.9649-.9125-3.4112-2.0099-2.0031-1.5339-2.8436-1.965-4.2791-2.2001-.4693-.0784-.644-.0784-1.1788-.0225-.6277.0617-1.1899.1849-1.8503.4088l-.3493.1175.0382.5935c.0164.3247.0491 1.5116.071 2.6312l.0327 2.0379-.2401-.0392c-.131-.0168-.6932-.0728-1.2499-.1175-3.9351-.3247-8.5962-.252-12.4986.1959-.5239.0616-.977.1119-1.0042.1119-.0546 0-.0055-2.5025.0763-3.8908.2075-3.32.6495-5.5201 1.3154-6.4943.1201-.1736.2129-.3248.202-.3359-.011-.0057-.1747-.0896-.3712-.1848-.1965-.0951-.6167-.3303-.9333-.5262-2.8108-1.7355-4.6228-4.5516-5.0485-7.8435-.1202-.9126-.0765-2.5809.0818-3.5606.7368-4.4284 3.1438-7.9947 6.8006-10.06609 1.3044-.74455 3.1819-1.29324 5.5398-1.62355.8568-.11758 3.291-.13437 4.148-.028 3.6131.45908 6.795 2.02104 9.4639 4.64114.5622.5542.6986.8174.7041 1.3268.0055.5991-.131.8118-1.0915 1.7524-1.1298 1.1029-1.4901 1.6292-1.4901 2.2001 0 .1176.0601.4983.1311.851.5075 2.413.4529 4.462-.1693 6.4551-.2183.6942-.644 1.6459-1.0151 2.2673-.1365.2296-.2402.4256-.2347.4311.0109.0113.3329-.0223.7205-.0671 1.8392-.2183 3.5257-.0225 5.1467.599.7095.2744 1.5882.5094 2.407.6438.5021.0784.9333.1008 2.1831.1008 1.5282-.0056 2.4178-.1456 3.5913-.3583 0 0-.0055 3.5382-.0055 4.2268 0 .6887-.1091 1.1925-.1091 1.1925-2.1013.5487-4.6938.4031-6.2984-.1344-.3111-.1063-1.0425-.3918-1.6319-.6438-1.7301-.7389-2.6089-.9853-3.897-1.1197-.7259-.0727-1.4245-.0672-1.8174.0225-.4585.1007-.4476.1455.0436.1455.9278 0 2.0794.2631 3.182.7222.8241.3415 1.3972.6607 2.4233 1.3604 1.9758 1.3436 3.8369 2.0938 6.6914 2.1498zm-21.5368-8.2074c.3657.0616 1.1625.1455 1.7792.1847l1.1189.0673-1.2007 1.5227c-.6659.8342-1.2172 1.5228-1.2335 1.5228-.0164.0056-.1965-.3919-.393-.8789-.202-.4816-.524-1.2653-.7205-1.7412l-.3547-.8621.1746.0335c.0983.0168.4694.084.8297.1512z" fill="#0f1015"/><path d="m25.3572 16.1236c4.3718.2296 6.8934 1.0974 7.6247 2.6258.1364.2743.1529.375.1529.8453 0 .4871-.0165.5655-.1801.907-.2184.4535-.7205.9573-1.2772 1.2709-1.1298.6438-2.9637.9741-4.6829.8453-1.4136-.1063-2.3415-.3359-3.5258-.8902-.2783-.1231-.5512-.2295-.6168-.2295-.0655 0-.3438.1008-.6222.2184-1.1843.5206-2.2487.711-3.7222.6606-2.145-.0728-3.5696-.7111-4.0826-1.8195-.1473-.3303-.1582-.3919-.131-.7838.1419-2.0379 1.7084-3.1071 5.1414-3.5103 1.5391-.1792 4.0279-.2407 5.9218-.14z" fill="#fff"/><path d="m21.608 32.9136c.3656.0615 1.1625.1455 1.7793.1847l1.1188.0672-1.2007 1.5227c-.6659.8342-1.2171 1.5228-1.2335 1.5228-.0163.0056-.1965-.3919-.3929-.8789-.202-.4815-.524-1.2653-.7205-1.7411l-.3547-.8622.1746.0336c.0982.0168.4694.0839.8296.1512z" fill="#fff"/><g fill="#0f1015"><path d="m17.9184 17.848c-.4038.1959-.6331.4367-.8241.8678-.1256.291-.1419.3751-.1201.7837.0382.6998.3494 1.1869.9442 1.4892.3821.1904 1.0207.196 1.43.0056.3329-.1511.6877-.5206.8514-.8901.1801-.4031.1638-1.0582-.0327-1.4557-.4367-.8621-1.4136-1.2093-2.2487-.8005z"/><path d="m26.7439 17.7807c-.322.1176-.7914.5711-.9279.9013-.3711.8902-.0327 1.8756.7969 2.2898.2619.1343.3821.1567.7477.1567.3657 0 .4858-.0224.7478-.1567.8186-.4087 1.1789-1.4724.7859-2.3009-.1801-.3807-.6004-.7782-.9443-.8958-.3165-.112-.895-.1064-1.2061.0056z"/></g></g></svg>