<svg fill="none" height="46" viewBox="0 0 150 46" width="150" xmlns="http://www.w3.org/2000/svg"><g fill="#fff"><path d="m26.3005 9.19642c.3586-.35088.6425-.77401.8339-1.2428.1914-.4688.2863-.97313.2786-1.48133.0119-.50926-.0811-1.01536-.2728-1.4853s-.4778-.89317-.8397-1.24207c-.3403-.36984-.7526-.66222-1.2101-.85822-.4576-.196-.9502-.29123-1.4459-.27954-.4956-.00796-.9876.08896-1.4451.28471-.4576.19576-.8708.48616-1.214.85305-.1033.0986-.1967.2075-.279.32508-.3975.49894-.6644 1.09368-.7753 1.72794-.111.63426-.0623 1.28707.1415 1.89663.1971.56224.5082 1.07522.9128 1.5051.2458.23046.5109.43823.7923.62089.5597.35634 1.2083.53824 1.8668.52334.1071.0062.2144-.0071.317-.039.8882-.045 1.7256-.43838 2.339-1.09873"/><path d="m28.0477 28.239c.4805-.4736.8618-1.0428 1.1207-1.6727.2588-.6299.3898-1.3073.3848-1.9909.0005-.6886-.1323-1.3705-.3907-2.0061-.2585-.6356-.6374-1.2122-1.1148-1.6964-.7604-.7948-1.7512-1.3155-2.8243-1.4843-1.073-.1687-2.1705.0235-3.128.5481-.4631.231-.8801.5485-1.2298.9362-.0602.0286-.1142.0695-.1585.1202-.1148.1289-.2207.2657-.3169.4096-.1596.1828-.292.3888-.393.6112-.0486.0615-.0891.1292-.1205.2015-.2269.4728-.3737.9818-.4342 1.5051-.0412.0423-.0412.0423-.0412.0813 0 .247-.038.4941-.038.7736.0166 1.3826.5627 2.703 1.5204 3.6761.9577.9732 2.2502 1.521 3.5983 1.5251.667.0144 1.3294-.1154 1.9443-.3809.6149-.2654 1.1684-.6607 1.6245-1.1599"/><path d="m19.8738 6.46907c.0112-.87327.3044-1.71808.8335-2.4023l-8.2406-.68591c.082.40079.1213.80953.1173 1.21903.0177.46873-.0479.93686-.1934 1.38157l7.6955 1.70989c-.1283-.39424-.1957-.80666-.1996-1.22228"/><path d="m11.2648 7.81153c-.3372.35685-.7251.65934-1.1505.89721l7.4197 9.15406 1.2678-2.399-6.6242-8.95257c-.2178.49088-.528.93278-.9128 1.3003"/><path d="m10.1144 8.70872c.4248-.23894.8125-.54131 1.1505-.89721.3868-.36576.6973-.80809.9128-1.3003.0942-.16579.1657-.34408.2124-.52987.144-.44506.2095-.91291.1933-1.38156.003-.41036-.0352-.81995-.1141-1.22228-.2182-.77198-.629-1.47226-1.1917-2.03171-.4035-.433311-.8899-.776501-1.42877-1.008078-.53884-.231577-1.11849-.34655329-1.70266-.33772813-.58933-.00538158-1.17368.11100613-1.71821.34222313-.54454.231216-1.0381.572528-1.45126 1.003583-.4231.42158-.75774.92739-.98338 1.4864-.22564.559-.33752 1.15939-.32878 1.76434-.00861.59914.10349 1.19366.32928 1.74631s.5604 1.05154.98288 1.46542c.41316.43106.90672.77237 1.45126 1.00358.54453.23122 1.12888.34761 1.71821.34223.68424-.00018 1.36022-.15327 1.98093-.44861"/><path d="m11.9303 16.6892s-.3867 3.6148-1.6164 4.8761l-.2377.2438 4.8366.9752 1.5847-3.0491z"/><path d="m17.5313 17.8629-1.0206 1.8724-1.5847 3.0492-3.4231 6.469c1.5859.2464 3.0496 1.0182 4.1679 2.1975.1161.1125.2222.2354.3169.3673l3.011-8.0553.6339-1.7489.5959-1.5864.7194-2.0382 3.0174-8.0943c-.1026.0319-.2099.0451-.317.039-.6598.0192-1.3107-.1593-1.8731-.51364l-2.973 5.65624z"/><path d="m5.91178 23.4345c-.31734.0056-.63475-.0063-.95084-.0358l1.07445 6.9566c1.23649-.8284 2.68811-1.2545 4.16471-1.2223.4389.0015.8768.0417 1.309.1203l-2.18063-6.8265c-1.00812.6898-2.19872 1.0451-3.41035 1.0174"/><path d="m20.7066 20.9932.1617-.1202c.3463-.3893.7629-.7061 1.2266-.933l-1.1474-1.5506-.7131 2.0382z"/><path d="m19.001 23.7629.393.0358.0444-.0781c.06-.5244.2069-1.0345.4342-1.5083l-.2377-.2016z"/><path d="m18.5674 23.6751.4976-1.9017 1.2456.3674-.4976 1.8984z"/><path d="m12.4942 16.8844c-.0133-.8223-.1848-1.6338-.5046-2.388s-.7817-1.4363-1.359-2.007c-.5713-.6023-1.25636-1.0787-2.01333-1.4001s-1.56992-.481-2.38911-.469c-.81868-.005-1.63008.1578-2.3866.4788-.75652.3209-1.44293.7936-2.01896 1.3903-1.167479 1.2068-1.8226 2.838-1.8226 4.5381 0 1.7.655121 3.3312 1.8226 4.538.92447.9807 2.13688 1.6236 3.45155 1.8302.31592.0323.63342.0453.95084.039 1.21163.0276 2.40223-.3276 3.41035-1.0175.26268-.1901.51556-.3941.75746-.6111.0761-.0781.1553-.1561.2346-.2406.5947-.5823 1.0669-1.2833 1.3874-2.0598.3205-.7766.4826-1.6122.4762-2.4555z"/><path d="m6.34528 30.3554c-.4705.3199-.90896.6869-1.309 1.0955-1.08275 1.1102-1.82015 2.5248-2.11892 4.0649-.29877 1.54-.14549 3.1364.44045 4.5871.58594 1.4508 1.57821 2.6907 2.85131 3.5629 1.2731.8723 2.76982 1.3377 4.30088 1.3374 1.0155.0052 2.0218-.1968 2.9605-.5942.9386-.3975 1.7908-.9825 2.507-1.7209.7161-.7384 1.2819-1.6156 1.6644-2.5804.3825-.9649.5741-1.9981.5635-3.0396.0559-1.937-.6262-3.8202-1.9016-5.2499-.0965-.1305-.2025-.2533-.317-.3673-1.1187-1.1788-2.5822-1.9504-4.1678-2.1975-.4322-.0789-.8701-.1191-1.309-.1203-1.47667-.0326-2.9284.3935-4.16472 1.2223"/><path d="m80.2444 7.2427c-3.7002.2798-7.1873 1.8823-9.8539 4.5283-3.1377 3.0979-4.6844 6.7583-4.6844 11.0752 0 4.317 1.5467 8.0164 4.6844 11.0526 1.5016 1.498 3.2778 2.6758 5.226 3.4654 1.9481.7895 4.0296 1.1751 6.1239 1.1344 2.1478.0231 4.2787-.3913 6.2692-1.2191v-5.6985c-1.8779.5406-3.8081.8676-5.7557.9752-2.6118.0127-5.1276-1.0085-7.0236-2.8509-1.9017-1.9147-2.8969-4.1902-2.8969-6.8265-.0118-1.2857.24-2.5595.739-3.7389.4991-1.1794 1.2343-2.238 2.1579-3.1072 1.632-1.6748 3.8088-2.6737 6.1139-2.8054.3031-.0334.6081-.0465.9128-.039.3175-.0065.635.0065.9509.039 1.0301.0845 2.6592.4909 4.8017 1.2223v-6.06914c-1.5231-.61173-3.1244-.99493-4.7542-1.13776-.5166-.04226-.992-.04226-1.5087-.04226-.5166 0-1.0332 0-1.5086.04226"/><path d="m62.3089 15.6718c-.1155-1.8135-.7979-3.5405-1.946-4.9249-.5922-.79698-1.2862-1.50876-2.0633-2.11619-1.3627-.84191-2.8986-1.3451-4.4848-1.46933h-13.0169v31.42812h6.6558v-12.2162h4.9602c1.4506 1.6424 2.5525 3.5762 3.2356 5.6787s.9326 4.3277.7326 6.5343h6.5607c-.5546-6.3942-2.4595-11.2411-5.7525-14.5341 1.6609-.6866 3.0653-1.8981 4.0093-3.4588.8983-1.4661 1.2891-3.1998 1.1093-4.9216zm-14.8425-2.8086c2.4214-.4064 4.4372-.1236 6.0727.7704 1.5055.8159 2.301 1.8757 2.4214 3.2507.1205 1.3751-.4374 2.4771-1.8256 3.3776-1.5498 1.0174-3.8033 1.4205-6.6558 1.219z"/><path d="m147.267 14.3717v-6.39747c-4.561-.93296-8.371-.89395-11.429.08127-2.622.85819-4.438 2.4023-5.357 4.551-1.226 2.8867-1.226 5.3313.041 7.3662.872 1.5051 2.58 2.8932 5.122 4.2715 1.344.6924 3.17 1.6676 5.474 2.8931 1.467 1.0565 1.863 2.1943 1.068 3.4166-.672 1.0987-1.74 1.7099-3.252 1.8301-1.984.2471-4.922-.2015-8.874-1.3002v6.5925c5.705.9004 10.075.8159 13.089-.2016 2.938-.9362 4.723-2.4478 5.388-4.551.831-2.6851.634-5.0452-.633-7.0411-.872-1.4239-2.501-2.8509-4.805-4.2748-2.536-1.3393-4.282-2.36-5.157-3.0101-1.509-1.0565-2.063-2.1975-1.702-3.2963.472-1.4238 2.098-2.0772 4.84-2.035 2.106.0259 4.195.3991 6.187 1.1053"/><path d="m124.535 38.5831-.716-31.4249h-9.807l-5.549 22.183-5.163-22.183h-9.8005l-.7163 31.4249h6.7479l.0792-22.7942 6.1897 22.7942h5.718l6.187-22.7942.082 22.7942z"/></g></svg>