<svg xmlns="http://www.w3.org/2000/svg" width="54" height="54" viewBox="0 0 54 54">
  <g id="グループ_1940" data-name="グループ 1940" transform="translate(-50 -644)">
    <circle id="楕円形_7" data-name="楕円形 7" cx="3" cy="3" r="3" transform="translate(66 644)" fill="#828494"/>
    <circle id="楕円形_9" data-name="楕円形 9" cx="3" cy="3" r="3" transform="translate(66 676)" fill="#828494"/>
    <circle id="楕円形_8" data-name="楕円形 8" cx="3" cy="3" r="3" transform="translate(66 660)" fill="#828494"/>
    <circle id="楕円形_10" data-name="楕円形 10" cx="3" cy="3" r="3" transform="translate(66 692)" fill="#828494"/>
    <circle id="楕円形_7-2" data-name="楕円形 7" cx="3" cy="3" r="3" transform="translate(50 644)" fill="#828494"/>
    <circle id="楕円形_9-2" data-name="楕円形 9" cx="3" cy="3" r="3" transform="translate(50 676)" fill="#828494"/>
    <circle id="楕円形_8-2" data-name="楕円形 8" cx="3" cy="3" r="3" transform="translate(50 660)" fill="#828494"/>
    <circle id="楕円形_10-2" data-name="楕円形 10" cx="3" cy="3" r="3" transform="translate(50 692)" fill="#828494"/>
    <circle id="楕円形_7-3" data-name="楕円形 7" cx="3" cy="3" r="3" transform="translate(98 644)" fill="#828494"/>
    <circle id="楕円形_9-3" data-name="楕円形 9" cx="3" cy="3" r="3" transform="translate(98 676)" fill="#828494"/>
    <circle id="楕円形_8-3" data-name="楕円形 8" cx="3" cy="3" r="3" transform="translate(98 660)" fill="#828494"/>
    <circle id="楕円形_10-3" data-name="楕円形 10" cx="3" cy="3" r="3" transform="translate(98 692)" fill="#828494"/>
    <circle id="楕円形_7-4" data-name="楕円形 7" cx="3" cy="3" r="3" transform="translate(82 644)" fill="#828494"/>
    <circle id="楕円形_9-4" data-name="楕円形 9" cx="3" cy="3" r="3" transform="translate(82 676)" fill="#828494"/>
    <circle id="楕円形_8-4" data-name="楕円形 8" cx="3" cy="3" r="3" transform="translate(82 660)" fill="#828494"/>
    <circle id="楕円形_10-4" data-name="楕円形 10" cx="3" cy="3" r="3" transform="translate(82 692)" fill="#828494"/>
  </g>
</svg>
