<svg xmlns="http://www.w3.org/2000/svg" width="1040" height="292.861" viewBox="0 0 1040 292.861">
  <g id="グループ_5184" data-name="グループ 5184" transform="translate(-200 -4693)">
    <g id="グループ_29" data-name="グループ 29" transform="translate(-968 1257)">
      <g id="長方形_112" data-name="長方形 112" transform="translate(1170 3438)" fill="#f7f8fd" stroke="#682ae9" stroke-width="2">
        <rect width="1036" height="289" stroke="none"/>
        <rect x="1" y="1" width="1034" height="287" fill="none"/>
      </g>
      <path id="パス_11" data-name="パス 11" d="M0,0,44,44H0Z" transform="translate(2208 3480) rotate(180)" fill="#fff"/>
      <path id="パス_13" data-name="パス 13" d="M0,0,44,44H0Z" transform="translate(2164 3728.861) rotate(-90)" fill="#fff"/>
      <path id="パス_12" data-name="パス 12" d="M0,0,44,44H0Z" transform="translate(1168 3684.861)" fill="#fff"/>
      <path id="パス_14" data-name="パス 14" d="M0,0,44,44H0Z" transform="translate(1212 3436) rotate(90)" fill="#fff"/>
    </g>
    <line id="線_20" data-name="線 20" x2="39" y2="39" transform="translate(1198.5 4696.5)" fill="none" stroke="#682ae9" stroke-width="2"/>
    <line id="線_23" data-name="線 23" x2="39" y2="39" transform="translate(242.5 4696.5) rotate(90)" fill="none" stroke="#682ae9" stroke-width="2"/>
    <line id="線_21" data-name="線 21" x2="39" y2="39" transform="translate(1237.5 4944.5) rotate(90)" fill="none" stroke="#682ae9" stroke-width="2"/>
    <line id="線_22" data-name="線 22" x2="39" y2="39" transform="translate(203.5 4944.5)" fill="none" stroke="#682ae9" stroke-width="2"/>
  </g>
</svg>
