<svg fill="none" height="63" viewBox="0 0 64 63" width="64" xmlns="http://www.w3.org/2000/svg"><path d="m21 34.6602 8-13.8565" stroke="#6ef08b" stroke-linecap="round" stroke-width="6"/><path d="m34.4827-.00000129c16.3017-.00000071 29.5169 13.43150129 29.5169 30.00000129 0 8.4662-.9505 16.7793-6.5001 23-5.3111 5.9533-15.0449 10-23.0168 10-16.3017 0-29.51688-16.4315-29.51688-33 0-5.0564 4.36001-15.8206 6.53368-20 1.0402-2 11.6564-10.0000008 22.9832-10.00000129z" fill="#5ef37f"/><circle cx="30" cy="33" fill="#0cd839" r="30" transform="matrix(0 -1 1 0 -3 63)"/><g stroke="#fff" stroke-linecap="round" stroke-width="6"><path d="m32.9307 26.6841 8.5645 7.1865"/><path d="m32.9307 41.3237 8.5645-7.1865"/><path d="m19.0049 26.6841 8.5646 7.1865"/><path d="m19.0049 41.3242 8.5646-7.1865"/></g></svg>