<svg fill="none" height="35" viewBox="0 0 172 35" width="172" xmlns="http://www.w3.org/2000/svg" xmlns:xlink="http://www.w3.org/1999/xlink"><filter id="a" color-interpolation-filters="sRGB" filterUnits="userSpaceOnUse" height="33.76" width="171.111" x=".167969" y=".687988"><feFlood flood-opacity="0" result="BackgroundImageFix"/><feColorMatrix in="SourceAlpha" result="hardAlpha" type="matrix" values="0 0 0 0 0 0 0 0 0 0 0 0 0 0 0 0 0 0 127 0"/><feOffset/><feGaussianBlur stdDeviation="2"/><feComposite in2="hardAlpha" operator="out"/><feColorMatrix type="matrix" values="0 0 0 0 0 0 0 0 0 0 0 0 0 0 0 0 0 0 0.25 0"/><feBlend in2="BackgroundImageFix" mode="normal" result="effect1_dropShadow_3_8642"/><feBlend in="SourceGraphic" in2="effect1_dropShadow_3_8642" mode="normal" result="shape"/></filter><g fill="#fff" filter="url(#a)"><path d="m17 30 .192-5.024h-5.344l-1.568 5.024h-6.11203l8.22403-23.04001h10.56l.128 23.04001zm-1.312-17.44-2.528 8.128h4.192l.352-8.128z"/><path d="m36.508 20.176c0-.9173-.448-1.376-1.344-1.376-.8747 0-1.6.3307-2.176.992l-1.792 10.208h-5.44l2.72-15.392h5.056l-.352 1.888c1.2586-1.5573 2.848-2.336 4.768-2.336s3.168.4693 3.744 1.408c.3626.5973.544 1.28.544 2.048s-.0534 1.4827-.16 2.144l-.864 4.928c-.0214.128-.032.2453-.032.352 0 .576.32.864.96.864.4906 0 .928-.1067 1.312-.32l-.16 3.616c-1.0027.832-2.144 1.248-3.424 1.248-2.9014 0-4.352-1.216-4.352-3.648 0-.4267.0426-.8853.128-1.376l.768-4.256c.064-.384.096-.7147.096-.992z"/><path d="m60.337 25.072c0 .5547.2773.832.832.832.576 0 1.056-.1067 1.44-.32l-.16 3.616c-1.024.832-2.176 1.248-3.456 1.248-2.3467 0-3.648-.8533-3.904-2.56-1.0667 1.7067-2.6347 2.56-4.704 2.56-3.4987 0-5.248-1.504-5.248-4.512 0-.512.0533-1.0773.16-1.696l.672-3.744c.3413-1.92 1.12-3.4453 2.336-4.576 1.2373-1.152 2.944-1.728 5.12-1.728 1.344 0 2.4106.288 3.2.864l1.632-9.34401h5.472l-3.36 18.97601c-.0214.128-.032.256-.032.384zm-9.472-1.536c-.0427.192-.064.4587-.064.8s.16.6827.48 1.024c.32.32.8533.48 1.6.48.768 0 1.4293-.2987 1.984-.896l.96-5.376c-.2347-.5333-.7894-.8-1.664-.8-1.6427 0-2.6027.7893-2.88 2.368z"/><path d="m99.3875 25.904c.4906 0 .9275-.1067 1.3115-.32l-.16 3.616c-1.0022.832-2.1435 1.248-3.4235 1.248-2.9014 0-4.352-1.216-4.352-3.648 0-.4267.0426-.8853.128-1.376l.672-3.936c.064-.384.096-.768.096-1.152 0-1.024-.5654-1.536-1.696-1.536-1.1094 0-1.984.4373-2.624 1.312l-1.728 9.888h-5.44l1.504-8.512c.064-.384.096-.768.096-1.152 0-1.024-.576-1.536-1.728-1.536-.9174 0-1.7067.352-2.368 1.056l-1.792 10.144h-5.44l2.72-15.392h5.056l-.352 1.92c1.28-1.5787 2.9013-2.368 4.864-2.368 2.7733 0 4.352.9173 4.736 2.752 1.28-1.8347 2.9866-2.752 5.12-2.752 2.1546 0 3.552.48 4.192 1.44.4266.6613.64 1.3867.64 2.176s-.0534 1.504-.16 2.144l-.8 4.768c-.0214.128-.032.2453-.032.352 0 .576.32.864.96.864z"/><path d="m112.147 14.16c2.304 0 4.043.5013 5.216 1.504.917.7893 1.376 1.888 1.376 3.296 0 .4693-.053.9813-.16 1.536l-.672 3.744c-.405 2.2613-1.355 3.8613-2.848 4.8-1.472.9387-3.445 1.408-5.92 1.408s-4.288-.4693-5.44-1.408c-.853-.704-1.28-1.76-1.28-3.168 0-.4907.053-1.0347.16-1.632l.672-3.744c.747-4.224 3.712-6.336 8.896-6.336zm.864 6.976c.043-.2133.064-.48.064-.8 0-.3413-.139-.7147-.416-1.12s-.768-.608-1.472-.608c-.683 0-1.259.2347-1.728.704-.469.448-.768 1.056-.896 1.824l-.416 2.4c-.043.2133-.064.4907-.064.832 0 .32.139.672.416 1.056s.757.576 1.44.576c.704 0 1.291-.2347 1.76-.704.469-.4907.768-1.0773.896-1.76z"/><path d="m136.161 17.872c0 .7253-.128 1.4293-.384 2.112-.234.6827-.469 1.184-.704 1.504l-.352.448h-4.832c.534-.4907.8-1.0987.8-1.824 0-.384-.128-.6933-.384-.928-.234-.256-.565-.384-.992-.384-.725 0-1.354.3627-1.888 1.088l-1.792 10.112h-5.44l2.72-15.392h5.056l-.384 2.144c1.216-1.728 2.688-2.592 4.416-2.592 1.387 0 2.422.3307 3.104.992.704.6613 1.056 1.568 1.056 2.72z"/><path d="m143.543 30.448c-4.437 0-6.656-1.536-6.656-4.608 0-.4267.043-.8853.128-1.376l.672-3.968c.363-2.048 1.301-3.616 2.816-4.704 1.536-1.1093 3.563-1.664 6.08-1.664 4.288 0 6.432 1.6213 6.432 4.864 0 .4693-.043.9813-.128 1.536l-.384 2.272h-9.76l-.128.736c-.043.256-.064.4907-.064.704 0 1.1733.693 1.76 2.08 1.76.512 0 .949-.16 1.312-.48s.576-.6933.64-1.12l5.312.064c-.704 3.9893-3.488 5.984-8.352 5.984zm3.84-9.6c.085-.3627.128-.6933.128-.992 0-.32-.139-.64-.416-.96s-.725-.48-1.344-.48c-.597 0-1.152.2027-1.664.608-.491.4053-.832 1.0133-1.024 1.824z"/><path d="m163.791 21.616h-4.256l2.304-16.92801h5.44zm-6.208 6.528c0-1.3653.299-2.3573.896-2.976.598-.64 1.547-.96 2.848-.96 1.792 0 2.688.7893 2.688 2.368 0 1.344-.309 2.3253-.928 2.944-.597.6187-1.546.928-2.848.928-1.77 0-2.656-.768-2.656-2.304z"/></g></svg>