<svg xmlns="http://www.w3.org/2000/svg" width="1171" height="507" viewBox="0 0 1171 507">
  <g id="グループ_5191" data-name="グループ 5191" transform="translate(-156 -1752)">
    <g id="コンポーネント_2_18" data-name="コンポーネント 2 – 18" transform="translate(1145 1804)">
      <g id="グループ_1920" data-name="グループ 1920" transform="translate(910 -1748)">
        <circle id="楕円形_7" data-name="楕円形 7" cx="3" cy="3" r="3" transform="translate(-734 1748)" fill="#e1d4fb"/>
        <circle id="楕円形_9" data-name="楕円形 9" cx="3" cy="3" r="3" transform="translate(-734 1780)" fill="#e1d4fb"/>
        <circle id="楕円形_11" data-name="楕円形 11" cx="3" cy="3" r="3" transform="translate(-734 1812)" fill="#e1d4fb"/>
        <circle id="楕円形_13" data-name="楕円形 13" cx="3" cy="3" r="3" transform="translate(-734 1844)" fill="#e1d4fb"/>
        <circle id="楕円形_15" data-name="楕円形 15" cx="3" cy="3" r="3" transform="translate(-734 1860)" fill="#e1d4fb"/>
        <circle id="楕円形_8" data-name="楕円形 8" cx="3" cy="3" r="3" transform="translate(-734 1764)" fill="#e1d4fb"/>
        <circle id="楕円形_10" data-name="楕円形 10" cx="3" cy="3" r="3" transform="translate(-734 1796)" fill="#e1d4fb"/>
        <circle id="楕円形_12" data-name="楕円形 12" cx="3" cy="3" r="3" transform="translate(-734 1828)" fill="#e1d4fb"/>
        <circle id="楕円形_14" data-name="楕円形 14" cx="3" cy="3" r="3" transform="translate(-734 1860)" fill="#e1d4fb"/>
        <circle id="楕円形_17" data-name="楕円形 17" cx="3" cy="3" r="3" transform="translate(-734 1892)" fill="#e1d4fb"/>
        <circle id="楕円形_19" data-name="楕円形 19" cx="3" cy="3" r="3" transform="translate(-734 1924)" fill="#e1d4fb"/>
        <circle id="楕円形_16" data-name="楕円形 16" cx="3" cy="3" r="3" transform="translate(-734 1876)" fill="#e1d4fb"/>
        <circle id="楕円形_18" data-name="楕円形 18" cx="3" cy="3" r="3" transform="translate(-734 1908)" fill="#e1d4fb"/>
      </g>
      <g id="グループ_1927" data-name="グループ 1927" transform="translate(846 -1748)">
        <circle id="楕円形_7-2" data-name="楕円形 7" cx="3" cy="3" r="3" transform="translate(-734 1748)" fill="#e1d4fb"/>
        <circle id="楕円形_9-2" data-name="楕円形 9" cx="3" cy="3" r="3" transform="translate(-734 1780)" fill="#e1d4fb"/>
        <circle id="楕円形_11-2" data-name="楕円形 11" cx="3" cy="3" r="3" transform="translate(-734 1812)" fill="#e1d4fb"/>
        <circle id="楕円形_13-2" data-name="楕円形 13" cx="3" cy="3" r="3" transform="translate(-734 1844)" fill="#e1d4fb"/>
        <circle id="楕円形_15-2" data-name="楕円形 15" cx="3" cy="3" r="3" transform="translate(-734 1860)" fill="#e1d4fb"/>
        <circle id="楕円形_8-2" data-name="楕円形 8" cx="3" cy="3" r="3" transform="translate(-734 1764)" fill="#e1d4fb"/>
        <circle id="楕円形_10-2" data-name="楕円形 10" cx="3" cy="3" r="3" transform="translate(-734 1796)" fill="#e1d4fb"/>
        <circle id="楕円形_12-2" data-name="楕円形 12" cx="3" cy="3" r="3" transform="translate(-734 1828)" fill="#e1d4fb"/>
        <circle id="楕円形_14-2" data-name="楕円形 14" cx="3" cy="3" r="3" transform="translate(-734 1860)" fill="#e1d4fb"/>
        <circle id="楕円形_17-2" data-name="楕円形 17" cx="3" cy="3" r="3" transform="translate(-734 1892)" fill="#e1d4fb"/>
        <circle id="楕円形_19-2" data-name="楕円形 19" cx="3" cy="3" r="3" transform="translate(-734 1924)" fill="#e1d4fb"/>
        <circle id="楕円形_16-2" data-name="楕円形 16" cx="3" cy="3" r="3" transform="translate(-734 1876)" fill="#e1d4fb"/>
        <circle id="楕円形_18-2" data-name="楕円形 18" cx="3" cy="3" r="3" transform="translate(-734 1908)" fill="#e1d4fb"/>
      </g>
      <g id="グループ_1931" data-name="グループ 1931" transform="translate(782 -1748)">
        <circle id="楕円形_7-3" data-name="楕円形 7" cx="3" cy="3" r="3" transform="translate(-734 1748)" fill="#e1d4fb"/>
        <circle id="楕円形_9-3" data-name="楕円形 9" cx="3" cy="3" r="3" transform="translate(-734 1780)" fill="#e1d4fb"/>
        <circle id="楕円形_11-3" data-name="楕円形 11" cx="3" cy="3" r="3" transform="translate(-734 1812)" fill="#e1d4fb"/>
        <circle id="楕円形_13-3" data-name="楕円形 13" cx="3" cy="3" r="3" transform="translate(-734 1844)" fill="#e1d4fb"/>
        <circle id="楕円形_15-3" data-name="楕円形 15" cx="3" cy="3" r="3" transform="translate(-734 1860)" fill="#e1d4fb"/>
        <circle id="楕円形_8-3" data-name="楕円形 8" cx="3" cy="3" r="3" transform="translate(-734 1764)" fill="#e1d4fb"/>
        <circle id="楕円形_10-3" data-name="楕円形 10" cx="3" cy="3" r="3" transform="translate(-734 1796)" fill="#e1d4fb"/>
        <circle id="楕円形_12-3" data-name="楕円形 12" cx="3" cy="3" r="3" transform="translate(-734 1828)" fill="#e1d4fb"/>
        <circle id="楕円形_14-3" data-name="楕円形 14" cx="3" cy="3" r="3" transform="translate(-734 1860)" fill="#e1d4fb"/>
        <circle id="楕円形_17-3" data-name="楕円形 17" cx="3" cy="3" r="3" transform="translate(-734 1892)" fill="#e1d4fb"/>
        <circle id="楕円形_19-3" data-name="楕円形 19" cx="3" cy="3" r="3" transform="translate(-734 1924)" fill="#e1d4fb"/>
        <circle id="楕円形_16-3" data-name="楕円形 16" cx="3" cy="3" r="3" transform="translate(-734 1876)" fill="#e1d4fb"/>
        <circle id="楕円形_18-3" data-name="楕円形 18" cx="3" cy="3" r="3" transform="translate(-734 1908)" fill="#e1d4fb"/>
      </g>
      <g id="グループ_1921" data-name="グループ 1921" transform="translate(894 -1748)">
        <circle id="楕円形_7-4" data-name="楕円形 7" cx="3" cy="3" r="3" transform="translate(-734 1748)" fill="#e1d4fb"/>
        <circle id="楕円形_9-4" data-name="楕円形 9" cx="3" cy="3" r="3" transform="translate(-734 1780)" fill="#e1d4fb"/>
        <circle id="楕円形_11-4" data-name="楕円形 11" cx="3" cy="3" r="3" transform="translate(-734 1812)" fill="#e1d4fb"/>
        <circle id="楕円形_13-4" data-name="楕円形 13" cx="3" cy="3" r="3" transform="translate(-734 1844)" fill="#e1d4fb"/>
        <circle id="楕円形_15-4" data-name="楕円形 15" cx="3" cy="3" r="3" transform="translate(-734 1860)" fill="#e1d4fb"/>
        <circle id="楕円形_8-4" data-name="楕円形 8" cx="3" cy="3" r="3" transform="translate(-734 1764)" fill="#e1d4fb"/>
        <circle id="楕円形_10-4" data-name="楕円形 10" cx="3" cy="3" r="3" transform="translate(-734 1796)" fill="#e1d4fb"/>
        <circle id="楕円形_12-4" data-name="楕円形 12" cx="3" cy="3" r="3" transform="translate(-734 1828)" fill="#e1d4fb"/>
        <circle id="楕円形_14-4" data-name="楕円形 14" cx="3" cy="3" r="3" transform="translate(-734 1860)" fill="#e1d4fb"/>
        <circle id="楕円形_17-4" data-name="楕円形 17" cx="3" cy="3" r="3" transform="translate(-734 1892)" fill="#e1d4fb"/>
        <circle id="楕円形_19-4" data-name="楕円形 19" cx="3" cy="3" r="3" transform="translate(-734 1924)" fill="#e1d4fb"/>
        <circle id="楕円形_16-4" data-name="楕円形 16" cx="3" cy="3" r="3" transform="translate(-734 1876)" fill="#e1d4fb"/>
        <circle id="楕円形_18-4" data-name="楕円形 18" cx="3" cy="3" r="3" transform="translate(-734 1908)" fill="#e1d4fb"/>
      </g>
      <g id="グループ_1926" data-name="グループ 1926" transform="translate(830 -1748)">
        <circle id="楕円形_7-5" data-name="楕円形 7" cx="3" cy="3" r="3" transform="translate(-734 1748)" fill="#e1d4fb"/>
        <circle id="楕円形_9-5" data-name="楕円形 9" cx="3" cy="3" r="3" transform="translate(-734 1780)" fill="#e1d4fb"/>
        <circle id="楕円形_11-5" data-name="楕円形 11" cx="3" cy="3" r="3" transform="translate(-734 1812)" fill="#e1d4fb"/>
        <circle id="楕円形_13-5" data-name="楕円形 13" cx="3" cy="3" r="3" transform="translate(-734 1844)" fill="#e1d4fb"/>
        <circle id="楕円形_15-5" data-name="楕円形 15" cx="3" cy="3" r="3" transform="translate(-734 1860)" fill="#e1d4fb"/>
        <circle id="楕円形_8-5" data-name="楕円形 8" cx="3" cy="3" r="3" transform="translate(-734 1764)" fill="#e1d4fb"/>
        <circle id="楕円形_10-5" data-name="楕円形 10" cx="3" cy="3" r="3" transform="translate(-734 1796)" fill="#e1d4fb"/>
        <circle id="楕円形_12-5" data-name="楕円形 12" cx="3" cy="3" r="3" transform="translate(-734 1828)" fill="#e1d4fb"/>
        <circle id="楕円形_14-5" data-name="楕円形 14" cx="3" cy="3" r="3" transform="translate(-734 1860)" fill="#e1d4fb"/>
        <circle id="楕円形_17-5" data-name="楕円形 17" cx="3" cy="3" r="3" transform="translate(-734 1892)" fill="#e1d4fb"/>
        <circle id="楕円形_19-5" data-name="楕円形 19" cx="3" cy="3" r="3" transform="translate(-734 1924)" fill="#e1d4fb"/>
        <circle id="楕円形_16-5" data-name="楕円形 16" cx="3" cy="3" r="3" transform="translate(-734 1876)" fill="#e1d4fb"/>
        <circle id="楕円形_18-5" data-name="楕円形 18" cx="3" cy="3" r="3" transform="translate(-734 1908)" fill="#e1d4fb"/>
      </g>
      <g id="グループ_1930" data-name="グループ 1930" transform="translate(766 -1748)">
        <circle id="楕円形_7-6" data-name="楕円形 7" cx="3" cy="3" r="3" transform="translate(-734 1748)" fill="#e1d4fb"/>
        <circle id="楕円形_9-6" data-name="楕円形 9" cx="3" cy="3" r="3" transform="translate(-734 1780)" fill="#e1d4fb"/>
        <circle id="楕円形_11-6" data-name="楕円形 11" cx="3" cy="3" r="3" transform="translate(-734 1812)" fill="#e1d4fb"/>
        <circle id="楕円形_13-6" data-name="楕円形 13" cx="3" cy="3" r="3" transform="translate(-734 1844)" fill="#e1d4fb"/>
        <circle id="楕円形_15-6" data-name="楕円形 15" cx="3" cy="3" r="3" transform="translate(-734 1860)" fill="#e1d4fb"/>
        <circle id="楕円形_8-6" data-name="楕円形 8" cx="3" cy="3" r="3" transform="translate(-734 1764)" fill="#e1d4fb"/>
        <circle id="楕円形_10-6" data-name="楕円形 10" cx="3" cy="3" r="3" transform="translate(-734 1796)" fill="#e1d4fb"/>
        <circle id="楕円形_12-6" data-name="楕円形 12" cx="3" cy="3" r="3" transform="translate(-734 1828)" fill="#e1d4fb"/>
        <circle id="楕円形_14-6" data-name="楕円形 14" cx="3" cy="3" r="3" transform="translate(-734 1860)" fill="#e1d4fb"/>
        <circle id="楕円形_17-6" data-name="楕円形 17" cx="3" cy="3" r="3" transform="translate(-734 1892)" fill="#e1d4fb"/>
        <circle id="楕円形_19-6" data-name="楕円形 19" cx="3" cy="3" r="3" transform="translate(-734 1924)" fill="#e1d4fb"/>
        <circle id="楕円形_16-6" data-name="楕円形 16" cx="3" cy="3" r="3" transform="translate(-734 1876)" fill="#e1d4fb"/>
        <circle id="楕円形_18-6" data-name="楕円形 18" cx="3" cy="3" r="3" transform="translate(-734 1908)" fill="#e1d4fb"/>
      </g>
      <g id="グループ_1922" data-name="グループ 1922" transform="translate(878 -1748)">
        <circle id="楕円形_7-7" data-name="楕円形 7" cx="3" cy="3" r="3" transform="translate(-734 1748)" fill="#e1d4fb"/>
        <circle id="楕円形_9-7" data-name="楕円形 9" cx="3" cy="3" r="3" transform="translate(-734 1780)" fill="#e1d4fb"/>
        <circle id="楕円形_11-7" data-name="楕円形 11" cx="3" cy="3" r="3" transform="translate(-734 1812)" fill="#e1d4fb"/>
        <circle id="楕円形_13-7" data-name="楕円形 13" cx="3" cy="3" r="3" transform="translate(-734 1844)" fill="#e1d4fb"/>
        <circle id="楕円形_15-7" data-name="楕円形 15" cx="3" cy="3" r="3" transform="translate(-734 1860)" fill="#e1d4fb"/>
        <circle id="楕円形_8-7" data-name="楕円形 8" cx="3" cy="3" r="3" transform="translate(-734 1764)" fill="#e1d4fb"/>
        <circle id="楕円形_10-7" data-name="楕円形 10" cx="3" cy="3" r="3" transform="translate(-734 1796)" fill="#e1d4fb"/>
        <circle id="楕円形_12-7" data-name="楕円形 12" cx="3" cy="3" r="3" transform="translate(-734 1828)" fill="#e1d4fb"/>
        <circle id="楕円形_14-7" data-name="楕円形 14" cx="3" cy="3" r="3" transform="translate(-734 1860)" fill="#e1d4fb"/>
        <circle id="楕円形_17-7" data-name="楕円形 17" cx="3" cy="3" r="3" transform="translate(-734 1892)" fill="#e1d4fb"/>
        <circle id="楕円形_19-7" data-name="楕円形 19" cx="3" cy="3" r="3" transform="translate(-734 1924)" fill="#e1d4fb"/>
        <circle id="楕円形_16-7" data-name="楕円形 16" cx="3" cy="3" r="3" transform="translate(-734 1876)" fill="#e1d4fb"/>
        <circle id="楕円形_18-7" data-name="楕円形 18" cx="3" cy="3" r="3" transform="translate(-734 1908)" fill="#e1d4fb"/>
      </g>
      <g id="グループ_1925" data-name="グループ 1925" transform="translate(814 -1748)">
        <circle id="楕円形_7-8" data-name="楕円形 7" cx="3" cy="3" r="3" transform="translate(-734 1748)" fill="#e1d4fb"/>
        <circle id="楕円形_9-8" data-name="楕円形 9" cx="3" cy="3" r="3" transform="translate(-734 1780)" fill="#e1d4fb"/>
        <circle id="楕円形_11-8" data-name="楕円形 11" cx="3" cy="3" r="3" transform="translate(-734 1812)" fill="#e1d4fb"/>
        <circle id="楕円形_13-8" data-name="楕円形 13" cx="3" cy="3" r="3" transform="translate(-734 1844)" fill="#e1d4fb"/>
        <circle id="楕円形_15-8" data-name="楕円形 15" cx="3" cy="3" r="3" transform="translate(-734 1860)" fill="#e1d4fb"/>
        <circle id="楕円形_8-8" data-name="楕円形 8" cx="3" cy="3" r="3" transform="translate(-734 1764)" fill="#e1d4fb"/>
        <circle id="楕円形_10-8" data-name="楕円形 10" cx="3" cy="3" r="3" transform="translate(-734 1796)" fill="#e1d4fb"/>
        <circle id="楕円形_12-8" data-name="楕円形 12" cx="3" cy="3" r="3" transform="translate(-734 1828)" fill="#e1d4fb"/>
        <circle id="楕円形_14-8" data-name="楕円形 14" cx="3" cy="3" r="3" transform="translate(-734 1860)" fill="#e1d4fb"/>
        <circle id="楕円形_17-8" data-name="楕円形 17" cx="3" cy="3" r="3" transform="translate(-734 1892)" fill="#e1d4fb"/>
        <circle id="楕円形_19-8" data-name="楕円形 19" cx="3" cy="3" r="3" transform="translate(-734 1924)" fill="#e1d4fb"/>
        <circle id="楕円形_16-8" data-name="楕円形 16" cx="3" cy="3" r="3" transform="translate(-734 1876)" fill="#e1d4fb"/>
        <circle id="楕円形_18-8" data-name="楕円形 18" cx="3" cy="3" r="3" transform="translate(-734 1908)" fill="#e1d4fb"/>
      </g>
      <g id="グループ_1929" data-name="グループ 1929" transform="translate(750 -1748)">
        <circle id="楕円形_7-9" data-name="楕円形 7" cx="3" cy="3" r="3" transform="translate(-734 1748)" fill="#e1d4fb"/>
        <circle id="楕円形_9-9" data-name="楕円形 9" cx="3" cy="3" r="3" transform="translate(-734 1780)" fill="#e1d4fb"/>
        <circle id="楕円形_11-9" data-name="楕円形 11" cx="3" cy="3" r="3" transform="translate(-734 1812)" fill="#e1d4fb"/>
        <circle id="楕円形_13-9" data-name="楕円形 13" cx="3" cy="3" r="3" transform="translate(-734 1844)" fill="#e1d4fb"/>
        <circle id="楕円形_15-9" data-name="楕円形 15" cx="3" cy="3" r="3" transform="translate(-734 1860)" fill="#e1d4fb"/>
        <circle id="楕円形_8-9" data-name="楕円形 8" cx="3" cy="3" r="3" transform="translate(-734 1764)" fill="#e1d4fb"/>
        <circle id="楕円形_10-9" data-name="楕円形 10" cx="3" cy="3" r="3" transform="translate(-734 1796)" fill="#e1d4fb"/>
        <circle id="楕円形_12-9" data-name="楕円形 12" cx="3" cy="3" r="3" transform="translate(-734 1828)" fill="#e1d4fb"/>
        <circle id="楕円形_14-9" data-name="楕円形 14" cx="3" cy="3" r="3" transform="translate(-734 1860)" fill="#e1d4fb"/>
        <circle id="楕円形_17-9" data-name="楕円形 17" cx="3" cy="3" r="3" transform="translate(-734 1892)" fill="#e1d4fb"/>
        <circle id="楕円形_19-9" data-name="楕円形 19" cx="3" cy="3" r="3" transform="translate(-734 1924)" fill="#e1d4fb"/>
        <circle id="楕円形_16-9" data-name="楕円形 16" cx="3" cy="3" r="3" transform="translate(-734 1876)" fill="#e1d4fb"/>
        <circle id="楕円形_18-9" data-name="楕円形 18" cx="3" cy="3" r="3" transform="translate(-734 1908)" fill="#e1d4fb"/>
      </g>
      <g id="グループ_1923" data-name="グループ 1923" transform="translate(862 -1748)">
        <circle id="楕円形_7-10" data-name="楕円形 7" cx="3" cy="3" r="3" transform="translate(-734 1748)" fill="#e1d4fb"/>
        <circle id="楕円形_9-10" data-name="楕円形 9" cx="3" cy="3" r="3" transform="translate(-734 1780)" fill="#e1d4fb"/>
        <circle id="楕円形_11-10" data-name="楕円形 11" cx="3" cy="3" r="3" transform="translate(-734 1812)" fill="#e1d4fb"/>
        <circle id="楕円形_13-10" data-name="楕円形 13" cx="3" cy="3" r="3" transform="translate(-734 1844)" fill="#e1d4fb"/>
        <circle id="楕円形_15-10" data-name="楕円形 15" cx="3" cy="3" r="3" transform="translate(-734 1860)" fill="#e1d4fb"/>
        <circle id="楕円形_8-10" data-name="楕円形 8" cx="3" cy="3" r="3" transform="translate(-734 1764)" fill="#e1d4fb"/>
        <circle id="楕円形_10-10" data-name="楕円形 10" cx="3" cy="3" r="3" transform="translate(-734 1796)" fill="#e1d4fb"/>
        <circle id="楕円形_12-10" data-name="楕円形 12" cx="3" cy="3" r="3" transform="translate(-734 1828)" fill="#e1d4fb"/>
        <circle id="楕円形_14-10" data-name="楕円形 14" cx="3" cy="3" r="3" transform="translate(-734 1860)" fill="#e1d4fb"/>
        <circle id="楕円形_17-10" data-name="楕円形 17" cx="3" cy="3" r="3" transform="translate(-734 1892)" fill="#e1d4fb"/>
        <circle id="楕円形_19-10" data-name="楕円形 19" cx="3" cy="3" r="3" transform="translate(-734 1924)" fill="#e1d4fb"/>
        <circle id="楕円形_16-10" data-name="楕円形 16" cx="3" cy="3" r="3" transform="translate(-734 1876)" fill="#e1d4fb"/>
        <circle id="楕円形_18-10" data-name="楕円形 18" cx="3" cy="3" r="3" transform="translate(-734 1908)" fill="#e1d4fb"/>
      </g>
      <g id="グループ_1924" data-name="グループ 1924" transform="translate(798 -1748)">
        <circle id="楕円形_7-11" data-name="楕円形 7" cx="3" cy="3" r="3" transform="translate(-734 1748)" fill="#e1d4fb"/>
        <circle id="楕円形_9-11" data-name="楕円形 9" cx="3" cy="3" r="3" transform="translate(-734 1780)" fill="#e1d4fb"/>
        <circle id="楕円形_11-11" data-name="楕円形 11" cx="3" cy="3" r="3" transform="translate(-734 1812)" fill="#e1d4fb"/>
        <circle id="楕円形_13-11" data-name="楕円形 13" cx="3" cy="3" r="3" transform="translate(-734 1844)" fill="#e1d4fb"/>
        <circle id="楕円形_15-11" data-name="楕円形 15" cx="3" cy="3" r="3" transform="translate(-734 1860)" fill="#e1d4fb"/>
        <circle id="楕円形_8-11" data-name="楕円形 8" cx="3" cy="3" r="3" transform="translate(-734 1764)" fill="#e1d4fb"/>
        <circle id="楕円形_10-11" data-name="楕円形 10" cx="3" cy="3" r="3" transform="translate(-734 1796)" fill="#e1d4fb"/>
        <circle id="楕円形_12-11" data-name="楕円形 12" cx="3" cy="3" r="3" transform="translate(-734 1828)" fill="#e1d4fb"/>
        <circle id="楕円形_14-11" data-name="楕円形 14" cx="3" cy="3" r="3" transform="translate(-734 1860)" fill="#e1d4fb"/>
        <circle id="楕円形_17-11" data-name="楕円形 17" cx="3" cy="3" r="3" transform="translate(-734 1892)" fill="#e1d4fb"/>
        <circle id="楕円形_19-11" data-name="楕円形 19" cx="3" cy="3" r="3" transform="translate(-734 1924)" fill="#e1d4fb"/>
        <circle id="楕円形_16-11" data-name="楕円形 16" cx="3" cy="3" r="3" transform="translate(-734 1876)" fill="#e1d4fb"/>
        <circle id="楕円形_18-11" data-name="楕円形 18" cx="3" cy="3" r="3" transform="translate(-734 1908)" fill="#e1d4fb"/>
      </g>
      <g id="グループ_1928" data-name="グループ 1928" transform="translate(734 -1748)">
        <circle id="楕円形_7-12" data-name="楕円形 7" cx="3" cy="3" r="3" transform="translate(-734 1748)" fill="#e1d4fb"/>
        <circle id="楕円形_9-12" data-name="楕円形 9" cx="3" cy="3" r="3" transform="translate(-734 1780)" fill="#e1d4fb"/>
        <circle id="楕円形_11-12" data-name="楕円形 11" cx="3" cy="3" r="3" transform="translate(-734 1812)" fill="#e1d4fb"/>
        <circle id="楕円形_13-12" data-name="楕円形 13" cx="3" cy="3" r="3" transform="translate(-734 1844)" fill="#e1d4fb"/>
        <circle id="楕円形_15-12" data-name="楕円形 15" cx="3" cy="3" r="3" transform="translate(-734 1860)" fill="#e1d4fb"/>
        <circle id="楕円形_8-12" data-name="楕円形 8" cx="3" cy="3" r="3" transform="translate(-734 1764)" fill="#e1d4fb"/>
        <circle id="楕円形_10-12" data-name="楕円形 10" cx="3" cy="3" r="3" transform="translate(-734 1796)" fill="#e1d4fb"/>
        <circle id="楕円形_12-12" data-name="楕円形 12" cx="3" cy="3" r="3" transform="translate(-734 1828)" fill="#e1d4fb"/>
        <circle id="楕円形_14-12" data-name="楕円形 14" cx="3" cy="3" r="3" transform="translate(-734 1860)" fill="#e1d4fb"/>
        <circle id="楕円形_17-12" data-name="楕円形 17" cx="3" cy="3" r="3" transform="translate(-734 1892)" fill="#e1d4fb"/>
        <circle id="楕円形_19-12" data-name="楕円形 19" cx="3" cy="3" r="3" transform="translate(-734 1924)" fill="#e1d4fb"/>
        <circle id="楕円形_16-12" data-name="楕円形 16" cx="3" cy="3" r="3" transform="translate(-734 1876)" fill="#e1d4fb"/>
        <circle id="楕円形_18-12" data-name="楕円形 18" cx="3" cy="3" r="3" transform="translate(-734 1908)" fill="#e1d4fb"/>
      </g>
    </g>
    <g id="グループ_1936" data-name="グループ 1936" transform="translate(138 1529)">
      <circle id="楕円形_7-13" data-name="楕円形 7" cx="3" cy="3" r="3" transform="translate(66 644)" fill="#e1d4fb"/>
      <circle id="楕円形_9-13" data-name="楕円形 9" cx="3" cy="3" r="3" transform="translate(66 676)" fill="#e1d4fb"/>
      <circle id="楕円形_11-13" data-name="楕円形 11" cx="3" cy="3" r="3" transform="translate(66 708)" fill="#e1d4fb"/>
      <circle id="楕円形_8-13" data-name="楕円形 8" cx="3" cy="3" r="3" transform="translate(66 660)" fill="#e1d4fb"/>
      <circle id="楕円形_10-13" data-name="楕円形 10" cx="3" cy="3" r="3" transform="translate(66 692)" fill="#e1d4fb"/>
      <circle id="楕円形_12-13" data-name="楕円形 12" cx="3" cy="3" r="3" transform="translate(66 724)" fill="#e1d4fb"/>
      <circle id="楕円形_7-14" data-name="楕円形 7" cx="3" cy="3" r="3" transform="translate(50 644)" fill="#e1d4fb"/>
      <circle id="楕円形_9-14" data-name="楕円形 9" cx="3" cy="3" r="3" transform="translate(50 676)" fill="#e1d4fb"/>
      <circle id="楕円形_11-14" data-name="楕円形 11" cx="3" cy="3" r="3" transform="translate(50 708)" fill="#e1d4fb"/>
      <circle id="楕円形_8-14" data-name="楕円形 8" cx="3" cy="3" r="3" transform="translate(50 660)" fill="#e1d4fb"/>
      <circle id="楕円形_10-14" data-name="楕円形 10" cx="3" cy="3" r="3" transform="translate(50 692)" fill="#e1d4fb"/>
      <circle id="楕円形_12-14" data-name="楕円形 12" cx="3" cy="3" r="3" transform="translate(50 724)" fill="#e1d4fb"/>
      <circle id="楕円形_7-15" data-name="楕円形 7" cx="3" cy="3" r="3" transform="translate(98 644)" fill="#e1d4fb"/>
      <circle id="楕円形_9-15" data-name="楕円形 9" cx="3" cy="3" r="3" transform="translate(98 676)" fill="#e1d4fb"/>
      <circle id="楕円形_11-15" data-name="楕円形 11" cx="3" cy="3" r="3" transform="translate(98 708)" fill="#e1d4fb"/>
      <circle id="楕円形_8-15" data-name="楕円形 8" cx="3" cy="3" r="3" transform="translate(98 660)" fill="#e1d4fb"/>
      <circle id="楕円形_10-15" data-name="楕円形 10" cx="3" cy="3" r="3" transform="translate(98 692)" fill="#e1d4fb"/>
      <circle id="楕円形_12-15" data-name="楕円形 12" cx="3" cy="3" r="3" transform="translate(98 724)" fill="#e1d4fb"/>
      <circle id="楕円形_7-16" data-name="楕円形 7" cx="3" cy="3" r="3" transform="translate(34 644)" fill="#e1d4fb"/>
      <circle id="楕円形_9-16" data-name="楕円形 9" cx="3" cy="3" r="3" transform="translate(34 676)" fill="#e1d4fb"/>
      <circle id="楕円形_11-16" data-name="楕円形 11" cx="3" cy="3" r="3" transform="translate(34 708)" fill="#e1d4fb"/>
      <circle id="楕円形_8-16" data-name="楕円形 8" cx="3" cy="3" r="3" transform="translate(34 660)" fill="#e1d4fb"/>
      <circle id="楕円形_10-16" data-name="楕円形 10" cx="3" cy="3" r="3" transform="translate(34 692)" fill="#e1d4fb"/>
      <circle id="楕円形_12-16" data-name="楕円形 12" cx="3" cy="3" r="3" transform="translate(34 724)" fill="#e1d4fb"/>
      <circle id="楕円形_7-17" data-name="楕円形 7" cx="3" cy="3" r="3" transform="translate(82 644)" fill="#e1d4fb"/>
      <circle id="楕円形_9-17" data-name="楕円形 9" cx="3" cy="3" r="3" transform="translate(82 676)" fill="#e1d4fb"/>
      <circle id="楕円形_11-17" data-name="楕円形 11" cx="3" cy="3" r="3" transform="translate(82 708)" fill="#e1d4fb"/>
      <circle id="楕円形_8-17" data-name="楕円形 8" cx="3" cy="3" r="3" transform="translate(82 660)" fill="#e1d4fb"/>
      <circle id="楕円形_10-17" data-name="楕円形 10" cx="3" cy="3" r="3" transform="translate(82 692)" fill="#e1d4fb"/>
      <circle id="楕円形_12-17" data-name="楕円形 12" cx="3" cy="3" r="3" transform="translate(82 724)" fill="#e1d4fb"/>
      <circle id="楕円形_7-18" data-name="楕円形 7" cx="3" cy="3" r="3" transform="translate(18 644)" fill="#e1d4fb"/>
      <circle id="楕円形_9-18" data-name="楕円形 9" cx="3" cy="3" r="3" transform="translate(18 676)" fill="#e1d4fb"/>
      <circle id="楕円形_11-18" data-name="楕円形 11" cx="3" cy="3" r="3" transform="translate(18 708)" fill="#e1d4fb"/>
      <circle id="楕円形_8-18" data-name="楕円形 8" cx="3" cy="3" r="3" transform="translate(18 660)" fill="#e1d4fb"/>
      <circle id="楕円形_10-18" data-name="楕円形 10" cx="3" cy="3" r="3" transform="translate(18 692)" fill="#e1d4fb"/>
      <circle id="楕円形_12-18" data-name="楕円形 12" cx="3" cy="3" r="3" transform="translate(18 724)" fill="#e1d4fb"/>
    </g>
    <g id="グループ_3156" data-name="グループ 3156" transform="translate(277 1108)">
      <circle id="楕円形_7-19" data-name="楕円形 7" cx="3" cy="3" r="3" transform="translate(66 644)" fill="#e1d4fb"/>
      <circle id="楕円形_9-19" data-name="楕円形 9" cx="3" cy="3" r="3" transform="translate(66 676)" fill="#e1d4fb"/>
      <circle id="楕円形_8-19" data-name="楕円形 8" cx="3" cy="3" r="3" transform="translate(66 660)" fill="#e1d4fb"/>
      <circle id="楕円形_10-19" data-name="楕円形 10" cx="3" cy="3" r="3" transform="translate(66 692)" fill="#e1d4fb"/>
      <circle id="楕円形_7-20" data-name="楕円形 7" cx="3" cy="3" r="3" transform="translate(50 644)" fill="#e1d4fb"/>
      <circle id="楕円形_9-20" data-name="楕円形 9" cx="3" cy="3" r="3" transform="translate(50 676)" fill="#e1d4fb"/>
      <circle id="楕円形_8-20" data-name="楕円形 8" cx="3" cy="3" r="3" transform="translate(50 660)" fill="#e1d4fb"/>
      <circle id="楕円形_10-20" data-name="楕円形 10" cx="3" cy="3" r="3" transform="translate(50 692)" fill="#e1d4fb"/>
      <circle id="楕円形_7-21" data-name="楕円形 7" cx="3" cy="3" r="3" transform="translate(98 644)" fill="#e1d4fb"/>
      <circle id="楕円形_9-21" data-name="楕円形 9" cx="3" cy="3" r="3" transform="translate(98 676)" fill="#e1d4fb"/>
      <circle id="楕円形_8-21" data-name="楕円形 8" cx="3" cy="3" r="3" transform="translate(98 660)" fill="#e1d4fb"/>
      <circle id="楕円形_10-21" data-name="楕円形 10" cx="3" cy="3" r="3" transform="translate(98 692)" fill="#e1d4fb"/>
      <circle id="楕円形_7-22" data-name="楕円形 7" cx="3" cy="3" r="3" transform="translate(82 644)" fill="#e1d4fb"/>
      <circle id="楕円形_9-22" data-name="楕円形 9" cx="3" cy="3" r="3" transform="translate(82 676)" fill="#e1d4fb"/>
      <circle id="楕円形_8-22" data-name="楕円形 8" cx="3" cy="3" r="3" transform="translate(82 660)" fill="#e1d4fb"/>
      <circle id="楕円形_10-22" data-name="楕円形 10" cx="3" cy="3" r="3" transform="translate(82 692)" fill="#e1d4fb"/>
    </g>
  </g>
</svg>
