<svg xmlns="http://www.w3.org/2000/svg" width="1257" height="1321" viewBox="0 0 1257 1321">
  <g id="グループ_5192" data-name="グループ 5192" transform="translate(-32 -2547)">
    <g id="グループ_1936" data-name="グループ 1936" transform="translate(14 3138)">
      <circle id="楕円形_7" data-name="楕円形 7" cx="3" cy="3" r="3" transform="translate(66 644)" fill="#e1d4fb"/>
      <circle id="楕円形_9" data-name="楕円形 9" cx="3" cy="3" r="3" transform="translate(66 676)" fill="#e1d4fb"/>
      <circle id="楕円形_11" data-name="楕円形 11" cx="3" cy="3" r="3" transform="translate(66 708)" fill="#e1d4fb"/>
      <circle id="楕円形_8" data-name="楕円形 8" cx="3" cy="3" r="3" transform="translate(66 660)" fill="#e1d4fb"/>
      <circle id="楕円形_10" data-name="楕円形 10" cx="3" cy="3" r="3" transform="translate(66 692)" fill="#e1d4fb"/>
      <circle id="楕円形_12" data-name="楕円形 12" cx="3" cy="3" r="3" transform="translate(66 724)" fill="#e1d4fb"/>
      <circle id="楕円形_7-2" data-name="楕円形 7" cx="3" cy="3" r="3" transform="translate(50 644)" fill="#e1d4fb"/>
      <circle id="楕円形_9-2" data-name="楕円形 9" cx="3" cy="3" r="3" transform="translate(50 676)" fill="#e1d4fb"/>
      <circle id="楕円形_11-2" data-name="楕円形 11" cx="3" cy="3" r="3" transform="translate(50 708)" fill="#e1d4fb"/>
      <circle id="楕円形_8-2" data-name="楕円形 8" cx="3" cy="3" r="3" transform="translate(50 660)" fill="#e1d4fb"/>
      <circle id="楕円形_10-2" data-name="楕円形 10" cx="3" cy="3" r="3" transform="translate(50 692)" fill="#e1d4fb"/>
      <circle id="楕円形_12-2" data-name="楕円形 12" cx="3" cy="3" r="3" transform="translate(50 724)" fill="#e1d4fb"/>
      <circle id="楕円形_7-3" data-name="楕円形 7" cx="3" cy="3" r="3" transform="translate(98 644)" fill="#e1d4fb"/>
      <circle id="楕円形_9-3" data-name="楕円形 9" cx="3" cy="3" r="3" transform="translate(98 676)" fill="#e1d4fb"/>
      <circle id="楕円形_11-3" data-name="楕円形 11" cx="3" cy="3" r="3" transform="translate(98 708)" fill="#e1d4fb"/>
      <circle id="楕円形_8-3" data-name="楕円形 8" cx="3" cy="3" r="3" transform="translate(98 660)" fill="#e1d4fb"/>
      <circle id="楕円形_10-3" data-name="楕円形 10" cx="3" cy="3" r="3" transform="translate(98 692)" fill="#e1d4fb"/>
      <circle id="楕円形_12-3" data-name="楕円形 12" cx="3" cy="3" r="3" transform="translate(98 724)" fill="#e1d4fb"/>
      <circle id="楕円形_7-4" data-name="楕円形 7" cx="3" cy="3" r="3" transform="translate(34 644)" fill="#e1d4fb"/>
      <circle id="楕円形_9-4" data-name="楕円形 9" cx="3" cy="3" r="3" transform="translate(34 676)" fill="#e1d4fb"/>
      <circle id="楕円形_11-4" data-name="楕円形 11" cx="3" cy="3" r="3" transform="translate(34 708)" fill="#e1d4fb"/>
      <circle id="楕円形_8-4" data-name="楕円形 8" cx="3" cy="3" r="3" transform="translate(34 660)" fill="#e1d4fb"/>
      <circle id="楕円形_10-4" data-name="楕円形 10" cx="3" cy="3" r="3" transform="translate(34 692)" fill="#e1d4fb"/>
      <circle id="楕円形_12-4" data-name="楕円形 12" cx="3" cy="3" r="3" transform="translate(34 724)" fill="#e1d4fb"/>
      <circle id="楕円形_7-5" data-name="楕円形 7" cx="3" cy="3" r="3" transform="translate(82 644)" fill="#e1d4fb"/>
      <circle id="楕円形_9-5" data-name="楕円形 9" cx="3" cy="3" r="3" transform="translate(82 676)" fill="#e1d4fb"/>
      <circle id="楕円形_11-5" data-name="楕円形 11" cx="3" cy="3" r="3" transform="translate(82 708)" fill="#e1d4fb"/>
      <circle id="楕円形_8-5" data-name="楕円形 8" cx="3" cy="3" r="3" transform="translate(82 660)" fill="#e1d4fb"/>
      <circle id="楕円形_10-5" data-name="楕円形 10" cx="3" cy="3" r="3" transform="translate(82 692)" fill="#e1d4fb"/>
      <circle id="楕円形_12-5" data-name="楕円形 12" cx="3" cy="3" r="3" transform="translate(82 724)" fill="#e1d4fb"/>
      <circle id="楕円形_7-6" data-name="楕円形 7" cx="3" cy="3" r="3" transform="translate(18 644)" fill="#e1d4fb"/>
      <circle id="楕円形_9-6" data-name="楕円形 9" cx="3" cy="3" r="3" transform="translate(18 676)" fill="#e1d4fb"/>
      <circle id="楕円形_11-6" data-name="楕円形 11" cx="3" cy="3" r="3" transform="translate(18 708)" fill="#e1d4fb"/>
      <circle id="楕円形_8-6" data-name="楕円形 8" cx="3" cy="3" r="3" transform="translate(18 660)" fill="#e1d4fb"/>
      <circle id="楕円形_10-6" data-name="楕円形 10" cx="3" cy="3" r="3" transform="translate(18 692)" fill="#e1d4fb"/>
      <circle id="楕円形_12-6" data-name="楕円形 12" cx="3" cy="3" r="3" transform="translate(18 724)" fill="#e1d4fb"/>
    </g>
    <g id="グループ_1941" data-name="グループ 1941" transform="translate(176 1903)">
      <circle id="楕円形_7-7" data-name="楕円形 7" cx="3" cy="3" r="3" transform="translate(66 644)" fill="#e1d4fb"/>
      <circle id="楕円形_9-7" data-name="楕円形 9" cx="3" cy="3" r="3" transform="translate(66 676)" fill="#e1d4fb"/>
      <circle id="楕円形_8-7" data-name="楕円形 8" cx="3" cy="3" r="3" transform="translate(66 660)" fill="#e1d4fb"/>
      <circle id="楕円形_10-7" data-name="楕円形 10" cx="3" cy="3" r="3" transform="translate(66 692)" fill="#e1d4fb"/>
      <circle id="楕円形_7-8" data-name="楕円形 7" cx="3" cy="3" r="3" transform="translate(50 644)" fill="#e1d4fb"/>
      <circle id="楕円形_9-8" data-name="楕円形 9" cx="3" cy="3" r="3" transform="translate(50 676)" fill="#e1d4fb"/>
      <circle id="楕円形_8-8" data-name="楕円形 8" cx="3" cy="3" r="3" transform="translate(50 660)" fill="#e1d4fb"/>
      <circle id="楕円形_10-8" data-name="楕円形 10" cx="3" cy="3" r="3" transform="translate(50 692)" fill="#e1d4fb"/>
      <circle id="楕円形_7-9" data-name="楕円形 7" cx="3" cy="3" r="3" transform="translate(98 644)" fill="#e1d4fb"/>
      <circle id="楕円形_9-9" data-name="楕円形 9" cx="3" cy="3" r="3" transform="translate(98 676)" fill="#e1d4fb"/>
      <circle id="楕円形_8-9" data-name="楕円形 8" cx="3" cy="3" r="3" transform="translate(98 660)" fill="#e1d4fb"/>
      <circle id="楕円形_10-9" data-name="楕円形 10" cx="3" cy="3" r="3" transform="translate(98 692)" fill="#e1d4fb"/>
      <circle id="楕円形_7-10" data-name="楕円形 7" cx="3" cy="3" r="3" transform="translate(82 644)" fill="#e1d4fb"/>
      <circle id="楕円形_9-10" data-name="楕円形 9" cx="3" cy="3" r="3" transform="translate(82 676)" fill="#e1d4fb"/>
      <circle id="楕円形_8-10" data-name="楕円形 8" cx="3" cy="3" r="3" transform="translate(82 660)" fill="#e1d4fb"/>
      <circle id="楕円形_10-10" data-name="楕円形 10" cx="3" cy="3" r="3" transform="translate(82 692)" fill="#e1d4fb"/>
    </g>
    <g id="グループ_1934" data-name="グループ 1934" transform="translate(1185 2044)">
      <circle id="楕円形_7-11" data-name="楕円形 7" cx="3" cy="3" r="3" transform="translate(66 644)" fill="#e1d4fb"/>
      <circle id="楕円形_9-11" data-name="楕円形 9" cx="3" cy="3" r="3" transform="translate(66 676)" fill="#e1d4fb"/>
      <circle id="楕円形_11-7" data-name="楕円形 11" cx="3" cy="3" r="3" transform="translate(66 708)" fill="#e1d4fb"/>
      <circle id="楕円形_8-11" data-name="楕円形 8" cx="3" cy="3" r="3" transform="translate(66 660)" fill="#e1d4fb"/>
      <circle id="楕円形_10-11" data-name="楕円形 10" cx="3" cy="3" r="3" transform="translate(66 692)" fill="#e1d4fb"/>
      <circle id="楕円形_12-7" data-name="楕円形 12" cx="3" cy="3" r="3" transform="translate(66 724)" fill="#e1d4fb"/>
      <circle id="楕円形_7-12" data-name="楕円形 7" cx="3" cy="3" r="3" transform="translate(50 644)" fill="#e1d4fb"/>
      <circle id="楕円形_9-12" data-name="楕円形 9" cx="3" cy="3" r="3" transform="translate(50 676)" fill="#e1d4fb"/>
      <circle id="楕円形_11-8" data-name="楕円形 11" cx="3" cy="3" r="3" transform="translate(50 708)" fill="#e1d4fb"/>
      <circle id="楕円形_8-12" data-name="楕円形 8" cx="3" cy="3" r="3" transform="translate(50 660)" fill="#e1d4fb"/>
      <circle id="楕円形_10-12" data-name="楕円形 10" cx="3" cy="3" r="3" transform="translate(50 692)" fill="#e1d4fb"/>
      <circle id="楕円形_12-8" data-name="楕円形 12" cx="3" cy="3" r="3" transform="translate(50 724)" fill="#e1d4fb"/>
      <circle id="楕円形_7-13" data-name="楕円形 7" cx="3" cy="3" r="3" transform="translate(98 644)" fill="#e1d4fb"/>
      <circle id="楕円形_9-13" data-name="楕円形 9" cx="3" cy="3" r="3" transform="translate(98 676)" fill="#e1d4fb"/>
      <circle id="楕円形_11-9" data-name="楕円形 11" cx="3" cy="3" r="3" transform="translate(98 708)" fill="#e1d4fb"/>
      <circle id="楕円形_8-13" data-name="楕円形 8" cx="3" cy="3" r="3" transform="translate(98 660)" fill="#e1d4fb"/>
      <circle id="楕円形_10-13" data-name="楕円形 10" cx="3" cy="3" r="3" transform="translate(98 692)" fill="#e1d4fb"/>
      <circle id="楕円形_12-9" data-name="楕円形 12" cx="3" cy="3" r="3" transform="translate(98 724)" fill="#e1d4fb"/>
      <circle id="楕円形_7-14" data-name="楕円形 7" cx="3" cy="3" r="3" transform="translate(34 644)" fill="#e1d4fb"/>
      <circle id="楕円形_9-14" data-name="楕円形 9" cx="3" cy="3" r="3" transform="translate(34 676)" fill="#e1d4fb"/>
      <circle id="楕円形_11-10" data-name="楕円形 11" cx="3" cy="3" r="3" transform="translate(34 708)" fill="#e1d4fb"/>
      <circle id="楕円形_8-14" data-name="楕円形 8" cx="3" cy="3" r="3" transform="translate(34 660)" fill="#e1d4fb"/>
      <circle id="楕円形_10-14" data-name="楕円形 10" cx="3" cy="3" r="3" transform="translate(34 692)" fill="#e1d4fb"/>
      <circle id="楕円形_12-10" data-name="楕円形 12" cx="3" cy="3" r="3" transform="translate(34 724)" fill="#e1d4fb"/>
      <circle id="楕円形_7-15" data-name="楕円形 7" cx="3" cy="3" r="3" transform="translate(82 644)" fill="#e1d4fb"/>
      <circle id="楕円形_9-15" data-name="楕円形 9" cx="3" cy="3" r="3" transform="translate(82 676)" fill="#e1d4fb"/>
      <circle id="楕円形_11-11" data-name="楕円形 11" cx="3" cy="3" r="3" transform="translate(82 708)" fill="#e1d4fb"/>
      <circle id="楕円形_8-15" data-name="楕円形 8" cx="3" cy="3" r="3" transform="translate(82 660)" fill="#e1d4fb"/>
      <circle id="楕円形_10-15" data-name="楕円形 10" cx="3" cy="3" r="3" transform="translate(82 692)" fill="#e1d4fb"/>
      <circle id="楕円形_12-11" data-name="楕円形 12" cx="3" cy="3" r="3" transform="translate(82 724)" fill="#e1d4fb"/>
      <circle id="楕円形_7-16" data-name="楕円形 7" cx="3" cy="3" r="3" transform="translate(18 644)" fill="#e1d4fb"/>
      <circle id="楕円形_9-16" data-name="楕円形 9" cx="3" cy="3" r="3" transform="translate(18 676)" fill="#e1d4fb"/>
      <circle id="楕円形_11-12" data-name="楕円形 11" cx="3" cy="3" r="3" transform="translate(18 708)" fill="#e1d4fb"/>
      <circle id="楕円形_8-16" data-name="楕円形 8" cx="3" cy="3" r="3" transform="translate(18 660)" fill="#e1d4fb"/>
      <circle id="楕円形_10-16" data-name="楕円形 10" cx="3" cy="3" r="3" transform="translate(18 692)" fill="#e1d4fb"/>
      <circle id="楕円形_12-12" data-name="楕円形 12" cx="3" cy="3" r="3" transform="translate(18 724)" fill="#e1d4fb"/>
    </g>
  </g>
</svg>
