<svg xmlns="http://www.w3.org/2000/svg" width="1205" height="450" viewBox="0 0 1205 450">
  <g id="グループ_5187" data-name="グループ 5187" transform="translate(-122 -1104)">
    <g id="グループ_1935" data-name="グループ 1935" transform="translate(1223 824)">
      <circle id="楕円形_7" data-name="楕円形 7" cx="3" cy="3" r="3" transform="translate(66 644)" fill="#e1d4fb"/>
      <circle id="楕円形_9" data-name="楕円形 9" cx="3" cy="3" r="3" transform="translate(66 676)" fill="#e1d4fb"/>
      <circle id="楕円形_11" data-name="楕円形 11" cx="3" cy="3" r="3" transform="translate(66 708)" fill="#e1d4fb"/>
      <circle id="楕円形_8" data-name="楕円形 8" cx="3" cy="3" r="3" transform="translate(66 660)" fill="#e1d4fb"/>
      <circle id="楕円形_10" data-name="楕円形 10" cx="3" cy="3" r="3" transform="translate(66 692)" fill="#e1d4fb"/>
      <circle id="楕円形_12" data-name="楕円形 12" cx="3" cy="3" r="3" transform="translate(66 724)" fill="#e1d4fb"/>
      <circle id="楕円形_7-2" data-name="楕円形 7" cx="3" cy="3" r="3" transform="translate(50 644)" fill="#e1d4fb"/>
      <circle id="楕円形_9-2" data-name="楕円形 9" cx="3" cy="3" r="3" transform="translate(50 676)" fill="#e1d4fb"/>
      <circle id="楕円形_11-2" data-name="楕円形 11" cx="3" cy="3" r="3" transform="translate(50 708)" fill="#e1d4fb"/>
      <circle id="楕円形_8-2" data-name="楕円形 8" cx="3" cy="3" r="3" transform="translate(50 660)" fill="#e1d4fb"/>
      <circle id="楕円形_10-2" data-name="楕円形 10" cx="3" cy="3" r="3" transform="translate(50 692)" fill="#e1d4fb"/>
      <circle id="楕円形_12-2" data-name="楕円形 12" cx="3" cy="3" r="3" transform="translate(50 724)" fill="#e1d4fb"/>
      <circle id="楕円形_7-3" data-name="楕円形 7" cx="3" cy="3" r="3" transform="translate(98 644)" fill="#e1d4fb"/>
      <circle id="楕円形_9-3" data-name="楕円形 9" cx="3" cy="3" r="3" transform="translate(98 676)" fill="#e1d4fb"/>
      <circle id="楕円形_11-3" data-name="楕円形 11" cx="3" cy="3" r="3" transform="translate(98 708)" fill="#e1d4fb"/>
      <circle id="楕円形_8-3" data-name="楕円形 8" cx="3" cy="3" r="3" transform="translate(98 660)" fill="#e1d4fb"/>
      <circle id="楕円形_10-3" data-name="楕円形 10" cx="3" cy="3" r="3" transform="translate(98 692)" fill="#e1d4fb"/>
      <circle id="楕円形_12-3" data-name="楕円形 12" cx="3" cy="3" r="3" transform="translate(98 724)" fill="#e1d4fb"/>
      <circle id="楕円形_7-4" data-name="楕円形 7" cx="3" cy="3" r="3" transform="translate(34 644)" fill="#e1d4fb"/>
      <circle id="楕円形_9-4" data-name="楕円形 9" cx="3" cy="3" r="3" transform="translate(34 676)" fill="#e1d4fb"/>
      <circle id="楕円形_11-4" data-name="楕円形 11" cx="3" cy="3" r="3" transform="translate(34 708)" fill="#e1d4fb"/>
      <circle id="楕円形_8-4" data-name="楕円形 8" cx="3" cy="3" r="3" transform="translate(34 660)" fill="#e1d4fb"/>
      <circle id="楕円形_10-4" data-name="楕円形 10" cx="3" cy="3" r="3" transform="translate(34 692)" fill="#e1d4fb"/>
      <circle id="楕円形_12-4" data-name="楕円形 12" cx="3" cy="3" r="3" transform="translate(34 724)" fill="#e1d4fb"/>
      <circle id="楕円形_7-5" data-name="楕円形 7" cx="3" cy="3" r="3" transform="translate(82 644)" fill="#e1d4fb"/>
      <circle id="楕円形_9-5" data-name="楕円形 9" cx="3" cy="3" r="3" transform="translate(82 676)" fill="#e1d4fb"/>
      <circle id="楕円形_11-5" data-name="楕円形 11" cx="3" cy="3" r="3" transform="translate(82 708)" fill="#e1d4fb"/>
      <circle id="楕円形_8-5" data-name="楕円形 8" cx="3" cy="3" r="3" transform="translate(82 660)" fill="#e1d4fb"/>
      <circle id="楕円形_10-5" data-name="楕円形 10" cx="3" cy="3" r="3" transform="translate(82 692)" fill="#e1d4fb"/>
      <circle id="楕円形_12-5" data-name="楕円形 12" cx="3" cy="3" r="3" transform="translate(82 724)" fill="#e1d4fb"/>
      <circle id="楕円形_7-6" data-name="楕円形 7" cx="3" cy="3" r="3" transform="translate(18 644)" fill="#e1d4fb"/>
      <circle id="楕円形_9-6" data-name="楕円形 9" cx="3" cy="3" r="3" transform="translate(18 676)" fill="#e1d4fb"/>
      <circle id="楕円形_11-6" data-name="楕円形 11" cx="3" cy="3" r="3" transform="translate(18 708)" fill="#e1d4fb"/>
      <circle id="楕円形_8-6" data-name="楕円形 8" cx="3" cy="3" r="3" transform="translate(18 660)" fill="#e1d4fb"/>
      <circle id="楕円形_10-6" data-name="楕円形 10" cx="3" cy="3" r="3" transform="translate(18 692)" fill="#e1d4fb"/>
      <circle id="楕円形_12-6" data-name="楕円形 12" cx="3" cy="3" r="3" transform="translate(18 724)" fill="#e1d4fb"/>
    </g>
    <g id="グループ_1940" data-name="グループ 1940" transform="translate(72 460)">
      <circle id="楕円形_7-7" data-name="楕円形 7" cx="3" cy="3" r="3" transform="translate(66 644)" fill="#e1d4fb"/>
      <circle id="楕円形_9-7" data-name="楕円形 9" cx="3" cy="3" r="3" transform="translate(66 676)" fill="#e1d4fb"/>
      <circle id="楕円形_8-7" data-name="楕円形 8" cx="3" cy="3" r="3" transform="translate(66 660)" fill="#e1d4fb"/>
      <circle id="楕円形_10-7" data-name="楕円形 10" cx="3" cy="3" r="3" transform="translate(66 692)" fill="#e1d4fb"/>
      <circle id="楕円形_7-8" data-name="楕円形 7" cx="3" cy="3" r="3" transform="translate(50 644)" fill="#e1d4fb"/>
      <circle id="楕円形_9-8" data-name="楕円形 9" cx="3" cy="3" r="3" transform="translate(50 676)" fill="#e1d4fb"/>
      <circle id="楕円形_8-8" data-name="楕円形 8" cx="3" cy="3" r="3" transform="translate(50 660)" fill="#e1d4fb"/>
      <circle id="楕円形_10-8" data-name="楕円形 10" cx="3" cy="3" r="3" transform="translate(50 692)" fill="#e1d4fb"/>
      <circle id="楕円形_7-9" data-name="楕円形 7" cx="3" cy="3" r="3" transform="translate(98 644)" fill="#e1d4fb"/>
      <circle id="楕円形_9-9" data-name="楕円形 9" cx="3" cy="3" r="3" transform="translate(98 676)" fill="#e1d4fb"/>
      <circle id="楕円形_8-9" data-name="楕円形 8" cx="3" cy="3" r="3" transform="translate(98 660)" fill="#e1d4fb"/>
      <circle id="楕円形_10-9" data-name="楕円形 10" cx="3" cy="3" r="3" transform="translate(98 692)" fill="#e1d4fb"/>
      <circle id="楕円形_7-10" data-name="楕円形 7" cx="3" cy="3" r="3" transform="translate(82 644)" fill="#e1d4fb"/>
      <circle id="楕円形_9-10" data-name="楕円形 9" cx="3" cy="3" r="3" transform="translate(82 676)" fill="#e1d4fb"/>
      <circle id="楕円形_8-10" data-name="楕円形 8" cx="3" cy="3" r="3" transform="translate(82 660)" fill="#e1d4fb"/>
      <circle id="楕円形_10-10" data-name="楕円形 10" cx="3" cy="3" r="3" transform="translate(82 692)" fill="#e1d4fb"/>
    </g>
  </g>
</svg>
