<svg fill="none" height="72" viewBox="0 0 72 72" width="72" xmlns="http://www.w3.org/2000/svg"><g fill="#fff"><path d="m42 21c-1.6569 0-3 1.3431-3 3v6c0 1.6569 1.3431 3 3 3h6c1.6569 0 3-1.3431 3-3s-1.3431-3-3-3h-3v-3c0-1.6569-1.3431-3-3-3z"/><path d="m24 36c-1.6569 0-3 1.3431-3 3s1.3431 3 3 3h24c1.6569 0 3-1.3431 3-3s-1.3431-3-3-3z"/><path d="m21 30c0-1.6569 1.3431-3 3-3h9c1.6569 0 3 1.3431 3 3s-1.3431 3-3 3h-9c-1.6569 0-3-1.3431-3-3z"/><path d="m24 45c-1.6569 0-3 1.3431-3 3s1.3431 3 3 3h24c1.6569 0 3-1.3431 3-3s-1.3431-3-3-3z"/><path clip-rule="evenodd" d="m21 12c-4.9706 0-9 4.0294-9 9v30c0 4.9706 4.0294 9 9 9h30c4.9706 0 9-4.0294 9-9v-24.5147c0-2.387-.9482-4.6762-2.636-6.364l-5.4853-5.4853c-1.6879-1.6878-3.977-2.636-6.364-2.636zm-3 9c0-1.6569 1.3431-3 3-3h24.5147c.7957 0 1.5587.3161 2.1213.8787l5.4853 5.4853c.5626.5626.8787 1.3256.8787 2.1213v24.5147c0 1.6569-1.3431 3-3 3h-30c-1.6569 0-3-1.3431-3-3z" fill-rule="evenodd"/></g></svg>