<svg fill="none" height="480" viewBox="0 0 480 480" width="480" xmlns="http://www.w3.org/2000/svg"><path clip-rule="evenodd" d="m130.909 21.8182c0 12.0498-9.768 21.8182-21.818 21.8182-12.0499 0-21.8183-9.7684-21.8183-21.8182 0-12.04987 9.7684-21.8182 21.8183-21.8182 12.05 0 21.818 9.76833 21.818 21.8182zm-109.0908 109.0908c12.0498 0 21.8182-9.768 21.8182-21.818 0-12.0499-9.7684-21.8183-21.8182-21.8183-12.04987 0-21.8182 9.7684-21.8182 21.8183 0 12.05 9.76833 21.818 21.8182 21.818zm0 87.273c12.0498 0 21.8182-9.769 21.8182-21.818 0-12.05-9.7684-21.819-21.8182-21.819-12.04987 0-21.8182 9.769-21.8182 21.819 0 12.049 9.76833 21.818 21.8182 21.818zm21.8182 65.454c0 12.05-9.7684 21.819-21.8182 21.819-12.04987 0-21.8182-9.769-21.8182-21.819 0-12.049 9.76833-21.818 21.8182-21.818 12.0498 0 21.8182 9.769 21.8182 21.818zm-21.8182 109.091c12.0498 0 21.8182-9.768 21.8182-21.818s-9.7684-21.818-21.8182-21.818c-12.04987 0-21.8182 9.768-21.8182 21.818s9.76833 21.818 21.8182 21.818zm87.2728-261.818c12.05 0 21.818-9.768 21.818-21.818 0-12.0499-9.768-21.8183-21.818-21.8183-12.0499 0-21.8183 9.7684-21.8183 21.8183 0 12.05 9.7684 21.818 21.8183 21.818zm21.818 65.455c0 12.049-9.768 21.818-21.818 21.818-12.0499 0-21.8183-9.769-21.8183-21.818 0-12.05 9.7684-21.819 21.8183-21.819 12.05 0 21.818 9.769 21.818 21.819zm-21.818 109.091c12.05 0 21.818-9.769 21.818-21.819 0-12.049-9.768-21.818-21.818-21.818-12.0499 0-21.8183 9.769-21.8183 21.818 0 12.05 9.7684 21.819 21.8183 21.819zm21.818 65.454c0 12.05-9.768 21.818-21.818 21.818-12.0499 0-21.8183-9.768-21.8183-21.818s9.7684-21.818 21.8183-21.818c12.05 0 21.818 9.768 21.818 21.818zm-21.818 109.091c12.05 0 21.818-9.768 21.818-21.818s-9.768-21.818-21.818-21.818c-12.0499 0-21.8183 9.768-21.8183 21.818s9.7684 21.818 21.8183 21.818zm109.091-458.1818c0 12.0498-9.769 21.8182-21.818 21.8182-12.05 0-21.819-9.7684-21.819-21.8182 0-12.04987 9.769-21.8182 21.819-21.8182 12.049 0 21.818 9.76833 21.818 21.8182zm-21.818 109.0908c12.049 0 21.818-9.768 21.818-21.818 0-12.0499-9.769-21.8183-21.818-21.8183-12.05 0-21.819 9.7684-21.819 21.8183 0 12.05 9.769 21.818 21.819 21.818zm21.818 65.455c0 12.049-9.769 21.818-21.818 21.818-12.05 0-21.819-9.769-21.819-21.818 0-12.05 9.769-21.819 21.819-21.819 12.049 0 21.818 9.769 21.818 21.819zm-21.818 109.091c12.049 0 21.818-9.769 21.818-21.819 0-12.049-9.769-21.818-21.818-21.818-12.05 0-21.819 9.769-21.819 21.818 0 12.05 9.769 21.819 21.819 21.819zm21.818 65.454c0 12.05-9.769 21.818-21.818 21.818-12.05 0-21.819-9.768-21.819-21.818s9.769-21.818 21.819-21.818c12.049 0 21.818 9.768 21.818 21.818zm-21.818 109.091c12.049 0 21.818-9.768 21.818-21.818s-9.769-21.818-21.818-21.818c-12.05 0-21.819 9.768-21.819 21.818s9.769 21.818 21.819 21.818zm109.091-458.1818c0 12.0498-9.769 21.8182-21.819 21.8182-12.049 0-21.818-9.7684-21.818-21.8182 0-12.04987 9.769-21.8182 21.818-21.8182 12.05 0 21.819 9.76833 21.819 21.8182zm-21.819 109.0908c12.05 0 21.819-9.768 21.819-21.818 0-12.0499-9.769-21.8183-21.819-21.8183-12.049 0-21.818 9.7684-21.818 21.8183 0 12.05 9.769 21.818 21.818 21.818zm21.819 65.455c0 12.049-9.769 21.818-21.819 21.818-12.049 0-21.818-9.769-21.818-21.818 0-12.05 9.769-21.819 21.818-21.819 12.05 0 21.819 9.769 21.819 21.819zm-21.819 109.091c12.05 0 21.819-9.769 21.819-21.819 0-12.049-9.769-21.818-21.819-21.818-12.049 0-21.818 9.769-21.818 21.818 0 12.05 9.769 21.819 21.818 21.819zm21.819 65.454c0 12.05-9.769 21.818-21.819 21.818-12.049 0-21.818-9.768-21.818-21.818s9.769-21.818 21.818-21.818c12.05 0 21.819 9.768 21.819 21.818zm-21.819 109.091c12.05 0 21.819-9.768 21.819-21.818s-9.769-21.818-21.819-21.818c-12.049 0-21.818 9.768-21.818 21.818s9.769 21.818 21.818 21.818zm109.091-458.1818c0 12.0498-9.768 21.8182-21.818 21.8182s-21.818-9.7684-21.818-21.8182c0-12.04987 9.768-21.8182 21.818-21.8182s21.818 9.76833 21.818 21.8182zm-21.818 109.0908c12.05 0 21.818-9.768 21.818-21.818 0-12.0499-9.768-21.8183-21.818-21.8183s-21.818 9.7684-21.818 21.8183c0 12.05 9.768 21.818 21.818 21.818zm21.818 65.455c0 12.049-9.768 21.818-21.818 21.818s-21.818-9.769-21.818-21.818c0-12.05 9.768-21.819 21.818-21.819s21.818 9.769 21.818 21.819zm-21.818 109.091c12.05 0 21.818-9.769 21.818-21.819 0-12.049-9.768-21.818-21.818-21.818s-21.818 9.769-21.818 21.818c0 12.05 9.768 21.819 21.818 21.819zm21.818 65.454c0 12.05-9.768 21.818-21.818 21.818s-21.818-9.768-21.818-21.818 9.768-21.818 21.818-21.818 21.818 9.768 21.818 21.818zm-21.818 109.091c12.05 0 21.818-9.768 21.818-21.818s-9.768-21.818-21.818-21.818-21.818 9.768-21.818 21.818 9.768 21.818 21.818 21.818zm109.091-370.909c0 12.05-9.768 21.818-21.818 21.818s-21.818-9.768-21.818-21.818c0-12.0499 9.768-21.8183 21.818-21.8183s21.818 9.7684 21.818 21.8183zm-21.818 109.091c12.05 0 21.818-9.769 21.818-21.818 0-12.05-9.768-21.819-21.818-21.819s-21.818 9.769-21.818 21.819c0 12.049 9.768 21.818 21.818 21.818zm21.818 65.454c0 12.05-9.768 21.819-21.818 21.819s-21.818-9.769-21.818-21.819c0-12.049 9.768-21.818 21.818-21.818s21.818 9.769 21.818 21.818zm-21.818 109.091c12.05 0 21.818-9.768 21.818-21.818s-9.768-21.818-21.818-21.818-21.818 9.768-21.818 21.818 9.768 21.818 21.818 21.818z" fill="#fff" fill-rule="evenodd" opacity=".1"/></svg>